<svg xmlns="http://www.w3.org/2000/svg" xmlns:xlink="http://www.w3.org/1999/xlink" width="222.967" height="59" viewBox="0 0 222.967 59">
  <title>Nextep</title>
  <path d="M6.79,92.729a3.4,3.4,0,1,1-3.4-3.394,3.395,3.395,0,0,1,3.4,3.394" transform="translate(0.001 -49.974)" fill="#5c688e"></path>
  <path d="M25.6,92.727a3.4,3.4,0,1,1-3.4-3.4,3.4,3.4,0,0,1,3.4,3.4" transform="translate(-10.522 -49.971)" fill="#bfc3c5"></path>
  <path d="M44.4,92.727a3.4,3.4,0,1,1-3.4-3.4,3.394,3.394,0,0,1,3.4,3.4" transform="translate(-21.037 -49.971)" fill="#bfc3c5"></path>
  <path d="M63.2,92.727a3.4,3.4,0,1,1-3.4-3.4,3.4,3.4,0,0,1,3.4,3.4" transform="translate(-31.556 -49.971)" fill="#bfc3c5"></path>
  <path d="M82.006,92.727a3.4,3.4,0,1,1-3.4-3.4,3.4,3.4,0,0,1,3.4,3.4" transform="translate(-42.074 -49.971)" fill="#bfc3c5"></path>
  <path d="M6.79,73.931a3.4,3.4,0,1,1-3.4-3.393,3.4,3.4,0,0,1,3.4,3.393" transform="translate(0.001 -39.459)" fill="#5c688e"></path>
  <path d="M25.6,73.931a3.4,3.4,0,1,1-3.4-3.393,3.4,3.4,0,0,1,3.4,3.393" transform="translate(-10.522 -39.459)" fill="#5c688e"></path>
  <path d="M44.4,73.931A3.4,3.4,0,1,1,41,70.538a3.4,3.4,0,0,1,3.4,3.393" transform="translate(-21.037 -39.459)" fill="#5c688e"></path>
  <path d="M63.2,73.931a3.4,3.4,0,1,1-3.4-3.393,3.4,3.4,0,0,1,3.4,3.393" transform="translate(-31.556 -39.459)" fill="#bfc3c5"></path>
  <path d="M82.006,73.931a3.4,3.4,0,1,1-3.4-3.393,3.4,3.4,0,0,1,3.4,3.393" transform="translate(-42.074 -39.459)" fill="#bfc3c5"></path>
  <path d="M44.4,55.128a3.4,3.4,0,1,1-3.4-3.4,3.395,3.395,0,0,1,3.4,3.4" transform="translate(-21.037 -28.938)" fill="#5c688e"></path>
  <path d="M63.2,55.128a3.4,3.4,0,1,1-3.4-3.4,3.4,3.4,0,0,1,3.4,3.4" transform="translate(-31.556 -28.938)" fill="#bfc3c5"></path>
  <path d="M82.006,55.128a3.4,3.4,0,1,1-3.4-3.4,3.4,3.4,0,0,1,3.4,3.4" transform="translate(-42.074 -28.938)" fill="#bfc3c5"></path>
  <path d="M44.4,36.323a3.4,3.4,0,1,1-3.4-3.4,3.4,3.4,0,0,1,3.4,3.4" transform="translate(-21.037 -18.419)" fill="#5c688e"></path>
  <path d="M63.2,36.323a3.4,3.4,0,1,1-3.4-3.4,3.4,3.4,0,0,1,3.4,3.4" transform="translate(-31.556 -18.419)" fill="#5c688e"></path>
  <path d="M82.006,36.323a3.4,3.4,0,1,1-3.4-3.4,3.4,3.4,0,0,1,3.4,3.4" transform="translate(-42.074 -18.419)" fill="#5c688e"></path>
  <path d="M82.006,17.525a3.4,3.4,0,1,1-3.4-3.4,3.4,3.4,0,0,1,3.4,3.4" transform="translate(-42.074 -7.904)" fill="#5c688e"></path>
  <path d="M122.276,54.115h-5.56V15.128H122v4.1c.9-1.88,3.751-4.59,8.474-4.59,7.3,0,10.288,4.8,10.288,13.483V54.115h-5.63V28.4c0-5.841-1.041-9.038-6.461-9.038-4.309,0-6.394,2.575-6.394,7.787Z" transform="translate(-65.291 -8.191)" fill="#303239"></path>
  <path d="M210.993,36.251H192.51v5.212c0,5.07,2.225,8.2,6.462,8.2,3.821,0,6.394-2.365,6.394-5.84V42.57h5.626v.63c0,6.183-4.166,11.254-12.02,11.254-7.646,0-12.02-5-12.02-12.857V26.868c0-7.577,4.375-12.51,12.02-12.51,7.5,0,12.02,4.933,12.02,12.51Zm-12.02-17.027c-3.752,0-6.462,2.359-6.462,6.876v6.048h12.856V26.24c0-4.447-2.573-7.016-6.394-7.016" transform="translate(-104.581 -8.032)" fill="#303239"></path>
  <path d="M268.406,34.522,279.1,54.6h-6.323l-7.506-14.87-7.5,14.87H251.45l10.7-20.082-10.006-18.9h6.394l6.738,13.62,6.813-13.62h6.39Z" transform="translate(-140.661 -8.737)" fill="#303239"></path>
  <path d="M324.132,7.3c3.683,0,5.141-1.529,5.141-7.3h3.754V6.881h7.156v4.934h-7.156V30.578c0,7.713-.138,10.5,4.933,10.631.764,0,1.667-.067,2.362-.067v5c-.624.068-1.806.141-2.849,0-.101,0-10.075-5.212-10.075-13.83V11.816h-3.266Z" transform="translate(-181.319)" fill="#303239"></path>
  <path d="M398.477,36.251H379.992v5.211c0,5.069,2.223,8.2,6.461,8.2,3.821,0,6.393-2.366,6.393-5.84V42.57h5.631v.63c0,6.183-4.168,11.254-12.024,11.254-7.644,0-12.019-5-12.019-12.857V26.868c0-7.577,4.376-12.51,12.019-12.51,7.506,0,12.024,4.933,12.024,12.51ZM386.453,19.224c-3.751,0-6.461,2.359-6.461,6.876v6.049h12.854V26.24c0-4.447-2.571-7.016-6.393-7.016" transform="translate(-209.458 -8.032)" fill="#303239"></path>
  <path d="M469.265,28.02V42.331c0,8-3.893,12.165-10.286,12.165-4.723,0-7.295-2.5-8.2-4.38V67.21h-5.56V15.092h5.28v4.171c.9-1.881,3.753-4.585,8.477-4.585,6.6,0,10.286,4.375,10.286,13.343m-18.483-.974V41.985c0,5.076,2.433,7.713,6.39,7.713,4.1,0,6.464-2.637,6.464-7.713V27.251c0-5.069-2.363-7.849-6.464-7.849-3.82,0-6.39,2.637-6.39,7.644" transform="translate(-249.057 -8.21)" fill="#303239"></path>
  <path d="M499.864,16.555V15.6a1.3,1.3,0,0,1,1.378-1.41,1.284,1.284,0,0,1,1.348,1.41v.953a1.267,1.267,0,0,1-1.348,1.39,1.285,1.285,0,0,1-1.378-1.39m2.571,0V15.6a1.137,1.137,0,0,0-1.194-1.254A1.154,1.154,0,0,0,500.02,15.6v.953a1.141,1.141,0,0,0,1.222,1.235,1.125,1.125,0,0,0,1.194-1.235m-1.653.016v.679h-.23V14.911h.53c.663,0,.886.286.886.834V15.8c0,.466-.14.669-.685.736.094.114.68.716.68.716h-.28l-.633-.679Zm0-.223h.3c.486,0,.659-.14.659-.56v-.052c0-.419-.172-.6-.656-.6h-.3Z" transform="translate(-279.623 -7.938)" fill="#303239"></path>
</svg>