<svg width="708" height="588" viewBox="0 0 708 588" fill="none" xmlns="http://www.w3.org/2000/svg">
<g filter="url(#filter0_d_1_87704)">
<rect x="51.9941" y="397.145" width="603.683" height="92.7044" rx="20.9579" fill="white"/>
</g>
<g filter="url(#filter1_d_1_87704)">
<rect x="43.3027" y="370.309" width="621.395" height="60.6239" rx="21.6514" fill="white"/>
</g>
<rect x="0.541284" y="0.541284" width="706.917" height="496.177" rx="21.1101" fill="#F2F5F6" stroke="#E2E2E2" stroke-width="1.08257"/>
<rect x="0.541284" y="32.6233" width="706.917" height="47.5924" fill="white" stroke="#E6EBED" stroke-width="1.08257"/>
<path d="M665.763 56.0908V66.6143H655.239V65.6572H664.806V56.0908H665.763ZM661.936 54.1777V62.7871H653.326V54.1777H661.936Z" stroke="#666666" stroke-width="0.956634"/>
<path fill-rule="evenodd" clip-rule="evenodd" d="M688.155 52.7422H678.685V55.6389H688.155V52.7422ZM690.048 64.3289H689.102V68.1911H688.153H678.687H677.738V64.3289H676.792L675.844 64.3289V56.6044L676.792 56.6044L690.996 56.6044V57.5671V64.3289H690.048ZM687.208 62.3978H679.632V66.26H687.208V62.3978ZM687.208 59.5011V58.5355H689.102V59.5011H687.208Z" stroke="#666666" stroke-width="0.956634"/>
<path fill-rule="evenodd" clip-rule="evenodd" d="M640.567 58.9695C640.44 58.4688 640.251 57.9949 640.01 57.5573L640.648 56.4371C640.908 55.9807 640.831 55.3077 640.47 54.928C640.112 54.5509 639.475 54.4644 639.038 54.7411L637.96 55.4224C637.56 55.1837 637.129 54.9963 636.675 54.8686L636.392 53.6771C636.268 53.1555 635.76 52.7422 635.254 52.7422C634.744 52.7422 634.238 53.1608 634.115 53.6771L633.833 54.8686C633.37 54.9985 632.932 55.1902 632.526 55.4349L631.429 54.7411C630.991 54.4644 630.354 54.5509 629.997 54.928C629.636 55.3077 629.559 55.9807 629.819 56.4371L630.478 57.5934C630.245 58.0209 630.063 58.4826 629.94 58.9695L628.809 59.2673C628.314 59.3978 627.922 59.9334 627.922 60.4666C627.922 61.0036 628.319 61.5368 628.809 61.6659L629.94 61.9638C630.057 62.4236 630.225 62.8608 630.439 63.2681L629.819 64.3571C629.559 64.8135 629.636 65.4865 629.997 65.8662C630.354 66.2433 630.991 66.3298 631.429 66.0531L632.415 65.4296C632.791 65.6684 633.195 65.8613 633.622 66.0008L633.92 67.2562C634.044 67.7778 634.552 68.1911 635.059 68.1911C635.568 68.1911 636.074 67.7725 636.197 67.2562L636.467 66.1185C637.041 65.9823 637.581 65.7514 638.072 65.4424L639.038 66.0531C639.475 66.3298 640.112 66.2433 640.47 65.8662C640.831 65.4865 640.908 64.8135 640.648 64.3571L640.048 63.3048C640.272 62.8872 640.447 62.4374 640.567 61.9638L641.698 61.6659C642.193 61.5355 642.585 60.9999 642.585 60.4666C642.585 59.9297 642.188 59.3964 641.698 59.2673L640.567 58.9695ZM635.254 64.3289C637.278 64.3289 638.919 62.5997 638.919 60.4666C638.919 58.3336 637.278 56.6044 635.254 56.6044C633.229 56.6044 631.588 58.3336 631.588 60.4666C631.588 62.5997 633.229 64.3289 635.254 64.3289ZM637.087 60.4666C637.087 61.5332 636.266 62.3978 635.254 62.3978C634.241 62.3978 633.421 61.5332 633.421 60.4666C633.421 59.4001 634.241 58.5355 635.254 58.5355C636.266 58.5355 637.087 59.4001 637.087 60.4666Z" stroke="#666666" stroke-width="0.956634"/>
<path fill-rule="evenodd" clip-rule="evenodd" d="M612.2 54.6738C611.742 54.6738 611.79 54.6738 611.284 54.6738C610.774 54.6738 610.826 54.6738 610.368 54.6738V59.5016H605.785C605.785 59.9844 605.785 59.9339 605.785 60.4672C605.785 61.0042 605.785 60.9499 605.785 61.4327L610.368 61.4327V66.2605C610.826 66.2605 610.778 66.2605 611.284 66.2605C611.794 66.2605 611.742 66.2605 612.2 66.2605L612.2 61.4327L616.783 61.4327C616.783 60.9499 616.783 61.0004 616.783 60.4672C616.783 59.9302 616.783 59.9844 616.783 59.5016L612.2 59.5016V54.6738Z" fill="#666666"/>
<rect x="446.255" y="45.2588" width="89.219" height="21.9224" fill="white"/>
<rect x="446.255" y="45.2588" width="89.219" height="21.9224" stroke="#D1DADE" stroke-width="0.509823"/>
<text opacity="0.6" fill="black" style="white-space: pre" xml:space="preserve" font-family="Sage UI" font-size="9.17681" letter-spacing="0px"><tspan x="453.137" y="59.7721">5/30/2024</tspan></text>
<path d="M527.263 54.6785V60.5606H518.697V54.6785H527.263ZM528.585 53.416H517.375V61.823H528.585V53.416Z" fill="black"/>
<path d="M528.591 51.9824H517.375V53.9941H528.591V51.9824Z" fill="black"/>
<path d="M521.471 50.877H518.709V53.425H521.471V50.877Z" fill="white"/>
<path d="M520.827 50.6094H519.365V52.8166H520.827V50.6094Z" fill="black"/>
<path d="M527.252 50.877H524.49V53.4251H527.252V50.877Z" fill="white"/>
<path d="M526.602 50.6094H525.141V52.8167H526.602V50.6094Z" fill="black"/>
<path d="M521.614 55.5664H520.152V57.254H521.614V55.5664Z" fill="black"/>
<path d="M523.71 55.5703H522.248V57.2579H523.71V55.5703Z" fill="black"/>
<path d="M523.712 57.9883H522.25V59.6759H523.712V57.9883Z" fill="black"/>
<path d="M525.811 55.5703H524.35V57.2579H525.811V55.5703Z" fill="black"/>
<path d="M521.614 57.9883H520.152V59.6759H521.614V57.9883Z" fill="black"/>
<path d="M525.809 57.9883H524.348V59.6759H525.809V57.9883Z" fill="black"/>
<rect x="543.122" y="45.2549" width="53.5314" height="21.9224" fill="white"/>
<rect x="543.122" y="45.2549" width="53.5314" height="21.9224" stroke="#0060A7" stroke-width="0.509823"/>
<path fill-rule="evenodd" clip-rule="evenodd" d="M556.996 56.2155L562.24 50.0977H550.004L554.374 56.2155V62.3334L556.996 60.5854V56.2155Z" stroke="#0060A7" stroke-width="1.01965"/>
<text fill="#0060A7" style="white-space: pre" xml:space="preserve" font-family="Sage UI" font-size="9.17681" letter-spacing="0px"><tspan x="567.771" y="59.7682">Clear</tspan></text>
<path d="M0 21.6514C0 9.69366 9.69365 0 21.6514 0H686.349C698.306 0 708 9.69366 708 21.6514V32.4771H0V21.6514Z" fill="#333333"/>
<text fill="black" style="white-space: pre" xml:space="preserve" font-family="Sage UI" font-size="18.8063" font-weight="bold" letter-spacing="0px"><tspan x="22" y="63.778">Project Performance</tspan></text>
<path d="M11.0625 105.734C11.0625 98.125 17.2305 91.957 24.839 91.957H683.161C690.77 91.957 696.938 98.125 696.938 105.734V145.16C696.938 152.769 690.77 158.937 683.161 158.937H24.8391C17.2305 158.937 11.0625 152.769 11.0625 145.16V105.734Z" fill="white"/>
<line x1="124.385" y1="101.799" x2="124.385" y2="153.469" stroke="#E6EBED" stroke-width="0.984039"/>
<line x1="239.025" y1="101.812" x2="239.025" y2="153.483" stroke="#E6EBED" stroke-width="0.984039"/>
<line x1="358.948" y1="101.812" x2="358.948" y2="153.572" stroke="#E6EBED" stroke-width="0.93213"/>
<line x1="467.029" y1="101.812" x2="467.029" y2="153.572" stroke="#E6EBED" stroke-width="0.93213"/>
<line x1="581.861" y1="101.812" x2="581.861" y2="153.572" stroke="#E6EBED" stroke-width="0.93213"/>
<text fill="black" style="white-space: pre" xml:space="preserve" font-family="Sage UI" font-size="9.3213" letter-spacing="0px"><tspan x="23.6387" y="110.906">Project Revenue </tspan></text>
<text fill="black" style="white-space: pre" xml:space="preserve" font-family="Sage UI" font-size="12.9585" font-weight="bold" letter-spacing="0px"><tspan x="23.6387" y="130.636">$107,107,567 </tspan></text>
<text fill="black" fill-opacity="0.65" style="white-space: pre" xml:space="preserve" font-family="Sage UI" font-size="5.80542" letter-spacing="0em"><tspan x="23.6387" y="144.19">inception to date</tspan></text>
<text fill="black" style="white-space: pre" xml:space="preserve" font-family="Sage UI" font-size="9.3213" letter-spacing="0px"><tspan x="133.865" y="110.906">Project Costs </tspan></text>
<text fill="black" style="white-space: pre" xml:space="preserve" font-family="Sage UI" font-size="14.1365" font-weight="bold" letter-spacing="0px"><tspan x="133.865" y="131.592">$93,355,155 &#13;</tspan></text>
<text fill="black" fill-opacity="0.65" style="white-space: pre" xml:space="preserve" font-family="Sage UI" font-size="5.80542" letter-spacing="0em"><tspan x="133.865" y="145.19">inception to date</tspan></text>
<text fill="black" style="white-space: pre" xml:space="preserve" font-family="Sage UI" font-size="9.3213" letter-spacing="0px"><tspan x="250.811" y="110.906">Project Profit Margin &#13;</tspan></text>
<text fill="black" style="white-space: pre" xml:space="preserve" font-family="Sage UI" font-size="14.1365" font-weight="bold" letter-spacing="0px"><tspan x="250.811" y="131.592">$13,752,411 &#13;</tspan></text>
<text fill="black" fill-opacity="0.65" style="white-space: pre" xml:space="preserve" font-family="Sage UI" font-size="5.80542" letter-spacing="0em"><tspan x="250.811" y="145.19">inception to date</tspan></text>
<text fill="black" style="white-space: pre" xml:space="preserve" font-family="Sage UI" font-size="9.3213" letter-spacing="0px"><tspan x="368.521" y="110.906">Project Profit Margin % </tspan></text>
<text fill="black" style="white-space: pre" xml:space="preserve" font-family="Sage UI" font-size="14.1365" font-weight="bold" letter-spacing="0px"><tspan x="368.521" y="131.592">12.84% </tspan></text>
<text fill="black" fill-opacity="0.65" style="white-space: pre" xml:space="preserve" font-family="Sage UI" font-size="5.80542" letter-spacing="0em"><tspan x="368.521" y="145.19">inception to date</tspan></text>
<text fill="black" style="white-space: pre" xml:space="preserve" font-family="Sage UI" font-size="9.3213" letter-spacing="0px"><tspan x="483.088" y="110.906">Active Jobs - GC </tspan></text>
<text fill="black" style="white-space: pre" xml:space="preserve" font-family="Sage UI" font-size="14.1365" font-weight="bold" letter-spacing="0px"><tspan x="483.088" y="131.592">10</tspan></text>
<text fill="black" fill-opacity="0.65" style="white-space: pre" xml:space="preserve" font-family="Sage UI" font-size="5.80542" letter-spacing="0em"><tspan x="483.088" y="145.19">inception to date</tspan></text>
<text fill="black" style="white-space: pre" xml:space="preserve" font-family="Sage UI" font-size="9.3213" letter-spacing="0px"><tspan x="597.549" y="110.906">Active Jobs - MEP </tspan></text>
<text fill="black" style="white-space: pre" xml:space="preserve" font-family="Sage UI" font-size="14.1365" font-weight="bold" letter-spacing="0px"><tspan x="597.549" y="131.592">0</tspan></text>
<text fill="black" fill-opacity="0.65" style="white-space: pre" xml:space="preserve" font-family="Sage UI" font-size="5.80542" letter-spacing="0em"><tspan x="597.549" y="145.19">inception to date</tspan></text>
<path d="M11.0625 179.144C11.0625 171.535 17.2305 165.367 24.839 165.367H683.161C690.77 165.367 696.938 171.535 696.938 179.144V223.709C696.938 231.318 690.77 237.486 683.161 237.486H24.8391C17.2305 237.486 11.0625 231.318 11.0625 223.709V179.144Z" fill="white"/>
<line x1="124.385" y1="177.156" x2="124.385" y2="228.66" stroke="#E6EBED" stroke-width="0.984039"/>
<line x1="239.025" y1="177.17" x2="239.025" y2="228.673" stroke="#E6EBED" stroke-width="0.984039"/>
<line x1="358.948" y1="177.17" x2="358.948" y2="228.763" stroke="#E6EBED" stroke-width="0.93213"/>
<line x1="467.029" y1="177.17" x2="467.029" y2="228.763" stroke="#E6EBED" stroke-width="0.93213"/>
<line x1="581.861" y1="177.17" x2="581.861" y2="228.763" stroke="#E6EBED" stroke-width="0.93213"/>
<text fill="black" style="white-space: pre" xml:space="preserve" font-family="Sage UI" font-size="9.3213" letter-spacing="0px"><tspan x="23.3867" y="186.07">MTD Project Revenue </tspan></text>
<text fill="black" style="white-space: pre" xml:space="preserve" font-family="Sage UI" font-size="12.9585" font-weight="bold" letter-spacing="0px"><tspan x="23.3867" y="206.189">$23,371K</tspan></text>
<rect width="15.8462" height="16.7783" transform="translate(87.0996 192.785)" fill="white"/>
<line x1="94.9906" y1="198.016" x2="94.9906" y2="207.16" stroke="#00D639" stroke-width="2.73114" stroke-linecap="round"/>
<path d="M100.148 199.797L95.4943 195.305C95.2306 195.051 94.8128 195.051 94.5492 195.305L89.895 199.797" stroke="#00D639" stroke-width="2.73433" stroke-linecap="round"/>
<text fill="black" fill-opacity="0.65" style="white-space: pre" xml:space="preserve" font-family="Sage UI" font-size="5.80542" letter-spacing="0em"><tspan x="23.3867" y="220.133">This month to date</tspan></text>
<text fill="black" fill-opacity="0.65" style="white-space: pre" xml:space="preserve" font-family="Sage UI" font-size="5.80542" letter-spacing="0em"><tspan x="42.4079" y="231.956">+$7,224,464 vs. prior month</tspan></text>
<text fill="black" style="white-space: pre" xml:space="preserve" font-family="Sage UI" font-size="9.3213" letter-spacing="0px"><tspan x="133.77" y="186.07">MTD Project Costs </tspan></text>
<text fill="black" style="white-space: pre" xml:space="preserve" font-family="Sage UI" font-size="14.1365" font-weight="bold" letter-spacing="0px"><tspan x="133.77" y="206.756">$19,315K</tspan></text>
<rect width="15.8462" height="16.7783" transform="translate(203.482 192.896)" fill="white"/>
<line x1="211.373" y1="198.127" x2="211.373" y2="207.271" stroke="#00D639" stroke-width="2.73114" stroke-linecap="round"/>
<path d="M216.531 199.908L211.877 195.416C211.613 195.162 211.196 195.162 210.932 195.416L206.278 199.908" stroke="#00D639" stroke-width="2.73433" stroke-linecap="round"/>
<text fill="black" fill-opacity="0.65" style="white-space: pre" xml:space="preserve" font-family="Sage UI" font-size="5.80542" letter-spacing="0em"><tspan x="133.77" y="220.354">This month</tspan></text>
<text fill="black" fill-opacity="0.65" style="white-space: pre" xml:space="preserve" font-family="Sage UI" font-size="5.80542" letter-spacing="0em"><tspan x="159.221" y="232.176">+$4,887,894 vs. prior month</tspan></text>
<text fill="black" style="white-space: pre" xml:space="preserve" font-family="Sage UI" font-size="9.3213" letter-spacing="0px"><tspan x="250.582" y="177.295">Monthly Project &#x2028;</tspan><tspan x="250.582" y="186.295">Profit Margin</tspan></text>
<text fill="black" style="white-space: pre" xml:space="preserve" font-family="Sage UI" font-size="14.1365" font-weight="bold" letter-spacing="0px"><tspan x="250.582" y="205.981">$4,056,141</tspan></text>
<rect width="15.8462" height="16.7783" transform="translate(331.295 192.121)" fill="white"/>
<line x1="339.186" y1="197.352" x2="339.186" y2="206.496" stroke="#00D639" stroke-width="2.73114" stroke-linecap="round"/>
<path d="M344.344 199.133L339.69 194.641C339.426 194.386 339.008 194.386 338.744 194.641L334.09 199.133" stroke="#00D639" stroke-width="2.73433" stroke-linecap="round"/>
<text fill="black" fill-opacity="0.65" style="white-space: pre" xml:space="preserve" font-family="Sage UI" font-size="5.80542" letter-spacing="0em"><tspan x="250.582" y="219.579">This month</tspan></text>
<text fill="black" fill-opacity="0.65" style="white-space: pre" xml:space="preserve" font-family="Sage UI" font-size="5.80542" letter-spacing="0em"><tspan x="282.463" y="231.401">+$2,336,570 vs. prior month </tspan></text>
<text fill="black" style="white-space: pre" xml:space="preserve" font-family="Sage UI" font-size="9.3213" letter-spacing="0px"><tspan x="368.467" y="177.295">Monthly Project &#x2028;</tspan><tspan x="368.467" y="186.295">Profit Margin %</tspan></text>
<text fill="black" style="white-space: pre" xml:space="preserve" font-family="Sage UI" font-size="14.1365" font-weight="bold" letter-spacing="0px"><tspan x="368.467" y="205.981">17%</tspan></text>
<rect width="15.8462" height="16.7783" transform="translate(401.18 192.121)" fill="white"/>
<line x1="409.071" y1="197.352" x2="409.071" y2="206.496" stroke="#00D639" stroke-width="2.73114" stroke-linecap="round"/>
<path d="M414.229 199.133L409.574 194.641C409.311 194.386 408.893 194.386 408.629 194.641L403.975 199.133" stroke="#00D639" stroke-width="2.73433" stroke-linecap="round"/>
<text fill="black" fill-opacity="0.65" style="white-space: pre" xml:space="preserve" font-family="Sage UI" font-size="5.80542" letter-spacing="0em"><tspan x="368.467" y="219.579">This month</tspan></text>
<text fill="black" fill-opacity="0.65" style="white-space: pre" xml:space="preserve" font-family="Sage UI" font-size="5.80542" letter-spacing="0em"><tspan x="416.008" y="231.401">+6 vs. prior month</tspan></text>
<text fill="black" style="white-space: pre" xml:space="preserve" font-family="Sage UI" font-size="9.3213" letter-spacing="0px"><tspan x="483.137" y="186.07">New Jobs this Month</tspan></text>
<text fill="black" style="white-space: pre" xml:space="preserve" font-family="Sage UI" font-size="14.1365" font-weight="bold" letter-spacing="0px"><tspan x="483.137" y="206.756">5</tspan></text>
<g clip-path="url(#clip0_1_87704)">
<rect width="16.4926" height="16.4926" transform="translate(496.85 193.039)" fill="white"/>
<path d="M509.904 202.518L505.261 207.161C504.994 207.428 504.561 207.428 504.294 207.161L499.651 202.518" stroke="#EE2400" stroke-width="2.73433" stroke-linecap="round"/>
<line x1="504.779" y1="204.908" x2="504.779" y2="195.338" stroke="#EE2400" stroke-width="2.73433" stroke-linecap="round"/>
</g>
<text fill="black" fill-opacity="0.65" style="white-space: pre" xml:space="preserve" font-family="Sage UI" font-size="5.80542" letter-spacing="0em"><tspan x="483.137" y="220.354">This month</tspan></text>
<text fill="black" fill-opacity="0.65" style="white-space: pre" xml:space="preserve" font-family="Sage UI" font-size="5.80542" letter-spacing="0em"><tspan x="531.843" y="232.176">-1 vs. prior month</tspan></text>
<text fill="black" style="white-space: pre" xml:space="preserve" font-family="Sage UI" font-size="9.3213" letter-spacing="0px"><tspan x="597.549" y="186.264">All Active Jobs</tspan></text>
<text fill="black" style="white-space: pre" xml:space="preserve" font-family="Sage UI" font-size="14.1365" font-weight="bold" letter-spacing="0px"><tspan x="597.549" y="206.949">14</tspan></text>
<text fill="black" fill-opacity="0.65" style="white-space: pre" xml:space="preserve" font-family="Sage UI" font-size="5.80542" letter-spacing="0em"><tspan x="597.549" y="220.547">inception to date</tspan></text>
<path d="M11.0625 250.773C11.0625 249.742 12.5155 248.906 14.308 248.906H693.692C695.484 248.906 696.938 249.742 696.938 250.773V401.361C696.938 402.392 695.484 403.228 693.692 403.228H14.3079C12.5155 403.228 11.0625 402.392 11.0625 401.361V250.773Z" fill="white"/>
<line x1="21.0195" y1="269.384" x2="685.876" y2="269.384" stroke="#CCD6DB" stroke-width="1.08257"/>
<text fill="black" style="white-space: pre" xml:space="preserve" font-family="Sage UI" font-size="8.29688" font-weight="bold" letter-spacing="0px"><tspan x="22.125" y="262.096">Project Overview</tspan></text>
<rect x="185.828" y="277.115" width="500.047" height="8.93666" fill="#F0F0F0"/>
<text fill="#033ED7" style="white-space: pre" xml:space="preserve" font-family="Sage UI" font-size="4.85141" font-weight="500" letter-spacing="0px"><tspan x="22.125" y="284.024">Active Projects </tspan></text>
<text fill="black" style="white-space: pre" xml:space="preserve" font-family="Sage UI" font-size="4.85141" font-weight="500" letter-spacing="0px"><tspan x="22.125" y="390.045">Total Active Projects </tspan></text>
<text fill="#033ED7" style="white-space: pre" xml:space="preserve" font-family="Sage UI" font-size="4.85141" letter-spacing="0px"><tspan x="27.6055" y="296.459">22-001 - Quick Bowls - Portland &#10;</tspan><tspan x="27.6055" y="302.146">22-002 - The Crest&#10;</tspan><tspan x="27.6055" y="307.833">22-003. Five Oaks Storage&#10;</tspan><tspan x="27.6055" y="313.52">22-004 - Quick Bowls - Tigard&#13;&#10;</tspan><tspan x="27.6055" y="319.207">22-005 - Stratus Corporate Center Tl&#13;&#10;</tspan><tspan x="27.6055" y="324.894">22-006. The Sugar Shoppe&#10;</tspan><tspan x="27.6055" y="330.581">22- 009 - Greenview HS&#13;&#10;</tspan><tspan x="27.6055" y="336.268">23- 007 - Quick Bowls - Vancouver&#10;</tspan><tspan x="27.6055" y="341.955">23-008 - The Lacey Hotel &#10;</tspan><tspan x="27.6055" y="347.642">23-010 - Northside HS&#10;</tspan><tspan x="27.6055" y="353.329">23-011 - Lakewood Distribution Center&#10;</tspan><tspan x="27.6055" y="359.016">23-014-001 - Sumner Warehouse  Distribution Ctr - Building 1&#10;</tspan><tspan x="27.6055" y="364.703">23-014-001 - Sumner Warehouse  Distribution Ctr - Building 2 &#10;</tspan><tspan x="27.6055" y="370.39">23-018 - Prime Mart -Wilsonville - AII Scopes of Work&#10;</tspan><tspan x="27.6055" y="376.077">23-020 - Deschutes Suites Hotel</tspan></text>
<text fill="black" style="white-space: pre" xml:space="preserve" font-family="Sage UI" font-size="4.85141" font-weight="500" letter-spacing="0px"><tspan x="189.078" y="283.211">Original Contract</tspan></text>
<text fill="#033ED7" style="white-space: pre" xml:space="preserve" font-family="Sage UI" font-size="4.85141" letter-spacing="0px"><tspan x="202.234" y="296.459">504,000.00&#10;</tspan><tspan x="195.208" y="302.146">25,668,300.00&#10;</tspan><tspan x="198.117" y="307.833">1,244,800.00&#10;</tspan><tspan x="202.234" y="313.52">950,075.00&#10;</tspan><tspan x="202.234" y="319.207">174,400.00&#10;</tspan><tspan x="202.234" y="324.894">322,110.00&#10;</tspan><tspan x="192.299" y="330.581">158,998,200.00&#10;</tspan><tspan x="202.234" y="336.268">525.000.00&#10;</tspan><tspan x="195.208" y="341.955">18,000,000.00&#10;</tspan><tspan x="192.299" y="347.642">200,829.898.00&#10;</tspan><tspan x="198.117" y="353.329">3,467,880.00&#10;</tspan><tspan x="195.208" y="359.016">19,323,900.00&#10;</tspan><tspan x="217.987" y="364.703">0.00&#10;</tspan><tspan x="195.208" y="370.39">15,751,858.19&#10;</tspan><tspan x="195.208" y="376.077">27,980,420.00&#10;</tspan></text>
<text fill="black" style="white-space: pre" xml:space="preserve" font-family="Sage UI" font-size="4.85141" letter-spacing="0px"><tspan x="192.299" y="389.112">473,740,841.19</tspan></text>
<text fill="black" style="white-space: pre" xml:space="preserve" font-family="Sage UI" font-size="4.85141" font-weight="500" letter-spacing="0px"><tspan x="232.543" y="283.211">Approved Changes</tspan></text>
<text fill="black" style="white-space: pre" xml:space="preserve" font-family="Sage UI" font-size="4.85141" letter-spacing="0px"><tspan x="254.921" y="296.616">5,310.00&#10;</tspan><tspan x="249.103" y="302.616">986,980.00&#10;</tspan><tspan x="252.012" y="308.616">26,000.00&#10;</tspan><tspan x="252.012" y="314.616">17,500.00&#10;</tspan><tspan x="264.856" y="320.616">0.00&#10;</tspan><tspan x="264.856" y="326.616">0.00&#10;</tspan><tspan x="264.856" y="332.616">0.00&#10;</tspan><tspan x="264.856" y="338.616">0.00&#10;</tspan><tspan x="264.856" y="344.616">0.00&#10;</tspan><tspan x="264.856" y="350.616">0.00&#10;</tspan><tspan x="264.856" y="356.616">0.00&#10;</tspan><tspan x="264.856" y="362.616">0.00&#10;</tspan><tspan x="264.856" y="368.616">0.00&#10;</tspan><tspan x="264.856" y="374.616">0.00&#10;</tspan><tspan x="264.856" y="380.616">0.00</tspan></text>
<text fill="black" style="white-space: pre" xml:space="preserve" font-family="Sage UI" font-size="4.85141" letter-spacing="0px"><tspan x="244.924" y="389.112">1,035,790.00 </tspan></text>
<text fill="black" style="white-space: pre" xml:space="preserve" font-family="Sage UI" font-size="4.85141" font-weight="500" letter-spacing="0px"><tspan x="320.285" y="283.211">Budget/Estimate</tspan></text>
<text fill="black" style="white-space: pre" xml:space="preserve" font-family="Sage UI" font-size="4.85141" letter-spacing="0px"><tspan x="323.504" y="389.112">433,952,180.27</tspan></text>
<text fill="#033ED7" style="white-space: pre" xml:space="preserve" font-family="Sage UI" font-size="4.85141" letter-spacing="0px"><tspan x="333.439" y="296.616">432,756.54&#10;</tspan><tspan x="326.413" y="302.616">22,900,033.42&#10;</tspan><tspan x="329.322" y="308.616">1,103,591.99&#10;</tspan><tspan x="333.439" y="314.616">831,741.67&#10;</tspan><tspan x="333.439" y="320.616">143,514.54&#10;</tspan><tspan x="333.439" y="326.616">284,139.37&#10;</tspan><tspan x="323.504" y="332.616">141,686,569.00&#10;</tspan><tspan x="333.439" y="338.616">450,000.00&#10;</tspan><tspan x="326.413" y="344.616">14,500,000.00&#10;</tspan><tspan x="323.504" y="350.616">170,631,307.23&#10;</tspan><tspan x="329.322" y="356.616">3,199,733.45&#10;</tspan><tspan x="326.413" y="362.616">17,649,651.41&#10;</tspan><tspan x="326.413" y="368.616">19,358,666.81&#10;</tspan><tspan x="326.413" y="374.616">14,319,871.09&#10;</tspan><tspan x="325.39" y="380.616">26,460,603.75 &#10;</tspan></text>
<text fill="black" style="white-space: pre" xml:space="preserve" font-family="Sage UI" font-size="4.85141" font-weight="500" letter-spacing="0px"><tspan x="454.74" y="283.211">Commitments</tspan></text>
<text fill="#033ED7" style="white-space: pre" xml:space="preserve" font-family="Sage UI" font-size="4.85141" letter-spacing="0px"><tspan x="451.055" y="389.112">337,801,161.03 </tspan></text>
<text fill="#033ED7" style="white-space: pre" xml:space="preserve" font-family="Sage UI" font-size="4.85141" letter-spacing="0px"><tspan x="460.99" y="294.585">208,097.73&#10;</tspan><tspan x="453.964" y="300.585">21,133,000.00&#10;</tspan><tspan x="460.99" y="306.585">959,250.00&#10;</tspan><tspan x="460.99" y="312.585">520,408.30&#10;</tspan><tspan x="463.899" y="318.585">78,200.00&#10;</tspan><tspan x="460.99" y="324.585">111,980.00&#10;</tspan><tspan x="451.055" y="330.585">119,189,150.00&#10;</tspan><tspan x="475.719" y="336.585">0.00 &#10;</tspan><tspan x="476.743" y="342.585">0.00&#10;</tspan><tspan x="451.055" y="348.585">141,828,500.00&#10;</tspan><tspan x="456.873" y="354.585">2,550,100.00&#10;</tspan><tspan x="453.964" y="360.585">14,489,475.00&#10;</tspan><tspan x="476.743" y="366.585">0.00&#10;</tspan><tspan x="453.964" y="372.585">13,583,600.00&#10;</tspan><tspan x="453.964" y="378.585">23,149,400.00</tspan></text>
<text fill="#033ED7" style="white-space: pre" xml:space="preserve" font-family="Sage UI" font-size="4.85141" letter-spacing="0px"><tspan x="491.676" y="389.112">107,107,567.85 </tspan></text>
<text fill="black" style="white-space: pre" xml:space="preserve" font-family="Sage UI" font-size="4.85141" font-weight="500" letter-spacing="0px"><tspan x="498.205" y="283.211">Total Billings</tspan></text>
<text fill="#033ED7" style="white-space: pre" xml:space="preserve" font-family="Sage UI" font-size="4.85141" letter-spacing="0px"><tspan x="501.455" y="295.803">504,000.00&#10;</tspan><tspan x="494.429" y="301.803">21,559,463.00&#10;</tspan><tspan x="497.338" y="307.803">1,244,800.00&#10;</tspan><tspan x="501.455" y="313.803">889,775.00&#10;</tspan><tspan x="504.364" y="319.803">37,829.16&#10;</tspan><tspan x="501.455" y="325.803">162,380.50&#10;</tspan><tspan x="494.429" y="331.803">38,514,985.00&#10;</tspan><tspan x="517.208" y="337.803">0.00&#10;</tspan><tspan x="517.208" y="343.803">0.00&#10;</tspan><tspan x="494.429" y="349.803">35,774,925.48&#10;</tspan><tspan x="497.338" y="355.803">2,655,336.00&#10;</tspan><tspan x="497.338" y="361.803">2,859,350.00&#10;</tspan><tspan x="517.208" y="367.803">0.00&#10;</tspan><tspan x="501.455" y="373.803">830,103.71&#10;</tspan><tspan x="497.338" y="379.803">2,074,620.00&#10;</tspan><tspan x="527.143" y="385.803"> </tspan></text>
<text fill="black" style="white-space: pre" xml:space="preserve" font-family="Sage UI" font-size="4.85141" font-weight="500" letter-spacing="0px"><tspan x="575.791" y="283.211">Gross Profit</tspan></text>
<text fill="#033ED7" style="white-space: pre" xml:space="preserve" font-family="Sage UI" font-size="4.85141" letter-spacing="0px"><tspan x="579.762" y="296.616">93,750.43&#10;</tspan><tspan x="572.736" y="302.616">3,906,882.42&#10;</tspan><tspan x="576.853" y="308.616">189,820.23&#10;</tspan><tspan x="576.853" y="314.616">231,117.54&#10;</tspan><tspan x="574.058" y="320.616">(101,691.25)&#10;</tspan><tspan x="579.762" y="326.616">45,095.72&#10;</tspan><tspan x="572.736" y="332.616">2,361,699.79&#10;</tspan><tspan x="592.606" y="338.616">0.00&#10;</tspan><tspan x="592.606" y="344.616">0.00&#10;</tspan><tspan x="572.736" y="350.616">5,490,380.63&#10;</tspan><tspan x="576.853" y="356.616">418,596.04&#10;</tspan><tspan x="576.853" y="362.616">480,831.66&#10;</tspan><tspan x="592.606" y="368.616">0.00&#10;</tspan><tspan x="579.762" y="374.616">67,998.83&#10;</tspan><tspan x="576.853" y="380.616">568,061.09</tspan></text>
<text fill="#033ED7" style="white-space: pre" xml:space="preserve" font-family="Sage UI" font-size="4.85141" letter-spacing="0px"><tspan x="569.985" y="389.112">13,752,543.13 </tspan></text>
<text fill="black" style="white-space: pre" xml:space="preserve" font-family="Sage UI" font-size="4.85141" font-weight="500" letter-spacing="0px"><tspan x="542.076" y="283.211">Total Cost</tspan></text>
<text fill="#033ED7" style="white-space: pre" xml:space="preserve" font-family="Sage UI" font-size="4.85141" letter-spacing="0px"><tspan x="539.232" y="296.616">410,249.57&#10;</tspan><tspan x="532.206" y="302.616">17,652,580.58&#10;</tspan><tspan x="535.115" y="308.616">1,054,979.77&#10;</tspan><tspan x="539.232" y="314.616">658,657.46&#10;</tspan><tspan x="539.232" y="320.616">139,520.41&#10;</tspan><tspan x="539.232" y="326.616">117,284.78&#10;</tspan><tspan x="532.206" y="332.616">36,153,285.21&#10;</tspan><tspan x="554.985" y="338.616">0.00&#10;</tspan><tspan x="554.985" y="344.616">0.00&#10;</tspan><tspan x="532.206" y="350.616">30,284,544.85&#10;</tspan><tspan x="535.115" y="356.616">2,236,739.96&#10;</tspan><tspan x="535.115" y="362.616">2,378,518.34&#10;</tspan><tspan x="554.985" y="368.616">0.00&#10;</tspan><tspan x="539.232" y="374.616">762,104.88&#10;</tspan><tspan x="534.092" y="380.616">1,506,558.91 &#10;</tspan><tspan x="564.92" y="386.616">&#10;</tspan></text>
<text fill="#033ED7" style="white-space: pre" xml:space="preserve" font-family="Sage UI" font-size="4.85141" letter-spacing="0px"><tspan x="532.206" y="389.112">93,355,024.72</tspan></text>
<text fill="black" style="white-space: pre" xml:space="preserve" font-family="Sage UI" font-size="4.85141" font-weight="500" letter-spacing="0px"><tspan x="282.912" y="283.211">Contract Total</tspan></text>
<text fill="black" style="white-space: pre" xml:space="preserve" font-family="Sage UI" font-size="4.85141" letter-spacing="0px"><tspan x="280.041" y="389.112">474,776,631.19</tspan></text>
<text fill="black" style="white-space: pre" xml:space="preserve" font-family="Sage UI" font-size="4.85141" letter-spacing="0px"><tspan x="289.976" y="296.616">509,310.00&#10;</tspan><tspan x="282.95" y="302.616">26,655,280.00&#10;</tspan><tspan x="285.859" y="308.616">1,270,800.00&#10;</tspan><tspan x="289.976" y="314.616">967,575.00&#10;</tspan><tspan x="289.976" y="320.616">174,400.00&#10;</tspan><tspan x="289.976" y="326.616">322,110.00&#10;</tspan><tspan x="280.041" y="332.616">158,998,200.00&#10;</tspan><tspan x="289.976" y="338.616">525,000.00&#10;</tspan><tspan x="282.95" y="344.616">18,000,000.00&#10;</tspan><tspan x="280.041" y="350.616">200,829,898.00&#10;</tspan><tspan x="285.859" y="356.616">3,467,880.00&#10;</tspan><tspan x="282.95" y="362.616">19,323,900.00&#x2028;</tspan><tspan x="305.729" y="368.616">0.00&#x2028;</tspan><tspan x="282.95" y="374.616">15,751,358.19&#x2028;</tspan><tspan x="282.95" y="380.616">27,980,420.00&#x2028;</tspan></text>
<text fill="black" style="white-space: pre" xml:space="preserve" font-family="Sage UI" font-size="4.85141" font-weight="500" letter-spacing="0px"><tspan x="364.561" y="283.211">Est Gross Profit</tspan></text>
<text fill="black" style="white-space: pre" xml:space="preserve" font-family="Sage UI" font-size="4.85141" letter-spacing="0px"><tspan x="366.878" y="389.112">40,824,450.92</tspan></text>
<text fill="black" style="white-space: pre" xml:space="preserve" font-family="Sage UI" font-size="4.85141" letter-spacing="0px"><tspan x="376.971" y="296.616">76,553.46&#10;</tspan><tspan x="369.945" y="302.616">3,755,246.58&#10;</tspan><tspan x="374.062" y="308.616">167,208.01&#10;</tspan><tspan x="374.062" y="314.616">135,333.33&#10;</tspan><tspan x="376.971" y="320.616">30,885.46&#10;</tspan><tspan x="376.971" y="326.616">37,970.63&#x2028;</tspan><tspan x="367.036" y="332.616">17,311,631.00&#x2028;</tspan><tspan x="376.971" y="338.616">75,000.00&#x2028;</tspan><tspan x="369.945" y="344.616">3,500,000.00&#x2028;</tspan><tspan x="367.036" y="350.616">30,196,590.77&#x2028;</tspan><tspan x="374.062" y="356.616">268,146.55&#10;</tspan><tspan x="368.922" y="362.616">1,674,248.59 &#10;</tspan><tspan x="364.241" y="368.616">(19,358,666.81)&#x2028;</tspan><tspan x="368.922" y="374.616"> 1,431,987.10&#x2028;</tspan><tspan x="369.945" y="380.616">1,519,816.25&#x2028;</tspan></text>
<text fill="black" style="white-space: pre" xml:space="preserve" font-family="Sage UI" font-size="4.85141" font-weight="500" letter-spacing="0px"><tspan x="404.371" y="283.211">Est Profit Margin%</tspan></text>
<text fill="black" style="white-space: pre" xml:space="preserve" font-family="Sage UI" font-size="4.85141" letter-spacing="0px"><tspan x="431.919" y="389.112">8.60 % </tspan></text>
<text fill="black" style="white-space: pre" xml:space="preserve" font-family="Sage UI" font-size="4.85141" letter-spacing="0px"><tspan x="430.19" y="294.585">15.03%&#x2028;</tspan><tspan x="429.166" y="300.585">14.09 %&#x2028;</tspan><tspan x="430.19" y="306.585">13.16%&#x2028;</tspan><tspan x="430.19" y="312.585">14.04%&#x2028;</tspan><tspan x="429.166" y="318.585"> 17.71%&#x2028;</tspan><tspan x="429.166" y="324.585"> 11.79%&#x2028;</tspan><tspan x="430.19" y="330.585">10.89%&#x2028;</tspan><tspan x="430.19" y="336.585">14.29%&#x2028;</tspan><tspan x="429.166" y="342.585">19.44 %&#x2028;</tspan><tspan x="429.166" y="348.585">15.04 %&#x2028;</tspan><tspan x="432.075" y="354.585">7.73 %&#10;</tspan><tspan x="433.099" y="360.585">8.66%&#x2028;</tspan><tspan x="432.075" y="366.585"> 0.00%&#x2028;</tspan><tspan x="432.075" y="372.585"> 9.09%&#x2028;</tspan><tspan x="432.075" y="378.585"> 5.43%</tspan></text>
<text fill="black" style="white-space: pre" xml:space="preserve" font-family="Sage UI" font-size="4.85141" font-weight="500" letter-spacing="0px"><tspan x="607.477" y="283.211">%Spent</tspan></text>
<text fill="black" style="white-space: pre" xml:space="preserve" font-family="Sage UI" font-size="4.85141" letter-spacing="0px"><tspan x="609.143" y="389.112">21.51%</tspan></text>
<text fill="black" style="white-space: pre" xml:space="preserve" font-family="Sage UI" font-size="4.85141" letter-spacing="0px"><tspan x="609.143" y="296.616">94.80%&#10;</tspan><tspan x="609.143" y="302.616">77.09%&#10;</tspan><tspan x="609.143" y="308.616">95.60%&#10;</tspan><tspan x="609.143" y="314.616">79.19%&#10;</tspan><tspan x="609.143" y="320.616">97.22%&#10;</tspan><tspan x="609.143" y="326.616">41.28%&#10;</tspan><tspan x="609.143" y="332.616">25.52%&#10;</tspan><tspan x="612.052" y="338.616">0.00%&#10;</tspan><tspan x="612.052" y="344.616">0.00%&#10;</tspan><tspan x="609.143" y="350.616">17.75%&#10;</tspan><tspan x="609.143" y="356.616">69.90%&#10;</tspan><tspan x="609.143" y="362.616">13.48%&#10;</tspan><tspan x="612.052" y="368.616">0.00%&#10;</tspan><tspan x="612.052" y="374.616">5.32%&#10;</tspan><tspan x="612.052" y="380.616">5.69%</tspan></text>
<text fill="black" style="white-space: pre" xml:space="preserve" font-family="Sage UI" font-size="4.85141" font-weight="500" letter-spacing="0px"><tspan x="629.412" y="283.211">%Billed</tspan></text>
<text fill="black" style="white-space: pre" xml:space="preserve" font-family="Sage UI" font-size="4.85141" letter-spacing="0px"><tspan x="630.266" y="389.112">22.56% </tspan></text>
<text fill="black" style="white-space: pre" xml:space="preserve" font-family="Sage UI" font-size="4.85141" letter-spacing="0px"><tspan x="630.266" y="295.803">93.96%&#10;</tspan><tspan x="630.266" y="301.803">80.88%&#10;</tspan><tspan x="630.266" y="307.803">97.95%&#10;</tspan><tspan x="630.266" y="313.803">91.96%&#10;</tspan><tspan x="630.266" y="319.803">21.69%&#10;</tspan><tspan x="630.266" y="325.803">50.41%&#10;</tspan><tspan x="630.266" y="331.803">24.22%&#10;</tspan><tspan x="633.175" y="337.803">0.00%&#10;</tspan><tspan x="633.175" y="343.803">0.00%&#10;</tspan><tspan x="630.266" y="349.803">17.81%&#10;</tspan><tspan x="630.266" y="355.803">76.57%&#10;</tspan><tspan x="630.266" y="361.803">14.80%&#10;</tspan><tspan x="633.175" y="367.803">0.00%&#10;</tspan><tspan x="633.175" y="373.803">5.27%&#10;</tspan><tspan x="633.175" y="379.803">7.41% </tspan></text>
<text fill="black" style="white-space: pre" xml:space="preserve" font-family="Sage UI" font-size="4.85141" font-weight="500" letter-spacing="0px"><tspan x="650.535" y="283.211">Profit Margin%</tspan></text>
<text fill="black" style="white-space: pre" xml:space="preserve" font-family="Sage UI" font-size="4.85141" letter-spacing="0px"><tspan x="668.043" y="389.112">12.84% </tspan></text>
<text fill="black" style="white-space: pre" xml:space="preserve" font-family="Sage UI" font-size="4.85141" letter-spacing="0px"><tspan x="667.356" y="295.803">18.60%&#10;</tspan><tspan x="667.356" y="301.803">18.12%&#10;</tspan><tspan x="667.356" y="307.803">15.25%&#10;</tspan><tspan x="667.356" y="313.803">25.97%&#10;</tspan><tspan x="661.652" y="319.803">(268.82)%&#10;</tspan><tspan x="667.356" y="325.803">27.77%&#10;</tspan><tspan x="670.265" y="331.803">6.13%&#10;</tspan><tspan x="670.265" y="337.803">0.00%&#10;</tspan><tspan x="670.265" y="343.803">0.00%&#10;</tspan><tspan x="667.356" y="349.803">15.35%&#10;</tspan><tspan x="667.356" y="355.803">15.76%&#10;</tspan><tspan x="667.356" y="361.803">16.82%&#10;</tspan><tspan x="670.265" y="367.803">0.00%&#10;</tspan><tspan x="670.265" y="373.803">8.19%&#10;</tspan><tspan x="667.356" y="379.803">27.38%</tspan></text>
<path d="M191.658 384.291H685.815" stroke="black" stroke-width="0.276563"/>
<path d="M11.0625 410.742C11.0625 410.258 12.5155 409.865 14.308 409.865H693.692C695.484 409.865 696.938 410.258 696.938 410.742V481.448C696.938 481.932 695.484 482.325 693.692 482.325H14.3079C12.5155 482.325 11.0625 481.932 11.0625 481.448V410.742Z" fill="white"/>
<line x1="21.0195" y1="429.236" x2="685.876" y2="429.236" stroke="#CCD6DB" stroke-width="1.08257"/>
<text fill="black" style="white-space: pre" xml:space="preserve" font-family="Sage UI" font-size="8.29688" font-weight="bold" letter-spacing="0px"><tspan x="22.125" y="423.055">Project Overview by PM</tspan></text>
<rect x="186.105" y="437.051" width="500.047" height="8.93666" fill="#F0F0F0"/>
<text fill="#033ED7" style="white-space: pre" xml:space="preserve" font-family="Sage UI" font-size="4.85141" font-weight="500" letter-spacing="0px"><tspan x="22.4023" y="443.553">Active Projects </tspan></text>
<text fill="#033ED7" style="white-space: pre" xml:space="preserve" font-family="Sage UI" font-size="4.85141" letter-spacing="0px"><tspan x="27.8828" y="455.989">PM Dennis Sanford&#10;</tspan><tspan x="27.8828" y="461.676">22-009 - Greenview HS&#10;</tspan><tspan x="27.8828" y="467.362">22-005 - Stratus Corporate Center Tl&#10;</tspan></text>
<text fill="black" style="white-space: pre" xml:space="preserve" font-family="Sage UI" font-size="4.85141" letter-spacing="0px"><tspan x="27.8828" y="473.049">Total PM Dennis Sanford</tspan></text>
<text fill="black" style="white-space: pre" xml:space="preserve" font-family="Sage UI" font-size="4.85141" font-weight="500" letter-spacing="0px"><tspan x="189.355" y="442.741">Original Contract</tspan></text>
<text fill="#033ED7" style="white-space: pre" xml:space="preserve" font-family="Sage UI" font-size="4.85141" letter-spacing="0px"><tspan x="192.576" y="455.989">158,998,200.00&#10;</tspan><tspan x="205.42" y="461.676">174,14.00</tspan></text>
<text fill="#033ED7" style="white-space: pre" xml:space="preserve" font-family="Sage UI" font-size="4.85141" letter-spacing="0px"><tspan x="192.576" y="470.207">159.172,600.00</tspan></text>
<text fill="black" style="white-space: pre" xml:space="preserve" font-family="Sage UI" font-size="4.85141" font-weight="500" letter-spacing="0px"><tspan x="232.82" y="442.741">Approved Changes</tspan></text>
<text fill="black" style="white-space: pre" xml:space="preserve" font-family="Sage UI" font-size="4.85141" letter-spacing="0px"><tspan x="264.975" y="456.145">0.00&#10;</tspan><tspan x="264.975" y="462.145">0.00&#10;</tspan></text>
<text fill="black" style="white-space: pre" xml:space="preserve" font-family="Sage UI" font-size="4.85141" letter-spacing="0px"><tspan x="264.975" y="470.364">0.00</tspan></text>
<text fill="black" style="white-space: pre" xml:space="preserve" font-family="Sage UI" font-size="4.85141" font-weight="500" letter-spacing="0px"><tspan x="320.562" y="442.741">Budget/Estimate</tspan></text>
<text fill="#033ED7" style="white-space: pre" xml:space="preserve" font-family="Sage UI" font-size="4.85141" letter-spacing="0px"><tspan x="323.781" y="456.145">141,686,569.00&#10;</tspan><tspan x="333.716" y="462.145">143,514.54</tspan></text>
<text fill="#033ED7" style="white-space: pre" xml:space="preserve" font-family="Sage UI" font-size="4.85141" letter-spacing="0px"><tspan x="323.781" y="470.364">141,830,083.54</tspan></text>
<text fill="black" style="white-space: pre" xml:space="preserve" font-family="Sage UI" font-size="4.85141" font-weight="500" letter-spacing="0px"><tspan x="455.018" y="442.741">Commitments</tspan></text>
<text fill="#033ED7" style="white-space: pre" xml:space="preserve" font-family="Sage UI" font-size="4.85141" letter-spacing="0px"><tspan x="450.09" y="454.114">119,189, 150.00&#10;</tspan><tspan x="462.257" y="460.114">781200.00</tspan></text>
<text fill="#033ED7" style="white-space: pre" xml:space="preserve" font-family="Sage UI" font-size="4.85141" letter-spacing="0px"><tspan x="451.332" y="470.364">119,267,350.00</tspan></text>
<text fill="black" style="white-space: pre" xml:space="preserve" font-family="Sage UI" font-size="4.85141" font-weight="500" letter-spacing="0px"><tspan x="498.482" y="442.741">Total Billings</tspan></text>
<text fill="black" style="white-space: pre" xml:space="preserve" font-family="Sage UI" font-size="4.85141" font-weight="500" letter-spacing="0px"><tspan x="576.068" y="442.741">Gross Profit</tspan></text>
<text fill="#033ED7" style="white-space: pre" xml:space="preserve" font-family="Sage UI" font-size="4.85141" letter-spacing="0px"><tspan x="573.013" y="456.145">2,361,699.79&#10;</tspan><tspan x="574.335" y="462.145">(101,691.25)</tspan></text>
<text fill="#033ED7" style="white-space: pre" xml:space="preserve" font-family="Sage UI" font-size="4.85141" letter-spacing="0px"><tspan x="573.013" y="470.364">2,260,008.54</tspan></text>
<text fill="black" style="white-space: pre" xml:space="preserve" font-family="Sage UI" font-size="4.85141" font-weight="500" letter-spacing="0px"><tspan x="542.354" y="442.741">Total Cost</tspan></text>
<text fill="#033ED7" style="white-space: pre" xml:space="preserve" font-family="Sage UI" font-size="4.85141" letter-spacing="0px"><tspan x="531.241" y="456.145">36, 153,285.21&#10;</tspan><tspan x="539.291" y="462.145">139.520.41</tspan></text>
<text fill="#033ED7" style="white-space: pre" xml:space="preserve" font-family="Sage UI" font-size="4.85141" letter-spacing="0px"><tspan x="532.483" y="470.364">36,292,805.62</tspan></text>
<text fill="#033ED7" style="white-space: pre" xml:space="preserve" font-family="Sage UI" font-size="4.85141" letter-spacing="0px"><tspan x="494.706" y="456.145">38,514,985.00&#10;</tspan><tspan x="504.641" y="462.145">37,829.16</tspan></text>
<text fill="#033ED7" style="white-space: pre" xml:space="preserve" font-family="Sage UI" font-size="4.85141" letter-spacing="0px"><tspan x="494.706" y="470.364">38,552,814.16</tspan></text>
<text fill="black" style="white-space: pre" xml:space="preserve" font-family="Sage UI" font-size="4.85141" font-weight="500" letter-spacing="0px"><tspan x="283.191" y="442.741">Contract Total</tspan></text>
<text fill="#033ED7" style="white-space: pre" xml:space="preserve" font-family="Sage UI" font-size="4.85141" letter-spacing="0px"><tspan x="280.319" y="455.989">158,998,200.00&#10;</tspan><tspan x="290.254" y="461.676">174,400.00</tspan></text>
<text fill="#033ED7" style="white-space: pre" xml:space="preserve" font-family="Sage UI" font-size="4.85141" letter-spacing="0px"><tspan x="280.319" y="470.207">159,172,600.00</tspan></text>
<text fill="black" style="white-space: pre" xml:space="preserve" font-family="Sage UI" font-size="4.85141" font-weight="500" letter-spacing="0px"><tspan x="364.84" y="442.741">Est Gross Profit</tspan></text>
<text fill="black" style="white-space: pre" xml:space="preserve" font-family="Sage UI" font-size="4.85141" letter-spacing="0px"><tspan x="367.155" y="456.145">17,311,631.00&#10;</tspan><tspan x="377.09" y="462.145">30,185.46</tspan></text>
<text fill="black" style="white-space: pre" xml:space="preserve" font-family="Sage UI" font-size="4.85141" letter-spacing="0px"><tspan x="367.155" y="470.364">17,342,516.46</tspan></text>
<text fill="black" style="white-space: pre" xml:space="preserve" font-family="Sage UI" font-size="4.85141" font-weight="500" letter-spacing="0px"><tspan x="404.648" y="442.741">Est Profit Margin%</tspan></text>
<text fill="black" style="white-space: pre" xml:space="preserve" font-family="Sage UI" font-size="4.85141" letter-spacing="0px"><tspan x="430.686" y="454.114">10.89%&#10;</tspan><tspan x="430.686" y="460.114">17.71%</tspan></text>
<text fill="black" style="white-space: pre" xml:space="preserve" font-family="Sage UI" font-size="4.85141" letter-spacing="0px"><tspan x="430.686" y="470.364">10.90%</tspan></text>
<text fill="black" style="white-space: pre" xml:space="preserve" font-family="Sage UI" font-size="4.85141" font-weight="500" letter-spacing="0px"><tspan x="607.754" y="442.741">%Spent</tspan></text>
<text fill="black" style="white-space: pre" xml:space="preserve" font-family="Sage UI" font-size="4.85141" letter-spacing="0px"><tspan x="609.42" y="456.145">25.52%&#10;</tspan><tspan x="609.42" y="462.145">97.22%</tspan></text>
<text fill="black" style="white-space: pre" xml:space="preserve" font-family="Sage UI" font-size="4.85141" letter-spacing="0px"><tspan x="609.42" y="470.364">25.59%</tspan></text>
<text fill="black" style="white-space: pre" xml:space="preserve" font-family="Sage UI" font-size="4.85141" font-weight="500" letter-spacing="0px"><tspan x="629.689" y="442.741">%Billed</tspan></text>
<text fill="black" style="white-space: pre" xml:space="preserve" font-family="Sage UI" font-size="4.85141" letter-spacing="0px"><tspan x="630.543" y="455.333">24.22%&#10;</tspan><tspan x="630.543" y="461.333">21.69%</tspan></text>
<text fill="black" style="white-space: pre" xml:space="preserve" font-family="Sage UI" font-size="4.85141" letter-spacing="0px"><tspan x="630.543" y="470.364">24.22%</tspan></text>
<text fill="black" style="white-space: pre" xml:space="preserve" font-family="Sage UI" font-size="4.85141" font-weight="500" letter-spacing="0px"><tspan x="650.812" y="442.741">Profit Margin%</tspan></text>
<text fill="black" style="white-space: pre" xml:space="preserve" font-family="Sage UI" font-size="4.85141" letter-spacing="0px"><tspan x="670.542" y="455.333">6.13%&#10;</tspan><tspan x="661.929" y="461.333">(268.82)%</tspan></text>
<text fill="black" style="white-space: pre" xml:space="preserve" font-family="Sage UI" font-size="4.85141" letter-spacing="0px"><tspan x="671.073" y="470.364">5.86%</tspan></text>
<path d="M191.793 464.674H685.95" stroke="black" stroke-width="0.276563"/>
<defs>
<filter id="filter0_d_1_87704" x="20.5573" y="391.905" width="666.557" height="155.579" filterUnits="userSpaceOnUse" color-interpolation-filters="sRGB">
<feFlood flood-opacity="0" result="BackgroundImageFix"/>
<feColorMatrix in="SourceAlpha" type="matrix" values="0 0 0 0 0 0 0 0 0 0 0 0 0 0 0 0 0 0 127 0" result="hardAlpha"/>
<feOffset dy="26.1974"/>
<feGaussianBlur stdDeviation="15.7184"/>
<feComposite in2="hardAlpha" operator="out"/>
<feColorMatrix type="matrix" values="0 0 0 0 0 0 0 0 0 0 0 0 0 0 0 0 0 0 0.06 0"/>
<feBlend mode="normal" in2="BackgroundImageFix" result="effect1_dropShadow_1_87704"/>
<feBlend mode="normal" in="SourceGraphic" in2="effect1_dropShadow_1_87704" result="shape"/>
</filter>
<filter id="filter1_d_1_87704" x="-2.67029e-05" y="352.987" width="708" height="147.229" filterUnits="userSpaceOnUse" color-interpolation-filters="sRGB">
<feFlood flood-opacity="0" result="BackgroundImageFix"/>
<feColorMatrix in="SourceAlpha" type="matrix" values="0 0 0 0 0 0 0 0 0 0 0 0 0 0 0 0 0 0 127 0" result="hardAlpha"/>
<feOffset dy="25.9817"/>
<feGaussianBlur stdDeviation="21.6514"/>
<feComposite in2="hardAlpha" operator="out"/>
<feColorMatrix type="matrix" values="0 0 0 0 0 0 0 0 0 0 0 0 0 0 0 0 0 0 0.1 0"/>
<feBlend mode="normal" in2="BackgroundImageFix" result="effect1_dropShadow_1_87704"/>
<feBlend mode="normal" in="SourceGraphic" in2="effect1_dropShadow_1_87704" result="shape"/>
</filter>
<clipPath id="clip0_1_87704">
<rect width="16.4926" height="16.4926" fill="white" transform="translate(496.85 193.039)"/>
</clipPath>
</defs>
</svg>
