<svg xmlns:xlink="http://www.w3.org/1999/xlink"  class=" responsive-svg" aria-hidden="true" width="708" height="456" viewBox="0 0 708 456" fill="none" xmlns="http://www.w3.org/2000/svg" id="svgembed-16919428ebb3485b8d8b62edc2325fe1-0">
<rect x="34.5" y="0.5" width="673" height="454" rx="23.5" fill="#F2F5F6" stroke="#E2E2E2"></rect>
<text fill="black" xml:space="preserve" style="white-space: pre" font-family="Sage UI" font-size="16" font-weight="500" letter-spacing="0em"><tspan x="46" y="68.172">Project Home</tspan></text>
<mask id="path-5-inside-1_432_28268" fill="white">
<path fill-rule="evenodd" clip-rule="evenodd" d="M611.609 57.8867C611.071 57.3645 610.178 57.3979 609.888 57.6906L609.387 58.2013L611.265 60.0949L611.76 59.5905C612.062 59.2822 612.147 58.4089 611.609 57.8867ZM603.226 66.48L605.788 65.5409L604.04 63.7749L603.226 66.48ZM606.071 65.3852L604.193 63.4884L609.169 58.4222L611.044 60.319L606.071 65.3852Z"></path>
</mask>
<path fill-rule="evenodd" clip-rule="evenodd" d="M611.609 57.8867C611.071 57.3645 610.178 57.3979 609.888 57.6906L609.387 58.2013L611.265 60.0949L611.76 59.5905C612.062 59.2822 612.147 58.4089 611.609 57.8867ZM603.226 66.48L605.788 65.5409L604.04 63.7749L603.226 66.48ZM606.071 65.3852L604.193 63.4884L609.169 58.4222L611.044 60.319L606.071 65.3852Z" fill="#008146"></path>
<path d="M609.888 57.6906L609.177 56.9873L609.174 56.99L609.888 57.6906ZM611.609 57.8867L612.305 57.169L612.305 57.169L611.609 57.8867ZM609.387 58.2013L608.673 57.5007L607.982 58.2048L608.677 58.9054L609.387 58.2013ZM611.265 60.0949L610.555 60.7991L611.269 61.5188L611.979 60.7954L611.265 60.0949ZM611.76 59.5905L612.474 60.291L612.474 60.2903L611.76 59.5905ZM605.788 65.5409L606.132 66.4798L607.593 65.9441L606.498 64.8376L605.788 65.5409ZM603.226 66.48L602.268 66.1917L601.691 68.1076L603.57 67.4189L603.226 66.48ZM604.04 63.7749L604.751 63.0715L603.568 61.8756L603.083 63.4865L604.04 63.7749ZM604.193 63.4884L603.48 62.7877L602.789 63.4912L603.483 64.192L604.193 63.4884ZM606.071 65.3852L605.361 66.0888L606.074 66.8096L606.785 66.0857L606.071 65.3852ZM609.169 58.4222L609.88 57.7192L609.167 56.9974L608.456 57.7214L609.169 58.4222ZM611.044 60.319L611.758 61.0195L612.448 60.3165L611.755 59.616L611.044 60.319ZM610.599 58.3939C610.55 58.4438 610.507 58.469 610.488 58.4791C610.467 58.4897 610.459 58.4912 610.466 58.4893C610.482 58.4849 610.527 58.477 610.593 58.4811C610.734 58.4899 610.849 58.5424 610.913 58.6044L612.305 57.169C611.831 56.7089 611.23 56.5169 610.717 56.485C610.262 56.4567 609.616 56.5442 609.177 56.9873L610.599 58.3939ZM610.1 58.9018L610.602 58.3911L609.174 56.99L608.673 57.5007L610.1 58.9018ZM611.975 59.3907L610.097 57.4971L608.677 58.9054L610.555 60.7991L611.975 59.3907ZM611.046 58.89L610.551 59.3945L611.979 60.7954L612.474 60.291L611.046 58.89ZM610.913 58.6044C610.956 58.6467 610.997 58.7259 611 58.8442C611.001 58.9008 610.993 58.9446 610.986 58.9669C610.983 58.9771 610.982 58.9758 610.988 58.965C610.993 58.955 611.01 58.9266 611.046 58.8906L612.474 60.2903C612.879 59.8772 613.012 59.2774 612.999 58.7934C612.986 58.2674 612.8 57.6489 612.305 57.169L610.913 58.6044ZM605.443 64.602L602.881 65.5411L603.57 67.4189L606.132 66.4798L605.443 64.602ZM603.329 64.4782L605.077 66.2442L606.498 64.8376L604.751 63.0715L603.329 64.4782ZM604.183 66.7684L604.998 64.0632L603.083 63.4865L602.268 66.1917L604.183 66.7684ZM603.483 64.192L605.361 66.0888L606.782 64.6816L604.904 62.7848L603.483 64.192ZM608.456 57.7214L603.48 62.7877L604.907 64.1891L609.883 59.1229L608.456 57.7214ZM611.755 59.616L609.88 57.7192L608.458 59.1252L610.333 61.022L611.755 59.616ZM606.785 66.0857L611.758 61.0195L610.331 59.6185L605.358 64.6847L606.785 66.0857Z" fill="#008146" mask="url(#path-5-inside-1_432_28268)"></path>
<text fill="#008146" xml:space="preserve" style="white-space: pre" font-family="Sage UI" font-size="9" font-weight="bold" letter-spacing="0em"><tspan x="616" y="65.463">Edit</tspan></text>
<rect x="594.726" y="51.98" width="47.7744" height="20" rx="10" stroke="#008146"></rect>
<text fill="#008146" xml:space="preserve" style="white-space: pre" font-family="Sage UI" font-size="9" font-weight="bold" letter-spacing="0em"><tspan x="658" y="65.463">Export</tspan></text>
<rect x="649.5" y="51.98" width="47" height="20" rx="10" stroke="#008146"></rect>
<text fill="black" fill-opacity="0.9" xml:space="preserve" style="white-space: pre" font-family="Sage UI" font-size="8" font-weight="500" letter-spacing="0px"><tspan x="46" y="93.576">Quick Links</tspan></text>
<text fill="black" fill-opacity="0.9" xml:space="preserve" style="white-space: pre" font-family="Sage UI" font-size="8" font-weight="500" letter-spacing="0px"><tspan x="100" y="93.576">General Info</tspan></text>
<text fill="black" fill-opacity="0.9" xml:space="preserve" style="white-space: pre" font-family="Sage UI" font-size="8" font-weight="500" letter-spacing="0px"><tspan x="157" y="93.576">Project Team</tspan></text>
<text fill="black" fill-opacity="0.9" xml:space="preserve" style="white-space: pre" font-family="Sage UI" font-size="8" font-weight="500" letter-spacing="0px"><tspan x="218" y="93.576">Alerts</tspan></text>
<text fill="black" fill-opacity="0.9" xml:space="preserve" style="white-space: pre" font-family="Sage UI" font-size="8" font-weight="500" letter-spacing="0px"><tspan x="253" y="93.576">Drawings &amp; Specs</tspan></text>
<text fill="black" fill-opacity="0.9" xml:space="preserve" style="white-space: pre" font-family="Sage UI" font-size="8" font-weight="500" letter-spacing="0px"><tspan x="330" y="93.576">Preconstruction</tspan></text>
<text fill="black" fill-opacity="0.9" xml:space="preserve" style="white-space: pre" font-family="Sage UI" font-size="8" font-weight="500" letter-spacing="0px"><tspan x="402" y="93.576">Open Items</tspan></text>
<mask id="path-19-inside-3_432_28268" fill="white">
<path d="M456 79.48H506V101.48H456V79.48Z"></path>
</mask>
<path d="M456 79.48H506V101.48H456V79.48Z" fill="white"></path>
<text fill="black" fill-opacity="0.9" xml:space="preserve" style="white-space: pre" font-family="Sage UI" font-size="8" font-weight="500" letter-spacing="0px"><tspan x="462" y="93.576">Financials</tspan></text>
<path d="M506 99.48H456V103.48H506V99.48Z" fill="#008A21" mask="url(#path-19-inside-3_432_28268)"></path>
<text fill="black" fill-opacity="0.9" xml:space="preserve" style="white-space: pre" font-family="Sage UI" font-size="8" font-weight="500" letter-spacing="0px"><tspan x="518" y="93.576">Linked Files</tspan></text>
<path d="M696 100.98H46V101.98H696V100.98Z" fill="#E2E2E2" mask="url(#path-10-inside-2_432_28268)"></path>
<rect x="46.5" y="109.98" width="320" height="143" rx="1.5" fill="white"></rect>
<text fill="black" fill-opacity="0.9" xml:space="preserve" style="white-space: pre" font-family="Sage UI" font-size="9" font-weight="500" letter-spacing="0em"><tspan x="58" y="130.463">Contract Status</tspan></text>
<line x1="58" y1="139.98" x2="355" y2="139.98" stroke="#E2E2E2"></line>
<text fill="black" fill-opacity="0.9" xml:space="preserve" style="white-space: pre" font-family="Sage UI" font-size="7" font-weight="500" letter-spacing="0em"><tspan x="58" y="155.189">Approved Contract Total</tspan></text>
<text fill="black" fill-opacity="0.9" xml:space="preserve" style="white-space: pre" font-family="Sage UI" font-size="7" letter-spacing="0em"><tspan x="145.08" y="155.189">$929,538.00</tspan></text>
<text fill="black" fill-opacity="0.9" xml:space="preserve" style="white-space: pre" font-family="Sage UI" font-size="7" font-weight="500" letter-spacing="0em"><tspan x="58" y="171.189">Approved CO Total</tspan></text>
<text fill="black" fill-opacity="0.9" xml:space="preserve" style="white-space: pre" font-family="Sage UI" font-size="7" letter-spacing="0em"><tspan x="145.08" y="171.189">$103,496.90</tspan></text>
<text fill="black" fill-opacity="0.9" xml:space="preserve" style="white-space: pre" font-family="Sage UI" font-size="7" font-weight="500" letter-spacing="0em"><tspan x="58" y="187.189">Revised Contract</tspan></text>
<text fill="black" fill-opacity="0.9" xml:space="preserve" style="white-space: pre" font-family="Sage UI" font-size="7" letter-spacing="0em"><tspan x="145.08" y="187.189">$1,032,034.90</tspan></text>
<text fill="black" fill-opacity="0.9" xml:space="preserve" style="white-space: pre" font-family="Sage UI" font-size="7" font-weight="500" letter-spacing="0em"><tspan x="58" y="203.189">Invoice Total</tspan></text>
<text fill="black" fill-opacity="0.9" xml:space="preserve" style="white-space: pre" font-family="Sage UI" font-size="7" letter-spacing="0em"><tspan x="145.08" y="203.189">$30,658.05</tspan></text>
<text fill="black" fill-opacity="0.9" xml:space="preserve" style="white-space: pre" font-family="Sage UI" font-size="7" font-weight="500" letter-spacing="0em"><tspan x="58" y="219.189">Invoice Total %</tspan></text>
<text fill="black" fill-opacity="0.9" xml:space="preserve" style="white-space: pre" font-family="Sage UI" font-size="7" letter-spacing="0em"><tspan x="145.08" y="219.189">2.97%</tspan></text>
<text fill="black" fill-opacity="0.9" xml:space="preserve" style="white-space: pre" font-family="Sage UI" font-size="8" font-weight="500" letter-spacing="0em"><tspan x="237.04" y="156.576">Invoicing Summary</tspan></text>
<circle cx="245.04" cy="189.44" r="22.96" fill="#ABABAB"></circle>
<path d="M246.582 212.355L246.626 212.852L247.123 212.809C259.104 211.754 268.5 201.694 268.5 189.44C268.5 176.483 257.997 165.98 245.04 165.98H244.54L244.54 166.48L244.54 189.44L244.54 189.462L244.542 189.484L246.582 212.355Z" fill="#006D3B" stroke="white"></path>
<circle cx="245.135" cy="189.44" r="18.9454" fill="white"></circle>
<text fill="#006D3B" xml:space="preserve" style="white-space: pre" font-family="Sage UI" font-size="12.0446" font-weight="500" letter-spacing="0px"><tspan x="233.541" y="193.95">49%</tspan></text>
<rect x="272" y="176.94" width="7" height="7" rx="3.5" fill="#006D3B"></rect>
<text fill="black" fill-opacity="0.65" xml:space="preserve" style="white-space: pre" font-family="Sage UI" font-size="6" font-weight="500" letter-spacing="0px"><tspan x="281" y="182.762">Total Invoiced</tspan></text>
<rect x="272" y="191.44" width="7" height="7" rx="3.5" fill="#ABABAB"></rect>
<text fill="black" fill-opacity="0.65" xml:space="preserve" style="white-space: pre" font-family="Sage UI" font-size="6" font-weight="500" letter-spacing="0px"><tspan x="281" y="193.762">Remaining per 
</tspan><tspan x="281" y="200.762">Contract</tspan></text>
<rect x="46.5" y="109.98" width="320" height="143" rx="1.5" stroke="#E2E2E2"></rect>
<rect x="375.5" y="109.98" width="320" height="143" rx="1.5" fill="white"></rect>
<text fill="black" fill-opacity="0.9" xml:space="preserve" style="white-space: pre" font-family="Sage UI" font-size="9" font-weight="500" letter-spacing="0em"><tspan x="387" y="130.463">Invoicing History (Last 6 Months)</tspan></text>
<line x1="387" y1="139.98" x2="684" y2="139.98" stroke="#E2E2E2"></line>
<text fill="black" fill-opacity="0.65" xml:space="preserve" style="white-space: pre" font-family="Sage UI" font-size="7" letter-spacing="0px"><tspan x="387.655" y="154.709">$15K</tspan></text>
<line x1="408" y1="151.5" x2="612" y2="151.5" stroke="#E2E2E2"></line>
<text fill="black" fill-opacity="0.65" xml:space="preserve" style="white-space: pre" font-family="Sage UI" font-size="7" letter-spacing="0px"><tspan x="387.655" y="182.376">$10K</tspan></text>
<line x1="408" y1="179.167" x2="612" y2="179.167" stroke="#E2E2E2"></line>
<text fill="black" fill-opacity="0.65" xml:space="preserve" style="white-space: pre" font-family="Sage UI" font-size="7" letter-spacing="0px"><tspan x="391.853" y="210.042">$5K</tspan></text>
<line x1="408" y1="206.833" x2="612" y2="206.833" stroke="#E2E2E2"></line>
<text fill="black" fill-opacity="0.65" xml:space="preserve" style="white-space: pre" font-family="Sage UI" font-size="7" letter-spacing="0px"><tspan x="396.022" y="237.709">$0</tspan></text>
<line x1="408" y1="234.5" x2="612" y2="234.5" stroke="#E2E2E2"></line>
<rect x="417" y="224" width="17.1667" height="10" fill="#004A70"></rect>
<text fill="black" fill-opacity="0.65" xml:space="preserve" style="white-space: pre" font-family="Sage UI" font-size="7" letter-spacing="0px"><tspan x="419.643" y="242.709">Dec</tspan></text>
<rect x="451.167" y="207" width="17.1667" height="27" fill="#004A70"></rect>
<text fill="black" fill-opacity="0.65" xml:space="preserve" style="white-space: pre" font-family="Sage UI" font-size="7" letter-spacing="0px"><tspan x="454.039" y="242.709">Jan</tspan></text>
<mask id="path-60-inside-4_432_28268" fill="white">
<path d="M485.333 192H502.5V199H485.333V192Z"></path>
</mask>
<path d="M485.333 192H502.5V199H485.333V192Z" fill="#E98709"></path>
<path d="M502.5 198H485.333V200H502.5V198Z" fill="white" mask="url(#path-60-inside-4_432_28268)"></path>
<rect x="485.333" y="199" width="17.1667" height="35" fill="#004A70"></rect>
<text fill="black" fill-opacity="0.65" xml:space="preserve" style="white-space: pre" font-family="Sage UI" font-size="7" letter-spacing="0px"><tspan x="488.314" y="242.709">Feb</tspan></text>
<text fill="black" fill-opacity="0.65" xml:space="preserve" style="white-space: pre" font-family="Sage UI" font-size="7" letter-spacing="0px"><tspan x="522.29" y="242.709">Mar</tspan></text>
<mask id="path-65-inside-5_432_28268" fill="white">
<path d="M553.667 171H570.834V186H553.667V171Z"></path>
</mask>
<path d="M553.667 171H570.834V186H553.667V171Z" fill="#E98709"></path>
<path d="M570.834 185H553.667V187H570.834V185Z" fill="white" mask="url(#path-65-inside-5_432_28268)"></path>
<rect x="553.667" y="186" width="17.1667" height="48" fill="#004A70"></rect>
<text fill="black" fill-opacity="0.65" xml:space="preserve" style="white-space: pre" font-family="Sage UI" font-size="7" letter-spacing="0px"><tspan x="556.932" y="242.709">Apr</tspan></text>
<mask id="path-69-inside-6_432_28268" fill="white">
<path d="M587.833 194H605V227H587.833V194Z"></path>
</mask>
<path d="M587.833 194H605V227H587.833V194Z" fill="#E98709"></path>
<path d="M605 226H587.833V228H605V226Z" fill="white" mask="url(#path-69-inside-6_432_28268)"></path>
<rect x="587.833" y="227" width="17.1667" height="7" fill="#004A70"></rect>
<text fill="black" fill-opacity="0.65" xml:space="preserve" style="white-space: pre" font-family="Sage UI" font-size="7" letter-spacing="0px"><tspan x="590.237" y="242.709">May</tspan></text>
<rect x="638" y="184" width="7" height="7" rx="3.5" fill="#004A70"></rect>
<text fill="black" fill-opacity="0.65" xml:space="preserve" style="white-space: pre" font-family="Sage UI" font-size="6" font-weight="500" letter-spacing="0px"><tspan x="647" y="189.822">Invoice</tspan></text>
<rect x="638" y="197" width="7" height="7" rx="3.5" fill="#E98709"></rect>
<text fill="black" fill-opacity="0.65" xml:space="preserve" style="white-space: pre" font-family="Sage UI" font-size="6" font-weight="500" letter-spacing="0px"><tspan x="647" y="202.822">Payment</tspan></text>
<rect x="375.5" y="109.98" width="320" height="143" rx="1.5" stroke="#E2E2E2"></rect>
<rect x="46.5" y="261.98" width="649" height="180" rx="1.5" fill="white"></rect>
<text fill="black" fill-opacity="0.9" xml:space="preserve" style="white-space: pre" font-family="Sage UI" font-size="9" font-weight="500" letter-spacing="0em"><tspan x="58" y="282.463">Contact Administration Transactions</tspan></text>
<line x1="58" y1="291.98" x2="684" y2="291.98" stroke="#E2E2E2"></line>
<g clip-path="url(#clip0_432_28268)">
<path d="M58 300.48H234V330.48H58V300.48Z" fill="#F2F5F6"></path>
<path d="M234 329.98H58V330.98H234V329.98Z" fill="#E2E2E2"></path>
<path d="M234 300.48H291V330.48H234V300.48Z" fill="#F2F5F6"></path>
<text fill="black" xml:space="preserve" style="white-space: pre" font-family="Sage UI" font-size="8" font-weight="bold" letter-spacing="0em"><tspan x="249.344" y="313.576">Approved
</tspan><tspan x="267.523" y="323.576">Total</tspan></text>
<path d="M291 329.98H234V330.98H291V329.98Z" fill="#E2E2E2"></path>
<path d="M291 300.48H355V330.48H291V300.48Z" fill="#F2F5F6"></path>
<text fill="black" xml:space="preserve" style="white-space: pre" font-family="Sage UI" font-size="8" font-weight="bold" letter-spacing="0em"><tspan x="295.859" y="313.576">Approved # of
</tspan><tspan x="300.805" y="323.576">Transactions</tspan></text>
<path d="M355 329.98H291V330.98H355V329.98Z" fill="#E2E2E2"></path>
<path d="M355 300.48H415V330.48H355V300.48Z" fill="#F2F5F6"></path>
<text fill="black" xml:space="preserve" style="white-space: pre" font-family="Sage UI" font-size="8" font-weight="bold" letter-spacing="0em"><tspan x="362.078" y="313.576">Pending # of
</tspan><tspan x="360.805" y="323.576">Transactions</tspan></text>
<path d="M415 329.98H355V330.98H415V329.98Z" fill="#E2E2E2"></path>
<path d="M415 300.48H475V330.48H415V300.48Z" fill="#F2F5F6"></path>
<text fill="black" xml:space="preserve" style="white-space: pre" font-family="Sage UI" font-size="8" font-weight="bold" letter-spacing="0em"><tspan x="431.203" y="313.576">Other # of
</tspan><tspan x="420.805" y="323.576">Transactions</tspan></text>
<path d="M475 329.98H415V330.98H475V329.98Z" fill="#E2E2E2"></path>
<path d="M475 300.48H505V330.48H475V300.48Z" fill="#F2F5F6"></path>
<path d="M505 329.98H475V330.98H505V329.98Z" fill="#E2E2E2"></path>
<path d="M58 330.48H234V350.48H58V330.48Z" fill="white"></path>
<text fill="black" xml:space="preserve" style="white-space: pre" font-family="Sage UI" font-size="8" letter-spacing="0em"><tspan x="62" y="343.576">Prime Contracts</tspan></text>
<path d="M234 349.98H58V350.98H234V349.98Z" fill="#E2E2E2"></path>
<path d="M234 330.48H291V350.48H234V330.48Z" fill="white"></path>
<text fill="black" fill-opacity="0.9" xml:space="preserve" style="white-space: pre" font-family="Sage UI" font-size="8" letter-spacing="0em"><tspan x="238.328" y="343.576">$9,28,538.00</tspan></text>
<path d="M291 349.98H234V350.98H291V349.98Z" fill="#E2E2E2"></path>
<path d="M291 330.48H355V350.48H291V330.48Z" fill="white"></path>
<text fill="#008146" xml:space="preserve" style="white-space: pre" font-family="Sage UI" font-size="8" letter-spacing="0em" text-decoration="underline"><tspan x="346.203" y="343.576">1</tspan></text>
<path d="M355 349.98H291V350.98H355V349.98Z" fill="#E2E2E2"></path>
<path d="M355 330.48H415V350.48H355V330.48Z" fill="white"></path>
<text fill="#008146" xml:space="preserve" style="white-space: pre" font-family="Sage UI" font-size="8" letter-spacing="0em" text-decoration="underline"><tspan x="406.203" y="343.576">1</tspan></text>
<path d="M415 349.98H355V350.98H415V349.98Z" fill="#E2E2E2"></path>
<path d="M415 330.48H475V350.48H415V330.48Z" fill="white"></path>
<text fill="#008146" xml:space="preserve" style="white-space: pre" font-family="Sage UI" font-size="8" letter-spacing="0em" text-decoration="underline"><tspan x="466.203" y="343.576">1</tspan></text>
<path d="M475 349.98H415V350.98H475V349.98Z" fill="#E2E2E2"></path>
<path d="M475 330.48H505V350.48H475V330.48Z" fill="white"></path>
<path d="M490 337.929C489.324 337.929 488.775 337.38 488.775 336.705C488.775 336.029 489.324 335.48 490 335.48C490.677 335.48 491.225 336.029 491.225 336.705C491.225 337.38 490.677 337.929 490 337.929Z" fill="#7B7B7B"></path>
<path d="M490 341.806C489.324 341.806 488.775 341.258 488.775 340.582C488.775 339.906 489.324 339.357 490 339.357C490.677 339.357 491.225 339.906 491.225 340.582C491.225 341.258 490.677 341.806 490 341.806Z" fill="#7B7B7B"></path>
<path d="M490 345.48C489.324 345.48 488.775 344.931 488.775 344.256C488.775 343.58 489.324 343.031 490 343.031C490.677 343.031 491.225 343.58 491.225 344.256C491.225 344.931 490.677 345.48 490 345.48Z" fill="#7B7B7B"></path>
<path d="M505 349.98H475V350.98H505V349.98Z" fill="#E2E2E2"></path>
<path d="M58 350.48H234V370.48H58V350.48Z" fill="white"></path>
<text fill="black" xml:space="preserve" style="white-space: pre" font-family="Sage UI" font-size="8" letter-spacing="0em"><tspan x="62" y="363.576">Allowance Packages</tspan></text>
<path d="M234 369.98H58V370.98H234V369.98Z" fill="#E2E2E2"></path>
<path d="M234 350.48H291V370.48H234V350.48Z" fill="white"></path>
<text fill="black" fill-opacity="0.9" xml:space="preserve" style="white-space: pre" font-family="Sage UI" font-size="8" letter-spacing="0em"><tspan x="266.297" y="363.576">$0.00</tspan></text>
<path d="M291 369.98H234V370.98H291V369.98Z" fill="#E2E2E2"></path>
<path d="M291 350.48H355V370.48H291V350.48Z" fill="white"></path>
<text fill="black" fill-opacity="0.9" xml:space="preserve" style="white-space: pre" font-family="Sage UI" font-size="8" letter-spacing="0em"><tspan x="346.203" y="363.576">0</tspan></text>
<path d="M355 369.98H291V370.98H355V369.98Z" fill="#E2E2E2"></path>
<path d="M355 350.48H415V370.48H355V350.48Z" fill="white"></path>
<text fill="black" fill-opacity="0.9" xml:space="preserve" style="white-space: pre" font-family="Sage UI" font-size="8" letter-spacing="0em"><tspan x="406.203" y="363.576">0</tspan></text>
<path d="M415 369.98H355V370.98H415V369.98Z" fill="#E2E2E2"></path>
<path d="M415 350.48H475V370.48H415V350.48Z" fill="white"></path>
<text fill="black" fill-opacity="0.9" xml:space="preserve" style="white-space: pre" font-family="Sage UI" font-size="8" letter-spacing="0em"><tspan x="466.203" y="363.576">0</tspan></text>
<path d="M475 369.98H415V370.98H475V369.98Z" fill="#E2E2E2"></path>
<path d="M475 350.48H505V370.48H475V350.48Z" fill="white"></path>
<path d="M490 357.929C489.324 357.929 488.775 357.38 488.775 356.705C488.775 356.029 489.324 355.48 490 355.48C490.677 355.48 491.225 356.029 491.225 356.705C491.225 357.38 490.677 357.929 490 357.929Z" fill="#7B7B7B"></path>
<path d="M490 361.806C489.324 361.806 488.775 361.258 488.775 360.582C488.775 359.906 489.324 359.357 490 359.357C490.677 359.357 491.225 359.906 491.225 360.582C491.225 361.258 490.677 361.806 490 361.806Z" fill="#7B7B7B"></path>
<path d="M490 365.48C489.324 365.48 488.775 364.931 488.775 364.256C488.775 363.58 489.324 363.031 490 363.031C490.677 363.031 491.225 363.58 491.225 364.256C491.225 364.931 490.677 365.48 490 365.48Z" fill="#7B7B7B"></path>
<path d="M505 369.98H475V370.98H505V369.98Z" fill="#E2E2E2"></path>
<path d="M58 370.48H234V390.48H58V370.48Z" fill="white"></path>
<text fill="black" xml:space="preserve" style="white-space: pre" font-family="Sage UI" font-size="8" letter-spacing="0em"><tspan x="62" y="383.576">CPRs</tspan></text>
<path d="M234 389.98H58V390.98H234V389.98Z" fill="#E2E2E2"></path>
<path d="M234 370.48H291V390.48H234V370.48Z" fill="white"></path>
<text fill="black" fill-opacity="0.9" xml:space="preserve" style="white-space: pre" font-family="Sage UI" font-size="8" letter-spacing="0em"><tspan x="240.32" y="383.576">$115,527.72</tspan></text>
<path d="M291 389.98H234V390.98H291V389.98Z" fill="#E2E2E2"></path>
<path d="M291 370.48H355V390.48H291V370.48Z" fill="white"></path>
<text fill="#008146" xml:space="preserve" style="white-space: pre" font-family="Sage UI" font-size="8" letter-spacing="0em" text-decoration="underline"><tspan x="341.406" y="383.576">38</tspan></text>
<path d="M355 389.98H291V390.98H355V389.98Z" fill="#E2E2E2"></path>
<path d="M355 370.48H415V390.48H355V370.48Z" fill="white"></path>
<text fill="#008146" xml:space="preserve" style="white-space: pre" font-family="Sage UI" font-size="8" letter-spacing="0em" text-decoration="underline"><tspan x="406.203" y="383.576">1</tspan></text>
<path d="M415 389.98H355V390.98H415V389.98Z" fill="#E2E2E2"></path>
<path d="M415 370.48H475V390.48H415V370.48Z" fill="white"></path>
<text fill="black" fill-opacity="0.9" xml:space="preserve" style="white-space: pre" font-family="Sage UI" font-size="8" letter-spacing="0em"><tspan x="466.203" y="383.576">0</tspan></text>
<path d="M475 389.98H415V390.98H475V389.98Z" fill="#E2E2E2"></path>
<path d="M475 370.48H505V390.48H475V370.48Z" fill="white"></path>
<path d="M490 377.929C489.324 377.929 488.775 377.38 488.775 376.705C488.775 376.029 489.324 375.48 490 375.48C490.677 375.48 491.225 376.029 491.225 376.705C491.225 377.38 490.677 377.929 490 377.929Z" fill="#7B7B7B"></path>
<path d="M490 381.806C489.324 381.806 488.775 381.258 488.775 380.582C488.775 379.906 489.324 379.357 490 379.357C490.677 379.357 491.225 379.906 491.225 380.582C491.225 381.258 490.677 381.806 490 381.806Z" fill="#7B7B7B"></path>
<path d="M490 385.48C489.324 385.48 488.775 384.931 488.775 384.256C488.775 383.58 489.324 383.031 490 383.031C490.677 383.031 491.225 383.58 491.225 384.256C491.225 384.931 490.677 385.48 490 385.48Z" fill="#7B7B7B"></path>
<path d="M505 389.98H475V390.98H505V389.98Z" fill="#E2E2E2"></path>
<path d="M58 390.48H234V410.48H58V390.48Z" fill="white"></path>
<text fill="black" xml:space="preserve" style="white-space: pre" font-family="Sage UI" font-size="8" letter-spacing="0em"><tspan x="62" y="403.576">COs</tspan></text>
<path d="M234 409.98H58V410.98H234V409.98Z" fill="#E2E2E2"></path>
<path d="M234 390.48H291V410.48H234V390.48Z" fill="white"></path>
<text fill="black" fill-opacity="0.9" xml:space="preserve" style="white-space: pre" font-family="Sage UI" font-size="8" letter-spacing="0em"><tspan x="240.32" y="403.576">$103,496.90</tspan></text>
<path d="M291 409.98H234V410.98H291V409.98Z" fill="#E2E2E2"></path>
<path d="M291 390.48H355V410.48H291V390.48Z" fill="white"></path>
<text fill="#008146" xml:space="preserve" style="white-space: pre" font-family="Sage UI" font-size="8" letter-spacing="0em" text-decoration="underline"><tspan x="346.203" y="403.576">4</tspan></text>
<path d="M355 409.98H291V410.98H355V409.98Z" fill="#E2E2E2"></path>
<path d="M355 390.48H415V410.48H355V390.48Z" fill="white"></path>
<text fill="black" fill-opacity="0.9" xml:space="preserve" style="white-space: pre" font-family="Sage UI" font-size="8" letter-spacing="0em"><tspan x="406.203" y="403.576">0</tspan></text>
<path d="M415 409.98H355V410.98H415V409.98Z" fill="#E2E2E2"></path>
<path d="M415 390.48H475V410.48H415V390.48Z" fill="white"></path>
<text fill="black" fill-opacity="0.9" xml:space="preserve" style="white-space: pre" font-family="Sage UI" font-size="8" letter-spacing="0em"><tspan x="466.203" y="403.576">0</tspan></text>
<path d="M475 409.98H415V410.98H475V409.98Z" fill="#E2E2E2"></path>
<path d="M475 390.48H505V410.48H475V390.48Z" fill="white"></path>
<path d="M490 397.929C489.324 397.929 488.775 397.38 488.775 396.705C488.775 396.029 489.324 395.48 490 395.48C490.677 395.48 491.225 396.029 491.225 396.705C491.225 397.38 490.677 397.929 490 397.929Z" fill="#7B7B7B"></path>
<path d="M490 401.806C489.324 401.806 488.775 401.258 488.775 400.582C488.775 399.906 489.324 399.357 490 399.357C490.677 399.357 491.225 399.906 491.225 400.582C491.225 401.258 490.677 401.806 490 401.806Z" fill="#7B7B7B"></path>
<path d="M490 405.48C489.324 405.48 488.775 404.932 488.775 404.256C488.775 403.58 489.324 403.031 490 403.031C490.677 403.031 491.225 403.58 491.225 404.256C491.225 404.932 490.677 405.48 490 405.48Z" fill="#7B7B7B"></path>
<path d="M505 409.98H475V410.98H505V409.98Z" fill="#E2E2E2"></path>
<path d="M58 410.48H234V430.48H58V410.48Z" fill="white"></path>
<text fill="black" xml:space="preserve" style="white-space: pre" font-family="Sage UI" font-size="8" letter-spacing="0em"><tspan x="62" y="423.576">Prime Invoices</tspan></text>
<path d="M234 429.98H58V430.98H234V429.98Z" fill="#E2E2E2"></path>
<path d="M234 410.48H291V430.48H234V410.48Z" fill="white"></path>
<text fill="black" fill-opacity="0.9" xml:space="preserve" style="white-space: pre" font-family="Sage UI" font-size="8" letter-spacing="0em"><tspan x="245.117" y="423.576">$30,658.05</tspan></text>
<path d="M291 429.98H234V430.98H291V429.98Z" fill="#E2E2E2"></path>
<path d="M291 410.48H355V430.48H291V410.48Z" fill="white"></path>
<text fill="#008146" xml:space="preserve" style="white-space: pre" font-family="Sage UI" font-size="8" letter-spacing="0em" text-decoration="underline"><tspan x="346.203" y="423.576">3</tspan></text>
<path d="M355 429.98H291V430.98H355V429.98Z" fill="#E2E2E2"></path>
<path d="M355 410.48H415V430.48H355V410.48Z" fill="white"></path>
<text fill="black" fill-opacity="0.9" xml:space="preserve" style="white-space: pre" font-family="Sage UI" font-size="8" letter-spacing="0em"><tspan x="406.203" y="423.576">0</tspan></text>
<path d="M415 429.98H355V430.98H415V429.98Z" fill="#E2E2E2"></path>
<path d="M415 410.48H475V430.48H415V410.48Z" fill="white"></path>
<text fill="black" fill-opacity="0.9" xml:space="preserve" style="white-space: pre" font-family="Sage UI" font-size="8" letter-spacing="0em"><tspan x="466.203" y="423.576">0</tspan></text>
<path d="M475 429.98H415V430.98H475V429.98Z" fill="#E2E2E2"></path>
<path d="M475 410.48H505V430.48H475V410.48Z" fill="white"></path>
<path d="M490 417.929C489.324 417.929 488.775 417.38 488.775 416.705C488.775 416.029 489.324 415.48 490 415.48C490.677 415.48 491.225 416.029 491.225 416.705C491.225 417.38 490.677 417.929 490 417.929Z" fill="#7B7B7B"></path>
<path d="M490 421.806C489.324 421.806 488.775 421.258 488.775 420.582C488.775 419.906 489.324 419.357 490 419.357C490.677 419.357 491.225 419.906 491.225 420.582C491.225 421.258 490.677 421.806 490 421.806Z" fill="#7B7B7B"></path>
<path d="M490 425.48C489.324 425.48 488.775 424.932 488.775 424.256C488.775 423.58 489.324 423.031 490 423.031C490.677 423.031 491.225 423.58 491.225 424.256C491.225 424.932 490.677 425.48 490 425.48Z" fill="#7B7B7B"></path>
<path d="M505 429.98H475V430.98H505V429.98Z" fill="#E2E2E2"></path>
</g>
<rect x="58.5" y="300.98" width="446" height="129" stroke="#E2E2E2"></rect>
<text fill="black" fill-opacity="0.9" xml:space="preserve" style="white-space: pre" font-family="Sage UI" font-size="9" font-weight="500" letter-spacing="0em"><tspan x="529" y="326.463">Approved Totals by Type</tspan></text>
<circle cx="565.5" cy="376.98" r="36.4999" fill="#009494"></circle>
<path d="M601.299 369.776L602.074 369.602L601.901 368.827C598.182 352.151 583.298 339.685 565.5 339.685H564.705L564.705 340.48L564.705 376.98L564.705 377.973L565.674 377.756L601.299 369.776Z" fill="#095B84" stroke="white" stroke-width="1.58972"></path>
<path d="M596.797 358.172L597.47 357.748L597.044 357.075C590.438 346.627 578.78 339.685 565.5 339.685H564.705L564.705 340.48L564.705 376.98L564.705 378.422L565.924 377.652L596.797 358.172Z" fill="#9F2D3F" stroke="white" stroke-width="1.58972"></path>
<path d="M583.203 345.043L583.573 344.34L582.871 343.969C577.682 341.234 571.771 339.685 565.5 339.685H564.705L564.705 340.48L564.705 376.98L566.203 377.35L583.203 345.043Z" fill="#E98709" stroke="white" stroke-width="1.58972"></path>
<circle cx="565.5" cy="376.98" r="26.5001" fill="white"></circle>
<rect x="610" y="353.98" width="7" height="7" rx="3.5" fill="#009494"></rect>
<text fill="black" fill-opacity="0.65" xml:space="preserve" style="white-space: pre" font-family="Sage UI" font-size="6" font-weight="500" letter-spacing="0px"><tspan x="619" y="359.802">Prime Contracts</tspan></text>
<rect x="610" y="366.98" width="7" height="7" rx="3.5" fill="#E98709"></rect>
<text fill="black" fill-opacity="0.65" xml:space="preserve" style="white-space: pre" font-family="Sage UI" font-size="6" font-weight="500" letter-spacing="0px"><tspan x="619" y="372.802">CPRs</tspan></text>
<rect x="610" y="379.98" width="7" height="7" rx="3.5" fill="#9F2D3F"></rect>
<text fill="black" fill-opacity="0.65" xml:space="preserve" style="white-space: pre" font-family="Sage UI" font-size="6" font-weight="500" letter-spacing="0px"><tspan x="619" y="385.802">COs</tspan></text>
<rect x="610" y="392.98" width="7" height="7" rx="3.5" fill="#095B84"></rect>
<text fill="black" fill-opacity="0.65" xml:space="preserve" style="white-space: pre" font-family="Sage UI" font-size="6" font-weight="500" letter-spacing="0px"><tspan x="619" y="398.802">Prime Invoices</tspan></text>
<rect x="46.5" y="261.98" width="649" height="180" rx="1.5" stroke="#E2E2E2"></rect>
<path d="M34 24C34 10.7452 44.7452 0 58 0H684C697.255 0 708 10.7452 708 24V40H34V24Z" fill="#303030"></path>
<g filter="url(#filter0_d_432_28268)">
<rect x="24" y="101" width="343" height="156" rx="30" fill="white"></rect>
</g>
<rect x="0.630584" y="101.631" width="365.739" height="155.124" rx="7.36942" fill="white"></rect>
<text fill="black" fill-opacity="0.9" xml:space="preserve" style="white-space: pre" font-family="Sage UI" font-size="11.3505" font-weight="500" letter-spacing="0em"><tspan x="15.1338" y="127.527">Contract Status</tspan></text>
<line x1="15.1338" y1="139.593" x2="351.866" y2="139.593" stroke="#E2E2E2" stroke-width="1.26117"></line>
<text fill="black" fill-opacity="0.9" xml:space="preserve" style="white-space: pre" font-family="Sage UI" font-size="8.82818" font-weight="500" letter-spacing="0em"><tspan x="15.1338" y="159.229">Approved Contract Total</tspan></text>
<text fill="black" fill-opacity="0.9" xml:space="preserve" style="white-space: pre" font-family="Sage UI" font-size="8.82818" letter-spacing="0em"><tspan x="124.956" y="159.229">$929,538.00</tspan></text>
<text fill="black" fill-opacity="0.9" xml:space="preserve" style="white-space: pre" font-family="Sage UI" font-size="8.82818" font-weight="500" letter-spacing="0em"><tspan x="15.1338" y="180.319">Approved CO Total</tspan></text>
<text fill="black" fill-opacity="0.9" xml:space="preserve" style="white-space: pre" font-family="Sage UI" font-size="8.82818" letter-spacing="0em"><tspan x="124.956" y="180.319">$103,496.90</tspan></text>
<text fill="black" fill-opacity="0.9" xml:space="preserve" style="white-space: pre" font-family="Sage UI" font-size="8.82818" font-weight="500" letter-spacing="0em"><tspan x="15.1338" y="201.408">Revised Contract</tspan></text>
<text fill="black" fill-opacity="0.9" xml:space="preserve" style="white-space: pre" font-family="Sage UI" font-size="8.82818" letter-spacing="0em"><tspan x="124.956" y="201.408">$1,032,034.90</tspan></text>
<text fill="black" fill-opacity="0.9" xml:space="preserve" style="white-space: pre" font-family="Sage UI" font-size="8.82818" font-weight="500" letter-spacing="0em"><tspan x="15.1338" y="222.497">Invoice Total</tspan></text>
<text fill="black" fill-opacity="0.9" xml:space="preserve" style="white-space: pre" font-family="Sage UI" font-size="8.82818" letter-spacing="0em"><tspan x="124.956" y="222.497">$30,658.05</tspan></text>
<text fill="black" fill-opacity="0.9" xml:space="preserve" style="white-space: pre" font-family="Sage UI" font-size="8.82818" font-weight="500" letter-spacing="0em"><tspan x="15.1338" y="243.587">Invoice Total %</tspan></text>
<text fill="black" fill-opacity="0.9" xml:space="preserve" style="white-space: pre" font-family="Sage UI" font-size="8.82818" letter-spacing="0em"><tspan x="124.956" y="243.587">2.97%</tspan></text>
<text fill="black" fill-opacity="0.9" xml:space="preserve" style="white-space: pre" font-family="Sage UI" font-size="10.0893" font-weight="500" letter-spacing="0em"><tspan x="228.109" y="160.217">Invoicing Summary</tspan></text>
<circle cx="238.411" cy="201.358" r="28.9564" fill="#ABABAB"></circle>
<path d="M240.356 230.258L240.412 230.886L241.04 230.83C256.15 229.5 267.999 216.814 267.999 201.358C267.999 185.018 254.753 171.772 238.412 171.772H237.782L237.782 172.402L237.782 201.358L237.782 201.387L237.784 201.414L240.356 230.258Z" fill="#006D3B" stroke="white" stroke-width="1.26117"></path>
<circle cx="238.531" cy="201.359" r="23.8933" fill="white"></circle>
<text fill="#006D3B" xml:space="preserve" style="white-space: pre" font-family="Sage UI" font-size="15.1902" font-weight="500" letter-spacing="0px"><tspan x="223.776" y="207.218">49%</tspan></text>
<rect x="272.413" y="185.422" width="8.82818" height="8.82818" rx="4.41409" fill="#006D3B"></rect>
<text fill="black" fill-opacity="0.65" xml:space="preserve" style="white-space: pre" font-family="Sage UI" font-size="7.56701" font-weight="500" letter-spacing="0px"><tspan x="283.764" y="192.765">Total Invoiced</tspan></text>
<rect x="272.413" y="203.967" width="8.82818" height="8.82818" rx="4.41409" fill="#ABABAB"></rect>
<text fill="black" fill-opacity="0.65" xml:space="preserve" style="white-space: pre" font-family="Sage UI" font-size="7.56701" font-weight="500" letter-spacing="0px"><tspan x="283.764" y="206.809">Remaining per 
</tspan><tspan x="283.764" y="215.809">Contract</tspan></text>
<rect x="0.630584" y="101.631" width="365.739" height="155.124" rx="7.36942" stroke="#E2E2E2" stroke-width="1.26117"></rect>
<defs>
<filter id="filter0_d_432_28268" x="0" y="89" width="391" height="204" filterUnits="userSpaceOnUse" color-interpolation-filters="sRGB">
<feFlood flood-opacity="0" result="BackgroundImageFix"></feFlood>
<feColorMatrix in="SourceAlpha" type="matrix" values="0 0 0 0 0 0 0 0 0 0 0 0 0 0 0 0 0 0 127 0" result="hardAlpha"></feColorMatrix>
<feOffset dy="12"></feOffset>
<feGaussianBlur stdDeviation="12"></feGaussianBlur>
<feComposite in2="hardAlpha" operator="out"></feComposite>
<feColorMatrix type="matrix" values="0 0 0 0 0 0 0 0 0 0 0 0 0 0 0 0 0 0 0.1 0"></feColorMatrix>
<feBlend mode="normal" in2="BackgroundImageFix" result="effect1_dropShadow_432_28268"></feBlend>
<feBlend mode="normal" in="SourceGraphic" in2="effect1_dropShadow_432_28268" result="shape"></feBlend>
</filter>
<clipPath id="clip0_432_28268">
<rect x="58" y="300.48" width="447" height="130" fill="white"></rect>
</clipPath>
</defs>
</svg>