<svg xmlns:xlink="http://www.w3.org/1999/xlink"  class=" responsive-svg" aria-hidden="true" width="708" height="498" viewBox="0 0 708 498" fill="none" xmlns="http://www.w3.org/2000/svg" id="svgembed-32095a430ec04ac5b5920d97a54105d3-0">
<g clip-path="url(#clip0_686_65072)">
<path d="M24 0.501953H684C696.978 0.501953 707.498 11.0224 707.498 24V474C707.498 486.978 696.978 497.498 684 497.498H24C11.0224 497.498 0.501953 486.978 0.501953 474V24C0.501961 11.0224 11.0224 0.501953 24 0.501953Z" fill="#F2F5F6" stroke="#E2E2E2" stroke-width="1.00394"></path>
<g clip-path="url(#clip1_686_65072)">
<g clip-path="url(#clip2_686_65072)">
<rect x="16.5" y="117.5" width="136" height="65" fill="#E7EBEE" stroke="#E2E2E2"></rect>
<rect x="26.5" y="153.5" width="116" height="19" fill="white" stroke="#C6C6C6"></rect>
<text fill="black" fill-opacity="0.9" style="white-space: pre" xml:space="preserve" font-family="Sage UI" font-size="12" letter-spacing="0px"><tspan x="26.2969" y="138.644">Project ID</tspan></text>
<path d="M90.6795 139L84.881 132.25L96.478 132.25L90.6795 139Z" fill="#1B1B1B"></path>
<rect x="153.5" y="117.5" width="142" height="65" fill="#E7EBEE" stroke="#E2E2E2"></rect>
<rect x="163.5" y="153.5" width="122" height="19" fill="white" stroke="#C6C6C6"></rect>
<text fill="black" fill-opacity="0.9" style="white-space: pre" xml:space="preserve" font-family="Sage UI" font-size="12" letter-spacing="0px"><tspan x="163" y="138.644">Name</tspan></text>
<rect x="296.5" y="117.5" width="98" height="65" fill="#E7EBEE" stroke="#E2E2E2"></rect>
<rect x="306.5" y="153.5" width="78" height="19" fill="white" stroke="#C6C6C6"></rect>
<text fill="black" fill-opacity="0.9" style="white-space: pre" xml:space="preserve" font-family="Sage UI" font-size="12" letter-spacing="0px"><tspan x="306" y="138.644">Parent ID</tspan></text>
<rect x="395.5" y="117.5" width="98" height="65" fill="#E7EBEE" stroke="#E2E2E2"></rect>
<rect x="405.5" y="153.5" width="78" height="19" fill="white" stroke="#C6C6C6"></rect>
<text fill="black" fill-opacity="0.9" style="white-space: pre" xml:space="preserve" font-family="Sage UI" font-size="12" letter-spacing="0px"><tspan x="405" y="138.644">Category</tspan></text>
<rect x="494.5" y="117.5" width="98" height="65" fill="#E7EBEE" stroke="#E2E2E2"></rect>
<rect x="504.5" y="153.5" width="78" height="19" fill="white" stroke="#C6C6C6"></rect>
<text fill="black" fill-opacity="0.9" style="white-space: pre" xml:space="preserve" font-family="Sage UI" font-size="12" letter-spacing="0px"><tspan x="504" y="138.644">Project status</tspan></text>
<rect x="593.5" y="117.5" width="98" height="65" fill="#E7EBEE" stroke="#E2E2E2"></rect>
<rect x="603.5" y="153.5" width="78" height="19" fill="white" stroke="#C6C6C6"></rect>
<text fill="black" fill-opacity="0.9" style="white-space: pre" xml:space="preserve" font-family="Sage UI" font-size="12" letter-spacing="0px"><tspan x="603" y="138.644">Type</tspan></text>
</g>
<rect x="16.5" y="182.5" width="675" height="29" fill="white" stroke="#E2E2E2"></rect>
<rect x="26" y="190" width="15" height="15" fill="#FFB500"></rect>
<text fill="black" fill-opacity="0.9" style="white-space: pre" xml:space="preserve" font-family="Sage UI" font-size="12" letter-spacing="0px"><tspan x="47" y="201.644">01-100</tspan></text>
<text fill="black" fill-opacity="0.9" style="white-space: pre" xml:space="preserve" font-family="Sage UI" font-size="12" letter-spacing="0px"><tspan x="163" y="201.644">Westfield Shopping ma..</tspan></text>
<text fill="black" fill-opacity="0.9" style="white-space: pre" xml:space="preserve" font-family="Sage UI" font-size="12" letter-spacing="0px"><tspan x="405" y="201.644">Contract</tspan></text>
<text fill="black" fill-opacity="0.9" style="white-space: pre" xml:space="preserve" font-family="Sage UI" font-size="12" letter-spacing="0px"><tspan x="504" y="201.644">In Progress</tspan></text>
<text fill="black" fill-opacity="0.9" style="white-space: pre" xml:space="preserve" font-family="Sage UI" font-size="12" letter-spacing="0px"><tspan x="603" y="201.644">Retail</tspan></text>
<rect x="16.5" y="211.5" width="675" height="29" fill="#F1F5F6" stroke="#E2E2E2"></rect>
<rect x="26" y="219" width="15" height="15" fill="#FFB500"></rect>
<text fill="black" fill-opacity="0.9" style="white-space: pre" xml:space="preserve" font-family="Sage UI" font-size="12" letter-spacing="0px"><tspan x="47" y="230.644">04-003</tspan></text>
<text fill="black" fill-opacity="0.9" style="white-space: pre" xml:space="preserve" font-family="Sage UI" font-size="12" letter-spacing="0px"><tspan x="163" y="230.644">Big Yellow Self Storage</tspan></text>
<text fill="black" fill-opacity="0.9" style="white-space: pre" xml:space="preserve" font-family="Sage UI" font-size="12" letter-spacing="0px"><tspan x="405" y="230.644">Contract</tspan></text>
<text fill="black" fill-opacity="0.9" style="white-space: pre" xml:space="preserve" font-family="Sage UI" font-size="12" letter-spacing="0px"><tspan x="504" y="230.644">In Progress</tspan></text>
<text fill="black" fill-opacity="0.9" style="white-space: pre" xml:space="preserve" font-family="Sage UI" font-size="12" letter-spacing="0px"><tspan x="603" y="230.644">Retail</tspan></text>
<rect x="16.5" y="240.5" width="675" height="29" fill="white" stroke="#E2E2E2"></rect>
<rect x="26" y="248" width="15" height="15" fill="#FFB500"></rect>
<text fill="black" fill-opacity="0.9" style="white-space: pre" xml:space="preserve" font-family="Sage UI" font-size="12" letter-spacing="0px"><tspan x="47" y="259.644">04-004</tspan></text>
<text fill="black" fill-opacity="0.9" style="white-space: pre" xml:space="preserve" font-family="Sage UI" font-size="12" letter-spacing="0px"><tspan x="163" y="259.644">Travelodge - London W..</tspan></text>
<text fill="black" fill-opacity="0.9" style="white-space: pre" xml:space="preserve" font-family="Sage UI" font-size="12" letter-spacing="0px"><tspan x="405" y="259.644">Contract</tspan></text>
<text fill="black" fill-opacity="0.9" style="white-space: pre" xml:space="preserve" font-family="Sage UI" font-size="12" letter-spacing="0px"><tspan x="504" y="259.644">In Progress</tspan></text>
<text fill="black" fill-opacity="0.9" style="white-space: pre" xml:space="preserve" font-family="Sage UI" font-size="12" letter-spacing="0px"><tspan x="603" y="259.644">Hospitality</tspan></text>
<rect x="16.5" y="269.5" width="675" height="29" fill="#F1F5F6" stroke="#E2E2E2"></rect>
<rect x="26" y="277" width="15" height="15" fill="#FFB500"></rect>
<text fill="black" fill-opacity="0.9" style="white-space: pre" xml:space="preserve" font-family="Sage UI" font-size="12" letter-spacing="0px"><tspan x="47" y="288.644">04-005</tspan></text>
<text fill="black" fill-opacity="0.9" style="white-space: pre" xml:space="preserve" font-family="Sage UI" font-size="12" letter-spacing="0px"><tspan x="163" y="288.644">Baratt Homes - Harrow</tspan></text>
<text fill="black" fill-opacity="0.9" style="white-space: pre" xml:space="preserve" font-family="Sage UI" font-size="12" letter-spacing="0px"><tspan x="405" y="288.644">Contract</tspan></text>
<text fill="black" fill-opacity="0.9" style="white-space: pre" xml:space="preserve" font-family="Sage UI" font-size="12" letter-spacing="0px"><tspan x="504" y="288.644">In Progress</tspan></text>
<text fill="black" fill-opacity="0.9" style="white-space: pre" xml:space="preserve" font-family="Sage UI" font-size="12" letter-spacing="0px"><tspan x="603" y="288.644">Residential</tspan></text>
<rect x="16.5" y="298.5" width="675" height="29" fill="white" stroke="#E2E2E2"></rect>
<rect x="26" y="306" width="15" height="15" fill="#FFB500"></rect>
<text fill="black" fill-opacity="0.9" style="white-space: pre" xml:space="preserve" font-family="Sage UI" font-size="12" letter-spacing="0px"><tspan x="47" y="317.644">04-006</tspan></text>
<text fill="black" fill-opacity="0.9" style="white-space: pre" xml:space="preserve" font-family="Sage UI" font-size="12" letter-spacing="0px"><tspan x="163" y="317.644">Best Western Hotels</tspan></text>
<text fill="black" fill-opacity="0.9" style="white-space: pre" xml:space="preserve" font-family="Sage UI" font-size="12" letter-spacing="0px"><tspan x="405" y="317.644">Contract</tspan></text>
<text fill="black" fill-opacity="0.9" style="white-space: pre" xml:space="preserve" font-family="Sage UI" font-size="12" letter-spacing="0px"><tspan x="504" y="317.644">In Progress</tspan></text>
<text fill="black" fill-opacity="0.9" style="white-space: pre" xml:space="preserve" font-family="Sage UI" font-size="12" letter-spacing="0px"><tspan x="603" y="317.644">Hospitality</tspan></text>
<rect x="16.5" y="327.5" width="675" height="29" fill="#F1F5F6" stroke="#E2E2E2"></rect>
<rect x="26" y="335" width="15" height="15" fill="#FFB500"></rect>
<text fill="black" fill-opacity="0.9" style="white-space: pre" xml:space="preserve" font-family="Sage UI" font-size="12" letter-spacing="0px"><tspan x="47" y="346.644">04-007</tspan></text>
<text fill="black" fill-opacity="0.9" style="white-space: pre" xml:space="preserve" font-family="Sage UI" font-size="12" letter-spacing="0px"><tspan x="163" y="346.644">Westminster Council R..</tspan></text>
<text fill="black" fill-opacity="0.9" style="white-space: pre" xml:space="preserve" font-family="Sage UI" font-size="12" letter-spacing="0px"><tspan x="405" y="346.644">Contract</tspan></text>
<text fill="black" fill-opacity="0.9" style="white-space: pre" xml:space="preserve" font-family="Sage UI" font-size="12" letter-spacing="0px"><tspan x="504" y="346.644">In Progress</tspan></text>
<text fill="black" fill-opacity="0.9" style="white-space: pre" xml:space="preserve" font-family="Sage UI" font-size="12" letter-spacing="0px"><tspan x="603" y="346.644">Government</tspan></text>
<rect x="16.5" y="356.5" width="675" height="29" fill="white" stroke="#E2E2E2"></rect>
<rect x="26" y="364" width="15" height="15" fill="#FFB500"></rect>
<text fill="black" fill-opacity="0.9" style="white-space: pre" xml:space="preserve" font-family="Sage UI" font-size="12" letter-spacing="0px"><tspan x="47" y="375.644">04-008</tspan></text>
<text fill="black" fill-opacity="0.9" style="white-space: pre" xml:space="preserve" font-family="Sage UI" font-size="12" letter-spacing="0px"><tspan x="163" y="375.644">Greenwich Council Re..</tspan></text>
<text fill="black" fill-opacity="0.9" style="white-space: pre" xml:space="preserve" font-family="Sage UI" font-size="12" letter-spacing="0px"><tspan x="405" y="375.644">Contract</tspan></text>
<text fill="black" fill-opacity="0.9" style="white-space: pre" xml:space="preserve" font-family="Sage UI" font-size="12" letter-spacing="0px"><tspan x="504" y="375.644">In Progress</tspan></text>
<text fill="black" fill-opacity="0.9" style="white-space: pre" xml:space="preserve" font-family="Sage UI" font-size="12" letter-spacing="0px"><tspan x="603" y="375.644">Government</tspan></text>
<rect x="16.5" y="385.5" width="675" height="29" fill="#F1F5F6" stroke="#E2E2E2"></rect>
<rect x="26" y="393" width="15" height="15" fill="#FFB500"></rect>
<text fill="black" fill-opacity="0.9" style="white-space: pre" xml:space="preserve" font-family="Sage UI" font-size="12" letter-spacing="0px"><tspan x="47" y="404.644">04-009</tspan></text>
<text fill="black" fill-opacity="0.9" style="white-space: pre" xml:space="preserve" font-family="Sage UI" font-size="12" letter-spacing="0px"><tspan x="163" y="404.644">Harrow Council Refur..</tspan></text>
<text fill="black" fill-opacity="0.9" style="white-space: pre" xml:space="preserve" font-family="Sage UI" font-size="12" letter-spacing="0px"><tspan x="405" y="404.644">Contract</tspan></text>
<text fill="black" fill-opacity="0.9" style="white-space: pre" xml:space="preserve" font-family="Sage UI" font-size="12" letter-spacing="0px"><tspan x="504" y="404.644">In Progress</tspan></text>
<text fill="black" fill-opacity="0.9" style="white-space: pre" xml:space="preserve" font-family="Sage UI" font-size="12" letter-spacing="0px"><tspan x="603" y="404.644">Government</tspan></text>
<rect x="16.5" y="414.5" width="675" height="29" fill="white" stroke="#E2E2E2"></rect>
<rect x="26" y="422" width="15" height="15" fill="#FFB500"></rect>
<text fill="black" fill-opacity="0.9" style="white-space: pre" xml:space="preserve" font-family="Sage UI" font-size="12" letter-spacing="0px"><tspan x="47" y="433.644">04-010</tspan></text>
<text fill="black" fill-opacity="0.9" style="white-space: pre" xml:space="preserve" font-family="Sage UI" font-size="12" letter-spacing="0px"><tspan x="163" y="433.644">Center Parcs - Sherwo..</tspan></text>
<text fill="black" fill-opacity="0.9" style="white-space: pre" xml:space="preserve" font-family="Sage UI" font-size="12" letter-spacing="0px"><tspan x="405" y="433.644">Contract</tspan></text>
<text fill="black" fill-opacity="0.9" style="white-space: pre" xml:space="preserve" font-family="Sage UI" font-size="12" letter-spacing="0px"><tspan x="504" y="433.644">In Progress</tspan></text>
<text fill="black" fill-opacity="0.9" style="white-space: pre" xml:space="preserve" font-family="Sage UI" font-size="12" letter-spacing="0px"><tspan x="603" y="433.644">Hospitality</tspan></text>
<rect x="16.5" y="443.5" width="675" height="29" fill="#F1F5F6" stroke="#E2E2E2"></rect>
<rect x="26" y="451" width="15" height="15" fill="#FFB500"></rect>
<text fill="black" fill-opacity="0.9" style="white-space: pre" xml:space="preserve" font-family="Sage UI" font-size="12" letter-spacing="0px"><tspan x="47" y="462.644">04-011</tspan></text>
<text fill="black" fill-opacity="0.9" style="white-space: pre" xml:space="preserve" font-family="Sage UI" font-size="12" letter-spacing="0px"><tspan x="163" y="462.644">Crest Nicholson - Lon..</tspan></text>
<text fill="black" fill-opacity="0.9" style="white-space: pre" xml:space="preserve" font-family="Sage UI" font-size="12" letter-spacing="0px"><tspan x="405" y="462.644">Contract</tspan></text>
<text fill="black" fill-opacity="0.9" style="white-space: pre" xml:space="preserve" font-family="Sage UI" font-size="12" letter-spacing="0px"><tspan x="504" y="462.644">In Progress</tspan></text>
<text fill="black" fill-opacity="0.9" style="white-space: pre" xml:space="preserve" font-family="Sage UI" font-size="12" letter-spacing="0px"><tspan x="603" y="462.644">Residential</tspan></text>
<rect x="16.5" y="472.5" width="675" height="29" fill="white" stroke="#E2E2E2"></rect>
<rect x="26" y="480" width="15" height="15" fill="#FFB500"></rect>
</g>
<text fill="black" fill-opacity="0.9" style="white-space: pre" xml:space="preserve" font-family="Sage UI" font-size="18" font-weight="bold" letter-spacing="0px"><tspan x="16" y="65.966">Projects</tspan></text>
<path d="M0 24C0 10.7452 10.7452 0 24 0H684C697.255 0 708 10.7452 708 24V32H0V24Z" fill="#303030"></path>
<text fill="black" fill-opacity="0.9" style="white-space: pre" xml:space="preserve" font-family="Sage UI" font-size="16" font-weight="500" letter-spacing="0px"><tspan x="21" y="101.692">All</tspan></text>
<path d="M50.5 100L44.8708 93.25L56.1292 93.25L50.5 100Z" fill="#1B1B1B"></path>
<text fill="black" fill-opacity="0.9" style="white-space: pre" xml:space="preserve" font-family="Sage UI" font-size="14" letter-spacing="0px"><tspan x="68" y="100.918">Manage views</tspan></text>
<path d="M163.5 100L157.871 93.25L169.129 93.25L163.5 100Z" fill="#1B1B1B"></path>
<line x1="181.5" y1="87.5" x2="181.5" y2="103.5" stroke="black"></line>
<text fill="black" fill-opacity="0.9" style="white-space: pre" xml:space="preserve" font-family="Sage UI" font-size="14" letter-spacing="0px"><tspan x="192" y="100.918">Group filters</tspan></text>
<path d="M280.5 100L274.871 93.25L286.129 93.25L280.5 100Z" fill="#1B1B1B"></path>
<line x1="298.5" y1="87.5" x2="298.5" y2="103.5" stroke="black"></line>
<rect x="309.5" y="88.5" width="14" height="14" rx="1.5" fill="white" stroke="#C6C6C6"></rect>
<text fill="black" fill-opacity="0.9" style="white-space: pre" xml:space="preserve" font-family="Sage UI" font-size="14" letter-spacing="0px"><tspan x="328" y="100.918">Include inactive</tspan></text>
<line x1="437.5" y1="87.5" x2="437.5" y2="103.5" stroke="black"></line>
<rect x="448.5" y="88.5" width="14" height="14" rx="1.5" fill="white" stroke="#C6C6C6"></rect>
<path d="M459.621 92.6156C459.481 92.5363 459.317 92.4961 459.151 92.5003C458.937 92.5058 458.734 92.5843 458.585 92.7193L454.034 96.7398L452.419 95.3124C452.343 95.2434 452.253 95.1882 452.153 95.1501C452.052 95.1116 451.944 95.0913 451.834 95.0903C451.724 95.0893 451.615 95.1077 451.513 95.1443C451.412 95.181 451.319 95.2352 451.242 95.3038C451.164 95.3724 451.103 95.454 451.061 95.5438C451.02 95.6336 450.999 95.7299 451 95.8269C451.001 95.9239 451.024 96.0197 451.068 96.1088C451.111 96.197 451.173 96.2768 451.252 96.3436L453.451 98.2865C453.605 98.4232 453.815 98.5 454.034 98.5C454.253 98.5 454.463 98.4232 454.618 98.2865L459.752 93.7504C459.87 93.6481 459.951 93.5168 459.984 93.3734C460.017 93.2295 459.999 93.0801 459.935 92.9449C459.87 92.8097 459.76 92.6949 459.621 92.6156Z" fill="black"></path>
<text fill="black" fill-opacity="0.9" style="white-space: pre" xml:space="preserve" font-family="Sage UI" font-size="14" letter-spacing="0px"><tspan x="467" y="100.918">Display hierarchy</tspan></text>
<line x1="584.5" y1="87.5" x2="584.5" y2="103.5" stroke="black"></line>
<text fill="#008146" style="white-space: pre" xml:space="preserve" font-family="Sage UI" font-size="14" letter-spacing="0px" text-decoration="underline"><tspan x="595" y="100.918">Advance filters</tspan></text>
</g>
<defs>
<clipPath id="clip0_686_65072">
<rect width="708" height="498" fill="white"></rect>
</clipPath>
<clipPath id="clip1_686_65072">
<rect width="676" height="365" fill="white" transform="translate(16 117)"></rect>
</clipPath>
<clipPath id="clip2_686_65072">
<rect width="676" height="66" fill="white" transform="translate(16 117)"></rect>
</clipPath>
</defs>
</svg>