<svg width="708" height="562" viewBox="0 0 708 562" fill="none" xmlns="http://www.w3.org/2000/svg">
<path d="M644 397H64C50.7452 397 40 407.745 40 421V474C40 487.255 50.7452 498 64 498H644C657.255 498 668 487.255 668 474V421C668 407.745 657.255 397 644 397Z" fill="white"/>
<path d="M30 21.6514C30 9.69366 39.6937 0 51.6514 0H683.872C695.829 0 705.523 9.69365 705.523 21.6514V481.743C705.523 493.701 695.829 503.394 683.872 503.394H51.6514C39.6936 503.394 30 493.701 30 481.743V21.6514Z" fill="#F2F5F6"/>
<path d="M408.521 188C408.521 179.716 415.237 173 423.521 173H683.521C691.806 173 698.521 179.716 698.521 188V317C698.521 325.284 691.806 332 683.521 332H423.521C415.237 332 408.521 325.284 408.521 317V188Z" fill="white"/>
<text fill="black" style="white-space: pre" xml:space="preserve" font-family="Sage UI" font-size="12" font-weight="bold" letter-spacing="0em"><tspan x="423.521" y="194.289">Statement of Revenue &#38; Expenditure</tspan></text>
<path d="M503.521 203H423.521V208H503.521V203Z" fill="#CCD6DB"/>
<path d="M423.521 217.5H698.521" stroke="#CCD6DB"/>
<path d="M459.521 273H429.521V278H459.521V273Z" fill="#D1DADE"/>
<path d="M637.521 273H607.521V278H637.521V273Z" fill="#D1DADE"/>
<path d="M459.521 253H429.521V258H459.521V253Z" fill="#D1DADE"/>
<path d="M637.521 253H617.521V258H637.521V253Z" fill="#D1DADE"/>
<path d="M459.521 283H429.521V288H459.521V283Z" fill="#D1DADE"/>
<path d="M637.521 283H617.521V288H637.521V283Z" fill="#D1DADE"/>
<path d="M459.521 263H429.521V268H459.521V263Z" fill="#D1DADE"/>
<path d="M637.521 263H617.521V268H637.521V263Z" fill="#D1DADE"/>
<path d="M519.521 273H479.521V278H519.521V273Z" fill="#D1DADE"/>
<path d="M509.521 253H479.521V258H509.521V253Z" fill="#D1DADE"/>
<path d="M509.521 283H479.521V288H509.521V283Z" fill="#D1DADE"/>
<path d="M519.521 263H479.521V268H519.521V263Z" fill="#D1DADE"/>
<path d="M459.521 293H429.521V298H459.521V293Z" fill="#D1DADE"/>
<path d="M637.521 293H607.521V298H637.521V293Z" fill="#D1DADE"/>
<path d="M459.521 313H429.521V318H459.521V313Z" fill="#D1DADE"/>
<path d="M637.521 313H617.521V318H637.521V313Z" fill="#D1DADE"/>
<path d="M459.521 303H429.521V308H459.521V303Z" fill="#D1DADE"/>
<path d="M637.521 303H617.521V308H637.521V303Z" fill="#D1DADE"/>
<path d="M677.521 273H657.521V278H677.521V273Z" fill="#D1DADE"/>
<path d="M677.521 253H657.521V258H677.521V253Z" fill="#D1DADE"/>
<path d="M677.521 283H657.521V288H677.521V283Z" fill="#D1DADE"/>
<path d="M677.521 263H657.521V268H677.521V263Z" fill="#D1DADE"/>
<path d="M677.521 293H657.521V298H677.521V293Z" fill="#D1DADE"/>
<path d="M677.521 313H657.521V318H677.521V313Z" fill="#D1DADE"/>
<path d="M677.521 303H657.521V308H677.521V303Z" fill="#D1DADE"/>
<path d="M597.521 273H577.521V278H597.521V273Z" fill="#D1DADE"/>
<path d="M597.521 253H567.521V258H597.521V253Z" fill="#D1DADE"/>
<path d="M597.521 283H567.521V288H597.521V283Z" fill="#D1DADE"/>
<path d="M597.521 263H577.521V268H597.521V263Z" fill="#D1DADE"/>
<path d="M597.521 293H567.521V298H597.521V293Z" fill="#D1DADE"/>
<path d="M597.521 313H577.521V318H597.521V313Z" fill="#D1DADE"/>
<path d="M597.521 303H577.521V308H597.521V303Z" fill="#D1DADE"/>
<path d="M509.521 293H479.521V298H509.521V293Z" fill="#D1DADE"/>
<path d="M519.521 313H479.521V318H519.521V313Z" fill="#D1DADE"/>
<path d="M509.521 303H479.521V308H509.521V303Z" fill="#D1DADE"/>
<path d="M683.521 226H423.521V247H683.521V226Z" fill="#F7F7F7"/>
<path d="M459.521 234H429.521V239H459.521V234Z" fill="#D1DADE"/>
<path d="M509.521 234H479.521V239H509.521V234Z" fill="#D1DADE"/>
<path d="M597.521 234H567.521V239H597.521V234Z" fill="#D1DADE"/>
<path d="M637.521 234H607.521V239H637.521V234Z" fill="#D1DADE"/>
<path d="M677.521 234H647.521V239H677.521V234Z" fill="#D1DADE"/>
<path d="M408.521 354C408.521 345.716 415.237 339 423.521 339H683.521C691.806 339 698.521 345.716 698.521 354V483C698.521 491.284 691.806 498 683.521 498H423.521C415.237 498 408.521 491.284 408.521 483V354Z" fill="white"/>
<text fill="black" style="white-space: pre" xml:space="preserve" font-family="Sage UI" font-size="12" font-weight="bold" letter-spacing="0em"><tspan x="423.521" y="360.289">Func. Exp with Budget v Actual with Commits</tspan></text>
<path d="M503.521 369H423.521V374H503.521V369Z" fill="#CCD6DB"/>
<path d="M423.521 383.5H698.521" stroke="#CCD6DB"/>
<path d="M459.521 439H429.521V444H459.521V439Z" fill="#D1DADE"/>
<path d="M637.521 439H607.521V444H637.521V439Z" fill="#D1DADE"/>
<path d="M459.521 419H429.521V424H459.521V419Z" fill="#D1DADE"/>
<path d="M637.521 419H617.521V424H637.521V419Z" fill="#D1DADE"/>
<path d="M459.521 449H429.521V454H459.521V449Z" fill="#D1DADE"/>
<path d="M637.521 449H617.521V454H637.521V449Z" fill="#D1DADE"/>
<path d="M459.521 429H429.521V434H459.521V429Z" fill="#D1DADE"/>
<path d="M637.521 429H617.521V434H637.521V429Z" fill="#D1DADE"/>
<path d="M519.521 439H479.521V444H519.521V439Z" fill="#D1DADE"/>
<path d="M509.521 419H479.521V424H509.521V419Z" fill="#D1DADE"/>
<path d="M509.521 449H479.521V454H509.521V449Z" fill="#D1DADE"/>
<path d="M519.521 429H479.521V434H519.521V429Z" fill="#D1DADE"/>
<path d="M459.521 459H429.521V464H459.521V459Z" fill="#D1DADE"/>
<path d="M637.521 459H607.521V464H637.521V459Z" fill="#D1DADE"/>
<path d="M459.521 479H429.521V484H459.521V479Z" fill="#D1DADE"/>
<path d="M637.521 479H617.521V484H637.521V479Z" fill="#D1DADE"/>
<path d="M459.521 469H429.521V474H459.521V469Z" fill="#D1DADE"/>
<path d="M637.521 469H617.521V474H637.521V469Z" fill="#D1DADE"/>
<path d="M677.521 439H657.521V444H677.521V439Z" fill="#D1DADE"/>
<path d="M677.521 419H657.521V424H677.521V419Z" fill="#D1DADE"/>
<path d="M677.521 449H657.521V454H677.521V449Z" fill="#D1DADE"/>
<path d="M677.521 429H657.521V434H677.521V429Z" fill="#D1DADE"/>
<path d="M677.521 459H657.521V464H677.521V459Z" fill="#D1DADE"/>
<path d="M677.521 479H657.521V484H677.521V479Z" fill="#D1DADE"/>
<path d="M677.521 469H657.521V474H677.521V469Z" fill="#D1DADE"/>
<path d="M597.521 439H577.521V444H597.521V439Z" fill="#D1DADE"/>
<path d="M597.521 419H567.521V424H597.521V419Z" fill="#D1DADE"/>
<path d="M597.521 449H567.521V454H597.521V449Z" fill="#D1DADE"/>
<path d="M597.521 429H577.521V434H597.521V429Z" fill="#D1DADE"/>
<path d="M597.521 459H567.521V464H597.521V459Z" fill="#D1DADE"/>
<path d="M597.521 479H577.521V484H597.521V479Z" fill="#D1DADE"/>
<path d="M597.521 469H577.521V474H597.521V469Z" fill="#D1DADE"/>
<path d="M509.521 459H479.521V464H509.521V459Z" fill="#D1DADE"/>
<path d="M519.521 479H479.521V484H519.521V479Z" fill="#D1DADE"/>
<path d="M509.521 469H479.521V474H509.521V469Z" fill="#D1DADE"/>
<path d="M683.521 392H423.521V413H683.521V392Z" fill="#F7F7F7"/>
<path d="M459.521 400H429.521V405H459.521V400Z" fill="#D1DADE"/>
<path d="M509.521 400H479.521V405H509.521V400Z" fill="#D1DADE"/>
<path d="M597.521 400H567.521V405H597.521V400Z" fill="#D1DADE"/>
<path d="M637.521 400H607.521V405H637.521V400Z" fill="#D1DADE"/>
<path d="M677.521 400H647.521V405H677.521V400Z" fill="#D1DADE"/>
<path d="M37 186.025C37 178.832 42.83 173 50.0216 173H385.978C393.17 173 399 178.832 399 186.025V298.72C399 305.913 393.17 311.745 385.978 311.745H50.0216C42.83 311.745 37 305.913 37 298.72V186.025Z" fill="white"/>
<path d="M259 235H101V240H259V235Z" fill="#CCD6DB"/>
<path d="M259 243H101V248H259V243Z" fill="#CCD6DB"/>
<text fill="black" style="white-space: pre" xml:space="preserve" font-family="Sage UI" font-size="12" font-weight="bold" letter-spacing="0em"><tspan x="54.6602" y="197.933">Collaborative Compliance Decisions</tspan></text>
<path fill-rule="evenodd" clip-rule="evenodd" d="M381.97 209.494H54.3809V208.625H381.97V209.494Z" fill="#CCD6DB"/>
<path d="M54.377 224.77H86.5276V256.92H54.377V224.77Z" fill="#F7F7F7"/>
<path d="M58.7556 241.243C58.7556 238.449 58.7556 235.655 58.7556 232.828C58.7886 230.757 60.404 229.146 62.3821 229.179C62.9425 229.179 63.3381 229.376 63.4041 230.001C63.47 230.625 63.1074 230.954 62.5139 231.053C61.1952 231.25 60.6348 231.875 60.6348 233.189C60.6348 238.581 60.6348 243.972 60.6348 249.363C60.6348 250.842 61.3271 251.5 62.8107 251.5C64.2942 251.5 64.2942 251.5 64.7887 250.152C65.2173 248.968 65.9426 248.015 66.9646 247.259C67.3602 246.963 67.3932 246.799 66.9646 246.503C64.7887 244.826 63.9316 242.591 64.525 239.928C65.0854 237.233 66.8657 235.589 69.5361 234.899C71.8768 234.307 74.6131 235.326 76.0967 237.299C77.6791 239.37 77.9099 242.295 76.6901 244.366C76.3604 244.925 75.8989 245.155 75.3384 244.859C74.679 244.498 74.8109 243.939 75.0747 243.38C76.3604 240.487 75.0087 237.594 71.9757 236.74C69.7339 236.115 67.1624 237.594 66.4371 239.928C65.7448 242.197 67.0305 244.761 69.1734 245.583C70.1625 245.944 71.2174 245.813 72.2394 246.043C74.6461 246.602 76.2615 248.015 77.1187 250.316C77.5802 251.5 77.6132 251.565 79.3275 251.467C80.2836 251.434 80.9429 250.908 81.1407 249.987C81.2067 249.659 81.2067 249.297 81.2067 248.936C81.2067 243.742 81.2067 238.515 81.2067 233.321C81.2067 231.71 80.4814 230.987 78.8659 230.987C74.8439 230.987 70.8218 230.987 66.8327 230.987C66.6019 230.987 66.4041 230.987 66.1734 230.987C65.6789 230.921 65.3821 230.625 65.3492 230.132C65.3162 229.639 65.547 229.278 66.0415 229.179C66.2393 229.146 66.4371 229.113 66.6679 229.113C70.7559 229.113 74.8769 229.113 78.9649 229.113C81.0748 229.113 82.4594 230.165 82.9539 231.973C83.0529 232.302 83.0529 232.664 83.0529 233.025C83.0529 238.515 83.0529 243.972 83.0529 249.461C83.0529 251.861 81.5034 253.373 79.0967 253.406C78.8659 253.406 78.6681 253.406 78.4374 253.406C76.8219 253.406 75.8989 252.716 75.3714 251.204C74.679 249.067 72.9977 247.851 70.8548 247.851C68.7119 247.851 67.0305 249.1 66.3712 251.237C65.9096 252.716 64.9536 253.373 63.4041 253.439C62.0854 253.472 60.8326 253.34 59.8436 252.354C59.1183 251.631 58.7227 250.744 58.7227 249.724C58.7556 246.865 58.7556 244.07 58.7556 241.243Z" fill="#CCD6DB"/>
<text fill="black" style="white-space: pre" xml:space="preserve" font-family="Sage UI" font-size="8.02661" font-weight="bold" letter-spacing="0em"><tspan x="100.41" y="226.934">Karla Grace</tspan></text>
<text fill="#606060" style="white-space: pre" xml:space="preserve" font-family="Sage UI" font-size="7.22395" letter-spacing="0em"><tspan x="100.41" y="259.87">Comment   Like   </tspan></text>
<text fill="black" style="white-space: pre" xml:space="preserve" font-family="Sage UI" font-size="8.02661" font-weight="bold" letter-spacing="0em"><tspan x="145.357" y="277.559">Bill Sooner</tspan></text>
<path d="M99.5625 269.418H131.713V301.569H99.5625V269.418Z" fill="#F7F7F7"/>
<path d="M103.941 285.892C103.941 283.098 103.941 280.303 103.941 277.476C103.974 275.405 105.59 273.795 107.568 273.827C108.128 273.827 108.524 274.025 108.59 274.649C108.656 275.274 108.293 275.603 107.699 275.701C106.381 275.898 105.82 276.523 105.82 277.838C105.82 283.229 105.82 288.62 105.82 294.011C105.82 295.491 106.513 296.148 107.996 296.148C109.48 296.148 109.48 296.148 109.974 294.8C110.403 293.617 111.128 292.664 112.15 291.907C112.546 291.612 112.579 291.447 112.15 291.151C109.974 289.475 109.117 287.24 109.711 284.577C110.271 281.881 112.051 280.238 114.722 279.547C117.062 278.956 119.799 279.975 121.282 281.947C122.865 284.018 123.095 286.944 121.876 289.015C121.546 289.573 121.084 289.804 120.524 289.508C119.865 289.146 119.996 288.587 120.26 288.028C121.546 285.136 120.194 282.243 117.161 281.388C114.919 280.764 112.348 282.243 111.623 284.577C110.93 286.845 112.216 289.409 114.359 290.231C115.348 290.593 116.403 290.461 117.425 290.691C119.832 291.25 121.447 292.664 122.304 294.965C122.766 296.148 122.799 296.214 124.513 296.115C125.469 296.082 126.128 295.556 126.326 294.636C126.392 294.307 126.392 293.946 126.392 293.584C126.392 288.39 126.392 283.163 126.392 277.969C126.392 276.359 125.667 275.635 124.051 275.635C120.029 275.635 116.007 275.635 112.018 275.635C111.787 275.635 111.59 275.635 111.359 275.635C110.864 275.57 110.568 275.274 110.535 274.781C110.502 274.288 110.733 273.926 111.227 273.827C111.425 273.795 111.623 273.762 111.853 273.762C115.941 273.762 120.062 273.762 124.15 273.762C126.26 273.762 127.645 274.814 128.139 276.622C128.238 276.95 128.238 277.312 128.238 277.674C128.238 283.163 128.238 288.62 128.238 294.11C128.238 296.51 126.689 298.022 124.282 298.055C124.051 298.055 123.854 298.055 123.623 298.055C122.007 298.055 121.084 297.364 120.557 295.852C119.865 293.715 118.183 292.499 116.04 292.499C113.897 292.499 112.216 293.748 111.557 295.885C111.095 297.364 110.139 298.022 108.59 298.088C107.271 298.12 106.018 297.989 105.029 297.003C104.304 296.28 103.908 295.392 103.908 294.373C103.941 291.513 103.941 288.719 103.941 285.892Z" fill="#CCD6DB"/>
<text fill="black" style="white-space: pre" xml:space="preserve" font-family="Sage UI" font-size="7.22395" letter-spacing="0em"><tspan x="145.357" y="292.796">We&#x2019;ve identified two vacant properties in that area. We </tspan></text>
<text fill="black" style="white-space: pre" xml:space="preserve" font-family="Sage UI" font-size="7.22395" letter-spacing="0em"><tspan x="145.357" y="301.796">could begin talks with property owners this week.</tspan></text>
<path fill-rule="evenodd" clip-rule="evenodd" d="M328.093 310.782H99.5625V310.469H328.093V310.782Z" fill="#D1DADE"/>
<path d="M291.045 224.832C291.045 222.163 293.557 220 296.657 220H373.726C376.825 220 379.338 222.163 379.338 224.832V256.906C379.338 259.575 376.825 261.738 373.726 261.738H296.657C293.557 261.738 291.045 259.575 291.045 256.906V224.832Z" fill="white"/>
<path fill-rule="evenodd" clip-rule="evenodd" d="M373.726 220.322H296.657C293.764 220.322 291.419 222.341 291.419 224.832V256.906C291.419 259.397 293.764 261.416 296.657 261.416H373.726C376.618 261.416 378.963 259.397 378.963 256.906V224.832C378.963 222.341 376.618 220.322 373.726 220.322ZM296.657 220C293.557 220 291.045 222.163 291.045 224.832V256.906C291.045 259.575 293.557 261.738 296.657 261.738H373.726C376.825 261.738 379.338 259.575 379.338 256.906V224.832C379.338 222.163 376.825 220 373.726 220H296.657Z" fill="#D1DADE"/>
<path d="M355.258 224.012H297.467V227.222H355.258V224.012Z" fill="#CCD6DB"/>
<path d="M296.662 236.854V232.039H373.718V236.854H296.662Z" fill="#F7F7F7"/>
<path d="M296.662 244.078V239.262H373.718V244.078H296.662Z" fill="#F7F7F7"/>
<path d="M296.662 250.5V245.684H373.718V250.5H296.662Z" fill="#F7F7F7"/>
<path d="M296.662 250.5L307.507 246.462H312.644H319.493L328.626 243.577L342.325 240.693H349.745L357.165 237.808H363.443L373.718 232.039" stroke="#CBD95D" stroke-width="0.802661"/>
<path fill-rule="evenodd" clip-rule="evenodd" d="M379.631 230.421H291V230.285H379.631V230.421Z" fill="#D1DADE"/>
<path d="M302.943 253.363H296.559V255.279H302.943V253.363Z" fill="#D1DADE"/>
<path d="M316.693 253.711H310.309V255.627H316.693V253.711Z" fill="#D1DADE"/>
<path d="M330.336 253.711H323.951V255.627H330.336V253.711Z" fill="#D1DADE"/>
<path d="M357.627 253.711H351.242V255.627H357.627V253.711Z" fill="#D1DADE"/>
<path d="M343.984 253.711H337.6V255.627H343.984V253.711Z" fill="#D1DADE"/>
<path d="M371.273 253.711H364.889V255.627H371.273V253.711Z" fill="#D1DADE"/>
<path d="M30 32.4766H705.523V81.1922H30V32.4766Z" fill="white"/>
<path fill-rule="evenodd" clip-rule="evenodd" d="M704.44 33.5591H31.0826V80.1096H704.44V33.5591ZM30 32.4766V81.1922H705.523V32.4766H30Z" fill="#E6EBED"/>
<path d="M30 21.6514C30 9.69365 39.6937 0 51.6514 0H683.872C695.829 0 705.523 9.69365 705.523 21.6514V32.4771H30V21.6514Z" fill="#333333"/>
<path d="M367.124 44.3984H296.924V69.5984H367.124V44.3984Z" fill="#F6F6F6"/>
<text fill="black" style="white-space: pre" xml:space="preserve" font-family="Sage UI" font-size="12" letter-spacing="0em"><tspan x="311.785" y="61.2885">CFO</tspan></text>
<path d="M343.523 57.5L346.698 60.2211C346.885 60.3816 347.162 60.3816 347.349 60.2211L350.523 57.5" stroke="black" stroke-width="1.2" stroke-linecap="round"/>
<path d="M367.124 44.3984H296.924V69.5984H367.124V44.3984Z" stroke="#CCD6DB" stroke-width="0.8"/>
<path d="M614.187 43.7031H527.299V66.7196H614.187V43.7031Z" fill="#F7F7F7"/>
<path d="M576.898 51.7148H536.898V58.7148H576.898V51.7148Z" fill="#CCD6DB"/>
<path d="M596.596 53.707V59.4757H588.195V53.707H596.596ZM597.893 52.4689H586.898V60.7139H597.893V52.4689Z" fill="black"/>
<path d="M597.898 51.0625H586.898V53.0354H597.898V51.0625Z" fill="black"/>
<path d="M590.915 49.9766H588.207V52.4755H590.915V49.9766Z" fill="white"/>
<path d="M590.285 49.7148H588.852V51.8795H590.285V49.7148Z" fill="black"/>
<path d="M596.585 49.9766H593.877V52.4756H596.585V49.9766Z" fill="white"/>
<path d="M595.948 49.7148H594.515V51.8796H595.948V49.7148Z" fill="black"/>
<path d="M591.056 54.5781H589.623V56.2332H591.056V54.5781Z" fill="black"/>
<path d="M593.113 54.5781H591.68V56.2332H593.113V54.5781Z" fill="black"/>
<path d="M593.113 56.9531H591.68V58.6082H593.113V56.9531Z" fill="black"/>
<path d="M595.174 54.5781H593.74V56.2332H595.174V54.5781Z" fill="black"/>
<path d="M591.056 56.9531H589.623V58.6082H591.056V56.9531Z" fill="black"/>
<path d="M595.172 56.9531H593.738V58.6082H595.172V56.9531Z" fill="black"/>
<path d="M614.187 43.7031H527.299V66.7196H614.187V43.7031Z" stroke="#CCD6DB" stroke-width="0.8"/>
<path d="M679.541 51.9648H636.238V57.3777H679.541V51.9648Z" fill="#D1DADE"/>
<text fill="black" style="white-space: pre" xml:space="preserve" font-family="Sage UI" font-size="20" font-weight="bold" letter-spacing="0em"><tspan x="65.5234" y="62.4783">Role Based Dashboard</tspan></text>
<path d="M59.2303 54.6718C59.2303 56.7644 57.5339 58.4608 55.4413 58.4608C53.3487 58.4608 51.6523 56.7644 51.6523 54.6718C51.6523 52.5792 53.3487 50.8828 55.4413 50.8828C57.5339 50.8828 59.2303 52.5792 59.2303 54.6718Z" fill="#00D639"/>
<path d="M36.5234 101C36.5234 92.7157 43.2392 86 51.5234 86H683.523C691.808 86 698.523 92.7157 698.523 101V152.703C698.523 160.987 691.808 167.703 683.523 167.703H51.5234C43.2392 167.703 36.5234 160.987 36.5234 152.703V101Z" fill="white"/>
<path d="M179.711 86V158" stroke="#E6EBED"/>
<path d="M301.047 86V158" stroke="#E6EBED"/>
<path d="M438.883 86V158" stroke="#E6EBED"/>
<path d="M576.719 86V158" stroke="#E6EBED"/>
<text fill="black" style="white-space: pre" xml:space="preserve" font-family="Sage UI" font-size="12" letter-spacing="0em"><tspan x="55.9375" y="110.89">Fundraising Expenses</tspan></text>
<text fill="black" style="white-space: pre" xml:space="preserve" font-family="Sage UI" font-size="18" font-weight="bold" letter-spacing="0em"><tspan x="55.9375" y="139.532">5%</tspan></text>
<path d="M112.938 141.602H95.9375V123.602H112.938V141.602Z" fill="white"/>
<path d="M104.402 136.008L104.402 126.198" stroke="#00D639" stroke-width="2.93" stroke-linecap="round"/>
<path d="M109.938 134.094L104.944 138.913C104.662 139.186 104.213 139.186 103.931 138.913L98.9375 134.094" stroke="#00D639" stroke-width="2.93342" stroke-linecap="round"/>
<path d="M95.9375 151.602H55.9375V156.602H95.9375V151.602Z" fill="#CCD6DB"/>
<text fill="black" style="white-space: pre" xml:space="preserve" font-family="Sage UI" font-size="12" letter-spacing="0em"><tspan x="190.859" y="110.89">Program Efficiency</tspan></text>
<text fill="black" style="white-space: pre" xml:space="preserve" font-family="Sage UI" font-size="18" font-weight="bold" letter-spacing="0em"><tspan x="190.859" y="139.532">72%</tspan></text>
<path d="M258.859 123.602H241.859V141.602H258.859V123.602Z" fill="white"/>
<path d="M250.324 129.195V139.005" stroke="#00D639" stroke-width="2.93" stroke-linecap="round"/>
<path d="M255.859 131.11L250.866 126.291C250.583 126.018 250.135 126.018 249.852 126.291L244.859 131.11" stroke="#00D639" stroke-width="2.93342" stroke-linecap="round"/>
<path d="M230.859 151.602H190.859V156.602H230.859V151.602Z" fill="#CCD6DB"/>
<text fill="black" style="white-space: pre" xml:space="preserve" font-family="Sage UI" font-size="12" letter-spacing="0em"><tspan x="312.195" y="110.89">Administrive Expenses</tspan></text>
<text fill="black" style="white-space: pre" xml:space="preserve" font-family="Sage UI" font-size="18" font-weight="bold" letter-spacing="0em"><tspan x="312.195" y="139.532">22%</tspan></text>
<path d="M380.195 141.602H363.195V123.602H380.195V141.602Z" fill="white"/>
<path d="M371.66 136.008L371.66 126.198" stroke="#00D639" stroke-width="2.93" stroke-linecap="round"/>
<path d="M377.195 134.094L372.202 138.913C371.919 139.186 371.471 139.186 371.188 138.913L366.195 134.094" stroke="#00D639" stroke-width="2.93342" stroke-linecap="round"/>
<path d="M352.195 151.602H312.195V156.602H352.195V151.602Z" fill="#CCD6DB"/>
<text fill="black" style="white-space: pre" xml:space="preserve" font-family="Sage UI" font-size="12" letter-spacing="0em"><tspan x="450.031" y="110.89">Fundraising Efficiency</tspan></text>
<text fill="black" style="white-space: pre" xml:space="preserve" font-family="Sage UI" font-size="18" font-weight="bold" letter-spacing="0em"><tspan x="450.031" y="139.532">$0.18</tspan></text>
<path d="M530.031 123.602H513.031V141.602H530.031V123.602Z" fill="white"/>
<path d="M527.031 133.77L522.05 138.751C521.763 139.037 521.299 139.037 521.013 138.751L516.031 133.77" stroke="#00D639" stroke-width="2.93342" stroke-linecap="round"/>
<path d="M521.531 136.337V126.07" stroke="#00D639" stroke-width="2.93342" stroke-linecap="round"/>
<path d="M490.031 151.602H450.031V156.602H490.031V151.602Z" fill="#CCD6DB"/>
<text fill="black" style="white-space: pre" xml:space="preserve" font-family="Sage UI" font-size="12" letter-spacing="0em"><tspan x="587.867" y="110.89">Average Donation</tspan></text>
<text fill="black" style="white-space: pre" xml:space="preserve" font-family="Sage UI" font-size="18" font-weight="bold" letter-spacing="0em"><tspan x="587.867" y="139.532">$194</tspan></text>
<path fill-rule="evenodd" clip-rule="evenodd" d="M666.401 132.602C666.401 137.867 662.132 142.135 656.867 142.135C651.602 142.135 647.334 137.867 647.334 132.602C647.334 127.336 651.602 123.068 656.867 123.068C662.132 123.068 666.401 127.336 666.401 132.602ZM667.867 132.602C667.867 138.677 662.942 143.602 656.867 143.602C650.792 143.602 645.867 138.677 645.867 132.602C645.867 126.526 650.792 121.602 656.867 121.602C662.942 121.602 667.867 126.526 667.867 132.602ZM654.3 135.535C654.3 135.13 653.971 134.802 653.566 134.802C653.161 134.802 652.833 135.13 652.833 135.535C652.833 137.484 654.696 138.835 656.683 138.835C658.67 138.835 660.533 137.484 660.533 135.535C660.533 135.13 660.205 134.802 659.8 134.802C659.395 134.802 659.066 135.13 659.066 135.535C659.066 136.421 658.139 137.368 656.683 137.368C655.227 137.368 654.3 136.421 654.3 135.535ZM655.033 130.401C655.033 131.211 654.376 131.868 653.566 131.868C652.756 131.868 652.1 131.211 652.1 130.401C652.1 129.591 652.756 128.935 653.566 128.935C654.376 128.935 655.033 129.591 655.033 130.401ZM660.168 131.868C660.978 131.868 661.635 131.211 661.635 130.401C661.635 129.591 660.978 128.935 660.168 128.935C659.358 128.935 658.701 129.591 658.701 130.401C658.701 131.211 659.358 131.868 660.168 131.868Z" fill="#00D639"/>
<path d="M656.867 142.385C662.27 142.385 666.651 138.005 666.651 132.602H666.151C666.151 137.729 661.994 141.885 656.867 141.885V142.385ZM647.084 132.602C647.084 138.005 651.464 142.385 656.867 142.385V141.885C651.74 141.885 647.584 137.729 647.584 132.602H647.084ZM656.867 122.818C651.464 122.818 647.084 127.198 647.084 132.602H647.584C647.584 127.475 651.74 123.318 656.867 123.318V122.818ZM666.651 132.602C666.651 127.198 662.27 122.818 656.867 122.818V123.318C661.994 123.318 666.151 127.475 666.151 132.602H666.651ZM656.867 143.852C663.08 143.852 668.117 138.815 668.117 132.602H667.617C667.617 138.539 662.804 143.352 656.867 143.352V143.852ZM645.617 132.602C645.617 138.815 650.654 143.852 656.867 143.852V143.352C650.93 143.352 646.117 138.539 646.117 132.602H645.617ZM656.867 121.352C650.654 121.352 645.617 126.388 645.617 132.602H646.117C646.117 126.665 650.93 121.852 656.867 121.852V121.352ZM668.117 132.602C668.117 126.388 663.08 121.352 656.867 121.352V121.852C662.804 121.852 667.617 126.665 667.617 132.602H668.117ZM653.566 135.052C653.833 135.052 654.05 135.268 654.05 135.535H654.55C654.55 134.992 654.109 134.552 653.566 134.552V135.052ZM653.083 135.535C653.083 135.268 653.299 135.052 653.566 135.052V134.552C653.023 134.552 652.583 134.992 652.583 135.535H653.083ZM656.683 138.585C654.784 138.585 653.083 137.301 653.083 135.535H652.583C652.583 137.668 654.609 139.085 656.683 139.085V138.585ZM660.283 135.535C660.283 137.301 658.582 138.585 656.683 138.585V139.085C658.757 139.085 660.783 137.668 660.783 135.535H660.283ZM659.8 135.052C660.067 135.052 660.283 135.268 660.283 135.535H660.783C660.783 134.992 660.343 134.552 659.8 134.552V135.052ZM659.316 135.535C659.316 135.268 659.533 135.052 659.8 135.052V134.552C659.257 134.552 658.816 134.992 658.816 135.535H659.316ZM656.683 137.618C658.234 137.618 659.316 136.598 659.316 135.535H658.816C658.816 136.244 658.044 137.118 656.683 137.118V137.618ZM654.05 135.535C654.05 136.598 655.132 137.618 656.683 137.618V137.118C655.323 137.118 654.55 136.244 654.55 135.535H654.05ZM653.566 132.118C654.514 132.118 655.283 131.349 655.283 130.401H654.783C654.783 131.073 654.238 131.618 653.566 131.618V132.118ZM651.85 130.401C651.85 131.349 652.618 132.118 653.566 132.118V131.618C652.894 131.618 652.35 131.073 652.35 130.401H651.85ZM653.566 128.685C652.618 128.685 651.85 129.453 651.85 130.401H652.35C652.35 129.729 652.894 129.185 653.566 129.185V128.685ZM655.283 130.401C655.283 129.453 654.514 128.685 653.566 128.685V129.185C654.238 129.185 654.783 129.729 654.783 130.401H655.283ZM661.385 130.401C661.385 131.073 660.84 131.618 660.168 131.618V132.118C661.116 132.118 661.885 131.349 661.885 130.401H661.385ZM660.168 129.185C660.84 129.185 661.385 129.729 661.385 130.401H661.885C661.885 129.453 661.116 128.685 660.168 128.685V129.185ZM658.951 130.401C658.951 129.729 659.496 129.185 660.168 129.185V128.685C659.22 128.685 658.451 129.453 658.451 130.401H658.951ZM660.168 131.618C659.496 131.618 658.951 131.073 658.951 130.401H658.451C658.451 131.349 659.22 132.118 660.168 132.118V131.618Z" fill="#00D639"/>
<path d="M627.867 151.602H587.867V156.602H627.867V151.602Z" fill="#CCD6DB"/>
<path d="M3 297.861C3 280.817 13.7638 267 27.0417 267H374.845C388.122 267 398.886 280.817 398.886 297.861V487.139C398.886 504.183 388.122 518 374.845 518H27.0417C13.7638 518 3 504.183 3 487.139V297.861Z" fill="white"/>
<text fill="black" style="white-space: pre" xml:space="preserve" font-family="Helvetica-Neue" font-size="14" letter-spacing="0em"><tspan x="42" y="372.084">Safe Communities</tspan></text>
<text fill="black" style="white-space: pre" xml:space="preserve" font-family="Helvetica-Neue" font-size="14" letter-spacing="0em"><tspan x="204" y="361.084">Management &#38; General</tspan></text>
<text fill="black" style="white-space: pre" xml:space="preserve" font-family="Helvetica-Neue" font-size="14" letter-spacing="0em"><tspan x="289" y="390.084">Fundraising</tspan></text>
<text fill="black" style="white-space: pre" xml:space="preserve" font-family="Helvetica-Neue" font-size="14" letter-spacing="0em"><tspan x="289" y="492.084">Task Forces</tspan></text>
<text fill="black" style="white-space: pre" xml:space="preserve" font-family="Helvetica-Neue" font-size="14" letter-spacing="0em"><tspan x="49" y="403.084">Services</tspan></text>
<text fill="black" style="white-space: pre" xml:space="preserve" font-family="Helvetica-Neue" font-size="14" letter-spacing="0em"><tspan x="32" y="492.084">Special Projects</tspan></text>
<text fill="black" style="white-space: pre" xml:space="preserve" font-family="Sage UI" font-size="24" font-weight="bold" letter-spacing="0em"><tspan x="35.6484" y="315.065">Revenue by Payor Mix</tspan></text>
<path fill-rule="evenodd" clip-rule="evenodd" d="M366.234 334.341H35.6484V332.301H366.234V334.341Z" fill="#CCD6DB"/>
<path opacity="0.4" fill-rule="evenodd" clip-rule="evenodd" d="M160.948 481.13C161.017 481.304 161.017 481.585 160.948 481.759L158.066 489H138.177C138.079 489 138 488.801 138 488.556C138 488.31 138.079 488.111 138.177 488.111H157.919L160.698 481.13C160.767 480.957 160.879 480.957 160.948 481.13Z" fill="#668494"/>
<path opacity="0.4" fill-rule="evenodd" clip-rule="evenodd" d="M233.58 482.199C233.439 482.376 233.439 482.663 233.58 482.841L239.462 490.229H280.048C280.248 490.229 280.409 490.026 280.409 489.776C280.409 489.525 280.248 489.322 280.048 489.322H239.761L234.091 482.199C233.95 482.022 233.721 482.022 233.58 482.199Z" fill="#668494"/>
<path opacity="0.4" fill-rule="evenodd" clip-rule="evenodd" d="M246.103 388.031H284.077C284.215 388.031 284.326 388.214 284.326 388.439C284.326 388.665 284.215 388.848 284.077 388.848H246.31L241.898 396.074C241.801 396.234 241.643 396.234 241.546 396.074C241.448 395.915 241.448 395.657 241.546 395.497L246.103 388.031Z" fill="#668494"/>
<path opacity="0.4" fill-rule="evenodd" clip-rule="evenodd" d="M196 360.729V374.907C196 374.958 196.09 375 196.2 375C196.31 375 196.4 374.958 196.4 374.907V360.806L199.941 359.159C200.02 359.122 200.02 359.064 199.941 359.027C199.863 358.991 199.737 358.991 199.659 359.027L196 360.729Z" fill="#668494"/>
<path opacity="0.4" fill-rule="evenodd" clip-rule="evenodd" d="M177.839 368H160.116C160.052 368 160 368.179 160 368.4C160 368.621 160.052 368.8 160.116 368.8H177.743L182.801 377.883C182.847 378.039 182.921 378.039 182.966 377.883C183.011 377.727 183.011 377.473 182.966 377.317L177.839 368Z" fill="#668494"/>
<path opacity="0.4" fill-rule="evenodd" clip-rule="evenodd" d="M130.819 400H106.162C106.072 400 106 400.179 106 400.4C106 400.621 106.072 400.8 106.162 400.8H130.685L137.724 409.883C137.787 410.039 137.889 410.039 137.953 409.883C138.016 409.727 138.016 409.473 137.953 409.317L130.819 400Z" fill="#668494"/>
<path d="M196 476C220.301 476 240 456.301 240 432C240 407.699 220.301 388 196 388C171.699 388 152 407.699 152 432C152 456.301 171.699 476 196 476Z" stroke="#CD384B" stroke-width="18"/>
<path d="M196 476C176.314 476 159.645 462.974 154 445" stroke="#2982A6" stroke-width="18"/>
<path d="M193.979 475.928C218.253 477.058 238.847 458.296 239.976 434.021C241.106 409.747 222.344 389.153 198.069 388.023" stroke="#00B866" stroke-width="18"/>
<path d="M240 432C240 407.699 220.301 388 196 388" stroke="#6FF3A3" stroke-width="18"/>
<path d="M196 388C189.392 388 183.124 389.457 177.5 392.067" stroke="#FFB500" stroke-width="18"/>
</svg>
