<svg width="608" height="37" viewBox="0 0 608 37" fill="none" xmlns="http://www.w3.org/2000/svg">
<path d="M-0.000234321 14.3203C-0.000234321 13.1736 0.0797657 12.0936 0.239766 11.0803C0.426432 10.067 0.679766 9.12031 0.999766 8.24031C1.31977 7.33365 1.70643 6.50698 2.15977 5.76031C2.63977 5.01365 3.1731 4.33365 3.75977 3.72031C4.34643 3.10698 4.98643 2.57365 5.67977 2.12031C6.39977 1.64031 7.15977 1.25364 7.95977 0.960312C8.75977 0.640311 9.59977 0.400311 10.4798 0.240312C11.3598 0.0803121 12.2798 0.000312328 13.2398 0.000312328C14.0931 0.000312328 14.9064 0.0669789 15.6798 0.200312C16.4798 0.306977 17.2398 0.493644 17.9598 0.760312C18.6798 1.00031 19.3598 1.30698 19.9998 1.68031C20.6664 2.05365 21.2798 2.48031 21.8398 2.96031C22.4264 3.44031 22.9464 3.98698 23.3998 4.60031C23.8798 5.18698 24.3064 5.84031 24.6798 6.56031C25.0531 7.25365 25.3731 8.01365 25.6398 8.84031C25.9064 9.64031 26.1064 10.507 26.2398 11.4403C26.3731 12.347 26.4398 13.307 26.4398 14.3203C26.4398 15.3336 26.3731 16.307 26.2398 17.2403C26.1064 18.147 25.9064 19.0136 25.6398 19.8403C25.3731 20.6403 25.0531 21.4003 24.6798 22.1203C24.3064 22.8136 23.8798 23.467 23.3998 24.0803C22.9464 24.667 22.4264 25.2003 21.8398 25.6803C21.2798 26.1603 20.6664 26.587 19.9998 26.9603C19.3598 27.3336 18.6798 27.6536 17.9598 27.9203C17.2398 28.1603 16.4798 28.3336 15.6798 28.4403C14.9064 28.5736 14.0931 28.6403 13.2398 28.6403C12.2798 28.6403 11.3598 28.5603 10.4798 28.4003C9.59977 28.2403 8.75977 28.0136 7.95977 27.7203C7.15977 27.4003 6.39977 27.0136 5.67977 26.5603C4.98643 26.0803 4.34643 25.5336 3.75977 24.9203C3.1731 24.307 2.63977 23.627 2.15977 22.8803C1.70643 22.1336 1.31977 21.3203 0.999766 20.4403C0.679766 19.5336 0.426432 18.5736 0.239766 17.5603C0.0797657 16.547 -0.000234321 15.467 -0.000234321 14.3203ZM18.0398 14.3203C18.0398 11.8936 17.5731 10.107 16.6398 8.96031C15.7331 7.78698 14.5998 7.20031 13.2398 7.20031C11.8798 7.20031 10.7331 7.78698 9.79977 8.96031C8.86643 10.107 8.39977 11.8936 8.39977 14.3203C8.39977 16.747 8.86643 18.547 9.79977 19.7203C10.7331 20.867 11.8798 21.4403 13.2398 21.4403C14.5998 21.4403 15.7331 20.867 16.6398 19.7203C17.5731 18.547 18.0398 16.747 18.0398 14.3203ZM42.346 19.7203V7.72031C42.346 7.48031 42.3993 7.29364 42.506 7.16031C42.6393 7.00031 42.8527 6.92031 43.146 6.92031H49.546C49.866 6.92031 50.0793 7.00031 50.186 7.16031C50.3193 7.32031 50.386 7.50698 50.386 7.72031V27.5203C50.386 27.7336 50.3193 27.9203 50.186 28.0803C50.0793 28.2403 49.866 28.3203 49.546 28.3203H43.146C42.8527 28.3203 42.6393 28.2403 42.506 28.0803C42.3993 27.9203 42.346 27.7336 42.346 27.5203V25.2403C41.7327 26.3336 40.8927 27.1736 39.826 27.7603C38.7593 28.347 37.6127 28.6403 36.386 28.6403C34.3593 28.6403 32.7193 28.0136 31.466 26.7603C30.2393 25.4803 29.626 23.6403 29.626 21.2403V7.72031C29.626 7.48031 29.6793 7.29364 29.786 7.16031C29.9193 7.00031 30.1327 6.92031 30.426 6.92031H36.866C37.1593 6.92031 37.3593 7.00031 37.466 7.16031C37.5993 7.32031 37.666 7.50698 37.666 7.72031V19.7203C37.666 20.6536 37.8793 21.3603 38.306 21.8403C38.7327 22.2936 39.266 22.5203 39.906 22.5203C40.626 22.5203 41.2127 22.2936 41.666 21.8403C42.1193 21.3603 42.346 20.6536 42.346 19.7203ZM54.9173 28.3203C54.6239 28.3203 54.4106 28.2403 54.2773 28.0803C54.1706 27.9203 54.1173 27.7336 54.1173 27.5203V7.72031C54.1173 7.50698 54.1706 7.32031 54.2773 7.16031C54.4106 7.00031 54.6239 6.92031 54.9173 6.92031H61.3573C61.6239 6.92031 61.8239 7.00031 61.9573 7.16031C62.0906 7.29364 62.1573 7.48031 62.1573 7.72031V11.8003C62.8239 9.90698 63.8239 8.54698 65.1573 7.72031C66.4906 6.89365 67.8373 6.48031 69.1973 6.48031H69.4773C69.7973 6.48031 70.0239 6.53364 70.1573 6.64031C70.2906 6.74698 70.3573 6.92031 70.3573 7.16031V12.8803C70.3573 13.2003 70.2906 13.4136 70.1573 13.5203C70.0239 13.627 69.8639 13.667 69.6773 13.6403C69.3306 13.6136 68.9706 13.587 68.5973 13.5603C68.2506 13.5336 67.9439 13.5203 67.6773 13.5203C66.1306 13.5203 64.8239 14.1203 63.7573 15.3203C62.6906 16.4936 62.1573 17.9203 62.1573 19.6003V27.5203C62.1573 27.7603 62.0906 27.9603 61.9573 28.1203C61.8239 28.2536 61.6239 28.3203 61.3573 28.3203H54.9173ZM88.3076 17.6403C88.3076 19.2403 88.5742 20.4403 89.1076 21.2403C89.6676 22.0403 90.3876 22.4403 91.2676 22.4403C91.9876 22.4403 92.5742 22.2003 93.0276 21.7203C93.5076 21.2136 93.8809 20.467 94.1476 19.4803C94.1742 19.3736 94.2542 19.2803 94.3876 19.2003C94.5476 19.0936 94.7342 19.0536 94.9476 19.0803L100.868 19.8403C101.028 19.867 101.161 19.9603 101.268 20.1203C101.401 20.2536 101.454 20.427 101.428 20.6403C101.374 21.067 101.281 21.507 101.148 21.9603C101.014 22.387 100.841 22.8136 100.628 23.2403C100.441 23.6403 100.201 24.0403 99.9076 24.4403C99.6409 24.8403 99.3342 25.227 98.9876 25.6003C98.6676 25.947 98.2942 26.2803 97.8676 26.6003C97.4676 26.8936 97.0142 27.1736 96.5076 27.4403C96.0276 27.6803 95.5076 27.8936 94.9476 28.0803C94.4142 28.267 93.8276 28.4003 93.1876 28.4803C92.5476 28.587 91.8809 28.6403 91.1876 28.6403C90.4142 28.6403 89.6542 28.5736 88.9076 28.4403C88.1876 28.3336 87.4942 28.1603 86.8276 27.9203C86.1876 27.6803 85.5742 27.387 84.9876 27.0403C84.4276 26.667 83.8942 26.2536 83.3876 25.8003C82.9076 25.3203 82.4809 24.787 82.1076 24.2003C81.7342 23.6136 81.4142 22.987 81.1476 22.3203C80.8809 21.627 80.6676 20.8936 80.5076 20.1203C80.3742 19.347 80.3076 18.5203 80.3076 17.6403C80.3076 16.7603 80.3742 15.9336 80.5076 15.1603C80.6676 14.3603 80.8809 13.627 81.1476 12.9603C81.4142 12.267 81.7342 11.627 82.1076 11.0403C82.4809 10.4536 82.9076 9.93364 83.3876 9.48031C83.8942 9.00031 84.4276 8.58698 84.9876 8.24031C85.5742 7.86698 86.1876 7.56031 86.8276 7.32031C87.4942 7.05364 88.1876 6.86698 88.9076 6.76031C89.6542 6.62698 90.4142 6.56031 91.1876 6.56031C91.8809 6.56031 92.5476 6.61364 93.1876 6.72031C93.8276 6.80031 94.4142 6.93365 94.9476 7.12031C95.5076 7.30698 96.0276 7.53365 96.5076 7.80031C97.0142 8.04031 97.4676 8.32031 97.8676 8.64031C98.2942 8.96031 98.6676 9.30698 98.9876 9.68031C99.3342 10.027 99.6409 10.4003 99.9076 10.8003C100.201 11.2003 100.441 11.6136 100.628 12.0403C100.841 12.4403 101.014 12.867 101.148 13.3203C101.281 13.747 101.374 14.1736 101.428 14.6003C101.454 14.8136 101.414 15.0003 101.308 15.1603C101.201 15.2936 101.054 15.3736 100.868 15.4003L94.9476 16.1203C94.7342 16.147 94.5476 16.1203 94.3876 16.0403C94.2542 15.9603 94.1742 15.8536 94.1476 15.7203C93.8809 14.7336 93.5076 13.987 93.0276 13.4803C92.5742 12.947 91.9876 12.6803 91.2676 12.6803C90.3876 12.6803 89.6676 13.0936 89.1076 13.9203C88.5742 14.7203 88.3076 15.9603 88.3076 17.6403ZM116.682 19.7203V7.72031C116.682 7.48031 116.735 7.29364 116.842 7.16031C116.975 7.00031 117.189 6.92031 117.482 6.92031H123.882C124.202 6.92031 124.415 7.00031 124.522 7.16031C124.655 7.32031 124.722 7.50698 124.722 7.72031V27.5203C124.722 27.7336 124.655 27.9203 124.522 28.0803C124.415 28.2403 124.202 28.3203 123.882 28.3203H117.482C117.189 28.3203 116.975 28.2403 116.842 28.0803C116.735 27.9203 116.682 27.7336 116.682 27.5203V25.2403C116.069 26.3336 115.229 27.1736 114.162 27.7603C113.095 28.347 111.949 28.6403 110.722 28.6403C108.695 28.6403 107.055 28.0136 105.802 26.7603C104.575 25.4803 103.962 23.6403 103.962 21.2403V7.72031C103.962 7.48031 104.015 7.29364 104.122 7.16031C104.255 7.00031 104.469 6.92031 104.762 6.92031H111.202C111.495 6.92031 111.695 7.00031 111.802 7.16031C111.935 7.32031 112.002 7.50698 112.002 7.72031V19.7203C112.002 20.6536 112.215 21.3603 112.642 21.8403C113.069 22.2936 113.602 22.5203 114.242 22.5203C114.962 22.5203 115.549 22.2936 116.002 21.8403C116.455 21.3603 116.682 20.6536 116.682 19.7203ZM137.213 6.60031C139.053 6.60031 140.813 6.94698 142.493 7.64031C144.173 8.30698 145.467 9.09365 146.373 10.0003C146.533 10.187 146.627 10.387 146.653 10.6003C146.68 10.8136 146.587 11.0003 146.373 11.1603L142.893 14.1603C142.733 14.2936 142.573 14.3603 142.413 14.3603C142.28 14.3336 142.12 14.267 141.933 14.1603C141.107 13.4403 140.293 12.947 139.493 12.6803C138.72 12.387 138.013 12.2403 137.373 12.2403C136.813 12.2403 136.373 12.3336 136.053 12.5203C135.76 12.6803 135.613 12.9336 135.613 13.2803C135.613 13.4403 135.653 13.587 135.733 13.7203C135.813 13.827 135.933 13.9336 136.093 14.0403C136.253 14.147 136.44 14.2403 136.653 14.3203C136.867 14.4003 137.107 14.4803 137.373 14.5603C137.64 14.6136 137.92 14.6803 138.213 14.7603C138.533 14.8136 138.853 14.8803 139.173 14.9603C139.52 15.0136 139.867 15.0803 140.213 15.1603C140.56 15.2403 140.907 15.3203 141.253 15.4003C141.6 15.4803 141.947 15.587 142.293 15.7203C142.64 15.827 142.973 15.9603 143.293 16.1203C143.64 16.2536 143.96 16.4136 144.253 16.6003C144.573 16.787 144.867 17.0003 145.133 17.2403C145.4 17.4536 145.64 17.707 145.853 18.0003C146.067 18.267 146.253 18.5736 146.413 18.9203C146.573 19.267 146.693 19.6403 146.773 20.0403C146.853 20.4403 146.893 20.8803 146.893 21.3603C146.893 23.6003 145.973 25.3736 144.133 26.6803C142.293 27.987 139.827 28.6403 136.733 28.6403C136.12 28.6403 135.52 28.6136 134.933 28.5603C134.373 28.507 133.827 28.427 133.293 28.3203C132.76 28.2136 132.253 28.0936 131.773 27.9603C131.32 27.8003 130.88 27.6403 130.453 27.4803C130.053 27.2936 129.667 27.1203 129.293 26.9603C128.947 26.7736 128.627 26.587 128.333 26.4003C128.04 26.187 127.773 25.987 127.533 25.8003C127.293 25.6136 127.093 25.4403 126.933 25.2803C126.773 25.1203 126.68 24.947 126.653 24.7603C126.653 24.5736 126.747 24.387 126.933 24.2003L130.173 20.9603C130.307 20.8003 130.453 20.7203 130.613 20.7203C130.773 20.6936 130.92 20.747 131.053 20.8803C131.907 21.6803 132.813 22.2803 133.773 22.6803C134.733 23.0536 135.667 23.2403 136.573 23.2403C137.507 23.2403 138.147 23.1336 138.493 22.9203C138.84 22.6803 139.013 22.387 139.013 22.0403C139.013 21.8803 138.973 21.747 138.893 21.6403C138.813 21.5336 138.693 21.4403 138.533 21.3603C138.373 21.2536 138.187 21.1603 137.973 21.0803C137.76 21.0003 137.52 20.9336 137.253 20.8803C136.987 20.827 136.693 20.7736 136.373 20.7203C136.08 20.6403 135.76 20.5736 135.413 20.5203C135.093 20.467 134.76 20.4003 134.413 20.3203C134.067 20.2403 133.72 20.1603 133.373 20.0803C133.027 19.9736 132.68 19.867 132.333 19.7603C131.987 19.627 131.64 19.4936 131.293 19.3603C130.973 19.2003 130.653 19.027 130.333 18.8403C130.04 18.6536 129.76 18.4403 129.493 18.2003C129.227 17.9603 128.987 17.6936 128.773 17.4003C128.56 17.107 128.373 16.787 128.213 16.4403C128.053 16.067 127.933 15.667 127.853 15.2403C127.773 14.8136 127.733 14.347 127.733 13.8403C127.733 11.6536 128.587 9.90698 130.293 8.60031C132 7.26698 134.307 6.60031 137.213 6.60031ZM160.118 28.6403C157.718 28.6403 155.865 28.0536 154.558 26.8803C153.278 25.707 152.638 24.1603 152.638 22.2403V13.0003H148.478C148.292 13.0003 148.145 12.947 148.038 12.8403C147.932 12.7336 147.878 12.587 147.878 12.4003V7.52031C147.878 7.33365 147.932 7.18698 148.038 7.08031C148.145 6.97364 148.292 6.92031 148.478 6.92031H152.638V2.24031C152.638 1.97364 152.705 1.77364 152.838 1.64031C152.998 1.48031 153.212 1.40031 153.478 1.40031H159.838C160.105 1.40031 160.305 1.48031 160.438 1.64031C160.572 1.77364 160.638 1.97364 160.638 2.24031V6.92031H165.318C165.505 6.92031 165.652 6.97364 165.758 7.08031C165.892 7.18698 165.958 7.33365 165.958 7.52031V12.4003C165.958 12.587 165.892 12.7336 165.758 12.8403C165.652 12.947 165.505 13.0003 165.318 13.0003H160.638V20.3203C160.638 20.9603 160.812 21.427 161.158 21.7203C161.532 22.0136 162.078 22.1603 162.798 22.1603C163.065 22.1603 163.398 22.1336 163.798 22.0803C164.198 22.027 164.692 21.9336 165.278 21.8003C165.465 21.747 165.612 21.7736 165.718 21.8803C165.852 21.987 165.918 22.1203 165.918 22.2803V27.1603C165.918 27.2936 165.892 27.4136 165.838 27.5203C165.785 27.627 165.678 27.7203 165.518 27.8003C164.878 28.0936 164.065 28.307 163.078 28.4403C162.118 28.5736 161.132 28.6403 160.118 28.6403ZM167.534 17.6003C167.534 16.7203 167.601 15.8936 167.734 15.1203C167.894 14.347 168.107 13.6136 168.374 12.9203C168.641 12.227 168.961 11.6003 169.334 11.0403C169.734 10.4536 170.187 9.92031 170.694 9.44031C171.201 8.96031 171.747 8.54698 172.334 8.20031C172.921 7.82698 173.547 7.52031 174.214 7.28031C174.907 7.01365 175.627 6.82698 176.374 6.72031C177.121 6.58698 177.894 6.52031 178.694 6.52031C179.494 6.52031 180.267 6.58698 181.014 6.72031C181.787 6.82698 182.507 7.01365 183.174 7.28031C183.867 7.52031 184.507 7.82698 185.094 8.20031C185.681 8.54698 186.227 8.96031 186.734 9.44031C187.241 9.92031 187.694 10.4536 188.094 11.0403C188.494 11.6003 188.827 12.227 189.094 12.9203C189.361 13.6136 189.561 14.347 189.694 15.1203C189.854 15.8936 189.934 16.7203 189.934 17.6003C189.934 18.4803 189.854 19.3203 189.694 20.1203C189.561 20.8936 189.361 21.627 189.094 22.3203C188.827 22.987 188.494 23.6136 188.094 24.2003C187.694 24.7603 187.241 25.2803 186.734 25.7603C186.227 26.2403 185.681 26.667 185.094 27.0403C184.507 27.387 183.867 27.6803 183.174 27.9203C182.507 28.1603 181.787 28.3336 181.014 28.4403C180.267 28.5736 179.494 28.6403 178.694 28.6403C177.894 28.6403 177.121 28.5736 176.374 28.4403C175.627 28.3336 174.907 28.1603 174.214 27.9203C173.547 27.6803 172.921 27.387 172.334 27.0403C171.747 26.667 171.201 26.2403 170.694 25.7603C170.187 25.2803 169.734 24.7603 169.334 24.2003C168.961 23.6136 168.641 22.987 168.374 22.3203C168.107 21.627 167.894 20.8936 167.734 20.1203C167.601 19.3203 167.534 18.4803 167.534 17.6003ZM182.014 17.6003C182.014 15.947 181.681 14.7203 181.014 13.9203C180.374 13.1203 179.601 12.7203 178.694 12.7203C177.787 12.7203 177.014 13.1203 176.374 13.9203C175.761 14.7203 175.454 15.947 175.454 17.6003C175.454 19.2803 175.761 20.5203 176.374 21.3203C177.014 22.1203 177.787 22.5203 178.694 22.5203C179.601 22.5203 180.374 22.1203 181.014 21.3203C181.681 20.5203 182.014 19.2803 182.014 17.6003ZM193.706 28.3203C193.413 28.3203 193.2 28.2403 193.066 28.0803C192.96 27.9203 192.906 27.7336 192.906 27.5203V7.72031C192.906 7.50698 192.96 7.32031 193.066 7.16031C193.2 7.00031 193.413 6.92031 193.706 6.92031H200.146C200.413 6.92031 200.613 7.00031 200.746 7.16031C200.88 7.29364 200.946 7.48031 200.946 7.72031V10.3203C201.506 9.12031 202.293 8.20031 203.306 7.56031C204.346 6.92031 205.466 6.60031 206.666 6.60031C208.106 6.60031 209.333 6.93364 210.346 7.60031C211.386 8.26698 212.16 9.22698 212.666 10.4803C213.253 9.22698 214.12 8.26698 215.266 7.60031C216.413 6.93364 217.653 6.60031 218.986 6.60031C220.986 6.60031 222.586 7.24031 223.786 8.52031C224.986 9.80031 225.586 11.627 225.586 14.0003V27.5203C225.586 27.7603 225.52 27.9603 225.386 28.1203C225.253 28.2536 225.053 28.3203 224.786 28.3203H218.346C218.053 28.3203 217.84 28.2403 217.706 28.0803C217.573 27.9203 217.506 27.7336 217.506 27.5203V15.2803C217.506 14.4003 217.306 13.747 216.906 13.3203C216.506 12.8936 216.013 12.6803 215.426 12.6803C214.813 12.6803 214.293 12.8936 213.866 13.3203C213.466 13.747 213.266 14.4003 213.266 15.2803V27.5203C213.266 27.7603 213.2 27.9603 213.066 28.1203C212.933 28.2536 212.72 28.3203 212.426 28.3203H206.026C205.706 28.3203 205.493 28.2403 205.386 28.0803C205.28 27.9203 205.226 27.7336 205.226 27.5203V15.2803C205.226 14.4003 205.013 13.747 204.586 13.3203C204.186 12.8936 203.693 12.6803 203.106 12.6803C202.52 12.6803 202.013 12.8936 201.586 13.3203C201.16 13.747 200.946 14.4003 200.946 15.2803V27.5203C200.946 27.7603 200.88 27.9603 200.746 28.1203C200.613 28.2536 200.413 28.3203 200.146 28.3203H193.706ZM249.351 19.3603H236.231C236.417 20.6403 236.831 21.587 237.471 22.2003C238.137 22.787 238.977 23.0803 239.991 23.0803C240.497 23.0803 241.004 22.947 241.511 22.6803C242.044 22.387 242.497 21.9203 242.871 21.2803C242.951 21.1736 243.044 21.0936 243.151 21.0403C243.257 20.9603 243.431 20.9336 243.671 20.9603L249.071 21.8403C249.337 21.867 249.524 21.947 249.631 22.0803C249.737 22.2136 249.751 22.387 249.671 22.6003C249.564 22.8936 249.417 23.2003 249.231 23.5203C249.071 23.8403 248.884 24.1603 248.671 24.4803C248.484 24.7736 248.257 25.0803 247.991 25.4003C247.724 25.6936 247.431 25.9736 247.111 26.2403C246.791 26.507 246.444 26.7736 246.071 27.0403C245.697 27.2803 245.284 27.4936 244.831 27.6803C244.404 27.867 243.924 28.0403 243.391 28.2003C242.884 28.3336 242.324 28.4403 241.711 28.5203C241.124 28.6003 240.497 28.6403 239.831 28.6403C239.004 28.6403 238.217 28.5736 237.471 28.4403C236.724 28.307 236.004 28.1203 235.311 27.8803C234.617 27.6403 233.964 27.3336 233.351 26.9603C232.764 26.587 232.217 26.1736 231.711 25.7203C231.204 25.2403 230.751 24.707 230.351 24.1203C229.977 23.5336 229.644 22.907 229.351 22.2403C229.084 21.547 228.871 20.8136 228.711 20.0403C228.577 19.267 228.511 18.4536 228.511 17.6003C228.511 16.747 228.577 15.9336 228.711 15.1603C228.871 14.387 229.084 13.667 229.351 13.0003C229.644 12.307 229.977 11.6803 230.351 11.1203C230.751 10.5336 231.191 10.0003 231.671 9.52031C232.177 9.04031 232.724 8.62698 233.311 8.28031C233.897 7.90698 234.524 7.60031 235.191 7.36031C235.857 7.09364 236.551 6.90698 237.271 6.80031C237.991 6.66698 238.737 6.60031 239.511 6.60031C240.284 6.60031 241.017 6.66698 241.711 6.80031C242.431 6.93364 243.111 7.13364 243.751 7.40031C244.391 7.64031 244.991 7.94698 245.551 8.32031C246.137 8.69365 246.657 9.12031 247.111 9.60031C247.591 10.0803 248.017 10.6136 248.391 11.2003C248.764 11.787 249.071 12.427 249.311 13.1203C249.577 13.787 249.777 14.507 249.911 15.2803C250.044 16.0536 250.111 16.867 250.111 17.7203C250.111 18.2803 250.071 18.6936 249.991 18.9603C249.911 19.227 249.697 19.3603 249.351 19.3603ZM239.391 12.2003C238.697 12.2003 238.071 12.427 237.511 12.8803C236.951 13.3336 236.551 14.1203 236.311 15.2403H242.631C242.417 14.1203 242.004 13.3336 241.391 12.8803C240.804 12.427 240.137 12.2003 239.391 12.2003ZM253.824 28.3203C253.53 28.3203 253.317 28.2403 253.184 28.0803C253.077 27.9203 253.024 27.7336 253.024 27.5203V7.72031C253.024 7.50698 253.077 7.32031 253.184 7.16031C253.317 7.00031 253.53 6.92031 253.824 6.92031H260.264C260.53 6.92031 260.73 7.00031 260.864 7.16031C260.997 7.29364 261.064 7.48031 261.064 7.72031V11.8003C261.73 9.90698 262.73 8.54698 264.064 7.72031C265.397 6.89365 266.744 6.48031 268.104 6.48031H268.384C268.704 6.48031 268.93 6.53364 269.064 6.64031C269.197 6.74698 269.264 6.92031 269.264 7.16031V12.8803C269.264 13.2003 269.197 13.4136 269.064 13.5203C268.93 13.627 268.77 13.667 268.584 13.6403C268.237 13.6136 267.877 13.587 267.504 13.5603C267.157 13.5336 266.85 13.5203 266.584 13.5203C265.037 13.5203 263.73 14.1203 262.664 15.3203C261.597 16.4936 261.064 17.9203 261.064 19.6003V27.5203C261.064 27.7603 260.997 27.9603 260.864 28.1203C260.73 28.2536 260.53 28.3203 260.264 28.3203H253.824ZM280.768 6.60031C282.608 6.60031 284.368 6.94698 286.048 7.64031C287.728 8.30698 289.021 9.09365 289.928 10.0003C290.088 10.187 290.181 10.387 290.208 10.6003C290.235 10.8136 290.141 11.0003 289.928 11.1603L286.448 14.1603C286.288 14.2936 286.128 14.3603 285.968 14.3603C285.835 14.3336 285.675 14.267 285.488 14.1603C284.661 13.4403 283.848 12.947 283.048 12.6803C282.275 12.387 281.568 12.2403 280.928 12.2403C280.368 12.2403 279.928 12.3336 279.608 12.5203C279.315 12.6803 279.168 12.9336 279.168 13.2803C279.168 13.4403 279.208 13.587 279.288 13.7203C279.368 13.827 279.488 13.9336 279.648 14.0403C279.808 14.147 279.995 14.2403 280.208 14.3203C280.421 14.4003 280.661 14.4803 280.928 14.5603C281.195 14.6136 281.475 14.6803 281.768 14.7603C282.088 14.8136 282.408 14.8803 282.728 14.9603C283.075 15.0136 283.421 15.0803 283.768 15.1603C284.115 15.2403 284.461 15.3203 284.808 15.4003C285.155 15.4803 285.501 15.587 285.848 15.7203C286.195 15.827 286.528 15.9603 286.848 16.1203C287.195 16.2536 287.515 16.4136 287.808 16.6003C288.128 16.787 288.421 17.0003 288.688 17.2403C288.955 17.4536 289.195 17.707 289.408 18.0003C289.621 18.267 289.808 18.5736 289.968 18.9203C290.128 19.267 290.248 19.6403 290.328 20.0403C290.408 20.4403 290.448 20.8803 290.448 21.3603C290.448 23.6003 289.528 25.3736 287.688 26.6803C285.848 27.987 283.381 28.6403 280.288 28.6403C279.675 28.6403 279.075 28.6136 278.488 28.5603C277.928 28.507 277.381 28.427 276.848 28.3203C276.315 28.2136 275.808 28.0936 275.328 27.9603C274.875 27.8003 274.435 27.6403 274.008 27.4803C273.608 27.2936 273.221 27.1203 272.848 26.9603C272.501 26.7736 272.181 26.587 271.888 26.4003C271.595 26.187 271.328 25.987 271.088 25.8003C270.848 25.6136 270.648 25.4403 270.488 25.2803C270.328 25.1203 270.235 24.947 270.208 24.7603C270.208 24.5736 270.301 24.387 270.488 24.2003L273.728 20.9603C273.861 20.8003 274.008 20.7203 274.168 20.7203C274.328 20.6936 274.475 20.747 274.608 20.8803C275.461 21.6803 276.368 22.2803 277.328 22.6803C278.288 23.0536 279.221 23.2403 280.128 23.2403C281.061 23.2403 281.701 23.1336 282.048 22.9203C282.395 22.6803 282.568 22.387 282.568 22.0403C282.568 21.8803 282.528 21.747 282.448 21.6403C282.368 21.5336 282.248 21.4403 282.088 21.3603C281.928 21.2536 281.741 21.1603 281.528 21.0803C281.315 21.0003 281.075 20.9336 280.808 20.8803C280.541 20.827 280.248 20.7736 279.928 20.7203C279.635 20.6403 279.315 20.5736 278.968 20.5203C278.648 20.467 278.315 20.4003 277.968 20.3203C277.621 20.2403 277.275 20.1603 276.928 20.0803C276.581 19.9736 276.235 19.867 275.888 19.7603C275.541 19.627 275.195 19.4936 274.848 19.3603C274.528 19.2003 274.208 19.027 273.888 18.8403C273.595 18.6536 273.315 18.4403 273.048 18.2003C272.781 17.9603 272.541 17.6936 272.328 17.4003C272.115 17.107 271.928 16.787 271.768 16.4403C271.608 16.067 271.488 15.667 271.408 15.2403C271.328 14.8136 271.288 14.347 271.288 13.8403C271.288 11.6536 272.141 9.90698 273.848 8.60031C275.555 7.26698 277.861 6.60031 280.768 6.60031ZM309.869 6.60031C311.709 6.60031 313.469 6.94698 315.149 7.64031C316.829 8.30698 318.123 9.09365 319.029 10.0003C319.189 10.187 319.283 10.387 319.309 10.6003C319.336 10.8136 319.243 11.0003 319.029 11.1603L315.549 14.1603C315.389 14.2936 315.229 14.3603 315.069 14.3603C314.936 14.3336 314.776 14.267 314.589 14.1603C313.763 13.4403 312.949 12.947 312.149 12.6803C311.376 12.387 310.669 12.2403 310.029 12.2403C309.469 12.2403 309.029 12.3336 308.709 12.5203C308.416 12.6803 308.269 12.9336 308.269 13.2803C308.269 13.4403 308.309 13.587 308.389 13.7203C308.469 13.827 308.589 13.9336 308.749 14.0403C308.909 14.147 309.096 14.2403 309.309 14.3203C309.523 14.4003 309.763 14.4803 310.029 14.5603C310.296 14.6136 310.576 14.6803 310.869 14.7603C311.189 14.8136 311.509 14.8803 311.829 14.9603C312.176 15.0136 312.523 15.0803 312.869 15.1603C313.216 15.2403 313.563 15.3203 313.909 15.4003C314.256 15.4803 314.603 15.587 314.949 15.7203C315.296 15.827 315.629 15.9603 315.949 16.1203C316.296 16.2536 316.616 16.4136 316.909 16.6003C317.229 16.787 317.523 17.0003 317.789 17.2403C318.056 17.4536 318.296 17.707 318.509 18.0003C318.723 18.267 318.909 18.5736 319.069 18.9203C319.229 19.267 319.349 19.6403 319.429 20.0403C319.509 20.4403 319.549 20.8803 319.549 21.3603C319.549 23.6003 318.629 25.3736 316.789 26.6803C314.949 27.987 312.483 28.6403 309.389 28.6403C308.776 28.6403 308.176 28.6136 307.589 28.5603C307.029 28.507 306.483 28.427 305.949 28.3203C305.416 28.2136 304.909 28.0936 304.429 27.9603C303.976 27.8003 303.536 27.6403 303.109 27.4803C302.709 27.2936 302.323 27.1203 301.949 26.9603C301.603 26.7736 301.283 26.587 300.989 26.4003C300.696 26.187 300.429 25.987 300.189 25.8003C299.949 25.6136 299.749 25.4403 299.589 25.2803C299.429 25.1203 299.336 24.947 299.309 24.7603C299.309 24.5736 299.403 24.387 299.589 24.2003L302.829 20.9603C302.963 20.8003 303.109 20.7203 303.269 20.7203C303.429 20.6936 303.576 20.747 303.709 20.8803C304.563 21.6803 305.469 22.2803 306.429 22.6803C307.389 23.0536 308.323 23.2403 309.229 23.2403C310.163 23.2403 310.803 23.1336 311.149 22.9203C311.496 22.6803 311.669 22.387 311.669 22.0403C311.669 21.8803 311.629 21.747 311.549 21.6403C311.469 21.5336 311.349 21.4403 311.189 21.3603C311.029 21.2536 310.843 21.1603 310.629 21.0803C310.416 21.0003 310.176 20.9336 309.909 20.8803C309.643 20.827 309.349 20.7736 309.029 20.7203C308.736 20.6403 308.416 20.5736 308.069 20.5203C307.749 20.467 307.416 20.4003 307.069 20.3203C306.723 20.2403 306.376 20.1603 306.029 20.0803C305.683 19.9736 305.336 19.867 304.989 19.7603C304.643 19.627 304.296 19.4936 303.949 19.3603C303.629 19.2003 303.309 19.027 302.989 18.8403C302.696 18.6536 302.416 18.4403 302.149 18.2003C301.883 17.9603 301.643 17.6936 301.429 17.4003C301.216 17.107 301.029 16.787 300.869 16.4403C300.709 16.067 300.589 15.667 300.509 15.2403C300.429 14.8136 300.389 14.347 300.389 13.8403C300.389 11.6536 301.243 9.90698 302.949 8.60031C304.656 7.26698 306.963 6.60031 309.869 6.60031ZM342.085 19.3603H328.965C329.152 20.6403 329.565 21.587 330.205 22.2003C330.872 22.787 331.712 23.0803 332.725 23.0803C333.232 23.0803 333.738 22.947 334.245 22.6803C334.778 22.387 335.232 21.9203 335.605 21.2803C335.685 21.1736 335.778 21.0936 335.885 21.0403C335.992 20.9603 336.165 20.9336 336.405 20.9603L341.805 21.8403C342.072 21.867 342.258 21.947 342.365 22.0803C342.472 22.2136 342.485 22.387 342.405 22.6003C342.298 22.8936 342.152 23.2003 341.965 23.5203C341.805 23.8403 341.618 24.1603 341.405 24.4803C341.218 24.7736 340.992 25.0803 340.725 25.4003C340.458 25.6936 340.165 25.9736 339.845 26.2403C339.525 26.507 339.178 26.7736 338.805 27.0403C338.432 27.2803 338.018 27.4936 337.565 27.6803C337.138 27.867 336.658 28.0403 336.125 28.2003C335.618 28.3336 335.058 28.4403 334.445 28.5203C333.858 28.6003 333.232 28.6403 332.565 28.6403C331.738 28.6403 330.952 28.5736 330.205 28.4403C329.458 28.307 328.738 28.1203 328.045 27.8803C327.352 27.6403 326.698 27.3336 326.085 26.9603C325.498 26.587 324.952 26.1736 324.445 25.7203C323.938 25.2403 323.485 24.707 323.085 24.1203C322.712 23.5336 322.378 22.907 322.085 22.2403C321.818 21.547 321.605 20.8136 321.445 20.0403C321.312 19.267 321.245 18.4536 321.245 17.6003C321.245 16.747 321.312 15.9336 321.445 15.1603C321.605 14.387 321.818 13.667 322.085 13.0003C322.378 12.307 322.712 11.6803 323.085 11.1203C323.485 10.5336 323.925 10.0003 324.405 9.52031C324.912 9.04031 325.458 8.62698 326.045 8.28031C326.632 7.90698 327.258 7.60031 327.925 7.36031C328.592 7.09364 329.285 6.90698 330.005 6.80031C330.725 6.66698 331.472 6.60031 332.245 6.60031C333.018 6.60031 333.752 6.66698 334.445 6.80031C335.165 6.93364 335.845 7.13364 336.485 7.40031C337.125 7.64031 337.725 7.94698 338.285 8.32031C338.872 8.69365 339.392 9.12031 339.845 9.60031C340.325 10.0803 340.752 10.6136 341.125 11.2003C341.498 11.787 341.805 12.427 342.045 13.1203C342.312 13.787 342.512 14.507 342.645 15.2803C342.778 16.0536 342.845 16.867 342.845 17.7203C342.845 18.2803 342.805 18.6936 342.725 18.9603C342.645 19.227 342.432 19.3603 342.085 19.3603ZM332.125 12.2003C331.432 12.2003 330.805 12.427 330.245 12.8803C329.685 13.3336 329.285 14.1203 329.045 15.2403H335.365C335.152 14.1203 334.738 13.3336 334.125 12.8803C333.538 12.427 332.872 12.2003 332.125 12.2003ZM365.913 19.3603H352.793C352.98 20.6403 353.393 21.587 354.033 22.2003C354.7 22.787 355.54 23.0803 356.553 23.0803C357.06 23.0803 357.567 22.947 358.073 22.6803C358.607 22.387 359.06 21.9203 359.433 21.2803C359.513 21.1736 359.607 21.0936 359.713 21.0403C359.82 20.9603 359.993 20.9336 360.233 20.9603L365.633 21.8403C365.9 21.867 366.087 21.947 366.193 22.0803C366.3 22.2136 366.313 22.387 366.233 22.6003C366.127 22.8936 365.98 23.2003 365.793 23.5203C365.633 23.8403 365.447 24.1603 365.233 24.4803C365.047 24.7736 364.82 25.0803 364.553 25.4003C364.287 25.6936 363.993 25.9736 363.673 26.2403C363.353 26.507 363.007 26.7736 362.633 27.0403C362.26 27.2803 361.847 27.4936 361.393 27.6803C360.967 27.867 360.487 28.0403 359.953 28.2003C359.447 28.3336 358.887 28.4403 358.273 28.5203C357.687 28.6003 357.06 28.6403 356.393 28.6403C355.567 28.6403 354.78 28.5736 354.033 28.4403C353.287 28.307 352.567 28.1203 351.873 27.8803C351.18 27.6403 350.527 27.3336 349.913 26.9603C349.327 26.587 348.78 26.1736 348.273 25.7203C347.767 25.2403 347.313 24.707 346.913 24.1203C346.54 23.5336 346.207 22.907 345.913 22.2403C345.647 21.547 345.433 20.8136 345.273 20.0403C345.14 19.267 345.073 18.4536 345.073 17.6003C345.073 16.747 345.14 15.9336 345.273 15.1603C345.433 14.387 345.647 13.667 345.913 13.0003C346.207 12.307 346.54 11.6803 346.913 11.1203C347.313 10.5336 347.753 10.0003 348.233 9.52031C348.74 9.04031 349.287 8.62698 349.873 8.28031C350.46 7.90698 351.087 7.60031 351.753 7.36031C352.42 7.09364 353.113 6.90698 353.833 6.80031C354.553 6.66698 355.3 6.60031 356.073 6.60031C356.847 6.60031 357.58 6.66698 358.273 6.80031C358.993 6.93364 359.673 7.13364 360.313 7.40031C360.953 7.64031 361.553 7.94698 362.113 8.32031C362.7 8.69365 363.22 9.12031 363.673 9.60031C364.153 10.0803 364.58 10.6136 364.953 11.2003C365.327 11.787 365.633 12.427 365.873 13.1203C366.14 13.787 366.34 14.507 366.473 15.2803C366.607 16.0536 366.673 16.867 366.673 17.7203C366.673 18.2803 366.633 18.6936 366.553 18.9603C366.473 19.227 366.26 19.3603 365.913 19.3603ZM355.953 12.2003C355.26 12.2003 354.633 12.427 354.073 12.8803C353.513 13.3336 353.113 14.1203 352.873 15.2403H359.193C358.98 14.1203 358.567 13.3336 357.953 12.8803C357.367 12.427 356.7 12.2003 355.953 12.2003ZM390.432 19.7203V7.72031C390.432 7.48031 390.485 7.29364 390.592 7.16031C390.725 7.00031 390.939 6.92031 391.232 6.92031H397.632C397.952 6.92031 398.165 7.00031 398.272 7.16031C398.405 7.32031 398.472 7.50698 398.472 7.72031V27.5203C398.472 27.7336 398.405 27.9203 398.272 28.0803C398.165 28.2403 397.952 28.3203 397.632 28.3203H391.232C390.939 28.3203 390.725 28.2403 390.592 28.0803C390.485 27.9203 390.432 27.7336 390.432 27.5203V25.2403C389.819 26.3336 388.979 27.1736 387.912 27.7603C386.845 28.347 385.699 28.6403 384.472 28.6403C382.445 28.6403 380.805 28.0136 379.552 26.7603C378.325 25.4803 377.712 23.6403 377.712 21.2403V7.72031C377.712 7.48031 377.765 7.29364 377.872 7.16031C378.005 7.00031 378.219 6.92031 378.512 6.92031H384.952C385.245 6.92031 385.445 7.00031 385.552 7.16031C385.685 7.32031 385.752 7.50698 385.752 7.72031V19.7203C385.752 20.6536 385.965 21.3603 386.392 21.8403C386.819 22.2936 387.352 22.5203 387.992 22.5203C388.712 22.5203 389.299 22.2936 389.752 21.8403C390.205 21.3603 390.432 20.6536 390.432 19.7203ZM403.003 36.5603C402.71 36.5603 402.497 36.4803 402.363 36.3203C402.257 36.1603 402.203 35.9736 402.203 35.7603V7.72031C402.203 7.50698 402.257 7.32031 402.363 7.16031C402.497 7.00031 402.71 6.92031 403.003 6.92031H409.443C409.71 6.92031 409.91 7.00031 410.043 7.16031C410.177 7.29364 410.243 7.48031 410.243 7.72031V10.0003C410.83 8.93364 411.59 8.10698 412.523 7.52031C413.457 6.90698 414.603 6.60031 415.963 6.60031C416.683 6.60031 417.377 6.68031 418.043 6.84031C418.71 7.00031 419.337 7.24031 419.923 7.56031C420.51 7.88031 421.043 8.28031 421.523 8.76031C422.03 9.21364 422.483 9.74698 422.883 10.3603C423.283 10.947 423.617 11.6136 423.883 12.3603C424.15 13.107 424.35 13.9203 424.483 14.8003C424.643 15.6803 424.723 16.627 424.723 17.6403C424.723 18.6536 424.643 19.6003 424.483 20.4803C424.35 21.3603 424.15 22.1736 423.883 22.9203C423.617 23.667 423.283 24.347 422.883 24.9603C422.483 25.547 422.03 26.0803 421.523 26.5603C421.043 27.0136 420.51 27.4003 419.923 27.7203C419.337 28.0403 418.71 28.2803 418.043 28.4403C417.377 28.6003 416.683 28.6803 415.963 28.6803C414.603 28.6803 413.457 28.387 412.523 27.8003C411.59 27.187 410.83 26.3336 410.243 25.2403V35.7603C410.243 36.0003 410.177 36.187 410.043 36.3203C409.91 36.4803 409.71 36.5603 409.443 36.5603H403.003ZM413.483 22.2803C414.417 22.2803 415.19 21.8936 415.803 21.1203C416.443 20.347 416.763 19.1603 416.763 17.5603C416.763 15.9603 416.443 14.787 415.803 14.0403C415.19 13.267 414.417 12.8803 413.483 12.8803C412.55 12.8803 411.777 13.267 411.163 14.0403C410.55 14.787 410.243 15.9603 410.243 17.5603C410.243 19.1603 410.55 20.347 411.163 21.1203C411.777 21.8936 412.55 22.2803 413.483 22.2803ZM446.837 28.6403C444.437 28.6403 442.584 28.0536 441.277 26.8803C439.997 25.707 439.357 24.1603 439.357 22.2403V13.0003H435.197C435.01 13.0003 434.864 12.947 434.757 12.8403C434.65 12.7336 434.597 12.587 434.597 12.4003V7.52031C434.597 7.33365 434.65 7.18698 434.757 7.08031C434.864 6.97364 435.01 6.92031 435.197 6.92031H439.357V2.24031C439.357 1.97364 439.424 1.77364 439.557 1.64031C439.717 1.48031 439.93 1.40031 440.197 1.40031H446.557C446.824 1.40031 447.024 1.48031 447.157 1.64031C447.29 1.77364 447.357 1.97364 447.357 2.24031V6.92031H452.037C452.224 6.92031 452.37 6.97364 452.477 7.08031C452.61 7.18698 452.677 7.33365 452.677 7.52031V12.4003C452.677 12.587 452.61 12.7336 452.477 12.8403C452.37 12.947 452.224 13.0003 452.037 13.0003H447.357V20.3203C447.357 20.9603 447.53 21.427 447.877 21.7203C448.25 22.0136 448.797 22.1603 449.517 22.1603C449.784 22.1603 450.117 22.1336 450.517 22.0803C450.917 22.027 451.41 21.9336 451.997 21.8003C452.184 21.747 452.33 21.7736 452.437 21.8803C452.57 21.987 452.637 22.1203 452.637 22.2803V27.1603C452.637 27.2936 452.61 27.4136 452.557 27.5203C452.504 27.627 452.397 27.7203 452.237 27.8003C451.597 28.0936 450.784 28.307 449.797 28.4403C448.837 28.5736 447.85 28.6403 446.837 28.6403ZM454.253 17.6003C454.253 16.7203 454.32 15.8936 454.453 15.1203C454.613 14.347 454.826 13.6136 455.093 12.9203C455.36 12.227 455.68 11.6003 456.053 11.0403C456.453 10.4536 456.906 9.92031 457.413 9.44031C457.92 8.96031 458.466 8.54698 459.053 8.20031C459.64 7.82698 460.266 7.52031 460.933 7.28031C461.626 7.01365 462.346 6.82698 463.093 6.72031C463.84 6.58698 464.613 6.52031 465.413 6.52031C466.213 6.52031 466.986 6.58698 467.733 6.72031C468.506 6.82698 469.226 7.01365 469.893 7.28031C470.586 7.52031 471.226 7.82698 471.813 8.20031C472.4 8.54698 472.946 8.96031 473.453 9.44031C473.96 9.92031 474.413 10.4536 474.813 11.0403C475.213 11.6003 475.546 12.227 475.813 12.9203C476.08 13.6136 476.28 14.347 476.413 15.1203C476.573 15.8936 476.653 16.7203 476.653 17.6003C476.653 18.4803 476.573 19.3203 476.413 20.1203C476.28 20.8936 476.08 21.627 475.813 22.3203C475.546 22.987 475.213 23.6136 474.813 24.2003C474.413 24.7603 473.96 25.2803 473.453 25.7603C472.946 26.2403 472.4 26.667 471.813 27.0403C471.226 27.387 470.586 27.6803 469.893 27.9203C469.226 28.1603 468.506 28.3336 467.733 28.4403C466.986 28.5736 466.213 28.6403 465.413 28.6403C464.613 28.6403 463.84 28.5736 463.093 28.4403C462.346 28.3336 461.626 28.1603 460.933 27.9203C460.266 27.6803 459.64 27.387 459.053 27.0403C458.466 26.667 457.92 26.2403 457.413 25.7603C456.906 25.2803 456.453 24.7603 456.053 24.2003C455.68 23.6136 455.36 22.987 455.093 22.3203C454.826 21.627 454.613 20.8936 454.453 20.1203C454.32 19.3203 454.253 18.4803 454.253 17.6003ZM468.733 17.6003C468.733 15.947 468.4 14.7203 467.733 13.9203C467.093 13.1203 466.32 12.7203 465.413 12.7203C464.506 12.7203 463.733 13.1203 463.093 13.9203C462.48 14.7203 462.173 15.947 462.173 17.6003C462.173 19.2803 462.48 20.5203 463.093 21.3203C463.733 22.1203 464.506 22.5203 465.413 22.5203C466.32 22.5203 467.093 22.1203 467.733 21.3203C468.4 20.5203 468.733 19.2803 468.733 17.6003ZM487.431 14.9203L487.991 0.960312C487.991 0.773644 488.044 0.626977 488.151 0.52031C488.284 0.386977 488.444 0.320311 488.631 0.320311H506.791C506.978 0.320311 507.124 0.373644 507.231 0.480311C507.364 0.586978 507.431 0.733644 507.431 0.92031V6.32031C507.431 6.48031 507.364 6.62698 507.231 6.76031C507.124 6.86698 506.978 6.92031 506.791 6.92031H494.871L494.711 10.4803C495.244 10.427 495.764 10.387 496.271 10.3603C496.804 10.307 497.311 10.2803 497.791 10.2803C501.364 10.2803 504.018 11.0536 505.751 12.6003C507.484 14.147 508.351 16.1203 508.351 18.5203C508.351 19.2936 508.271 20.027 508.111 20.7203C507.951 21.4136 507.711 22.0803 507.391 22.7203C507.071 23.3336 506.671 23.907 506.191 24.4403C505.738 24.9736 505.218 25.467 504.631 25.9203C504.044 26.347 503.391 26.7336 502.671 27.0803C501.951 27.4003 501.178 27.6803 500.351 27.9203C499.524 28.1603 498.644 28.3336 497.711 28.4403C496.804 28.5736 495.844 28.6403 494.831 28.6403C493.551 28.6403 492.231 28.547 490.871 28.3603C489.511 28.1736 488.178 27.8803 486.871 27.4803C486.658 27.427 486.524 27.3203 486.471 27.1603C486.418 26.9736 486.404 26.787 486.431 26.6003L487.551 21.2003C487.578 20.987 487.658 20.8536 487.791 20.8003C487.951 20.7203 488.111 20.6936 488.271 20.7203C489.471 21.067 490.604 21.3336 491.671 21.5203C492.764 21.6803 493.724 21.7603 494.551 21.7603C496.284 21.7603 497.538 21.4803 498.311 20.9203C499.111 20.3336 499.511 19.6403 499.511 18.8403C499.511 18.1203 499.151 17.5203 498.431 17.0403C497.711 16.5603 496.711 16.3203 495.431 16.3203C495.058 16.3203 494.658 16.347 494.231 16.4003C493.804 16.4536 493.364 16.5336 492.911 16.6403C492.644 16.6936 492.404 16.7203 492.191 16.7203C492.004 16.6936 491.844 16.667 491.711 16.6403L487.871 15.6803C487.738 15.627 487.618 15.5336 487.511 15.4003C487.431 15.267 487.404 15.107 487.431 14.9203ZM509.59 28.3603C509.35 28.3603 509.204 28.267 509.15 28.0803C509.07 27.867 509.11 27.6803 509.27 27.5203L516.31 17.7203L509.15 7.92031C509.017 7.70698 508.977 7.49365 509.03 7.28031C509.084 7.04031 509.257 6.92031 509.55 6.92031H517.31C517.47 6.92031 517.604 6.93364 517.71 6.96031C517.844 6.98698 517.964 7.08031 518.07 7.24031L521.43 12.2803L524.95 7.12031C525.03 7.01364 525.124 6.96031 525.23 6.96031C525.337 6.93364 525.47 6.92031 525.63 6.92031H532.39C532.657 6.92031 532.817 7.02698 532.87 7.24031C532.924 7.42698 532.884 7.61364 532.75 7.80031L525.51 17.7203L532.51 27.3203C532.67 27.5336 532.724 27.7603 532.67 28.0003C532.617 28.2136 532.43 28.3203 532.11 28.3203H524.39C524.257 28.3203 524.124 28.307 523.99 28.2803C523.884 28.2536 523.777 28.187 523.67 28.0803L520.39 23.1603L517.03 28.0803C516.95 28.187 516.857 28.267 516.75 28.3203C516.644 28.347 516.51 28.3603 516.35 28.3603H509.59ZM543.712 28.3203C543.392 28.3203 543.165 28.2403 543.032 28.0803C542.899 27.9203 542.832 27.7203 542.832 27.4803V1.16031C542.832 0.920312 542.899 0.720312 543.032 0.560312C543.165 0.400311 543.392 0.320311 543.712 0.320311H555.592C558.925 0.320311 561.592 1.13364 563.592 2.76031C565.619 4.36031 566.632 6.62698 566.632 9.56031C566.632 11.3203 566.259 12.8536 565.512 14.1603C564.765 15.4403 563.739 16.467 562.432 17.2403L567.432 27.2403C567.565 27.5336 567.565 27.787 567.432 28.0003C567.299 28.2136 567.099 28.3203 566.832 28.3203H559.272C559.032 28.3203 558.832 28.267 558.672 28.1603C558.539 28.0536 558.405 27.867 558.272 27.6003L554.112 18.8403H551.232V27.4803C551.232 27.7203 551.165 27.9203 551.032 28.0803C550.899 28.2403 550.672 28.3203 550.352 28.3203H543.712ZM555.112 12.4403C555.992 12.4403 556.712 12.227 557.272 11.8003C557.859 11.3736 558.152 10.747 558.152 9.92031C558.152 9.12031 557.859 8.50698 557.272 8.08031C556.712 7.65364 555.992 7.44031 555.112 7.44031H551.232V12.4403H555.112ZM569.062 14.3203C569.062 13.1736 569.142 12.0936 569.302 11.0803C569.489 10.067 569.742 9.12031 570.062 8.24031C570.382 7.33365 570.769 6.50698 571.222 5.76031C571.702 5.01365 572.236 4.33365 572.822 3.72031C573.409 3.10698 574.049 2.57365 574.742 2.12031C575.462 1.64031 576.222 1.25364 577.022 0.960312C577.822 0.640311 578.662 0.400311 579.542 0.240312C580.422 0.0803121 581.342 0.000312328 582.302 0.000312328C583.156 0.000312328 583.969 0.0669789 584.742 0.200312C585.542 0.306977 586.302 0.493644 587.022 0.760312C587.742 1.00031 588.422 1.30698 589.062 1.68031C589.729 2.05365 590.342 2.48031 590.902 2.96031C591.489 3.44031 592.009 3.98698 592.462 4.60031C592.942 5.18698 593.369 5.84031 593.742 6.56031C594.116 7.25365 594.436 8.01365 594.702 8.84031C594.969 9.64031 595.169 10.507 595.302 11.4403C595.436 12.347 595.502 13.307 595.502 14.3203C595.502 15.3336 595.436 16.307 595.302 17.2403C595.169 18.147 594.969 19.0136 594.702 19.8403C594.436 20.6403 594.116 21.4003 593.742 22.1203C593.369 22.8136 592.942 23.467 592.462 24.0803C592.009 24.667 591.489 25.2003 590.902 25.6803C590.342 26.1603 589.729 26.587 589.062 26.9603C588.422 27.3336 587.742 27.6536 587.022 27.9203C586.302 28.1603 585.542 28.3336 584.742 28.4403C583.969 28.5736 583.156 28.6403 582.302 28.6403C581.342 28.6403 580.422 28.5603 579.542 28.4003C578.662 28.2403 577.822 28.0136 577.022 27.7203C576.222 27.4003 575.462 27.0136 574.742 26.5603C574.049 26.0803 573.409 25.5336 572.822 24.9203C572.236 24.307 571.702 23.627 571.222 22.8803C570.769 22.1336 570.382 21.3203 570.062 20.4403C569.742 19.5336 569.489 18.5736 569.302 17.5603C569.142 16.547 569.062 15.467 569.062 14.3203ZM587.102 14.3203C587.102 11.8936 586.636 10.107 585.702 8.96031C584.796 7.78698 583.662 7.20031 582.302 7.20031C580.942 7.20031 579.796 7.78698 578.862 8.96031C577.929 10.107 577.462 11.8936 577.462 14.3203C577.462 16.747 577.929 18.547 578.862 19.7203C579.796 20.867 580.942 21.4403 582.302 21.4403C583.662 21.4403 584.796 20.867 585.702 19.7203C586.636 18.547 587.102 16.747 587.102 14.3203ZM606.329 28.3203H599.689C599.369 28.3203 599.142 28.2403 599.009 28.0803C598.875 27.9203 598.809 27.7203 598.809 27.4803V1.16031C598.809 0.946978 598.875 0.760311 599.009 0.600312C599.142 0.413644 599.369 0.320311 599.689 0.320311H606.329C606.649 0.320311 606.875 0.400311 607.009 0.560312C607.142 0.720312 607.209 0.920312 607.209 1.16031V27.4803C607.209 27.7203 607.142 27.9203 607.009 28.0803C606.875 28.2403 606.649 28.3203 606.329 28.3203Z" fill="black" fill-opacity="0.9"/>
</svg>
