<svg width="249" height="314" viewBox="0 0 249 314" fill="none" xmlns="http://www.w3.org/2000/svg">
<g clip-path="url(#clip0_1093_28940)">
<rect width="249" height="314" rx="14.2679" fill="white"/>
<mask id="path-3-inside-1_1093_28940" fill="white">
<path d="M0 0.242188H328.558V42.5311H0V0.242188Z"/>
</mask>
<path d="M328.558 42.5311V41.6394H0V42.5311V43.4229H328.558V42.5311Z" fill="#E6EBED" mask="url(#path-3-inside-1_1093_28940)"/>
<path d="M15.3807 26.8867V16.8992H19.2331C20.2033 16.8992 20.9833 17.137 21.573 17.6126C22.1723 18.0786 22.4719 18.7302 22.4719 19.5673C22.4719 20.1095 22.3387 20.5708 22.0724 20.9513C21.8156 21.3222 21.4541 21.6028 20.988 21.7931C21.5397 21.9738 21.9725 22.2592 22.2864 22.6491C22.6098 23.0391 22.7715 23.5338 22.7715 24.133C22.7715 24.9986 22.4624 25.6739 21.8441 26.1591C21.2353 26.6442 20.4316 26.8867 19.4328 26.8867H15.3807ZM19.1332 18.4544H17.2926V21.1082H19.1332C19.5517 21.1082 19.8989 20.9988 20.1747 20.78C20.4601 20.5518 20.6028 20.2188 20.6028 19.7813C20.6028 19.3247 20.4601 18.9918 20.1747 18.7825C19.8989 18.5638 19.5517 18.4544 19.1332 18.4544ZM19.3187 22.5493H17.2926V25.3601H19.3187C19.7562 25.3601 20.1224 25.2459 20.4173 25.0176C20.7122 24.7798 20.8596 24.4231 20.8596 23.9475C20.8596 23.4814 20.7122 23.1343 20.4173 22.906C20.1224 22.6682 19.7562 22.5493 19.3187 22.5493ZM25.3205 18.3117C25.0446 18.3117 24.783 18.2166 24.5357 18.0263C24.2979 17.8266 24.179 17.5602 24.179 17.2273C24.179 16.9039 24.2979 16.6471 24.5357 16.4569C24.783 16.2571 25.0446 16.1572 25.3205 16.1572C25.5963 16.1572 25.8531 16.2571 26.0909 16.4569C26.3287 16.6471 26.4476 16.9039 26.4476 17.2273C26.4476 17.5602 26.3287 17.8266 26.0909 18.0263C25.8531 18.2166 25.5963 18.3117 25.3205 18.3117ZM26.2193 26.8867H24.3788V19.4817H26.2193V26.8867ZM29.9946 26.8867H28.1541V16.8992H29.9946V26.8867ZM33.7428 26.8867H31.9022V16.8992H33.7428V26.8867ZM34.9227 25.4314L36.0784 24.4897C36.3447 24.8987 36.6491 25.2031 36.9915 25.4029C37.3339 25.6026 37.6954 25.7025 38.0759 25.7025C38.4564 25.7025 38.7607 25.6264 38.989 25.4742C39.2268 25.3125 39.3457 25.089 39.3457 24.8036C39.3457 24.5182 39.184 24.3137 38.8606 24.1901C38.5467 24.0664 38.1805 23.957 37.762 23.8619C37.6383 23.8239 37.5099 23.7906 37.3767 23.762C37.2436 23.724 37.1104 23.6859 36.9772 23.6479C36.8536 23.6003 36.7299 23.5528 36.6063 23.5052C36.4826 23.4481 36.3637 23.3863 36.2496 23.3197C36.1449 23.2532 36.0403 23.1818 35.9357 23.1057C35.8406 23.0201 35.7502 22.9297 35.6646 22.8346C35.5885 22.7395 35.5219 22.6301 35.4648 22.5065C35.4078 22.3828 35.3602 22.2496 35.3222 22.107C35.2936 21.9548 35.2794 21.7931 35.2794 21.6219C35.2794 20.9275 35.5457 20.3805 36.0784 19.981C36.611 19.572 37.2769 19.3675 38.0759 19.3675C38.7417 19.3675 39.3362 19.5197 39.8594 19.8241C40.3825 20.1285 40.7963 20.5137 41.1007 20.9798L39.9592 21.8644C39.6739 21.4744 39.379 21.1843 39.0746 20.9941C38.7702 20.7943 38.4516 20.6944 38.1187 20.6944C37.8238 20.6944 37.5765 20.7658 37.3767 20.9085C37.1865 21.0416 37.0914 21.2366 37.0914 21.4934C37.0914 21.7788 37.2341 21.9881 37.5194 22.1212C37.8048 22.2544 38.1425 22.3733 38.5324 22.4779C38.6466 22.5065 38.7607 22.5398 38.8749 22.5778C38.9985 22.6063 39.1222 22.6396 39.2458 22.6777C39.3695 22.7062 39.4884 22.7443 39.6025 22.7918C39.7167 22.8299 39.8308 22.8774 39.945 22.9345C40.0591 22.9821 40.1637 23.0391 40.2589 23.1057C40.3635 23.1628 40.4586 23.2294 40.5442 23.3055C40.6393 23.3816 40.7202 23.4672 40.7868 23.5623C40.8629 23.6574 40.9247 23.762 40.9723 23.8762C41.0198 23.9903 41.0579 24.114 41.0864 24.2472C41.1149 24.3708 41.1292 24.5135 41.1292 24.6752C41.1292 24.8845 41.1007 25.0842 41.0436 25.2744C40.996 25.4552 40.9247 25.6264 40.8296 25.7881C40.7345 25.9403 40.6203 26.083 40.4872 26.2161C40.354 26.3398 40.2018 26.4539 40.0306 26.5586C39.8594 26.6537 39.6691 26.7345 39.4599 26.8011C39.2601 26.8677 39.0461 26.9153 38.8178 26.9438C38.5895 26.9818 38.3517 27.0009 38.1044 27.0009C37.2959 27.0009 36.6253 26.8439 36.0926 26.53C35.56 26.2066 35.17 25.8404 34.9227 25.4314ZM47.3286 26.8867H45.4881V16.8992H47.3286V20.7087C47.5379 20.2712 47.8232 19.9382 48.1847 19.7099C48.5557 19.4722 48.9885 19.3533 49.4831 19.3533C49.7304 19.3533 49.9634 19.3818 50.1822 19.4389C50.4105 19.4959 50.6245 19.5815 50.8243 19.6957C51.024 19.8003 51.2047 19.9335 51.3664 20.0952C51.5377 20.2474 51.6899 20.4329 51.823 20.6516C51.9657 20.8609 52.0846 21.0939 52.1797 21.3508C52.2748 21.6076 52.3462 21.8882 52.3937 22.1926C52.4413 22.497 52.4651 22.8204 52.4651 23.1628C52.4651 23.5147 52.4413 23.8429 52.3937 24.1473C52.3462 24.4517 52.2748 24.737 52.1797 25.0034C52.0846 25.2602 51.9657 25.4932 51.823 25.7025C51.6899 25.9117 51.5377 26.0972 51.3664 26.2589C51.2047 26.4206 51.024 26.5586 50.8243 26.6727C50.6245 26.7773 50.4105 26.8582 50.1822 26.9153C49.9634 26.9723 49.7304 27.0009 49.4831 27.0009C48.9885 27.0009 48.5557 26.882 48.1847 26.6442C47.8232 26.4064 47.5379 26.0687 47.3286 25.6311V26.8867ZM48.9837 25.5313C49.4593 25.5313 49.854 25.3363 50.1679 24.9463C50.4913 24.5563 50.6531 23.9618 50.6531 23.1628C50.6531 22.3733 50.4913 21.7836 50.1679 21.3936C49.854 21.0036 49.4593 20.8086 48.9837 20.8086C48.5081 20.8086 48.1134 21.0036 47.7995 21.3936C47.4856 21.7836 47.3286 22.3733 47.3286 23.1628C47.3286 23.9618 47.4856 24.5563 47.7995 24.9463C48.1134 25.3363 48.5081 25.5313 48.9837 25.5313ZM53.0485 29.5691L53.4908 28.1138C53.6811 28.2089 53.8713 28.285 54.0615 28.342C54.2518 28.4086 54.4325 28.4419 54.6037 28.4419C54.8415 28.4419 55.0365 28.3753 55.1887 28.2422C55.3504 28.109 55.5073 27.8332 55.6595 27.4146L55.7879 27.0579L52.8916 19.4817H54.8463L56.7296 24.8892L58.6843 19.4817H60.5249L57.3432 27.8855C57.0578 28.6464 56.7011 29.1743 56.2731 29.4692C55.845 29.7736 55.3361 29.9258 54.7464 29.9258C54.4705 29.9258 54.1757 29.8973 53.8618 29.8402C53.5574 29.7831 53.2863 29.6927 53.0485 29.5691ZM69.017 24.0759L70.6863 24.3613C70.6388 24.5706 70.577 24.7751 70.5009 24.9748C70.4248 25.1651 70.3296 25.3505 70.2155 25.5313C70.1109 25.7025 69.9872 25.8642 69.8445 26.0164C69.7114 26.1686 69.5592 26.3065 69.388 26.4301C69.2263 26.5443 69.0408 26.6442 68.8315 26.7298C68.6318 26.8154 68.4177 26.882 68.1895 26.9295C67.9612 26.9771 67.7186 27.0009 67.4618 27.0009C67.224 27.0009 66.9909 26.9771 66.7627 26.9295C66.5344 26.8915 66.3156 26.8296 66.1063 26.744C65.9066 26.6584 65.7163 26.5538 65.5356 26.4301C65.3549 26.3065 65.1884 26.1638 65.0362 26.0021C64.8841 25.8309 64.7461 25.6454 64.6225 25.4457C64.5083 25.2459 64.4085 25.0271 64.3228 24.7893C64.2372 24.5515 64.1707 24.2995 64.1231 24.0331C64.085 23.7668 64.066 23.4814 64.066 23.1771C64.066 22.8727 64.085 22.5873 64.1231 22.321C64.1707 22.0546 64.2372 21.8026 64.3228 21.5648C64.4085 21.327 64.5083 21.1082 64.6225 20.9085C64.7461 20.7087 64.8841 20.528 65.0362 20.3663C65.1884 20.1951 65.3549 20.0476 65.5356 19.924C65.7163 19.8003 65.9066 19.6957 66.1063 19.6101C66.3156 19.5245 66.5344 19.4626 66.7627 19.4246C66.9909 19.377 67.224 19.3533 67.4618 19.3533C67.7186 19.3533 67.9612 19.377 68.1895 19.4246C68.4273 19.4722 68.646 19.5387 68.8458 19.6243C69.0455 19.7099 69.231 19.8146 69.4022 19.9382C69.5734 20.0524 69.7256 20.1855 69.8588 20.3377C70.0015 20.4899 70.1251 20.6564 70.2298 20.8371C70.3439 21.0083 70.4343 21.1938 70.5009 21.3936C70.577 21.5838 70.6388 21.7836 70.6863 21.9928L69.017 22.2639C68.8743 21.7978 68.6746 21.4411 68.4177 21.1938C68.1704 20.937 67.8613 20.8086 67.4903 20.8086C67.0147 20.8086 66.6295 21.0083 66.3346 21.4078C66.0398 21.8073 65.8923 22.3971 65.8923 23.1771C65.8923 23.9475 66.0398 24.5373 66.3346 24.9463C66.6295 25.3458 67.0147 25.5455 67.4903 25.5455C67.8613 25.5455 68.1704 25.4219 68.4177 25.1746C68.6746 24.9177 68.8743 24.5515 69.017 24.0759ZM73.942 27.0009C73.2476 27.0009 72.6912 26.8106 72.2726 26.4301C71.8636 26.0402 71.6591 25.5598 71.6591 24.9891C71.6591 24.3137 71.9064 23.7858 72.4011 23.4053C72.8957 23.0154 73.5805 22.7871 74.4556 22.7205L76.2106 22.5921V22.0356C76.2106 21.6266 76.0869 21.3175 75.8396 21.1082C75.6018 20.8894 75.2927 20.78 74.9122 20.78C74.5603 20.78 74.2321 20.8704 73.9277 21.0511C73.6329 21.2223 73.357 21.5172 73.1002 21.9357L71.7162 21.2223C72.0111 20.7087 72.4296 20.2712 72.9718 19.9097C73.514 19.5387 74.2131 19.3533 75.0692 19.3533C75.9347 19.3533 76.6434 19.591 77.1951 20.0666C77.7468 20.5422 78.0226 21.2081 78.0226 22.0642V26.8867H76.2106V25.8309C75.9918 26.1923 75.6827 26.4777 75.2832 26.687C74.8932 26.8962 74.4461 27.0009 73.942 27.0009ZM73.3998 24.8179C73.3998 25.1413 73.514 25.3791 73.7422 25.5313C73.98 25.6835 74.2654 25.7596 74.5983 25.7596C75.0073 25.7596 75.3783 25.6264 75.7112 25.3601C76.0441 25.0937 76.2106 24.7275 76.2106 24.2614V23.705L74.8694 23.8191C74.3843 23.8572 74.0181 23.9618 73.7708 24.133C73.5235 24.2947 73.3998 24.523 73.3998 24.8179ZM84.4736 25.3172L84.5307 26.7155C84.3405 26.8011 84.0979 26.8677 83.803 26.9153C83.5082 26.9723 83.218 27.0009 82.9327 27.0009C82.2288 27.0009 81.6819 26.8249 81.2919 26.4729C80.9114 26.1115 80.7212 25.6264 80.7212 25.0176V20.9085H79.0518V19.4817H80.7212V17.4699H82.5475V19.4817H84.5164V20.9085H82.5475V24.7037C82.5475 24.9701 82.6235 25.1698 82.7757 25.303C82.9279 25.4361 83.1372 25.5027 83.4035 25.5027C83.5557 25.5027 83.7174 25.4885 83.8886 25.4599C84.0694 25.4219 84.2644 25.3743 84.4736 25.3172ZM90.4644 24.5896L91.991 24.9891C91.934 25.1127 91.8721 25.2412 91.8056 25.3743C91.739 25.498 91.6581 25.6169 91.563 25.731C91.4774 25.8452 91.3823 25.9593 91.2776 26.0734C91.173 26.1781 91.0589 26.278 90.9352 26.3731C90.8116 26.4682 90.6736 26.5538 90.5214 26.6299C90.3788 26.706 90.2218 26.7726 90.0506 26.8296C89.8889 26.8867 89.7082 26.9295 89.5084 26.9581C89.3182 26.9866 89.1184 27.0009 88.9092 27.0009C88.6523 27.0009 88.405 26.9771 88.1672 26.9295C87.9294 26.8915 87.7012 26.8296 87.4824 26.744C87.2731 26.6584 87.0734 26.5538 86.8831 26.4301C86.6929 26.3065 86.5169 26.1638 86.3552 26.0021C86.203 25.8309 86.0651 25.6454 85.9414 25.4457C85.8178 25.2459 85.7132 25.0271 85.6275 24.7893C85.5419 24.5515 85.4754 24.2995 85.4278 24.0331C85.3802 23.7573 85.3565 23.4672 85.3565 23.1628C85.3565 22.8679 85.3755 22.5873 85.4135 22.321C85.4611 22.0451 85.5277 21.7931 85.6133 21.5648C85.6989 21.327 85.8035 21.1082 85.9272 20.9085C86.0508 20.7087 86.1888 20.528 86.3409 20.3663C86.4931 20.2046 86.6596 20.0619 86.8403 19.9382C87.0306 19.8146 87.2256 19.7099 87.4253 19.6243C87.6346 19.5387 87.8486 19.4769 88.0674 19.4389C88.2956 19.3913 88.5287 19.3675 88.7665 19.3675C89.0138 19.3675 89.2468 19.3913 89.4656 19.4389C89.6939 19.4769 89.9079 19.5387 90.1077 19.6243C90.3074 19.7099 90.4929 19.8193 90.6641 19.9525C90.8449 20.0762 91.0066 20.2188 91.1492 20.3805C91.3014 20.5422 91.4346 20.723 91.5487 20.9227C91.6629 21.1225 91.758 21.3412 91.8341 21.579C91.9197 21.8073 91.9815 22.0546 92.0196 22.321C92.0671 22.5873 92.0909 22.8679 92.0909 23.1628V23.6051H87.1114C87.178 24.2995 87.373 24.8131 87.6964 25.146C88.0293 25.4694 88.4383 25.6311 88.9234 25.6311C89.2659 25.6311 89.5607 25.5408 89.808 25.3601C90.0649 25.1793 90.2836 24.9225 90.4644 24.5896ZM88.7522 20.723C88.3527 20.723 88.0055 20.8609 87.7107 21.1367C87.4158 21.4031 87.2256 21.8454 87.1399 22.4637H90.3502C90.2741 21.8549 90.0887 21.4126 89.7938 21.1367C89.5084 20.8609 89.1612 20.723 88.7522 20.723ZM96.267 26.901C96.0196 26.901 95.7818 26.8725 95.5536 26.8154C95.3348 26.7583 95.1255 26.6775 94.9258 26.5728C94.726 26.4682 94.5405 26.335 94.3693 26.1733C94.1981 26.0116 94.0459 25.8309 93.9127 25.6311C93.7796 25.4219 93.6654 25.1888 93.5703 24.932C93.4752 24.6752 93.3991 24.3993 93.342 24.1045C93.2945 23.8096 93.2707 23.491 93.2707 23.1485C93.2707 22.8061 93.2945 22.4827 93.342 22.1783C93.3991 21.8739 93.4752 21.5981 93.5703 21.3508C93.6654 21.0939 93.7796 20.8609 93.9127 20.6516C94.0459 20.4424 94.1981 20.2569 94.3693 20.0952C94.5405 19.9335 94.726 19.8003 94.9258 19.6957C95.1255 19.591 95.3348 19.5102 95.5536 19.4531C95.7818 19.3961 96.0196 19.3675 96.267 19.3675C96.7616 19.3675 97.1896 19.4817 97.5511 19.7099C97.9125 19.9382 98.1979 20.2664 98.4071 20.6944V19.4817H100.248V26.7583C100.248 27.0056 100.224 27.2387 100.176 27.4574C100.129 27.6762 100.062 27.8807 99.9766 28.071C99.891 28.2612 99.7864 28.4372 99.6627 28.5989C99.5391 28.7606 99.3964 28.908 99.2347 29.0412C99.073 29.1743 98.897 29.2885 98.7068 29.3836C98.526 29.4882 98.3263 29.5738 98.1075 29.6404C97.8983 29.7165 97.6747 29.7688 97.4369 29.7974C97.1991 29.8354 96.9566 29.8544 96.7093 29.8544C95.9768 29.8544 95.3348 29.7308 94.7831 29.4835C94.2409 29.2457 93.8081 28.9223 93.4847 28.5133L94.512 27.3861C94.8164 27.738 95.1398 27.9996 95.4822 28.1708C95.8342 28.342 96.2194 28.4277 96.6379 28.4277C97.1516 28.4277 97.5749 28.2802 97.9078 27.9853C98.2407 27.7 98.4071 27.2339 98.4071 26.5871V25.5741C98.1979 26.0021 97.9125 26.3303 97.5511 26.5586C97.1896 26.7868 96.7616 26.901 96.267 26.901ZM96.7663 25.4885C97.2419 25.4885 97.6319 25.2935 97.9363 24.9035C98.2502 24.5135 98.4071 23.9285 98.4071 23.1485C98.4071 22.359 98.2502 21.7693 97.9363 21.3793C97.6319 20.9893 97.2419 20.7943 96.7663 20.7943C96.2907 20.7943 95.8912 20.9893 95.5678 21.3793C95.2539 21.7693 95.097 22.359 95.097 23.1485C95.097 23.9285 95.2539 24.5135 95.5678 24.9035C95.8912 25.2935 96.2907 25.4885 96.7663 25.4885ZM101.812 23.1628C101.812 22.8679 101.831 22.5873 101.869 22.321C101.917 22.0451 101.983 21.7883 102.069 21.5505C102.154 21.3127 102.259 21.0939 102.383 20.8942C102.506 20.6944 102.644 20.5137 102.796 20.352C102.949 20.1903 103.115 20.0476 103.296 19.924C103.486 19.7908 103.686 19.6814 103.895 19.5958C104.114 19.5102 104.337 19.4484 104.566 19.4103C104.803 19.3628 105.046 19.339 105.293 19.339C105.541 19.339 105.778 19.3628 106.007 19.4103C106.245 19.4484 106.468 19.5102 106.677 19.5958C106.887 19.6814 107.082 19.7908 107.262 19.924C107.453 20.0476 107.624 20.1903 107.776 20.352C107.938 20.5137 108.08 20.6944 108.204 20.8942C108.328 21.0939 108.432 21.3127 108.518 21.5505C108.603 21.7883 108.665 22.0451 108.703 22.321C108.751 22.5873 108.775 22.8679 108.775 23.1628C108.775 23.4672 108.751 23.7573 108.703 24.0331C108.665 24.2995 108.603 24.5515 108.518 24.7893C108.432 25.0271 108.328 25.2459 108.204 25.4457C108.08 25.6454 107.938 25.8309 107.776 26.0021C107.624 26.1638 107.453 26.3065 107.262 26.4301C107.082 26.5538 106.887 26.6584 106.677 26.744C106.468 26.8296 106.245 26.8915 106.007 26.9295C105.778 26.9771 105.541 27.0009 105.293 27.0009C105.046 27.0009 104.803 26.9771 104.566 26.9295C104.337 26.8915 104.114 26.8296 103.895 26.744C103.686 26.6584 103.486 26.5538 103.296 26.4301C103.115 26.3065 102.949 26.1638 102.796 26.0021C102.644 25.8309 102.506 25.6454 102.383 25.4457C102.259 25.2459 102.154 25.0271 102.069 24.7893C101.983 24.5515 101.917 24.2995 101.869 24.0331C101.831 23.7573 101.812 23.4672 101.812 23.1628ZM106.963 23.1628C106.963 22.3828 106.801 21.7931 106.478 21.3936C106.164 20.9941 105.769 20.7943 105.293 20.7943C104.808 20.7943 104.409 20.9941 104.095 21.3936C103.781 21.7931 103.624 22.3828 103.624 23.1628C103.624 23.9618 103.781 24.5658 104.095 24.9748C104.409 25.3743 104.808 25.5741 105.293 25.5741C105.769 25.5741 106.164 25.3743 106.478 24.9748C106.801 24.5658 106.963 23.9618 106.963 23.1628ZM112.189 26.8867H110.349V19.4817H112.189V20.937C112.408 20.3948 112.722 19.9953 113.131 19.7385C113.549 19.4721 113.987 19.339 114.444 19.339C114.539 19.339 114.634 19.3485 114.729 19.3675C114.834 19.377 114.933 19.3865 115.029 19.3961L114.929 21.0654C114.786 21.0369 114.648 21.0178 114.515 21.0083C114.382 20.9893 114.253 20.9798 114.13 20.9798C113.578 20.9798 113.117 21.1795 112.746 21.579C112.375 21.9786 112.189 22.516 112.189 23.1913V26.8867ZM115.638 29.5691L116.08 28.1138C116.27 28.2089 116.461 28.285 116.651 28.342C116.841 28.4086 117.022 28.4419 117.193 28.4419C117.431 28.4419 117.626 28.3753 117.778 28.2422C117.94 28.109 118.097 27.8332 118.249 27.4146L118.377 27.0579L115.481 19.4817H117.436L119.319 24.8892L121.274 19.4817H123.114L119.933 27.8855C119.647 28.6464 119.29 29.1743 118.862 29.4692C118.434 29.7736 117.926 29.9258 117.336 29.9258C117.06 29.9258 116.765 29.8973 116.451 29.8402C116.147 29.7831 115.876 29.6927 115.638 29.5691Z" fill="black"/>
<mask id="path-6-inside-2_1093_28940" fill="white">
<path d="M2 42.2422H331V314.242H2V42.2422Z"/>
</mask>
<path d="M331 314.242V313.35H2V314.242V315.134H331V314.242Z" fill="#CCD6DB" mask="url(#path-6-inside-2_1093_28940)"/>
<g clip-path="url(#clip1_1093_28940)">
<path d="M23.4019 279.001H309.598V63.6445H23.4019V279.001Z" fill="white"/>
<path d="M60.8491 116.238C53.3984 125.118 47.8514 135.434 44.5531 146.546C41.2548 157.658 40.275 169.331 41.6748 180.837C43.0745 192.343 46.8241 203.44 52.6904 213.437C58.5566 223.435 66.4152 232.12 75.7774 238.955L125.659 170.62L60.8491 116.238Z" fill="#DD8452"/>
<path d="M75.7778 238.955C87.5023 247.514 101.234 252.912 115.648 254.63C130.062 256.348 144.679 254.327 158.086 248.764C171.493 243.2 183.246 234.278 192.209 222.86C201.172 211.442 207.047 197.907 209.267 183.562L125.659 170.621L75.7778 238.955Z" fill="#55A868"/>
<path d="M209.27 183.562C211.368 170.004 210.138 156.137 205.685 143.16C201.231 130.184 193.688 118.483 183.707 109.07L125.662 170.622L209.27 183.562Z" fill="#55A868"/>
<path d="M183.704 109.072C175.321 101.166 165.411 95.0561 154.582 91.1169C143.754 87.1777 132.234 85.4919 120.731 86.1632C109.228 86.8345 97.982 89.8487 87.6852 95.0207C77.3884 100.193 68.256 107.414 60.8494 116.241L125.659 170.623L183.704 109.072Z" fill="#4C72B0"/>
<path d="M29.3288 253.155V253.908H24.8602V246.783H25.7661V253.155H29.3288ZM33.5435 252.422L34.2255 252.666C34.0762 253.019 33.8319 253.328 33.4926 253.593C33.1533 253.857 32.7258 253.99 32.2101 253.99C32.0201 253.99 31.8368 253.969 31.6604 253.929C31.4908 253.888 31.3279 253.83 31.1718 253.756C31.0157 253.681 30.8698 253.586 30.7341 253.471C30.6052 253.355 30.4898 253.226 30.388 253.084C30.2862 252.934 30.198 252.768 30.1234 252.585C30.0487 252.402 29.991 252.205 29.9503 251.995C29.9164 251.777 29.8994 251.547 29.8994 251.302C29.8994 251.092 29.913 250.892 29.9401 250.702C29.9741 250.512 30.0182 250.335 30.0725 250.172C30.1268 250.01 30.1912 249.86 30.2659 249.725C30.3473 249.582 30.4355 249.453 30.5305 249.338C30.6323 249.222 30.7409 249.121 30.8563 249.032C30.9784 248.944 31.104 248.873 31.2329 248.819C31.3686 248.758 31.5077 248.713 31.6502 248.686C31.7995 248.652 31.9522 248.635 32.1083 248.635C32.7462 248.635 33.2687 248.87 33.6759 249.338C34.083 249.806 34.2866 250.454 34.2866 251.282V251.516H30.7443C30.7714 252.127 30.9207 252.575 31.1922 252.86C31.4636 253.145 31.8029 253.287 32.2101 253.287C32.5155 253.287 32.7767 253.213 32.9939 253.063C33.211 252.914 33.3942 252.7 33.5435 252.422ZM32.0981 249.307C31.752 249.307 31.4534 249.433 31.2024 249.684C30.9581 249.928 30.8088 250.322 30.7545 250.865H33.4519C33.3909 250.322 33.2348 249.928 32.9837 249.684C32.7394 249.433 32.4442 249.307 32.0981 249.307ZM37.3535 253.959C37.1839 253.959 37.021 253.942 36.8649 253.908C36.7089 253.867 36.563 253.81 36.4272 253.735C36.2915 253.654 36.1626 253.559 36.0404 253.45C35.9251 253.335 35.8199 253.206 35.7249 253.063C35.6367 252.914 35.5586 252.751 35.4908 252.575C35.4229 252.392 35.372 252.195 35.3381 251.984C35.3041 251.774 35.2872 251.547 35.2872 251.302C35.2872 251.058 35.3041 250.831 35.3381 250.62C35.372 250.41 35.4229 250.213 35.4908 250.03C35.5586 249.847 35.6367 249.684 35.7249 249.541C35.8199 249.392 35.9251 249.263 36.0404 249.155C36.1626 249.039 36.2915 248.944 36.4272 248.87C36.563 248.788 36.7089 248.73 36.8649 248.697C37.021 248.656 37.1839 248.635 37.3535 248.635C37.72 248.635 38.0355 248.724 38.3002 248.9C38.5716 249.077 38.7854 249.331 38.9415 249.664V248.717H39.7965V254.01C39.7965 254.166 39.7795 254.315 39.7456 254.458C39.7185 254.6 39.6778 254.733 39.6235 254.855C39.5692 254.977 39.5013 255.089 39.4199 255.191C39.3452 255.299 39.257 255.394 39.1552 255.476C39.0602 255.564 38.955 255.639 38.8397 255.7C38.7243 255.768 38.6022 255.822 38.4732 255.863C38.3443 255.91 38.2086 255.944 38.0661 255.964C37.9236 255.985 37.7777 255.995 37.6284 255.995C37.1398 255.995 36.7055 255.89 36.3255 255.679C35.9522 255.476 35.6774 255.208 35.5009 254.875L36.1219 254.407C36.2915 254.699 36.5019 254.919 36.753 255.069C37.0108 255.218 37.2959 255.293 37.608 255.293C37.9745 255.293 38.2866 255.187 38.5445 254.977C38.8091 254.767 38.9415 254.41 38.9415 253.908V252.931C38.7854 253.264 38.5716 253.518 38.3002 253.694C38.0355 253.871 37.72 253.959 37.3535 253.959ZM37.5469 253.267C37.9541 253.267 38.2866 253.104 38.5445 252.778C38.8091 252.446 38.9415 251.954 38.9415 251.302C38.9415 250.637 38.8091 250.142 38.5445 249.816C38.2866 249.49 37.9541 249.328 37.5469 249.328C37.1398 249.328 36.8039 249.49 36.5392 249.816C36.2813 250.142 36.1524 250.637 36.1524 251.302C36.1524 251.954 36.2813 252.446 36.5392 252.778C36.8039 253.104 37.1398 253.267 37.5469 253.267ZM42.7502 253.99C42.2616 253.99 41.8714 253.857 41.5796 253.593C41.2878 253.321 41.1419 252.989 41.1419 252.595C41.1419 252.107 41.3183 251.73 41.6712 251.465C42.0241 251.194 42.5059 251.034 43.1166 250.987L44.3483 250.885V250.407C44.3483 250.04 44.2431 249.769 44.0328 249.592C43.8292 249.416 43.5713 249.328 43.2591 249.328C42.9877 249.328 42.7298 249.395 42.4855 249.531C42.248 249.667 42.0478 249.901 41.885 250.234L41.2132 249.887C41.3896 249.521 41.6509 249.219 41.9969 248.982C42.343 248.744 42.7807 248.625 43.31 248.625C43.8461 248.625 44.2974 248.781 44.6639 249.094C45.0303 249.399 45.2135 249.837 45.2135 250.407V253.908H44.3483V253.155C44.1922 253.413 43.9717 253.616 43.6867 253.766C43.4084 253.915 43.0963 253.99 42.7502 253.99ZM41.9766 252.524C41.9766 252.802 42.0784 253.006 42.282 253.135C42.4855 253.264 42.7231 253.328 42.9945 253.328C43.0963 253.328 43.1947 253.318 43.2897 253.297C43.3847 253.277 43.4763 253.25 43.5645 253.216C43.6527 253.182 43.7376 253.138 43.819 253.084C43.9004 253.029 43.9717 252.968 44.0328 252.9C44.1006 252.826 44.1549 252.748 44.1956 252.666C44.2431 252.585 44.2805 252.497 44.3076 252.402C44.3347 252.3 44.3483 252.195 44.3483 252.086V251.547L43.2999 251.638C42.8588 251.679 42.5263 251.771 42.3023 251.913C42.0852 252.049 41.9766 252.252 41.9766 252.524ZM47.7204 253.908H46.8653V246.783H47.7204V253.908ZM26.9265 263.99C26.2954 263.99 25.7491 263.834 25.2877 263.521C24.833 263.202 24.4903 262.748 24.2596 262.157L24.9721 261.781C25.1961 262.31 25.4743 262.694 25.8068 262.931C26.1393 263.162 26.5092 263.277 26.9163 263.277C27.3031 263.277 27.6221 263.172 27.8732 262.962C28.131 262.744 28.26 262.453 28.26 262.086C28.26 261.991 28.2464 261.903 28.2192 261.821C28.1989 261.74 28.165 261.665 28.1175 261.598C28.0767 261.53 28.0258 261.465 27.9648 261.404C27.9105 261.343 27.846 261.289 27.7714 261.241C27.6967 261.187 27.6153 261.136 27.5271 261.089C27.4389 261.041 27.3472 260.997 27.2522 260.956C27.1572 260.916 27.0588 260.875 26.957 260.834C26.8553 260.793 26.7501 260.753 26.6415 260.712C26.5397 260.671 26.4379 260.634 26.3361 260.6C26.2411 260.559 26.1427 260.519 26.0409 260.478C25.9459 260.43 25.8509 260.383 25.7559 260.335C25.6677 260.288 25.5795 260.237 25.4913 260.183C25.403 260.128 25.3182 260.071 25.2368 260.01C25.1621 259.942 25.0909 259.874 25.023 259.806C24.9552 259.731 24.8907 259.653 24.8296 259.572C24.7753 259.484 24.7278 259.392 24.6871 259.297C24.6532 259.195 24.626 259.087 24.6057 258.971C24.5853 258.856 24.5751 258.734 24.5751 258.605C24.5751 258.048 24.7685 257.594 25.1553 257.241C25.5489 256.881 26.0613 256.701 26.6924 256.701C27.2556 256.701 27.7374 256.847 28.1378 257.139C28.5382 257.424 28.8537 257.882 29.0845 258.513L28.3618 258.808C28.1717 258.3 27.9342 257.943 27.6492 257.74C27.3642 257.529 27.0453 257.424 26.6924 257.424C26.3599 257.424 26.0715 257.526 25.8272 257.73C25.5897 257.926 25.4709 258.201 25.4709 258.554C25.4709 258.649 25.4811 258.741 25.5014 258.829C25.5218 258.91 25.5523 258.988 25.593 259.063C25.6338 259.131 25.6813 259.195 25.7356 259.256C25.7966 259.317 25.8611 259.375 25.929 259.429C25.9968 259.477 26.0715 259.524 26.1529 259.572C26.2343 259.619 26.3192 259.664 26.4074 259.704C26.5024 259.745 26.5974 259.786 26.6924 259.826C26.7874 259.867 26.8858 259.908 26.9876 259.949C27.0894 259.989 27.1912 260.03 27.293 260.071C27.4015 260.111 27.5067 260.152 27.6085 260.193C27.7103 260.234 27.8087 260.278 27.9037 260.325C28.0055 260.373 28.1005 260.424 28.1887 260.478C28.2837 260.532 28.3719 260.59 28.4534 260.651C28.5416 260.712 28.6196 260.78 28.6875 260.854C28.7621 260.929 28.8266 261.007 28.8809 261.089C28.942 261.17 28.9929 261.262 29.0336 261.363C29.0743 261.458 29.1048 261.564 29.1252 261.679C29.1523 261.794 29.1659 261.916 29.1659 262.045C29.1659 262.609 28.9589 263.074 28.545 263.44C28.131 263.806 27.5915 263.99 26.9265 263.99ZM34.4838 263.908H33.6287V263.165C33.4794 263.437 33.2792 263.644 33.0281 263.786C32.7771 263.922 32.4988 263.99 32.1935 263.99C31.7049 263.99 31.2977 263.827 30.972 263.501C30.6462 263.175 30.4834 262.717 30.4834 262.127V258.717H31.3384V262.005C31.3384 262.425 31.447 262.748 31.6641 262.972C31.8813 263.189 32.1561 263.297 32.4887 263.297C32.8076 263.297 33.0756 263.189 33.2928 262.972C33.5167 262.748 33.6287 262.425 33.6287 262.005V258.717H34.4838V263.908ZM37.0149 265.954H36.1599V258.717H37.0149V259.674C37.171 259.341 37.3848 259.087 37.6562 258.91C37.9276 258.727 38.25 258.635 38.6232 258.635C39.2068 258.635 39.692 258.87 40.0788 259.338C40.4724 259.806 40.6692 260.464 40.6692 261.313C40.6692 262.161 40.4724 262.819 40.0788 263.287C39.692 263.756 39.2068 263.99 38.6232 263.99C38.25 263.99 37.9276 263.901 37.6562 263.725C37.3848 263.542 37.171 263.284 37.0149 262.951V265.954ZM38.4095 263.277C38.8166 263.277 39.1525 263.114 39.4172 262.789C39.6818 262.456 39.8142 261.961 39.8142 261.302C39.8142 260.644 39.6818 260.152 39.4172 259.826C39.1525 259.501 38.8166 259.338 38.4095 259.338C38.0023 259.338 37.6664 259.501 37.4017 259.826C37.1439 260.152 37.0149 260.644 37.0149 261.302C37.0149 261.961 37.1439 262.456 37.4017 262.789C37.6664 263.114 38.0023 263.277 38.4095 263.277ZM42.8898 265.954H42.0347V258.717H42.8898V259.674C43.0458 259.341 43.2596 259.087 43.531 258.91C43.8025 258.727 44.1248 258.635 44.4981 258.635C45.0817 258.635 45.5669 258.87 45.9537 259.338C46.3473 259.806 46.544 260.464 46.544 261.313C46.544 262.161 46.3473 262.819 45.9537 263.287C45.5669 263.756 45.0817 263.99 44.4981 263.99C44.1248 263.99 43.8025 263.901 43.531 263.725C43.2596 263.542 43.0458 263.284 42.8898 262.951V265.954ZM44.2843 263.277C44.6915 263.277 45.0274 263.114 45.292 262.789C45.5567 262.456 45.689 261.961 45.689 261.302C45.689 260.644 45.5567 260.152 45.292 259.826C45.0274 259.501 44.6915 259.338 44.2843 259.338C43.8771 259.338 43.5412 259.501 43.2766 259.826C43.0187 260.152 42.8898 260.644 42.8898 261.302C42.8898 261.961 43.0187 262.456 43.2766 262.789C43.5412 263.114 43.8771 263.277 44.2843 263.277ZM47.5736 261.302C47.5736 261.092 47.5872 260.895 47.6144 260.712C47.6483 260.522 47.6924 260.346 47.7467 260.183C47.801 260.013 47.8654 259.86 47.9401 259.725C48.0215 259.582 48.1131 259.453 48.2149 259.338C48.3167 259.222 48.4253 259.121 48.5407 259.032C48.6628 258.944 48.7917 258.87 48.9275 258.808C49.0632 258.747 49.2057 258.703 49.355 258.676C49.5111 258.642 49.6705 258.625 49.8334 258.625C49.9963 258.625 50.1523 258.642 50.3016 258.676C50.4577 258.703 50.6036 258.747 50.7393 258.808C50.8751 258.87 51.004 258.944 51.1261 259.032C51.2483 259.121 51.3603 259.222 51.4621 259.338C51.5638 259.453 51.6521 259.582 51.7267 259.725C51.8081 259.86 51.876 260.013 51.9303 260.183C51.9846 260.346 52.0253 260.522 52.0524 260.712C52.0864 260.895 52.1033 261.092 52.1033 261.302C52.1033 261.547 52.083 261.777 52.0423 261.995C52.0083 262.205 51.954 262.402 51.8794 262.585C51.8115 262.761 51.7267 262.924 51.6249 263.074C51.5231 263.223 51.4078 263.355 51.2788 263.471C51.1499 263.579 51.0074 263.674 50.8513 263.756C50.702 263.83 50.5425 263.888 50.3729 263.929C50.2032 263.969 50.0234 263.99 49.8334 263.99C49.6705 263.99 49.5111 263.973 49.355 263.939C49.2057 263.912 49.0632 263.867 48.9275 263.806C48.7917 263.745 48.6628 263.674 48.5407 263.593C48.4253 263.504 48.3167 263.403 48.2149 263.287C48.1131 263.172 48.0215 263.043 47.9401 262.9C47.8654 262.758 47.801 262.605 47.7467 262.442C47.6924 262.273 47.6483 262.093 47.6144 261.903C47.5872 261.713 47.5736 261.513 47.5736 261.302ZM51.2483 261.302C51.2483 260.651 51.1126 260.159 50.8411 259.826C50.5765 259.494 50.2406 259.328 49.8334 259.328C49.4262 259.328 49.0903 259.494 48.8257 259.826C48.561 260.159 48.4287 260.651 48.4287 261.302C48.4287 261.961 48.561 262.459 48.8257 262.799C49.0903 263.131 49.4262 263.297 49.8334 263.297C50.2406 263.297 50.5765 263.131 50.8411 262.799C51.1126 262.459 51.2483 261.961 51.2483 261.302ZM54.3114 263.908H53.4564V258.717H54.3114V259.653C54.4607 259.314 54.6711 259.06 54.9425 258.89C55.2139 258.713 55.5057 258.625 55.8179 258.625C55.8993 258.625 55.9774 258.632 56.052 258.646C56.1267 258.659 56.2047 258.676 56.2861 258.697L56.1945 259.501C56.0995 259.474 56.0113 259.453 55.9299 259.44C55.8484 259.426 55.767 259.419 55.6856 259.419C55.2988 259.419 54.973 259.562 54.7084 259.847C54.4437 260.125 54.3114 260.519 54.3114 261.028V263.908ZM60.2323 263.114L60.2934 263.796C60.1848 263.857 60.0389 263.905 59.8557 263.939C59.6724 263.973 59.4926 263.99 59.3162 263.99C58.8954 263.99 58.5697 263.878 58.339 263.654C58.1082 263.423 57.9929 263.121 57.9929 262.748V259.409H56.8019V258.717H57.9929V257.271H58.8479V258.717H60.273V259.409H58.8479V262.605C58.8479 262.816 58.9056 262.982 59.021 263.104C59.1363 263.219 59.2958 263.277 59.4994 263.277C59.6283 263.277 59.7505 263.264 59.8658 263.236C59.9812 263.202 60.1033 263.162 60.2323 263.114Z" fill="black"/>
<path d="M60.6758 178.537H64.0639V179.354H59.5085V178.537C59.8766 178.155 60.3785 177.644 61.0142 177.002C61.6509 176.359 62.0507 175.944 62.2138 175.757C62.5244 175.409 62.7413 175.113 62.8643 174.871C62.9884 174.629 63.0504 174.391 63.0504 174.158C63.0504 173.776 62.9166 173.465 62.649 173.225C62.3814 172.984 62.0328 172.864 61.6032 172.864C61.2987 172.864 60.9773 172.917 60.6389 173.022C60.3016 173.128 59.9407 173.288 59.5562 173.504V172.522C59.9469 172.366 60.3119 172.247 60.6512 172.167C60.9916 172.087 61.3028 172.047 61.5848 172.047C62.3281 172.047 62.9207 172.233 63.3626 172.605C63.8045 172.977 64.0255 173.473 64.0255 174.094C64.0255 174.39 63.9701 174.67 63.8594 174.934C63.7496 175.198 63.5487 175.509 63.2565 175.868C63.1765 175.961 62.9217 176.23 62.4921 176.674C62.0636 177.118 61.4581 177.739 60.6758 178.537Z" fill="white"/>
<path d="M68.299 175.378C67.8633 175.378 67.5177 175.527 67.2624 175.825C67.0082 176.123 66.881 176.531 66.881 177.05C66.881 177.565 67.0082 177.973 67.2624 178.274C67.5177 178.573 67.8633 178.723 68.299 178.723C68.7348 178.723 69.0798 178.573 69.334 178.274C69.5883 177.973 69.7154 177.565 69.7154 177.05C69.7154 176.531 69.5883 176.123 69.334 175.825C69.0798 175.527 68.7348 175.378 68.299 175.378ZM70.226 172.333V173.218C69.982 173.103 69.736 173.015 69.4878 172.955C69.2397 172.893 68.9936 172.863 68.7496 172.863C68.1088 172.863 67.6192 173.079 67.2809 173.512C66.9436 173.944 66.7508 174.598 66.7026 175.473C66.8913 175.194 67.1281 174.98 67.4132 174.831C67.6992 174.683 68.0135 174.608 68.3559 174.608C69.0767 174.608 69.6462 174.827 70.0646 175.265C70.4829 175.702 70.692 176.297 70.692 177.05C70.692 177.787 70.4742 178.379 70.0384 178.825C69.6027 179.27 69.0229 179.492 68.299 179.492C67.4685 179.492 66.8339 179.174 66.3951 178.539C65.9562 177.902 65.7368 176.979 65.7368 175.771C65.7368 174.637 66.006 173.733 66.5442 173.058C67.0825 172.383 67.8048 172.046 68.7112 172.046C68.9552 172.046 69.2013 172.07 69.4494 172.118C69.6975 172.166 69.9564 172.238 70.226 172.333Z" fill="white"/>
<path d="M72.3647 178.128H73.3798V179.35H72.3647V178.128Z" fill="white"/>
<path d="M75.6607 178.533H77.2463V173.057L75.5208 173.403V172.519L77.2371 172.172H78.2075V178.533H79.7931V179.35H75.6607V178.533Z" fill="white"/>
<path d="M87.8599 176.194C87.5811 176.194 87.3622 176.313 87.2032 176.55C87.0453 176.787 86.9664 177.117 86.9664 177.54C86.9664 177.957 87.0453 178.284 87.2032 178.523C87.3622 178.762 87.5811 178.882 87.8599 178.882C88.1327 178.882 88.348 178.762 88.5059 178.523C88.6648 178.284 88.7442 177.957 88.7442 177.54C88.7442 177.12 88.6648 176.791 88.5059 176.553C88.348 176.314 88.1327 176.194 87.8599 176.194ZM87.8599 175.584C88.3664 175.584 88.7683 175.76 89.0657 176.113C89.364 176.465 89.5132 176.94 89.5132 177.54C89.5132 178.139 89.3635 178.614 89.0641 178.966C88.7648 179.317 88.3633 179.492 87.8599 179.492C87.3473 179.492 86.9418 179.317 86.6434 178.966C86.3461 178.614 86.1974 178.139 86.1974 177.54C86.1974 176.937 86.3471 176.46 86.6465 176.11C86.9459 175.759 87.3504 175.584 87.8599 175.584ZM82.9001 172.656C82.6243 172.656 82.4069 172.776 82.248 173.015C82.0901 173.253 82.0112 173.58 82.0112 173.998C82.0112 174.42 82.0896 174.75 82.2465 174.988C82.4034 175.225 82.6212 175.344 82.9001 175.344C83.179 175.344 83.3974 175.225 83.5553 174.988C83.7142 174.75 83.7936 174.42 83.7936 173.998C83.7936 173.585 83.7137 173.258 83.5537 173.018C83.3938 172.777 83.1759 172.656 82.9001 172.656ZM87.2401 172.046H88.0091L83.5199 179.492H82.7509L87.2401 172.046ZM82.9001 172.046C83.4066 172.046 83.81 172.221 84.1105 172.572C84.4119 172.923 84.5626 173.398 84.5626 173.998C84.5626 174.603 84.4129 175.08 84.1135 175.43C83.8141 175.78 83.4097 175.954 82.9001 175.954C82.3905 175.954 81.9876 175.779 81.6913 175.428C81.395 175.077 81.2468 174.6 81.2468 173.998C81.2468 173.401 81.3955 172.927 81.6928 172.575C81.9912 172.222 82.3936 172.046 82.9001 172.046Z" fill="white"/>
<path d="M187.166 254.891V255.645H182.697V248.519H183.603V254.891H187.166ZM188.709 249.415C188.546 249.415 188.4 249.357 188.271 249.242C188.149 249.127 188.088 248.981 188.088 248.804C188.088 248.635 188.149 248.495 188.271 248.387C188.4 248.271 188.546 248.214 188.709 248.214C188.865 248.214 189.008 248.271 189.137 248.387C189.265 248.495 189.33 248.635 189.33 248.804C189.33 248.981 189.265 249.127 189.137 249.242C189.008 249.357 188.865 249.415 188.709 249.415ZM189.126 255.645H188.271V250.453H189.126V255.645ZM193.626 254.851L193.687 255.533C193.578 255.594 193.432 255.641 193.249 255.675C193.066 255.709 192.886 255.726 192.71 255.726C192.289 255.726 191.963 255.614 191.732 255.39C191.502 255.159 191.386 254.857 191.386 254.484V251.145H190.195V250.453H191.386V249.008H192.241V250.453H193.666V251.145H192.241V254.342C192.241 254.552 192.299 254.718 192.414 254.84C192.53 254.956 192.689 255.013 192.893 255.013C193.022 255.013 193.144 255 193.259 254.973C193.375 254.939 193.497 254.898 193.626 254.851ZM195.16 249.415C194.998 249.415 194.852 249.357 194.723 249.242C194.601 249.127 194.539 248.981 194.539 248.804C194.539 248.635 194.601 248.495 194.723 248.387C194.852 248.271 194.998 248.214 195.16 248.214C195.316 248.214 195.459 248.271 195.588 248.387C195.717 248.495 195.781 248.635 195.781 248.804C195.781 248.981 195.717 249.127 195.588 249.242C195.459 249.357 195.316 249.415 195.16 249.415ZM195.578 255.645H194.723V250.453H195.578V255.645ZM198.988 255.695C198.818 255.695 198.655 255.678 198.499 255.645C198.343 255.604 198.197 255.546 198.062 255.471C197.926 255.39 197.797 255.295 197.675 255.186C197.559 255.071 197.454 254.942 197.359 254.8C197.271 254.65 197.193 254.488 197.125 254.311C197.057 254.128 197.006 253.931 196.972 253.721C196.939 253.51 196.922 253.283 196.922 253.039C196.922 252.794 196.939 252.567 196.972 252.357C197.006 252.146 197.057 251.95 197.125 251.766C197.193 251.583 197.271 251.42 197.359 251.278C197.454 251.128 197.559 250.999 197.675 250.891C197.797 250.776 197.926 250.681 198.062 250.606C198.197 250.524 198.343 250.467 198.499 250.433C198.655 250.392 198.818 250.372 198.988 250.372C199.354 250.372 199.67 250.46 199.935 250.636C200.206 250.813 200.42 251.067 200.576 251.4V250.453H201.431V255.746C201.431 255.902 201.414 256.052 201.38 256.194C201.353 256.337 201.312 256.469 201.258 256.591C201.204 256.713 201.136 256.825 201.054 256.927C200.98 257.036 200.891 257.131 200.79 257.212C200.695 257.3 200.589 257.375 200.474 257.436C200.359 257.504 200.237 257.558 200.108 257.599C199.979 257.646 199.843 257.68 199.7 257.701C199.558 257.721 199.412 257.731 199.263 257.731C198.774 257.731 198.34 257.626 197.96 257.416C197.587 257.212 197.312 256.944 197.135 256.612L197.756 256.143C197.926 256.435 198.136 256.656 198.387 256.805C198.645 256.954 198.93 257.029 199.242 257.029C199.609 257.029 199.921 256.924 200.179 256.713C200.444 256.503 200.576 256.147 200.576 255.645V254.667C200.42 255 200.206 255.254 199.935 255.431C199.67 255.607 199.354 255.695 198.988 255.695ZM199.181 255.003C199.589 255.003 199.921 254.84 200.179 254.515C200.444 254.182 200.576 253.69 200.576 253.039C200.576 252.374 200.444 251.878 200.179 251.553C199.921 251.227 199.589 251.064 199.181 251.064C198.774 251.064 198.438 251.227 198.174 251.553C197.916 251.878 197.787 252.374 197.787 253.039C197.787 253.69 197.916 254.182 198.174 254.515C198.438 254.84 198.774 255.003 199.181 255.003ZM204.385 255.726C203.896 255.726 203.506 255.594 203.214 255.329C202.922 255.058 202.776 254.725 202.776 254.331C202.776 253.843 202.953 253.466 203.306 253.202C203.659 252.93 204.14 252.771 204.751 252.723L205.983 252.621V252.143C205.983 251.776 205.878 251.505 205.667 251.329C205.464 251.152 205.206 251.064 204.894 251.064C204.622 251.064 204.364 251.132 204.12 251.268C203.882 251.403 203.682 251.637 203.519 251.97L202.848 251.624C203.024 251.257 203.285 250.955 203.631 250.718C203.977 250.48 204.415 250.362 204.944 250.362C205.481 250.362 205.932 250.518 206.298 250.83C206.665 251.135 206.848 251.573 206.848 252.143V255.645H205.983V254.891C205.827 255.149 205.606 255.353 205.321 255.502C205.043 255.651 204.731 255.726 204.385 255.726ZM203.611 254.26C203.611 254.538 203.713 254.742 203.916 254.871C204.12 255 204.357 255.064 204.629 255.064C204.731 255.064 204.829 255.054 204.924 255.034C205.019 255.013 205.111 254.986 205.199 254.952C205.287 254.918 205.372 254.874 205.453 254.82C205.535 254.766 205.606 254.705 205.667 254.637C205.735 254.562 205.789 254.484 205.83 254.403C205.878 254.321 205.915 254.233 205.942 254.138C205.969 254.036 205.983 253.931 205.983 253.822V253.283L204.934 253.375C204.493 253.415 204.161 253.507 203.937 253.649C203.72 253.785 203.611 253.989 203.611 254.26ZM211.141 254.851L211.202 255.533C211.093 255.594 210.947 255.641 210.764 255.675C210.581 255.709 210.401 255.726 210.225 255.726C209.804 255.726 209.478 255.614 209.248 255.39C209.017 255.159 208.901 254.857 208.901 254.484V251.145H207.711V250.453H208.901V249.008H209.757V250.453H211.182V251.145H209.757V254.342C209.757 254.552 209.814 254.718 209.93 254.84C210.045 254.956 210.204 255.013 210.408 255.013C210.537 255.013 210.659 255 210.774 254.973C210.89 254.939 211.012 254.898 211.141 254.851ZM212.676 249.415C212.513 249.415 212.367 249.357 212.238 249.242C212.116 249.127 212.055 248.981 212.055 248.804C212.055 248.635 212.116 248.495 212.238 248.387C212.367 248.271 212.513 248.214 212.676 248.214C212.832 248.214 212.974 248.271 213.103 248.387C213.232 248.495 213.296 248.635 213.296 248.804C213.296 248.981 213.232 249.127 213.103 249.242C212.974 249.357 212.832 249.415 212.676 249.415ZM213.093 255.645H212.238V250.453H213.093V255.645ZM214.437 253.039C214.437 252.828 214.45 252.632 214.477 252.448C214.511 252.258 214.556 252.082 214.61 251.919C214.664 251.749 214.729 251.597 214.803 251.461C214.885 251.318 214.976 251.189 215.078 251.074C215.18 250.959 215.288 250.857 215.404 250.769C215.526 250.681 215.655 250.606 215.791 250.545C215.926 250.484 216.069 250.44 216.218 250.412C216.374 250.379 216.534 250.362 216.697 250.362C216.859 250.362 217.015 250.379 217.165 250.412C217.321 250.44 217.467 250.484 217.602 250.545C217.738 250.606 217.867 250.681 217.989 250.769C218.111 250.857 218.223 250.959 218.325 251.074C218.427 251.189 218.515 251.318 218.59 251.461C218.671 251.597 218.739 251.749 218.793 251.919C218.848 252.082 218.888 252.258 218.916 252.448C218.949 252.632 218.966 252.828 218.966 253.039C218.966 253.283 218.946 253.514 218.905 253.731C218.871 253.941 218.817 254.138 218.743 254.321C218.675 254.498 218.59 254.661 218.488 254.81C218.386 254.959 218.271 255.091 218.142 255.207C218.013 255.315 217.871 255.41 217.714 255.492C217.565 255.566 217.406 255.624 217.236 255.665C217.066 255.706 216.887 255.726 216.697 255.726C216.534 255.726 216.374 255.709 216.218 255.675C216.069 255.648 215.926 255.604 215.791 255.543C215.655 255.482 215.526 255.41 215.404 255.329C215.288 255.241 215.18 255.139 215.078 255.024C214.976 254.908 214.885 254.779 214.803 254.637C214.729 254.494 214.664 254.342 214.61 254.179C214.556 254.009 214.511 253.829 214.477 253.639C214.45 253.449 214.437 253.249 214.437 253.039ZM218.111 253.039C218.111 252.387 217.976 251.895 217.704 251.563C217.44 251.23 217.104 251.064 216.697 251.064C216.289 251.064 215.953 251.23 215.689 251.563C215.424 251.895 215.292 252.387 215.292 253.039C215.292 253.697 215.424 254.196 215.689 254.535C215.953 254.868 216.289 255.034 216.697 255.034C217.104 255.034 217.44 254.868 217.704 254.535C217.976 254.196 218.111 253.697 218.111 253.039ZM224.32 255.645H223.465V252.357C223.465 251.929 223.353 251.607 223.129 251.39C222.912 251.166 222.637 251.054 222.304 251.054C221.985 251.054 221.717 251.166 221.5 251.39C221.283 251.607 221.175 251.929 221.175 252.357V255.645H220.319V250.453H221.175V251.196C221.324 250.925 221.524 250.721 221.775 250.586C222.026 250.443 222.304 250.372 222.61 250.372C223.098 250.372 223.506 250.535 223.831 250.86C224.157 251.186 224.32 251.644 224.32 252.235V255.645ZM188.168 265.726C187.537 265.726 186.991 265.57 186.529 265.258C186.075 264.939 185.732 264.484 185.501 263.894L186.214 263.517C186.438 264.046 186.716 264.43 187.049 264.667C187.381 264.898 187.751 265.013 188.158 265.013C188.545 265.013 188.864 264.908 189.115 264.698C189.373 264.481 189.502 264.189 189.502 263.822C189.502 263.727 189.488 263.639 189.461 263.558C189.441 263.476 189.407 263.402 189.359 263.334C189.319 263.266 189.268 263.202 189.207 263.14C189.152 263.079 189.088 263.025 189.013 262.978C188.938 262.923 188.857 262.872 188.769 262.825C188.681 262.777 188.589 262.733 188.494 262.693C188.399 262.652 188.301 262.611 188.199 262.57C188.097 262.53 187.992 262.489 187.883 262.448C187.781 262.408 187.68 262.37 187.578 262.336C187.483 262.296 187.384 262.255 187.283 262.214C187.188 262.167 187.093 262.119 186.998 262.072C186.909 262.024 186.821 261.973 186.733 261.919C186.645 261.865 186.56 261.807 186.479 261.746C186.404 261.678 186.333 261.61 186.265 261.542C186.197 261.468 186.132 261.39 186.071 261.308C186.017 261.22 185.97 261.128 185.929 261.033C185.895 260.932 185.868 260.823 185.847 260.708C185.827 260.592 185.817 260.47 185.817 260.341C185.817 259.785 186.01 259.33 186.397 258.977C186.791 258.618 187.303 258.438 187.934 258.438C188.497 258.438 188.979 258.584 189.38 258.875C189.78 259.16 190.096 259.619 190.326 260.25L189.604 260.545C189.414 260.036 189.176 259.68 188.891 259.476C188.606 259.266 188.287 259.16 187.934 259.16C187.602 259.16 187.313 259.262 187.069 259.466C186.831 259.663 186.713 259.937 186.713 260.29C186.713 260.385 186.723 260.477 186.743 260.565C186.764 260.647 186.794 260.725 186.835 260.799C186.876 260.867 186.923 260.932 186.977 260.993C187.038 261.054 187.103 261.111 187.171 261.166C187.239 261.213 187.313 261.261 187.395 261.308C187.476 261.356 187.561 261.4 187.649 261.441C187.744 261.481 187.839 261.522 187.934 261.563C188.029 261.603 188.128 261.644 188.229 261.685C188.331 261.726 188.433 261.766 188.535 261.807C188.643 261.848 188.748 261.888 188.85 261.929C188.952 261.97 189.05 262.014 189.145 262.061C189.247 262.109 189.342 262.16 189.43 262.214C189.525 262.268 189.614 262.326 189.695 262.387C189.783 262.448 189.861 262.516 189.929 262.591C190.004 262.665 190.068 262.743 190.123 262.825C190.184 262.906 190.235 262.998 190.275 263.1C190.316 263.195 190.347 263.3 190.367 263.415C190.394 263.531 190.408 263.653 190.408 263.782C190.408 264.345 190.201 264.81 189.787 265.176C189.373 265.543 188.833 265.726 188.168 265.726ZM195.726 265.645H194.87V264.901C194.721 265.173 194.521 265.38 194.27 265.522C194.019 265.658 193.741 265.726 193.435 265.726C192.947 265.726 192.539 265.563 192.214 265.237C191.888 264.912 191.725 264.454 191.725 263.863V260.453H192.58V263.741C192.58 264.162 192.689 264.484 192.906 264.708C193.123 264.925 193.398 265.034 193.73 265.034C194.049 265.034 194.317 264.925 194.535 264.708C194.759 264.484 194.87 264.162 194.87 263.741V260.453H195.726V265.645ZM198.257 267.691H197.402V260.453H198.257V261.41C198.413 261.078 198.627 260.823 198.898 260.647C199.169 260.463 199.492 260.372 199.865 260.372C200.449 260.372 200.934 260.606 201.321 261.074C201.714 261.542 201.911 262.201 201.911 263.049C201.911 263.897 201.714 264.555 201.321 265.024C200.934 265.492 200.449 265.726 199.865 265.726C199.492 265.726 199.169 265.638 198.898 265.461C198.627 265.278 198.413 265.02 198.257 264.688V267.691ZM199.651 265.013C200.058 265.013 200.394 264.851 200.659 264.525C200.924 264.192 201.056 263.697 201.056 263.039C201.056 262.38 200.924 261.888 200.659 261.563C200.394 261.237 200.058 261.074 199.651 261.074C199.244 261.074 198.908 261.237 198.643 261.563C198.386 261.888 198.257 262.38 198.257 263.039C198.257 263.697 198.386 264.192 198.643 264.525C198.908 264.851 199.244 265.013 199.651 265.013ZM204.132 267.691H203.276V260.453H204.132V261.41C204.288 261.078 204.501 260.823 204.773 260.647C205.044 260.463 205.367 260.372 205.74 260.372C206.323 260.372 206.809 260.606 207.195 261.074C207.589 261.542 207.786 262.201 207.786 263.049C207.786 263.897 207.589 264.555 207.195 265.024C206.809 265.492 206.323 265.726 205.74 265.726C205.367 265.726 205.044 265.638 204.773 265.461C204.501 265.278 204.288 265.02 204.132 264.688V267.691ZM205.526 265.013C205.933 265.013 206.269 264.851 206.534 264.525C206.798 264.192 206.931 263.697 206.931 263.039C206.931 262.38 206.798 261.888 206.534 261.563C206.269 261.237 205.933 261.074 205.526 261.074C205.119 261.074 204.783 261.237 204.518 261.563C204.26 261.888 204.132 262.38 204.132 263.039C204.132 263.697 204.26 264.192 204.518 264.525C204.783 264.851 205.119 265.013 205.526 265.013ZM208.815 263.039C208.815 262.828 208.829 262.632 208.856 262.448C208.89 262.258 208.934 262.082 208.988 261.919C209.043 261.749 209.107 261.597 209.182 261.461C209.263 261.318 209.355 261.189 209.457 261.074C209.558 260.959 209.667 260.857 209.782 260.769C209.905 260.681 210.034 260.606 210.169 260.545C210.305 260.484 210.447 260.44 210.597 260.412C210.753 260.379 210.912 260.362 211.075 260.362C211.238 260.362 211.394 260.379 211.543 260.412C211.699 260.44 211.845 260.484 211.981 260.545C212.117 260.606 212.246 260.681 212.368 260.769C212.49 260.857 212.602 260.959 212.704 261.074C212.806 261.189 212.894 261.318 212.968 261.461C213.05 261.597 213.118 261.749 213.172 261.919C213.226 262.082 213.267 262.258 213.294 262.448C213.328 262.632 213.345 262.828 213.345 263.039C213.345 263.283 213.325 263.514 213.284 263.731C213.25 263.941 213.196 264.138 213.121 264.321C213.053 264.498 212.968 264.661 212.867 264.81C212.765 264.959 212.65 265.091 212.521 265.207C212.392 265.315 212.249 265.41 212.093 265.492C211.944 265.566 211.784 265.624 211.615 265.665C211.445 265.706 211.265 265.726 211.075 265.726C210.912 265.726 210.753 265.709 210.597 265.675C210.447 265.648 210.305 265.604 210.169 265.543C210.034 265.482 209.905 265.41 209.782 265.329C209.667 265.241 209.558 265.139 209.457 265.024C209.355 264.908 209.263 264.779 209.182 264.637C209.107 264.494 209.043 264.342 208.988 264.179C208.934 264.009 208.89 263.829 208.856 263.639C208.829 263.449 208.815 263.249 208.815 263.039ZM212.49 263.039C212.49 262.387 212.354 261.895 212.083 261.563C211.818 261.23 211.482 261.064 211.075 261.064C210.668 261.064 210.332 261.23 210.067 261.563C209.803 261.895 209.67 262.387 209.67 263.039C209.67 263.697 209.803 264.196 210.067 264.535C210.332 264.868 210.668 265.034 211.075 265.034C211.482 265.034 211.818 264.868 212.083 264.535C212.354 264.196 212.49 263.697 212.49 263.039ZM215.553 265.645H214.698V260.453H215.553V261.39C215.702 261.05 215.913 260.796 216.184 260.626C216.456 260.45 216.748 260.362 217.06 260.362C217.141 260.362 217.219 260.368 217.294 260.382C217.368 260.396 217.446 260.412 217.528 260.433L217.436 261.237C217.341 261.21 217.253 261.189 217.172 261.176C217.09 261.162 217.009 261.156 216.927 261.156C216.541 261.156 216.215 261.298 215.95 261.583C215.685 261.861 215.553 262.255 215.553 262.764V265.645ZM221.474 264.851L221.535 265.533C221.427 265.594 221.281 265.641 221.097 265.675C220.914 265.709 220.734 265.726 220.558 265.726C220.137 265.726 219.811 265.614 219.581 265.39C219.35 265.159 219.235 264.857 219.235 264.484V261.145H218.044V260.453H219.235V259.008H220.09V260.453H221.515V261.145H220.09V264.342C220.09 264.552 220.147 264.718 220.263 264.84C220.378 264.956 220.538 265.013 220.741 265.013C220.87 265.013 220.992 265 221.108 264.973C221.223 264.939 221.345 264.898 221.474 264.851Z" fill="black"/>
<path d="M146.892 196.216H148.477V190.741L146.752 191.087V190.203L148.468 189.857H149.439V196.216H151.024V197.033H146.892V196.216Z" fill="white"/>
<path d="M152.998 189.855H156.809V190.674H153.887V192.432C154.027 192.383 154.167 192.347 154.308 192.324C154.449 192.3 154.591 192.289 154.732 192.289C155.533 192.289 156.167 192.508 156.635 192.947C157.104 193.386 157.338 193.98 157.338 194.729C157.338 195.502 157.097 196.102 156.617 196.531C156.136 196.958 155.458 197.172 154.583 197.172C154.282 197.172 153.975 197.146 153.662 197.095C153.35 197.044 153.028 196.967 152.695 196.864V195.888C152.983 196.044 153.281 196.161 153.588 196.238C153.896 196.315 154.221 196.354 154.563 196.354C155.118 196.354 155.557 196.208 155.88 195.917C156.204 195.626 156.366 195.23 156.366 194.729C156.366 194.23 156.204 193.835 155.88 193.544C155.557 193.251 155.118 193.105 154.563 193.105C154.304 193.105 154.045 193.134 153.787 193.191C153.529 193.249 153.266 193.339 152.998 193.461V189.855Z" fill="white"/>
<path d="M159.25 195.808H160.265V197.029H159.25V195.808Z" fill="white"/>
<path d="M165.046 190.699L162.594 194.53H165.046V190.699ZM164.79 189.853H166.012V194.53H167.036V195.337H166.012V197.029H165.046V195.337H161.807V194.401L164.79 189.853Z" fill="white"/>
<path d="M174.742 193.874C174.463 193.874 174.244 193.993 174.085 194.23C173.927 194.466 173.848 194.797 173.848 195.22C173.848 195.636 173.927 195.964 174.085 196.203C174.244 196.442 174.463 196.561 174.742 196.561C175.015 196.561 175.23 196.442 175.388 196.203C175.547 195.964 175.626 195.636 175.626 195.22C175.626 194.8 175.547 194.471 175.388 194.233C175.23 193.994 175.015 193.874 174.742 193.874ZM174.742 193.264C175.248 193.264 175.65 193.44 175.948 193.793C176.246 194.144 176.395 194.62 176.395 195.22C176.395 195.819 176.246 196.294 175.946 196.646C175.647 196.997 175.245 197.172 174.742 197.172C174.229 197.172 173.824 196.997 173.525 196.646C173.228 196.294 173.079 195.819 173.079 195.22C173.079 194.617 173.229 194.14 173.528 193.79C173.828 193.439 174.232 193.264 174.742 193.264ZM169.782 190.337C169.506 190.337 169.289 190.456 169.13 190.695C168.972 190.933 168.893 191.261 168.893 191.678C168.893 192.1 168.971 192.431 169.128 192.668C169.285 192.905 169.503 193.024 169.782 193.024C170.061 193.024 170.279 192.905 170.437 192.668C170.596 192.431 170.675 192.1 170.675 191.678C170.675 191.265 170.595 190.938 170.435 190.698C170.275 190.457 170.058 190.337 169.782 190.337ZM174.122 189.726H174.891L170.402 197.172H169.633L174.122 189.726ZM169.782 189.726C170.288 189.726 170.692 189.901 170.992 190.252C171.294 190.603 171.444 191.078 171.444 191.678C171.444 192.283 171.295 192.76 170.995 193.11C170.696 193.46 170.291 193.634 169.782 193.634C169.272 193.634 168.869 193.459 168.573 193.108C168.277 192.757 168.128 192.28 168.128 191.678C168.128 191.081 168.277 190.607 168.574 190.255C168.873 189.902 169.275 189.726 169.782 189.726Z" fill="white"/>
<path d="M25.1726 74.2324V67.1071H27.4222C28.1143 67.1071 28.6708 67.2835 29.0915 67.6364C29.5123 67.9893 29.7226 68.4846 29.7226 69.1225C29.7226 69.5772 29.6141 69.964 29.3969 70.2829C29.1798 70.6019 28.8846 70.836 28.5113 70.9853L30.0891 74.2324H29.0915L27.6257 71.1583C27.5918 71.1651 27.5579 71.1685 27.524 71.1685C27.49 71.1685 27.4561 71.1685 27.4222 71.1685H26.0785V74.2324H25.1726ZM27.4425 70.4254C27.8293 70.4254 28.1551 70.3203 28.4197 70.1099C28.6844 69.8995 28.8167 69.5806 28.8167 69.1531C28.8167 68.7188 28.6844 68.3964 28.4197 68.1861C28.1551 67.9757 27.8293 67.8705 27.4425 67.8705H26.0785V70.4254H27.4425ZM34.4624 72.7463L35.1443 72.9906C34.9951 73.3434 34.7508 73.6522 34.4115 73.9169C34.0722 74.1815 33.6446 74.3139 33.1289 74.3139C32.9389 74.3139 32.7557 74.2935 32.5792 74.2528C32.4096 74.2121 32.2467 74.1544 32.0906 74.0797C31.9345 74.0051 31.7886 73.9101 31.6529 73.7947C31.524 73.6794 31.4086 73.5504 31.3068 73.4079C31.205 73.2586 31.1168 73.0924 31.0422 72.9091C30.9675 72.7259 30.9099 72.5291 30.8691 72.3188C30.8352 72.1016 30.8182 71.8709 30.8182 71.6266C30.8182 71.4162 30.8318 71.216 30.859 71.026C30.8929 70.836 30.937 70.6596 30.9913 70.4967C31.0456 70.3338 31.11 70.1845 31.1847 70.0488C31.2661 69.9063 31.3543 69.7774 31.4493 69.662C31.5511 69.5467 31.6597 69.4449 31.7751 69.3566C31.8972 69.2684 32.0228 69.1972 32.1517 69.1429C32.2874 69.0818 32.4265 69.0377 32.569 69.0106C32.7183 68.9766 32.871 68.9597 33.0271 68.9597C33.665 68.9597 34.1875 69.1938 34.5947 69.662C35.0018 70.1303 35.2054 70.7783 35.2054 71.6062V71.8403H31.6631C31.6902 72.4511 31.8395 72.899 32.111 73.184C32.3824 73.469 32.7217 73.6115 33.1289 73.6115C33.4343 73.6115 33.6955 73.5369 33.9127 73.3876C34.1298 73.2383 34.3131 73.0245 34.4624 72.7463ZM33.0169 69.6315C32.6708 69.6315 32.3722 69.757 32.1212 70.0081C31.8769 70.2524 31.7276 70.646 31.6733 71.1889H34.3707C34.3097 70.646 34.1536 70.2524 33.9025 70.0081C33.6582 69.757 33.363 69.6315 33.0169 69.6315ZM38.2723 74.2833C38.1027 74.2833 37.9398 74.2664 37.7838 74.2324C37.6277 74.1917 37.4818 74.134 37.3461 74.0594C37.2103 73.9779 37.0814 73.8829 36.9592 73.7744C36.8439 73.659 36.7387 73.5301 36.6437 73.3876C36.5555 73.2383 36.4774 73.0754 36.4096 72.899C36.3417 72.7157 36.2908 72.5189 36.2569 72.3086C36.223 72.0982 36.206 71.8709 36.206 71.6266C36.206 71.3823 36.223 71.1549 36.2569 70.9446C36.2908 70.7342 36.3417 70.5374 36.4096 70.3542C36.4774 70.171 36.5555 70.0081 36.6437 69.8656C36.7387 69.7163 36.8439 69.5874 36.9592 69.4788C37.0814 69.3634 37.2103 69.2684 37.3461 69.1938C37.4818 69.1123 37.6277 69.0547 37.7838 69.0207C37.9398 68.98 38.1027 68.9597 38.2723 68.9597C38.6388 68.9597 38.9543 69.0479 39.219 69.2243C39.4904 69.4008 39.7042 69.6552 39.8603 69.9877V69.0411H40.7153V74.3342C40.7153 74.4903 40.6984 74.6396 40.6644 74.7821C40.6373 74.9246 40.5966 75.0569 40.5423 75.1791C40.488 75.3012 40.4201 75.4132 40.3387 75.515C40.2641 75.6236 40.1758 75.7186 40.074 75.8C39.979 75.8882 39.8739 75.9629 39.7585 76.0239C39.6431 76.0918 39.521 76.1461 39.392 76.1868C39.2631 76.2343 39.1274 76.2682 38.9849 76.2886C38.8424 76.309 38.6965 76.3191 38.5472 76.3191C38.0586 76.3191 37.6243 76.2139 37.2443 76.0036C36.871 75.8 36.5962 75.532 36.4198 75.1994L37.0407 74.7312C37.2103 75.023 37.4207 75.2435 37.6718 75.3928C37.9297 75.5421 38.2147 75.6168 38.5268 75.6168C38.8933 75.6168 39.2054 75.5116 39.4633 75.3012C39.728 75.0909 39.8603 74.7346 39.8603 74.2324V73.2552C39.7042 73.5877 39.4904 73.8422 39.219 74.0187C38.9543 74.1951 38.6388 74.2833 38.2723 74.2833ZM38.4657 73.5911C38.8729 73.5911 39.2054 73.4283 39.4633 73.1025C39.728 72.77 39.8603 72.278 39.8603 71.6266C39.8603 70.9615 39.728 70.4662 39.4633 70.1404C39.2054 69.8147 38.8729 69.6518 38.4657 69.6518C38.0586 69.6518 37.7227 69.8147 37.458 70.1404C37.2002 70.4662 37.0712 70.9615 37.0712 71.6266C37.0712 72.278 37.2002 72.77 37.458 73.1025C37.7227 73.4283 38.0586 73.5911 38.4657 73.5911ZM46.3868 74.2324H45.5318V73.4893C45.3825 73.7608 45.1823 73.9678 44.9312 74.1103C44.6801 74.246 44.4019 74.3139 44.0965 74.3139C43.6079 74.3139 43.2008 74.151 42.875 73.8253C42.5493 73.4995 42.3864 73.0415 42.3864 72.4511V69.0411H43.2415V72.3289C43.2415 72.7497 43.3501 73.072 43.5672 73.2959C43.7844 73.5131 44.0592 73.6217 44.3917 73.6217C44.7107 73.6217 44.9787 73.5131 45.1959 73.2959C45.4198 73.072 45.5318 72.7497 45.5318 72.3289V69.0411H46.3868V74.2324ZM48.8976 74.2324H48.0426V67.1071H48.8976V74.2324ZM51.8202 74.3139C51.3316 74.3139 50.9414 74.1815 50.6496 73.9169C50.3578 73.6454 50.2119 73.3129 50.2119 72.9193C50.2119 72.4307 50.3884 72.0541 50.7412 71.7894C51.0941 71.518 51.5759 71.3585 52.1867 71.311L53.4183 71.2092V70.7308C53.4183 70.3644 53.3131 70.0929 53.1028 69.9165C52.8992 69.7401 52.6413 69.6518 52.3292 69.6518C52.0577 69.6518 51.7999 69.7197 51.5556 69.8554C51.3181 69.9911 51.1179 70.2253 50.955 70.5578L50.2832 70.2117C50.4596 69.8452 50.7209 69.5433 51.067 69.3057C51.4131 69.0682 51.8508 68.9495 52.3801 68.9495C52.9162 68.9495 53.3674 69.1056 53.7339 69.4177C54.1003 69.7231 54.2836 70.1608 54.2836 70.7308V74.2324H53.4183V73.4792C53.2623 73.737 53.0417 73.9406 52.7567 74.0899C52.4785 74.2392 52.1663 74.3139 51.8202 74.3139ZM51.0466 72.8481C51.0466 73.1263 51.1484 73.3299 51.352 73.4588C51.5556 73.5877 51.7931 73.6522 52.0645 73.6522C52.1663 73.6522 52.2647 73.642 52.3597 73.6217C52.4547 73.6013 52.5463 73.5742 52.6345 73.5402C52.7228 73.5063 52.8076 73.4622 52.889 73.4079C52.9705 73.3536 53.0417 73.2926 53.1028 73.2247C53.1706 73.15 53.2249 73.072 53.2656 72.9906C53.3131 72.9091 53.3505 72.8209 53.3776 72.7259C53.4048 72.6241 53.4183 72.5189 53.4183 72.4104V71.8709L52.3699 71.9625C51.9288 72.0032 51.5963 72.0948 51.3723 72.2373C51.1552 72.373 51.0466 72.5766 51.0466 72.8481ZM58.5765 73.4385L58.6376 74.1205C58.529 74.1815 58.3831 74.229 58.1999 74.263C58.0167 74.2969 57.8368 74.3139 57.6604 74.3139C57.2396 74.3139 56.9139 74.2019 56.6832 73.9779C56.4525 73.7472 56.3371 73.4452 56.3371 73.072V69.7333H55.1462V69.0411H56.3371V67.5957H57.1921V69.0411H58.6172V69.7333H57.1921V72.9295C57.1921 73.1399 57.2498 73.3061 57.3652 73.4283C57.4806 73.5436 57.64 73.6013 57.8436 73.6013C57.9725 73.6013 58.0947 73.5877 58.2101 73.5606C58.3254 73.5267 58.4476 73.486 58.5765 73.4385ZM59.3375 71.6266C59.3375 71.4162 59.3511 71.2194 59.3783 71.0362C59.4122 70.8462 59.4563 70.6697 59.5106 70.5069C59.5649 70.3372 59.6293 70.1845 59.704 70.0488C59.7854 69.9063 59.877 69.7774 59.9788 69.662C60.0806 69.5467 60.1892 69.4449 60.3046 69.3566C60.4267 69.2684 60.5556 69.1938 60.6914 69.1327C60.8271 69.0716 60.9696 69.0275 61.1189 69.0004C61.275 68.9664 61.4344 68.9495 61.5973 68.9495C61.7602 68.9495 61.9162 68.9664 62.0655 69.0004C62.2216 69.0275 62.3675 69.0716 62.5032 69.1327C62.639 69.1938 62.7679 69.2684 62.89 69.3566C63.0122 69.4449 63.1242 69.5467 63.226 69.662C63.3277 69.7774 63.416 69.9063 63.4906 70.0488C63.572 70.1845 63.6399 70.3372 63.6942 70.5069C63.7485 70.6697 63.7892 70.8462 63.8163 71.0362C63.8503 71.2194 63.8672 71.4162 63.8672 71.6266C63.8672 71.8709 63.8469 72.1016 63.8062 72.3188C63.7722 72.5291 63.7179 72.7259 63.6433 72.9091C63.5754 73.0856 63.4906 73.2484 63.3888 73.3977C63.287 73.547 63.1717 73.6794 63.0427 73.7947C62.9138 73.9033 62.7713 73.9983 62.6152 74.0797C62.4659 74.1544 62.3064 74.2121 62.1368 74.2528C61.9671 74.2935 61.7873 74.3139 61.5973 74.3139C61.4344 74.3139 61.275 74.2969 61.1189 74.263C60.9696 74.2358 60.8271 74.1917 60.6914 74.1306C60.5556 74.0696 60.4267 73.9983 60.3046 73.9169C60.1892 73.8287 60.0806 73.7269 59.9788 73.6115C59.877 73.4961 59.7854 73.3672 59.704 73.2247C59.6293 73.0822 59.5649 72.9295 59.5106 72.7666C59.4563 72.597 59.4122 72.4172 59.3783 72.2271C59.3511 72.0371 59.3375 71.8369 59.3375 71.6266ZM63.0122 71.6266C63.0122 70.9751 62.8765 70.4831 62.605 70.1506C62.3404 69.8181 62.0045 69.6518 61.5973 69.6518C61.1901 69.6518 60.8542 69.8181 60.5896 70.1506C60.3249 70.4831 60.1926 70.9751 60.1926 71.6266C60.1926 72.2848 60.3249 72.7836 60.5896 73.1229C60.8542 73.4554 61.1901 73.6217 61.5973 73.6217C62.0045 73.6217 62.3404 73.4554 62.605 73.1229C62.8765 72.7836 63.0122 72.2848 63.0122 71.6266ZM66.0753 74.2324H65.2203V69.0411H66.0753V69.9776C66.2246 69.6383 66.435 69.3838 66.7064 69.2141C66.9778 69.0377 67.2696 68.9495 67.5818 68.9495C67.6632 68.9495 67.7413 68.9563 67.8159 68.9698C67.8906 68.9834 67.9686 69.0004 68.05 69.0207L67.9584 69.8249C67.8634 69.7977 67.7752 69.7774 67.6938 69.7638C67.6123 69.7502 67.5309 69.7434 67.4495 69.7434C67.0627 69.7434 66.7369 69.886 66.4723 70.171C66.2076 70.4492 66.0753 70.8428 66.0753 71.3517V74.2324ZM68.4742 76.1257L68.7287 75.4234C68.8576 75.4912 68.9798 75.5455 69.0951 75.5862C69.2173 75.6337 69.3327 75.6575 69.4412 75.6575C69.5905 75.6575 69.7127 75.61 69.8077 75.515C69.9095 75.42 70.0113 75.2402 70.113 74.9755L70.3879 74.2731L68.3826 69.0411H69.2987L70.8358 73.2349L72.4033 69.0411H73.2584L70.8765 75.2809C70.7272 75.6677 70.5372 75.9459 70.3065 76.1156C70.0825 76.2852 69.8043 76.37 69.4718 76.37C69.3021 76.37 69.1291 76.3497 68.9526 76.309C68.7762 76.2682 68.6167 76.2072 68.4742 76.1257ZM81.312 74.2324H80.2534L79.6834 73.5504C79.4051 73.8219 79.0998 74.0187 78.7673 74.1408C78.4347 74.2562 78.0988 74.3139 77.7595 74.3139C77.1488 74.3139 76.6466 74.151 76.253 73.8253C75.8594 73.4927 75.6626 73.0618 75.6626 72.5325C75.6626 72.4104 75.6728 72.295 75.6932 72.1864C75.7135 72.0711 75.7441 71.9625 75.7848 71.8607C75.8255 71.7589 75.873 71.6639 75.9273 71.5757C75.9816 71.4875 76.0427 71.4026 76.1105 71.3212C76.1784 71.233 76.253 71.1516 76.3345 71.0769C76.4159 71.0023 76.5007 70.931 76.5889 70.8631C76.6771 70.7885 76.7654 70.7172 76.8536 70.6494C76.9486 70.5815 77.0436 70.5171 77.1386 70.456C76.8739 70.1303 76.6704 69.8317 76.5279 69.5602C76.3921 69.282 76.3243 68.997 76.3243 68.7052C76.3243 68.2166 76.4871 67.8162 76.8129 67.5041C77.1454 67.1851 77.5661 67.0256 78.0751 67.0256C78.5705 67.0256 78.9708 67.1715 79.2762 67.4633C79.5816 67.7551 79.7343 68.1148 79.7343 68.5423C79.7343 68.6577 79.7241 68.7697 79.7037 68.8782C79.6834 68.98 79.6528 69.0818 79.6121 69.1836C79.5714 69.2786 79.5205 69.3702 79.4594 69.4584C79.4051 69.5467 79.3407 69.6315 79.266 69.7129C79.1982 69.7876 79.1235 69.8622 79.0421 69.9369C78.9607 70.0115 78.8758 70.0861 78.7876 70.1608C78.6994 70.2287 78.6078 70.2965 78.5128 70.3644C78.4178 70.4254 78.3228 70.4899 78.2278 70.5578L79.7037 72.3188C79.8191 72.0745 79.9175 71.7962 79.9989 71.4841C80.0804 71.1719 80.138 70.8224 80.172 70.4356H80.9456C80.8913 70.9649 80.7997 71.4366 80.6707 71.8505C80.5418 72.2577 80.3823 72.6072 80.1923 72.899L81.312 74.2324ZM77.1488 68.695C77.1556 68.9054 77.2031 69.109 77.2913 69.3057C77.3863 69.5025 77.5525 69.7468 77.7901 70.0386C78.1022 69.8351 78.3703 69.6213 78.5942 69.3974C78.8181 69.1666 78.9301 68.8952 78.9301 68.583C78.9301 68.3387 78.8487 68.1352 78.6858 67.9723C78.523 67.8026 78.3092 67.7178 78.0445 67.7178C77.7731 67.7178 77.5559 67.8094 77.3931 67.9926C77.237 68.1691 77.1556 68.4032 77.1488 68.695ZM76.4973 72.502C76.4973 72.8345 76.6229 73.1025 76.8739 73.3061C77.1318 73.5097 77.444 73.6115 77.8104 73.6115C78.0819 73.6115 78.3397 73.564 78.584 73.469C78.8283 73.3672 79.0455 73.2111 79.2355 73.0008L77.5763 70.9955C77.2845 71.2058 77.03 71.4298 76.8129 71.6673C76.6025 71.9048 76.4973 72.183 76.4973 72.502ZM84.4478 74.2324V67.1071H86.6974C87.3896 67.1071 87.946 67.2835 88.3668 67.6364C88.7875 67.9893 88.9979 68.4846 88.9979 69.1225C88.9979 69.5772 88.8893 69.964 88.6721 70.2829C88.455 70.6019 88.1598 70.836 87.7865 70.9853L89.3643 74.2324H88.3668L86.901 71.1583C86.867 71.1651 86.8331 71.1685 86.7992 71.1685C86.7652 71.1685 86.7313 71.1685 86.6974 71.1685H85.3537V74.2324H84.4478ZM86.7177 70.4254C87.1046 70.4254 87.4303 70.3203 87.6949 70.1099C87.9596 69.8995 88.0919 69.5806 88.0919 69.1531C88.0919 68.7188 87.9596 68.3964 87.6949 68.1861C87.4303 67.9757 87.1046 67.8705 86.7177 67.8705H85.3537V70.4254H86.7177ZM90.8671 68.0028C90.7042 68.0028 90.5583 67.9451 90.4294 67.8298C90.3072 67.7144 90.2462 67.5685 90.2462 67.3921C90.2462 67.2224 90.3072 67.0833 90.4294 66.9747C90.5583 66.8594 90.7042 66.8017 90.8671 66.8017C91.0232 66.8017 91.1657 66.8594 91.2946 66.9747C91.4235 67.0833 91.488 67.2224 91.488 67.3921C91.488 67.5685 91.4235 67.7144 91.2946 67.8298C91.1657 67.9451 91.0232 68.0028 90.8671 68.0028ZM91.2844 74.2324H90.4294V69.0411H91.2844V74.2324ZM92.3738 73.0516L93.0355 72.675C93.2051 73.0143 93.4053 73.262 93.636 73.4181C93.8735 73.5674 94.1348 73.642 94.4198 73.642C94.732 73.642 94.9932 73.5742 95.2036 73.4385C95.414 73.2959 95.5192 73.089 95.5192 72.8175C95.5192 72.5597 95.3936 72.3764 95.1425 72.2679C94.8982 72.1525 94.6166 72.0507 94.2977 71.9625C94.2094 71.9353 94.1212 71.9082 94.033 71.8811C93.9448 71.8539 93.8566 71.8268 93.7683 71.7996C93.6801 71.7657 93.5919 71.7318 93.5037 71.6978C93.4223 71.6639 93.3442 71.6232 93.2696 71.5757C93.1949 71.5282 93.1237 71.4773 93.0558 71.423C92.988 71.3687 92.9269 71.3076 92.8726 71.2398C92.8251 71.1719 92.781 71.1007 92.7403 71.026C92.6995 70.9446 92.669 70.8564 92.6487 70.7614C92.6283 70.6596 92.6181 70.551 92.6181 70.4356C92.6181 70.2999 92.6317 70.1744 92.6588 70.059C92.6928 69.9436 92.7369 69.8385 92.7912 69.7434C92.8522 69.6417 92.9201 69.55 92.9947 69.4686C93.0762 69.3872 93.1644 69.3159 93.2594 69.2549C93.3612 69.187 93.4698 69.1327 93.5851 69.092C93.7005 69.0445 93.8192 69.0106 93.9414 68.9902C94.0703 68.9698 94.2027 68.9597 94.3384 68.9597C94.7998 68.9597 95.1934 69.0784 95.5192 69.3159C95.8517 69.5534 96.1163 69.8554 96.3131 70.2219L95.6718 70.5883C95.4954 70.2626 95.302 70.0217 95.0916 69.8656C94.8813 69.7027 94.6404 69.6213 94.3689 69.6213C94.1314 69.6213 93.921 69.6858 93.7378 69.8147C93.5614 69.9369 93.4732 70.1235 93.4732 70.3746C93.4732 70.646 93.5919 70.8428 93.8294 70.9649C94.0737 71.0871 94.3519 71.1923 94.6641 71.2805C94.7523 71.3076 94.8405 71.3348 94.9288 71.3619C95.0238 71.3891 95.1154 71.4196 95.2036 71.4535C95.2918 71.4807 95.3766 71.5112 95.4581 71.5451C95.5463 71.5791 95.6277 71.6198 95.7024 71.6673C95.7838 71.708 95.8585 71.7555 95.9263 71.8098C95.9942 71.8641 96.0552 71.9252 96.1095 71.993C96.1638 72.0541 96.2113 72.1254 96.252 72.2068C96.2928 72.2814 96.3233 72.3663 96.3437 72.4613C96.364 72.5563 96.3742 72.6615 96.3742 72.7768C96.3742 72.899 96.3606 73.0143 96.3335 73.1229C96.3063 73.2315 96.269 73.3333 96.2215 73.4283C96.174 73.5233 96.1129 73.6115 96.0383 73.6929C95.9704 73.7744 95.8924 73.849 95.8042 73.9169C95.7227 73.9779 95.6277 74.0356 95.5192 74.0899C95.4174 74.1374 95.3088 74.1781 95.1934 74.2121C95.0781 74.246 94.9559 74.2697 94.827 74.2833C94.7048 74.3037 94.5793 74.3139 94.4503 74.3139C93.921 74.3139 93.4901 74.1985 93.1576 73.9678C92.8251 73.7303 92.5638 73.4249 92.3738 73.0516ZM98.4113 74.2324H97.5562V67.1071H98.4113V74.2324ZM101.669 69.0411L99.6735 71.5859L101.74 74.2324H100.722L98.6861 71.6368L100.752 69.0411H101.669Z" fill="black"/>
<path d="M109.035 120.794H112.423V121.611H107.868V120.794C108.236 120.413 108.738 119.901 109.374 119.259C110.01 118.616 110.41 118.201 110.573 118.015C110.884 117.666 111.101 117.371 111.224 117.129C111.348 116.887 111.41 116.649 111.41 116.415C111.41 116.033 111.276 115.723 111.008 115.483C110.741 115.242 110.392 115.121 109.963 115.121C109.658 115.121 109.337 115.174 108.998 115.28C108.661 115.385 108.3 115.546 107.916 115.761V114.78C108.306 114.623 108.671 114.504 109.011 114.424C109.351 114.344 109.662 114.304 109.944 114.304C110.687 114.304 111.28 114.49 111.722 114.863C112.164 115.234 112.385 115.73 112.385 116.352C112.385 116.647 112.329 116.927 112.219 117.192C112.109 117.455 111.908 117.767 111.616 118.125C111.536 118.219 111.281 118.487 110.851 118.932C110.423 119.376 109.818 119.997 109.035 120.794Z" fill="white"/>
<path d="M114.473 114.436H118.283V115.254H115.361V117.013C115.502 116.965 115.642 116.929 115.783 116.905C115.924 116.881 116.066 116.87 116.207 116.87C117.008 116.87 117.642 117.089 118.109 117.528C118.578 117.967 118.812 118.561 118.812 119.311C118.812 120.083 118.572 120.684 118.091 121.112C117.61 121.54 116.933 121.754 116.058 121.754C115.757 121.754 115.45 121.728 115.137 121.677C114.825 121.626 114.503 121.549 114.17 121.446V120.469C114.458 120.626 114.756 120.743 115.063 120.82C115.371 120.897 115.696 120.936 116.038 120.936C116.593 120.936 117.032 120.79 117.354 120.499C117.678 120.207 117.84 119.812 117.84 119.311C117.84 118.812 117.678 118.416 117.354 118.125C117.032 117.833 116.593 117.687 116.038 117.687C115.779 117.687 115.52 117.715 115.262 117.773C115.004 117.83 114.741 117.92 114.473 118.042V114.436Z" fill="white"/>
<path d="M120.727 120.39H121.742V121.611H120.727V120.39Z" fill="white"/>
<path d="M123.881 121.465V120.58C124.125 120.696 124.372 120.784 124.621 120.845C124.871 120.905 125.117 120.936 125.358 120.936C125.998 120.936 126.487 120.72 126.825 120.289C127.163 119.859 127.356 119.204 127.404 118.325C127.219 118.601 126.983 118.813 126.697 118.96C126.412 119.108 126.097 119.182 125.751 119.182C125.034 119.182 124.466 118.965 124.047 118.531C123.629 118.096 123.42 117.502 123.42 116.748C123.42 116.012 123.638 115.421 124.073 114.976C124.509 114.53 125.089 114.307 125.813 114.307C126.643 114.307 127.277 114.625 127.713 115.262C128.151 115.898 128.37 116.821 128.37 118.033C128.37 119.164 128.101 120.067 127.564 120.742C127.028 121.416 126.307 121.754 125.401 121.754C125.157 121.754 124.91 121.73 124.659 121.682C124.41 121.633 124.151 121.561 123.881 121.465ZM125.813 118.422C126.248 118.422 126.593 118.273 126.848 117.976C127.103 117.677 127.231 117.268 127.231 116.748C127.231 116.232 127.103 115.825 126.848 115.525C126.593 115.226 126.248 115.076 125.813 115.076C125.377 115.076 125.032 115.226 124.778 115.525C124.524 115.825 124.396 116.232 124.396 116.748C124.396 117.268 124.524 117.677 124.778 117.976C125.032 118.273 125.377 118.422 125.813 118.422Z" fill="white"/>
<path d="M136.221 118.456C135.942 118.456 135.723 118.574 135.564 118.811C135.406 119.048 135.327 119.378 135.327 119.802C135.327 120.218 135.406 120.546 135.564 120.785C135.723 121.024 135.942 121.143 136.221 121.143C136.494 121.143 136.709 121.024 136.867 120.785C137.026 120.546 137.105 120.218 137.105 119.802C137.105 119.381 137.026 119.052 136.867 118.814C136.709 118.575 136.494 118.456 136.221 118.456ZM136.221 117.845C136.727 117.845 137.129 118.021 137.427 118.374C137.725 118.726 137.874 119.202 137.874 119.802C137.874 120.401 137.724 120.876 137.425 121.228C137.126 121.579 136.724 121.754 136.221 121.754C135.708 121.754 135.303 121.579 135.005 121.228C134.707 120.876 134.559 120.401 134.559 119.802C134.559 119.199 134.708 118.722 135.008 118.371C135.307 118.02 135.711 117.845 136.221 117.845ZM131.262 114.918C130.986 114.918 130.768 115.037 130.61 115.276C130.452 115.514 130.373 115.842 130.373 116.259C130.373 116.682 130.451 117.012 130.608 117.25C130.765 117.487 130.983 117.605 131.262 117.605C131.54 117.605 131.759 117.487 131.917 117.25C132.076 117.012 132.155 116.682 132.155 116.259C132.155 115.846 132.075 115.519 131.915 115.279C131.755 115.038 131.537 114.918 131.262 114.918ZM135.601 114.307H136.37L131.881 121.754H131.112L135.601 114.307ZM131.262 114.307C131.768 114.307 132.171 114.482 132.472 114.833C132.773 115.184 132.924 115.659 132.924 116.259C132.924 116.864 132.774 117.341 132.475 117.691C132.175 118.041 131.771 118.216 131.262 118.216C130.752 118.216 130.349 118.04 130.053 117.69C129.757 117.338 129.608 116.861 129.608 116.259C129.608 115.662 129.757 115.188 130.054 114.836C130.353 114.483 130.755 114.307 131.262 114.307Z" fill="white"/>
</g>
</g>
<rect x="0.445873" y="0.445873" width="248.108" height="313.108" rx="13.8221" stroke="#CCD6DB" stroke-width="0.891746"/>
<defs>
<clipPath id="clip0_1093_28940">
<rect width="249" height="314" rx="14.2679" fill="white"/>
</clipPath>
<clipPath id="clip1_1093_28940">
<rect width="206" height="204" fill="white" transform="translate(23.4019 63.6445)"/>
</clipPath>
</defs>
</svg>
