<svg width="263" height="314" viewBox="0 0 263 314" fill="none" xmlns="http://www.w3.org/2000/svg">
<g clip-path="url(#clip0_1093_28918)">
<rect width="263" height="314" rx="15.9544" fill="white"/>
<mask id="path-3-inside-1_1093_28918" fill="white">
<path d="M0 0H263V47.9315H0V0Z"/>
</mask>
<path d="M263 47.9315V46.9344H0V47.9315V48.9287H263V47.9315Z" fill="#E6EBED" mask="url(#path-3-inside-1_1093_28918)"/>
<path d="M17.1988 29.9648V18.7968H21.5065C22.5914 18.7968 23.4635 19.0627 24.123 19.5945C24.7931 20.1157 25.1281 20.8443 25.1281 21.7803C25.1281 22.3865 24.9792 22.9024 24.6814 23.3278C24.3942 23.7426 23.99 24.0564 23.4688 24.2691C24.0857 24.4712 24.5697 24.7903 24.9207 25.2264C25.2823 25.6625 25.4631 26.2156 25.4631 26.8857C25.4631 27.8536 25.1175 28.6087 24.4261 29.1512C23.7454 29.6936 22.8466 29.9648 21.7298 29.9648H17.1988ZM21.3948 20.5358H19.3367V23.5033H21.3948C21.8628 23.5033 22.251 23.381 22.5594 23.1364C22.8785 22.8811 23.0381 22.5088 23.0381 22.0196C23.0381 21.509 22.8785 21.1368 22.5594 20.9028C22.251 20.6581 21.8628 20.5358 21.3948 20.5358ZM21.6022 25.1147H19.3367V28.2577H21.6022C22.0915 28.2577 22.5009 28.1301 22.8307 27.8748C23.1604 27.6089 23.3253 27.2101 23.3253 26.6782C23.3253 26.1571 23.1604 25.7688 22.8307 25.5136C22.5009 25.2477 22.0915 25.1147 21.6022 25.1147ZM28.3134 20.3763C28.0049 20.3763 27.7124 20.2699 27.4359 20.0572C27.17 19.8338 27.037 19.536 27.037 19.1637C27.037 18.8021 27.17 18.5149 27.4359 18.3022C27.7124 18.0788 28.0049 17.9672 28.3134 17.9672C28.6218 17.9672 28.909 18.0788 29.1749 18.3022C29.4408 18.5149 29.5738 18.8021 29.5738 19.1637C29.5738 19.536 29.4408 19.8338 29.1749 20.0572C28.909 20.2699 28.6218 20.3763 28.3134 20.3763ZM29.3185 29.9648H27.2604V21.6845H29.3185V29.9648ZM33.54 29.9648H31.4819V18.7968H33.54V29.9648ZM37.7312 29.9648H35.6731V18.7968H37.7312V29.9648ZM39.0505 28.3375L40.3428 27.2845C40.6406 27.7419 40.981 28.0822 41.3639 28.3056C41.7468 28.529 42.151 28.6406 42.5764 28.6406C43.0019 28.6406 43.3422 28.5555 43.5975 28.3854C43.8634 28.2045 43.9964 27.9546 43.9964 27.6355C43.9964 27.3164 43.8156 27.0877 43.4539 26.9495C43.1029 26.8112 42.6934 26.6889 42.2254 26.5825C42.0872 26.54 41.9436 26.5027 41.7947 26.4708C41.6458 26.4283 41.4969 26.3857 41.3479 26.3432C41.2097 26.29 41.0714 26.2368 40.9331 26.1837C40.7949 26.1198 40.6619 26.0507 40.5343 25.9763C40.4173 25.9018 40.3003 25.822 40.1833 25.7369C40.0769 25.6412 39.9759 25.5402 39.8801 25.4338C39.7951 25.3274 39.7206 25.2051 39.6568 25.0669C39.593 24.9286 39.5398 24.7797 39.4972 24.6201C39.4653 24.45 39.4494 24.2691 39.4494 24.0777C39.4494 23.3012 39.7472 22.6897 40.3428 22.2429C40.9385 21.7856 41.683 21.5569 42.5764 21.5569C43.321 21.5569 43.9857 21.7271 44.5707 22.0674C45.1557 22.4078 45.6184 22.8386 45.9588 23.3597L44.6824 24.3489C44.3633 23.9128 44.0336 23.5884 43.6932 23.3757C43.3529 23.1523 42.9966 23.0407 42.6243 23.0407C42.2946 23.0407 42.018 23.1204 41.7947 23.28C41.5819 23.4289 41.4756 23.6469 41.4756 23.9341C41.4756 24.2532 41.6351 24.4872 41.9542 24.6361C42.2733 24.785 42.6509 24.9179 43.087 25.0349C43.2146 25.0669 43.3422 25.1041 43.4699 25.1466C43.6081 25.1785 43.7464 25.2158 43.8847 25.2583C44.023 25.2902 44.1559 25.3328 44.2835 25.3859C44.4112 25.4285 44.5388 25.4817 44.6665 25.5455C44.7941 25.5987 44.9111 25.6625 45.0174 25.7369C45.1344 25.8008 45.2408 25.8752 45.3365 25.9603C45.4429 26.0454 45.5333 26.1411 45.6078 26.2475C45.6928 26.3538 45.762 26.4708 45.8152 26.5985C45.8683 26.7261 45.9109 26.8644 45.9428 27.0133C45.9747 27.1516 45.9907 27.3111 45.9907 27.4919C45.9907 27.7259 45.9588 27.9493 45.8949 28.162C45.8418 28.3641 45.762 28.5555 45.6556 28.7364C45.5493 28.9065 45.4216 29.0661 45.2727 29.215C45.1238 29.3533 44.9536 29.4809 44.7622 29.5979C44.5707 29.7043 44.358 29.7947 44.124 29.8691C43.9006 29.9436 43.6613 29.9968 43.4061 30.0287C43.1508 30.0712 42.8849 30.0925 42.6083 30.0925C41.7043 30.0925 40.9544 29.917 40.3588 29.566C39.7631 29.2044 39.3271 28.7949 39.0505 28.3375ZM52.9228 29.9648H50.8647V18.7968H52.9228V23.0566C53.1568 22.5673 53.4759 22.1951 53.8801 21.9398C54.2949 21.6739 54.7789 21.5409 55.3319 21.5409C55.6085 21.5409 55.8691 21.5729 56.1137 21.6367C56.369 21.7005 56.6083 21.7962 56.8316 21.9238C57.055 22.0408 57.2571 22.1898 57.4379 22.3706C57.6294 22.5408 57.7995 22.7482 57.9485 22.9928C58.108 23.2268 58.241 23.4874 58.3473 23.7746C58.4537 24.0617 58.5334 24.3755 58.5866 24.7159C58.6398 25.0562 58.6664 25.4179 58.6664 25.8008C58.6664 26.1943 58.6398 26.5612 58.5866 26.9016C58.5334 27.242 58.4537 27.5611 58.3473 27.8589C58.241 28.146 58.108 28.4066 57.9485 28.6406C57.7995 28.8746 57.6294 29.082 57.4379 29.2629C57.2571 29.4437 57.055 29.5979 56.8316 29.7255C56.6083 29.8425 56.369 29.9329 56.1137 29.9968C55.8691 30.0606 55.6085 30.0925 55.3319 30.0925C54.7789 30.0925 54.2949 29.9595 53.8801 29.6936C53.4759 29.4277 53.1568 29.0501 52.9228 28.5609V29.9648ZM54.7735 28.4492C55.3053 28.4492 55.7468 28.2311 56.0977 27.7951C56.4594 27.359 56.6402 26.6942 56.6402 25.8008C56.6402 24.9179 56.4594 24.2585 56.0977 23.8224C55.7468 23.3863 55.3053 23.1683 54.7735 23.1683C54.2417 23.1683 53.8003 23.3863 53.4493 23.8224C53.0983 24.2585 52.9228 24.9179 52.9228 25.8008C52.9228 26.6942 53.0983 27.359 53.4493 27.7951C53.8003 28.2311 54.2417 28.4492 54.7735 28.4492ZM59.3188 32.9643L59.8134 31.3369C60.0261 31.4433 60.2388 31.5284 60.4515 31.5922C60.6643 31.6666 60.8664 31.7039 61.0578 31.7039C61.3237 31.7039 61.5418 31.6294 61.7119 31.4805C61.8928 31.3316 62.0682 31.0231 62.2384 30.5552L62.382 30.1563L59.1433 21.6845H61.329L63.435 27.7312L65.6208 21.6845H67.6789L64.121 31.0816C63.802 31.9325 63.4031 32.5229 62.9245 32.8526C62.4458 33.1929 61.8768 33.3631 61.2174 33.3631C60.9089 33.3631 60.5792 33.3312 60.2282 33.2674C59.8878 33.2036 59.5847 33.1025 59.3188 32.9643ZM76.4248 29.9648H74.1434L71.0004 21.6845H73.2021L75.324 27.811L77.4778 21.6845H79.5838L76.4248 29.9648ZM85.7325 27.3962L87.4396 27.8429C87.3758 27.9812 87.3066 28.1248 87.2322 28.2737C87.1577 28.412 87.0673 28.5449 86.9609 28.6725C86.8652 28.8002 86.7589 28.9278 86.6419 29.0554C86.5249 29.1724 86.3972 29.2841 86.259 29.3905C86.1207 29.4968 85.9665 29.5926 85.7963 29.6777C85.6367 29.7628 85.4612 29.8372 85.2698 29.901C85.089 29.9648 84.8869 30.0127 84.6635 30.0446C84.4508 30.0765 84.2274 30.0925 83.9934 30.0925C83.7063 30.0925 83.4297 30.0659 83.1638 30.0127C82.8979 29.9702 82.6426 29.901 82.398 29.8053C82.164 29.7096 81.9406 29.5926 81.7279 29.4543C81.5152 29.316 81.3184 29.1565 81.1376 28.9757C80.9674 28.7842 80.8132 28.5768 80.6749 28.3535C80.5367 28.1301 80.4197 27.8855 80.3239 27.6196C80.2282 27.3536 80.1538 27.0718 80.1006 26.774C80.0474 26.4655 80.0208 26.1411 80.0208 25.8008C80.0208 25.471 80.0421 25.1573 80.0846 24.8594C80.1378 24.551 80.2123 24.2691 80.308 24.0139C80.4037 23.748 80.5207 23.5033 80.659 23.28C80.7973 23.0566 80.9515 22.8545 81.1217 22.6737C81.2918 22.4929 81.478 22.3333 81.6801 22.1951C81.8928 22.0568 82.1108 21.9398 82.3342 21.8441C82.5682 21.7484 82.8075 21.6792 83.0521 21.6367C83.3074 21.5835 83.568 21.5569 83.8339 21.5569C84.1104 21.5569 84.371 21.5835 84.6157 21.6367C84.8709 21.6792 85.1102 21.7484 85.3336 21.8441C85.557 21.9398 85.7644 22.0621 85.9558 22.211C86.1579 22.3493 86.3387 22.5088 86.4983 22.6897C86.6685 22.8705 86.8174 23.0726 86.945 23.2959C87.0726 23.5193 87.179 23.7639 87.2641 24.0298C87.3598 24.2851 87.4289 24.5616 87.4715 24.8594C87.5247 25.1573 87.5513 25.471 87.5513 25.8008V26.2953H81.9832C82.0576 27.0718 82.2757 27.6461 82.6373 28.0184C83.0096 28.38 83.4669 28.5609 84.0094 28.5609C84.3923 28.5609 84.722 28.4598 84.9986 28.2577C85.2857 28.0556 85.5304 27.7685 85.7325 27.3962ZM83.8179 23.0726C83.3712 23.0726 82.983 23.2268 82.6533 23.5352C82.3236 23.8331 82.1108 24.3276 82.0151 25.019H85.6048C85.5197 24.3383 85.3123 23.8437 84.9826 23.5352C84.6635 23.2268 84.2753 23.0726 83.8179 23.0726ZM96.3223 29.9648H94.2642V24.8275C94.2642 24.2745 94.1206 23.8543 93.8334 23.5671C93.5569 23.28 93.2059 23.1364 92.7804 23.1364C92.3762 23.1364 92.0306 23.28 91.7434 23.5671C91.4669 23.8543 91.3286 24.2745 91.3286 24.8275V29.9648H89.2705V21.6845H91.3286V22.8811C91.5626 22.4557 91.8763 22.1313 92.2699 21.9079C92.6741 21.6739 93.1208 21.5569 93.6101 21.5569C94.3971 21.5569 95.0459 21.8122 95.5565 22.3227C96.067 22.8332 96.3223 23.5512 96.3223 24.4765V29.9648ZM101.398 30.0925C101.121 30.0925 100.855 30.0606 100.6 29.9968C100.355 29.9329 100.121 29.8425 99.8981 29.7255C99.6747 29.5979 99.4673 29.4437 99.2758 29.2629C99.095 29.082 98.9248 28.8746 98.7653 28.6406C98.6164 28.4066 98.4888 28.146 98.3824 27.8589C98.276 27.5611 98.1963 27.242 98.1431 26.9016C98.0899 26.5612 98.0633 26.1943 98.0633 25.8008C98.0633 25.4179 98.0899 25.0562 98.1431 24.7159C98.1963 24.3755 98.276 24.0617 98.3824 23.7746C98.4888 23.4874 98.6164 23.2268 98.7653 22.9928C98.9248 22.7482 99.095 22.5408 99.2758 22.3706C99.4673 22.1898 99.6747 22.0408 99.8981 21.9238C100.121 21.7962 100.355 21.7005 100.6 21.6367C100.855 21.5729 101.121 21.5409 101.398 21.5409C101.951 21.5409 102.429 21.6739 102.834 21.9398C103.248 22.1951 103.573 22.5673 103.807 23.0566V18.7968H105.849V29.9648H103.807V28.5609C103.573 29.0501 103.248 29.4277 102.834 29.6936C102.429 29.9595 101.951 30.0925 101.398 30.0925ZM101.956 28.4492C102.488 28.4492 102.929 28.2311 103.28 27.7951C103.631 27.359 103.807 26.6942 103.807 25.8008C103.807 24.9179 103.631 24.2585 103.28 23.8224C102.929 23.3863 102.488 23.1683 101.956 23.1683C101.424 23.1683 100.978 23.3863 100.616 23.8224C100.265 24.2585 100.09 24.9179 100.09 25.8008C100.09 26.6942 100.265 27.359 100.616 27.7951C100.978 28.2311 101.424 28.4492 101.956 28.4492ZM107.614 25.8008C107.614 25.471 107.635 25.1573 107.678 24.8594C107.731 24.551 107.805 24.2638 107.901 23.9979C107.997 23.732 108.114 23.4874 108.252 23.264C108.39 23.0407 108.544 22.8386 108.715 22.6577C108.885 22.4769 109.071 22.3174 109.273 22.1791C109.486 22.0302 109.709 21.9079 109.943 21.8122C110.188 21.7164 110.438 21.6473 110.693 21.6048C110.959 21.5516 111.23 21.525 111.507 21.525C111.783 21.525 112.049 21.5516 112.304 21.6048C112.57 21.6473 112.82 21.7164 113.054 21.8122C113.288 21.9079 113.506 22.0302 113.708 22.1791C113.921 22.3174 114.112 22.4769 114.283 22.6577C114.463 22.8386 114.623 23.0407 114.761 23.264C114.9 23.4874 115.017 23.732 115.112 23.9979C115.208 24.2638 115.277 24.551 115.32 24.8594C115.373 25.1573 115.399 25.471 115.399 25.8008C115.399 26.1411 115.373 26.4655 115.32 26.774C115.277 27.0718 115.208 27.3536 115.112 27.6196C115.017 27.8855 114.9 28.1301 114.761 28.3535C114.623 28.5768 114.463 28.7842 114.283 28.9757C114.112 29.1565 113.921 29.316 113.708 29.4543C113.506 29.5926 113.288 29.7096 113.054 29.8053C112.82 29.901 112.57 29.9702 112.304 30.0127C112.049 30.0659 111.783 30.0925 111.507 30.0925C111.23 30.0925 110.959 30.0659 110.693 30.0127C110.438 29.9702 110.188 29.901 109.943 29.8053C109.709 29.7096 109.486 29.5926 109.273 29.4543C109.071 29.316 108.885 29.1565 108.715 28.9757C108.544 28.7842 108.39 28.5768 108.252 28.3535C108.114 28.1301 107.997 27.8855 107.901 27.6196C107.805 27.3536 107.731 27.0718 107.678 26.774C107.635 26.4655 107.614 26.1411 107.614 25.8008ZM113.373 25.8008C113.373 24.9286 113.192 24.2691 112.831 23.8224C112.48 23.3757 112.038 23.1523 111.507 23.1523C110.964 23.1523 110.517 23.3757 110.166 23.8224C109.815 24.2691 109.64 24.9286 109.64 25.8008C109.64 26.6942 109.815 27.3696 110.166 27.827C110.517 28.2737 110.964 28.497 111.507 28.497C112.038 28.497 112.48 28.2737 112.831 27.827C113.192 27.3696 113.373 26.6942 113.373 25.8008ZM119.218 29.9648H117.159V21.6845H119.218V23.3119C119.462 22.7056 119.813 22.2589 120.271 21.9717C120.739 21.6739 121.228 21.525 121.738 21.525C121.845 21.525 121.951 21.5356 122.057 21.5569C122.174 21.5675 122.286 21.5782 122.392 21.5888L122.281 23.4555C122.121 23.4236 121.967 23.4023 121.818 23.3916C121.669 23.3704 121.526 23.3597 121.387 23.3597C120.77 23.3597 120.255 23.5831 119.84 24.0298C119.425 24.4765 119.218 25.0775 119.218 25.8327V29.9648Z" fill="black"/>
<mask id="path-6-inside-2_1093_28918" fill="white">
<path d="M0 47.9316H263V314H0V47.9316Z"/>
</mask>
<path d="M263 314V313.003H0V314V314.997H263V314Z" fill="#CCD6DB" mask="url(#path-6-inside-2_1093_28918)"/>
<path d="M157.318 273V266.318H159.333C160.001 266.318 160.539 266.49 160.946 266.833C161.36 267.177 161.566 267.664 161.566 268.294C161.566 268.917 161.36 269.401 160.946 269.745C160.539 270.082 160.001 270.251 159.333 270.251H158.168V273H157.318ZM159.342 267.034H158.168V269.563H159.342C159.73 269.563 160.055 269.462 160.316 269.258C160.583 269.054 160.717 268.739 160.717 268.313C160.717 267.88 160.583 267.559 160.316 267.349C160.055 267.139 159.73 267.034 159.342 267.034ZM167.535 268.093L166.8 268.38C166.622 267.902 166.389 267.546 166.103 267.311C165.817 267.075 165.479 266.957 165.091 266.957C164.582 266.957 164.162 267.177 163.831 267.616C163.5 268.055 163.335 268.736 163.335 269.659C163.335 270.575 163.503 271.256 163.841 271.702C164.184 272.147 164.636 272.37 165.196 272.37C165.33 272.37 165.454 272.357 165.568 272.332C165.689 272.3 165.801 272.259 165.902 272.208C166.004 272.15 166.1 272.087 166.189 272.017C166.278 271.94 166.357 271.854 166.427 271.759C166.498 271.664 166.558 271.562 166.609 271.454C166.666 271.339 166.711 271.221 166.743 271.1C166.781 270.973 166.809 270.843 166.828 270.709C166.848 270.569 166.857 270.429 166.857 270.289V270.279H165.148V269.602H167.659V270.155C167.659 270.333 167.646 270.508 167.621 270.68C167.602 270.846 167.57 271.008 167.525 271.167C167.487 271.326 167.436 271.479 167.373 271.625C167.315 271.772 167.245 271.909 167.163 272.036C167.08 272.163 166.984 272.281 166.876 272.389C166.774 272.497 166.663 272.593 166.542 272.675C166.421 272.758 166.291 272.831 166.151 272.895C166.011 272.952 165.858 272.997 165.692 273.029C165.533 273.06 165.365 273.076 165.187 273.076C164.334 273.076 163.669 272.777 163.191 272.179C162.72 271.574 162.485 270.734 162.485 269.659C162.485 268.59 162.717 267.753 163.182 267.148C163.646 266.544 164.283 266.241 165.091 266.241C165.619 266.241 166.1 266.385 166.533 266.671C166.972 266.957 167.306 267.431 167.535 268.093ZM175.716 273H174.724L174.189 272.36C173.928 272.615 173.642 272.8 173.33 272.914C173.018 273.022 172.703 273.076 172.385 273.076C171.812 273.076 171.341 272.924 170.972 272.618C170.603 272.306 170.418 271.902 170.418 271.406C170.418 271.291 170.428 271.183 170.447 271.081C170.466 270.973 170.495 270.871 170.533 270.776C170.571 270.68 170.616 270.591 170.667 270.508C170.718 270.426 170.775 270.346 170.838 270.27C170.902 270.187 170.972 270.111 171.048 270.041C171.125 269.971 171.204 269.904 171.287 269.84C171.37 269.77 171.453 269.703 171.535 269.64C171.624 269.576 171.713 269.516 171.803 269.458C171.554 269.153 171.363 268.873 171.23 268.618C171.103 268.357 171.039 268.09 171.039 267.816C171.039 267.358 171.192 266.983 171.497 266.69C171.809 266.391 172.204 266.241 172.681 266.241C173.145 266.241 173.521 266.378 173.807 266.652C174.094 266.926 174.237 267.263 174.237 267.664C174.237 267.772 174.227 267.877 174.208 267.979C174.189 268.074 174.16 268.17 174.122 268.265C174.084 268.354 174.036 268.44 173.979 268.523C173.928 268.606 173.868 268.685 173.798 268.762C173.734 268.832 173.664 268.902 173.588 268.972C173.511 269.042 173.432 269.112 173.349 269.182C173.266 269.245 173.18 269.309 173.091 269.372C173.002 269.43 172.913 269.49 172.824 269.554L174.208 271.205C174.316 270.976 174.409 270.715 174.485 270.423C174.561 270.13 174.616 269.802 174.647 269.439H175.373C175.322 269.936 175.236 270.378 175.115 270.766C174.994 271.148 174.845 271.476 174.666 271.749L175.716 273ZM171.812 267.807C171.819 268.004 171.863 268.195 171.946 268.38C172.035 268.564 172.191 268.793 172.414 269.067C172.706 268.876 172.958 268.676 173.168 268.466C173.378 268.249 173.483 267.995 173.483 267.702C173.483 267.473 173.406 267.282 173.254 267.129C173.101 266.97 172.9 266.891 172.652 266.891C172.398 266.891 172.194 266.976 172.041 267.148C171.895 267.314 171.819 267.533 171.812 267.807ZM171.201 271.377C171.201 271.689 171.319 271.94 171.554 272.131C171.796 272.322 172.089 272.418 172.433 272.418C172.687 272.418 172.929 272.373 173.158 272.284C173.387 272.189 173.591 272.042 173.769 271.845L172.213 269.964C171.939 270.162 171.701 270.372 171.497 270.594C171.3 270.817 171.201 271.078 171.201 271.377ZM182.848 272.303V273H178.657V266.318H182.848V267.024H179.507V269.287H181.884V269.983H179.507V272.303H182.848Z" fill="black"/>
<path d="M27.4211 172.784L25.1406 173.523L25.1406 176.899L27.4211 177.638L27.4211 178.785L18.5029 175.791L18.5029 174.581L27.4211 171.587L27.4211 172.784ZM24.2233 176.606L24.2233 173.816L19.8788 175.205L24.2233 176.606ZM27.4211 165.634L27.4211 166.704L23.2933 166.704C22.7582 166.704 22.3547 166.836 22.0829 167.099C21.8111 167.354 21.6752 167.677 21.6752 168.067C21.6752 168.449 21.8111 168.768 22.0829 169.023C22.3547 169.278 22.7582 169.405 23.2933 169.405L27.4211 169.405L27.4211 170.475L20.9236 170.475L20.9236 169.405L21.8663 169.405C21.5266 169.227 21.2675 168.989 21.0892 168.692C20.9108 168.394 20.8216 168.063 20.8216 167.698C20.8216 167.265 20.932 166.887 21.1529 166.564C21.3652 166.233 21.671 165.986 22.0702 165.825C21.6625 165.655 21.3525 165.405 21.1401 165.073C20.9278 164.734 20.8216 164.36 20.8216 163.952C20.8216 163.349 21.0255 162.852 21.4332 162.461C21.8409 162.071 22.4142 161.875 23.1531 161.875L27.4211 161.875L27.4211 162.946L23.2933 162.946C22.7582 162.946 22.3547 163.073 22.0829 163.328C21.8111 163.583 21.6752 163.905 21.6752 164.296C21.6752 164.678 21.8111 164.997 22.0829 165.252C22.3547 165.506 22.7582 165.634 23.2933 165.634L27.4211 165.634ZM24.1596 160.196C23.8963 160.196 23.65 160.179 23.4207 160.145C23.1828 160.102 22.962 160.047 22.7582 159.979C22.5458 159.911 22.3547 159.83 22.1849 159.737C22.0065 159.635 21.8451 159.52 21.7007 159.393C21.5563 159.266 21.4289 159.13 21.3185 158.985C21.2081 158.832 21.1147 158.671 21.0382 158.501C20.9618 158.331 20.9066 158.153 20.8726 157.966C20.8301 157.771 20.8089 157.571 20.8089 157.367C20.8089 157.163 20.8301 156.968 20.8726 156.781C20.9066 156.586 20.9618 156.403 21.0382 156.233C21.1147 156.064 21.2081 155.902 21.3185 155.749C21.4289 155.596 21.5563 155.456 21.7007 155.329C21.8451 155.201 22.0065 155.091 22.1849 154.998C22.3547 154.896 22.5458 154.811 22.7582 154.743C22.962 154.675 23.1828 154.624 23.4207 154.59C23.65 154.547 23.8963 154.526 24.1596 154.526C24.4654 154.526 24.7542 154.552 25.026 154.603C25.2893 154.645 25.5356 154.713 25.7649 154.807C25.9857 154.891 26.1896 154.998 26.3764 155.125C26.5633 155.252 26.7289 155.397 26.8733 155.558C27.0092 155.72 27.1281 155.898 27.23 156.093C27.3235 156.28 27.3957 156.48 27.4466 156.692C27.4976 156.904 27.5231 157.13 27.5231 157.367C27.5231 157.571 27.5018 157.771 27.4594 157.966C27.4254 158.153 27.3702 158.331 27.2937 158.501C27.2173 158.671 27.1281 158.832 27.0262 158.985C26.9158 159.13 26.7884 159.266 26.644 159.393C26.4996 159.52 26.3382 159.635 26.1598 159.737C25.9815 159.83 25.7904 159.911 25.5865 159.979C25.3742 160.047 25.1491 160.102 24.9113 160.145C24.6735 160.179 24.4229 160.196 24.1596 160.196ZM24.1596 155.596C23.3442 155.596 22.7284 155.766 22.3123 156.106C21.8961 156.437 21.688 156.858 21.688 157.367C21.688 157.877 21.8961 158.297 22.3123 158.629C22.7284 158.96 23.3442 159.125 24.1596 159.125C24.9835 159.125 25.6078 158.96 26.0324 158.629C26.4486 158.297 26.6567 157.877 26.6567 157.367C26.6567 156.858 26.4486 156.437 26.0324 156.106C25.6078 155.766 24.9835 155.596 24.1596 155.596ZM27.4211 147.851L27.4211 148.921L26.4911 148.921C26.8308 149.108 27.0899 149.359 27.2683 149.673C27.4381 149.987 27.5231 150.336 27.5231 150.718C27.5231 151.329 27.3192 151.839 26.9115 152.247C26.5038 152.654 25.9305 152.858 25.1916 152.858L20.9236 152.858L20.9236 151.788L25.0387 151.788C25.5653 151.788 25.9687 151.652 26.249 151.38C26.5208 151.109 26.6567 150.765 26.6567 150.348C26.6567 149.949 26.5208 149.614 26.249 149.342C25.9687 149.062 25.5653 148.921 25.0387 148.921L20.9236 148.921L20.9236 147.851L27.4211 147.851ZM27.4211 140.746L27.4211 141.817L23.306 141.817C22.7709 141.817 22.3675 141.957 22.0957 142.237C21.8154 142.509 21.6752 142.853 21.6752 143.269C21.6752 143.668 21.8154 144.004 22.0957 144.276C22.3675 144.547 22.7709 144.683 23.306 144.683L27.4211 144.683L27.4211 145.753L20.9236 145.753L20.9236 144.683L21.8536 144.683C21.5139 144.496 21.2591 144.246 21.0892 143.932C20.9108 143.617 20.8216 143.269 20.8216 142.887C20.8216 142.275 21.0255 141.766 21.4332 141.358C21.8409 140.95 22.4142 140.746 23.1531 140.746L27.4211 140.746ZM26.4274 135.394L27.281 135.317C27.3574 135.453 27.4169 135.636 27.4594 135.865C27.5018 136.094 27.5231 136.32 27.5231 136.54C27.5231 137.067 27.3829 137.475 27.1026 137.763C26.8138 138.052 26.4359 138.197 25.9687 138.197L21.7899 138.197L21.7899 139.687L20.9236 139.687L20.9236 138.197L19.1144 138.197L19.1144 137.126L20.9236 137.126L20.9236 135.343L21.7899 135.343L21.7899 137.126L25.7904 137.126C26.0537 137.126 26.2618 137.054 26.4147 136.91C26.559 136.765 26.6312 136.566 26.6312 136.311C26.6312 136.15 26.6143 135.997 26.5803 135.852C26.5378 135.708 26.4868 135.555 26.4274 135.394ZM24.236 130.811C25.2043 130.811 26.1811 130.641 27.1663 130.301C28.1431 129.962 29.0774 129.388 29.9692 128.581L29.9692 129.715C29.0604 130.556 28.1049 131.138 27.1026 131.461C26.1004 131.784 25.1449 131.945 24.236 131.945C23.3272 131.945 22.3717 131.784 21.3695 131.461C20.3672 131.138 19.4117 130.556 18.5029 129.715L18.5029 128.581C19.3947 129.388 20.3332 129.962 21.3185 130.301C22.2953 130.641 23.2678 130.811 24.236 130.811ZM25.1151 128.402L24.6947 127.561C25.2128 127.34 25.5993 127.073 25.8541 126.758C26.1089 126.436 26.266 126.088 26.3255 125.714L23.3187 125.714C23.2678 125.85 23.2168 125.981 23.1659 126.109C23.1149 126.236 23.0639 126.364 23.013 126.491C22.9535 126.618 22.8941 126.742 22.8346 126.86C22.7667 126.979 22.6945 127.094 22.618 127.204C22.5416 127.306 22.4609 127.404 22.376 127.497C22.2825 127.591 22.1848 127.676 22.0829 127.752C21.981 127.829 21.8706 127.892 21.7517 127.943C21.6243 127.994 21.4926 128.037 21.3567 128.071C21.2123 128.096 21.0595 128.109 20.8981 128.109C20.2865 128.109 19.7769 127.888 19.3692 127.446C18.953 127.005 18.728 126.427 18.694 125.714L17.7385 125.714L17.7385 124.924L18.7195 124.924C18.7874 124.389 18.9913 123.922 19.331 123.522C19.6708 123.123 20.1889 122.792 20.8853 122.529L21.2675 123.395C20.7749 123.582 20.397 123.807 20.1337 124.07C19.8703 124.325 19.6962 124.61 19.6113 124.924L22.5543 124.924C22.6053 124.788 22.6562 124.656 22.7072 124.529C22.7582 124.393 22.8134 124.261 22.8728 124.134C22.9238 124.007 22.9832 123.883 23.0512 123.765C23.1106 123.637 23.1786 123.518 23.255 123.408C23.323 123.297 23.4037 123.195 23.4971 123.102C23.582 123 23.6755 122.911 23.7774 122.834C23.8793 122.758 23.9897 122.694 24.1086 122.643C24.2276 122.584 24.3592 122.541 24.5036 122.516C24.6395 122.482 24.7881 122.465 24.9495 122.465C25.5695 122.465 26.0961 122.694 26.5293 123.153C26.954 123.603 27.1876 124.193 27.23 124.924L28.3767 124.924L28.3767 125.714L27.2173 125.714C27.1493 126.334 26.9455 126.873 26.6058 127.332C26.2575 127.782 25.7606 128.139 25.1151 128.402ZM20.8344 127.077C21.1996 127.077 21.4926 126.945 21.7135 126.682C21.9258 126.419 22.1084 126.096 22.2613 125.714L19.5603 125.714C19.5943 126.104 19.7217 126.431 19.9425 126.695C20.1549 126.95 20.4522 127.077 20.8344 127.077ZM25.0132 123.497C24.648 123.497 24.3635 123.637 24.1596 123.917C23.9558 124.198 23.7731 124.533 23.6118 124.924L26.3509 124.924C26.3085 124.491 26.1726 124.147 25.9433 123.892C25.7139 123.629 25.4039 123.497 25.0132 123.497ZM24.2488 119.738C23.2805 119.738 22.308 119.908 21.3312 120.248C20.346 120.587 19.4074 121.161 18.5156 121.968L18.5156 120.834C19.4244 119.993 20.38 119.411 21.3822 119.088C22.3844 118.766 23.34 118.604 24.2488 118.604C25.1576 118.604 26.1131 118.766 27.1154 119.088C28.1176 119.411 29.0731 119.993 29.982 120.834L29.982 121.968C29.0901 121.161 28.1558 120.587 27.1791 120.248C26.1938 119.908 25.2171 119.738 24.2488 119.738Z" fill="black"/>
<path d="M45.9211 85.1274L44.8891 84.7452L48.6985 76.999H43.9846V76.0817H49.8451V76.9353L45.9211 85.1274ZM51.713 80.5409C51.713 79.0885 51.9508 77.9673 52.4265 77.1774C52.9021 76.379 53.6071 75.9798 54.5414 75.9798C55.4757 75.9798 56.1806 76.379 56.6563 77.1774C57.1319 77.9673 57.3697 79.0885 57.3697 80.5409C57.3697 82.0018 57.1319 83.1272 56.6563 83.9171C56.1806 84.707 55.4757 85.1019 54.5414 85.1019C53.6071 85.1019 52.9021 84.707 52.4265 83.9171C51.9508 83.1272 51.713 82.0018 51.713 80.5409ZM56.2613 80.5409C56.2613 79.2583 56.1042 78.3368 55.7899 77.7762C55.4842 77.2071 55.068 76.9226 54.5414 76.9226C54.0148 76.9226 53.5943 77.2071 53.2801 77.7762C52.9743 78.3368 52.8214 79.2583 52.8214 80.5409C52.8214 81.8234 52.9743 82.7492 53.2801 83.3183C53.5943 83.8788 54.0148 84.1591 54.5414 84.1591C55.068 84.1591 55.4842 83.8788 55.7899 83.3183C56.1042 82.7492 56.2613 81.8234 56.2613 80.5409ZM59.3522 80.5409C59.3522 79.0885 59.5901 77.9673 60.0657 77.1774C60.5413 76.379 61.2463 75.9798 62.1806 75.9798C63.1149 75.9798 63.8199 76.379 64.2955 77.1774C64.7712 77.9673 65.009 79.0885 65.009 80.5409C65.009 82.0018 64.7712 83.1272 64.2955 83.9171C63.8199 84.707 63.1149 85.1019 62.1806 85.1019C61.2463 85.1019 60.5413 84.707 60.0657 83.9171C59.5901 83.1272 59.3522 82.0018 59.3522 80.5409ZM63.9006 80.5409C63.9006 79.2583 63.7434 78.3368 63.4292 77.7762C63.1234 77.2071 62.7072 76.9226 62.1806 76.9226C61.654 76.9226 61.2336 77.2071 60.9193 77.7762C60.6135 78.3368 60.4607 79.2583 60.4607 80.5409C60.4607 81.8234 60.6135 82.7492 60.9193 83.3183C61.2336 83.8788 61.654 84.1591 62.1806 84.1591C62.7072 84.1591 63.1234 83.8788 63.4292 83.3183C63.7434 82.7492 63.9006 81.8234 63.9006 80.5409ZM66.9915 80.5409C66.9915 79.0885 67.2293 77.9673 67.705 77.1774C68.1806 76.379 68.8856 75.9798 69.8199 75.9798C70.7541 75.9798 71.4591 76.379 71.9348 77.1774C72.4104 77.9673 72.6482 79.0885 72.6482 80.5409C72.6482 82.0018 72.4104 83.1272 71.9348 83.9171C71.4591 84.707 70.7541 85.1019 69.8199 85.1019C68.8856 85.1019 68.1806 84.707 67.705 83.9171C67.2293 83.1272 66.9915 82.0018 66.9915 80.5409ZM71.5398 80.5409C71.5398 79.2583 71.3827 78.3368 71.0684 77.7762C70.7626 77.2071 70.3465 76.9226 69.8199 76.9226C69.2933 76.9226 68.8728 77.2071 68.5586 77.7762C68.2528 78.3368 68.0999 79.2583 68.0999 80.5409C68.0999 81.8234 68.2528 82.7492 68.5586 83.3183C68.8728 83.8788 69.2933 84.1591 69.8199 84.1591C70.3465 84.1591 70.7626 83.8788 71.0684 83.3183C71.3827 82.7492 71.5398 81.8234 71.5398 80.5409Z" fill="black"/>
<path d="M48.9024 99.9798L48.9915 100.935C47.8534 100.91 46.9446 101.267 46.2651 102.006C45.5941 102.744 45.2034 103.798 45.093 105.165C45.2714 104.732 45.5559 104.375 45.9466 104.095C46.3458 103.815 46.7875 103.675 47.2716 103.675C48.036 103.675 48.656 103.921 49.1317 104.413C49.6073 104.906 49.8451 105.539 49.8451 106.312C49.8451 106.516 49.8239 106.715 49.7814 106.911C49.7475 107.097 49.6965 107.276 49.6286 107.446C49.5606 107.616 49.4757 107.777 49.3738 107.93C49.2718 108.074 49.1572 108.21 49.0298 108.338C48.9024 108.456 48.7622 108.567 48.6093 108.669C48.4649 108.762 48.3078 108.843 48.1379 108.911C47.9681 108.979 47.7897 109.03 47.6028 109.064C47.416 109.098 47.2249 109.115 47.0295 109.115C46.8172 109.115 46.6091 109.093 46.4053 109.051C46.2099 109.017 46.0188 108.962 45.8319 108.885C45.6536 108.809 45.4837 108.715 45.3223 108.605C45.1609 108.486 45.0123 108.35 44.8764 108.197C44.749 108.044 44.6301 107.875 44.5197 107.688C44.4178 107.492 44.3286 107.284 44.2521 107.063C44.1757 106.834 44.1162 106.588 44.0738 106.325C44.0398 106.061 44.0228 105.781 44.0228 105.484C44.0228 105.178 44.0398 104.881 44.0738 104.592C44.1077 104.303 44.1587 104.023 44.2266 103.751C44.2946 103.479 44.3753 103.216 44.4687 102.961C44.5706 102.706 44.6895 102.464 44.8254 102.235C44.9613 102.006 45.11 101.789 45.2714 101.585C45.4412 101.381 45.6238 101.199 45.8192 101.037C46.0145 100.867 46.2226 100.719 46.4435 100.591C46.6728 100.455 46.9149 100.341 47.1697 100.247C47.433 100.154 47.709 100.086 47.9978 100.044C48.2866 100.001 48.5881 99.9798 48.9024 99.9798ZM47.0168 108.223C47.5519 108.223 47.9723 108.04 48.2781 107.675C48.5839 107.31 48.7367 106.877 48.7367 106.375C48.7367 105.891 48.5839 105.471 48.2781 105.114C47.9723 104.749 47.5519 104.566 47.0168 104.566C46.4732 104.566 46.0443 104.749 45.73 105.114C45.4157 105.471 45.2586 105.891 45.2586 106.375C45.2586 106.877 45.4157 107.31 45.73 107.675C46.0443 108.04 46.4732 108.223 47.0168 108.223ZM51.713 104.541C51.713 103.088 51.9508 101.967 52.4265 101.177C52.9021 100.379 53.6071 99.9798 54.5414 99.9798C55.4757 99.9798 56.1806 100.379 56.6563 101.177C57.1319 101.967 57.3697 103.088 57.3697 104.541C57.3697 106.002 57.1319 107.127 56.6563 107.917C56.1806 108.707 55.4757 109.102 54.5414 109.102C53.6071 109.102 52.9021 108.707 52.4265 107.917C51.9508 107.127 51.713 106.002 51.713 104.541ZM56.2613 104.541C56.2613 103.258 56.1042 102.337 55.7899 101.776C55.4842 101.207 55.068 100.923 54.5414 100.923C54.0148 100.923 53.5943 101.207 53.2801 101.776C52.9743 102.337 52.8214 103.258 52.8214 104.541C52.8214 105.823 52.9743 106.749 53.2801 107.318C53.5943 107.879 54.0148 108.159 54.5414 108.159C55.068 108.159 55.4842 107.879 55.7899 107.318C56.1042 106.749 56.2613 105.823 56.2613 104.541ZM59.3522 104.541C59.3522 103.088 59.5901 101.967 60.0657 101.177C60.5413 100.379 61.2463 99.9798 62.1806 99.9798C63.1149 99.9798 63.8199 100.379 64.2955 101.177C64.7712 101.967 65.009 103.088 65.009 104.541C65.009 106.002 64.7712 107.127 64.2955 107.917C63.8199 108.707 63.1149 109.102 62.1806 109.102C61.2463 109.102 60.5413 108.707 60.0657 107.917C59.5901 107.127 59.3522 106.002 59.3522 104.541ZM63.9006 104.541C63.9006 103.258 63.7434 102.337 63.4292 101.776C63.1234 101.207 62.7072 100.923 62.1806 100.923C61.654 100.923 61.2336 101.207 60.9193 101.776C60.6135 102.337 60.4607 103.258 60.4607 104.541C60.4607 105.823 60.6135 106.749 60.9193 107.318C61.2336 107.879 61.654 108.159 62.1806 108.159C62.7072 108.159 63.1234 107.879 63.4292 107.318C63.7434 106.749 63.9006 105.823 63.9006 104.541ZM66.9915 104.541C66.9915 103.088 67.2293 101.967 67.705 101.177C68.1806 100.379 68.8856 99.9798 69.8199 99.9798C70.7541 99.9798 71.4591 100.379 71.9348 101.177C72.4104 101.967 72.6482 103.088 72.6482 104.541C72.6482 106.002 72.4104 107.127 71.9348 107.917C71.4591 108.707 70.7541 109.102 69.8199 109.102C68.8856 109.102 68.1806 108.707 67.705 107.917C67.2293 107.127 66.9915 106.002 66.9915 104.541ZM71.5398 104.541C71.5398 103.258 71.3827 102.337 71.0684 101.776C70.7626 101.207 70.3465 100.923 69.8199 100.923C69.2933 100.923 68.8728 101.207 68.5586 101.776C68.2528 102.337 68.0999 103.258 68.0999 104.541C68.0999 105.823 68.2528 106.749 68.5586 107.318C68.8728 107.879 69.2933 108.159 69.8199 108.159C70.3465 108.159 70.7626 107.879 71.0684 107.318C71.3827 106.749 71.5398 105.823 71.5398 104.541Z" fill="black"/>
<path d="M46.3543 133.115C46.023 133.115 45.679 133.081 45.3223 133.013C44.9656 132.953 44.6174 132.847 44.2776 132.694L44.5961 131.777C44.8849 131.904 45.1694 132.002 45.4497 132.07C45.73 132.129 46.0188 132.159 46.3161 132.159C47.089 132.159 47.6496 131.968 47.9978 131.586C48.346 131.195 48.5202 130.741 48.5202 130.223C48.5202 130.07 48.5032 129.925 48.4692 129.789C48.4352 129.645 48.3885 129.513 48.329 129.394C48.2696 129.267 48.1931 129.152 48.0997 129.05C48.0063 128.949 47.9001 128.855 47.7812 128.77C47.6623 128.685 47.5306 128.617 47.3863 128.566C47.2504 128.507 47.0975 128.464 46.9276 128.439C46.7662 128.405 46.5921 128.388 46.4053 128.388C46.2269 128.388 46.0358 128.405 45.8319 128.439C45.6281 128.473 45.4157 128.524 45.1949 128.592L44.5834 128.324L44.7363 124.082H49.2209V124.999H45.7045L45.6281 127.624C45.9084 127.564 46.1759 127.53 46.4307 127.522C46.6855 127.513 46.9234 127.522 47.1442 127.547C47.3735 127.573 47.5859 127.615 47.7812 127.675C47.9851 127.734 48.1719 127.81 48.3418 127.904C48.5117 127.997 48.6645 128.108 48.8004 128.235C48.9448 128.354 49.068 128.486 49.1699 128.63C49.2803 128.774 49.3695 128.932 49.4375 129.101C49.5139 129.271 49.5691 129.45 49.6031 129.637C49.6456 129.823 49.6668 130.015 49.6668 130.21C49.6668 130.422 49.6456 130.626 49.6031 130.821C49.5606 131.017 49.5012 131.204 49.4247 131.382C49.3483 131.56 49.2506 131.726 49.1317 131.879C49.0213 132.032 48.8939 132.172 48.7495 132.299C48.6051 132.427 48.4437 132.541 48.2653 132.643C48.0955 132.745 47.9086 132.83 47.7048 132.898C47.5009 132.966 47.2843 133.017 47.055 133.051C46.8342 133.093 46.6006 133.115 46.3543 133.115ZM51.713 128.541C51.713 127.088 51.9508 125.967 52.4265 125.177C52.9021 124.379 53.6071 123.98 54.5414 123.98C55.4757 123.98 56.1806 124.379 56.6563 125.177C57.1319 125.967 57.3697 127.088 57.3697 128.541C57.3697 130.002 57.1319 131.127 56.6563 131.917C56.1806 132.707 55.4757 133.102 54.5414 133.102C53.6071 133.102 52.9021 132.707 52.4265 131.917C51.9508 131.127 51.713 130.002 51.713 128.541ZM56.2613 128.541C56.2613 127.258 56.1042 126.337 55.7899 125.776C55.4842 125.207 55.068 124.923 54.5414 124.923C54.0148 124.923 53.5943 125.207 53.2801 125.776C52.9743 126.337 52.8214 127.258 52.8214 128.541C52.8214 129.823 52.9743 130.749 53.2801 131.318C53.5943 131.879 54.0148 132.159 54.5414 132.159C55.068 132.159 55.4842 131.879 55.7899 131.318C56.1042 130.749 56.2613 129.823 56.2613 128.541ZM59.3522 128.541C59.3522 127.088 59.5901 125.967 60.0657 125.177C60.5413 124.379 61.2463 123.98 62.1806 123.98C63.1149 123.98 63.8199 124.379 64.2955 125.177C64.7712 125.967 65.009 127.088 65.009 128.541C65.009 130.002 64.7712 131.127 64.2955 131.917C63.8199 132.707 63.1149 133.102 62.1806 133.102C61.2463 133.102 60.5413 132.707 60.0657 131.917C59.5901 131.127 59.3522 130.002 59.3522 128.541ZM63.9006 128.541C63.9006 127.258 63.7434 126.337 63.4292 125.776C63.1234 125.207 62.7072 124.923 62.1806 124.923C61.654 124.923 61.2336 125.207 60.9193 125.776C60.6135 126.337 60.4607 127.258 60.4607 128.541C60.4607 129.823 60.6135 130.749 60.9193 131.318C61.2336 131.879 61.654 132.159 62.1806 132.159C62.7072 132.159 63.1234 131.879 63.4292 131.318C63.7434 130.749 63.9006 129.823 63.9006 128.541ZM66.9915 128.541C66.9915 127.088 67.2293 125.967 67.705 125.177C68.1806 124.379 68.8856 123.98 69.8199 123.98C70.7541 123.98 71.4591 124.379 71.9348 125.177C72.4104 125.967 72.6482 127.088 72.6482 128.541C72.6482 130.002 72.4104 131.127 71.9348 131.917C71.4591 132.707 70.7541 133.102 69.8199 133.102C68.8856 133.102 68.1806 132.707 67.705 131.917C67.2293 131.127 66.9915 130.002 66.9915 128.541ZM71.5398 128.541C71.5398 127.258 71.3827 126.337 71.0684 125.776C70.7626 125.207 70.3465 124.923 69.8199 124.923C69.2933 124.923 68.8728 125.207 68.5586 125.776C68.2528 126.337 68.0999 127.258 68.0999 128.541C68.0999 129.823 68.2528 130.749 68.5586 131.318C68.8728 131.879 69.2933 132.159 69.8199 132.159C70.3465 132.159 70.7626 131.879 71.0684 131.318C71.3827 130.749 71.5398 129.823 71.5398 128.541Z" fill="black"/>
<path d="M43.6661 154.719V153.802L47.6411 148.082H48.9533V153.789H50.0617V154.719H48.9533V157H47.8831V154.719H43.6661ZM44.749 153.789H47.8831V149.241L44.749 153.789ZM51.713 152.541C51.713 151.088 51.9508 149.967 52.4265 149.177C52.9021 148.379 53.6071 147.98 54.5414 147.98C55.4757 147.98 56.1806 148.379 56.6563 149.177C57.1319 149.967 57.3697 151.088 57.3697 152.541C57.3697 154.002 57.1319 155.127 56.6563 155.917C56.1806 156.707 55.4757 157.102 54.5414 157.102C53.6071 157.102 52.9021 156.707 52.4265 155.917C51.9508 155.127 51.713 154.002 51.713 152.541ZM56.2613 152.541C56.2613 151.258 56.1042 150.337 55.7899 149.776C55.4842 149.207 55.068 148.923 54.5414 148.923C54.0148 148.923 53.5943 149.207 53.2801 149.776C52.9743 150.337 52.8214 151.258 52.8214 152.541C52.8214 153.823 52.9743 154.749 53.2801 155.318C53.5943 155.879 54.0148 156.159 54.5414 156.159C55.068 156.159 55.4842 155.879 55.7899 155.318C56.1042 154.749 56.2613 153.823 56.2613 152.541ZM59.3522 152.541C59.3522 151.088 59.5901 149.967 60.0657 149.177C60.5413 148.379 61.2463 147.98 62.1806 147.98C63.1149 147.98 63.8199 148.379 64.2955 149.177C64.7712 149.967 65.009 151.088 65.009 152.541C65.009 154.002 64.7712 155.127 64.2955 155.917C63.8199 156.707 63.1149 157.102 62.1806 157.102C61.2463 157.102 60.5413 156.707 60.0657 155.917C59.5901 155.127 59.3522 154.002 59.3522 152.541ZM63.9006 152.541C63.9006 151.258 63.7434 150.337 63.4292 149.776C63.1234 149.207 62.7072 148.923 62.1806 148.923C61.654 148.923 61.2336 149.207 60.9193 149.776C60.6135 150.337 60.4607 151.258 60.4607 152.541C60.4607 153.823 60.6135 154.749 60.9193 155.318C61.2336 155.879 61.654 156.159 62.1806 156.159C62.7072 156.159 63.1234 155.879 63.4292 155.318C63.7434 154.749 63.9006 153.823 63.9006 152.541ZM66.9915 152.541C66.9915 151.088 67.2293 149.967 67.705 149.177C68.1806 148.379 68.8856 147.98 69.8199 147.98C70.7541 147.98 71.4591 148.379 71.9348 149.177C72.4104 149.967 72.6482 151.088 72.6482 152.541C72.6482 154.002 72.4104 155.127 71.9348 155.917C71.4591 156.707 70.7541 157.102 69.8199 157.102C68.8856 157.102 68.1806 156.707 67.705 155.917C67.2293 155.127 66.9915 154.002 66.9915 152.541ZM71.5398 152.541C71.5398 151.258 71.3827 150.337 71.0684 149.776C70.7626 149.207 70.3465 148.923 69.8199 148.923C69.2933 148.923 68.8728 149.207 68.5586 149.776C68.2528 150.337 68.0999 151.258 68.0999 152.541C68.0999 153.823 68.2528 154.749 68.5586 155.318C68.8728 155.879 69.2933 156.159 69.8199 156.159C70.3465 156.159 70.7626 155.879 71.0684 155.318C71.3827 154.749 71.5398 153.823 71.5398 152.541Z" fill="black"/>
<path d="M46.6601 181.102C46.1759 181.102 45.7088 181.034 45.2586 180.898C44.817 180.762 44.4135 180.563 44.0483 180.299L44.5961 179.458C44.9104 179.679 45.2289 179.853 45.5516 179.981C45.8829 180.1 46.2396 180.159 46.6218 180.159C47.1994 180.159 47.6708 179.994 48.036 179.662C48.4097 179.331 48.5966 178.898 48.5966 178.363C48.5966 178.21 48.5796 178.065 48.5456 177.93C48.5117 177.785 48.4564 177.649 48.38 177.522C48.3121 177.394 48.2229 177.28 48.1125 177.178C48.0105 177.076 47.8874 176.987 47.743 176.91C47.6071 176.825 47.45 176.762 47.2716 176.719C47.0932 176.668 46.8936 176.639 46.6728 176.63C46.4605 176.613 46.2269 176.617 45.9721 176.643L45.4879 176.044L47.9978 172.999H44.2266V172.082H49.1699V172.999L46.8894 175.802C47.7897 175.836 48.4819 176.086 48.9661 176.554C49.4587 177.021 49.705 177.611 49.705 178.325C49.705 179.14 49.4205 179.807 48.8514 180.325C48.2823 180.843 47.5519 181.102 46.6601 181.102ZM51.713 176.541C51.713 175.088 51.9508 173.967 52.4265 173.177C52.9021 172.379 53.6071 171.98 54.5414 171.98C55.4757 171.98 56.1806 172.379 56.6563 173.177C57.1319 173.967 57.3697 175.088 57.3697 176.541C57.3697 178.002 57.1319 179.127 56.6563 179.917C56.1806 180.707 55.4757 181.102 54.5414 181.102C53.6071 181.102 52.9021 180.707 52.4265 179.917C51.9508 179.127 51.713 178.002 51.713 176.541ZM56.2613 176.541C56.2613 175.258 56.1042 174.337 55.7899 173.776C55.4842 173.207 55.068 172.923 54.5414 172.923C54.0148 172.923 53.5943 173.207 53.2801 173.776C52.9743 174.337 52.8214 175.258 52.8214 176.541C52.8214 177.823 52.9743 178.749 53.2801 179.318C53.5943 179.879 54.0148 180.159 54.5414 180.159C55.068 180.159 55.4842 179.879 55.7899 179.318C56.1042 178.749 56.2613 177.823 56.2613 176.541ZM59.3522 176.541C59.3522 175.088 59.5901 173.967 60.0657 173.177C60.5413 172.379 61.2463 171.98 62.1806 171.98C63.1149 171.98 63.8199 172.379 64.2955 173.177C64.7712 173.967 65.009 175.088 65.009 176.541C65.009 178.002 64.7712 179.127 64.2955 179.917C63.8199 180.707 63.1149 181.102 62.1806 181.102C61.2463 181.102 60.5413 180.707 60.0657 179.917C59.5901 179.127 59.3522 178.002 59.3522 176.541ZM63.9006 176.541C63.9006 175.258 63.7434 174.337 63.4292 173.776C63.1234 173.207 62.7072 172.923 62.1806 172.923C61.654 172.923 61.2336 173.207 60.9193 173.776C60.6135 174.337 60.4607 175.258 60.4607 176.541C60.4607 177.823 60.6135 178.749 60.9193 179.318C61.2336 179.879 61.654 180.159 62.1806 180.159C62.7072 180.159 63.1234 179.879 63.4292 179.318C63.7434 178.749 63.9006 177.823 63.9006 176.541ZM66.9915 176.541C66.9915 175.088 67.2293 173.967 67.705 173.177C68.1806 172.379 68.8856 171.98 69.8199 171.98C70.7541 171.98 71.4591 172.379 71.9348 173.177C72.4104 173.967 72.6482 175.088 72.6482 176.541C72.6482 178.002 72.4104 179.127 71.9348 179.917C71.4591 180.707 70.7541 181.102 69.8199 181.102C68.8856 181.102 68.1806 180.707 67.705 179.917C67.2293 179.127 66.9915 178.002 66.9915 176.541ZM71.5398 176.541C71.5398 175.258 71.3827 174.337 71.0684 173.776C70.7626 173.207 70.3465 172.923 69.8199 172.923C69.2933 172.923 68.8728 173.207 68.5586 173.776C68.2528 174.337 68.0999 175.258 68.0999 176.541C68.0999 177.823 68.2528 178.749 68.5586 179.318C68.8728 179.879 69.2933 180.159 69.8199 180.159C70.3465 180.159 70.7626 179.879 71.0684 179.318C71.3827 178.749 71.5398 177.823 71.5398 176.541Z" fill="black"/>
<path d="M44.2649 205V204.172L47.45 200.554C47.8577 200.095 48.1252 199.7 48.2526 199.369C48.3885 199.038 48.4564 198.727 48.4564 198.439C48.4564 197.963 48.3078 197.594 48.0105 197.33C47.7218 197.059 47.3693 196.923 46.9531 196.923C46.5284 196.923 46.1504 197.059 45.8192 197.33C45.4879 197.594 45.1779 197.955 44.8891 198.413L44.0483 197.891C44.3795 197.313 44.7915 196.85 45.2841 196.502C45.7852 196.154 46.367 195.98 47.0295 195.98C47.2079 195.98 47.382 195.997 47.5519 196.031C47.7218 196.056 47.8831 196.099 48.036 196.158C48.1889 196.209 48.3333 196.273 48.4692 196.349C48.6136 196.426 48.741 196.515 48.8514 196.617C48.9703 196.719 49.0765 196.833 49.1699 196.961C49.2633 197.088 49.3398 197.224 49.3992 197.369C49.4672 197.504 49.5181 197.653 49.5521 197.814C49.5861 197.976 49.6031 198.146 49.6031 198.324C49.6031 198.766 49.4969 199.203 49.2846 199.636C49.0807 200.069 48.724 200.575 48.2144 201.152L45.6408 204.083H49.6413V205H44.2649ZM51.713 200.541C51.713 199.088 51.9508 197.967 52.4265 197.177C52.9021 196.379 53.6071 195.98 54.5414 195.98C55.4757 195.98 56.1806 196.379 56.6563 197.177C57.1319 197.967 57.3697 199.088 57.3697 200.541C57.3697 202.002 57.1319 203.127 56.6563 203.917C56.1806 204.707 55.4757 205.102 54.5414 205.102C53.6071 205.102 52.9021 204.707 52.4265 203.917C51.9508 203.127 51.713 202.002 51.713 200.541ZM56.2613 200.541C56.2613 199.258 56.1042 198.337 55.7899 197.776C55.4842 197.207 55.068 196.923 54.5414 196.923C54.0148 196.923 53.5943 197.207 53.2801 197.776C52.9743 198.337 52.8214 199.258 52.8214 200.541C52.8214 201.823 52.9743 202.749 53.2801 203.318C53.5943 203.879 54.0148 204.159 54.5414 204.159C55.068 204.159 55.4842 203.879 55.7899 203.318C56.1042 202.749 56.2613 201.823 56.2613 200.541ZM59.3522 200.541C59.3522 199.088 59.5901 197.967 60.0657 197.177C60.5413 196.379 61.2463 195.98 62.1806 195.98C63.1149 195.98 63.8199 196.379 64.2955 197.177C64.7712 197.967 65.009 199.088 65.009 200.541C65.009 202.002 64.7712 203.127 64.2955 203.917C63.8199 204.707 63.1149 205.102 62.1806 205.102C61.2463 205.102 60.5413 204.707 60.0657 203.917C59.5901 203.127 59.3522 202.002 59.3522 200.541ZM63.9006 200.541C63.9006 199.258 63.7434 198.337 63.4292 197.776C63.1234 197.207 62.7072 196.923 62.1806 196.923C61.654 196.923 61.2336 197.207 60.9193 197.776C60.6135 198.337 60.4607 199.258 60.4607 200.541C60.4607 201.823 60.6135 202.749 60.9193 203.318C61.2336 203.879 61.654 204.159 62.1806 204.159C62.7072 204.159 63.1234 203.879 63.4292 203.318C63.7434 202.749 63.9006 201.823 63.9006 200.541ZM66.9915 200.541C66.9915 199.088 67.2293 197.967 67.705 197.177C68.1806 196.379 68.8856 195.98 69.8199 195.98C70.7541 195.98 71.4591 196.379 71.9348 197.177C72.4104 197.967 72.6482 199.088 72.6482 200.541C72.6482 202.002 72.4104 203.127 71.9348 203.917C71.4591 204.707 70.7541 205.102 69.8199 205.102C68.8856 205.102 68.1806 204.707 67.705 203.917C67.2293 203.127 66.9915 202.002 66.9915 200.541ZM71.5398 200.541C71.5398 199.258 71.3827 198.337 71.0684 197.776C70.7626 197.207 70.3465 196.923 69.8199 196.923C69.2933 196.923 68.8728 197.207 68.5586 197.776C68.2528 198.337 68.0999 199.258 68.0999 200.541C68.0999 201.823 68.2528 202.749 68.5586 203.318C68.8728 203.879 69.2933 204.159 69.8199 204.159C70.3465 204.159 70.7626 203.879 71.0684 203.318C71.3827 202.749 71.5398 201.823 71.5398 200.541Z" fill="black"/>
<path d="M44.2776 229V228.07H46.5454V221.381L44.5834 222.948L43.9846 222.235L46.6218 220.082H47.6793V228.07H49.8451V229H44.2776ZM51.713 224.541C51.713 223.088 51.9508 221.967 52.4265 221.177C52.9021 220.379 53.6071 219.98 54.5414 219.98C55.4757 219.98 56.1806 220.379 56.6563 221.177C57.1319 221.967 57.3697 223.088 57.3697 224.541C57.3697 226.002 57.1319 227.127 56.6563 227.917C56.1806 228.707 55.4757 229.102 54.5414 229.102C53.6071 229.102 52.9021 228.707 52.4265 227.917C51.9508 227.127 51.713 226.002 51.713 224.541ZM56.2613 224.541C56.2613 223.258 56.1042 222.337 55.7899 221.776C55.4842 221.207 55.068 220.923 54.5414 220.923C54.0148 220.923 53.5943 221.207 53.2801 221.776C52.9743 222.337 52.8214 223.258 52.8214 224.541C52.8214 225.823 52.9743 226.749 53.2801 227.318C53.5943 227.879 54.0148 228.159 54.5414 228.159C55.068 228.159 55.4842 227.879 55.7899 227.318C56.1042 226.749 56.2613 225.823 56.2613 224.541ZM59.3522 224.541C59.3522 223.088 59.5901 221.967 60.0657 221.177C60.5413 220.379 61.2463 219.98 62.1806 219.98C63.1149 219.98 63.8199 220.379 64.2955 221.177C64.7712 221.967 65.009 223.088 65.009 224.541C65.009 226.002 64.7712 227.127 64.2955 227.917C63.8199 228.707 63.1149 229.102 62.1806 229.102C61.2463 229.102 60.5413 228.707 60.0657 227.917C59.5901 227.127 59.3522 226.002 59.3522 224.541ZM63.9006 224.541C63.9006 223.258 63.7434 222.337 63.4292 221.776C63.1234 221.207 62.7072 220.923 62.1806 220.923C61.654 220.923 61.2336 221.207 60.9193 221.776C60.6135 222.337 60.4607 223.258 60.4607 224.541C60.4607 225.823 60.6135 226.749 60.9193 227.318C61.2336 227.879 61.654 228.159 62.1806 228.159C62.7072 228.159 63.1234 227.879 63.4292 227.318C63.7434 226.749 63.9006 225.823 63.9006 224.541ZM66.9915 224.541C66.9915 223.088 67.2293 221.967 67.705 221.177C68.1806 220.379 68.8856 219.98 69.8199 219.98C70.7541 219.98 71.4591 220.379 71.9348 221.177C72.4104 221.967 72.6482 223.088 72.6482 224.541C72.6482 226.002 72.4104 227.127 71.9348 227.917C71.4591 228.707 70.7541 229.102 69.8199 229.102C68.8856 229.102 68.1806 228.707 67.705 227.917C67.2293 227.127 66.9915 226.002 66.9915 224.541ZM71.5398 224.541C71.5398 223.258 71.3827 222.337 71.0684 221.776C70.7626 221.207 70.3465 220.923 69.8199 220.923C69.2933 220.923 68.8728 221.207 68.5586 221.776C68.2528 222.337 68.0999 223.258 68.0999 224.541C68.0999 225.823 68.2528 226.749 68.5586 227.318C68.8728 227.879 69.2933 228.159 69.8199 228.159C70.3465 228.159 70.7626 227.879 71.0684 227.318C71.3827 226.749 71.5398 225.823 71.5398 224.541Z" fill="black"/>
<path d="M66.9915 248.541C66.9915 247.088 67.2293 245.967 67.705 245.177C68.1806 244.379 68.8856 243.98 69.8199 243.98C70.7541 243.98 71.4591 244.379 71.9348 245.177C72.4104 245.967 72.6482 247.088 72.6482 248.541C72.6482 250.002 72.4104 251.127 71.9348 251.917C71.4591 252.707 70.7541 253.102 69.8199 253.102C68.8856 253.102 68.1806 252.707 67.705 251.917C67.2293 251.127 66.9915 250.002 66.9915 248.541ZM71.5398 248.541C71.5398 247.258 71.3827 246.337 71.0684 245.776C70.7626 245.207 70.3465 244.923 69.8199 244.923C69.2933 244.923 68.8728 245.207 68.5586 245.776C68.2528 246.337 68.0999 247.258 68.0999 248.541C68.0999 249.823 68.2528 250.749 68.5586 251.318C68.8728 251.879 69.2933 252.159 69.8199 252.159C70.3465 252.159 70.7626 251.879 71.0684 251.318C71.3827 250.749 71.5398 249.823 71.5398 248.541Z" fill="black"/>
<path d="M102.952 270.294V271H98.7613V264.318H99.6109V270.294H102.952ZM106.905 269.606L107.544 269.835C107.404 270.166 107.175 270.456 106.857 270.704C106.539 270.952 106.138 271.076 105.654 271.076C105.476 271.076 105.304 271.057 105.139 271.019C104.98 270.981 104.827 270.927 104.68 270.857C104.534 270.787 104.397 270.698 104.27 270.59C104.149 270.481 104.041 270.36 103.945 270.227C103.85 270.087 103.767 269.931 103.697 269.759C103.627 269.587 103.573 269.403 103.535 269.205C103.503 269.002 103.487 268.785 103.487 268.556C103.487 268.359 103.5 268.171 103.525 267.993C103.557 267.815 103.599 267.649 103.649 267.497C103.7 267.344 103.761 267.204 103.831 267.077C103.907 266.943 103.99 266.822 104.079 266.714C104.175 266.606 104.276 266.51 104.385 266.427C104.499 266.345 104.617 266.278 104.738 266.227C104.865 266.17 104.995 266.128 105.129 266.103C105.269 266.071 105.412 266.055 105.559 266.055C106.157 266.055 106.647 266.275 107.029 266.714C107.411 267.153 107.602 267.761 107.602 268.537V268.757H104.28C104.305 269.329 104.445 269.749 104.7 270.017C104.954 270.284 105.272 270.418 105.654 270.418C105.941 270.418 106.186 270.348 106.389 270.208C106.593 270.068 106.765 269.867 106.905 269.606ZM105.549 266.685C105.225 266.685 104.945 266.803 104.709 267.038C104.48 267.267 104.34 267.637 104.289 268.146H106.819C106.761 267.637 106.615 267.267 106.38 267.038C106.151 266.803 105.874 266.685 105.549 266.685ZM110.478 271.048C110.319 271.048 110.166 271.032 110.02 271C109.873 270.962 109.736 270.908 109.609 270.838C109.482 270.761 109.361 270.672 109.246 270.57C109.138 270.462 109.039 270.341 108.95 270.208C108.868 270.068 108.794 269.915 108.731 269.749C108.667 269.578 108.619 269.393 108.588 269.196C108.556 268.999 108.54 268.785 108.54 268.556C108.54 268.327 108.556 268.114 108.588 267.917C108.619 267.719 108.667 267.535 108.731 267.363C108.794 267.191 108.868 267.038 108.95 266.905C109.039 266.765 109.138 266.644 109.246 266.542C109.361 266.434 109.482 266.345 109.609 266.275C109.736 266.198 109.873 266.144 110.02 266.112C110.166 266.074 110.319 266.055 110.478 266.055C110.821 266.055 111.117 266.138 111.366 266.303C111.62 266.469 111.821 266.707 111.967 267.019V266.132H112.769V271.095C112.769 271.242 112.753 271.382 112.721 271.515C112.696 271.649 112.657 271.773 112.607 271.888C112.556 272.002 112.492 272.107 112.416 272.203C112.346 272.305 112.263 272.394 112.167 272.47C112.078 272.553 111.98 272.623 111.871 272.68C111.763 272.744 111.649 272.795 111.528 272.833C111.407 272.877 111.28 272.909 111.146 272.928C111.012 272.947 110.875 272.957 110.735 272.957C110.277 272.957 109.87 272.858 109.514 272.661C109.164 272.47 108.906 272.219 108.74 271.907L109.323 271.468C109.482 271.741 109.679 271.948 109.915 272.088C110.156 272.228 110.424 272.298 110.716 272.298C111.06 272.298 111.353 272.2 111.595 272.002C111.843 271.805 111.967 271.471 111.967 271V270.084C111.821 270.395 111.62 270.634 111.366 270.8C111.117 270.965 110.821 271.048 110.478 271.048ZM110.659 270.399C111.041 270.399 111.353 270.246 111.595 269.94C111.843 269.629 111.967 269.167 111.967 268.556C111.967 267.933 111.843 267.468 111.595 267.162C111.353 266.857 111.041 266.704 110.659 266.704C110.277 266.704 109.962 266.857 109.714 267.162C109.472 267.468 109.351 267.933 109.351 268.556C109.351 269.167 109.472 269.629 109.714 269.94C109.962 270.246 110.277 270.399 110.659 270.399ZM115.539 271.076C115.081 271.076 114.715 270.952 114.441 270.704C114.167 270.45 114.031 270.138 114.031 269.769C114.031 269.31 114.196 268.957 114.527 268.709C114.858 268.454 115.31 268.305 115.882 268.26L117.038 268.165V267.716C117.038 267.372 116.939 267.118 116.742 266.952C116.551 266.787 116.309 266.704 116.016 266.704C115.762 266.704 115.52 266.768 115.291 266.895C115.068 267.022 114.88 267.242 114.727 267.554L114.097 267.229C114.263 266.886 114.508 266.602 114.832 266.38C115.157 266.157 115.567 266.046 116.064 266.046C116.567 266.046 116.99 266.192 117.333 266.485C117.677 266.771 117.849 267.182 117.849 267.716V271H117.038V270.294C116.891 270.535 116.684 270.726 116.417 270.866C116.156 271.006 115.863 271.076 115.539 271.076ZM114.813 269.702C114.813 269.963 114.909 270.154 115.1 270.274C115.291 270.395 115.513 270.456 115.768 270.456C115.863 270.456 115.956 270.446 116.045 270.427C116.134 270.408 116.22 270.383 116.302 270.351C116.385 270.319 116.465 270.278 116.541 270.227C116.618 270.176 116.684 270.119 116.742 270.055C116.805 269.985 116.856 269.912 116.894 269.835C116.939 269.759 116.974 269.676 116.999 269.587C117.025 269.492 117.038 269.393 117.038 269.291V268.785L116.054 268.871C115.641 268.909 115.329 268.995 115.119 269.129C114.915 269.256 114.813 269.447 114.813 269.702ZM120.2 271H119.398V264.318H120.2V271ZM86.2144 279.139L84.5438 275.425L84.5629 281H83.7897V274.318H84.8206L86.5007 278.05L88.1713 274.318H89.2118V281H88.41L88.4386 275.406L86.7489 279.139H86.2144ZM92.0838 281.076C91.6256 281.076 91.2597 280.952 90.986 280.704C90.7124 280.45 90.5756 280.138 90.5756 279.769C90.5756 279.31 90.741 278.957 91.072 278.709C91.4029 278.454 91.8547 278.305 92.4275 278.26L93.5826 278.165V277.716C93.5826 277.372 93.4839 277.118 93.2866 276.952C93.0957 276.787 92.8539 276.704 92.5611 276.704C92.3066 276.704 92.0648 276.768 91.8356 276.895C91.6129 277.022 91.4252 277.242 91.2724 277.554L90.6424 277.229C90.8079 276.886 91.0529 276.602 91.3774 276.38C91.702 276.157 92.1125 276.046 92.6089 276.046C93.1116 276.046 93.5348 276.192 93.8785 276.485C94.2222 276.771 94.394 277.182 94.394 277.716V281H93.5826V280.294C93.4362 280.535 93.2294 280.726 92.9621 280.866C92.7012 281.006 92.4084 281.076 92.0838 281.076ZM91.3583 279.702C91.3583 279.963 91.4538 280.154 91.6447 280.274C91.8356 280.395 92.0584 280.456 92.3129 280.456C92.4084 280.456 92.5007 280.446 92.5898 280.427C92.6789 280.408 92.7648 280.383 92.8475 280.351C92.9303 280.319 93.0098 280.278 93.0862 280.227C93.1625 280.176 93.2294 280.119 93.2866 280.055C93.3503 279.985 93.4012 279.912 93.4394 279.835C93.4839 279.759 93.5189 279.676 93.5444 279.587C93.5698 279.492 93.5826 279.393 93.5826 279.291V278.785L92.5993 278.871C92.1857 278.909 91.8738 278.995 91.6638 279.129C91.4602 279.256 91.3583 279.447 91.3583 279.702ZM99.7138 281H98.9119V277.917C98.9119 277.516 98.8069 277.213 98.5969 277.01C98.3932 276.8 98.1355 276.695 97.8236 276.695C97.5245 276.695 97.2731 276.8 97.0695 277.01C96.8658 277.213 96.764 277.516 96.764 277.917V281H95.9622V276.132H96.764V276.828C96.904 276.574 97.0918 276.383 97.3272 276.256C97.5627 276.122 97.8236 276.055 98.11 276.055C98.5682 276.055 98.9501 276.208 99.2555 276.513C99.561 276.819 99.7138 277.248 99.7138 277.802V281ZM102.45 281.076C101.992 281.076 101.626 280.952 101.352 280.704C101.079 280.45 100.942 280.138 100.942 279.769C100.942 279.31 101.107 278.957 101.438 278.709C101.769 278.454 102.221 278.305 102.794 278.26L103.949 278.165V277.716C103.949 277.372 103.85 277.118 103.653 276.952C103.462 276.787 103.22 276.704 102.928 276.704C102.673 276.704 102.431 276.768 102.202 276.895C101.979 277.022 101.792 277.242 101.639 277.554L101.009 277.229C101.174 276.886 101.419 276.602 101.744 276.38C102.068 276.157 102.479 276.046 102.975 276.046C103.478 276.046 103.901 276.192 104.245 276.485C104.589 276.771 104.76 277.182 104.76 277.716V281H103.949V280.294C103.803 280.535 103.596 280.726 103.328 280.866C103.068 281.006 102.775 281.076 102.45 281.076ZM101.725 279.702C101.725 279.963 101.82 280.154 102.011 280.274C102.202 280.395 102.425 280.456 102.679 280.456C102.775 280.456 102.867 280.446 102.956 280.427C103.045 280.408 103.131 280.383 103.214 280.351C103.297 280.319 103.376 280.278 103.453 280.227C103.529 280.176 103.596 280.119 103.653 280.055C103.717 279.985 103.768 279.912 103.806 279.835C103.85 279.759 103.885 279.676 103.911 279.587C103.936 279.492 103.949 279.393 103.949 279.291V278.785L102.966 278.871C102.552 278.909 102.24 278.995 102.03 279.129C101.827 279.256 101.725 279.447 101.725 279.702ZM107.951 281.048C107.792 281.048 107.64 281.032 107.493 281C107.347 280.962 107.21 280.908 107.083 280.838C106.955 280.761 106.835 280.672 106.72 280.57C106.612 280.462 106.513 280.341 106.424 280.208C106.341 280.068 106.268 279.915 106.204 279.749C106.141 279.578 106.093 279.393 106.061 279.196C106.029 278.999 106.014 278.785 106.014 278.556C106.014 278.327 106.029 278.114 106.061 277.917C106.093 277.719 106.141 277.535 106.204 277.363C106.268 277.191 106.341 277.038 106.424 276.905C106.513 276.765 106.612 276.644 106.72 276.542C106.835 276.434 106.955 276.345 107.083 276.275C107.21 276.198 107.347 276.144 107.493 276.112C107.64 276.074 107.792 276.055 107.951 276.055C108.295 276.055 108.591 276.138 108.839 276.303C109.094 276.469 109.294 276.707 109.441 277.019V276.132H110.242V281.095C110.242 281.242 110.227 281.382 110.195 281.515C110.169 281.649 110.131 281.773 110.08 281.888C110.029 282.002 109.966 282.107 109.889 282.203C109.819 282.305 109.737 282.394 109.641 282.47C109.552 282.553 109.453 282.623 109.345 282.68C109.237 282.744 109.122 282.795 109.001 282.833C108.881 282.877 108.753 282.909 108.62 282.928C108.486 282.947 108.349 282.957 108.209 282.957C107.751 282.957 107.344 282.858 106.987 282.661C106.637 282.47 106.379 282.219 106.214 281.907L106.796 281.468C106.955 281.741 107.153 281.948 107.388 282.088C107.63 282.228 107.897 282.298 108.19 282.298C108.534 282.298 108.826 282.2 109.068 282.002C109.316 281.805 109.441 281.471 109.441 281V280.084C109.294 280.395 109.094 280.634 108.839 280.8C108.591 280.965 108.295 281.048 107.951 281.048ZM108.133 280.399C108.515 280.399 108.826 280.246 109.068 279.94C109.316 279.629 109.441 279.167 109.441 278.556C109.441 277.933 109.316 277.468 109.068 277.162C108.826 276.857 108.515 276.704 108.133 276.704C107.751 276.704 107.436 276.857 107.188 277.162C106.946 277.468 106.825 277.933 106.825 278.556C106.825 279.167 106.946 279.629 107.188 279.94C107.436 280.246 107.751 280.399 108.133 280.399ZM114.931 279.606L115.571 279.835C115.431 280.166 115.202 280.456 114.883 280.704C114.565 280.952 114.164 281.076 113.681 281.076C113.502 281.076 113.331 281.057 113.165 281.019C113.006 280.981 112.853 280.927 112.707 280.857C112.561 280.787 112.424 280.698 112.296 280.59C112.176 280.481 112.067 280.36 111.972 280.227C111.876 280.087 111.794 279.931 111.724 279.759C111.654 279.587 111.6 279.403 111.561 279.205C111.53 279.002 111.514 278.785 111.514 278.556C111.514 278.359 111.526 278.171 111.552 277.993C111.584 277.815 111.625 277.649 111.676 277.497C111.727 277.344 111.787 277.204 111.857 277.077C111.934 276.943 112.016 276.822 112.106 276.714C112.201 276.606 112.303 276.51 112.411 276.427C112.526 276.345 112.643 276.278 112.764 276.227C112.892 276.17 113.022 276.128 113.156 276.103C113.296 276.071 113.439 276.055 113.585 276.055C114.183 276.055 114.673 276.275 115.055 276.714C115.437 277.153 115.628 277.761 115.628 278.537V278.757H112.306C112.331 279.329 112.472 279.749 112.726 280.017C112.981 280.284 113.299 280.418 113.681 280.418C113.967 280.418 114.212 280.348 114.416 280.208C114.619 280.068 114.791 279.867 114.931 279.606ZM113.576 276.685C113.251 276.685 112.971 276.803 112.736 277.038C112.507 277.267 112.366 277.637 112.316 278.146H114.845C114.788 277.637 114.642 277.267 114.406 277.038C114.177 276.803 113.9 276.685 113.576 276.685ZM120.509 281H119.707V277.907C119.707 277.506 119.608 277.204 119.411 277C119.22 276.797 118.978 276.695 118.686 276.695C118.399 276.695 118.161 276.797 117.97 277C117.779 277.204 117.683 277.506 117.683 277.907V281H116.881V276.132H117.683V276.838C117.817 276.583 117.995 276.389 118.218 276.256C118.441 276.122 118.689 276.055 118.962 276.055C119.287 276.055 119.57 276.138 119.812 276.303C120.06 276.462 120.245 276.692 120.366 276.991C120.493 276.685 120.681 276.453 120.929 276.294C121.184 276.135 121.464 276.055 121.769 276.055C122.221 276.055 122.593 276.208 122.886 276.513C123.179 276.819 123.325 277.248 123.325 277.802V281H122.523V277.907C122.523 277.506 122.428 277.204 122.237 277C122.046 276.797 121.804 276.695 121.511 276.695C121.225 276.695 120.986 276.797 120.795 277C120.604 277.204 120.509 277.506 120.509 277.907V281ZM128.001 279.606L128.641 279.835C128.501 280.166 128.272 280.456 127.953 280.704C127.635 280.952 127.234 281.076 126.751 281.076C126.572 281.076 126.401 281.057 126.235 281.019C126.076 280.981 125.923 280.927 125.777 280.857C125.63 280.787 125.494 280.698 125.366 280.59C125.245 280.481 125.137 280.36 125.042 280.227C124.946 280.087 124.864 279.931 124.794 279.759C124.724 279.587 124.67 279.403 124.631 279.205C124.6 279.002 124.584 278.785 124.584 278.556C124.584 278.359 124.596 278.171 124.622 277.993C124.654 277.815 124.695 277.649 124.746 277.497C124.797 277.344 124.857 277.204 124.927 277.077C125.004 276.943 125.086 276.822 125.175 276.714C125.271 276.606 125.373 276.51 125.481 276.427C125.595 276.345 125.713 276.278 125.834 276.227C125.961 276.17 126.092 276.128 126.226 276.103C126.366 276.071 126.509 276.055 126.655 276.055C127.253 276.055 127.743 276.275 128.125 276.714C128.507 277.153 128.698 277.761 128.698 278.537V278.757H125.376C125.401 279.329 125.541 279.749 125.796 280.017C126.051 280.284 126.369 280.418 126.751 280.418C127.037 280.418 127.282 280.348 127.486 280.208C127.689 280.068 127.861 279.867 128.001 279.606ZM126.646 276.685C126.321 276.685 126.041 276.803 125.806 277.038C125.576 277.267 125.436 277.637 125.385 278.146H127.915C127.858 277.637 127.712 277.267 127.476 277.038C127.247 276.803 126.97 276.685 126.646 276.685ZM133.703 281H132.901V277.917C132.901 277.516 132.796 277.213 132.586 277.01C132.382 276.8 132.125 276.695 131.813 276.695C131.514 276.695 131.262 276.8 131.059 277.01C130.855 277.213 130.753 277.516 130.753 277.917V281H129.951V276.132H130.753V276.828C130.893 276.574 131.081 276.383 131.316 276.256C131.552 276.122 131.813 276.055 132.099 276.055C132.557 276.055 132.939 276.208 133.245 276.513C133.55 276.819 133.703 277.248 133.703 277.802V281ZM137.714 280.255L137.771 280.895C137.669 280.952 137.532 280.997 137.36 281.029C137.189 281.06 137.02 281.076 136.854 281.076C136.46 281.076 136.154 280.971 135.938 280.761C135.722 280.545 135.613 280.262 135.613 279.912V276.781H134.497V276.132H135.613V274.776H136.415V276.132H137.752V276.781H136.415V279.778C136.415 279.975 136.469 280.131 136.578 280.246C136.686 280.354 136.835 280.408 137.026 280.408C137.147 280.408 137.262 280.395 137.37 280.37C137.478 280.338 137.593 280.3 137.714 280.255Z" fill="black"/>
<path d="M217.101 267.296V268.003H214.724V271H213.875V264.318H218.065V265.024H214.724V267.296H217.101ZM222.406 271H221.604V270.303C221.464 270.558 221.276 270.752 221.041 270.885C220.805 271.013 220.544 271.076 220.258 271.076C219.8 271.076 219.418 270.924 219.112 270.618C218.807 270.313 218.654 269.883 218.654 269.329V266.132H219.456V269.215C219.456 269.609 219.558 269.912 219.761 270.122C219.965 270.325 220.223 270.427 220.535 270.427C220.834 270.427 221.085 270.325 221.289 270.122C221.499 269.912 221.604 269.609 221.604 269.215V266.132H222.406V271ZM224.76 271H223.958V264.318H224.76V271ZM227.1 271H226.298V264.318H227.1V271ZM202.541 278.833L203.314 279.034C203.117 279.74 202.799 280.259 202.36 280.59C201.927 280.914 201.443 281.076 200.909 281.076C200.12 281.076 199.493 280.777 199.028 280.179C198.57 279.574 198.341 278.734 198.341 277.659C198.341 276.583 198.57 275.746 199.028 275.148C199.493 274.544 200.116 274.241 200.899 274.241C201.434 274.241 201.921 274.407 202.36 274.738C202.799 275.062 203.114 275.584 203.305 276.303L202.532 276.513C202.385 276.017 202.175 275.635 201.902 275.368C201.628 275.094 201.291 274.957 200.89 274.957C200.4 274.957 199.992 275.177 199.668 275.616C199.35 276.049 199.19 276.73 199.19 277.659C199.19 278.588 199.353 279.272 199.677 279.711C200.002 280.144 200.409 280.36 200.899 280.36C201.3 280.36 201.637 280.23 201.911 279.969C202.185 279.702 202.395 279.323 202.541 278.833ZM204.23 278.556C204.23 278.359 204.243 278.174 204.268 278.003C204.3 277.824 204.342 277.659 204.392 277.506C204.443 277.347 204.504 277.204 204.574 277.077C204.65 276.943 204.736 276.822 204.832 276.714C204.927 276.606 205.029 276.51 205.137 276.427C205.252 276.345 205.372 276.275 205.5 276.217C205.627 276.16 205.761 276.119 205.901 276.093C206.047 276.062 206.197 276.046 206.349 276.046C206.502 276.046 206.648 276.062 206.788 276.093C206.935 276.119 207.072 276.16 207.199 276.217C207.326 276.275 207.447 276.345 207.562 276.427C207.676 276.51 207.781 276.606 207.877 276.714C207.972 276.822 208.055 276.943 208.125 277.077C208.201 277.204 208.265 277.347 208.316 277.506C208.367 277.659 208.405 277.824 208.43 278.003C208.462 278.174 208.478 278.359 208.478 278.556C208.478 278.785 208.459 279.002 208.421 279.205C208.389 279.403 208.338 279.587 208.268 279.759C208.204 279.924 208.125 280.077 208.029 280.217C207.934 280.357 207.826 280.481 207.705 280.59C207.584 280.691 207.45 280.78 207.304 280.857C207.164 280.927 207.014 280.981 206.855 281.019C206.696 281.057 206.528 281.076 206.349 281.076C206.197 281.076 206.047 281.06 205.901 281.029C205.761 281.003 205.627 280.962 205.5 280.905C205.372 280.847 205.252 280.78 205.137 280.704C205.029 280.621 204.927 280.526 204.832 280.418C204.736 280.31 204.65 280.189 204.574 280.055C204.504 279.921 204.443 279.778 204.392 279.625C204.342 279.466 204.3 279.298 204.268 279.119C204.243 278.941 204.23 278.753 204.23 278.556ZM207.676 278.556C207.676 277.945 207.549 277.484 207.294 277.172C207.046 276.86 206.731 276.704 206.349 276.704C205.968 276.704 205.653 276.86 205.404 277.172C205.156 277.484 205.032 277.945 205.032 278.556C205.032 279.174 205.156 279.641 205.404 279.959C205.653 280.271 205.968 280.427 206.349 280.427C206.731 280.427 207.046 280.271 207.294 279.959C207.549 279.641 207.676 279.174 207.676 278.556ZM213.499 281H212.697V277.917C212.697 277.516 212.592 277.213 212.382 277.01C212.178 276.8 211.92 276.695 211.608 276.695C211.309 276.695 211.058 276.8 210.854 277.01C210.651 277.213 210.549 277.516 210.549 277.917V281H209.747V276.132H210.549V276.828C210.689 276.574 210.877 276.383 211.112 276.256C211.348 276.122 211.608 276.055 211.895 276.055C212.353 276.055 212.735 276.208 213.04 276.513C213.346 276.819 213.499 277.248 213.499 277.802V281ZM214.498 279.893L215.118 279.539C215.277 279.858 215.465 280.09 215.681 280.236C215.904 280.376 216.149 280.446 216.416 280.446C216.709 280.446 216.954 280.383 217.152 280.255C217.349 280.122 217.447 279.928 217.447 279.673C217.447 279.431 217.33 279.259 217.094 279.158C216.865 279.049 216.601 278.954 216.302 278.871C216.219 278.846 216.136 278.82 216.054 278.795C215.971 278.769 215.888 278.744 215.806 278.718C215.723 278.687 215.64 278.655 215.557 278.623C215.481 278.591 215.408 278.553 215.338 278.508C215.268 278.464 215.201 278.416 215.137 278.365C215.074 278.314 215.016 278.257 214.965 278.193C214.921 278.13 214.88 278.063 214.841 277.993C214.803 277.917 214.775 277.834 214.755 277.745C214.736 277.649 214.727 277.548 214.727 277.439C214.727 277.312 214.74 277.194 214.765 277.086C214.797 276.978 214.838 276.879 214.889 276.79C214.946 276.695 215.01 276.609 215.08 276.532C215.156 276.456 215.239 276.389 215.328 276.332C215.424 276.268 215.526 276.217 215.634 276.179C215.742 276.135 215.853 276.103 215.968 276.084C216.089 276.065 216.213 276.055 216.34 276.055C216.773 276.055 217.142 276.167 217.447 276.389C217.759 276.612 218.008 276.895 218.192 277.239L217.591 277.583C217.425 277.277 217.244 277.051 217.047 276.905C216.849 276.752 216.623 276.676 216.369 276.676C216.146 276.676 215.949 276.736 215.777 276.857C215.611 276.972 215.529 277.147 215.529 277.382C215.529 277.637 215.64 277.821 215.863 277.936C216.092 278.05 216.353 278.149 216.646 278.232C216.728 278.257 216.811 278.283 216.894 278.308C216.983 278.333 217.069 278.362 217.152 278.394C217.234 278.419 217.314 278.448 217.39 278.48C217.473 278.512 217.549 278.55 217.619 278.594C217.696 278.633 217.766 278.677 217.829 278.728C217.893 278.779 217.95 278.836 218.001 278.9C218.052 278.957 218.097 279.024 218.135 279.1C218.173 279.17 218.202 279.25 218.221 279.339C218.24 279.428 218.249 279.527 218.249 279.635C218.249 279.749 218.237 279.858 218.211 279.959C218.186 280.061 218.151 280.157 218.106 280.246C218.062 280.335 218.004 280.418 217.934 280.494C217.871 280.57 217.797 280.64 217.715 280.704C217.638 280.761 217.549 280.815 217.447 280.866C217.352 280.911 217.25 280.949 217.142 280.981C217.034 281.013 216.919 281.035 216.798 281.048C216.684 281.067 216.566 281.076 216.445 281.076C215.949 281.076 215.545 280.968 215.233 280.752C214.921 280.529 214.676 280.243 214.498 279.893ZM223.109 281H222.308V280.303C222.168 280.558 221.98 280.752 221.744 280.885C221.509 281.013 221.248 281.076 220.962 281.076C220.503 281.076 220.122 280.924 219.816 280.618C219.511 280.313 219.358 279.883 219.358 279.329V276.132H220.16V279.215C220.16 279.609 220.262 279.912 220.465 280.122C220.669 280.325 220.927 280.427 221.238 280.427C221.538 280.427 221.789 280.325 221.993 280.122C222.203 279.912 222.308 279.609 222.308 279.215V276.132H223.109V281ZM225.464 281H224.662V274.318H225.464V281ZM229.666 280.255L229.723 280.895C229.621 280.952 229.484 280.997 229.312 281.029C229.14 281.06 228.972 281.076 228.806 281.076C228.412 281.076 228.106 280.971 227.89 280.761C227.674 280.545 227.565 280.262 227.565 279.912V276.781H226.449V276.132H227.565V274.776H228.367V276.132H229.704V276.781H228.367V279.778C228.367 279.975 228.421 280.131 228.53 280.246C228.638 280.354 228.787 280.408 228.978 280.408C229.099 280.408 229.214 280.395 229.322 280.37C229.43 280.338 229.545 280.3 229.666 280.255ZM231.105 275.158C230.952 275.158 230.815 275.104 230.694 274.996C230.58 274.887 230.522 274.751 230.522 274.585C230.522 274.426 230.58 274.295 230.694 274.194C230.815 274.085 230.952 274.031 231.105 274.031C231.251 274.031 231.385 274.085 231.506 274.194C231.627 274.295 231.687 274.426 231.687 274.585C231.687 274.751 231.627 274.887 231.506 274.996C231.385 275.104 231.251 275.158 231.105 275.158ZM231.496 281H230.694V276.132H231.496V281ZM236.823 281H236.021V277.917C236.021 277.516 235.916 277.213 235.706 277.01C235.503 276.8 235.245 276.695 234.933 276.695C234.634 276.695 234.382 276.8 234.179 277.01C233.975 277.213 233.873 277.516 233.873 277.917V281H233.071V276.132H233.873V276.828C234.013 276.574 234.201 276.383 234.437 276.256C234.672 276.122 234.933 276.055 235.219 276.055C235.678 276.055 236.059 276.208 236.365 276.513C236.67 276.819 236.823 277.248 236.823 277.802V281ZM239.999 281.048C239.84 281.048 239.687 281.032 239.54 281C239.394 280.962 239.257 280.908 239.13 280.838C239.003 280.761 238.882 280.672 238.767 280.57C238.659 280.462 238.56 280.341 238.471 280.208C238.389 280.068 238.315 279.915 238.252 279.749C238.188 279.578 238.14 279.393 238.109 279.196C238.077 278.999 238.061 278.785 238.061 278.556C238.061 278.327 238.077 278.114 238.109 277.917C238.14 277.719 238.188 277.535 238.252 277.363C238.315 277.191 238.389 277.038 238.471 276.905C238.56 276.765 238.659 276.644 238.767 276.542C238.882 276.434 239.003 276.345 239.13 276.275C239.257 276.198 239.394 276.144 239.54 276.112C239.687 276.074 239.84 276.055 239.999 276.055C240.342 276.055 240.638 276.138 240.886 276.303C241.141 276.469 241.341 276.707 241.488 277.019V276.132H242.29V281.095C242.29 281.242 242.274 281.382 242.242 281.515C242.217 281.649 242.178 281.773 242.127 281.888C242.077 282.002 242.013 282.107 241.937 282.203C241.867 282.305 241.784 282.394 241.688 282.47C241.599 282.553 241.501 282.623 241.392 282.68C241.284 282.744 241.17 282.795 241.049 282.833C240.928 282.877 240.801 282.909 240.667 282.928C240.533 282.947 240.396 282.957 240.256 282.957C239.798 282.957 239.391 282.858 239.035 282.661C238.685 282.47 238.427 282.219 238.261 281.907L238.844 281.468C239.003 281.741 239.2 281.948 239.435 282.088C239.677 282.228 239.945 282.298 240.237 282.298C240.581 282.298 240.874 282.2 241.116 282.002C241.364 281.805 241.488 281.471 241.488 281V280.084C241.341 280.395 241.141 280.634 240.886 280.8C240.638 280.965 240.342 281.048 239.999 281.048ZM240.18 280.399C240.562 280.399 240.874 280.246 241.116 279.94C241.364 279.629 241.488 279.167 241.488 278.556C241.488 277.933 241.364 277.468 241.116 277.162C240.874 276.857 240.562 276.704 240.18 276.704C239.798 276.704 239.483 276.857 239.235 277.162C238.993 277.468 238.872 277.933 238.872 278.556C238.872 279.167 238.993 279.629 239.235 279.94C239.483 280.246 239.798 280.399 240.18 280.399Z" fill="black"/>
<rect x="150.061" y="236.062" width="38.8118" height="13.7719" fill="#4C72B0"/>
<rect x="92.8237" y="164.699" width="38.8118" height="85.1356" fill="#DD8452"/>
<rect x="205.061" y="84.5703" width="38.8118" height="165.263" fill="#55A868"/>
</g>
<rect x="0.498574" y="0.498574" width="262.003" height="313.003" rx="15.4558" stroke="#CCD6DB" stroke-width="0.997147"/>
<defs>
<clipPath id="clip0_1093_28918">
<rect width="263" height="314" rx="15.9544" fill="white"/>
</clipPath>
</defs>
</svg>
