<svg width="314" height="558" viewBox="0 0 314 558" fill="none" xmlns="http://www.w3.org/2000/svg">
<g clip-path="url(#clip0_1093_29276)">
<rect x="1.77148" y="1.77148" width="310.01" height="553.991" rx="155.005" fill="black" stroke="black" stroke-width="3.54297"/>
<path d="M156.559 311.61C156.559 304.236 162.558 298.176 169.879 299.054C192.193 301.728 213.299 311.078 230.35 326.032C250.764 343.934 263.974 368.647 267.518 395.567C271.062 422.486 264.698 449.776 249.614 472.352C234.529 494.928 211.751 511.25 185.525 518.278C159.298 525.305 131.411 522.559 107.059 510.55C82.7074 498.541 63.5518 478.088 53.1612 453.003C42.7707 427.918 41.8538 399.911 50.5815 374.2C57.8715 352.725 71.475 334.075 89.4619 320.601C95.3638 316.181 103.589 318.429 107.276 324.815V324.815C110.963 331.201 108.69 339.292 102.958 343.931C90.5076 354.005 81.0734 367.448 75.8676 382.784C69.2224 402.36 69.9204 423.685 77.8318 442.785C85.7432 461.884 100.328 477.457 118.87 486.6C137.411 495.744 158.644 497.835 178.613 492.484C198.582 487.134 215.925 474.706 227.411 457.517C238.896 440.327 243.741 419.549 241.043 399.052C238.344 378.556 228.287 359.739 212.744 346.108C200.567 335.43 185.675 328.505 169.856 326.005C162.572 324.855 156.559 318.984 156.559 311.61V311.61Z" fill="#00D639"/>
<path d="M117.102 319.852C114.151 313.095 117.222 305.14 124.282 303.014C126.144 302.453 128.019 301.941 129.907 301.478C137.069 299.722 143.756 305.013 144.647 312.333L144.764 313.291C145.59 320.082 140.716 326.168 134.117 327.97V327.97C127.518 329.772 120.227 327.006 117.489 320.737L117.102 319.852Z" fill="#303030"/>
<path d="M50.3076 152.134C50.2613 152.296 50.1918 152.435 50.0992 152.551C50.0066 152.643 49.8562 152.689 49.6478 152.689H46.4188C46.2336 152.689 46.1063 152.643 46.0369 152.551C45.9674 152.435 45.9558 152.308 46.0021 152.169L53.8491 128.836C53.8954 128.674 53.9648 128.558 54.0574 128.489C54.15 128.419 54.2773 128.385 54.4394 128.385H58.3628C58.5249 128.385 58.6522 128.419 58.7448 128.489C58.8374 128.558 58.9184 128.674 58.9878 128.836L66.8348 152.169C66.8811 152.308 66.8579 152.435 66.7654 152.551C66.6959 152.643 66.5802 152.689 66.4181 152.689H62.9113C62.703 152.689 62.5525 152.643 62.4599 152.551C62.3905 152.435 62.3326 152.296 62.2863 152.134L60.6544 146.96H51.9394L50.3076 152.134ZM52.9811 143.697H59.6128L56.3143 133.176L52.9811 143.697ZM80.0459 145.919V135.225C80.0459 135.086 80.0806 134.97 80.1501 134.878C80.2427 134.785 80.37 134.739 80.532 134.739H83.6569C83.8189 134.739 83.9347 134.785 84.0041 134.878C84.0967 134.97 84.143 135.086 84.143 135.225V152.203C84.143 152.342 84.0967 152.458 84.0041 152.551C83.9347 152.643 83.8189 152.689 83.6569 152.689H80.532C80.37 152.689 80.2427 152.643 80.1501 152.551C80.0806 152.458 80.0459 152.342 80.0459 152.203V150.085C79.5367 151.011 78.8422 151.729 77.9626 152.238C77.1062 152.724 76.1456 152.967 75.0808 152.967C73.391 152.967 71.9906 152.412 70.8795 151.301C69.7685 150.19 69.2129 148.627 69.2129 146.613V135.225C69.2129 135.086 69.2592 134.97 69.3518 134.878C69.4444 134.785 69.5717 134.739 69.7337 134.739H72.8239C73.0091 134.739 73.1364 134.785 73.2058 134.878C73.2753 134.97 73.31 135.086 73.31 135.225V145.919C73.31 147.169 73.6225 148.118 74.2475 148.766C74.8725 149.414 75.671 149.738 76.6432 149.738C77.6154 149.738 78.4256 149.414 79.0737 148.766C79.7218 148.118 80.0459 147.169 80.0459 145.919ZM96.5121 152.967C94.8918 152.967 93.6418 152.551 92.7622 151.717C91.8826 150.861 91.4428 149.738 91.4428 148.349V137.933H87.7624C87.6467 137.933 87.5541 137.898 87.4846 137.829C87.4152 137.759 87.3805 137.655 87.3805 137.516V135.121C87.3805 134.982 87.4152 134.889 87.4846 134.843C87.5541 134.773 87.6467 134.739 87.7624 134.739H91.4428V130.329C91.4428 130.19 91.4776 130.074 91.547 129.982C91.6164 129.889 91.7322 129.843 91.8942 129.843H95.0191C95.1811 129.843 95.2969 129.889 95.3663 129.982C95.4589 130.074 95.5052 130.19 95.5052 130.329V134.739H99.9148C100.031 134.739 100.123 134.773 100.193 134.843C100.285 134.889 100.331 134.982 100.331 135.121V137.516C100.331 137.655 100.285 137.759 100.193 137.829C100.123 137.898 100.031 137.933 99.9148 137.933H95.5052V147.516C95.5052 148.187 95.6904 148.708 96.0607 149.078C96.4542 149.449 96.9866 149.634 97.6579 149.634C98.0051 149.634 98.3408 149.599 98.6648 149.53C99.012 149.46 99.3824 149.368 99.7759 149.252C99.9148 149.206 100.019 149.217 100.088 149.287C100.181 149.333 100.227 149.403 100.227 149.495L100.331 151.891C100.331 151.983 100.32 152.064 100.297 152.134C100.274 152.203 100.216 152.261 100.123 152.308C99.7065 152.516 99.1741 152.678 98.5259 152.794C97.8778 152.909 97.2065 152.967 96.5121 152.967ZM102.452 143.697C102.452 142.979 102.499 142.296 102.591 141.648C102.707 140.977 102.869 140.363 103.077 139.808C103.286 139.229 103.529 138.697 103.807 138.211C104.107 137.725 104.443 137.285 104.813 136.891C105.184 136.475 105.589 136.116 106.029 135.815C106.468 135.514 106.931 135.259 107.418 135.051C107.927 134.843 108.459 134.692 109.015 134.6C109.57 134.484 110.149 134.426 110.751 134.426C111.353 134.426 111.931 134.484 112.487 134.6C113.042 134.692 113.563 134.843 114.049 135.051C114.558 135.259 115.033 135.514 115.473 135.815C115.913 136.116 116.318 136.475 116.688 136.891C117.058 137.285 117.382 137.725 117.66 138.211C117.961 138.697 118.216 139.229 118.424 139.808C118.632 140.363 118.783 140.977 118.875 141.648C118.991 142.296 119.049 142.979 119.049 143.697C119.049 144.437 118.991 145.132 118.875 145.78C118.783 146.428 118.632 147.041 118.424 147.62C118.216 148.199 117.961 148.731 117.66 149.217C117.382 149.703 117.058 150.143 116.688 150.537C116.318 150.93 115.913 151.277 115.473 151.578C115.033 151.879 114.558 152.134 114.049 152.342C113.563 152.551 113.042 152.701 112.487 152.794C111.931 152.909 111.353 152.967 110.751 152.967C110.149 152.967 109.57 152.909 109.015 152.794C108.459 152.701 107.927 152.551 107.418 152.342C106.931 152.134 106.468 151.879 106.029 151.578C105.589 151.277 105.184 150.93 104.813 150.537C104.443 150.143 104.107 149.703 103.807 149.217C103.529 148.731 103.286 148.199 103.077 147.62C102.869 147.041 102.707 146.428 102.591 145.78C102.499 145.132 102.452 144.437 102.452 143.697ZM114.987 143.697C114.987 141.706 114.582 140.213 113.771 139.218C112.961 138.199 111.954 137.69 110.751 137.69C109.524 137.69 108.505 138.199 107.695 139.218C106.908 140.213 106.515 141.706 106.515 143.697C106.515 145.711 106.908 147.227 107.695 148.245C108.505 149.24 109.524 149.738 110.751 149.738C111.954 149.738 112.961 149.24 113.771 148.245C114.582 147.227 114.987 145.711 114.987 143.697ZM123.579 152.689C123.393 152.689 123.266 152.643 123.197 152.551C123.127 152.458 123.092 152.342 123.092 152.203V135.19C123.092 135.074 123.127 134.97 123.197 134.878C123.266 134.785 123.393 134.739 123.579 134.739H126.669C126.831 134.739 126.958 134.785 127.051 134.878C127.143 134.97 127.19 135.074 127.19 135.19V137.412C127.676 136.463 128.335 135.734 129.169 135.225C130.002 134.715 130.916 134.461 131.912 134.461C133.092 134.461 134.134 134.75 135.037 135.329C135.939 135.908 136.611 136.741 137.05 137.829C137.513 136.741 138.208 135.908 139.134 135.329C140.083 134.75 141.124 134.461 142.259 134.461C143.925 134.461 145.291 135.016 146.356 136.127C147.42 137.239 147.953 138.801 147.953 140.815V152.203C147.953 152.342 147.906 152.458 147.814 152.551C147.744 152.643 147.629 152.689 147.467 152.689H144.377C144.191 152.689 144.052 152.643 143.96 152.551C143.89 152.458 143.856 152.342 143.856 152.203V141.44C143.856 140.19 143.555 139.252 142.953 138.627C142.374 137.979 141.622 137.655 140.696 137.655C139.816 137.655 139.076 137.979 138.474 138.627C137.872 139.252 137.571 140.19 137.571 141.44V152.203C137.571 152.342 137.525 152.458 137.432 152.551C137.363 152.643 137.247 152.689 137.085 152.689H133.925C133.763 152.689 133.648 152.643 133.578 152.551C133.509 152.458 133.474 152.342 133.474 152.203V141.44C133.474 140.19 133.173 139.252 132.571 138.627C131.993 137.979 131.24 137.655 130.314 137.655C129.412 137.655 128.659 137.979 128.058 138.627C127.479 139.252 127.19 140.19 127.19 141.44V152.203C127.19 152.342 127.143 152.458 127.051 152.551C126.958 152.643 126.831 152.689 126.669 152.689H123.579ZM157.478 152.967C155.788 152.967 154.434 152.504 153.415 151.578C152.42 150.652 151.922 149.495 151.922 148.106C151.922 146.463 152.524 145.178 153.728 144.252C154.932 143.303 156.598 142.748 158.728 142.586L162.964 142.273V141.093C162.964 139.958 162.651 139.09 162.026 138.489C161.424 137.887 160.626 137.586 159.63 137.586C158.797 137.586 158.033 137.771 157.339 138.141C156.668 138.489 156.043 139.148 155.464 140.12C155.371 140.213 155.267 140.271 155.151 140.294C155.036 140.294 154.897 140.259 154.735 140.19L152.582 139.183C152.443 139.114 152.362 139.021 152.339 138.905C152.316 138.766 152.339 138.627 152.408 138.489C153.057 137.354 154.006 136.405 155.256 135.641C156.506 134.854 158.091 134.461 160.012 134.461C162.096 134.461 163.774 135.051 165.047 136.232C166.343 137.412 166.991 139.056 166.991 141.162V152.203C166.991 152.365 166.945 152.493 166.852 152.585C166.783 152.655 166.667 152.689 166.505 152.689H163.38C163.241 152.689 163.137 152.655 163.068 152.585C162.998 152.493 162.964 152.365 162.964 152.203V150.085C162.431 150.988 161.679 151.694 160.707 152.203C159.758 152.713 158.681 152.967 157.478 152.967ZM155.846 147.724C155.846 148.558 156.135 149.171 156.714 149.565C157.293 149.935 157.999 150.12 158.832 150.12C159.897 150.12 160.846 149.784 161.679 149.113C162.535 148.442 162.964 147.516 162.964 146.335V144.842L159.63 145.155C158.38 145.248 157.431 145.502 156.783 145.919C156.158 146.335 155.846 146.937 155.846 147.724ZM178.737 152.967C177.117 152.967 175.867 152.551 174.987 151.717C174.108 150.861 173.668 149.738 173.668 148.349V137.933H169.988C169.872 137.933 169.779 137.898 169.71 137.829C169.64 137.759 169.606 137.655 169.606 137.516V135.121C169.606 134.982 169.64 134.889 169.71 134.843C169.779 134.773 169.872 134.739 169.988 134.739H173.668V130.329C173.668 130.19 173.703 130.074 173.772 129.982C173.842 129.889 173.957 129.843 174.119 129.843H177.244C177.406 129.843 177.522 129.889 177.592 129.982C177.684 130.074 177.73 130.19 177.73 130.329V134.739H182.14C182.256 134.739 182.348 134.773 182.418 134.843C182.51 134.889 182.557 134.982 182.557 135.121V137.516C182.557 137.655 182.51 137.759 182.418 137.829C182.348 137.898 182.256 137.933 182.14 137.933H177.73V147.516C177.73 148.187 177.916 148.708 178.286 149.078C178.68 149.449 179.212 149.634 179.883 149.634C180.23 149.634 180.566 149.599 180.89 149.53C181.237 149.46 181.608 149.368 182.001 149.252C182.14 149.206 182.244 149.217 182.314 149.287C182.406 149.333 182.453 149.403 182.453 149.495L182.557 151.891C182.557 151.983 182.545 152.064 182.522 152.134C182.499 152.203 182.441 152.261 182.348 152.308C181.932 152.516 181.399 152.678 180.751 152.794C180.103 152.909 179.432 152.967 178.737 152.967ZM200.163 144.634H188.636C188.752 146.44 189.215 147.771 190.025 148.627C190.858 149.46 191.9 149.877 193.15 149.877C194.006 149.877 194.747 149.68 195.372 149.287C196.02 148.87 196.564 148.268 197.004 147.481C197.073 147.366 197.154 147.296 197.247 147.273C197.339 147.227 197.467 147.227 197.629 147.273L200.024 147.828C200.21 147.875 200.325 147.944 200.372 148.037C200.441 148.129 200.453 148.245 200.406 148.384C200.267 148.731 200.094 149.067 199.886 149.391C199.677 149.715 199.446 150.028 199.191 150.328C198.96 150.629 198.682 150.919 198.358 151.196C198.057 151.451 197.721 151.694 197.351 151.926C196.981 152.134 196.575 152.319 196.136 152.481C195.696 152.643 195.221 152.759 194.712 152.828C194.226 152.921 193.694 152.967 193.115 152.967C192.513 152.967 191.923 152.909 191.344 152.794C190.789 152.701 190.256 152.551 189.747 152.342C189.238 152.134 188.752 151.879 188.289 151.578C187.849 151.277 187.444 150.93 187.073 150.537C186.703 150.143 186.367 149.703 186.067 149.217C185.766 148.731 185.511 148.199 185.303 147.62C185.094 147.041 184.932 146.428 184.817 145.78C184.724 145.132 184.678 144.437 184.678 143.697C184.678 142.979 184.724 142.296 184.817 141.648C184.932 140.977 185.094 140.363 185.303 139.808C185.511 139.229 185.754 138.697 186.032 138.211C186.333 137.725 186.657 137.285 187.004 136.891C187.374 136.498 187.779 136.151 188.219 135.85C188.659 135.549 189.122 135.294 189.608 135.086C190.094 134.878 190.603 134.727 191.136 134.634C191.668 134.519 192.224 134.461 192.802 134.461C193.381 134.461 193.937 134.519 194.469 134.634C195.001 134.727 195.511 134.878 195.997 135.086C196.483 135.294 196.934 135.549 197.351 135.85C197.768 136.151 198.149 136.498 198.497 136.891C198.867 137.285 199.191 137.725 199.469 138.211C199.747 138.697 199.978 139.229 200.163 139.808C200.348 140.363 200.487 140.965 200.58 141.613C200.696 142.262 200.754 142.944 200.754 143.662C200.754 143.963 200.707 144.206 200.615 144.391C200.545 144.553 200.395 144.634 200.163 144.634ZM192.733 137.482C191.738 137.482 190.87 137.84 190.129 138.558C189.388 139.252 188.914 140.398 188.705 141.995H196.83C196.645 140.398 196.17 139.252 195.406 138.558C194.666 137.84 193.775 137.482 192.733 137.482ZM222.694 145.919V135.225C222.694 135.086 222.729 134.97 222.798 134.878C222.891 134.785 223.018 134.739 223.18 134.739H226.305C226.467 134.739 226.583 134.785 226.652 134.878C226.745 134.97 226.791 135.086 226.791 135.225V152.203C226.791 152.342 226.745 152.458 226.652 152.551C226.583 152.643 226.467 152.689 226.305 152.689H223.18C223.018 152.689 222.891 152.643 222.798 152.551C222.729 152.458 222.694 152.342 222.694 152.203V150.085C222.185 151.011 221.49 151.729 220.611 152.238C219.754 152.724 218.794 152.967 217.729 152.967C216.039 152.967 214.639 152.412 213.528 151.301C212.417 150.19 211.861 148.627 211.861 146.613V135.225C211.861 135.086 211.907 134.97 212 134.878C212.093 134.785 212.22 134.739 212.382 134.739H215.472C215.657 134.739 215.785 134.785 215.854 134.878C215.923 134.97 215.958 135.086 215.958 135.225V145.919C215.958 147.169 216.271 148.118 216.896 148.766C217.521 149.414 218.319 149.738 219.291 149.738C220.264 149.738 221.074 149.414 221.722 148.766C222.37 148.118 222.694 147.169 222.694 145.919ZM232.285 159.703C232.1 159.703 231.973 159.657 231.904 159.564C231.834 159.472 231.799 159.367 231.799 159.252V135.225C231.799 135.086 231.834 134.97 231.904 134.878C231.973 134.785 232.1 134.739 232.285 134.739H235.376C235.538 134.739 235.665 134.785 235.758 134.878C235.85 134.97 235.896 135.086 235.896 135.225V137.759C236.406 136.695 237.112 135.884 238.014 135.329C238.917 134.75 239.982 134.461 241.209 134.461C241.811 134.461 242.378 134.53 242.91 134.669C243.442 134.808 243.952 135.005 244.438 135.259C244.924 135.514 245.364 135.838 245.757 136.232C246.174 136.625 246.544 137.077 246.868 137.586C247.192 138.095 247.47 138.662 247.702 139.287C247.933 139.912 248.107 140.595 248.222 141.336C248.338 142.076 248.396 142.863 248.396 143.697C248.396 144.553 248.338 145.352 248.222 146.092C248.107 146.833 247.933 147.516 247.702 148.141C247.47 148.766 247.192 149.333 246.868 149.842C246.544 150.352 246.174 150.803 245.757 151.196C245.364 151.59 244.924 151.914 244.438 152.169C243.952 152.423 243.442 152.62 242.91 152.759C242.378 152.898 241.811 152.967 241.209 152.967C239.982 152.967 238.917 152.678 238.014 152.099C237.112 151.521 236.406 150.699 235.896 149.634V159.252C235.896 159.367 235.85 159.472 235.758 159.564C235.665 159.657 235.538 159.703 235.376 159.703H232.285ZM240.063 149.669C241.313 149.669 242.331 149.171 243.118 148.176C243.929 147.18 244.334 145.687 244.334 143.697C244.334 141.683 243.929 140.19 243.118 139.218C242.331 138.222 241.313 137.725 240.063 137.725C238.859 137.725 237.864 138.222 237.077 139.218C236.29 140.19 235.896 141.683 235.896 143.697C235.896 145.687 236.29 147.18 237.077 148.176C237.864 149.171 238.859 149.669 240.063 149.669ZM55.6199 193.967C53.9996 193.967 52.7496 193.551 51.87 192.717C50.9904 191.861 50.5506 190.738 50.5506 189.349V178.933H46.8702C46.7544 178.933 46.6618 178.898 46.5924 178.829C46.523 178.759 46.4882 178.655 46.4882 178.516V176.121C46.4882 175.982 46.523 175.889 46.5924 175.843C46.6618 175.773 46.7544 175.739 46.8702 175.739H50.5506V171.329C50.5506 171.19 50.5853 171.074 50.6548 170.982C50.7242 170.889 50.8399 170.843 51.002 170.843H54.1269C54.2889 170.843 54.4046 170.889 54.4741 170.982C54.5667 171.074 54.613 171.19 54.613 171.329V175.739H59.0225C59.1383 175.739 59.2309 175.773 59.3003 175.843C59.3929 175.889 59.4392 175.982 59.4392 176.121V178.516C59.4392 178.655 59.3929 178.759 59.3003 178.829C59.2309 178.898 59.1383 178.933 59.0225 178.933H54.613V188.516C54.613 189.187 54.7981 189.708 55.1685 190.078C55.562 190.449 56.0944 190.634 56.7657 190.634C57.1129 190.634 57.4485 190.599 57.7726 190.53C58.1198 190.46 58.4902 190.368 58.8837 190.252C59.0225 190.206 59.1267 190.217 59.1962 190.287C59.2887 190.333 59.335 190.403 59.335 190.495L59.4392 192.891C59.4392 192.983 59.4276 193.064 59.4045 193.134C59.3813 193.203 59.3235 193.261 59.2309 193.308C58.8142 193.516 58.2818 193.678 57.6337 193.794C56.9856 193.909 56.3143 193.967 55.6199 193.967ZM61.5602 184.697C61.5602 183.979 61.6065 183.296 61.6991 182.648C61.8148 181.977 61.9768 181.363 62.1852 180.808C62.3935 180.229 62.6365 179.697 62.9143 179.211C63.2152 178.725 63.5508 178.285 63.9212 177.891C64.2916 177.475 64.6966 177.116 65.1364 176.815C65.5762 176.514 66.0392 176.259 66.5253 176.051C67.0345 175.843 67.5669 175.692 68.1225 175.6C68.678 175.484 69.2567 175.426 69.8585 175.426C70.4603 175.426 71.039 175.484 71.5946 175.6C72.1501 175.692 72.6709 175.843 73.157 176.051C73.6663 176.259 74.1408 176.514 74.5806 176.815C75.0204 177.116 75.4255 177.475 75.7958 177.891C76.1662 178.285 76.4902 178.725 76.768 179.211C77.0689 179.697 77.3236 180.229 77.5319 180.808C77.7402 181.363 77.8907 181.977 77.9833 182.648C78.099 183.296 78.1569 183.979 78.1569 184.697C78.1569 185.437 78.099 186.132 77.9833 186.78C77.8907 187.428 77.7402 188.041 77.5319 188.62C77.3236 189.199 77.0689 189.731 76.768 190.217C76.4902 190.703 76.1662 191.143 75.7958 191.537C75.4255 191.93 75.0204 192.277 74.5806 192.578C74.1408 192.879 73.6663 193.134 73.157 193.342C72.6709 193.551 72.1501 193.701 71.5946 193.794C71.039 193.909 70.4603 193.967 69.8585 193.967C69.2567 193.967 68.678 193.909 68.1225 193.794C67.5669 193.701 67.0345 193.551 66.5253 193.342C66.0392 193.134 65.5762 192.879 65.1364 192.578C64.6966 192.277 64.2916 191.93 63.9212 191.537C63.5508 191.143 63.2152 190.703 62.9143 190.217C62.6365 189.731 62.3935 189.199 62.1852 188.62C61.9768 188.041 61.8148 187.428 61.6991 186.78C61.6065 186.132 61.5602 185.437 61.5602 184.697ZM74.0945 184.697C74.0945 182.706 73.6894 181.213 72.8792 180.218C72.0691 179.199 71.0622 178.69 69.8585 178.69C68.6317 178.69 67.6132 179.199 66.8031 180.218C66.016 181.213 65.6225 182.706 65.6225 184.697C65.6225 186.711 66.016 188.227 66.8031 189.245C67.6132 190.24 68.6317 190.738 69.8585 190.738C71.0622 190.738 72.0691 190.24 72.8792 189.245C73.6894 188.227 74.0945 186.711 74.0945 184.697Z" fill="white"/>
<path d="M92.2349 190.53C93.971 189.21 95.5913 187.903 97.0959 186.606C98.6236 185.31 99.6999 183.898 100.325 182.37C99.6999 182.995 98.9592 183.493 98.1028 183.863C97.2463 184.211 96.3204 184.384 95.3251 184.384C93.1955 184.384 91.4363 183.736 90.0475 182.44C88.6586 181.144 87.9642 179.419 87.9642 177.266C87.9642 176.641 88.0221 176.051 88.1378 175.496C88.2536 174.94 88.4272 174.419 88.6586 173.933C88.8901 173.424 89.1679 172.961 89.4919 172.544C89.816 172.105 90.1864 171.711 90.603 171.364C91.0197 170.993 91.471 170.681 91.9571 170.426C92.4432 170.149 92.964 169.917 93.5196 169.732C94.0751 169.524 94.6538 169.373 95.2556 169.281C95.8806 169.188 96.5172 169.142 97.1653 169.142C97.8597 169.142 98.531 169.2 99.1791 169.315C99.8273 169.408 100.441 169.57 101.019 169.801C101.598 170.01 102.13 170.276 102.617 170.6C103.126 170.901 103.589 171.248 104.005 171.642C104.422 172.035 104.792 172.486 105.116 172.996C105.44 173.482 105.718 174.014 105.95 174.593C106.181 175.172 106.355 175.797 106.471 176.468C106.586 177.116 106.644 177.799 106.644 178.516C106.644 179.28 106.575 180.021 106.436 180.738C106.32 181.456 106.123 182.174 105.846 182.891C105.591 183.586 105.278 184.268 104.908 184.94C104.538 185.611 104.11 186.271 103.623 186.919C103.16 187.567 102.64 188.215 102.061 188.863C101.505 189.488 100.892 190.102 100.221 190.703C99.5726 191.305 98.8782 191.896 98.1375 192.474C97.3968 193.053 96.6213 193.62 95.8112 194.176C95.7186 194.245 95.5913 194.268 95.4292 194.245C95.2904 194.245 95.1746 194.199 95.082 194.106L92.1307 191.433C92.0382 191.317 91.9803 191.178 91.9571 191.016C91.9571 190.831 92.0497 190.669 92.2349 190.53ZM100.603 177.058C100.603 176.063 100.279 175.229 99.6305 174.558C98.9824 173.887 98.1491 173.551 97.1306 173.551C96.0889 173.551 95.2441 173.887 94.5959 174.558C93.9478 175.229 93.6237 176.063 93.6237 177.058C93.6237 178.053 93.9478 178.887 94.5959 179.558C95.2441 180.206 96.0889 180.53 97.1306 180.53C98.1491 180.53 98.9824 180.206 99.6305 179.558C100.279 178.887 100.603 178.053 100.603 177.058ZM109.131 181.572C109.131 180.507 109.189 179.512 109.305 178.586C109.444 177.66 109.629 176.803 109.86 176.016C110.092 175.229 110.37 174.512 110.694 173.864C111.041 173.216 111.423 172.637 111.84 172.128C112.279 171.618 112.754 171.179 113.263 170.808C113.796 170.438 114.351 170.137 114.93 169.905C115.532 169.651 116.157 169.466 116.805 169.35C117.453 169.211 118.136 169.142 118.853 169.142C119.571 169.142 120.254 169.211 120.902 169.35C121.573 169.466 122.198 169.651 122.777 169.905C123.379 170.137 123.934 170.438 124.443 170.808C124.953 171.179 125.416 171.618 125.832 172.128C126.272 172.637 126.654 173.216 126.978 173.864C127.325 174.512 127.615 175.229 127.846 176.016C128.077 176.803 128.251 177.66 128.367 178.586C128.483 179.512 128.54 180.507 128.54 181.572C128.54 182.637 128.483 183.632 128.367 184.558C128.251 185.484 128.077 186.34 127.846 187.127C127.615 187.914 127.325 188.632 126.978 189.28C126.654 189.905 126.272 190.472 125.832 190.981C125.416 191.49 124.953 191.942 124.443 192.335C123.934 192.706 123.379 193.018 122.777 193.273C122.198 193.504 121.573 193.678 120.902 193.794C120.254 193.933 119.571 194.002 118.853 194.002C118.136 194.002 117.453 193.933 116.805 193.794C116.157 193.678 115.532 193.504 114.93 193.273C114.351 193.018 113.796 192.706 113.263 192.335C112.754 191.942 112.279 191.49 111.84 190.981C111.423 190.472 111.041 189.905 110.694 189.28C110.37 188.632 110.092 187.914 109.86 187.127C109.629 186.34 109.444 185.484 109.305 184.558C109.189 183.632 109.131 182.637 109.131 181.572ZM122.811 181.572C122.811 178.748 122.453 176.78 121.735 175.669C121.018 174.558 120.057 174.003 118.853 174.003C117.626 174.003 116.654 174.558 115.937 175.669C115.242 176.78 114.883 178.748 114.86 181.572C114.883 184.396 115.254 186.363 115.971 187.474C116.689 188.562 117.65 189.106 118.853 189.106C120.057 189.106 121.018 188.562 121.735 187.474C122.453 186.363 122.811 184.396 122.811 181.572ZM142.032 174.697C142.032 176.202 141.488 177.486 140.4 178.551C139.312 179.593 138.016 180.114 136.512 180.114C134.984 180.114 133.676 179.593 132.588 178.551C131.523 177.486 130.991 176.202 130.991 174.697C130.991 173.192 131.523 171.908 132.588 170.843C133.676 169.778 134.984 169.246 136.512 169.246C138.016 169.246 139.312 169.778 140.4 170.843C141.488 171.908 142.032 173.192 142.032 174.697ZM149.532 169.385H152.379C152.518 169.385 152.622 169.454 152.692 169.593C152.761 169.732 152.75 169.859 152.657 169.975L137.414 193.099C137.252 193.331 137.09 193.493 136.928 193.585C136.766 193.655 136.558 193.689 136.303 193.689H133.456C133.317 193.689 133.202 193.62 133.109 193.481C133.04 193.342 133.051 193.215 133.144 193.099L148.421 169.975C148.56 169.743 148.71 169.593 148.872 169.524C149.034 169.431 149.254 169.385 149.532 169.385ZM134.22 174.697C134.22 175.368 134.44 175.935 134.88 176.398C135.32 176.838 135.864 177.058 136.512 177.058C137.16 177.058 137.704 176.838 138.144 176.398C138.583 175.935 138.803 175.368 138.803 174.697C138.803 174.026 138.583 173.459 138.144 172.996C137.704 172.533 137.16 172.301 136.512 172.301C135.864 172.301 135.32 172.533 134.88 172.996C134.44 173.459 134.22 174.026 134.22 174.697ZM154.879 188.377C154.879 189.882 154.335 191.166 153.247 192.231C152.182 193.296 150.886 193.828 149.358 193.828C147.831 193.828 146.523 193.296 145.435 192.231C144.37 191.166 143.838 189.882 143.838 188.377C143.838 186.873 144.37 185.599 145.435 184.558C146.523 183.493 147.831 182.961 149.358 182.961C150.886 182.961 152.182 183.493 153.247 184.558C154.335 185.599 154.879 186.873 154.879 188.377ZM147.067 188.377C147.067 189.048 147.287 189.616 147.727 190.078C148.166 190.541 148.71 190.773 149.358 190.773C150.007 190.773 150.551 190.541 150.99 190.078C151.43 189.616 151.65 189.048 151.65 188.377C151.65 187.706 151.43 187.15 150.99 186.711C150.551 186.248 150.007 186.016 149.358 186.016C148.71 186.016 148.166 186.248 147.727 186.711C147.287 187.15 147.067 187.706 147.067 188.377Z" fill="#00D639"/>
</g>
<defs>
<clipPath id="clip0_1093_29276">
<rect width="313.553" height="557.534" rx="156.776" fill="white"/>
</clipPath>
</defs>
</svg>
