<svg width="440" height="292" viewBox="0 0 440 292" fill="none" xmlns="http://www.w3.org/2000/svg">
<path d="M14.792 21.75C14.792 9.73781 24.5298 0 36.542 0H402.667C414.679 0 424.417 9.73781 424.417 21.75V270.062C424.417 282.075 414.679 291.812 402.667 291.812H36.542C24.5298 291.812 14.792 282.075 14.792 270.062V21.75Z" fill="black"/>
<g clip-path="url(#clip0_1106_33687)">
<g filter="url(#filter0_d_1106_33687)">
<rect x="49.8623" y="127.744" width="339.452" height="128.493" rx="15.3425" fill="white"/>
<rect x="50.6009" y="128.483" width="337.975" height="127.016" rx="14.6039" stroke="#E2E2E2" stroke-width="1.47724"/>
</g>
<path d="M83.9841 179.598C78.2232 179.598 73.5098 184.311 73.5098 190.072C73.5098 195.833 78.2232 200.546 83.9841 200.546C89.7449 200.546 94.4584 195.833 94.4584 190.072C94.4584 184.311 89.7449 179.598 83.9841 179.598ZM88.907 188.187L83.0414 194.052C82.9366 194.157 82.6224 194.262 82.3082 194.262C81.9939 194.262 81.7845 194.157 81.575 193.947L79.0611 191.434C78.6422 191.015 78.6422 190.386 79.0611 189.967C79.4801 189.548 80.1086 189.548 80.5275 189.967L82.3082 191.748L87.3358 186.72C87.7548 186.301 88.3833 186.301 88.8022 186.72C89.2212 187.139 89.326 187.768 88.907 188.187Z" fill="#007E45"/>
<path d="M108.527 197.572V183.204H113.063C114.459 183.204 115.581 183.56 116.43 184.271C117.278 184.983 117.702 185.982 117.702 187.268C117.702 188.185 117.483 188.965 117.045 189.608C116.608 190.251 116.012 190.723 115.26 191.024L118.441 197.572H116.43L113.474 191.373C113.405 191.387 113.337 191.394 113.269 191.394C113.2 191.394 113.132 191.394 113.063 191.394H110.354V197.572H108.527ZM113.104 189.896C113.884 189.896 114.541 189.683 115.075 189.259C115.609 188.835 115.875 188.192 115.875 187.33C115.875 186.454 115.609 185.804 115.075 185.38C114.541 184.956 113.884 184.743 113.104 184.743H110.354V189.896H113.104ZM127.26 194.575L128.635 195.068C128.334 195.78 127.841 196.402 127.157 196.936C126.473 197.47 125.611 197.736 124.571 197.736C124.188 197.736 123.818 197.695 123.463 197.613C123.12 197.531 122.792 197.415 122.477 197.264C122.163 197.114 121.868 196.922 121.595 196.69C121.335 196.457 121.102 196.197 120.897 195.91C120.692 195.609 120.514 195.273 120.363 194.904C120.213 194.534 120.096 194.138 120.014 193.713C119.946 193.275 119.912 192.81 119.912 192.318C119.912 191.893 119.939 191.49 119.994 191.107C120.062 190.723 120.151 190.368 120.26 190.039C120.37 189.711 120.5 189.41 120.65 189.136C120.815 188.849 120.993 188.589 121.184 188.356C121.389 188.123 121.608 187.918 121.841 187.74C122.087 187.562 122.34 187.419 122.6 187.309C122.874 187.186 123.155 187.097 123.442 187.042C123.743 186.974 124.051 186.94 124.366 186.94C125.652 186.94 126.706 187.412 127.527 188.356C128.348 189.3 128.758 190.607 128.758 192.277V192.749H121.615C121.67 193.98 121.971 194.883 122.518 195.458C123.066 196.033 123.75 196.32 124.571 196.32C125.187 196.32 125.714 196.17 126.151 195.869C126.589 195.568 126.959 195.137 127.26 194.575ZM124.345 188.294C123.647 188.294 123.045 188.548 122.539 189.054C122.046 189.547 121.745 190.34 121.636 191.435H127.075C126.952 190.34 126.637 189.547 126.131 189.054C125.638 188.548 125.043 188.294 124.345 188.294ZM135.502 197.572H133.675L129.652 187.104H131.52L134.64 195.684L137.76 187.104H139.545L135.502 197.572ZM142.198 185.01C141.87 185.01 141.575 184.894 141.315 184.661C141.069 184.429 140.946 184.135 140.946 183.779C140.946 183.437 141.069 183.156 141.315 182.937C141.575 182.705 141.87 182.588 142.198 182.588C142.513 182.588 142.8 182.705 143.06 182.937C143.32 183.156 143.45 183.437 143.45 183.779C143.45 184.135 143.32 184.429 143.06 184.661C142.8 184.894 142.513 185.01 142.198 185.01ZM143.04 197.572H141.315V187.104H143.04V197.572ZM153.098 194.575L154.473 195.068C154.172 195.78 153.679 196.402 152.995 196.936C152.311 197.47 151.449 197.736 150.409 197.736C150.026 197.736 149.656 197.695 149.301 197.613C148.958 197.531 148.63 197.415 148.315 197.264C148.001 197.114 147.706 196.922 147.433 196.69C147.173 196.457 146.94 196.197 146.735 195.91C146.53 195.609 146.352 195.273 146.201 194.904C146.051 194.534 145.934 194.138 145.852 193.713C145.784 193.275 145.75 192.81 145.75 192.318C145.75 191.893 145.777 191.49 145.832 191.107C145.9 190.723 145.989 190.368 146.098 190.039C146.208 189.711 146.338 189.41 146.488 189.136C146.653 188.849 146.831 188.589 147.022 188.356C147.227 188.123 147.446 187.918 147.679 187.74C147.925 187.562 148.178 187.419 148.438 187.309C148.712 187.186 148.993 187.097 149.28 187.042C149.581 186.974 149.889 186.94 150.204 186.94C151.49 186.94 152.544 187.412 153.365 188.356C154.186 189.3 154.596 190.607 154.596 192.277V192.749H147.453C147.508 193.98 147.809 194.883 148.356 195.458C148.904 196.033 149.588 196.32 150.409 196.32C151.025 196.32 151.552 196.17 151.989 195.869C152.427 195.568 152.797 195.137 153.098 194.575ZM150.183 188.294C149.485 188.294 148.883 188.548 148.377 189.054C147.884 189.547 147.583 190.34 147.474 191.435H152.913C152.79 190.34 152.475 189.547 151.969 189.054C151.476 188.548 150.881 188.294 150.183 188.294ZM165.81 197.572H164.147L162.135 190.758L160.144 197.572H158.461L156.039 187.104H157.681L159.447 195.273L161.458 188.5H162.874L164.927 195.314L166.672 187.104H168.252L165.81 197.572ZM182.776 197.572H181.052V196.074C180.751 196.621 180.347 197.039 179.841 197.326C179.335 197.6 178.774 197.736 178.158 197.736C177.173 197.736 176.351 197.408 175.695 196.751C175.038 196.094 174.709 195.171 174.709 193.98V187.104H176.434V193.734C176.434 194.582 176.653 195.232 177.09 195.684C177.528 196.122 178.083 196.341 178.753 196.341C179.396 196.341 179.937 196.122 180.375 195.684C180.826 195.232 181.052 194.582 181.052 193.734V187.104H182.776V197.572ZM194.223 197.572H192.499V190.942C192.499 190.08 192.273 189.43 191.821 188.992C191.383 188.541 190.829 188.315 190.159 188.315C189.515 188.315 188.975 188.541 188.537 188.992C188.099 189.43 187.88 190.08 187.88 190.942V197.572H186.156V187.104H187.88V188.602C188.181 188.055 188.585 187.644 189.091 187.371C189.598 187.083 190.159 186.94 190.774 186.94C191.76 186.94 192.581 187.268 193.238 187.925C193.894 188.582 194.223 189.506 194.223 190.696V197.572ZM199.286 201.698H197.562V187.104H199.286V189.033C199.601 188.363 200.032 187.85 200.579 187.494C201.126 187.124 201.776 186.94 202.529 186.94C203.706 186.94 204.684 187.412 205.464 188.356C206.258 189.3 206.655 190.628 206.655 192.338C206.655 194.049 206.258 195.376 205.464 196.32C204.684 197.264 203.706 197.736 202.529 197.736C201.776 197.736 201.126 197.559 200.579 197.203C200.032 196.833 199.601 196.313 199.286 195.643V201.698ZM202.098 196.3C202.919 196.3 203.596 195.971 204.13 195.314C204.664 194.644 204.931 193.645 204.931 192.318C204.931 190.99 204.664 189.998 204.13 189.341C203.596 188.684 202.919 188.356 202.098 188.356C201.277 188.356 200.6 188.684 200.066 189.341C199.546 189.998 199.286 190.99 199.286 192.318C199.286 193.645 199.546 194.644 200.066 195.314C200.6 195.971 201.277 196.3 202.098 196.3ZM208.731 192.318C208.731 191.893 208.758 191.497 208.813 191.127C208.881 190.744 208.97 190.388 209.08 190.06C209.189 189.718 209.319 189.41 209.47 189.136C209.634 188.849 209.819 188.589 210.024 188.356C210.229 188.123 210.448 187.918 210.681 187.74C210.927 187.562 211.187 187.412 211.461 187.289C211.735 187.166 212.022 187.077 212.323 187.022C212.638 186.953 212.959 186.919 213.288 186.919C213.616 186.919 213.931 186.953 214.232 187.022C214.547 187.077 214.841 187.166 215.114 187.289C215.388 187.412 215.648 187.562 215.894 187.74C216.141 187.918 216.367 188.123 216.572 188.356C216.777 188.589 216.955 188.849 217.106 189.136C217.27 189.41 217.407 189.718 217.516 190.06C217.626 190.388 217.708 190.744 217.762 191.127C217.831 191.497 217.865 191.893 217.865 192.318C217.865 192.81 217.824 193.275 217.742 193.713C217.673 194.138 217.564 194.534 217.413 194.904C217.277 195.26 217.106 195.588 216.9 195.889C216.695 196.19 216.462 196.457 216.202 196.69C215.942 196.909 215.655 197.1 215.34 197.264C215.039 197.415 214.718 197.531 214.376 197.613C214.033 197.695 213.671 197.736 213.288 197.736C212.959 197.736 212.638 197.702 212.323 197.634C212.022 197.579 211.735 197.49 211.461 197.367C211.187 197.244 210.927 197.1 210.681 196.936C210.448 196.758 210.229 196.553 210.024 196.32C209.819 196.088 209.634 195.828 209.47 195.54C209.319 195.253 209.189 194.945 209.08 194.617C208.97 194.274 208.881 193.912 208.813 193.529C208.758 193.145 208.731 192.742 208.731 192.318ZM216.141 192.318C216.141 191.004 215.867 190.012 215.32 189.341C214.786 188.671 214.109 188.336 213.288 188.336C212.467 188.336 211.789 188.671 211.256 189.341C210.722 190.012 210.455 191.004 210.455 192.318C210.455 193.645 210.722 194.651 211.256 195.335C211.789 196.005 212.467 196.341 213.288 196.341C214.109 196.341 214.786 196.005 215.32 195.335C215.867 194.651 216.141 193.645 216.141 192.318ZM219.403 195.191L220.737 194.432C221.079 195.116 221.483 195.615 221.948 195.93C222.427 196.231 222.954 196.382 223.529 196.382C224.158 196.382 224.685 196.245 225.109 195.971C225.533 195.684 225.745 195.267 225.745 194.719C225.745 194.199 225.492 193.83 224.986 193.611C224.493 193.378 223.925 193.173 223.282 192.995C223.104 192.94 222.926 192.885 222.749 192.831C222.571 192.776 222.393 192.721 222.215 192.667C222.037 192.598 221.859 192.53 221.681 192.461C221.517 192.393 221.36 192.311 221.209 192.215C221.059 192.119 220.915 192.017 220.778 191.907C220.641 191.798 220.518 191.674 220.409 191.538C220.313 191.401 220.224 191.257 220.142 191.107C220.06 190.942 219.998 190.764 219.957 190.573C219.916 190.368 219.895 190.149 219.895 189.916C219.895 189.642 219.923 189.389 219.978 189.157C220.046 188.924 220.135 188.712 220.244 188.52C220.368 188.315 220.504 188.13 220.655 187.966C220.819 187.802 220.997 187.658 221.189 187.535C221.394 187.398 221.613 187.289 221.845 187.207C222.078 187.111 222.318 187.042 222.564 187.001C222.824 186.96 223.091 186.94 223.364 186.94C224.295 186.94 225.089 187.179 225.745 187.658C226.416 188.137 226.95 188.746 227.346 189.485L226.053 190.224C225.697 189.567 225.308 189.081 224.883 188.767C224.459 188.438 223.973 188.274 223.426 188.274C222.947 188.274 222.523 188.404 222.153 188.664C221.798 188.91 221.62 189.287 221.62 189.793C221.62 190.34 221.859 190.737 222.338 190.983C222.831 191.23 223.392 191.442 224.021 191.62C224.199 191.674 224.377 191.729 224.555 191.784C224.746 191.839 224.931 191.9 225.109 191.969C225.287 192.023 225.458 192.085 225.622 192.153C225.8 192.222 225.964 192.304 226.115 192.4C226.279 192.482 226.43 192.578 226.566 192.687C226.703 192.797 226.826 192.92 226.936 193.057C227.045 193.18 227.141 193.323 227.223 193.488C227.305 193.638 227.367 193.809 227.408 194.001C227.449 194.192 227.47 194.404 227.47 194.637C227.47 194.883 227.442 195.116 227.387 195.335C227.333 195.554 227.257 195.759 227.162 195.951C227.066 196.142 226.943 196.32 226.792 196.484C226.655 196.649 226.498 196.799 226.32 196.936C226.156 197.059 225.964 197.175 225.745 197.285C225.54 197.381 225.321 197.463 225.089 197.531C224.856 197.6 224.61 197.648 224.35 197.675C224.103 197.716 223.85 197.736 223.59 197.736C222.523 197.736 221.654 197.504 220.983 197.039C220.313 196.56 219.786 195.944 219.403 195.191ZM235.279 195.971L235.402 197.346C235.183 197.47 234.889 197.565 234.52 197.634C234.15 197.702 233.788 197.736 233.432 197.736C232.584 197.736 231.927 197.511 231.461 197.059C230.996 196.594 230.764 195.985 230.764 195.232V188.5H228.362V187.104H230.764V184.189H232.488V187.104H235.361V188.5H232.488V194.945C232.488 195.369 232.604 195.704 232.837 195.951C233.069 196.183 233.391 196.3 233.801 196.3C234.061 196.3 234.308 196.272 234.54 196.218C234.773 196.149 235.019 196.067 235.279 195.971ZM244.162 194.575L245.537 195.068C245.236 195.78 244.744 196.402 244.06 196.936C243.375 197.47 242.513 197.736 241.473 197.736C241.09 197.736 240.721 197.695 240.365 197.613C240.023 197.531 239.694 197.415 239.38 197.264C239.065 197.114 238.771 196.922 238.497 196.69C238.237 196.457 238.004 196.197 237.799 195.91C237.594 195.609 237.416 195.273 237.265 194.904C237.115 194.534 236.999 194.138 236.917 193.713C236.848 193.275 236.814 192.81 236.814 192.318C236.814 191.893 236.841 191.49 236.896 191.107C236.964 190.723 237.053 190.368 237.163 190.039C237.272 189.711 237.402 189.41 237.553 189.136C237.717 188.849 237.895 188.589 238.087 188.356C238.292 188.123 238.511 187.918 238.743 187.74C238.99 187.562 239.243 187.419 239.503 187.309C239.777 187.186 240.057 187.097 240.344 187.042C240.645 186.974 240.953 186.94 241.268 186.94C242.554 186.94 243.608 187.412 244.429 188.356C245.25 189.3 245.661 190.607 245.661 192.277V192.749H238.518C238.572 193.98 238.873 194.883 239.421 195.458C239.968 196.033 240.652 196.32 241.473 196.32C242.089 196.32 242.616 196.17 243.054 195.869C243.492 195.568 243.861 195.137 244.162 194.575ZM241.248 188.294C240.55 188.294 239.948 188.548 239.441 189.054C238.949 189.547 238.648 190.34 238.538 191.435H243.978C243.854 190.34 243.54 189.547 243.033 189.054C242.541 188.548 241.945 188.294 241.248 188.294ZM251.825 197.736C250.648 197.736 249.662 197.264 248.869 196.32C248.089 195.376 247.699 194.042 247.699 192.318C247.699 190.607 248.089 189.287 248.869 188.356C249.662 187.412 250.648 186.94 251.825 186.94C252.577 186.94 253.227 187.118 253.775 187.473C254.322 187.829 254.753 188.342 255.068 189.013V183.204H256.792V197.572H255.068V195.622C254.753 196.293 254.322 196.813 253.775 197.182C253.227 197.552 252.577 197.736 251.825 197.736ZM252.235 196.3C253.056 196.3 253.734 195.971 254.267 195.314C254.801 194.644 255.068 193.645 255.068 192.318C255.068 190.99 254.801 189.998 254.267 189.341C253.734 188.684 253.056 188.356 252.235 188.356C251.414 188.356 250.737 188.684 250.203 189.341C249.683 189.998 249.423 190.99 249.423 192.318C249.423 193.645 249.683 194.644 250.203 195.314C250.737 195.971 251.414 196.3 252.235 196.3ZM266.256 197.572H264.532V183.204H266.256V189.013C266.571 188.342 267.002 187.829 267.549 187.473C268.097 187.118 268.747 186.94 269.499 186.94C270.676 186.94 271.655 187.412 272.435 188.356C273.228 189.287 273.625 190.607 273.625 192.318C273.625 194.042 273.228 195.376 272.435 196.32C271.655 197.264 270.676 197.736 269.499 197.736C268.747 197.736 268.097 197.552 267.549 197.182C267.002 196.813 266.571 196.293 266.256 195.622V197.572ZM269.068 196.3C269.889 196.3 270.567 195.971 271.1 195.314C271.634 194.644 271.901 193.645 271.901 192.318C271.901 190.99 271.634 189.998 271.1 189.341C270.567 188.684 269.889 188.356 269.068 188.356C268.247 188.356 267.57 188.684 267.036 189.341C266.516 189.998 266.256 190.99 266.256 192.318C266.256 193.645 266.516 194.644 267.036 195.314C267.57 195.971 268.247 196.3 269.068 196.3ZM277.281 185.01C276.953 185.01 276.659 184.894 276.399 184.661C276.152 184.429 276.029 184.135 276.029 183.779C276.029 183.437 276.152 183.156 276.399 182.937C276.659 182.705 276.953 182.588 277.281 182.588C277.596 182.588 277.883 182.705 278.143 182.937C278.403 183.156 278.533 183.437 278.533 183.779C278.533 184.135 278.403 184.429 278.143 184.661C277.883 184.894 277.596 185.01 277.281 185.01ZM278.123 197.572H276.399V187.104H278.123V197.572ZM283.193 197.572H281.469V183.204H283.193V197.572ZM288.225 197.572H286.5V183.204H288.225V197.572ZM290.382 195.191L291.716 194.432C292.058 195.116 292.462 195.615 292.927 195.93C293.406 196.231 293.933 196.382 294.508 196.382C295.137 196.382 295.664 196.245 296.088 195.971C296.513 195.684 296.725 195.267 296.725 194.719C296.725 194.199 296.472 193.83 295.965 193.611C295.473 193.378 294.905 193.173 294.262 192.995C294.084 192.94 293.906 192.885 293.728 192.831C293.55 192.776 293.372 192.721 293.194 192.667C293.016 192.598 292.838 192.53 292.661 192.461C292.496 192.393 292.339 192.311 292.188 192.215C292.038 192.119 291.894 192.017 291.757 191.907C291.621 191.798 291.497 191.674 291.388 191.538C291.292 191.401 291.203 191.257 291.121 191.107C291.039 190.942 290.977 190.764 290.936 190.573C290.895 190.368 290.875 190.149 290.875 189.916C290.875 189.642 290.902 189.389 290.957 189.157C291.025 188.924 291.114 188.712 291.224 188.52C291.347 188.315 291.484 188.13 291.634 187.966C291.798 187.802 291.976 187.658 292.168 187.535C292.373 187.398 292.592 187.289 292.825 187.207C293.057 187.111 293.297 187.042 293.543 187.001C293.803 186.96 294.07 186.94 294.344 186.94C295.274 186.94 296.068 187.179 296.725 187.658C297.395 188.137 297.929 188.746 298.326 189.485L297.033 190.224C296.677 189.567 296.287 189.081 295.863 188.767C295.438 188.438 294.953 188.274 294.405 188.274C293.926 188.274 293.502 188.404 293.133 188.664C292.777 188.91 292.599 189.287 292.599 189.793C292.599 190.34 292.838 190.737 293.317 190.983C293.81 191.23 294.371 191.442 295.001 191.62C295.178 191.674 295.356 191.729 295.534 191.784C295.726 191.839 295.911 191.9 296.088 191.969C296.266 192.023 296.437 192.085 296.602 192.153C296.779 192.222 296.944 192.304 297.094 192.4C297.258 192.482 297.409 192.578 297.546 192.687C297.683 192.797 297.806 192.92 297.915 193.057C298.025 193.18 298.12 193.323 298.203 193.488C298.285 193.638 298.346 193.809 298.387 194.001C298.428 194.192 298.449 194.404 298.449 194.637C298.449 194.883 298.422 195.116 298.367 195.335C298.312 195.554 298.237 195.759 298.141 195.951C298.045 196.142 297.922 196.32 297.772 196.484C297.635 196.649 297.477 196.799 297.299 196.936C297.135 197.059 296.944 197.175 296.725 197.285C296.519 197.381 296.301 197.463 296.068 197.531C295.835 197.6 295.589 197.648 295.329 197.675C295.083 197.716 294.829 197.736 294.569 197.736C293.502 197.736 292.633 197.504 291.963 197.039C291.292 196.56 290.765 195.944 290.382 195.191Z" fill="#0C713F"/>
<path d="M106.598 200.138H299.167V201.164H106.598V200.138Z" fill="#0C713F"/>
<path d="M83.9841 216.996C89.7449 216.996 94.4584 221.71 94.4584 227.47C94.4584 233.231 89.7449 237.945 83.9841 237.945C78.2232 237.945 73.5098 233.231 73.5098 227.47C73.5098 221.71 78.2232 216.996 83.9841 216.996ZM83.9841 231.66C83.3556 231.66 82.9366 232.079 82.9366 232.708C82.9366 233.336 83.3556 233.755 83.9841 233.755C84.6125 233.755 85.0315 233.336 85.0315 232.708C85.0315 232.079 84.6125 231.66 83.9841 231.66ZM83.9841 221.186C83.4005 221.186 82.9976 221.475 82.943 221.919L82.9366 222.024V228.727C82.9366 229.23 83.3556 229.565 83.9841 229.565C84.5676 229.565 84.9706 229.276 85.0252 228.832L85.0315 228.727V222.024C85.0315 221.521 84.6125 221.186 83.9841 221.186Z" fill="#DF6000"/>
<path d="M108.527 234.971V220.602H112.858C114.295 220.602 115.451 220.972 116.327 221.711C117.216 222.45 117.661 223.497 117.661 224.851C117.661 226.192 117.216 227.232 116.327 227.971C115.451 228.697 114.295 229.059 112.858 229.059H110.354V234.971H108.527ZM112.879 222.142H110.354V227.581H112.879C113.713 227.581 114.411 227.362 114.972 226.924C115.547 226.487 115.834 225.809 115.834 224.892C115.834 223.962 115.547 223.271 114.972 222.819C114.411 222.368 113.713 222.142 112.879 222.142ZM121.612 234.971H119.887V224.502H121.612V226.391C121.913 225.707 122.337 225.193 122.884 224.851C123.431 224.496 124.02 224.318 124.649 224.318C124.814 224.318 124.971 224.331 125.121 224.359C125.272 224.386 125.429 224.42 125.594 224.461L125.409 226.083C125.217 226.028 125.039 225.987 124.875 225.96C124.711 225.932 124.547 225.919 124.383 225.919C123.603 225.919 122.946 226.206 122.412 226.781C121.878 227.342 121.612 228.136 121.612 229.162V234.971ZM133.935 231.974L135.31 232.467C135.009 233.178 134.516 233.801 133.832 234.334C133.148 234.868 132.286 235.135 131.246 235.135C130.863 235.135 130.493 235.094 130.138 235.012C129.795 234.93 129.467 234.813 129.152 234.663C128.838 234.512 128.543 234.321 128.27 234.088C128.01 233.855 127.777 233.595 127.572 233.308C127.367 233.007 127.189 232.672 127.038 232.302C126.888 231.933 126.771 231.536 126.689 231.112C126.621 230.674 126.587 230.209 126.587 229.716C126.587 229.292 126.614 228.888 126.669 228.505C126.737 228.122 126.826 227.766 126.935 227.438C127.045 227.109 127.175 226.808 127.325 226.534C127.49 226.247 127.668 225.987 127.859 225.754C128.064 225.522 128.283 225.317 128.516 225.139C128.762 224.961 129.015 224.817 129.275 224.708C129.549 224.585 129.83 224.496 130.117 224.441C130.418 224.372 130.726 224.338 131.041 224.338C132.327 224.338 133.381 224.81 134.202 225.754C135.023 226.699 135.433 228.006 135.433 229.675V230.147H128.29C128.345 231.379 128.646 232.282 129.193 232.857C129.741 233.431 130.425 233.719 131.246 233.719C131.862 233.719 132.389 233.568 132.826 233.267C133.264 232.966 133.634 232.535 133.935 231.974ZM131.02 225.693C130.322 225.693 129.72 225.946 129.214 226.452C128.721 226.945 128.42 227.739 128.311 228.833H133.75C133.627 227.739 133.312 226.945 132.806 226.452C132.313 225.946 131.718 225.693 131.02 225.693ZM139.852 239.096H138.128V224.502H139.852V226.432C140.167 225.761 140.598 225.248 141.146 224.892C141.693 224.523 142.343 224.338 143.096 224.338C144.272 224.338 145.251 224.81 146.031 225.754C146.824 226.699 147.221 228.026 147.221 229.737C147.221 231.447 146.824 232.774 146.031 233.719C145.251 234.663 144.272 235.135 143.096 235.135C142.343 235.135 141.693 234.957 141.146 234.601C140.598 234.232 140.167 233.712 139.852 233.041V239.096ZM142.665 233.698C143.486 233.698 144.163 233.37 144.697 232.713C145.23 232.042 145.497 231.043 145.497 229.716C145.497 228.389 145.23 227.397 144.697 226.74C144.163 226.083 143.486 225.754 142.665 225.754C141.843 225.754 141.166 226.083 140.632 226.74C140.112 227.397 139.852 228.389 139.852 229.716C139.852 231.043 140.112 232.042 140.632 232.713C141.166 233.37 141.843 233.698 142.665 233.698ZM152.52 235.135C151.535 235.135 150.748 234.868 150.16 234.334C149.571 233.787 149.277 233.117 149.277 232.323C149.277 231.338 149.633 230.578 150.344 230.044C151.056 229.497 152.027 229.176 153.259 229.08L155.743 228.874V227.91C155.743 227.171 155.531 226.623 155.106 226.268C154.696 225.912 154.176 225.734 153.546 225.734C152.999 225.734 152.479 225.871 151.986 226.144C151.507 226.418 151.104 226.89 150.775 227.561L149.421 226.863C149.776 226.124 150.303 225.515 151.001 225.036C151.699 224.557 152.582 224.318 153.649 224.318C154.73 224.318 155.64 224.632 156.379 225.262C157.118 225.878 157.487 226.76 157.487 227.91V234.971H155.743V233.452C155.428 233.972 154.983 234.382 154.408 234.683C153.847 234.984 153.218 235.135 152.52 235.135ZM150.96 232.179C150.96 232.74 151.165 233.151 151.576 233.411C151.986 233.671 152.465 233.801 153.013 233.801C153.218 233.801 153.416 233.78 153.608 233.739C153.8 233.698 153.984 233.643 154.162 233.575C154.34 233.507 154.511 233.418 154.675 233.308C154.84 233.199 154.983 233.075 155.106 232.939C155.243 232.788 155.353 232.631 155.435 232.467C155.531 232.302 155.606 232.124 155.661 231.933C155.715 231.728 155.743 231.515 155.743 231.297V230.209L153.628 230.393C152.739 230.475 152.069 230.66 151.617 230.948C151.179 231.221 150.96 231.632 150.96 232.179ZM162.583 234.971H160.859V224.502H162.583V226.391C162.885 225.707 163.309 225.193 163.856 224.851C164.403 224.496 164.992 224.318 165.621 224.318C165.786 224.318 165.943 224.331 166.093 224.359C166.244 224.386 166.401 224.42 166.566 224.461L166.381 226.083C166.189 226.028 166.011 225.987 165.847 225.96C165.683 225.932 165.519 225.919 165.354 225.919C164.575 225.919 163.918 226.206 163.384 226.781C162.85 227.342 162.583 228.136 162.583 229.162V234.971ZM174.907 231.974L176.282 232.467C175.981 233.178 175.488 233.801 174.804 234.334C174.12 234.868 173.258 235.135 172.218 235.135C171.835 235.135 171.465 235.094 171.109 235.012C170.767 234.93 170.439 234.813 170.124 234.663C169.81 234.512 169.515 234.321 169.242 234.088C168.982 233.855 168.749 233.595 168.544 233.308C168.338 233.007 168.161 232.672 168.01 232.302C167.86 231.933 167.743 231.536 167.661 231.112C167.593 230.674 167.558 230.209 167.558 229.716C167.558 229.292 167.586 228.888 167.641 228.505C167.709 228.122 167.798 227.766 167.907 227.438C168.017 227.109 168.147 226.808 168.297 226.534C168.462 226.247 168.64 225.987 168.831 225.754C169.036 225.522 169.255 225.317 169.488 225.139C169.734 224.961 169.987 224.817 170.247 224.708C170.521 224.585 170.802 224.496 171.089 224.441C171.39 224.372 171.698 224.338 172.013 224.338C173.299 224.338 174.353 224.81 175.174 225.754C175.995 226.699 176.405 228.006 176.405 229.675V230.147H169.262C169.317 231.379 169.618 232.282 170.165 232.857C170.713 233.431 171.397 233.719 172.218 233.719C172.834 233.719 173.361 233.568 173.798 233.267C174.236 232.966 174.606 232.535 174.907 231.974ZM171.992 225.693C171.294 225.693 170.692 225.946 170.186 226.452C169.693 226.945 169.392 227.739 169.283 228.833H174.722C174.599 227.739 174.284 226.945 173.778 226.452C173.285 225.946 172.69 225.693 171.992 225.693ZM191.476 234.971L190.286 231.297H184.846L183.656 234.971H181.808L186.632 220.602H188.582L193.406 234.971H191.476ZM185.318 229.819H189.814L187.576 222.819L185.318 229.819ZM195.422 234.971V220.602H199.753C201.19 220.602 202.346 220.972 203.222 221.711C204.112 222.45 204.556 223.497 204.556 224.851C204.556 226.192 204.112 227.232 203.222 227.971C202.346 228.697 201.19 229.059 199.753 229.059H197.249V234.971H195.422ZM199.774 222.142H197.249V227.581H199.774C200.608 227.581 201.306 227.362 201.867 226.924C202.442 226.487 202.729 225.809 202.729 224.892C202.729 223.962 202.442 223.271 201.867 222.819C201.306 222.368 200.608 222.142 199.774 222.142ZM213.037 234.971H211.313V224.502H213.037V226.391C213.338 225.707 213.762 225.193 214.309 224.851C214.857 224.496 215.445 224.318 216.075 224.318C216.239 224.318 216.396 224.331 216.547 224.359C216.697 224.386 216.855 224.42 217.019 224.461L216.834 226.083C216.642 226.028 216.465 225.987 216.3 225.96C216.136 225.932 215.972 225.919 215.808 225.919C215.028 225.919 214.371 226.206 213.837 226.781C213.304 227.342 213.037 228.136 213.037 229.162V234.971ZM225.36 231.974L226.735 232.467C226.434 233.178 225.942 233.801 225.257 234.334C224.573 234.868 223.711 235.135 222.671 235.135C222.288 235.135 221.919 235.094 221.563 235.012C221.221 234.93 220.892 234.813 220.577 234.663C220.263 234.512 219.969 234.321 219.695 234.088C219.435 233.855 219.202 233.595 218.997 233.308C218.792 233.007 218.614 232.672 218.463 232.302C218.313 231.933 218.196 231.536 218.114 231.112C218.046 230.674 218.012 230.209 218.012 229.716C218.012 229.292 218.039 228.888 218.094 228.505C218.162 228.122 218.251 227.766 218.361 227.438C218.47 227.109 218.6 226.808 218.751 226.534C218.915 226.247 219.093 225.987 219.284 225.754C219.49 225.522 219.709 225.317 219.941 225.139C220.187 224.961 220.441 224.817 220.701 224.708C220.974 224.585 221.255 224.496 221.542 224.441C221.843 224.372 222.151 224.338 222.466 224.338C223.752 224.338 224.806 224.81 225.627 225.754C226.448 226.699 226.858 228.006 226.858 229.675V230.147H219.715C219.77 231.379 220.071 232.282 220.619 232.857C221.166 233.431 221.85 233.719 222.671 233.719C223.287 233.719 223.814 233.568 224.252 233.267C224.69 232.966 225.059 232.535 225.36 231.974ZM222.445 225.693C221.747 225.693 221.145 225.946 220.639 226.452C220.146 226.945 219.845 227.739 219.736 228.833H225.175C225.052 227.739 224.737 226.945 224.231 226.452C223.738 225.946 223.143 225.693 222.445 225.693ZM235.978 231.379L237.538 231.728C237.278 232.713 236.785 233.527 236.06 234.17C235.335 234.813 234.432 235.135 233.351 235.135C233.036 235.135 232.728 235.101 232.427 235.032C232.126 234.978 231.839 234.889 231.565 234.765C231.305 234.642 231.052 234.492 230.806 234.314C230.573 234.136 230.354 233.931 230.149 233.698C229.957 233.465 229.779 233.212 229.615 232.939C229.465 232.651 229.335 232.343 229.225 232.015C229.116 231.673 229.027 231.317 228.958 230.948C228.903 230.564 228.876 230.161 228.876 229.737C228.876 229.312 228.903 228.916 228.958 228.546C229.027 228.163 229.116 227.807 229.225 227.479C229.335 227.137 229.465 226.829 229.615 226.555C229.779 226.268 229.957 226.008 230.149 225.775C230.354 225.542 230.573 225.337 230.806 225.159C231.052 224.981 231.305 224.831 231.565 224.708C231.839 224.585 232.126 224.496 232.427 224.441C232.728 224.372 233.036 224.338 233.351 224.338C234.459 224.338 235.369 224.66 236.081 225.303C236.806 225.946 237.305 226.76 237.579 227.746L235.999 228.094C235.739 227.356 235.39 226.781 234.952 226.37C234.528 225.946 234.001 225.734 233.371 225.734C232.564 225.734 231.9 226.076 231.38 226.76C230.86 227.431 230.6 228.423 230.6 229.737C230.6 231.037 230.86 232.029 231.38 232.713C231.9 233.383 232.564 233.719 233.371 233.719C234.001 233.719 234.528 233.513 234.952 233.103C235.39 232.692 235.732 232.118 235.978 231.379ZM239.38 229.716C239.38 229.292 239.407 228.895 239.462 228.526C239.53 228.142 239.619 227.787 239.729 227.458C239.838 227.116 239.968 226.808 240.119 226.534C240.283 226.247 240.468 225.987 240.673 225.754C240.878 225.522 241.097 225.317 241.33 225.139C241.576 224.961 241.836 224.81 242.11 224.687C242.383 224.564 242.671 224.475 242.972 224.42C243.286 224.352 243.608 224.318 243.936 224.318C244.265 224.318 244.58 224.352 244.881 224.42C245.195 224.475 245.49 224.564 245.763 224.687C246.037 224.81 246.297 224.961 246.543 225.139C246.79 225.317 247.015 225.522 247.221 225.754C247.426 225.987 247.604 226.247 247.754 226.534C247.919 226.808 248.055 227.116 248.165 227.458C248.274 227.787 248.356 228.142 248.411 228.526C248.48 228.895 248.514 229.292 248.514 229.716C248.514 230.209 248.473 230.674 248.391 231.112C248.322 231.536 248.213 231.933 248.062 232.302C247.925 232.658 247.754 232.987 247.549 233.288C247.344 233.589 247.111 233.855 246.851 234.088C246.591 234.307 246.304 234.499 245.989 234.663C245.688 234.813 245.366 234.93 245.024 235.012C244.682 235.094 244.32 235.135 243.936 235.135C243.608 235.135 243.286 235.101 242.972 235.032C242.671 234.978 242.383 234.889 242.11 234.765C241.836 234.642 241.576 234.499 241.33 234.334C241.097 234.157 240.878 233.951 240.673 233.719C240.468 233.486 240.283 233.226 240.119 232.939C239.968 232.651 239.838 232.343 239.729 232.015C239.619 231.673 239.53 231.31 239.462 230.927C239.407 230.544 239.38 230.14 239.38 229.716ZM246.79 229.716C246.79 228.402 246.516 227.41 245.969 226.74C245.435 226.069 244.758 225.734 243.936 225.734C243.115 225.734 242.438 226.069 241.904 226.74C241.371 227.41 241.104 228.402 241.104 229.716C241.104 231.043 241.371 232.049 241.904 232.733C242.438 233.404 243.115 233.739 243.936 233.739C244.758 233.739 245.435 233.404 245.969 232.733C246.516 232.049 246.79 231.043 246.79 229.716ZM259.309 234.971H257.585V228.341C257.585 227.479 257.359 226.829 256.907 226.391C256.469 225.939 255.915 225.713 255.245 225.713C254.602 225.713 254.061 225.939 253.623 226.391C253.185 226.829 252.966 227.479 252.966 228.341V234.971H251.242V224.502H252.966V226.001C253.267 225.453 253.671 225.043 254.177 224.769C254.684 224.482 255.245 224.338 255.861 224.338C256.846 224.338 257.667 224.667 258.324 225.323C258.98 225.98 259.309 226.904 259.309 228.094V234.971ZM269.072 231.379L270.632 231.728C270.372 232.713 269.88 233.527 269.155 234.17C268.429 234.813 267.526 235.135 266.445 235.135C266.13 235.135 265.822 235.101 265.521 235.032C265.22 234.978 264.933 234.889 264.659 234.765C264.399 234.642 264.146 234.492 263.9 234.314C263.667 234.136 263.448 233.931 263.243 233.698C263.051 233.465 262.874 233.212 262.709 232.939C262.559 232.651 262.429 232.343 262.319 232.015C262.21 231.673 262.121 231.317 262.052 230.948C261.998 230.564 261.97 230.161 261.97 229.737C261.97 229.312 261.998 228.916 262.052 228.546C262.121 228.163 262.21 227.807 262.319 227.479C262.429 227.137 262.559 226.829 262.709 226.555C262.874 226.268 263.051 226.008 263.243 225.775C263.448 225.542 263.667 225.337 263.9 225.159C264.146 224.981 264.399 224.831 264.659 224.708C264.933 224.585 265.22 224.496 265.521 224.441C265.822 224.372 266.13 224.338 266.445 224.338C267.553 224.338 268.463 224.66 269.175 225.303C269.9 225.946 270.4 226.76 270.673 227.746L269.093 228.094C268.833 227.356 268.484 226.781 268.046 226.37C267.622 225.946 267.095 225.734 266.466 225.734C265.658 225.734 264.995 226.076 264.475 226.76C263.955 227.431 263.695 228.423 263.695 229.737C263.695 231.037 263.955 232.029 264.475 232.713C264.995 233.383 265.658 233.719 266.466 233.719C267.095 233.719 267.622 233.513 268.046 233.103C268.484 232.692 268.826 232.118 269.072 231.379ZM274.034 222.409C273.706 222.409 273.411 222.292 273.151 222.06C272.905 221.827 272.782 221.533 272.782 221.177C272.782 220.835 272.905 220.555 273.151 220.336C273.411 220.103 273.706 219.987 274.034 219.987C274.349 219.987 274.636 220.103 274.896 220.336C275.156 220.555 275.286 220.835 275.286 221.177C275.286 221.533 275.156 221.827 274.896 222.06C274.636 222.292 274.349 222.409 274.034 222.409ZM274.876 234.971H273.151V224.502H274.876V234.971ZM279.946 234.971H278.222V220.602H279.946V234.971ZM284.177 222.409C283.848 222.409 283.554 222.292 283.294 222.06C283.048 221.827 282.925 221.533 282.925 221.177C282.925 220.835 283.048 220.555 283.294 220.336C283.554 220.103 283.848 219.987 284.177 219.987C284.491 219.987 284.779 220.103 285.039 220.336C285.299 220.555 285.429 220.835 285.429 221.177C285.429 221.533 285.299 221.827 285.039 222.06C284.779 222.292 284.491 222.409 284.177 222.409ZM285.018 234.971H283.294V224.502H285.018V234.971ZM290.951 235.135C289.966 235.135 289.179 234.868 288.59 234.334C288.002 233.787 287.708 233.117 287.708 232.323C287.708 231.338 288.063 230.578 288.775 230.044C289.487 229.497 290.458 229.176 291.69 229.08L294.173 228.874V227.91C294.173 227.171 293.961 226.623 293.537 226.268C293.127 225.912 292.607 225.734 291.977 225.734C291.43 225.734 290.91 225.871 290.417 226.144C289.938 226.418 289.534 226.89 289.206 227.561L287.851 226.863C288.207 226.124 288.734 225.515 289.432 225.036C290.13 224.557 291.012 224.318 292.08 224.318C293.161 224.318 294.071 224.632 294.81 225.262C295.549 225.878 295.918 226.76 295.918 227.91V234.971H294.173V233.452C293.859 233.972 293.414 234.382 292.839 234.683C292.278 234.984 291.649 235.135 290.951 235.135ZM289.391 232.179C289.391 232.74 289.596 233.151 290.007 233.411C290.417 233.671 290.896 233.801 291.443 233.801C291.649 233.801 291.847 233.78 292.039 233.739C292.23 233.698 292.415 233.643 292.593 233.575C292.771 233.507 292.942 233.418 293.106 233.308C293.27 233.199 293.414 233.075 293.537 232.939C293.674 232.788 293.783 232.631 293.865 232.467C293.961 232.302 294.037 232.124 294.091 231.933C294.146 231.728 294.173 231.515 294.173 231.297V230.209L292.059 230.393C291.17 230.475 290.499 230.66 290.048 230.948C289.61 231.221 289.391 231.632 289.391 232.179ZM304.575 233.37L304.698 234.745C304.479 234.868 304.185 234.964 303.815 235.032C303.446 235.101 303.083 235.135 302.727 235.135C301.879 235.135 301.222 234.909 300.757 234.458C300.292 233.992 300.059 233.383 300.059 232.631V225.898H297.658V224.502H300.059V221.588H301.783V224.502H304.657V225.898H301.783V232.343C301.783 232.768 301.9 233.103 302.132 233.349C302.365 233.582 302.686 233.698 303.097 233.698C303.357 233.698 303.603 233.671 303.836 233.616C304.069 233.548 304.315 233.465 304.575 233.37ZM307.669 222.409C307.341 222.409 307.047 222.292 306.787 222.06C306.54 221.827 306.417 221.533 306.417 221.177C306.417 220.835 306.54 220.555 306.787 220.336C307.047 220.103 307.341 219.987 307.669 219.987C307.984 219.987 308.272 220.103 308.532 220.336C308.792 220.555 308.922 220.835 308.922 221.177C308.922 221.533 308.792 221.827 308.532 222.06C308.272 222.292 307.984 222.409 307.669 222.409ZM308.511 234.971H306.787V224.502H308.511V234.971ZM311.221 229.716C311.221 229.292 311.248 228.895 311.303 228.526C311.371 228.142 311.46 227.787 311.57 227.458C311.679 227.116 311.809 226.808 311.96 226.534C312.124 226.247 312.309 225.987 312.514 225.754C312.719 225.522 312.938 225.317 313.171 225.139C313.417 224.961 313.677 224.81 313.951 224.687C314.225 224.564 314.512 224.475 314.813 224.42C315.128 224.352 315.449 224.318 315.778 224.318C316.106 224.318 316.421 224.352 316.722 224.42C317.037 224.475 317.331 224.564 317.605 224.687C317.878 224.81 318.138 224.961 318.385 225.139C318.631 225.317 318.857 225.522 319.062 225.754C319.267 225.987 319.445 226.247 319.596 226.534C319.76 226.808 319.897 227.116 320.006 227.458C320.116 227.787 320.198 228.142 320.252 228.526C320.321 228.895 320.355 229.292 320.355 229.716C320.355 230.209 320.314 230.674 320.232 231.112C320.163 231.536 320.054 231.933 319.903 232.302C319.767 232.658 319.596 232.987 319.39 233.288C319.185 233.589 318.952 233.855 318.692 234.088C318.432 234.307 318.145 234.499 317.83 234.663C317.529 234.813 317.208 234.93 316.866 235.012C316.523 235.094 316.161 235.135 315.778 235.135C315.449 235.135 315.128 235.101 314.813 235.032C314.512 234.978 314.225 234.889 313.951 234.765C313.677 234.642 313.417 234.499 313.171 234.334C312.938 234.157 312.719 233.951 312.514 233.719C312.309 233.486 312.124 233.226 311.96 232.939C311.809 232.651 311.679 232.343 311.57 232.015C311.46 231.673 311.371 231.31 311.303 230.927C311.248 230.544 311.221 230.14 311.221 229.716ZM318.631 229.716C318.631 228.402 318.357 227.41 317.81 226.74C317.276 226.069 316.599 225.734 315.778 225.734C314.957 225.734 314.279 226.069 313.746 226.74C313.212 227.41 312.945 228.402 312.945 229.716C312.945 231.043 313.212 232.049 313.746 232.733C314.279 233.404 314.957 233.739 315.778 233.739C316.599 233.739 317.276 233.404 317.81 232.733C318.357 232.049 318.631 231.043 318.631 229.716ZM331.15 234.971H329.426V228.341C329.426 227.479 329.2 226.829 328.749 226.391C328.311 225.939 327.756 225.713 327.086 225.713C326.443 225.713 325.902 225.939 325.464 226.391C325.027 226.829 324.808 227.479 324.808 228.341V234.971H323.083V224.502H324.808V226.001C325.109 225.453 325.512 225.043 326.019 224.769C326.525 224.482 327.086 224.338 327.702 224.338C328.687 224.338 329.508 224.667 330.165 225.323C330.822 225.98 331.15 226.904 331.15 228.094V234.971Z" fill="#0C713F"/>
<path d="M106.598 237.536H332.792V238.563H106.598V237.536Z" fill="#0C713F"/>
<path d="M82.5085 163.053L81.6293 160.22H77.1745L76.3148 163.053H72.8369L77.4285 149.376H81.5707L86.1622 163.053H82.5085ZM77.9365 157.758H80.8673L79.4019 152.971L77.9365 157.758ZM93.4858 158.793L96.5339 159.223C96.4948 159.484 96.4297 159.744 96.3385 160.005C96.2603 160.265 96.1561 160.513 96.0259 160.747C95.9086 160.982 95.7654 161.21 95.596 161.431C95.4397 161.639 95.2573 161.835 95.0489 162.017C94.8536 162.2 94.6386 162.362 94.4042 162.506C94.1697 162.649 93.9092 162.773 93.6226 162.877C93.3491 162.981 93.0495 163.059 92.7238 163.111C92.4112 163.176 92.0726 163.209 91.7078 163.209C91.3431 163.209 90.9914 163.176 90.6528 163.111C90.3271 163.059 90.008 162.975 89.6954 162.857C89.3958 162.74 89.1092 162.597 88.8357 162.427C88.5751 162.245 88.3342 162.043 88.1127 161.822C87.8913 161.587 87.6894 161.333 87.507 161.06C87.3247 160.786 87.1684 160.487 87.0381 160.161C86.9209 159.822 86.8297 159.464 86.7646 159.086C86.6994 158.709 86.6669 158.311 86.6669 157.895C86.6669 157.478 86.6994 157.08 86.7646 156.703C86.8297 156.325 86.9209 155.973 87.0381 155.648C87.1684 155.309 87.3247 155.003 87.507 154.729C87.6894 154.443 87.8913 154.189 88.1127 153.967C88.3342 153.733 88.5751 153.531 88.8357 153.362C89.1092 153.179 89.3958 153.029 89.6954 152.912C90.008 152.795 90.3271 152.71 90.6528 152.658C90.9914 152.593 91.3431 152.561 91.7078 152.561C92.0726 152.561 92.4112 152.593 92.7238 152.658C93.0495 152.71 93.3491 152.788 93.6226 152.893C93.9092 152.984 94.1697 153.108 94.4042 153.264C94.6517 153.407 94.8731 153.57 95.0685 153.752C95.2639 153.935 95.4397 154.137 95.596 154.358C95.7654 154.566 95.9086 154.788 96.0259 155.022C96.1431 155.257 96.2408 155.504 96.3189 155.765C96.3971 156.012 96.4557 156.266 96.4948 156.527L93.4663 156.937C93.31 156.351 93.0886 155.915 92.802 155.628C92.5285 155.328 92.1833 155.179 91.7665 155.179C91.2324 155.179 90.8025 155.407 90.4769 155.863C90.1643 156.318 90.008 156.996 90.008 157.895C90.008 158.78 90.1643 159.451 90.4769 159.907C90.8025 160.363 91.2324 160.591 91.7665 160.591C92.1833 160.591 92.535 160.441 92.8215 160.141C93.1081 159.842 93.3295 159.393 93.4858 158.793ZM104.419 158.793L107.467 159.223C107.428 159.484 107.363 159.744 107.272 160.005C107.194 160.265 107.089 160.513 106.959 160.747C106.842 160.982 106.699 161.21 106.529 161.431C106.373 161.639 106.191 161.835 105.982 162.017C105.787 162.2 105.572 162.362 105.337 162.506C105.103 162.649 104.842 162.773 104.556 162.877C104.282 162.981 103.983 163.059 103.657 163.111C103.344 163.176 103.006 163.209 102.641 163.209C102.276 163.209 101.925 163.176 101.586 163.111C101.26 163.059 100.941 162.975 100.629 162.857C100.329 162.74 100.042 162.597 99.7689 162.427C99.5084 162.245 99.2674 162.043 99.046 161.822C98.8245 161.587 98.6226 161.333 98.4403 161.06C98.2579 160.786 98.1016 160.487 97.9713 160.161C97.8541 159.822 97.7629 159.464 97.6978 159.086C97.6327 158.709 97.6001 158.311 97.6001 157.895C97.6001 157.478 97.6327 157.08 97.6978 156.703C97.7629 156.325 97.8541 155.973 97.9713 155.648C98.1016 155.309 98.2579 155.003 98.4403 154.729C98.6226 154.443 98.8245 154.189 99.046 153.967C99.2674 153.733 99.5084 153.531 99.7689 153.362C100.042 153.179 100.329 153.029 100.629 152.912C100.941 152.795 101.26 152.71 101.586 152.658C101.925 152.593 102.276 152.561 102.641 152.561C103.006 152.561 103.344 152.593 103.657 152.658C103.983 152.71 104.282 152.788 104.556 152.893C104.842 152.984 105.103 153.108 105.337 153.264C105.585 153.407 105.806 153.57 106.002 153.752C106.197 153.935 106.373 154.137 106.529 154.358C106.699 154.566 106.842 154.788 106.959 155.022C107.076 155.257 107.174 155.504 107.252 155.765C107.33 156.012 107.389 156.266 107.428 156.527L104.4 156.937C104.243 156.351 104.022 155.915 103.735 155.628C103.462 155.328 103.117 155.179 102.7 155.179C102.166 155.179 101.736 155.407 101.41 155.863C101.098 156.318 100.941 156.996 100.941 157.895C100.941 158.78 101.098 159.451 101.41 159.907C101.736 160.363 102.166 160.591 102.7 160.591C103.117 160.591 103.468 160.441 103.755 160.141C104.041 159.842 104.263 159.393 104.419 158.793ZM108.533 157.875C108.533 157.458 108.566 157.061 108.631 156.683C108.696 156.305 108.794 155.954 108.924 155.628C109.054 155.302 109.204 155.003 109.373 154.729C109.556 154.443 109.764 154.182 109.999 153.948C110.233 153.713 110.487 153.511 110.761 153.342C111.034 153.173 111.327 153.029 111.64 152.912C111.966 152.782 112.298 152.691 112.636 152.639C112.988 152.574 113.353 152.541 113.731 152.541C114.095 152.541 114.447 152.574 114.786 152.639C115.137 152.691 115.47 152.782 115.782 152.912C116.095 153.029 116.388 153.173 116.661 153.342C116.935 153.511 117.182 153.713 117.404 153.948C117.638 154.182 117.847 154.443 118.029 154.729C118.211 155.003 118.368 155.302 118.498 155.628C118.628 155.954 118.726 156.305 118.791 156.683C118.856 157.061 118.889 157.458 118.889 157.875C118.889 158.305 118.856 158.709 118.791 159.086C118.726 159.464 118.628 159.816 118.498 160.141C118.368 160.467 118.211 160.773 118.029 161.06C117.847 161.333 117.638 161.587 117.404 161.822C117.182 162.043 116.935 162.245 116.661 162.427C116.388 162.597 116.095 162.74 115.782 162.857C115.47 162.975 115.137 163.059 114.786 163.111C114.447 163.176 114.095 163.209 113.731 163.209C113.353 163.209 112.988 163.176 112.636 163.111C112.298 163.059 111.966 162.975 111.64 162.857C111.327 162.74 111.034 162.597 110.761 162.427C110.487 162.245 110.233 162.043 109.999 161.822C109.764 161.587 109.556 161.333 109.373 161.06C109.204 160.773 109.054 160.467 108.924 160.141C108.794 159.816 108.696 159.464 108.631 159.086C108.566 158.709 108.533 158.305 108.533 157.875ZM115.587 157.875C115.587 156.976 115.404 156.299 115.04 155.843C114.688 155.387 114.252 155.159 113.731 155.159C113.184 155.159 112.728 155.387 112.363 155.843C112.011 156.299 111.835 156.976 111.835 157.875C111.835 158.8 112.011 159.497 112.363 159.966C112.728 160.422 113.184 160.649 113.731 160.649C114.252 160.649 114.688 160.422 115.04 159.966C115.404 159.497 115.587 158.8 115.587 157.875ZM120.584 152.736H123.944V159.028C123.944 159.562 124.075 159.966 124.335 160.239C124.609 160.513 124.947 160.649 125.351 160.649C125.755 160.649 126.094 160.513 126.367 160.239C126.641 159.966 126.777 159.562 126.777 159.028V152.736H130.138V163.053H126.777V161.548C126.491 162.095 126.094 162.512 125.586 162.799C125.091 163.072 124.544 163.209 123.944 163.209C122.928 163.209 122.114 162.896 121.502 162.271C120.89 161.646 120.584 160.76 120.584 159.614V152.736ZM132.319 152.736H135.679V154.241C135.966 153.694 136.357 153.283 136.852 153.01C137.36 152.723 137.913 152.58 138.513 152.58C139.516 152.58 140.323 152.893 140.935 153.518C141.561 154.143 141.873 155.029 141.873 156.175V163.053H138.513V156.761C138.513 156.227 138.376 155.823 138.102 155.55C137.842 155.276 137.503 155.14 137.086 155.14C136.695 155.14 136.363 155.276 136.09 155.55C135.816 155.823 135.679 156.227 135.679 156.761V163.053H132.319V152.736ZM151.271 160.278L151.329 162.799C151.003 162.916 150.613 163.014 150.157 163.092C149.701 163.17 149.252 163.209 148.809 163.209C147.701 163.209 146.842 162.942 146.23 162.408C145.63 161.861 145.331 161.118 145.331 160.181V155.296H143.045V152.736H145.331V150.001H148.672V152.736H151.329V155.296H148.672V159.594C148.672 159.894 148.763 160.122 148.945 160.278C149.141 160.422 149.414 160.493 149.766 160.493C149.909 160.493 150.118 160.474 150.391 160.435C150.678 160.395 150.971 160.343 151.271 160.278ZM151.855 161.333L153.73 159.477C154.147 159.959 154.59 160.324 155.059 160.571C155.541 160.819 156.029 160.943 156.524 160.943C156.993 160.943 157.338 160.864 157.56 160.708C157.794 160.539 157.912 160.33 157.912 160.083C157.912 159.796 157.716 159.594 157.325 159.477C156.948 159.347 156.492 159.223 155.958 159.106C155.801 159.067 155.639 159.028 155.469 158.989C155.3 158.95 155.131 158.911 154.961 158.871C154.805 158.819 154.642 158.767 154.473 158.715C154.316 158.65 154.16 158.578 154.004 158.5C153.847 158.422 153.698 158.337 153.554 158.246C153.411 158.155 153.281 158.057 153.164 157.953C153.046 157.836 152.936 157.712 152.831 157.582C152.74 157.439 152.656 157.282 152.577 157.113C152.512 156.944 152.46 156.761 152.421 156.566C152.382 156.371 152.363 156.156 152.363 155.921C152.363 154.905 152.76 154.098 153.554 153.498C154.349 152.886 155.391 152.58 156.681 152.58C157.618 152.58 158.491 152.775 159.299 153.166C160.106 153.544 160.738 154.013 161.194 154.573L159.279 156.273C158.849 155.83 158.42 155.498 157.99 155.276C157.56 155.055 157.143 154.944 156.739 154.944C156.414 154.944 156.153 155.009 155.958 155.14C155.762 155.27 155.665 155.452 155.665 155.687C155.665 155.973 155.847 156.188 156.212 156.331C156.589 156.462 157.039 156.592 157.56 156.722C157.716 156.761 157.872 156.8 158.029 156.839C158.198 156.879 158.367 156.924 158.537 156.976C158.706 157.015 158.869 157.067 159.025 157.133C159.195 157.185 159.357 157.25 159.514 157.328C159.67 157.393 159.813 157.471 159.944 157.562C160.087 157.654 160.217 157.751 160.334 157.855C160.465 157.96 160.575 158.083 160.666 158.227C160.771 158.357 160.855 158.5 160.92 158.657C160.999 158.813 161.057 158.989 161.096 159.184C161.135 159.366 161.155 159.568 161.155 159.79C161.155 160.858 160.725 161.698 159.865 162.31C159.019 162.909 157.912 163.209 156.544 163.209C156.205 163.209 155.879 163.19 155.567 163.15C155.254 163.111 154.955 163.059 154.668 162.994C154.395 162.916 154.134 162.831 153.887 162.74C153.652 162.636 153.431 162.532 153.222 162.427C153.014 162.31 152.818 162.193 152.636 162.076C152.467 161.946 152.317 161.822 152.187 161.705C152.056 161.574 151.946 161.451 151.855 161.333ZM166.801 163.053V149.376H172.447C174.024 149.376 175.287 149.78 176.238 150.587C177.202 151.395 177.684 152.521 177.684 153.967C177.684 155.4 177.202 156.514 176.238 157.308C175.287 158.103 174.024 158.5 172.447 158.5H170.279V163.053H166.801ZM172.252 152.365H170.279V155.726H172.252C172.812 155.726 173.275 155.589 173.639 155.315C174.017 155.042 174.206 154.625 174.206 154.065C174.206 153.505 174.017 153.082 173.639 152.795C173.275 152.508 172.812 152.365 172.252 152.365ZM181.571 163.209C180.594 163.209 179.819 162.942 179.246 162.408C178.673 161.874 178.386 161.197 178.386 160.376C178.386 159.477 178.731 158.754 179.422 158.207C180.112 157.66 181.063 157.341 182.274 157.25L184.697 157.093V156.468C184.697 156.038 184.56 155.706 184.287 155.472C184.013 155.224 183.655 155.101 183.212 155.101C182.769 155.101 182.366 155.211 182.001 155.433C181.649 155.641 181.285 156.006 180.907 156.527L178.406 155.257C178.875 154.54 179.52 153.915 180.34 153.381C181.161 152.847 182.229 152.58 183.544 152.58C184.886 152.58 185.961 152.932 186.768 153.635C187.576 154.339 187.98 155.309 187.98 156.546V163.053H184.697V161.607C184.398 162.102 183.974 162.493 183.427 162.779C182.88 163.066 182.261 163.209 181.571 163.209ZM181.532 160.063C181.532 160.402 181.656 160.656 181.903 160.825C182.151 160.995 182.47 161.079 182.861 161.079C183.343 161.079 183.766 160.93 184.131 160.63C184.508 160.33 184.697 159.914 184.697 159.379V158.852L183.017 158.989C182.535 159.028 182.164 159.138 181.903 159.321C181.656 159.49 181.532 159.738 181.532 160.063ZM188.928 166.765L189.651 164.127C189.925 164.245 190.205 164.349 190.491 164.44C190.791 164.531 191.071 164.577 191.332 164.577C191.657 164.577 191.931 164.512 192.152 164.381C192.374 164.251 192.575 163.958 192.758 163.502L188.694 152.736H192.269L194.497 159.497L196.802 152.736H200.183L196.06 163.795C195.552 165.124 194.933 166.036 194.204 166.531C193.474 167.026 192.621 167.273 191.644 167.273C191.201 167.273 190.726 167.234 190.218 167.156C189.723 167.078 189.293 166.947 188.928 166.765ZM203.571 163.209C202.594 163.209 201.819 162.942 201.246 162.408C200.673 161.874 200.386 161.197 200.386 160.376C200.386 159.477 200.731 158.754 201.422 158.207C202.112 157.66 203.063 157.341 204.274 157.25L206.697 157.093V156.468C206.697 156.038 206.56 155.706 206.287 155.472C206.013 155.224 205.655 155.101 205.212 155.101C204.769 155.101 204.366 155.211 204.001 155.433C203.649 155.641 203.285 156.006 202.907 156.527L200.406 155.257C200.875 154.54 201.52 153.915 202.34 153.381C203.161 152.847 204.229 152.58 205.544 152.58C206.886 152.58 207.961 152.932 208.768 153.635C209.576 154.339 209.98 155.309 209.98 156.546V163.053H206.697V161.607C206.398 162.102 205.974 162.493 205.427 162.779C204.88 163.066 204.261 163.209 203.571 163.209ZM203.532 160.063C203.532 160.402 203.656 160.656 203.903 160.825C204.151 160.995 204.47 161.079 204.861 161.079C205.343 161.079 205.766 160.93 206.131 160.63C206.508 160.33 206.697 159.914 206.697 159.379V158.852L205.017 158.989C204.535 159.028 204.164 159.138 203.903 159.321C203.656 159.49 203.532 159.738 203.532 160.063ZM215.513 163.053H212.152V149.376H215.513V154.28C215.8 153.733 216.177 153.309 216.646 153.01C217.115 152.71 217.682 152.561 218.346 152.561C218.698 152.561 219.03 152.6 219.343 152.678C219.668 152.756 219.968 152.873 220.241 153.029C220.528 153.173 220.788 153.355 221.023 153.577C221.27 153.798 221.485 154.058 221.668 154.358C221.863 154.645 222.026 154.97 222.156 155.335C222.286 155.7 222.384 156.097 222.449 156.527C222.527 156.944 222.566 157.393 222.566 157.875C222.566 158.37 222.527 158.832 222.449 159.262C222.384 159.679 222.286 160.07 222.156 160.435C222.026 160.786 221.863 161.112 221.668 161.411C221.485 161.698 221.27 161.959 221.023 162.193C220.788 162.414 220.528 162.603 220.241 162.76C219.968 162.903 219.668 163.014 219.343 163.092C219.03 163.17 218.698 163.209 218.346 163.209C217.682 163.209 217.115 163.059 216.646 162.76C216.177 162.46 215.8 162.03 215.513 161.47V163.053ZM217.369 160.571C217.903 160.571 218.353 160.35 218.717 159.907C219.082 159.451 219.264 158.774 219.264 157.875C219.264 156.976 219.082 156.305 218.717 155.863C218.353 155.407 217.903 155.179 217.369 155.179C216.848 155.179 216.405 155.407 216.041 155.863C215.689 156.305 215.513 156.976 215.513 157.875C215.513 158.774 215.689 159.451 216.041 159.907C216.405 160.35 216.848 160.571 217.369 160.571ZM227.647 163.053H224.287V149.376H227.647V163.053ZM236.347 159.633L239.2 160.239C239.121 160.422 239.037 160.604 238.946 160.786C238.854 160.956 238.744 161.125 238.613 161.294C238.496 161.464 238.359 161.633 238.203 161.802C238.06 161.959 237.897 162.108 237.715 162.252C237.532 162.395 237.33 162.525 237.109 162.642C236.901 162.76 236.666 162.864 236.406 162.955C236.145 163.033 235.865 163.092 235.565 163.131C235.279 163.183 234.966 163.209 234.628 163.209C234.25 163.209 233.885 163.176 233.533 163.111C233.182 163.059 232.843 162.975 232.517 162.857C232.205 162.727 231.905 162.577 231.619 162.408C231.345 162.226 231.085 162.024 230.837 161.802C230.603 161.568 230.394 161.314 230.212 161.04C230.029 160.754 229.873 160.448 229.743 160.122C229.613 159.796 229.515 159.445 229.45 159.067C229.385 158.689 229.352 158.292 229.352 157.875C229.352 157.458 229.385 157.067 229.45 156.703C229.515 156.325 229.613 155.973 229.743 155.648C229.873 155.322 230.029 155.022 230.212 154.749C230.394 154.462 230.596 154.208 230.818 153.987C231.052 153.752 231.306 153.55 231.58 153.381C231.853 153.212 232.14 153.069 232.439 152.951C232.752 152.821 233.071 152.73 233.397 152.678C233.735 152.613 234.087 152.58 234.452 152.58C234.803 152.58 235.142 152.613 235.468 152.678C235.806 152.743 236.119 152.834 236.406 152.951C236.705 153.069 236.985 153.218 237.246 153.401C237.506 153.57 237.747 153.772 237.969 154.006C238.19 154.241 238.385 154.501 238.555 154.788C238.724 155.061 238.867 155.361 238.985 155.687C239.102 156.012 239.193 156.364 239.258 156.742C239.323 157.106 239.356 157.497 239.356 157.914V158.657H232.556C232.648 159.399 232.882 159.946 233.26 160.298C233.638 160.636 234.113 160.806 234.686 160.806C235.025 160.806 235.331 160.708 235.604 160.513C235.891 160.304 236.139 160.011 236.347 159.633ZM234.413 154.983C233.983 154.983 233.605 155.12 233.279 155.394C232.954 155.667 232.732 156.13 232.615 156.781H236.23C236.126 156.13 235.904 155.667 235.565 155.394C235.24 155.12 234.856 154.983 234.413 154.983Z" fill="black"/>
<path d="M262.52 151.138C262.77 151.138 263.02 151.222 263.187 151.472L265.189 153.471C265.439 153.637 265.522 153.971 265.439 154.304C265.355 154.554 265.189 154.804 264.855 154.887C264.521 154.97 264.271 154.887 264.021 154.637L263.354 153.971V157.553C263.354 160.635 260.852 163.633 257.766 163.883C256.348 163.967 255.013 163.55 253.929 162.8C253.679 162.634 253.595 162.384 253.595 162.051C253.595 161.801 253.845 161.468 254.096 161.384C254.346 161.218 254.68 161.301 254.93 161.468C255.597 161.967 256.514 162.217 257.432 162.217C259.767 162.134 261.686 159.885 261.686 157.553V153.971L261.018 154.637C260.768 154.887 260.518 154.97 260.184 154.887C259.934 154.804 259.684 154.637 259.6 154.304C259.517 153.971 259.6 153.721 259.851 153.471L261.852 151.472C262.019 151.305 262.269 151.138 262.52 151.138ZM257.182 147.223C258.683 147.14 260.017 147.557 261.102 148.306C261.352 148.473 261.435 148.723 261.435 149.056C261.435 149.306 261.185 149.639 260.935 149.722C260.685 149.889 260.351 149.806 260.101 149.639C259.35 149.139 258.516 148.889 257.515 148.889C255.18 148.973 253.345 151.138 253.345 153.471V157.136L254.012 156.47C254.263 156.22 254.513 156.136 254.846 156.22C255.097 156.303 255.347 156.47 255.43 156.803C255.514 157.136 255.43 157.386 255.18 157.636L253.178 159.552C253.011 159.718 252.761 159.885 252.511 159.885C252.261 159.885 252.011 159.802 251.844 159.552L249.842 157.553C249.592 157.303 249.508 157.053 249.592 156.72C249.675 156.47 249.842 156.22 250.176 156.136C250.509 156.053 250.759 156.136 251.01 156.386L251.677 157.053V153.471C251.677 150.472 254.179 147.473 257.182 147.223Z" fill="black" fill-opacity="0.67"/>
<g filter="url(#filter1_d_1106_33687)">
<g clip-path="url(#clip1_1106_33687)">
<rect x="101.646" y="47.1973" width="233.784" height="57.6021" rx="28.801" fill="white" fill-opacity="0.87"/>
<g opacity="0.92" filter="url(#filter2_f_1106_33687)">
<rect x="256.229" y="32.8184" width="97.8402" height="42.8051" rx="21.4025" transform="rotate(23.1744 256.229 32.8184)" fill="url(#paint0_linear_1106_33687)" fill-opacity="0.7"/>
</g>
<g opacity="0.52" filter="url(#filter3_f_1106_33687)">
<rect x="307.049" y="52.3828" width="28.5367" height="52.9968" rx="14.2684" fill="url(#paint1_linear_1106_33687)" fill-opacity="0.7"/>
</g>
<path d="M134.846 83.7109V69.4426H139.35C140.737 69.4426 141.851 69.7959 142.693 70.5025C143.536 71.2091 143.957 72.2011 143.957 73.4785C143.957 74.3889 143.74 75.1635 143.305 75.8022C142.87 76.4409 142.279 76.9097 141.531 77.2086L144.691 83.7109H142.693L139.758 77.5552C139.69 77.5687 139.622 77.5755 139.554 77.5755C139.486 77.5755 139.418 77.5755 139.35 77.5755H136.66V83.7109H134.846ZM139.391 76.0876C140.166 76.0876 140.818 75.8769 141.348 75.4557C141.878 75.0344 142.143 74.3957 142.143 73.5396C142.143 72.6699 141.878 72.0245 141.348 71.6032C140.818 71.182 140.166 70.9713 139.391 70.9713H136.66V76.0876H139.391ZM154.595 83.7109H152.882V82.223C152.583 82.7665 152.182 83.181 151.68 83.4663C151.177 83.7381 150.62 83.874 150.008 83.874C149.03 83.874 148.215 83.5479 147.562 82.8956C146.91 82.2433 146.584 81.3261 146.584 80.1438V73.3154H148.296V79.8992C148.296 80.7418 148.513 81.3872 148.948 81.8357C149.383 82.2705 149.934 82.4879 150.599 82.4879C151.238 82.4879 151.775 82.2705 152.21 81.8357C152.658 81.3872 152.882 80.7418 152.882 79.8992V73.3154H154.595V83.7109ZM165.962 83.7109H164.249V77.1271C164.249 76.271 164.025 75.6255 163.577 75.1907C163.142 74.7423 162.592 74.518 161.926 74.518C161.287 74.518 160.75 74.7423 160.315 75.1907C159.881 75.6255 159.663 76.271 159.663 77.1271V83.7109H157.951V73.3154H159.663V74.8034C159.962 74.2598 160.363 73.8522 160.866 73.5804C161.369 73.295 161.926 73.1523 162.537 73.1523C163.516 73.1523 164.331 73.4785 164.983 74.1307C165.635 74.783 165.962 75.7003 165.962 76.8825V83.7109ZM179.957 80.1438L181.506 80.4904C181.248 81.4688 180.759 82.2773 180.038 82.916C179.318 83.5547 178.421 83.874 177.348 83.874C177.035 83.874 176.729 83.84 176.431 83.7721C176.132 83.7177 175.846 83.6294 175.574 83.5071C175.316 83.3848 175.065 83.2353 174.82 83.0587C174.589 82.882 174.372 82.6782 174.168 82.4472C173.978 82.2162 173.801 81.9648 173.638 81.693C173.489 81.4076 173.359 81.1019 173.251 80.7757C173.142 80.436 173.054 80.0827 172.986 79.7158C172.931 79.3353 172.904 78.9344 172.904 78.5132C172.904 78.0919 172.931 77.6978 172.986 77.3309C173.054 76.9504 173.142 76.5971 173.251 76.271C173.359 75.9313 173.489 75.6255 173.638 75.3538C173.801 75.0684 173.978 74.8102 174.168 74.5792C174.372 74.3482 174.589 74.1443 174.82 73.9677C175.065 73.791 175.316 73.6415 175.574 73.5192C175.846 73.3969 176.132 73.3086 176.431 73.2543C176.729 73.1863 177.035 73.1523 177.348 73.1523C178.448 73.1523 179.352 73.4717 180.059 74.1104C180.779 74.749 181.275 75.5576 181.547 76.536L179.977 76.8825C179.719 76.1487 179.373 75.578 178.938 75.1703C178.516 74.749 177.993 74.5384 177.368 74.5384C176.566 74.5384 175.907 74.8781 175.391 75.5576C174.875 76.2234 174.616 77.2086 174.616 78.5132C174.616 79.8041 174.875 80.7893 175.391 81.4688C175.907 82.1346 176.566 82.4676 177.368 82.4676C177.993 82.4676 178.516 82.2637 178.938 81.856C179.373 81.4484 179.712 80.8776 179.957 80.1438ZM185.679 83.7109H183.967V69.4426H185.679V83.7109ZM188.331 78.4928C188.331 78.0715 188.358 77.6775 188.413 77.3106C188.481 76.9301 188.569 76.5768 188.678 76.2506C188.786 75.9109 188.915 75.6051 189.065 75.3334C189.228 75.048 189.411 74.7898 189.615 74.5588C189.819 74.3278 190.036 74.124 190.267 73.9473C190.512 73.7706 190.77 73.6212 191.042 73.4989C191.314 73.3766 191.599 73.2882 191.898 73.2339C192.211 73.1659 192.53 73.132 192.856 73.132C193.182 73.132 193.495 73.1659 193.794 73.2339C194.106 73.2882 194.399 73.3766 194.67 73.4989C194.942 73.6212 195.2 73.7706 195.445 73.9473C195.689 74.124 195.914 74.3278 196.118 74.5588C196.321 74.7898 196.498 75.048 196.647 75.3334C196.811 75.6051 196.946 75.9109 197.055 76.2506C197.164 76.5768 197.245 76.9301 197.3 77.3106C197.368 77.6775 197.402 78.0715 197.402 78.4928C197.402 78.982 197.361 79.444 197.279 79.8789C197.211 80.3001 197.103 80.6942 196.953 81.0611C196.817 81.4144 196.647 81.7405 196.444 82.0395C196.24 82.3385 196.009 82.6034 195.751 82.8345C195.492 83.0519 195.207 83.2421 194.895 83.4052C194.596 83.5547 194.276 83.6702 193.937 83.7517C193.597 83.8332 193.237 83.874 192.856 83.874C192.53 83.874 192.211 83.84 191.898 83.7721C191.599 83.7177 191.314 83.6294 191.042 83.5071C190.77 83.3848 190.512 83.2421 190.267 83.0791C190.036 82.9024 189.819 82.6986 189.615 82.4676C189.411 82.2365 189.228 81.9784 189.065 81.693C188.915 81.4076 188.786 81.1019 188.678 80.7757C188.569 80.436 188.481 80.0759 188.413 79.6954C188.358 79.3149 188.331 78.914 188.331 78.4928ZM195.689 78.4928C195.689 77.1883 195.418 76.2031 194.874 75.5372C194.344 74.8713 193.672 74.5384 192.856 74.5384C192.041 74.5384 191.368 74.8713 190.838 75.5372C190.308 76.2031 190.043 77.1883 190.043 78.4928C190.043 79.8109 190.308 80.8097 190.838 81.4891C191.368 82.155 192.041 82.4879 192.856 82.4879C193.672 82.4879 194.344 82.155 194.874 81.4891C195.418 80.8097 195.689 79.8109 195.689 78.4928ZM198.929 81.3465L200.254 80.5923C200.593 81.2717 200.994 81.7677 201.456 82.0803C201.932 82.3792 202.455 82.5287 203.026 82.5287C203.651 82.5287 204.174 82.3928 204.595 82.121C205.017 81.8357 205.227 81.4212 205.227 80.8776C205.227 80.3613 204.976 79.9944 204.473 79.7769C203.984 79.5459 203.42 79.3421 202.781 79.1654C202.605 79.1111 202.428 79.0567 202.251 79.0024C202.075 78.948 201.898 78.8937 201.721 78.8393C201.545 78.7714 201.368 78.7034 201.191 78.6355C201.028 78.5675 200.872 78.486 200.723 78.3909C200.573 78.2958 200.43 78.1938 200.295 78.0851C200.159 77.9764 200.036 77.8541 199.928 77.7182C199.833 77.5823 199.744 77.4397 199.663 77.2902C199.581 77.1271 199.52 76.9504 199.479 76.7602C199.438 76.5564 199.418 76.3389 199.418 76.1079C199.418 75.8362 199.445 75.5848 199.5 75.3538C199.568 75.1227 199.656 74.9121 199.765 74.7219C199.887 74.518 200.023 74.3346 200.172 74.1715C200.335 74.0084 200.512 73.8658 200.702 73.7435C200.906 73.6076 201.123 73.4989 201.354 73.4173C201.585 73.3222 201.823 73.2543 202.068 73.2135C202.326 73.1727 202.591 73.1523 202.863 73.1523C203.787 73.1523 204.575 73.3902 205.227 73.8658C205.893 74.3414 206.423 74.9461 206.817 75.6799L205.533 76.4137C205.18 75.7614 204.792 75.279 204.371 74.9665C203.95 74.6403 203.468 74.4773 202.924 74.4773C202.448 74.4773 202.027 74.6064 201.66 74.8646C201.307 75.1092 201.13 75.4828 201.13 75.9856C201.13 76.5292 201.368 76.9233 201.844 77.1679C202.333 77.4125 202.89 77.6231 203.515 77.7998C203.692 77.8541 203.868 77.9085 204.045 77.9628C204.235 78.0172 204.419 78.0783 204.595 78.1463C204.772 78.2006 204.942 78.2618 205.105 78.3297C205.282 78.3977 205.445 78.4792 205.594 78.5743C205.757 78.6559 205.907 78.751 206.043 78.8597C206.179 78.9684 206.301 79.0907 206.41 79.2266C206.518 79.3489 206.613 79.4916 206.695 79.6546C206.776 79.8041 206.838 79.974 206.878 80.1642C206.919 80.3545 206.94 80.5651 206.94 80.7961C206.94 81.0407 206.912 81.2717 206.858 81.4891C206.804 81.7066 206.729 81.9104 206.634 82.1007C206.539 82.2909 206.416 82.4676 206.267 82.6306C206.131 82.7937 205.975 82.9432 205.798 83.0791C205.635 83.2014 205.445 83.3169 205.227 83.4256C205.023 83.5207 204.806 83.6022 204.575 83.6702C204.344 83.7381 204.099 83.7857 203.841 83.8129C203.597 83.8536 203.345 83.874 203.087 83.874C202.027 83.874 201.164 83.643 200.498 83.181C199.833 82.7054 199.309 82.0939 198.929 81.3465ZM215.972 80.735L217.338 81.2242C217.039 81.9308 216.549 82.5491 215.87 83.0791C215.191 83.609 214.334 83.874 213.302 83.874C212.921 83.874 212.554 83.8332 212.201 83.7517C211.861 83.6702 211.535 83.5547 211.223 83.4052C210.91 83.2557 210.618 83.0655 210.346 82.8345C210.088 82.6034 209.857 82.3453 209.653 82.0599C209.449 81.7609 209.273 81.428 209.123 81.0611C208.974 80.6942 208.858 80.3001 208.777 79.8789C208.709 79.444 208.675 78.982 208.675 78.4928C208.675 78.0715 208.702 77.6707 208.756 77.2902C208.824 76.9097 208.912 76.5564 209.021 76.2302C209.13 75.9041 209.259 75.6051 209.408 75.3334C209.572 75.048 209.748 74.7898 209.938 74.5588C210.142 74.3278 210.36 74.124 210.591 73.9473C210.835 73.7706 211.087 73.628 211.345 73.5192C211.617 73.3969 211.895 73.3086 212.181 73.2543C212.48 73.1863 212.785 73.1523 213.098 73.1523C214.375 73.1523 215.422 73.6212 216.237 74.5588C217.052 75.4964 217.46 76.7942 217.46 78.452V78.9208H210.366C210.421 80.1438 210.72 81.0407 211.263 81.6114C211.807 82.1822 212.486 82.4676 213.302 82.4676C213.913 82.4676 214.436 82.3181 214.871 82.0191C215.306 81.7202 215.673 81.2921 215.972 80.735ZM213.077 74.4976C212.384 74.4976 211.787 74.749 211.284 75.2518C210.795 75.741 210.496 76.5292 210.387 77.6163H215.788C215.666 76.5292 215.354 75.741 214.851 75.2518C214.362 74.749 213.77 74.4976 213.077 74.4976ZM226.963 83.874C225.985 83.874 225.204 83.609 224.619 83.0791C224.035 82.5355 223.743 81.8696 223.743 81.0815C223.743 80.1031 224.096 79.3489 224.803 78.8189C225.509 78.2754 226.474 77.956 227.697 77.8609L230.164 77.6571V76.6991C230.164 75.9653 229.953 75.4217 229.532 75.0684C229.124 74.7151 228.608 74.5384 227.982 74.5384C227.439 74.5384 226.923 74.6743 226.433 74.9461C225.958 75.2179 225.557 75.6867 225.231 76.3525L223.885 75.6595C224.239 74.9257 224.762 74.321 225.455 73.8454C226.148 73.3698 227.024 73.132 228.084 73.132C229.158 73.132 230.062 73.4445 230.795 74.0696C231.529 74.6811 231.896 75.5576 231.896 76.6991V83.7109H230.164V82.2026C229.851 82.7189 229.409 83.1266 228.839 83.4256C228.281 83.7245 227.656 83.874 226.963 83.874ZM225.414 80.9388C225.414 81.4959 225.618 81.9036 226.026 82.1618C226.433 82.42 226.909 82.5491 227.453 82.5491C227.656 82.5491 227.853 82.5287 228.044 82.4879C228.234 82.4472 228.417 82.3928 228.594 82.3249C228.771 82.2569 228.94 82.1686 229.104 82.0599C229.267 81.9512 229.409 81.8289 229.532 81.693C229.668 81.5435 229.776 81.3872 229.858 81.2242C229.953 81.0611 230.028 80.8844 230.082 80.6942C230.136 80.4904 230.164 80.2797 230.164 80.0623V78.982L228.064 79.1654C227.181 79.247 226.515 79.4304 226.066 79.7158C225.632 79.9876 225.414 80.3952 225.414 80.9388ZM234.062 81.3465L235.387 80.5923C235.727 81.2717 236.128 81.7677 236.59 82.0803C237.065 82.3792 237.589 82.5287 238.159 82.5287C238.784 82.5287 239.308 82.3928 239.729 82.121C240.15 81.8357 240.361 81.4212 240.361 80.8776C240.361 80.3613 240.109 79.9944 239.607 79.7769C239.117 79.5459 238.553 79.3421 237.915 79.1654C237.738 79.1111 237.561 79.0567 237.385 79.0024C237.208 78.948 237.031 78.8937 236.855 78.8393C236.678 78.7714 236.502 78.7034 236.325 78.6355C236.162 78.5675 236.006 78.486 235.856 78.3909C235.707 78.2958 235.564 78.1938 235.428 78.0851C235.292 77.9764 235.17 77.8541 235.061 77.7182C234.966 77.5823 234.878 77.4397 234.796 77.2902C234.715 77.1271 234.653 76.9504 234.613 76.7602C234.572 76.5564 234.552 76.3389 234.552 76.1079C234.552 75.8362 234.579 75.5848 234.633 75.3538C234.701 75.1227 234.789 74.9121 234.898 74.7219C235.02 74.518 235.156 74.3346 235.306 74.1715C235.469 74.0084 235.645 73.8658 235.836 73.7435C236.039 73.6076 236.257 73.4989 236.488 73.4173C236.719 73.3222 236.957 73.2543 237.201 73.2135C237.46 73.1727 237.725 73.1523 237.996 73.1523C238.92 73.1523 239.708 73.3902 240.361 73.8658C241.027 74.3414 241.557 74.9461 241.951 75.6799L240.667 76.4137C240.313 75.7614 239.926 75.279 239.505 74.9665C239.083 74.6403 238.601 74.4773 238.057 74.4773C237.582 74.4773 237.161 74.6064 236.794 74.8646C236.44 75.1092 236.264 75.4828 236.264 75.9856C236.264 76.5292 236.502 76.9233 236.977 77.1679C237.466 77.4125 238.023 77.6231 238.649 77.7998C238.825 77.8541 239.002 77.9085 239.179 77.9628C239.369 78.0172 239.552 78.0783 239.729 78.1463C239.906 78.2006 240.075 78.2618 240.238 78.3297C240.415 78.3977 240.578 78.4792 240.728 78.5743C240.891 78.6559 241.04 78.751 241.176 78.8597C241.312 78.9684 241.434 79.0907 241.543 79.2266C241.652 79.3489 241.747 79.4916 241.828 79.6546C241.91 79.8041 241.971 79.974 242.012 80.1642C242.053 80.3545 242.073 80.5651 242.073 80.7961C242.073 81.0407 242.046 81.2717 241.991 81.4891C241.937 81.7066 241.862 81.9104 241.767 82.1007C241.672 82.2909 241.55 82.4676 241.4 82.6306C241.264 82.7937 241.108 82.9432 240.932 83.0791C240.768 83.2014 240.578 83.3169 240.361 83.4256C240.157 83.5207 239.94 83.6022 239.708 83.6702C239.477 83.7381 239.233 83.7857 238.975 83.8129C238.73 83.8536 238.479 83.874 238.221 83.874C237.161 83.874 236.298 83.643 235.632 83.181C234.966 82.7054 234.443 82.0939 234.062 81.3465ZM243.299 81.3465L244.623 80.5923C244.963 81.2717 245.364 81.7677 245.826 82.0803C246.302 82.3792 246.825 82.5287 247.396 82.5287C248.021 82.5287 248.544 82.3928 248.965 82.121C249.386 81.8357 249.597 81.4212 249.597 80.8776C249.597 80.3613 249.346 79.9944 248.843 79.7769C248.354 79.5459 247.79 79.3421 247.151 79.1654C246.974 79.1111 246.798 79.0567 246.621 79.0024C246.444 78.948 246.268 78.8937 246.091 78.8393C245.914 78.7714 245.738 78.7034 245.561 78.6355C245.398 78.5675 245.242 78.486 245.092 78.3909C244.943 78.2958 244.8 78.1938 244.664 78.0851C244.528 77.9764 244.406 77.8541 244.297 77.7182C244.202 77.5823 244.114 77.4397 244.032 77.2902C243.951 77.1271 243.89 76.9504 243.849 76.7602C243.808 76.5564 243.788 76.3389 243.788 76.1079C243.788 75.8362 243.815 75.5848 243.869 75.3538C243.937 75.1227 244.026 74.9121 244.134 74.7219C244.257 74.518 244.392 74.3346 244.542 74.1715C244.705 74.0084 244.882 73.8658 245.072 73.7435C245.276 73.6076 245.493 73.4989 245.724 73.4173C245.955 73.3222 246.193 73.2543 246.438 73.2135C246.696 73.1727 246.961 73.1523 247.233 73.1523C248.157 73.1523 248.945 73.3902 249.597 73.8658C250.263 74.3414 250.793 74.9461 251.187 75.6799L249.903 76.4137C249.549 75.7614 249.162 75.279 248.741 74.9665C248.32 74.6403 247.837 74.4773 247.294 74.4773C246.818 74.4773 246.397 74.6064 246.03 74.8646C245.677 75.1092 245.5 75.4828 245.5 75.9856C245.5 76.5292 245.738 76.9233 246.213 77.1679C246.703 77.4125 247.26 77.6231 247.885 77.7998C248.061 77.8541 248.238 77.9085 248.415 77.9628C248.605 78.0172 248.788 78.0783 248.965 78.1463C249.142 78.2006 249.312 78.2618 249.475 78.3297C249.651 78.3977 249.814 78.4792 249.964 78.5743C250.127 78.6559 250.276 78.751 250.412 78.8597C250.548 78.9684 250.671 79.0907 250.779 79.2266C250.888 79.3489 250.983 79.4916 251.065 79.6546C251.146 79.8041 251.207 79.974 251.248 80.1642C251.289 80.3545 251.309 80.5651 251.309 80.7961C251.309 81.0407 251.282 81.2717 251.228 81.4891C251.173 81.7066 251.099 81.9104 251.003 82.1007C250.908 82.2909 250.786 82.4676 250.637 82.6306C250.501 82.7937 250.344 82.9432 250.168 83.0791C250.005 83.2014 249.814 83.3169 249.597 83.4256C249.393 83.5207 249.176 83.6022 248.945 83.6702C248.714 83.7381 248.469 83.7857 248.211 83.8129C247.966 83.8536 247.715 83.874 247.457 83.874C246.397 83.874 245.534 83.643 244.868 83.181C244.202 82.7054 243.679 82.0939 243.299 81.3465ZM254.593 71.2363C254.267 71.2363 253.975 71.1208 253.717 70.8898C253.472 70.6588 253.35 70.3666 253.35 70.0133C253.35 69.6736 253.472 69.395 253.717 69.1776C253.975 68.9466 254.267 68.8311 254.593 68.8311C254.906 68.8311 255.191 68.9466 255.45 69.1776C255.708 69.395 255.837 69.6736 255.837 70.0133C255.837 70.3666 255.708 70.6588 255.45 70.8898C255.191 71.1208 254.906 71.2363 254.593 71.2363ZM255.429 83.7109H253.717V73.3154H255.429V83.7109ZM257.611 81.3465L258.936 80.5923C259.275 81.2717 259.676 81.7677 260.138 82.0803C260.614 82.3792 261.137 82.5287 261.708 82.5287C262.333 82.5287 262.856 82.3928 263.277 82.121C263.699 81.8357 263.909 81.4212 263.909 80.8776C263.909 80.3613 263.658 79.9944 263.155 79.7769C262.666 79.5459 262.102 79.3421 261.463 79.1654C261.286 79.1111 261.11 79.0567 260.933 79.0024C260.757 78.948 260.58 78.8937 260.403 78.8393C260.227 78.7714 260.05 78.7034 259.873 78.6355C259.71 78.5675 259.554 78.486 259.404 78.3909C259.255 78.2958 259.112 78.1938 258.976 78.0851C258.84 77.9764 258.718 77.8541 258.609 77.7182C258.514 77.5823 258.426 77.4397 258.344 77.2902C258.263 77.1271 258.202 76.9504 258.161 76.7602C258.12 76.5564 258.1 76.3389 258.1 76.1079C258.1 75.8362 258.127 75.5848 258.181 75.3538C258.249 75.1227 258.338 74.9121 258.446 74.7219C258.569 74.518 258.705 74.3346 258.854 74.1715C259.017 74.0084 259.194 73.8658 259.384 73.7435C259.588 73.6076 259.805 73.4989 260.036 73.4173C260.267 73.3222 260.505 73.2543 260.75 73.2135C261.008 73.1727 261.273 73.1523 261.545 73.1523C262.469 73.1523 263.257 73.3902 263.909 73.8658C264.575 74.3414 265.105 74.9461 265.499 75.6799L264.215 76.4137C263.862 75.7614 263.474 75.279 263.053 74.9665C262.632 74.6403 262.149 74.4773 261.606 74.4773C261.13 74.4773 260.709 74.6064 260.342 74.8646C259.989 75.1092 259.812 75.4828 259.812 75.9856C259.812 76.5292 260.05 76.9233 260.525 77.1679C261.015 77.4125 261.572 77.6231 262.197 77.7998C262.374 77.8541 262.55 77.9085 262.727 77.9628C262.917 78.0172 263.101 78.0783 263.277 78.1463C263.454 78.2006 263.624 78.2618 263.787 78.3297C263.963 78.3977 264.127 78.4792 264.276 78.5743C264.439 78.6559 264.589 78.751 264.724 78.8597C264.86 78.9684 264.983 79.0907 265.091 79.2266C265.2 79.3489 265.295 79.4916 265.377 79.6546C265.458 79.8041 265.519 79.974 265.56 80.1642C265.601 80.3545 265.621 80.5651 265.621 80.7961C265.621 81.0407 265.594 81.2717 265.54 81.4891C265.485 81.7066 265.411 81.9104 265.316 82.1007C265.22 82.2909 265.098 82.4676 264.949 82.6306C264.813 82.7937 264.657 82.9432 264.48 83.0791C264.317 83.2014 264.127 83.3169 263.909 83.4256C263.705 83.5207 263.488 83.6022 263.257 83.6702C263.026 83.7381 262.781 83.7857 262.523 83.8129C262.278 83.8536 262.027 83.874 261.769 83.874C260.709 83.874 259.846 83.643 259.18 83.181C258.514 82.7054 257.991 82.0939 257.611 81.3465ZM273.377 82.121L273.499 83.4867C273.282 83.609 272.989 83.7041 272.623 83.7721C272.256 83.84 271.896 83.874 271.542 83.874C270.7 83.874 270.047 83.6498 269.585 83.2014C269.123 82.7393 268.892 82.1346 268.892 81.3872V74.7015H266.508V73.3154H268.892V70.421H270.605V73.3154H273.458V74.7015H270.605V81.1019C270.605 81.5231 270.72 81.856 270.951 82.1007C271.182 82.3317 271.501 82.4472 271.909 82.4472C272.167 82.4472 272.412 82.42 272.643 82.3656C272.874 82.2977 273.119 82.2162 273.377 82.121ZM278.101 83.874C277.123 83.874 276.341 83.609 275.757 83.0791C275.172 82.5355 274.88 81.8696 274.88 81.0815C274.88 80.1031 275.234 79.3489 275.94 78.8189C276.647 78.2754 277.612 77.956 278.835 77.8609L281.301 77.6571V76.6991C281.301 75.9653 281.09 75.4217 280.669 75.0684C280.262 74.7151 279.745 74.5384 279.12 74.5384C278.577 74.5384 278.06 74.6743 277.571 74.9461C277.095 75.2179 276.694 75.6867 276.368 76.3525L275.023 75.6595C275.376 74.9257 275.9 74.321 276.593 73.8454C277.286 73.3698 278.162 73.132 279.222 73.132C280.296 73.132 281.199 73.4445 281.933 74.0696C282.667 74.6811 283.034 75.5576 283.034 76.6991V83.7109H281.301V82.2026C280.989 82.7189 280.547 83.1266 279.976 83.4256C279.419 83.7245 278.794 83.874 278.101 83.874ZM276.552 80.9388C276.552 81.4959 276.756 81.9036 277.163 82.1618C277.571 82.42 278.047 82.5491 278.59 82.5491C278.794 82.5491 278.991 82.5287 279.181 82.4879C279.371 82.4472 279.555 82.3928 279.732 82.3249C279.908 82.2569 280.078 82.1686 280.241 82.0599C280.404 81.9512 280.547 81.8289 280.669 81.693C280.805 81.5435 280.914 81.3872 280.995 81.2242C281.09 81.0611 281.165 80.8844 281.22 80.6942C281.274 80.4904 281.301 80.2797 281.301 80.0623V78.982L279.202 79.1654C278.318 79.247 277.652 79.4304 277.204 79.7158C276.769 79.9876 276.552 80.3952 276.552 80.9388ZM294.393 83.7109H292.681V77.1271C292.681 76.271 292.456 75.6255 292.008 75.1907C291.573 74.7423 291.023 74.518 290.357 74.518C289.718 74.518 289.181 74.7423 288.747 75.1907C288.312 75.6255 288.094 76.271 288.094 77.1271V83.7109H286.382V73.3154H288.094V74.8034C288.393 74.2598 288.794 73.8522 289.297 73.5804C289.8 73.295 290.357 73.1523 290.968 73.1523C291.947 73.1523 292.762 73.4785 293.414 74.1307C294.067 74.783 294.393 75.7003 294.393 76.8825V83.7109ZM302.957 82.121L303.079 83.4867C302.861 83.609 302.569 83.7041 302.202 83.7721C301.835 83.84 301.475 83.874 301.122 83.874C300.28 83.874 299.627 83.6498 299.165 83.2014C298.703 82.7393 298.472 82.1346 298.472 81.3872V74.7015H296.087V73.3154H298.472V70.421H300.184V73.3154H303.038V74.7015H300.184V81.1019C300.184 81.5231 300.3 81.856 300.531 82.1007C300.762 82.3317 301.081 82.4472 301.489 82.4472C301.747 82.4472 301.992 82.42 302.223 82.3656C302.454 82.2977 302.698 82.2162 302.957 82.121Z" fill="black"/>
</g>
<rect x="102.438" y="47.9896" width="232.2" height="56.0173" rx="28.0087" stroke="white" stroke-opacity="0.87" stroke-width="1.58475"/>
</g>
<path d="M315.312 75.8776C314.784 74.1084 316.554 72.5232 318.254 73.2432L355.058 88.8306C357.049 89.6743 356.732 92.59 354.606 92.9862L337.596 96.1551C335.956 96.4609 334.649 97.7045 334.263 99.3281L330.848 113.696C330.332 115.869 327.271 115.955 326.632 113.815L315.312 75.8776Z" fill="#F0F0F0" stroke="#0D3721" stroke-width="2.03834"/>
</g>
<defs>
<filter id="filter0_d_1106_33687" x="43.0249" y="127.744" width="353.127" height="142.169" filterUnits="userSpaceOnUse" color-interpolation-filters="sRGB">
<feFlood flood-opacity="0" result="BackgroundImageFix"/>
<feColorMatrix in="SourceAlpha" type="matrix" values="0 0 0 0 0 0 0 0 0 0 0 0 0 0 0 0 0 0 127 0" result="hardAlpha"/>
<feOffset dy="6.83741"/>
<feGaussianBlur stdDeviation="3.4187"/>
<feComposite in2="hardAlpha" operator="out"/>
<feColorMatrix type="matrix" values="0 0 0 0 0 0 0 0 0 0 0 0 0 0 0 0 0 0 0.25 0"/>
<feBlend mode="normal" in2="BackgroundImageFix" result="effect1_dropShadow_1106_33687"/>
<feBlend mode="normal" in="SourceGraphic" in2="effect1_dropShadow_1106_33687" result="shape"/>
</filter>
<filter id="filter1_d_1106_33687" x="93.4922" y="47.1973" width="250.091" height="73.9083" filterUnits="userSpaceOnUse" color-interpolation-filters="sRGB">
<feFlood flood-opacity="0" result="BackgroundImageFix"/>
<feColorMatrix in="SourceAlpha" type="matrix" values="0 0 0 0 0 0 0 0 0 0 0 0 0 0 0 0 0 0 127 0" result="hardAlpha"/>
<feOffset dy="8.15335"/>
<feGaussianBlur stdDeviation="4.07668"/>
<feComposite in2="hardAlpha" operator="out"/>
<feColorMatrix type="matrix" values="0 0 0 0 0 0 0 0 0 0 0 0 0 0 0 0 0 0 0.25 0"/>
<feBlend mode="normal" in2="BackgroundImageFix" result="effect1_dropShadow_1106_33687"/>
<feBlend mode="normal" in="SourceGraphic" in2="effect1_dropShadow_1106_33687" result="shape"/>
</filter>
<filter id="filter2_f_1106_33687" x="197.154" y="-9.41229" width="191.251" height="162.315" filterUnits="userSpaceOnUse" color-interpolation-filters="sRGB">
<feFlood flood-opacity="0" result="BackgroundImageFix"/>
<feBlend mode="normal" in="SourceGraphic" in2="BackgroundImageFix" result="shape"/>
<feGaussianBlur stdDeviation="24.4601" result="effect1_foregroundBlur_1106_33687"/>
</filter>
<filter id="filter3_f_1106_33687" x="266.282" y="11.6161" width="110.071" height="134.53" filterUnits="userSpaceOnUse" color-interpolation-filters="sRGB">
<feFlood flood-opacity="0" result="BackgroundImageFix"/>
<feBlend mode="normal" in="SourceGraphic" in2="BackgroundImageFix" result="shape"/>
<feGaussianBlur stdDeviation="20.3834" result="effect1_foregroundBlur_1106_33687"/>
</filter>
<linearGradient id="paint0_linear_1106_33687" x1="276.782" y1="47.5178" x2="316.954" y2="54.1974" gradientUnits="userSpaceOnUse">
<stop offset="0.1" stop-color="#8F49FE"/>
<stop offset="0.6" stop-color="#11AFFF"/>
<stop offset="1" stop-color="#00D639"/>
</linearGradient>
<linearGradient id="paint1_linear_1106_33687" x1="333.683" y1="60.5362" x2="335.055" y2="63.7868" gradientUnits="userSpaceOnUse">
<stop offset="0.490385" stop-color="#00D639"/>
</linearGradient>
<clipPath id="clip0_1106_33687">
<rect y="35.6895" width="439.208" height="220.433" rx="19.8887" fill="white"/>
</clipPath>
<clipPath id="clip1_1106_33687">
<rect x="101.646" y="47.1973" width="233.784" height="57.6021" rx="28.801" fill="white"/>
</clipPath>
</defs>
</svg>
