<svg width="314" height="558" viewBox="0 0 314 558" fill="none" xmlns="http://www.w3.org/2000/svg">
<g clip-path="url(#clip0_1093_29252)">
<rect x="1.77148" y="1.77148" width="310.01" height="553.991" rx="155.005" fill="black" stroke="black" stroke-width="3.54297"/>
<rect x="14.9814" y="312.667" width="48.4806" height="48.4806" rx="24.2403" fill="#00D639"/>
<rect x="14.9814" y="382.405" width="48.4806" height="48.4806" rx="24.2403" fill="#D9D9D9"/>
<rect x="14.9814" y="452.144" width="48.4806" height="48.4806" rx="24.2403" fill="#D9D9D9"/>
<rect x="14.9814" y="521.882" width="48.4806" height="48.4806" rx="24.2403" fill="#D9D9D9"/>
<rect x="73.7588" y="312.667" width="48.4806" height="48.4806" rx="24.2403" fill="#00D639"/>
<rect x="73.7588" y="382.405" width="48.4806" height="48.4806" rx="24.2403" fill="#D9D9D9"/>
<rect x="73.7588" y="452.144" width="48.4806" height="48.4806" rx="24.2403" fill="#D9D9D9"/>
<rect x="73.7588" y="521.882" width="48.4806" height="48.4806" rx="24.2403" fill="#D9D9D9"/>
<rect x="132.536" y="312.667" width="48.4806" height="48.4806" rx="24.2403" fill="#00D639"/>
<rect x="132.536" y="382.405" width="48.4806" height="48.4806" rx="24.2403" fill="#D9D9D9"/>
<rect x="132.536" y="452.144" width="48.4806" height="48.4806" rx="24.2403" fill="#D9D9D9"/>
<rect x="132.536" y="521.882" width="48.4806" height="48.4806" rx="24.2403" fill="#D9D9D9"/>
<rect x="191.313" y="312.667" width="48.4806" height="48.4806" rx="24.2403" fill="#D9D9D9"/>
<rect x="191.313" y="382.405" width="48.4806" height="48.4806" rx="24.2403" fill="#D9D9D9"/>
<rect x="191.313" y="452.144" width="48.4806" height="48.4806" rx="24.2403" fill="#D9D9D9"/>
<rect x="191.313" y="521.882" width="48.4806" height="48.4806" rx="24.2403" fill="#D9D9D9"/>
<rect x="250.091" y="312.667" width="48.4806" height="48.4806" rx="24.2403" fill="#D9D9D9"/>
<rect x="250.091" y="382.405" width="48.4806" height="48.4806" rx="24.2403" fill="#D9D9D9"/>
<rect x="250.091" y="452.144" width="48.4806" height="48.4806" rx="24.2403" fill="#D9D9D9"/>
<rect x="250.091" y="521.882" width="48.4806" height="48.4806" rx="24.2403" fill="#D9D9D9"/>
<path d="M54.9859 149.287C56.3285 149.287 57.4395 148.847 58.3191 147.967C59.2219 147.065 59.8932 145.873 60.333 144.391C60.3561 144.275 60.414 144.194 60.5066 144.148C60.6223 144.102 60.7612 144.09 60.9232 144.113L63.8745 144.808C64.0597 144.854 64.187 144.924 64.2565 145.016C64.3259 145.109 64.3375 145.236 64.2912 145.398C63.6431 147.898 62.4857 149.784 60.8191 151.058C59.1756 152.331 57.2428 152.967 55.0206 152.967C54.1642 152.967 53.354 152.875 52.5902 152.689C51.8263 152.504 51.1087 152.238 50.4375 151.891C49.7893 151.521 49.1875 151.081 48.632 150.571C48.0764 150.039 47.5788 149.437 47.139 148.766C46.6992 148.072 46.3288 147.308 46.0279 146.474C45.727 145.618 45.4955 144.704 45.3335 143.731C45.1946 142.736 45.1251 141.671 45.1251 140.537C45.1251 136.625 46.0163 133.581 47.7987 131.405C49.6042 129.206 51.9883 128.107 54.9512 128.107C57.1734 128.107 59.1177 128.743 60.7843 130.017C62.451 131.29 63.6083 133.176 64.2565 135.676C64.3028 135.838 64.2912 135.965 64.2217 136.058C64.1523 136.151 64.025 136.22 63.8398 136.266L60.8885 136.996C60.7496 137.019 60.6223 137.007 60.5066 136.961C60.414 136.891 60.3445 136.799 60.2983 136.683C59.8585 135.202 59.1988 134.01 58.3191 133.107C57.4395 132.204 56.3053 131.753 54.9165 131.753C53.3193 131.753 51.9999 132.459 50.9583 133.871C49.9398 135.283 49.4305 137.505 49.4305 140.537C49.4305 143.569 49.9514 145.792 50.993 147.204C52.0578 148.592 53.3888 149.287 54.9859 149.287ZM74.3714 152.967C72.7048 152.967 71.4317 152.551 70.5521 151.717C69.6956 150.861 69.2674 149.738 69.2674 148.349V131.579H65.8647C65.7722 131.579 65.6911 131.544 65.6217 131.475C65.5291 131.382 65.4828 131.267 65.4828 131.128V128.801C65.4828 128.662 65.5291 128.558 65.6217 128.489C65.6911 128.419 65.7722 128.385 65.8647 128.385H72.9826C73.0752 128.385 73.1562 128.431 73.2256 128.524C73.3182 128.593 73.3645 128.686 73.3645 128.801V147.516C73.3645 148.187 73.5497 148.708 73.92 149.078C74.2904 149.449 74.7996 149.634 75.4478 149.634C75.7024 149.634 75.9802 149.611 76.2811 149.565C76.6051 149.518 76.9524 149.437 77.3227 149.322C77.4616 149.275 77.5658 149.287 77.6352 149.356C77.7046 149.426 77.7394 149.507 77.7394 149.599L77.8435 151.995C77.8435 152.088 77.832 152.169 77.8088 152.238C77.7857 152.308 77.7162 152.365 77.6005 152.412C77.2764 152.574 76.8135 152.701 76.2116 152.794C75.6098 152.909 74.9964 152.967 74.3714 152.967ZM79.499 143.697C79.499 142.979 79.5453 142.296 79.6379 141.648C79.7536 140.977 79.9157 140.363 80.124 139.808C80.3323 139.229 80.5754 138.697 80.8531 138.211C81.1541 137.725 81.4897 137.285 81.8601 136.891C82.2304 136.475 82.6355 136.116 83.0753 135.815C83.5151 135.514 83.978 135.259 84.4641 135.051C84.9734 134.843 85.5058 134.692 86.0613 134.6C86.6168 134.484 87.1955 134.426 87.7974 134.426C88.3992 134.426 88.9779 134.484 89.5334 134.6C90.089 134.692 90.6098 134.843 91.0959 135.051C91.6051 135.259 92.0796 135.514 92.5194 135.815C92.9592 136.116 93.3643 136.475 93.7347 136.891C94.105 137.285 94.4291 137.725 94.7069 138.211C95.0078 138.697 95.2624 139.229 95.4707 139.808C95.6791 140.363 95.8295 140.977 95.9221 141.648C96.0378 142.296 96.0957 142.979 96.0957 143.697C96.0957 144.437 96.0378 145.132 95.9221 145.78C95.8295 146.428 95.6791 147.041 95.4707 147.62C95.2624 148.199 95.0078 148.731 94.7069 149.217C94.4291 149.703 94.105 150.143 93.7347 150.537C93.3643 150.93 92.9592 151.277 92.5194 151.578C92.0796 151.879 91.6051 152.134 91.0959 152.342C90.6098 152.551 90.089 152.701 89.5334 152.794C88.9779 152.909 88.3992 152.967 87.7974 152.967C87.1955 152.967 86.6168 152.909 86.0613 152.794C85.5058 152.701 84.9734 152.551 84.4641 152.342C83.978 152.134 83.5151 151.879 83.0753 151.578C82.6355 151.277 82.2304 150.93 81.8601 150.537C81.4897 150.143 81.1541 149.703 80.8531 149.217C80.5754 148.731 80.3323 148.199 80.124 147.62C79.9157 147.041 79.7536 146.428 79.6379 145.78C79.5453 145.132 79.499 144.437 79.499 143.697ZM92.0333 143.697C92.0333 141.706 91.6283 140.213 90.8181 139.218C90.0079 138.199 89.001 137.69 87.7974 137.69C86.5706 137.69 85.5521 138.199 84.7419 139.218C83.9549 140.213 83.5614 141.706 83.5614 143.697C83.5614 145.711 83.9549 147.227 84.7419 148.245C85.5521 149.24 86.5706 149.738 87.7974 149.738C89.001 149.738 90.0079 149.24 90.8181 148.245C91.6283 147.227 92.0333 145.711 92.0333 143.697ZM105.557 134.461C107.108 134.461 108.497 134.82 109.724 135.537C110.974 136.255 111.923 137.146 112.571 138.211C112.64 138.303 112.663 138.419 112.64 138.558C112.617 138.674 112.548 138.778 112.432 138.87L110.488 140.225C110.395 140.294 110.291 140.317 110.175 140.294C110.083 140.271 109.99 140.201 109.897 140.086C109.296 139.206 108.636 138.546 107.918 138.107C107.224 137.667 106.472 137.447 105.661 137.447C104.944 137.447 104.33 137.632 103.821 138.002C103.335 138.35 103.092 138.87 103.092 139.565C103.092 140.306 103.462 140.85 104.203 141.197C104.944 141.544 105.812 141.856 106.807 142.134C107.085 142.204 107.363 142.285 107.64 142.377C107.941 142.447 108.231 142.528 108.508 142.62C108.786 142.713 109.064 142.817 109.342 142.933C109.643 143.025 109.92 143.141 110.175 143.28C110.43 143.396 110.673 143.535 110.904 143.697C111.159 143.836 111.39 143.998 111.599 144.183C111.807 144.368 111.992 144.576 112.154 144.808C112.316 145.016 112.455 145.259 112.571 145.537C112.687 145.792 112.779 146.081 112.849 146.405C112.918 146.706 112.953 147.041 112.953 147.412C112.953 147.921 112.895 148.396 112.779 148.835C112.663 149.275 112.49 149.68 112.258 150.051C112.027 150.421 111.738 150.768 111.39 151.092C111.066 151.393 110.696 151.659 110.279 151.891C109.886 152.122 109.446 152.319 108.96 152.481C108.474 152.643 107.953 152.759 107.397 152.828C106.865 152.921 106.298 152.967 105.696 152.967C103.844 152.967 102.305 152.608 101.078 151.891C99.8745 151.15 98.9833 150.271 98.4047 149.252C98.3352 149.136 98.3005 149.021 98.3005 148.905C98.3005 148.789 98.3699 148.685 98.5088 148.592L100.349 147.169C100.442 147.076 100.546 147.041 100.662 147.065C100.777 147.065 100.87 147.111 100.939 147.204C101.541 148.199 102.247 148.916 103.057 149.356C103.867 149.796 104.712 150.016 105.592 150.016C106.587 150.016 107.386 149.819 107.988 149.426C108.613 149.009 108.925 148.43 108.925 147.69C108.925 146.949 108.532 146.417 107.745 146.092C106.981 145.768 106.078 145.479 105.036 145.224C104.735 145.132 104.423 145.051 104.099 144.981C103.775 144.889 103.451 144.796 103.127 144.704C102.826 144.588 102.525 144.472 102.224 144.356C101.946 144.218 101.668 144.079 101.391 143.94C101.113 143.778 100.847 143.604 100.592 143.419C100.361 143.211 100.152 142.991 99.9671 142.759C99.7819 142.528 99.6199 142.273 99.481 141.995C99.3421 141.694 99.2264 141.37 99.1338 141.023C99.0644 140.653 99.0296 140.259 99.0296 139.843C99.0296 138.176 99.643 136.868 100.87 135.919C102.12 134.947 103.682 134.461 105.557 134.461ZM130.96 144.634H119.433C119.549 146.44 120.012 147.771 120.822 148.627C121.655 149.46 122.697 149.877 123.947 149.877C124.803 149.877 125.544 149.68 126.169 149.287C126.817 148.87 127.361 148.268 127.801 147.481C127.87 147.366 127.951 147.296 128.044 147.273C128.136 147.227 128.264 147.227 128.426 147.273L130.821 147.828C131.007 147.875 131.122 147.944 131.169 148.037C131.238 148.129 131.25 148.245 131.203 148.384C131.064 148.731 130.891 149.067 130.683 149.391C130.474 149.715 130.243 150.028 129.988 150.328C129.757 150.629 129.479 150.919 129.155 151.196C128.854 151.451 128.518 151.694 128.148 151.926C127.778 152.134 127.372 152.319 126.933 152.481C126.493 152.643 126.018 152.759 125.509 152.828C125.023 152.921 124.491 152.967 123.912 152.967C123.31 152.967 122.72 152.909 122.141 152.794C121.586 152.701 121.053 152.551 120.544 152.342C120.035 152.134 119.549 151.879 119.086 151.578C118.646 151.277 118.241 150.93 117.87 150.537C117.5 150.143 117.164 149.703 116.864 149.217C116.563 148.731 116.308 148.199 116.1 147.62C115.891 147.041 115.729 146.428 115.614 145.78C115.521 145.132 115.475 144.437 115.475 143.697C115.475 142.979 115.521 142.296 115.614 141.648C115.729 140.977 115.891 140.363 116.1 139.808C116.308 139.229 116.551 138.697 116.829 138.211C117.13 137.725 117.454 137.285 117.801 136.891C118.171 136.498 118.576 136.151 119.016 135.85C119.456 135.549 119.919 135.294 120.405 135.086C120.891 134.878 121.4 134.727 121.933 134.634C122.465 134.519 123.021 134.461 123.599 134.461C124.178 134.461 124.734 134.519 125.266 134.634C125.798 134.727 126.308 134.878 126.794 135.086C127.28 135.294 127.731 135.549 128.148 135.85C128.565 136.151 128.946 136.498 129.294 136.891C129.664 137.285 129.988 137.725 130.266 138.211C130.544 138.697 130.775 139.229 130.96 139.808C131.145 140.363 131.284 140.965 131.377 141.613C131.493 142.262 131.551 142.944 131.551 143.662C131.551 143.963 131.504 144.206 131.412 144.391C131.342 144.553 131.192 144.634 130.96 144.634ZM123.53 137.482C122.535 137.482 121.667 137.84 120.926 138.558C120.185 139.252 119.711 140.398 119.502 141.995H127.627C127.442 140.398 126.967 139.252 126.204 138.558C125.463 137.84 124.572 137.482 123.53 137.482ZM146.616 131.753C145.968 131.753 145.366 131.521 144.811 131.058C144.255 130.595 143.977 129.993 143.977 129.253C143.977 128.512 144.255 127.91 144.811 127.447C145.366 126.984 145.968 126.753 146.616 126.753C147.264 126.753 147.855 126.984 148.387 127.447C148.943 127.91 149.22 128.512 149.22 129.253C149.22 129.993 148.943 130.595 148.387 131.058C147.855 131.521 147.264 131.753 146.616 131.753ZM149.706 152.967C148.04 152.967 146.767 152.551 145.887 151.717C145.008 150.861 144.568 149.738 144.568 148.349V137.933H141.2C141.084 137.933 140.98 137.898 140.887 137.829C140.795 137.736 140.748 137.632 140.748 137.516V135.121C140.748 135.005 140.783 134.912 140.853 134.843C140.945 134.773 141.061 134.739 141.2 134.739H148.283C148.399 134.739 148.491 134.773 148.561 134.843C148.653 134.912 148.7 135.005 148.7 135.121V147.516C148.7 148.187 148.873 148.708 149.22 149.078C149.591 149.449 150.1 149.634 150.748 149.634C151.026 149.634 151.315 149.611 151.616 149.565C151.917 149.495 152.253 149.414 152.623 149.322C152.762 149.275 152.854 149.287 152.901 149.356C152.97 149.426 153.017 149.507 153.04 149.599L153.179 151.995C153.179 152.088 153.155 152.169 153.109 152.238C153.086 152.308 153.028 152.365 152.936 152.412C152.611 152.574 152.148 152.701 151.547 152.794C150.968 152.909 150.355 152.967 149.706 152.967ZM156.504 152.689C156.319 152.689 156.192 152.643 156.123 152.551C156.053 152.458 156.018 152.342 156.018 152.203V135.19C156.018 135.074 156.053 134.97 156.123 134.878C156.192 134.785 156.319 134.739 156.504 134.739H159.595C159.757 134.739 159.884 134.785 159.977 134.878C160.069 134.97 160.115 135.074 160.115 135.19V137.308C160.625 136.382 161.308 135.676 162.164 135.19C163.044 134.704 164.004 134.461 165.046 134.461C166.759 134.461 168.159 135.016 169.247 136.127C170.358 137.239 170.914 138.801 170.914 140.815V152.203C170.914 152.342 170.867 152.458 170.775 152.551C170.705 152.643 170.59 152.689 170.428 152.689H167.268C167.106 152.689 166.99 152.643 166.921 152.551C166.851 152.458 166.817 152.342 166.817 152.203V141.475C166.817 140.225 166.504 139.276 165.879 138.627C165.254 137.979 164.444 137.655 163.449 137.655C162.5 137.655 161.701 137.979 161.053 138.627C160.428 139.276 160.115 140.225 160.115 141.475V152.203C160.115 152.342 160.069 152.458 159.977 152.551C159.884 152.643 159.757 152.689 159.595 152.689H156.504ZM60.3677 169.836C60.3677 169.697 60.414 169.593 60.5066 169.524C60.6223 169.431 60.7381 169.385 60.8538 169.385H63.8398C63.9787 169.385 64.0829 169.431 64.1523 169.524C64.2449 169.593 64.2912 169.697 64.2912 169.836V193.169C64.2912 193.331 64.2333 193.458 64.1176 193.551C64.025 193.643 63.8977 193.689 63.7356 193.689H60.0899C59.9047 193.689 59.7659 193.655 59.6733 193.585C59.6038 193.516 59.5344 193.412 59.4649 193.273L49.9514 176.086L50.0555 193.238C50.0555 193.354 49.9977 193.458 49.8819 193.551C49.7893 193.643 49.6852 193.689 49.5694 193.689H46.5834C46.4677 193.689 46.3635 193.643 46.2709 193.551C46.1783 193.458 46.132 193.331 46.132 193.169V169.905C46.132 169.743 46.1783 169.616 46.2709 169.524C46.3867 169.431 46.5255 169.385 46.6876 169.385H50.2986C50.5069 169.385 50.6458 169.419 50.7152 169.489C50.7847 169.558 50.8541 169.662 50.9236 169.801L60.4719 186.954L60.3677 169.836ZM68.6826 184.697C68.6826 183.979 68.7289 183.296 68.8215 182.648C68.9372 181.977 69.0992 181.363 69.3076 180.808C69.5159 180.229 69.7589 179.697 70.0367 179.211C70.3376 178.725 70.6733 178.285 71.0436 177.891C71.414 177.475 71.8191 177.116 72.2589 176.815C72.6987 176.514 73.1616 176.259 73.6477 176.051C74.1569 175.843 74.6893 175.692 75.2449 175.6C75.8004 175.484 76.3791 175.426 76.9809 175.426C77.5828 175.426 78.1614 175.484 78.717 175.6C79.2725 175.692 79.7933 175.843 80.2794 176.051C80.7887 176.259 81.2632 176.514 81.703 176.815C82.1428 177.116 82.5479 177.475 82.9182 177.891C83.2886 178.285 83.6127 178.725 83.8904 179.211C84.1913 179.697 84.446 180.229 84.6543 180.808C84.8626 181.363 85.0131 181.977 85.1057 182.648C85.2214 183.296 85.2793 183.979 85.2793 184.697C85.2793 185.437 85.2214 186.132 85.1057 186.78C85.0131 187.428 84.8626 188.041 84.6543 188.62C84.446 189.199 84.1913 189.731 83.8904 190.217C83.6127 190.703 83.2886 191.143 82.9182 191.537C82.5479 191.93 82.1428 192.277 81.703 192.578C81.2632 192.879 80.7887 193.134 80.2794 193.342C79.7933 193.551 79.2725 193.701 78.717 193.794C78.1614 193.909 77.5828 193.967 76.9809 193.967C76.3791 193.967 75.8004 193.909 75.2449 193.794C74.6893 193.701 74.1569 193.551 73.6477 193.342C73.1616 193.134 72.6987 192.879 72.2589 192.578C71.8191 192.277 71.414 191.93 71.0436 191.537C70.6733 191.143 70.3376 190.703 70.0367 190.217C69.7589 189.731 69.5159 189.199 69.3076 188.62C69.0992 188.041 68.9372 187.428 68.8215 186.78C68.7289 186.132 68.6826 185.437 68.6826 184.697ZM81.2169 184.697C81.2169 182.706 80.8118 181.213 80.0017 180.218C79.1915 179.199 78.1846 178.69 76.9809 178.69C75.7541 178.69 74.7356 179.199 73.9255 180.218C73.1385 181.213 72.745 182.706 72.745 184.697C72.745 186.711 73.1385 188.227 73.9255 189.245C74.7356 190.24 75.7541 190.738 76.9809 190.738C78.1846 190.738 79.1915 190.24 80.0017 189.245C80.8118 188.227 81.2169 186.711 81.2169 184.697ZM96.4462 193.967C94.8259 193.967 93.5759 193.551 92.6963 192.717C91.8167 191.861 91.3769 190.738 91.3769 189.349V178.933H87.6965C87.5807 178.933 87.4881 178.898 87.4187 178.829C87.3492 178.759 87.3145 178.655 87.3145 178.516V176.121C87.3145 175.982 87.3492 175.889 87.4187 175.843C87.4881 175.773 87.5807 175.739 87.6965 175.739H91.3769V171.329C91.3769 171.19 91.4116 171.074 91.4811 170.982C91.5505 170.889 91.6662 170.843 91.8283 170.843H94.9532C95.1152 170.843 95.2309 170.889 95.3004 170.982C95.393 171.074 95.4393 171.19 95.4393 171.329V175.739H99.8488C99.9646 175.739 100.057 175.773 100.127 175.843C100.219 175.889 100.265 175.982 100.265 176.121V178.516C100.265 178.655 100.219 178.759 100.127 178.829C100.057 178.898 99.9646 178.933 99.8488 178.933H95.4393V188.516C95.4393 189.187 95.6244 189.708 95.9948 190.078C96.3883 190.449 96.9207 190.634 97.592 190.634C97.9392 190.634 98.2748 190.599 98.5989 190.53C98.9461 190.46 99.3165 190.368 99.71 190.252C99.8488 190.206 99.953 190.217 100.022 190.287C100.115 190.333 100.161 190.403 100.161 190.495L100.265 192.891C100.265 192.983 100.254 193.064 100.231 193.134C100.208 193.203 100.15 193.261 100.057 193.308C99.6405 193.516 99.1081 193.678 98.46 193.794C97.8119 193.909 97.1406 193.967 96.4462 193.967ZM118.289 178.343C118.312 178.227 118.358 178.146 118.428 178.1C118.52 178.03 118.613 177.996 118.706 177.996H121.24C121.356 177.996 121.449 178.03 121.518 178.1C121.611 178.146 121.669 178.227 121.692 178.343L124.817 188.516L127.316 176.086C127.34 175.947 127.397 175.854 127.49 175.808C127.583 175.762 127.675 175.739 127.768 175.739H130.546C130.684 175.739 130.777 175.797 130.823 175.912C130.893 176.028 130.916 176.144 130.893 176.259L127.039 193.342C127.016 193.435 126.958 193.516 126.865 193.585C126.773 193.655 126.668 193.689 126.553 193.689H123.462C123.324 193.689 123.196 193.655 123.081 193.585C122.988 193.516 122.93 193.423 122.907 193.308L119.921 183.1L116.935 193.308C116.912 193.423 116.854 193.516 116.761 193.585C116.669 193.655 116.553 193.689 116.414 193.689H113.289C113.173 193.689 113.069 193.655 112.977 193.585C112.884 193.516 112.826 193.435 112.803 193.342L108.949 176.259C108.926 176.144 108.937 176.028 108.984 175.912C109.053 175.797 109.157 175.739 109.296 175.739H112.213C112.305 175.739 112.398 175.762 112.491 175.808C112.606 175.854 112.676 175.947 112.699 176.086L115.234 188.447L118.289 178.343ZM148.49 185.634H136.963C137.079 187.44 137.542 188.771 138.352 189.627C139.185 190.46 140.227 190.877 141.477 190.877C142.333 190.877 143.074 190.68 143.699 190.287C144.347 189.87 144.891 189.268 145.331 188.481C145.4 188.366 145.481 188.296 145.574 188.273C145.666 188.227 145.794 188.227 145.956 188.273L148.352 188.828C148.537 188.875 148.652 188.944 148.699 189.037C148.768 189.129 148.78 189.245 148.733 189.384C148.595 189.731 148.421 190.067 148.213 190.391C148.004 190.715 147.773 191.028 147.518 191.328C147.287 191.629 147.009 191.919 146.685 192.196C146.384 192.451 146.048 192.694 145.678 192.926C145.308 193.134 144.903 193.319 144.463 193.481C144.023 193.643 143.548 193.759 143.039 193.828C142.553 193.921 142.021 193.967 141.442 193.967C140.84 193.967 140.25 193.909 139.671 193.794C139.116 193.701 138.583 193.551 138.074 193.342C137.565 193.134 137.079 192.879 136.616 192.578C136.176 192.277 135.771 191.93 135.401 191.537C135.03 191.143 134.695 190.703 134.394 190.217C134.093 189.731 133.838 189.199 133.63 188.62C133.421 188.041 133.259 187.428 133.144 186.78C133.051 186.132 133.005 185.437 133.005 184.697C133.005 183.979 133.051 183.296 133.144 182.648C133.259 181.977 133.421 181.363 133.63 180.808C133.838 180.229 134.081 179.697 134.359 179.211C134.66 178.725 134.984 178.285 135.331 177.891C135.701 177.498 136.107 177.151 136.546 176.85C136.986 176.549 137.449 176.294 137.935 176.086C138.421 175.878 138.931 175.727 139.463 175.634C139.995 175.519 140.551 175.461 141.13 175.461C141.708 175.461 142.264 175.519 142.796 175.634C143.329 175.727 143.838 175.878 144.324 176.086C144.81 176.294 145.261 176.549 145.678 176.85C146.095 177.151 146.477 177.498 146.824 177.891C147.194 178.285 147.518 178.725 147.796 179.211C148.074 179.697 148.305 180.229 148.49 180.808C148.676 181.363 148.814 181.965 148.907 182.613C149.023 183.262 149.081 183.944 149.081 184.662C149.081 184.963 149.034 185.206 148.942 185.391C148.872 185.553 148.722 185.634 148.49 185.634ZM141.06 178.482C140.065 178.482 139.197 178.84 138.456 179.558C137.715 180.252 137.241 181.398 137.032 182.995H145.157C144.972 181.398 144.497 180.252 143.734 179.558C142.993 178.84 142.102 178.482 141.06 178.482ZM167.512 185.634H155.985C156.101 187.44 156.564 188.771 157.374 189.627C158.207 190.46 159.249 190.877 160.499 190.877C161.355 190.877 162.096 190.68 162.721 190.287C163.369 189.87 163.913 189.268 164.353 188.481C164.422 188.366 164.503 188.296 164.596 188.273C164.688 188.227 164.816 188.227 164.978 188.273L167.374 188.828C167.559 188.875 167.674 188.944 167.721 189.037C167.79 189.129 167.802 189.245 167.755 189.384C167.617 189.731 167.443 190.067 167.235 190.391C167.026 190.715 166.795 191.028 166.54 191.328C166.309 191.629 166.031 191.919 165.707 192.196C165.406 192.451 165.07 192.694 164.7 192.926C164.33 193.134 163.925 193.319 163.485 193.481C163.045 193.643 162.57 193.759 162.061 193.828C161.575 193.921 161.043 193.967 160.464 193.967C159.862 193.967 159.272 193.909 158.693 193.794C158.138 193.701 157.605 193.551 157.096 193.342C156.587 193.134 156.101 192.879 155.638 192.578C155.198 192.277 154.793 191.93 154.423 191.537C154.052 191.143 153.717 190.703 153.416 190.217C153.115 189.731 152.86 189.199 152.652 188.62C152.443 188.041 152.281 187.428 152.166 186.78C152.073 186.132 152.027 185.437 152.027 184.697C152.027 183.979 152.073 183.296 152.166 182.648C152.281 181.977 152.443 181.363 152.652 180.808C152.86 180.229 153.103 179.697 153.381 179.211C153.682 178.725 154.006 178.285 154.353 177.891C154.723 177.498 155.129 177.151 155.568 176.85C156.008 176.549 156.471 176.294 156.957 176.086C157.443 175.878 157.953 175.727 158.485 175.634C159.017 175.519 159.573 175.461 160.152 175.461C160.73 175.461 161.286 175.519 161.818 175.634C162.351 175.727 162.86 175.878 163.346 176.086C163.832 176.294 164.283 176.549 164.7 176.85C165.117 177.151 165.499 177.498 165.846 177.891C166.216 178.285 166.54 178.725 166.818 179.211C167.096 179.697 167.327 180.229 167.512 180.808C167.698 181.363 167.836 181.965 167.929 182.613C168.045 183.262 168.103 183.944 168.103 184.662C168.103 184.963 168.056 185.206 167.964 185.391C167.894 185.553 167.744 185.634 167.512 185.634ZM160.082 178.482C159.087 178.482 158.219 178.84 157.478 179.558C156.737 180.252 156.263 181.398 156.054 182.995H164.179C163.994 181.398 163.519 180.252 162.756 179.558C162.015 178.84 161.124 178.482 160.082 178.482ZM172.509 193.689C172.324 193.689 172.196 193.643 172.127 193.551C172.057 193.458 172.023 193.342 172.023 193.203V169.871C172.023 169.732 172.057 169.616 172.127 169.524C172.196 169.431 172.324 169.385 172.509 169.385H175.599C175.761 169.385 175.888 169.431 175.981 169.524C176.073 169.616 176.12 169.732 176.12 169.871V193.203C176.12 193.342 176.073 193.458 175.981 193.551C175.888 193.643 175.761 193.689 175.599 193.689H172.509ZM183.515 193.689C183.353 193.689 183.226 193.666 183.133 193.62C183.064 193.574 182.983 193.481 182.89 193.342L176.918 184.94C176.872 184.847 176.849 184.778 176.849 184.731C176.872 184.662 176.907 184.581 176.953 184.488L183.203 176.016C183.295 175.901 183.376 175.831 183.446 175.808C183.538 175.762 183.654 175.739 183.793 175.739H186.987C187.173 175.739 187.288 175.797 187.335 175.912C187.381 176.028 187.358 176.155 187.265 176.294L181.258 184.454L187.474 193.064C187.566 193.203 187.589 193.342 187.543 193.481C187.52 193.62 187.392 193.689 187.161 193.689H183.515ZM195.649 175.461C197.2 175.461 198.589 175.82 199.815 176.537C201.065 177.255 202.014 178.146 202.663 179.211C202.732 179.303 202.755 179.419 202.732 179.558C202.709 179.674 202.639 179.778 202.524 179.87L200.579 181.225C200.487 181.294 200.383 181.317 200.267 181.294C200.174 181.271 200.082 181.201 199.989 181.086C199.387 180.206 198.728 179.546 198.01 179.107C197.316 178.667 196.563 178.447 195.753 178.447C195.036 178.447 194.422 178.632 193.913 179.002C193.427 179.35 193.184 179.87 193.184 180.565C193.184 181.306 193.554 181.85 194.295 182.197C195.036 182.544 195.904 182.856 196.899 183.134C197.177 183.204 197.454 183.285 197.732 183.377C198.033 183.447 198.322 183.528 198.6 183.62C198.878 183.713 199.156 183.817 199.434 183.933C199.734 184.025 200.012 184.141 200.267 184.28C200.521 184.396 200.765 184.535 200.996 184.697C201.251 184.836 201.482 184.998 201.69 185.183C201.899 185.368 202.084 185.576 202.246 185.808C202.408 186.016 202.547 186.259 202.663 186.537C202.778 186.792 202.871 187.081 202.94 187.405C203.01 187.706 203.045 188.041 203.045 188.412C203.045 188.921 202.987 189.396 202.871 189.835C202.755 190.275 202.582 190.68 202.35 191.051C202.119 191.421 201.829 191.768 201.482 192.092C201.158 192.393 200.788 192.659 200.371 192.891C199.978 193.122 199.538 193.319 199.052 193.481C198.566 193.643 198.045 193.759 197.489 193.828C196.957 193.921 196.39 193.967 195.788 193.967C193.936 193.967 192.397 193.608 191.17 192.891C189.966 192.15 189.075 191.271 188.496 190.252C188.427 190.136 188.392 190.021 188.392 189.905C188.392 189.789 188.462 189.685 188.601 189.592L190.441 188.169C190.533 188.076 190.638 188.041 190.753 188.065C190.869 188.065 190.962 188.111 191.031 188.204C191.633 189.199 192.339 189.916 193.149 190.356C193.959 190.796 194.804 191.016 195.684 191.016C196.679 191.016 197.478 190.819 198.079 190.426C198.704 190.009 199.017 189.43 199.017 188.69C199.017 187.949 198.623 187.417 197.836 187.092C197.073 186.768 196.17 186.479 195.128 186.224C194.827 186.132 194.515 186.051 194.191 185.981C193.867 185.889 193.543 185.796 193.218 185.704C192.918 185.588 192.617 185.472 192.316 185.356C192.038 185.218 191.76 185.079 191.482 184.94C191.205 184.778 190.938 184.604 190.684 184.419C190.452 184.211 190.244 183.991 190.059 183.759C189.874 183.528 189.712 183.273 189.573 182.995C189.434 182.694 189.318 182.37 189.226 182.023C189.156 181.653 189.121 181.259 189.121 180.843C189.121 179.176 189.735 177.868 190.962 176.919C192.212 175.947 193.774 175.461 195.649 175.461Z" fill="white"/>
<path d="M189.29 152.967C188.665 152.967 188.075 152.898 187.519 152.759C186.964 152.62 186.431 152.423 185.922 152.169C185.436 151.891 184.973 151.555 184.533 151.162C184.116 150.768 183.734 150.317 183.387 149.808C183.063 149.275 182.785 148.685 182.554 148.037C182.322 147.389 182.137 146.694 181.998 145.954C181.883 145.19 181.825 144.38 181.825 143.523C181.825 142.667 181.883 141.868 181.998 141.127C182.137 140.363 182.322 139.669 182.554 139.044C182.785 138.396 183.063 137.817 183.387 137.308C183.734 136.776 184.116 136.313 184.533 135.919C184.973 135.526 185.436 135.202 185.922 134.947C186.431 134.669 186.964 134.461 187.519 134.322C188.075 134.183 188.665 134.114 189.29 134.114C190.47 134.114 191.477 134.391 192.311 134.947C193.167 135.479 193.85 136.243 194.359 137.239V128.975C194.359 128.813 194.405 128.674 194.498 128.558C194.591 128.443 194.741 128.385 194.949 128.385H199.324C199.556 128.385 199.718 128.443 199.81 128.558C199.903 128.674 199.949 128.813 199.949 128.975V152.099C199.949 152.261 199.903 152.4 199.81 152.516C199.718 152.632 199.556 152.689 199.324 152.689H194.949C194.741 152.689 194.591 152.632 194.498 152.516C194.405 152.4 194.359 152.261 194.359 152.099V149.808C193.85 150.803 193.167 151.578 192.311 152.134C191.477 152.689 190.47 152.967 189.29 152.967ZM190.887 148.523C191.882 148.523 192.704 148.106 193.352 147.273C194.023 146.44 194.359 145.19 194.359 143.523C194.359 141.833 194.023 140.583 193.352 139.773C192.704 138.94 191.882 138.523 190.887 138.523C189.892 138.523 189.058 138.94 188.387 139.773C187.716 140.583 187.38 141.833 187.38 143.523C187.38 145.19 187.716 146.44 188.387 147.273C189.058 148.106 189.892 148.523 190.887 148.523ZM208.775 152.967C207.039 152.967 205.662 152.504 204.643 151.578C203.625 150.629 203.115 149.426 203.115 147.967C203.115 146.37 203.729 145.086 204.956 144.113C206.182 143.141 207.872 142.574 210.025 142.412L214.296 142.134V140.988C214.296 140.132 214.041 139.472 213.532 139.009C213.046 138.523 212.386 138.28 211.553 138.28C210.766 138.28 210.06 138.454 209.435 138.801C208.833 139.125 208.231 139.704 207.629 140.537C207.537 140.63 207.421 140.688 207.282 140.711C207.143 140.734 206.969 140.699 206.761 140.607L203.74 139.148C203.578 139.079 203.486 138.975 203.463 138.836C203.439 138.674 203.474 138.523 203.567 138.384C204.284 137.204 205.338 136.209 206.726 135.398C208.115 134.565 209.898 134.148 212.073 134.148C214.411 134.148 216.275 134.773 217.663 136.023C219.075 137.25 219.781 138.951 219.781 141.127V152.099C219.781 152.284 219.735 152.435 219.643 152.551C219.55 152.643 219.4 152.689 219.191 152.689H214.782C214.62 152.689 214.492 152.643 214.4 152.551C214.33 152.435 214.296 152.284 214.296 152.099V150.155C213.763 151.011 213.011 151.694 212.039 152.203C211.066 152.713 209.979 152.967 208.775 152.967ZM208.428 147.447C208.428 148.095 208.648 148.581 209.087 148.905C209.55 149.229 210.141 149.391 210.858 149.391C211.761 149.391 212.559 149.113 213.254 148.558C213.948 147.979 214.296 147.192 214.296 146.197V145.155L211.275 145.398C210.326 145.491 209.608 145.699 209.122 146.023C208.659 146.347 208.428 146.822 208.428 147.447ZM226.332 160.154C225.661 160.154 224.932 160.097 224.145 159.981C223.358 159.888 222.686 159.692 222.131 159.391C221.969 159.344 221.865 159.263 221.818 159.148C221.772 159.055 221.761 158.939 221.784 158.8L222.825 155.294C222.848 155.155 222.918 155.062 223.034 155.016C223.149 154.969 223.265 154.958 223.381 154.981C223.797 155.143 224.214 155.294 224.631 155.432C225.071 155.571 225.476 155.641 225.846 155.641C226.425 155.641 226.911 155.502 227.304 155.224C227.721 154.946 228.114 154.333 228.485 153.384L221.541 135.086C221.471 134.924 221.471 134.773 221.541 134.634C221.633 134.496 221.784 134.426 221.992 134.426H226.853C226.992 134.426 227.096 134.461 227.165 134.53C227.258 134.577 227.327 134.658 227.374 134.773L231.367 146.683L235.533 134.773C235.556 134.658 235.626 134.577 235.742 134.53C235.857 134.461 235.961 134.426 236.054 134.426H240.568C240.776 134.426 240.915 134.496 240.984 134.634C241.054 134.773 241.065 134.912 241.019 135.051L233.832 154.217C232.975 156.486 231.922 158.037 230.672 158.87C229.445 159.726 227.999 160.154 226.332 160.154ZM249.441 134.148C251.015 134.148 252.474 134.472 253.816 135.121C255.182 135.769 256.224 136.556 256.941 137.482C257.034 137.597 257.08 137.748 257.08 137.933C257.103 138.095 257.034 138.222 256.872 138.315L254.407 140.329C254.291 140.421 254.175 140.456 254.059 140.433C253.944 140.41 253.828 140.352 253.712 140.259C253.064 139.495 252.381 138.951 251.664 138.627C250.946 138.28 250.252 138.107 249.58 138.107C248.978 138.107 248.481 138.234 248.087 138.489C247.717 138.743 247.532 139.114 247.532 139.6C247.532 140.155 247.856 140.572 248.504 140.85C249.152 141.104 249.928 141.336 250.83 141.544C251.108 141.613 251.397 141.683 251.698 141.752C251.999 141.822 252.3 141.903 252.601 141.995C252.902 142.088 253.191 142.192 253.469 142.308C253.77 142.4 254.059 142.516 254.337 142.655C254.638 142.771 254.916 142.91 255.17 143.072C255.425 143.234 255.657 143.407 255.865 143.593C256.096 143.778 256.305 143.998 256.49 144.252C256.675 144.484 256.825 144.738 256.941 145.016C257.08 145.294 257.184 145.606 257.254 145.954C257.323 146.278 257.358 146.636 257.358 147.03C257.358 148.882 256.617 150.34 255.136 151.405C253.654 152.446 251.71 152.967 249.303 152.967C247.289 152.967 245.599 152.62 244.233 151.926C242.868 151.208 241.919 150.456 241.386 149.669C241.27 149.553 241.201 149.426 241.178 149.287C241.178 149.125 241.259 148.986 241.421 148.87L243.712 146.717C243.828 146.602 243.944 146.544 244.06 146.544C244.175 146.544 244.28 146.59 244.372 146.683C245.067 147.539 245.83 148.164 246.664 148.558C247.497 148.951 248.342 149.148 249.198 149.148C250.101 149.148 250.772 148.997 251.212 148.697C251.675 148.396 251.907 147.991 251.907 147.481C251.907 146.903 251.525 146.498 250.761 146.266C249.997 146.011 249.106 145.768 248.087 145.537C247.786 145.467 247.474 145.398 247.15 145.329C246.826 145.236 246.502 145.143 246.178 145.051C245.877 144.935 245.576 144.819 245.275 144.704C244.974 144.565 244.685 144.414 244.407 144.252C244.152 144.09 243.898 143.905 243.643 143.697C243.412 143.488 243.192 143.268 242.983 143.037C242.798 142.782 242.636 142.505 242.497 142.204C242.358 141.88 242.243 141.544 242.15 141.197C242.081 140.826 242.046 140.421 242.046 139.982C242.046 138.199 242.717 136.787 244.06 135.746C245.425 134.681 247.219 134.148 249.441 134.148Z" fill="#00D639"/>
</g>
<defs>
<clipPath id="clip0_1093_29252">
<rect width="313.553" height="557.534" rx="156.776" fill="white"/>
</clipPath>
</defs>
</svg>
