<svg width="484" height="73" viewBox="0 0 484 73" fill="none" xmlns="http://www.w3.org/2000/svg">
<g clip-path="url(#clip0_1093_28544)">
<path d="M24.8118 18.9907C34.4419 18.9909 42.2483 26.798 42.2483 36.4282C42.2481 46.0583 34.4418 53.8646 24.8118 53.8647C15.1816 53.8647 7.37443 46.0584 7.37427 36.4282C7.37427 26.7979 15.1815 18.9907 24.8118 18.9907ZM24.9944 26.4624C19.4914 26.4624 15.0308 30.9233 15.0305 36.4263C15.0307 41.9293 19.4913 46.3892 24.9944 46.3892C27.1031 46.393 29.1579 45.7234 30.8596 44.478L28.7043 40.7397C27.6734 41.6303 26.3567 42.1203 24.9944 42.1206C21.8558 42.1206 19.2992 39.5648 19.2991 36.4263C19.2993 33.2878 21.8559 30.731 24.9944 30.731L26.9436 26.6538C26.3018 26.5262 25.6487 26.4623 24.9944 26.4624ZM27.0325 35.0034L24.5667 39.2729H29.4973L31.9631 43.5444L34.429 39.2729L31.9631 35.0034H27.0325ZM30.1194 27.1743C29.6394 27.1687 29.1677 27.3031 28.7629 27.561C28.3551 27.812 28.0519 28.1372 27.8635 28.5415L28.7249 29.4067C29.0596 28.7305 29.5448 28.3989 30.1829 28.3989C30.7228 28.3992 31.0537 28.6783 31.054 29.0649C31.0538 29.389 30.8929 29.6575 30.2727 29.9712L29.9211 30.1421C29.1578 30.529 28.6275 30.9723 28.3206 31.4741C28.0137 31.9762 27.8636 32.6081 27.8635 33.3716V33.5806H32.3694V32.3462H29.3909C29.4712 31.8793 29.7605 31.6171 30.3459 31.3208L30.8938 31.0415C31.8734 30.5394 32.3967 29.971 32.3967 29.0435C32.3966 28.4614 32.1697 28.0006 31.72 27.6694C31.2702 27.3384 30.7399 27.1744 30.1194 27.1743Z" fill="white"/>
<path d="M54.5139 40.0773C53.2306 40.0773 52.2215 39.6309 51.4868 38.7381C50.7615 37.8453 50.3988 36.6271 50.3988 35.0833C50.3988 33.5395 50.7615 32.3212 51.4868 31.4284C52.2215 30.5357 53.212 30.0893 54.4581 30.0893C55.2951 30.0893 56.0484 30.3078 56.718 30.7449C57.3876 31.182 57.8805 31.8516 58.1967 32.7537C58.2153 32.8188 58.2153 32.8746 58.1967 32.9211C58.1781 32.9676 58.1316 33.0001 58.0572 33.0187L56.8714 33.3256C56.8156 33.3442 56.7645 33.3489 56.718 33.3396C56.6715 33.321 56.6343 33.2838 56.6064 33.228C56.4018 32.67 56.1135 32.2515 55.7415 31.9725C55.3788 31.6935 54.9464 31.554 54.4442 31.554C53.7653 31.554 53.2073 31.8469 52.7702 32.4328C52.3424 33.0094 52.1285 33.8929 52.1285 35.0833C52.1285 36.2644 52.3471 37.1525 52.7842 37.7477C53.2306 38.3336 53.8165 38.6265 54.5418 38.6265C55.2393 38.6265 55.7787 38.394 56.16 37.929C56.5506 37.4547 56.7645 36.8735 56.8017 36.1853H54.6674C54.6209 36.1853 54.5837 36.1714 54.5558 36.1435C54.5279 36.1063 54.5139 36.0691 54.5139 36.0319V35.0275C54.5139 34.9717 54.5279 34.9298 54.5558 34.9019C54.5837 34.8647 54.6209 34.8461 54.6674 34.8461H58.2804C58.3269 34.8461 58.3641 34.8647 58.392 34.9019C58.4292 34.9391 58.4478 34.9763 58.4478 35.0135V35.6413C58.4478 35.9203 58.4292 36.1946 58.392 36.4643C58.3641 36.7247 58.3129 36.9758 58.2385 37.2176C58.1734 37.4594 58.0897 37.6919 57.9874 37.9151C57.8944 38.129 57.7782 38.3336 57.6387 38.5289C57.5085 38.7149 57.3597 38.8916 57.1923 39.059C57.0342 39.2171 56.8575 39.3612 56.6622 39.4914C56.4762 39.6123 56.267 39.7193 56.0345 39.8123C55.8113 39.8959 55.5695 39.961 55.3091 40.0075C55.058 40.054 54.7929 40.0773 54.5139 40.0773ZM59.7959 39.9657C59.7308 39.9657 59.6796 39.9471 59.6424 39.9099C59.6052 39.8727 59.5866 39.8262 59.5866 39.7704V38.8218C59.5866 38.7846 59.5913 38.7474 59.6006 38.7102C59.6099 38.673 59.6331 38.6358 59.6703 38.5986L62.9346 35.0972C63.4089 34.595 63.7251 34.1858 63.8832 33.8697C64.0413 33.5442 64.1203 33.2326 64.1203 32.935C64.1203 32.4979 63.9808 32.1585 63.7018 31.9167C63.4228 31.6656 63.0973 31.54 62.7253 31.54C62.3161 31.54 61.9441 31.6656 61.6094 31.9167C61.2746 32.1585 60.9584 32.5072 60.6608 32.9629C60.6329 33.0001 60.5957 33.0234 60.5492 33.0327C60.5027 33.0327 60.4562 33.0234 60.4097 33.0048L59.4192 32.4189C59.3727 32.4003 59.3448 32.3677 59.3355 32.3212C59.3262 32.2747 59.3355 32.2236 59.3634 32.1678C59.7354 31.5354 60.2144 31.0332 60.8003 30.6612C61.3862 30.2799 62.079 30.0893 62.8788 30.0893C63.0927 30.0893 63.2973 30.1079 63.4926 30.1451C63.6879 30.173 63.8739 30.2195 64.0506 30.2846C64.2366 30.3497 64.4086 30.4287 64.5667 30.5217C64.7341 30.6147 64.8829 30.7217 65.0131 30.8426C65.1526 30.9635 65.2735 31.0983 65.3758 31.2471C65.4874 31.3866 65.5804 31.54 65.6548 31.7074C65.7292 31.8655 65.785 32.0376 65.8222 32.2236C65.8687 32.4096 65.8919 32.6002 65.8919 32.7955C65.8919 33.307 65.7617 33.7999 65.5013 34.2742C65.2409 34.7392 64.8038 35.2925 64.1901 35.9342L61.707 38.5847H65.7245C65.7803 38.5847 65.8222 38.5986 65.8501 38.6265C65.8873 38.6544 65.9059 38.6963 65.9059 38.7521V39.7844C65.9059 39.8309 65.8873 39.8727 65.8501 39.9099C65.8222 39.9471 65.7803 39.9657 65.7245 39.9657H59.7959Z" fill="white"/>
</g>
<path d="M83.6615 31.3104C83.7988 30.8877 84.3969 30.8877 84.5343 31.3104L85.3651 33.8673C85.4265 34.0564 85.6027 34.1844 85.8015 34.1844H88.4899C88.9345 34.1844 89.1193 34.7532 88.7597 35.0145L86.5847 36.5947C86.4238 36.7116 86.3565 36.9187 86.418 37.1077L87.2487 39.6646C87.3861 40.0874 86.9022 40.4389 86.5426 40.1776L84.3676 38.5974C84.2068 38.4806 83.989 38.4806 83.8282 38.5974L81.6532 40.1776C81.2936 40.4389 80.8097 40.0874 80.947 39.6646L81.7778 37.1077C81.8392 36.9187 81.772 36.7116 81.6111 36.5947L79.4361 35.0145C79.0765 34.7532 79.2613 34.1844 79.7058 34.1844H82.3943C82.5931 34.1844 82.7693 34.0564 82.8307 33.8673L83.6615 31.3104Z" fill="white"/>
<path d="M95.8675 31.3104C96.0049 30.8877 96.603 30.8877 96.7404 31.3104L97.5711 33.8673C97.6326 34.0564 97.8088 34.1844 98.0076 34.1844H100.696C101.141 34.1844 101.325 34.7532 100.966 35.0145L98.7907 36.5947C98.6299 36.7116 98.5626 36.9187 98.624 37.1077L99.4548 39.6646C99.5922 40.0874 99.1083 40.4389 98.7487 40.1776L96.5737 38.5974C96.4128 38.4806 96.1951 38.4806 96.0342 38.5974L93.8592 40.1776C93.4996 40.4389 93.0157 40.0874 93.1531 39.6646L93.9839 37.1077C94.0453 36.9187 93.978 36.7116 93.8172 36.5947L91.6422 35.0145C91.2826 34.7532 91.4674 34.1844 91.9119 34.1844H94.6003C94.7991 34.1844 94.9753 34.0564 95.0368 33.8673L95.8675 31.3104Z" fill="white"/>
<path d="M108.074 31.3104C108.211 30.8877 108.809 30.8877 108.946 31.3104L109.777 33.8673C109.839 34.0564 110.015 34.1844 110.214 34.1844H112.902C113.347 34.1844 113.531 34.7532 113.172 35.0145L110.997 36.5947C110.836 36.7116 110.769 36.9187 110.83 37.1077L111.661 39.6646C111.798 40.0874 111.314 40.4389 110.955 40.1776L108.78 38.5974C108.619 38.4806 108.401 38.4806 108.24 38.5974L106.065 40.1776C105.706 40.4389 105.222 40.0874 105.359 39.6646L106.19 37.1077C106.251 36.9187 106.184 36.7116 106.023 36.5947L103.848 35.0145C103.489 34.7532 103.673 34.1844 104.118 34.1844H106.806C107.005 34.1844 107.181 34.0564 107.243 33.8673L108.074 31.3104Z" fill="white"/>
<path d="M120.28 31.3104C120.417 30.8877 121.015 30.8877 121.152 31.3104L121.983 33.8673C122.045 34.0564 122.221 34.1844 122.42 34.1844H125.108C125.553 34.1844 125.737 34.7532 125.378 35.0145L123.203 36.5947C123.042 36.7116 122.975 36.9187 123.036 37.1077L123.867 39.6646C124.004 40.0874 123.52 40.4389 123.161 40.1776L120.986 38.5974C120.825 38.4806 120.607 38.4806 120.446 38.5974L118.271 40.1776C117.912 40.4389 117.428 40.0874 117.565 39.6646L118.396 37.1077C118.457 36.9187 118.39 36.7116 118.229 36.5947L116.054 35.0145C115.695 34.7532 115.879 34.1844 116.324 34.1844H119.012C119.211 34.1844 119.387 34.0564 119.449 33.8673L120.28 31.3104Z" fill="white"/>
<path d="M130.545 40.023L132.363 38.5398C132.47 38.4527 132.532 38.3221 132.532 38.1842V30.9851L131.653 33.8603C131.594 34.0533 131.416 34.185 131.214 34.185H128.532C128.087 34.185 127.902 34.7538 128.262 35.0151L130.437 36.5954C130.598 36.7122 130.665 36.9193 130.604 37.1084L129.818 39.5256C129.677 39.9609 130.19 40.3123 130.545 40.023Z" fill="white"/>
<path d="M132.704 31.3813C132.773 31.17 133.072 31.17 133.14 31.3813L133.971 33.938C134.064 34.2216 134.328 34.4136 134.626 34.4136H137.314C137.536 34.4136 137.629 34.698 137.449 34.8286L135.274 36.4087C135.033 36.5839 134.932 36.8947 135.024 37.1782L135.855 39.7358C135.923 39.947 135.681 40.1222 135.502 39.9917L133.327 38.4116C133.086 38.2363 132.759 38.2363 132.517 38.4116L130.343 39.9917C130.163 40.1223 129.921 39.947 129.989 39.7358L130.82 37.1782C130.912 36.8947 130.811 36.5839 130.57 36.4087L128.395 34.8286C128.216 34.698 128.308 34.4136 128.53 34.4136H131.219C131.517 34.4136 131.781 34.2216 131.873 33.938L132.704 31.3813Z" stroke="white" stroke-width="0.458874"/>
<path d="M81.1266 52.5701C81.1266 52.598 81.1196 52.6212 81.1057 52.6398C81.0917 52.6538 81.0685 52.6608 81.0359 52.6608H80.6593C80.6267 52.6608 80.6012 52.6538 80.5826 52.6398C80.5686 52.6212 80.5616 52.598 80.5616 52.5701V51.3983H78.3576C78.3343 51.3983 78.3134 51.3913 78.2948 51.3774C78.2762 51.3588 78.2669 51.3332 78.2669 51.3007V50.9868C78.2669 50.9589 78.2692 50.9356 78.2739 50.917C78.2832 50.8984 78.2971 50.8775 78.3157 50.8543L80.4152 47.8621C80.4384 47.8295 80.4593 47.8086 80.4779 47.7993C80.4965 47.7853 80.5198 47.7784 80.5477 47.7784H81.0359C81.0638 47.7784 81.0847 47.7877 81.0987 47.8063C81.1173 47.8202 81.1266 47.8411 81.1266 47.869V50.917H81.7125C81.7357 50.917 81.7543 50.924 81.7683 50.938C81.7869 50.9519 81.7962 50.9705 81.7962 50.9938V51.3076C81.7962 51.3309 81.7869 51.3518 81.7683 51.3704C81.7543 51.389 81.7357 51.3983 81.7125 51.3983H81.1266V52.5701ZM78.8249 50.917H80.5616V48.427L78.8249 50.917ZM82.8306 52.7096C82.719 52.7096 82.6191 52.6701 82.5307 52.591C82.4424 52.512 82.3982 52.4097 82.3982 52.2841C82.3982 52.1586 82.4424 52.0563 82.5307 51.9772C82.6191 51.8935 82.719 51.8517 82.8306 51.8517C82.9469 51.8517 83.0469 51.8935 83.1306 51.9772C83.2189 52.0563 83.2631 52.1586 83.2631 52.2841C83.2631 52.4097 83.2189 52.512 83.1306 52.591C83.0469 52.6701 82.9469 52.7096 82.8306 52.7096ZM85.1763 52.7166C84.9252 52.7166 84.6811 52.684 84.444 52.6189C84.2068 52.5492 83.9952 52.4492 83.8093 52.319C83.7907 52.305 83.779 52.2911 83.7744 52.2771C83.7744 52.2632 83.779 52.2469 83.7883 52.2283L83.9976 51.9075C84.0069 51.8889 84.0208 51.8773 84.0394 51.8726C84.058 51.868 84.0743 51.8726 84.0882 51.8866C84.2603 51.9935 84.4323 52.0772 84.6044 52.1377C84.7811 52.1981 84.9671 52.2283 85.1624 52.2283C85.4832 52.2283 85.7459 52.1377 85.9505 51.9563C86.1598 51.7703 86.2644 51.5262 86.2644 51.2239C86.2644 50.9263 86.1458 50.6822 85.9087 50.4916C85.6715 50.2963 85.3158 50.2219 84.8415 50.2684C84.8229 50.2684 84.8067 50.2661 84.7927 50.2614C84.7788 50.2568 84.7648 50.2451 84.7509 50.2265L84.5974 50.0243C84.5835 50.0057 84.5742 49.9847 84.5695 49.9615C84.5695 49.9382 84.5788 49.9173 84.5974 49.8987L85.9505 48.2526H83.9139C83.8953 48.2526 83.8767 48.2457 83.8581 48.2317C83.8395 48.2131 83.8302 48.1922 83.8302 48.1689V47.8551C83.8302 47.8318 83.8372 47.8132 83.8511 47.7993C83.8697 47.7853 83.8906 47.7784 83.9139 47.7784H86.4527C86.4853 47.7784 86.5085 47.7877 86.5225 47.8063C86.5364 47.8202 86.5434 47.8411 86.5434 47.869V48.1759C86.5434 48.1945 86.5388 48.2131 86.5295 48.2317C86.5248 48.2503 86.5132 48.2689 86.4946 48.2875L85.26 49.829C85.7622 49.8383 86.1505 49.9731 86.4248 50.2335C86.7038 50.4893 86.8433 50.8124 86.8433 51.203C86.8433 51.3146 86.8317 51.4216 86.8084 51.5239C86.7898 51.6262 86.7596 51.7238 86.7178 51.8168C86.6806 51.9098 86.6318 51.9958 86.5713 52.0749C86.5155 52.1539 86.4504 52.2283 86.376 52.2981C86.3016 52.3632 86.2202 52.4213 86.1319 52.4724C86.0435 52.5236 85.9482 52.5678 85.8459 52.605C85.7483 52.6422 85.6413 52.6701 85.5251 52.6887C85.4135 52.7073 85.2972 52.7166 85.1763 52.7166ZM90.1066 49.0548C90.4182 49.0548 90.6856 49.1338 90.9088 49.2919C91.1366 49.45 91.3086 49.6476 91.4249 49.8848C91.4342 49.9034 91.4342 49.9243 91.4249 49.9475C91.4202 49.9661 91.4086 49.9801 91.39 49.9894L91.0901 50.1359C91.0715 50.1498 91.0529 50.1521 91.0343 50.1428C91.0203 50.1335 91.0064 50.1196 90.9924 50.101C90.8855 49.8917 90.76 49.7383 90.6158 49.6406C90.4763 49.5383 90.3136 49.4872 90.1276 49.4872C89.9602 49.4872 89.8137 49.5337 89.6881 49.6267C89.5672 49.715 89.5068 49.8452 89.5068 50.0173C89.5068 50.2079 89.5928 50.3474 89.7649 50.4358C89.9369 50.5195 90.1345 50.5939 90.3577 50.659C90.4182 50.6776 90.4786 50.6962 90.5391 50.7148C90.5995 50.7334 90.6577 50.7543 90.7135 50.7775C90.7739 50.7961 90.832 50.8171 90.8878 50.8403C90.9483 50.8636 91.0041 50.8915 91.0552 50.924C91.1064 50.9519 91.1529 50.9845 91.1947 51.0217C91.2412 51.0589 91.2831 51.0984 91.3203 51.1402C91.3575 51.1821 91.3877 51.2309 91.4109 51.2867C91.4388 51.3379 91.4598 51.396 91.4737 51.4611C91.4877 51.5262 91.4946 51.5959 91.4946 51.6703C91.4946 51.754 91.4853 51.8331 91.4667 51.9075C91.4481 51.9819 91.4226 52.0516 91.39 52.1167C91.3575 52.1818 91.3179 52.2423 91.2714 52.2981C91.2249 52.3492 91.1715 52.398 91.111 52.4445C91.0506 52.491 90.9855 52.5306 90.9157 52.5631C90.846 52.5957 90.7716 52.6236 90.6925 52.6468C90.6135 52.6701 90.5321 52.6863 90.4484 52.6956C90.3647 52.7096 90.2787 52.7166 90.1903 52.7166C89.8416 52.7166 89.5579 52.6422 89.3394 52.4934C89.1209 52.3399 88.9511 52.14 88.8302 51.8935C88.8209 51.8749 88.8163 51.8563 88.8163 51.8377C88.8163 51.8191 88.8302 51.8029 88.8581 51.7889L89.1581 51.6285C89.1767 51.6192 89.1953 51.6169 89.2139 51.6215C89.2325 51.6215 89.2464 51.6308 89.2557 51.6494C89.3627 51.8726 89.4952 52.033 89.6533 52.1307C89.8114 52.2283 89.9834 52.2771 90.1694 52.2771C90.388 52.2771 90.5716 52.2283 90.7204 52.1307C90.8692 52.033 90.9436 51.8889 90.9436 51.6982C90.9436 51.5122 90.8553 51.3797 90.6786 51.3007C90.5019 51.2216 90.2996 51.1495 90.0718 51.0844C90.0113 51.0658 89.9509 51.0496 89.8904 51.0356C89.8346 51.017 89.7765 50.9984 89.716 50.9798C89.6602 50.9566 89.6044 50.9333 89.5486 50.9101C89.4929 50.8822 89.4394 50.8543 89.3882 50.8264C89.3371 50.7938 89.2883 50.7613 89.2418 50.7287C89.1999 50.6915 89.1604 50.6497 89.1232 50.6032C89.0906 50.5567 89.0604 50.5079 89.0325 50.4567C89.0093 50.4009 88.9907 50.3405 88.9767 50.2754C88.9628 50.2103 88.9558 50.1382 88.9558 50.0591C88.9558 49.9661 88.9651 49.8801 88.9837 49.8011C89.0069 49.722 89.0372 49.6499 89.0744 49.5848C89.1116 49.5151 89.1557 49.4523 89.2069 49.3965C89.2627 49.3407 89.3231 49.2919 89.3882 49.2501C89.458 49.2082 89.5301 49.1733 89.6044 49.1454C89.6788 49.1129 89.7579 49.0896 89.8416 49.0757C89.9299 49.0617 90.0183 49.0548 90.1066 49.0548ZM93.5072 52.7166C93.2236 52.7166 93.0027 52.6398 92.8446 52.4864C92.6912 52.3329 92.6144 52.1307 92.6144 51.8796V49.5639H91.8751C91.8565 49.5639 91.8402 49.5569 91.8263 49.543C91.8123 49.529 91.8054 49.5104 91.8054 49.4872V49.1803C91.8054 49.1571 91.8123 49.1408 91.8263 49.1315C91.8402 49.1175 91.8565 49.1106 91.8751 49.1106H92.6144V48.1968C92.6144 48.1782 92.6214 48.162 92.6354 48.148C92.6493 48.1294 92.6679 48.1201 92.6912 48.1201H93.0887C93.112 48.1201 93.1306 48.1294 93.1445 48.148C93.1631 48.162 93.1724 48.1782 93.1724 48.1968V49.1106H94.0861C94.1047 49.1106 94.121 49.1175 94.135 49.1315C94.1489 49.1408 94.1559 49.1571 94.1559 49.1803V49.4872C94.1559 49.5104 94.1489 49.529 94.135 49.543C94.121 49.5569 94.1047 49.5639 94.0861 49.5639H93.1724V51.7889C93.1724 51.9331 93.212 52.047 93.291 52.1307C93.3747 52.2144 93.4863 52.2562 93.6258 52.2562C93.7002 52.2562 93.7699 52.2492 93.835 52.2353C93.9048 52.2213 93.9769 52.2004 94.0513 52.1725C94.0745 52.1632 94.0931 52.1632 94.1071 52.1725C94.1257 52.1772 94.135 52.1888 94.135 52.2074L94.1629 52.5213C94.1629 52.5352 94.1629 52.5492 94.1629 52.5631C94.1629 52.5724 94.1536 52.5817 94.135 52.591C94.0606 52.6282 93.9652 52.6584 93.849 52.6817C93.7374 52.7049 93.6235 52.7166 93.5072 52.7166ZM95.7591 52.7166C95.4243 52.7166 95.157 52.6259 94.957 52.4445C94.7571 52.2585 94.6571 52.0307 94.6571 51.761C94.6571 51.4262 94.778 51.1681 95.0198 50.9868C95.2616 50.8008 95.5917 50.6915 96.0102 50.659L96.8542 50.5892V50.3451C96.8542 50.0661 96.7821 49.8569 96.638 49.7174C96.4985 49.5732 96.3148 49.5011 96.0869 49.5011C95.9056 49.5011 95.7405 49.5407 95.5917 49.6197C95.4429 49.6988 95.3104 49.8452 95.1942 50.0591C95.1802 50.0777 95.1616 50.087 95.1384 50.087C95.1198 50.087 95.0988 50.0824 95.0756 50.0731L94.7966 49.9475C94.7733 49.9382 94.7594 49.922 94.7547 49.8987C94.7547 49.8755 94.7594 49.8522 94.7687 49.829C94.8896 49.6011 95.0616 49.4151 95.2848 49.271C95.508 49.1268 95.7894 49.0548 96.1288 49.0548C96.5054 49.0548 96.8123 49.1687 97.0495 49.3965C97.2866 49.6244 97.4052 49.9406 97.4052 50.3451V52.584C97.4052 52.6026 97.3982 52.6212 97.3843 52.6398C97.375 52.6538 97.3564 52.6608 97.3285 52.6608H96.9239C96.9053 52.6608 96.8891 52.6538 96.8751 52.6398C96.8612 52.6212 96.8542 52.6026 96.8542 52.584V52.1446C96.7472 52.3213 96.5961 52.4608 96.4008 52.5631C96.2102 52.6654 95.9963 52.7166 95.7591 52.7166ZM95.2011 51.7192C95.2011 51.9145 95.2709 52.0563 95.4104 52.1446C95.5545 52.233 95.7196 52.2771 95.9056 52.2771C95.9753 52.2771 96.0428 52.2702 96.1079 52.2562C96.1776 52.2423 96.2427 52.2237 96.3032 52.2004C96.3683 52.1725 96.4287 52.14 96.4845 52.1028C96.5403 52.0656 96.5891 52.0237 96.631 51.9772C96.6775 51.9307 96.717 51.8796 96.7496 51.8238C96.7821 51.7633 96.8077 51.7006 96.8263 51.6355C96.8449 51.5657 96.8542 51.4913 96.8542 51.4123V51.0356L96.1288 51.0984C95.8219 51.1263 95.5894 51.1914 95.4313 51.2937C95.2779 51.3913 95.2011 51.5332 95.2011 51.7192ZM98.6421 52.6608C98.6142 52.6608 98.5933 52.6538 98.5794 52.6398C98.5701 52.6212 98.5654 52.6026 98.5654 52.584V49.1803C98.5654 49.1617 98.5701 49.1454 98.5794 49.1315C98.5933 49.1175 98.6142 49.1106 98.6421 49.1106H99.0397C99.063 49.1106 99.0816 49.1175 99.0955 49.1315C99.1141 49.1454 99.1234 49.1617 99.1234 49.1803V49.7453C99.2257 49.5174 99.3675 49.3454 99.5489 49.2291C99.7349 49.1082 99.9325 49.0478 100.142 49.0478C100.188 49.0478 100.23 49.0524 100.267 49.0617C100.309 49.0664 100.353 49.0734 100.4 49.0827C100.428 49.0873 100.446 49.0966 100.456 49.1106C100.465 49.1245 100.467 49.1408 100.463 49.1594L100.421 49.543C100.416 49.5709 100.404 49.5895 100.386 49.5988C100.372 49.6081 100.353 49.6104 100.33 49.6058C100.279 49.5918 100.232 49.5825 100.191 49.5779C100.149 49.5686 100.107 49.5639 100.065 49.5639C99.8 49.5639 99.5768 49.6616 99.3954 49.8569C99.2141 50.0475 99.1234 50.3172 99.1234 50.666V52.584C99.1234 52.6026 99.1141 52.6212 99.0955 52.6398C99.0816 52.6538 99.063 52.6608 99.0397 52.6608H98.6421ZM102.027 49.0548C102.338 49.0548 102.606 49.1338 102.829 49.2919C103.057 49.45 103.229 49.6476 103.345 49.8848C103.354 49.9034 103.354 49.9243 103.345 49.9475C103.34 49.9661 103.329 49.9801 103.31 49.9894L103.01 50.1359C102.991 50.1498 102.973 50.1521 102.954 50.1428C102.94 50.1335 102.926 50.1196 102.912 50.101C102.805 49.8917 102.68 49.7383 102.536 49.6406C102.396 49.5383 102.234 49.4872 102.048 49.4872C101.88 49.4872 101.734 49.5337 101.608 49.6267C101.487 49.715 101.427 49.8452 101.427 50.0173C101.427 50.2079 101.513 50.3474 101.685 50.4358C101.857 50.5195 102.054 50.5939 102.278 50.659C102.338 50.6776 102.399 50.6962 102.459 50.7148C102.519 50.7334 102.578 50.7543 102.633 50.7775C102.694 50.7961 102.752 50.8171 102.808 50.8403C102.868 50.8636 102.924 50.8915 102.975 50.924C103.026 50.9519 103.073 50.9845 103.115 51.0217C103.161 51.0589 103.203 51.0984 103.24 51.1402C103.277 51.1821 103.308 51.2309 103.331 51.2867C103.359 51.3379 103.38 51.396 103.394 51.4611C103.408 51.5262 103.415 51.5959 103.415 51.6703C103.415 51.754 103.405 51.8331 103.387 51.9075C103.368 51.9819 103.343 52.0516 103.31 52.1167C103.277 52.1818 103.238 52.2423 103.191 52.2981C103.145 52.3492 103.091 52.398 103.031 52.4445C102.971 52.491 102.905 52.5306 102.836 52.5631C102.766 52.5957 102.692 52.6236 102.612 52.6468C102.533 52.6701 102.452 52.6863 102.368 52.6956C102.285 52.7096 102.199 52.7166 102.11 52.7166C101.762 52.7166 101.478 52.6422 101.259 52.4934C101.041 52.3399 100.871 52.14 100.75 51.8935C100.741 51.8749 100.736 51.8563 100.736 51.8377C100.736 51.8191 100.75 51.8029 100.778 51.7889L101.078 51.6285C101.097 51.6192 101.115 51.6169 101.134 51.6215C101.152 51.6215 101.166 51.6308 101.176 51.6494C101.283 51.8726 101.415 52.033 101.573 52.1307C101.731 52.2283 101.903 52.2771 102.089 52.2771C102.308 52.2771 102.492 52.2283 102.64 52.1307C102.789 52.033 102.864 51.8889 102.864 51.6982C102.864 51.5122 102.775 51.3797 102.599 51.3007C102.422 51.2216 102.22 51.1495 101.992 51.0844C101.931 51.0658 101.871 51.0496 101.81 51.0356C101.755 51.017 101.696 50.9984 101.636 50.9798C101.58 50.9566 101.524 50.9333 101.469 50.9101C101.413 50.8822 101.359 50.8543 101.308 50.8264C101.257 50.7938 101.208 50.7613 101.162 50.7287C101.12 50.6915 101.08 50.6497 101.043 50.6032C101.011 50.5567 100.98 50.5079 100.952 50.4567C100.929 50.4009 100.911 50.3405 100.897 50.2754C100.883 50.2103 100.876 50.1382 100.876 50.0591C100.876 49.9661 100.885 49.8801 100.904 49.8011C100.927 49.722 100.957 49.6499 100.994 49.5848C101.032 49.5151 101.076 49.4523 101.127 49.3965C101.183 49.3407 101.243 49.2919 101.308 49.2501C101.378 49.2082 101.45 49.1733 101.524 49.1454C101.599 49.1129 101.678 49.0896 101.762 49.0757C101.85 49.0617 101.938 49.0548 102.027 49.0548Z" fill="white"/>
<g clip-path="url(#clip1_1093_28544)">
<path d="M231.178 38.2589H231.899V38.3995H231.613V39.2336H231.465V38.3995H231.178V38.2589ZM232.565 38.9524L232.232 38.2589H232.103L231.983 39.2336H232.131L232.214 38.5307L232.5 39.1211H232.63L232.916 38.5307L232.999 39.2336H233.147L233.027 38.2589H232.898L232.565 38.9524ZM267.819 30.9765C267.818 31.0943 267.846 31.2104 267.902 31.3139C267.956 31.4144 268.036 31.4985 268.133 31.5576C268.228 31.6138 268.337 31.6429 268.447 31.642C268.557 31.6417 268.666 31.6127 268.761 31.5576C268.858 31.4982 268.938 31.4142 268.993 31.3139C269.048 31.2104 269.077 31.0943 269.076 30.9765C269.077 30.8587 269.048 30.7426 268.993 30.6391C268.941 30.5356 268.861 30.4499 268.761 30.3926C268.666 30.3364 268.557 30.3073 268.447 30.3083C268.337 30.3085 268.229 30.3375 268.133 30.3926C268.036 30.452 267.957 30.536 267.902 30.6363C267.846 30.7398 267.818 30.8559 267.819 30.9737V30.9765ZM267.92 30.9737C267.922 30.8764 267.944 30.7806 267.985 30.6925C268.029 30.6121 268.093 30.5443 268.17 30.4957C268.248 30.4483 268.337 30.4224 268.429 30.4207C268.52 30.4211 268.61 30.4471 268.687 30.4957C268.767 30.5452 268.831 30.6167 268.872 30.7019C268.916 30.7854 268.939 30.879 268.937 30.9737C268.939 31.0684 268.916 31.162 268.872 31.2455C268.829 31.3289 268.765 31.3998 268.687 31.4517C268.609 31.4991 268.52 31.525 268.429 31.5267C268.334 31.5252 268.242 31.4994 268.161 31.4517C268.081 31.4022 268.017 31.3306 267.976 31.2455C267.943 31.1585 267.924 31.0667 267.92 30.9737V30.9737ZM268.447 31.0393C268.464 31.0374 268.48 31.039 268.496 31.0438C268.512 31.0486 268.527 31.0567 268.54 31.0674C268.56 31.0942 268.57 31.1275 268.567 31.1611C268.563 31.2175 268.566 31.2743 268.577 31.3298H268.715V31.3111C268.708 31.2967 268.705 31.2804 268.706 31.2642V31.1611C268.706 31.1198 268.7 31.0788 268.687 31.0393C268.678 31.0018 268.651 30.9831 268.614 30.9643C268.642 30.9512 268.665 30.93 268.682 30.9033C268.698 30.8767 268.707 30.8458 268.706 30.8144C268.707 30.7824 268.701 30.7504 268.689 30.7212C268.676 30.6919 268.656 30.666 268.632 30.6457C268.57 30.6004 268.496 30.5773 268.419 30.5801H268.17V31.3392H268.299V31.0393H268.447ZM268.309 30.7019H268.429C268.468 30.6972 268.507 30.7072 268.54 30.73C268.55 30.7415 268.557 30.7549 268.562 30.7693C268.567 30.7838 268.568 30.7991 268.567 30.8144C268.566 30.8298 268.562 30.8447 268.553 30.8577C268.545 30.8708 268.534 30.8817 268.521 30.8893C268.488 30.9096 268.449 30.9194 268.41 30.9175H268.299V30.7019H268.309ZM242.381 38.0124H243.611L240.745 30.3176H239.479L236.613 38.0124H237.861L238.592 36.091H241.651L242.381 38.0124ZM240.126 31.7985L241.263 35.0226H238.998L240.126 31.7985ZM244.895 38.0124H246.06V30.3176H244.895V38.0124ZM253.593 35.9786C253.349 36.2929 253.037 36.5467 252.682 36.7204C252.326 36.8942 251.936 36.9835 251.541 36.9814C250.035 36.9814 248.879 35.7349 248.879 34.1791C248.879 32.6232 250.035 31.3673 251.541 31.3673C251.926 31.3713 252.306 31.4587 252.655 31.6235C253.004 31.7884 253.315 32.027 253.566 32.3233L254.471 31.611C254.118 31.1704 253.671 30.8167 253.163 30.5765C252.656 30.3362 252.101 30.2157 251.541 30.2239C249.397 30.2239 247.705 31.9859 247.705 34.1791C247.705 36.3535 249.388 38.1155 251.541 38.1155C252.771 38.1155 253.834 37.5719 254.49 36.7002L253.593 35.9786ZM256.015 38.0124H257.189V35.1913H259.065C260.701 35.1913 261.376 34.001 261.376 32.7732C261.376 31.5454 260.701 30.327 259.065 30.327H256.015V38.0124ZM259.038 31.4048C259.851 31.4048 260.202 32.1078 260.202 32.7545C260.202 33.4012 259.842 34.0947 258.991 34.0947H257.189V31.4048H259.038ZM267.209 38.0124H268.447L265.582 30.3176H264.315L261.45 38.0124H262.698L263.428 36.091H266.488L267.209 38.0124ZM264.953 31.7985L266.09 35.0226H263.826L264.953 31.7985Z" fill="white"/>
<path d="M215.938 35.6112C216.875 36.7453 218.046 37.657 219.368 38.2821C220.691 38.9072 222.132 39.2304 223.591 39.229C224.909 39.2307 226.215 38.9674 227.431 38.4542C228.648 37.941 229.753 37.1881 230.681 36.2392C230.276 36.3192 229.864 36.36 229.451 36.361C225.662 36.361 221.678 34.1304 219.219 30.85L215.938 35.6112ZM220.134 29.5192C222.288 32.1903 225.671 34.2147 228.971 34.2147C229.849 34.2147 230.607 34.0554 231.235 33.7367L226.133 20.8403L220.134 29.5192ZM213.599 29.0974C213.598 31.1289 214.201 33.1136 215.328 34.793L218.637 30.0037C217.518 28.2323 216.834 26.2201 216.834 24.1085C216.834 22.2059 217.907 20.7156 218.48 20.3876C216.991 21.2851 215.759 22.5597 214.903 24.0862C214.048 25.6127 213.598 27.3387 213.599 29.0946V29.0974ZM232.529 32.7058C233.223 31.8248 233.583 30.5876 233.583 29.0599C233.573 26.8878 232.876 24.7762 231.595 23.0353C230.314 21.2944 228.517 20.0159 226.466 19.3876L232.529 32.7058ZM217.87 23.8863C217.87 25.4984 218.498 27.1761 219.534 28.7038L226.041 19.2751C225.24 19.072 224.417 18.9682 223.591 18.9658C219.201 18.9658 217.87 21.5901 217.87 23.8863Z" fill="white"/>
</g>
<path d="M214.13 46.8552V42.2828H215.625C216.121 42.2828 216.494 42.3854 216.743 42.5906C216.994 42.7958 217.12 43.0993 217.12 43.5013C217.12 43.7148 217.059 43.9043 216.938 44.0697C216.816 44.233 216.651 44.3597 216.441 44.4497C216.688 44.5188 216.883 44.6507 217.026 44.8454C217.17 45.038 217.242 45.2683 217.242 45.5363C217.242 45.9466 217.109 46.269 216.843 46.5035C216.577 46.738 216.202 46.8552 215.716 46.8552H214.13ZM214.733 44.7166V46.3622H215.729C216.009 46.3622 216.23 46.29 216.391 46.1455C216.554 45.9989 216.636 45.798 216.636 45.5425C216.636 44.9919 216.337 44.7166 215.738 44.7166H214.733ZM214.733 44.233H215.644C215.908 44.233 216.118 44.1671 216.275 44.0352C216.434 43.9033 216.514 43.7243 216.514 43.4982C216.514 43.2469 216.44 43.0648 216.294 42.9517C216.147 42.8366 215.924 42.779 215.625 42.779H214.733V44.233ZM220.144 46.5192C219.918 46.7851 219.586 46.918 219.148 46.918C218.786 46.918 218.51 46.8134 218.319 46.604C218.131 46.3925 218.036 46.0806 218.034 45.6682V43.4573H218.615V45.6525C218.615 46.1675 218.824 46.425 219.243 46.425C219.686 46.425 219.982 46.2596 220.128 45.9288V43.4573H220.709V46.8552H220.156L220.144 46.5192ZM223.573 45.9539C223.573 45.7969 223.514 45.6755 223.394 45.5897C223.277 45.5017 223.071 45.4264 222.776 45.3635C222.482 45.3007 222.249 45.2254 222.075 45.1374C221.904 45.0495 221.776 44.9448 221.692 44.8234C221.61 44.702 221.57 44.5575 221.57 44.39C221.57 44.1116 221.687 43.8761 221.921 43.6834C222.158 43.4908 222.459 43.3945 222.826 43.3945C223.211 43.3945 223.523 43.494 223.762 43.6929C224.002 43.8918 224.123 44.1461 224.123 44.456H223.539C223.539 44.2969 223.471 44.1597 223.335 44.0446C223.201 43.9294 223.031 43.8719 222.826 43.8719C222.614 43.8719 222.449 43.9179 222.33 44.01C222.21 44.1022 222.151 44.2225 222.151 44.3712C222.151 44.5115 222.206 44.6172 222.317 44.6884C222.428 44.7595 222.628 44.8276 222.917 44.8925C223.208 44.9574 223.443 45.0349 223.623 45.1249C223.803 45.2149 223.936 45.3238 224.022 45.4515C224.11 45.5771 224.154 45.731 224.154 45.9131C224.154 46.2167 224.033 46.4606 223.79 46.6448C223.547 46.827 223.232 46.918 222.845 46.918C222.572 46.918 222.332 46.8699 222.122 46.7736C221.913 46.6773 221.749 46.5433 221.629 46.3716C221.512 46.1978 221.453 46.0105 221.453 45.8095H222.034C222.045 46.0042 222.122 46.1591 222.267 46.2743C222.413 46.3873 222.606 46.4438 222.845 46.4438C223.064 46.4438 223.24 46.3999 223.372 46.3119C223.506 46.2219 223.573 46.1026 223.573 45.9539ZM225.542 46.8552H224.961V43.4573H225.542V46.8552ZM224.914 42.5561C224.914 42.4618 224.942 42.3823 224.999 42.3174C225.058 42.2525 225.143 42.22 225.256 42.22C225.369 42.22 225.455 42.2525 225.514 42.3174C225.573 42.3823 225.602 42.4618 225.602 42.5561C225.602 42.6503 225.573 42.7288 225.514 42.7916C225.455 42.8544 225.369 42.8858 225.256 42.8858C225.143 42.8858 225.058 42.8544 224.999 42.7916C224.942 42.7288 224.914 42.6503 224.914 42.5561ZM227.024 43.4573L227.043 43.8844C227.303 43.5578 227.642 43.3945 228.061 43.3945C228.779 43.3945 229.141 43.7996 229.147 44.6099V46.8552H228.566V44.6067C228.564 44.3618 228.508 44.1807 228.397 44.0634C228.288 43.9462 228.117 43.8876 227.885 43.8876C227.697 43.8876 227.531 43.9378 227.389 44.0383C227.246 44.1388 227.135 44.2707 227.056 44.434V46.8552H226.475V43.4573H227.024ZM231.434 46.918C230.973 46.918 230.598 46.7673 230.309 46.4658C230.02 46.1622 229.876 45.7571 229.876 45.2505V45.1437C229.876 44.8067 229.94 44.5062 230.067 44.2424C230.197 43.9765 230.377 43.7693 230.608 43.6206C230.84 43.4699 231.091 43.3945 231.361 43.3945C231.803 43.3945 232.146 43.54 232.391 43.831C232.636 44.1221 232.759 44.5387 232.759 45.0809V45.3227H230.457C230.465 45.6577 230.563 45.9288 230.749 46.1361C230.937 46.3412 231.176 46.4438 231.465 46.4438C231.67 46.4438 231.844 46.402 231.986 46.3182C232.129 46.2345 232.253 46.1235 232.36 45.9853L232.715 46.2617C232.43 46.6993 232.003 46.918 231.434 46.918ZM231.361 43.8719C231.127 43.8719 230.93 43.9577 230.771 44.1294C230.612 44.299 230.513 44.5376 230.476 44.8454H232.178V44.8014C232.161 44.5062 232.082 44.278 231.939 44.1168C231.797 43.9535 231.604 43.8719 231.361 43.8719ZM235.412 45.9539C235.412 45.7969 235.353 45.6755 235.233 45.5897C235.116 45.5017 234.91 45.4264 234.615 45.3635C234.322 45.3007 234.088 45.2254 233.914 45.1374C233.743 45.0495 233.615 44.9448 233.531 44.8234C233.45 44.702 233.409 44.5575 233.409 44.39C233.409 44.1116 233.526 43.8761 233.761 43.6834C233.997 43.4908 234.299 43.3945 234.665 43.3945C235.05 43.3945 235.362 43.494 235.601 43.6929C235.842 43.8918 235.962 44.1461 235.962 44.456H235.378C235.378 44.2969 235.31 44.1597 235.174 44.0446C235.04 43.9294 234.87 43.8719 234.665 43.8719C234.454 43.8719 234.288 43.9179 234.169 44.01C234.049 44.1022 233.99 44.2225 233.99 44.3712C233.99 44.5115 234.045 44.6172 234.156 44.6884C234.267 44.7595 234.467 44.8276 234.756 44.8925C235.047 44.9574 235.283 45.0349 235.463 45.1249C235.643 45.2149 235.776 45.3238 235.861 45.4515C235.949 45.5771 235.993 45.731 235.993 45.9131C235.993 46.2167 235.872 46.4606 235.629 46.6448C235.386 46.827 235.071 46.918 234.684 46.918C234.412 46.918 234.171 46.8699 233.962 46.7736C233.752 46.6773 233.588 46.5433 233.469 46.3716C233.351 46.1978 233.293 46.0105 233.293 45.8095H233.874C233.884 46.0042 233.962 46.1591 234.106 46.2743C234.253 46.3873 234.445 46.4438 234.684 46.4438C234.904 46.4438 235.08 46.3999 235.211 46.3119C235.345 46.2219 235.412 46.1026 235.412 45.9539ZM238.729 45.9539C238.729 45.7969 238.669 45.6755 238.55 45.5897C238.432 45.5017 238.226 45.4264 237.931 45.3635C237.638 45.3007 237.404 45.2254 237.231 45.1374C237.059 45.0495 236.931 44.9448 236.848 44.8234C236.766 44.702 236.725 44.5575 236.725 44.39C236.725 44.1116 236.842 43.8761 237.077 43.6834C237.313 43.4908 237.615 43.3945 237.981 43.3945C238.366 43.3945 238.678 43.494 238.917 43.6929C239.158 43.8918 239.278 44.1461 239.278 44.456H238.694C238.694 44.2969 238.626 44.1597 238.49 44.0446C238.356 43.9294 238.186 43.8719 237.981 43.8719C237.77 43.8719 237.604 43.9179 237.485 44.01C237.366 44.1022 237.306 44.2225 237.306 44.3712C237.306 44.5115 237.362 44.6172 237.472 44.6884C237.583 44.7595 237.783 44.8276 238.072 44.8925C238.363 44.9574 238.599 45.0349 238.779 45.1249C238.959 45.2149 239.092 45.3238 239.178 45.4515C239.266 45.5771 239.31 45.731 239.31 45.9131C239.31 46.2167 239.188 46.4606 238.945 46.6448C238.702 46.827 238.387 46.918 238 46.918C237.728 46.918 237.487 46.8699 237.278 46.7736C237.068 46.6773 236.904 46.5433 236.785 46.3716C236.668 46.1978 236.609 46.0105 236.609 45.8095H237.19C237.2 46.0042 237.278 46.1591 237.422 46.2743C237.569 46.3873 237.761 46.4438 238 46.4438C238.22 46.4438 238.396 46.3999 238.528 46.3119C238.662 46.2219 238.729 46.1026 238.729 45.9539ZM243.1 44.8171C242.583 44.6685 242.206 44.4863 241.97 44.2707C241.735 44.053 241.618 43.785 241.618 43.4668C241.618 43.1067 241.761 42.8094 242.048 42.5749C242.337 42.3383 242.712 42.22 243.172 42.22C243.486 42.22 243.766 42.2807 244.011 42.4022C244.258 42.5236 244.448 42.6911 244.582 42.9046C244.718 43.1182 244.786 43.3516 244.786 43.6049H244.18C244.18 43.3286 244.092 43.1119 243.917 42.9549C243.741 42.7958 243.493 42.7162 243.172 42.7162C242.875 42.7162 242.643 42.7822 242.475 42.9141C242.31 43.0439 242.227 43.225 242.227 43.4573C242.227 43.6437 242.306 43.8017 242.463 43.9315C242.622 44.0592 242.891 44.1765 243.27 44.2833C243.651 44.39 243.948 44.5083 244.161 44.6381C244.377 44.7658 244.536 44.9155 244.639 45.0872C244.744 45.2589 244.796 45.4609 244.796 45.6933C244.796 46.0639 244.651 46.3611 244.362 46.5852C244.074 46.8071 243.687 46.918 243.204 46.918C242.89 46.918 242.597 46.8584 242.324 46.739C242.052 46.6176 241.842 46.4522 241.693 46.2429C241.547 46.0335 241.473 45.7959 241.473 45.53H242.079C242.079 45.8063 242.181 46.0251 242.384 46.1863C242.589 46.3454 242.862 46.425 243.204 46.425C243.522 46.425 243.766 46.3601 243.935 46.2303C244.105 46.1005 244.19 45.9236 244.19 45.6996C244.19 45.4756 244.111 45.3028 243.954 45.1814C243.797 45.0579 243.512 44.9365 243.1 44.8171ZM245.327 45.1249C245.327 44.792 245.391 44.4926 245.521 44.2267C245.653 43.9608 245.835 43.7557 246.068 43.6112C246.302 43.4668 246.569 43.3945 246.869 43.3945C247.331 43.3945 247.705 43.5547 247.99 43.875C248.276 44.1953 248.42 44.6214 248.42 45.1531V45.194C248.42 45.5248 248.356 45.822 248.228 46.0858C248.103 46.3475 247.922 46.5517 247.685 46.6982C247.451 46.8448 247.18 46.918 246.875 46.918C246.414 46.918 246.04 46.7579 245.754 46.4376C245.469 46.1172 245.327 45.6933 245.327 45.1657V45.1249ZM245.911 45.194C245.911 45.5708 245.998 45.8733 246.171 46.1015C246.347 46.3297 246.582 46.4438 246.875 46.4438C247.17 46.4438 247.404 46.3287 247.578 46.0984C247.752 45.866 247.839 45.5415 247.839 45.1249C247.839 44.7522 247.75 44.4507 247.572 44.2204C247.396 43.9881 247.162 43.8719 246.869 43.8719C246.582 43.8719 246.35 43.986 246.174 44.2142C245.999 44.4424 245.911 44.769 245.911 45.194ZM249.78 46.8552H249.199V42.0316H249.78V46.8552ZM252.81 46.5192C252.584 46.7851 252.252 46.918 251.815 46.918C251.452 46.918 251.176 46.8134 250.986 46.604C250.797 46.3925 250.702 46.0806 250.7 45.6682V43.4573H251.281V45.6525C251.281 46.1675 251.49 46.425 251.909 46.425C252.353 46.425 252.648 46.2596 252.794 45.9288V43.4573H253.375V46.8552H252.823L252.81 46.5192ZM255.049 42.6346V43.4573H255.684V43.9064H255.049V46.0136C255.049 46.1497 255.077 46.2523 255.134 46.3214C255.19 46.3884 255.287 46.4219 255.423 46.4219C255.49 46.4219 255.582 46.4093 255.699 46.3842V46.8552C255.546 46.8971 255.398 46.918 255.253 46.918C254.994 46.918 254.798 46.8395 254.666 46.6825C254.534 46.5255 254.468 46.3025 254.468 46.0136V43.9064H253.85V43.4573H254.468V42.6346H255.049ZM256.996 46.8552H256.415V43.4573H256.996V46.8552ZM256.368 42.5561C256.368 42.4618 256.396 42.3823 256.453 42.3174C256.512 42.2525 256.597 42.22 256.71 42.22C256.823 42.22 256.909 42.2525 256.968 42.3174C257.027 42.3823 257.056 42.4618 257.056 42.5561C257.056 42.6503 257.027 42.7288 256.968 42.7916C256.909 42.8544 256.823 42.8858 256.71 42.8858C256.597 42.8858 256.512 42.8544 256.453 42.7916C256.396 42.7288 256.368 42.6503 256.368 42.5561ZM257.775 45.1249C257.775 44.792 257.84 44.4926 257.97 44.2267C258.102 43.9608 258.284 43.7557 258.516 43.6112C258.751 43.4668 259.018 43.3945 259.317 43.3945C259.78 43.3945 260.153 43.5547 260.438 43.875C260.725 44.1953 260.868 44.6214 260.868 45.1531V45.194C260.868 45.5248 260.804 45.822 260.677 46.0858C260.551 46.3475 260.37 46.5517 260.133 46.6982C259.899 46.8448 259.629 46.918 259.323 46.918C258.863 46.918 258.489 46.7579 258.202 46.4376C257.917 46.1172 257.775 45.6933 257.775 45.1657V45.1249ZM258.359 45.194C258.359 45.5708 258.446 45.8733 258.62 46.1015C258.796 46.3297 259.03 46.4438 259.323 46.4438C259.618 46.4438 259.853 46.3287 260.027 46.0984C260.2 45.866 260.287 45.5415 260.287 45.1249C260.287 44.7522 260.198 44.4507 260.02 44.2204C259.845 43.9881 259.61 43.8719 259.317 43.8719C259.03 43.8719 258.799 43.986 258.623 44.2142C258.447 44.4424 258.359 44.769 258.359 45.194ZM262.146 43.4573L262.165 43.8844C262.425 43.5578 262.764 43.3945 263.183 43.3945C263.901 43.3945 264.263 43.7996 264.269 44.6099V46.8552H263.688V44.6067C263.686 44.3618 263.63 44.1807 263.519 44.0634C263.41 43.9462 263.239 43.8876 263.007 43.8876C262.818 43.8876 262.653 43.9378 262.511 44.0383C262.368 44.1388 262.257 44.2707 262.178 44.434V46.8552H261.597V43.4573H262.146ZM267.124 45.9539C267.124 45.7969 267.064 45.6755 266.945 45.5897C266.828 45.5017 266.621 45.4264 266.326 45.3635C266.033 45.3007 265.8 45.2254 265.626 45.1374C265.454 45.0495 265.327 44.9448 265.243 44.8234C265.161 44.702 265.12 44.5575 265.12 44.39C265.12 44.1116 265.238 43.8761 265.472 43.6834C265.709 43.4908 266.01 43.3945 266.377 43.3945C266.762 43.3945 267.074 43.494 267.312 43.6929C267.553 43.8918 267.673 44.1461 267.673 44.456H267.089C267.089 44.2969 267.021 44.1597 266.885 44.0446C266.751 43.9294 266.582 43.8719 266.377 43.8719C266.165 43.8719 266 43.9179 265.88 44.01C265.761 44.1022 265.701 44.2225 265.701 44.3712C265.701 44.5115 265.757 44.6172 265.868 44.6884C265.979 44.7595 266.179 44.8276 266.468 44.8925C266.759 44.9574 266.994 45.0349 267.174 45.1249C267.354 45.2149 267.487 45.3238 267.573 45.4515C267.661 45.5771 267.705 45.731 267.705 45.9131C267.705 46.2167 267.583 46.4606 267.341 46.6448C267.098 46.827 266.783 46.918 266.395 46.918C266.123 46.918 265.882 46.8699 265.673 46.7736C265.464 46.6773 265.299 46.5433 265.18 46.3716C265.063 46.1978 265.004 46.0105 265.004 45.8095H265.585C265.596 46.0042 265.673 46.1591 265.818 46.2743C265.964 46.3873 266.157 46.4438 266.395 46.4438C266.615 46.4438 266.791 46.3999 266.923 46.3119C267.057 46.2219 267.124 46.1026 267.124 45.9539Z" fill="white"/>
<path d="M214.106 51.8966V52.6974H213.837V50.6518H214.591C214.815 50.6518 214.99 50.709 215.116 50.8232C215.244 50.9375 215.307 51.0888 215.307 51.277C215.307 51.4756 215.245 51.6287 215.121 51.7364C214.997 51.8432 214.82 51.8966 214.588 51.8966H214.106ZM214.106 51.676H214.591C214.735 51.676 214.846 51.6423 214.923 51.5749C214.999 51.5065 215.038 51.4082 215.038 51.2798C215.038 51.1581 214.999 51.0607 214.923 50.9876C214.846 50.9146 214.74 50.8766 214.606 50.8738H214.106V51.676ZM216.346 51.4105C216.306 51.4039 216.264 51.4007 216.218 51.4007C216.047 51.4007 215.932 51.4732 215.871 51.6184V52.6974H215.611V51.1773H215.864L215.868 51.3529C215.953 51.2171 216.074 51.1492 216.231 51.1492C216.281 51.1492 216.319 51.1557 216.346 51.1689V51.4105ZM217.191 52.7255C216.985 52.7255 216.818 52.6581 216.689 52.5232C216.559 52.3874 216.495 52.2061 216.495 51.9795V51.9317C216.495 51.7809 216.523 51.6465 216.58 51.5285C216.638 51.4096 216.719 51.3168 216.822 51.2503C216.926 51.1829 217.038 51.1492 217.159 51.1492C217.357 51.1492 217.51 51.2143 217.62 51.3445C217.73 51.4747 217.784 51.661 217.784 51.9036V52.0118H216.755C216.758 52.1617 216.802 52.2829 216.885 52.3757C216.969 52.4675 217.076 52.5133 217.206 52.5133C217.297 52.5133 217.375 52.4946 217.439 52.4571C217.502 52.4197 217.558 52.37 217.606 52.3082L217.765 52.4319C217.637 52.6276 217.446 52.7255 217.191 52.7255ZM217.159 51.3627C217.054 51.3627 216.966 51.4011 216.895 51.4779C216.824 51.5538 216.78 51.6606 216.763 51.7982H217.524V51.7786C217.517 51.6465 217.481 51.5444 217.418 51.4723C217.354 51.3993 217.268 51.3627 217.159 51.3627ZM218.214 52.6974V51.3782H217.974V51.1773H218.214V51.0213C218.214 50.8584 218.258 50.7324 218.345 50.6434C218.432 50.5544 218.555 50.51 218.714 50.51C218.774 50.51 218.834 50.5179 218.893 50.5338L218.879 50.7446C218.835 50.7361 218.788 50.7319 218.738 50.7319C218.654 50.7319 218.589 50.7567 218.543 50.8064C218.497 50.8551 218.474 50.9253 218.474 51.0171V51.1773H218.799V51.3782H218.474V52.6974H218.214ZM219.684 52.7255C219.478 52.7255 219.31 52.6581 219.181 52.5232C219.052 52.3874 218.987 52.2061 218.987 51.9795V51.9317C218.987 51.7809 219.015 51.6465 219.073 51.5285C219.131 51.4096 219.211 51.3168 219.314 51.2503C219.418 51.1829 219.531 51.1492 219.651 51.1492C219.849 51.1492 220.003 51.2143 220.112 51.3445C220.222 51.4747 220.277 51.661 220.277 51.9036V52.0118H219.247C219.251 52.1617 219.294 52.2829 219.377 52.3757C219.462 52.4675 219.569 52.5133 219.698 52.5133C219.79 52.5133 219.867 52.4946 219.931 52.4571C219.995 52.4197 220.05 52.37 220.098 52.3082L220.257 52.4319C220.13 52.6276 219.939 52.7255 219.684 52.7255ZM219.651 51.3627C219.547 51.3627 219.459 51.4011 219.387 51.4779C219.316 51.5538 219.272 51.6606 219.255 51.7982H220.017V51.7786C220.009 51.6465 219.974 51.5444 219.91 51.4723C219.846 51.3993 219.76 51.3627 219.651 51.3627ZM221.313 51.4105C221.274 51.4039 221.232 51.4007 221.186 51.4007C221.015 51.4007 220.899 51.4732 220.839 51.6184V52.6974H220.579V51.1773H220.832L220.836 51.3529C220.921 51.2171 221.042 51.1492 221.198 51.1492C221.249 51.1492 221.287 51.1557 221.313 51.1689V51.4105ZM222.288 51.4105C222.249 51.4039 222.207 51.4007 222.161 51.4007C221.99 51.4007 221.874 51.4732 221.814 51.6184V52.6974H221.554V51.1773H221.807L221.811 51.3529C221.896 51.2171 222.017 51.1492 222.173 51.1492C222.224 51.1492 222.262 51.1557 222.288 51.1689V51.4105ZM223.134 52.7255C222.928 52.7255 222.761 52.6581 222.631 52.5232C222.502 52.3874 222.437 52.2061 222.437 51.9795V51.9317C222.437 51.7809 222.466 51.6465 222.523 51.5285C222.581 51.4096 222.662 51.3168 222.765 51.2503C222.869 51.1829 222.981 51.1492 223.102 51.1492C223.3 51.1492 223.453 51.2143 223.563 51.3445C223.672 51.4747 223.727 51.661 223.727 51.9036V52.0118H222.697C222.701 52.1617 222.745 52.2829 222.828 52.3757C222.912 52.4675 223.019 52.5133 223.148 52.5133C223.24 52.5133 223.318 52.4946 223.381 52.4571C223.445 52.4197 223.501 52.37 223.549 52.3082L223.707 52.4319C223.58 52.6276 223.389 52.7255 223.134 52.7255ZM223.102 51.3627C222.997 51.3627 222.909 51.4011 222.838 51.4779C222.767 51.5538 222.723 51.6606 222.706 51.7982H223.467V51.7786C223.46 51.6465 223.424 51.5444 223.36 51.4723C223.297 51.3993 223.211 51.3627 223.102 51.3627ZM223.966 51.9247C223.966 51.6915 224.021 51.5042 224.132 51.3627C224.242 51.2204 224.387 51.1492 224.566 51.1492C224.744 51.1492 224.885 51.2101 224.989 51.3318V50.5395H225.249V52.6974H225.01L224.997 52.5344C224.893 52.6618 224.748 52.7255 224.563 52.7255C224.387 52.7255 224.243 52.6534 224.132 52.5091C224.021 52.3649 223.966 52.1766 223.966 51.9444V51.9247ZM224.226 51.9542C224.226 52.1265 224.261 52.2614 224.333 52.3588C224.404 52.4562 224.502 52.5049 224.628 52.5049C224.792 52.5049 224.913 52.4309 224.989 52.2829V51.5847C224.911 51.4414 224.792 51.3698 224.63 51.3698C224.503 51.3698 224.404 51.4189 224.333 51.5173C224.261 51.6156 224.226 51.7613 224.226 51.9542ZM226.677 51.8966V52.6974H226.408V50.6518H227.162C227.386 50.6518 227.561 50.709 227.688 50.8232C227.815 50.9375 227.879 51.0888 227.879 51.277C227.879 51.4756 227.816 51.6287 227.692 51.7364C227.568 51.8432 227.391 51.8966 227.159 51.8966H226.677ZM226.677 51.676H227.162C227.306 51.676 227.417 51.6423 227.494 51.5749C227.57 51.5065 227.609 51.4082 227.609 51.2798C227.609 51.1581 227.57 51.0607 227.494 50.9876C227.417 50.9146 227.311 50.8766 227.178 50.8738H226.677V51.676ZM228.917 51.4105C228.877 51.4039 228.835 51.4007 228.789 51.4007C228.618 51.4007 228.503 51.4732 228.442 51.6184V52.6974H228.182V51.1773H228.435L228.439 51.3529C228.524 51.2171 228.645 51.1492 228.802 51.1492C228.852 51.1492 228.891 51.1557 228.917 51.1689V51.4105ZM229.06 51.9233C229.06 51.7744 229.089 51.6404 229.147 51.5215C229.206 51.4025 229.288 51.3107 229.392 51.2461C229.497 51.1815 229.616 51.1492 229.75 51.1492C229.957 51.1492 230.124 51.2208 230.251 51.3641C230.38 51.5074 230.444 51.698 230.444 51.9359V51.9542C230.444 52.1022 230.415 52.2352 230.358 52.3532C230.302 52.4703 230.221 52.5616 230.115 52.6271C230.01 52.6927 229.889 52.7255 229.753 52.7255C229.547 52.7255 229.379 52.6538 229.251 52.5105C229.124 52.3672 229.06 52.1776 229.06 51.9415V51.9233ZM229.321 51.9542C229.321 52.1228 229.36 52.2581 229.438 52.3602C229.517 52.4623 229.622 52.5133 229.753 52.5133C229.885 52.5133 229.99 52.4618 230.067 52.3588C230.145 52.2548 230.184 52.1097 230.184 51.9233C230.184 51.7566 230.144 51.6217 230.065 51.5187C229.986 51.4147 229.881 51.3627 229.75 51.3627C229.622 51.3627 229.518 51.4138 229.439 51.5159C229.361 51.618 229.321 51.7641 229.321 51.9542ZM231.252 52.3448L231.628 51.1773H231.894L231.349 52.6974H231.151L230.6 51.1773H230.865L231.252 52.3448ZM232.426 52.6974H232.166V51.1773H232.426V52.6974ZM232.145 50.7741C232.145 50.7319 232.158 50.6963 232.183 50.6673C232.209 50.6383 232.248 50.6237 232.298 50.6237C232.349 50.6237 232.387 50.6383 232.414 50.6673C232.44 50.6963 232.453 50.7319 232.453 50.7741C232.453 50.8162 232.44 50.8513 232.414 50.8794C232.387 50.9075 232.349 50.9216 232.298 50.9216C232.248 50.9216 232.209 50.9075 232.183 50.8794C232.158 50.8513 232.145 50.8162 232.145 50.7741ZM232.78 51.9247C232.78 51.6915 232.836 51.5042 232.946 51.3627C233.057 51.2204 233.201 51.1492 233.38 51.1492C233.558 51.1492 233.699 51.2101 233.803 51.3318V50.5395H234.063V52.6974H233.824L233.811 52.5344C233.708 52.6618 233.563 52.7255 233.377 52.7255C233.201 52.7255 233.058 52.6534 232.946 52.5091C232.836 52.3649 232.78 52.1766 232.78 51.9444V51.9247ZM233.04 51.9542C233.04 52.1265 233.076 52.2614 233.147 52.3588C233.218 52.4562 233.316 52.5049 233.442 52.5049C233.607 52.5049 233.727 52.4309 233.803 52.2829V51.5847C233.725 51.4414 233.606 51.3698 233.445 51.3698C233.317 51.3698 233.218 51.4189 233.147 51.5173C233.076 51.6156 233.04 51.7613 233.04 51.9542ZM235.098 52.7255C234.892 52.7255 234.725 52.6581 234.595 52.5232C234.466 52.3874 234.402 52.2061 234.402 51.9795V51.9317C234.402 51.7809 234.43 51.6465 234.487 51.5285C234.545 51.4096 234.626 51.3168 234.729 51.2503C234.833 51.1829 234.945 51.1492 235.066 51.1492C235.264 51.1492 235.417 51.2143 235.527 51.3445C235.636 51.4747 235.691 51.661 235.691 51.9036V52.0118H234.661C234.665 52.1617 234.709 52.2829 234.792 52.3757C234.876 52.4675 234.983 52.5133 235.112 52.5133C235.204 52.5133 235.282 52.4946 235.346 52.4571C235.409 52.4197 235.465 52.37 235.513 52.3082L235.672 52.4319C235.544 52.6276 235.353 52.7255 235.098 52.7255ZM235.066 51.3627C234.961 51.3627 234.873 51.4011 234.802 51.4779C234.731 51.5538 234.687 51.6606 234.67 51.7982H235.431V51.7786C235.424 51.6465 235.388 51.5444 235.325 51.4723C235.261 51.3993 235.175 51.3627 235.066 51.3627ZM236.728 51.4105C236.689 51.4039 236.646 51.4007 236.6 51.4007C236.43 51.4007 236.314 51.4732 236.253 51.6184V52.6974H235.993V51.1773H236.246L236.25 51.3529C236.336 51.2171 236.456 51.1492 236.613 51.1492C236.663 51.1492 236.702 51.1557 236.728 51.1689V51.4105ZM237.613 51.9233C237.613 51.7744 237.642 51.6404 237.7 51.5215C237.759 51.4025 237.841 51.3107 237.945 51.2461C238.05 51.1815 238.169 51.1492 238.303 51.1492C238.51 51.1492 238.677 51.2208 238.805 51.3641C238.933 51.5074 238.997 51.698 238.997 51.9359V51.9542C238.997 52.1022 238.968 52.2352 238.911 52.3532C238.855 52.4703 238.774 52.5616 238.668 52.6271C238.563 52.6927 238.443 52.7255 238.306 52.7255C238.1 52.7255 237.933 52.6538 237.804 52.5105C237.677 52.3672 237.613 52.1776 237.613 51.9415V51.9233ZM237.874 51.9542C237.874 52.1228 237.913 52.2581 237.991 52.3602C238.07 52.4623 238.175 52.5133 238.306 52.5133C238.438 52.5133 238.543 52.4618 238.62 52.3588C238.698 52.2548 238.737 52.1097 238.737 51.9233C238.737 51.7566 238.697 51.6217 238.618 51.5187C238.539 51.4147 238.434 51.3627 238.303 51.3627C238.175 51.3627 238.071 51.4138 237.992 51.5159C237.914 51.618 237.874 51.7641 237.874 51.9542ZM239.451 52.6974V51.3782H239.211V51.1773H239.451V51.0213C239.451 50.8584 239.494 50.7324 239.581 50.6434C239.669 50.5544 239.792 50.51 239.951 50.51C240.011 50.51 240.07 50.5179 240.129 50.5338L240.115 50.7446C240.071 50.7361 240.024 50.7319 239.975 50.7319C239.891 50.7319 239.825 50.7567 239.78 50.8064C239.734 50.8551 239.711 50.9253 239.711 51.0171V51.1773H240.035V51.3782H239.711V52.6974H239.451ZM242.206 51.794H241.347V52.6974H241.078V50.6518H242.345V50.8738H241.347V51.5735H242.206V51.794ZM242.91 52.6974H242.65V51.1773H242.91V52.6974ZM242.629 50.7741C242.629 50.7319 242.641 50.6963 242.667 50.6673C242.693 50.6383 242.731 50.6237 242.782 50.6237C242.832 50.6237 242.871 50.6383 242.897 50.6673C242.923 50.6963 242.936 50.7319 242.936 50.7741C242.936 50.8162 242.923 50.8513 242.897 50.8794C242.871 50.9075 242.832 50.9216 242.782 50.9216C242.731 50.9216 242.693 50.9075 242.667 50.8794C242.641 50.8513 242.629 50.8162 242.629 50.7741ZM243.573 51.1773L243.581 51.3683C243.697 51.2222 243.849 51.1492 244.036 51.1492C244.358 51.1492 244.52 51.3304 244.522 51.6929V52.6974H244.263V51.6915C244.262 51.5819 244.236 51.5009 244.187 51.4484C244.138 51.396 244.062 51.3698 243.958 51.3698C243.873 51.3698 243.799 51.3922 243.736 51.4372C243.672 51.4821 243.622 51.5412 243.587 51.6142V52.6974H243.327V51.1773H243.573ZM245.853 52.6974C245.838 52.6674 245.826 52.614 245.816 52.5372C245.696 52.6627 245.551 52.7255 245.384 52.7255C245.234 52.7255 245.111 52.6833 245.014 52.599C244.919 52.5138 244.871 52.4061 244.871 52.2759C244.871 52.1176 244.931 51.9949 245.051 51.9078C245.172 51.8198 245.341 51.7758 245.559 51.7758H245.812V51.6564C245.812 51.5655 245.785 51.4934 245.731 51.44C245.676 51.3857 245.596 51.3585 245.49 51.3585C245.398 51.3585 245.32 51.3819 245.257 51.4288C245.194 51.4756 245.163 51.5323 245.163 51.5988H244.902C244.902 51.5229 244.928 51.4498 244.982 51.3796C245.036 51.3084 245.109 51.2522 245.201 51.211C245.294 51.1698 245.395 51.1492 245.506 51.1492C245.681 51.1492 245.818 51.1932 245.918 51.2812C246.017 51.3683 246.068 51.4887 246.072 51.6423V52.3419C246.072 52.4815 246.09 52.5925 246.125 52.6749V52.6974H245.853ZM245.422 52.4993C245.503 52.4993 245.58 52.4782 245.653 52.4361C245.726 52.3939 245.779 52.3391 245.812 52.2717V51.9598H245.608C245.29 51.9598 245.131 52.053 245.131 52.2394C245.131 52.3209 245.158 52.3846 245.212 52.4305C245.267 52.4763 245.336 52.4993 245.422 52.4993ZM246.725 51.1773L246.734 51.3683C246.85 51.2222 247.002 51.1492 247.189 51.1492C247.51 51.1492 247.672 51.3304 247.675 51.6929V52.6974H247.415V51.6915C247.414 51.5819 247.389 51.5009 247.339 51.4484C247.291 51.396 247.214 51.3698 247.11 51.3698C247.026 51.3698 246.952 51.3922 246.888 51.4372C246.825 51.4821 246.775 51.5412 246.739 51.6142V52.6974H246.48V51.1773H246.725ZM248.677 52.5133C248.77 52.5133 248.851 52.4852 248.92 52.4291C248.989 52.3729 249.028 52.3026 249.035 52.2183H249.281C249.276 52.3054 249.246 52.3883 249.191 52.467C249.136 52.5457 249.062 52.6084 248.969 52.6552C248.877 52.7021 248.78 52.7255 248.677 52.7255C248.47 52.7255 248.305 52.6566 248.182 52.519C248.06 52.3803 248 52.1912 248 51.9514V51.9078C248 51.7598 248.027 51.6283 248.081 51.5131C248.135 51.3979 248.213 51.3084 248.314 51.2447C248.416 51.181 248.537 51.1492 248.675 51.1492C248.846 51.1492 248.987 51.2002 249.1 51.3023C249.213 51.4044 249.273 51.5369 249.281 51.6999H249.035C249.028 51.6016 248.99 51.521 248.923 51.4583C248.856 51.3946 248.774 51.3627 248.675 51.3627C248.543 51.3627 248.441 51.4105 248.368 51.506C248.296 51.6006 248.26 51.7378 248.26 51.9177V51.9668C248.26 52.142 248.296 52.2769 248.368 52.3714C248.44 52.466 248.543 52.5133 248.677 52.5133ZM249.855 52.6974H249.596V51.1773H249.855V52.6974ZM249.575 50.7741C249.575 50.7319 249.587 50.6963 249.612 50.6673C249.639 50.6383 249.677 50.6237 249.728 50.6237C249.778 50.6237 249.817 50.6383 249.843 50.6673C249.869 50.6963 249.882 50.7319 249.882 50.7741C249.882 50.8162 249.869 50.8513 249.843 50.8794C249.817 50.9075 249.778 50.9216 249.728 50.9216C249.677 50.9216 249.639 50.9075 249.612 50.8794C249.587 50.8513 249.575 50.8162 249.575 50.7741ZM251.211 52.6974C251.196 52.6674 251.184 52.614 251.175 52.5372C251.054 52.6627 250.91 52.7255 250.742 52.7255C250.592 52.7255 250.469 52.6833 250.373 52.599C250.277 52.5138 250.229 52.4061 250.229 52.2759C250.229 52.1176 250.289 51.9949 250.409 51.9078C250.53 51.8198 250.699 51.7758 250.918 51.7758H251.17V51.6564C251.17 51.5655 251.143 51.4934 251.089 51.44C251.035 51.3857 250.955 51.3585 250.849 51.3585C250.756 51.3585 250.678 51.3819 250.616 51.4288C250.553 51.4756 250.521 51.5323 250.521 51.5988H250.26C250.26 51.5229 250.287 51.4498 250.34 51.3796C250.395 51.3084 250.468 51.2522 250.559 51.211C250.652 51.1698 250.754 51.1492 250.864 51.1492C251.039 51.1492 251.177 51.1932 251.276 51.2812C251.375 51.3683 251.427 51.4887 251.43 51.6423V52.3419C251.43 52.4815 251.448 52.5925 251.484 52.6749V52.6974H251.211ZM250.78 52.4993C250.861 52.4993 250.939 52.4782 251.012 52.4361C251.085 52.3939 251.138 52.3391 251.17 52.2717V51.9598H250.967C250.648 51.9598 250.489 52.053 250.489 52.2394C250.489 52.3209 250.516 52.3846 250.571 52.4305C250.625 52.4763 250.695 52.4993 250.78 52.4993ZM252.12 52.6974H251.86V50.5395H252.12V52.6974ZM254.421 52.1635H253.564L253.372 52.6974H253.094L253.875 50.6518H254.111L254.893 52.6974H254.617L254.421 52.1635ZM253.646 51.9415H254.341L253.993 50.9848L253.646 51.9415ZM256.412 51.9542C256.412 52.1855 256.359 52.3719 256.253 52.5133C256.148 52.6548 256.004 52.7255 255.824 52.7255C255.639 52.7255 255.494 52.6669 255.388 52.5499V53.2818H255.128V51.1773H255.366L255.378 51.3459C255.484 51.2147 255.631 51.1492 255.819 51.1492C256.002 51.1492 256.146 51.218 256.252 51.3557C256.359 51.4934 256.412 51.6849 256.412 51.9303V51.9542ZM256.152 51.9247C256.152 51.7533 256.116 51.618 256.043 51.5187C255.97 51.4194 255.869 51.3698 255.742 51.3698C255.585 51.3698 255.467 51.4395 255.388 51.5791V52.3054C255.466 52.444 255.585 52.5133 255.745 52.5133C255.869 52.5133 255.968 52.4642 256.041 52.3658C256.115 52.2666 256.152 52.1195 256.152 51.9247ZM258.028 51.9542C258.028 52.1855 257.975 52.3719 257.869 52.5133C257.763 52.6548 257.62 52.7255 257.439 52.7255C257.255 52.7255 257.109 52.6669 257.004 52.5499V53.2818H256.744V51.1773H256.981L256.994 51.3459C257.1 51.2147 257.247 51.1492 257.435 51.1492C257.618 51.1492 257.762 51.218 257.868 51.3557C257.974 51.4934 258.028 51.6849 258.028 51.9303V51.9542ZM257.768 51.9247C257.768 51.7533 257.731 51.618 257.658 51.5187C257.585 51.4194 257.485 51.3698 257.358 51.3698C257.2 51.3698 257.082 51.4395 257.004 51.5791V52.3054C257.081 52.444 257.2 52.5133 257.36 52.5133C257.485 52.5133 257.584 52.4642 257.657 52.3658C257.731 52.2666 257.768 52.1195 257.768 51.9247ZM258.642 52.6974H258.382V50.5395H258.642V52.6974ZM259.341 52.6974H259.082V51.1773H259.341V52.6974ZM259.06 50.7741C259.06 50.7319 259.073 50.6963 259.098 50.6673C259.125 50.6383 259.163 50.6237 259.214 50.6237C259.264 50.6237 259.303 50.6383 259.329 50.6673C259.355 50.6963 259.368 50.7319 259.368 50.7741C259.368 50.8162 259.355 50.8513 259.329 50.8794C259.303 50.9075 259.264 50.9216 259.214 50.9216C259.163 50.9216 259.125 50.9075 259.098 50.8794C259.073 50.8513 259.06 50.8162 259.06 50.7741ZM260.368 52.5133C260.461 52.5133 260.542 52.4852 260.611 52.4291C260.681 52.3729 260.719 52.3026 260.727 52.2183H260.973C260.968 52.3054 260.938 52.3883 260.883 52.467C260.827 52.5457 260.753 52.6084 260.661 52.6552C260.569 52.7021 260.471 52.7255 260.368 52.7255C260.161 52.7255 259.997 52.6566 259.874 52.519C259.752 52.3803 259.691 52.1912 259.691 51.9514V51.9078C259.691 51.7598 259.718 51.6283 259.773 51.5131C259.827 51.3979 259.905 51.3084 260.006 51.2447C260.108 51.181 260.228 51.1492 260.367 51.1492C260.537 51.1492 260.679 51.2002 260.791 51.3023C260.905 51.4044 260.965 51.5369 260.973 51.6999H260.727C260.719 51.6016 260.682 51.521 260.614 51.4583C260.548 51.3946 260.465 51.3627 260.367 51.3627C260.235 51.3627 260.132 51.4105 260.059 51.506C259.987 51.6006 259.951 51.7378 259.951 51.9177V51.9668C259.951 52.142 259.987 52.2769 260.059 52.3714C260.131 52.466 260.234 52.5133 260.368 52.5133ZM262.203 52.6974C262.188 52.6674 262.176 52.614 262.167 52.5372C262.046 52.6627 261.902 52.7255 261.734 52.7255C261.584 52.7255 261.461 52.6833 261.364 52.599C261.269 52.5138 261.221 52.4061 261.221 52.2759C261.221 52.1176 261.281 51.9949 261.401 51.9078C261.522 51.8198 261.691 51.7758 261.91 51.7758H262.162V51.6564C262.162 51.5655 262.135 51.4934 262.081 51.44C262.027 51.3857 261.947 51.3585 261.841 51.3585C261.748 51.3585 261.67 51.3819 261.608 51.4288C261.545 51.4756 261.513 51.5323 261.513 51.5988H261.252C261.252 51.5229 261.279 51.4498 261.332 51.3796C261.386 51.3084 261.46 51.2522 261.551 51.211C261.644 51.1698 261.746 51.1492 261.856 51.1492C262.031 51.1492 262.169 51.1932 262.268 51.2812C262.367 51.3683 262.419 51.4887 262.422 51.6423V52.3419C262.422 52.4815 262.44 52.5925 262.476 52.6749V52.6974H262.203ZM261.772 52.4993C261.853 52.4993 261.931 52.4782 262.004 52.4361C262.077 52.3939 262.13 52.3391 262.162 52.2717V51.9598H261.959C261.64 51.9598 261.481 52.053 261.481 52.2394C261.481 52.3209 261.508 52.3846 261.563 52.4305C261.617 52.4763 261.687 52.4993 261.772 52.4993ZM263.182 50.8092V51.1773H263.466V51.3782H263.182V52.3209C263.182 52.3818 263.195 52.4276 263.22 52.4586C263.246 52.4885 263.289 52.5035 263.35 52.5035C263.38 52.5035 263.421 52.4979 263.473 52.4867V52.6974C263.405 52.7161 263.338 52.7255 263.274 52.7255C263.158 52.7255 263.07 52.6904 263.011 52.6201C262.952 52.5499 262.923 52.4501 262.923 52.3209V51.3782H262.646V51.1773H262.923V50.8092H263.182ZM264.053 52.6974H263.794V51.1773H264.053V52.6974ZM263.772 50.7741C263.772 50.7319 263.785 50.6963 263.81 50.6673C263.837 50.6383 263.875 50.6237 263.926 50.6237C263.976 50.6237 264.015 50.6383 264.041 50.6673C264.067 50.6963 264.08 50.7319 264.08 50.7741C264.08 50.8162 264.067 50.8513 264.041 50.8794C264.015 50.9075 263.976 50.9216 263.926 50.9216C263.875 50.9216 263.837 50.9075 263.81 50.8794C263.785 50.8513 263.772 50.8162 263.772 50.7741ZM264.402 51.9233C264.402 51.7744 264.431 51.6404 264.489 51.5215C264.548 51.4025 264.629 51.3107 264.733 51.2461C264.838 51.1815 264.958 51.1492 265.092 51.1492C265.299 51.1492 265.466 51.2208 265.593 51.3641C265.722 51.5074 265.786 51.698 265.786 51.9359V51.9542C265.786 52.1022 265.757 52.2352 265.7 52.3532C265.644 52.4703 265.563 52.5616 265.457 52.6271C265.352 52.6927 265.231 52.7255 265.095 52.7255C264.888 52.7255 264.721 52.6538 264.593 52.5105C264.466 52.3672 264.402 52.1776 264.402 51.9415V51.9233ZM264.663 51.9542C264.663 52.1228 264.702 52.2581 264.78 52.3602C264.858 52.4623 264.963 52.5133 265.095 52.5133C265.227 52.5133 265.331 52.4618 265.409 52.3588C265.487 52.2548 265.526 52.1097 265.526 51.9233C265.526 51.7566 265.486 51.6217 265.406 51.5187C265.328 51.4147 265.223 51.3627 265.092 51.3627C264.963 51.3627 264.86 51.4138 264.781 51.5159C264.703 51.618 264.663 51.7641 264.663 51.9542ZM266.358 51.1773L266.366 51.3683C266.482 51.2222 266.634 51.1492 266.821 51.1492C267.142 51.1492 267.304 51.3304 267.307 51.6929V52.6974H267.047V51.6915C267.046 51.5819 267.021 51.5009 266.971 51.4484C266.923 51.396 266.846 51.3698 266.742 51.3698C266.658 51.3698 266.584 51.3922 266.52 51.4372C266.457 51.4821 266.407 51.5412 266.372 51.6142V52.6974H266.112V51.1773H266.358ZM268.584 52.2942C268.584 52.2239 268.558 52.1696 268.504 52.1312C268.452 52.0919 268.359 52.0582 268.227 52.0301C268.096 52.002 267.992 51.9682 267.914 51.9289C267.837 51.8896 267.78 51.8427 267.743 51.7884C267.706 51.7341 267.688 51.6695 267.688 51.5945C267.688 51.47 267.74 51.3646 267.845 51.2784C267.951 51.1923 268.086 51.1492 268.25 51.1492C268.422 51.1492 268.562 51.1937 268.669 51.2826C268.776 51.3716 268.83 51.4854 268.83 51.624H268.569C268.569 51.5529 268.538 51.4915 268.478 51.44C268.418 51.3885 268.342 51.3627 268.25 51.3627C268.155 51.3627 268.081 51.3833 268.028 51.4245C267.975 51.4658 267.948 51.5196 267.948 51.5861C267.948 51.6489 267.973 51.6962 268.022 51.728C268.072 51.7598 268.161 51.7903 268.291 51.8193C268.421 51.8484 268.526 51.883 268.607 51.9233C268.687 51.9636 268.747 52.0123 268.785 52.0694C268.825 52.1256 268.844 52.1944 268.844 52.2759C268.844 52.4117 268.79 52.5208 268.681 52.6033C268.573 52.6847 268.432 52.7255 268.258 52.7255C268.137 52.7255 268.029 52.7039 267.935 52.6609C267.842 52.6178 267.768 52.5578 267.715 52.481C267.662 52.4033 267.636 52.3195 267.636 52.2296H267.896C267.901 52.3167 267.935 52.386 268 52.4375C268.065 52.4881 268.152 52.5133 268.258 52.5133C268.357 52.5133 268.435 52.4937 268.494 52.4543C268.554 52.4141 268.584 52.3607 268.584 52.2942Z" fill="white"/>
<path d="M368.859 23.5555H372.068C372.187 23.672 372.255 23.8321 372.255 23.9964V37.6347C372.255 37.8197 372.025 37.9133 371.892 37.7823L369.045 34.9919C368.927 34.8754 368.859 34.7174 368.859 34.5511V23.5555Z" fill="white"/>
<path d="M377.349 23.5555V30.3924V34.5511C377.349 34.7174 377.281 34.8754 377.162 34.9919L374.316 37.7803C374.182 37.9113 373.957 37.8197 373.953 37.6368V23.9922C373.955 23.83 374.021 23.6741 374.138 23.5597L374.14 23.5576H377.349V23.5555Z" fill="white"/>
<path d="M382.656 31.4309L379.896 28.3119H379.559C379.504 28.3119 379.451 28.3327 379.41 28.3722C379.41 28.3722 379.41 28.3722 379.408 28.3743L377.349 30.3912L383.954 36.8621C383.954 36.8621 383.957 36.8642 383.959 36.8642C384.078 36.9786 384.239 37.0431 384.407 37.0431H387.875C388.064 37.0431 388.159 36.8185 388.025 36.6874L382.656 31.4309Z" fill="white"/>
<path d="M382.444 23.5267V28.5171L385.653 28.4922C385.772 28.3757 385.84 28.2156 385.84 28.0514V23.9925C385.84 23.8262 385.772 23.6681 385.653 23.5517L382.444 23.5267Z" fill="white"/>
<path d="M369.044 20.5941C368.925 20.4777 368.762 20.4111 368.594 20.4111H360.667C360.478 20.4111 360.382 20.6357 360.516 20.7667L363.362 23.5551C363.481 23.6715 363.645 23.7381 363.812 23.7381H368.857H371.829C372.062 23.7381 372.253 23.9252 372.253 24.1539V23.9959C372.253 23.8296 372.185 23.6715 372.066 23.5551L369.044 20.5941Z" fill="white"/>
<path d="M377.162 20.594C377.281 20.4775 377.445 20.411 377.612 20.411H382.178C382.347 20.411 382.509 20.4775 382.628 20.594L385.65 23.555C385.769 23.6714 385.837 23.8315 385.837 23.9958V24.1538C385.837 23.9251 385.646 23.7379 385.412 23.7379H382.441H377.349H374.378C374.144 23.7379 373.953 23.9251 373.953 24.1538V23.9958C373.953 23.8294 374.021 23.6714 374.14 23.555L377.162 20.594Z" fill="white"/>
<path d="M385.84 27.8945C385.84 28.1233 385.649 28.3104 385.416 28.3104H382.869H379.73C379.634 28.3104 379.588 28.4227 379.655 28.4871L382.657 31.4294L385.654 28.4934C385.772 28.3769 385.84 28.2168 385.84 28.0526V27.8945Z" fill="white"/>
<path d="M394.738 24.7895H400.706C400.751 24.7895 400.787 24.8043 400.817 24.8337C400.846 24.8558 400.861 24.8853 400.861 24.9222V25.7843C400.861 25.8211 400.846 25.8543 400.817 25.8837C400.787 25.9132 400.751 25.9279 400.706 25.9279H398.407V32.3606C398.407 32.4122 398.393 32.4527 398.363 32.4822C398.341 32.5116 398.301 32.5264 398.242 32.5264H397.214C397.162 32.5264 397.118 32.5116 397.081 32.4822C397.052 32.4527 397.037 32.4122 397.037 32.3606V25.9279H394.738C394.694 25.9279 394.657 25.9132 394.627 25.8837C394.605 25.8543 394.594 25.8211 394.594 25.7843V24.9222C394.594 24.8853 394.605 24.8558 394.627 24.8337C394.657 24.8043 394.694 24.7895 394.738 24.7895ZM401.283 32.5264C401.224 32.5264 401.184 32.5116 401.162 32.4822C401.139 32.4527 401.128 32.4158 401.128 32.3716V26.9558C401.128 26.919 401.139 26.8858 401.162 26.8564C401.184 26.8269 401.224 26.8122 401.283 26.8122H402.267C402.318 26.8122 402.359 26.8269 402.388 26.8564C402.418 26.8858 402.433 26.919 402.433 26.9558V27.9174C402.595 27.5048 402.834 27.199 403.151 27.0001C403.468 26.8011 403.799 26.7016 404.146 26.7016C404.197 26.7016 404.249 26.709 404.301 26.7237C404.352 26.7311 404.404 26.7385 404.455 26.7458C404.507 26.7532 404.544 26.7679 404.566 26.7901C404.595 26.8122 404.606 26.8453 404.599 26.8895L404.555 27.7958C404.547 27.8548 404.529 27.8953 404.499 27.9174C404.47 27.9322 404.437 27.9358 404.4 27.9285C404.312 27.9211 404.227 27.9137 404.146 27.9064C404.072 27.8916 404.002 27.8843 403.936 27.8843C403.508 27.8843 403.151 28.039 402.864 28.3485C402.576 28.6506 402.433 29.0669 402.433 29.5974V32.3716C402.433 32.4158 402.418 32.4527 402.388 32.4822C402.359 32.5116 402.318 32.5264 402.267 32.5264H401.283ZM408.991 30.3711V26.9669C408.991 26.9227 409.002 26.8858 409.024 26.8564C409.054 26.8269 409.094 26.8122 409.146 26.8122H410.141C410.192 26.8122 410.229 26.8269 410.251 26.8564C410.281 26.8858 410.295 26.9227 410.295 26.9669V32.3716C410.295 32.4158 410.281 32.4527 410.251 32.4822C410.229 32.5116 410.192 32.5264 410.141 32.5264H409.146C409.094 32.5264 409.054 32.5116 409.024 32.4822C409.002 32.4527 408.991 32.4158 408.991 32.3716V31.6974C408.829 31.9922 408.608 32.2206 408.328 32.3827C408.055 32.5374 407.75 32.6148 407.411 32.6148C406.873 32.6148 406.427 32.4379 406.073 32.0843C405.72 31.7306 405.543 31.2332 405.543 30.5922V26.9669C405.543 26.9227 405.557 26.8858 405.587 26.8564C405.616 26.8269 405.657 26.8122 405.709 26.8122H406.692C406.751 26.8122 406.792 26.8269 406.814 26.8564C406.836 26.8858 406.847 26.9227 406.847 26.9669V30.3711C406.847 30.769 406.946 31.0711 407.145 31.2774C407.344 31.4837 407.599 31.5869 407.908 31.5869C408.217 31.5869 408.475 31.4837 408.682 31.2774C408.888 31.0711 408.991 30.769 408.991 30.3711ZM413.636 26.7237C414.13 26.7237 414.572 26.8379 414.962 27.0664C415.36 27.2948 415.662 27.5785 415.869 27.9174C415.891 27.9469 415.898 27.9837 415.891 28.0279C415.883 28.0648 415.861 28.0979 415.824 28.1274L415.205 28.5585C415.176 28.5806 415.143 28.5879 415.106 28.5806C415.076 28.5732 415.047 28.5511 415.018 28.5143C414.826 28.2343 414.616 28.0243 414.388 27.8843C414.166 27.7443 413.927 27.6743 413.669 27.6743C413.441 27.6743 413.245 27.7332 413.083 27.8511C412.929 27.9616 412.851 28.1274 412.851 28.3485C412.851 28.5843 412.969 28.7574 413.205 28.8679C413.441 28.9785 413.717 29.0779 414.034 29.1664C414.122 29.1885 414.211 29.2143 414.299 29.2437C414.395 29.2658 414.487 29.2916 414.575 29.3211C414.664 29.3506 414.752 29.3837 414.841 29.4206C414.936 29.4501 415.025 29.4869 415.106 29.5311C415.187 29.5679 415.264 29.6122 415.338 29.6637C415.419 29.7079 415.493 29.7595 415.559 29.8185C415.625 29.8774 415.684 29.9437 415.736 30.0174C415.788 30.0837 415.832 30.1611 415.869 30.2495C415.905 30.3306 415.935 30.4227 415.957 30.5258C415.979 30.6216 415.99 30.7285 415.99 30.8464C415.99 31.0085 415.972 31.1595 415.935 31.2995C415.898 31.4395 415.843 31.5685 415.769 31.6864C415.695 31.8043 415.603 31.9148 415.493 32.0179C415.39 32.1137 415.272 32.1985 415.139 32.2722C415.014 32.3458 414.874 32.4085 414.719 32.4601C414.564 32.5116 414.399 32.5485 414.222 32.5706C414.052 32.6001 413.872 32.6148 413.68 32.6148C413.091 32.6148 412.601 32.5006 412.21 32.2722C411.827 32.0364 411.543 31.7564 411.359 31.4322C411.337 31.3953 411.326 31.3585 411.326 31.3216C411.326 31.2848 411.348 31.2516 411.392 31.2222L411.978 30.769C412.008 30.7395 412.041 30.7285 412.078 30.7358C412.114 30.7358 412.144 30.7506 412.166 30.7801C412.358 31.0969 412.582 31.3253 412.84 31.4653C413.098 31.6053 413.367 31.6753 413.647 31.6753C413.964 31.6753 414.218 31.6127 414.41 31.4874C414.609 31.3548 414.708 31.1706 414.708 30.9348C414.708 30.699 414.583 30.5295 414.332 30.4264C414.089 30.3232 413.802 30.2311 413.47 30.1501C413.374 30.1206 413.275 30.0948 413.172 30.0727C413.069 30.0432 412.965 30.0137 412.862 29.9843C412.766 29.9474 412.671 29.9106 412.575 29.8737C412.486 29.8295 412.398 29.7853 412.31 29.7411C412.221 29.6895 412.136 29.6343 412.055 29.5753C411.982 29.509 411.915 29.439 411.856 29.3653C411.798 29.2916 411.746 29.2106 411.702 29.1222C411.658 29.0264 411.621 28.9232 411.591 28.8127C411.569 28.6948 411.558 28.5695 411.558 28.4369C411.558 27.9064 411.753 27.4901 412.144 27.1879C412.542 26.8785 413.039 26.7237 413.636 26.7237ZM419.327 32.6148C418.812 32.6148 418.414 32.4822 418.134 32.2169C417.854 31.9443 417.714 31.5869 417.714 31.1448V27.829H416.542C416.505 27.829 416.476 27.8179 416.454 27.7958C416.432 27.7737 416.421 27.7406 416.421 27.6964V26.9337C416.421 26.8895 416.432 26.8601 416.454 26.8453C416.476 26.8232 416.505 26.8122 416.542 26.8122H417.714V25.4085C417.714 25.3643 417.725 25.3274 417.747 25.2979C417.769 25.2685 417.806 25.2537 417.857 25.2537H418.852C418.904 25.2537 418.941 25.2685 418.963 25.2979C418.992 25.3274 419.007 25.3643 419.007 25.4085V26.8122H420.411C420.447 26.8122 420.477 26.8232 420.499 26.8453C420.528 26.8601 420.543 26.8895 420.543 26.9337V27.6964C420.543 27.7406 420.528 27.7737 420.499 27.7958C420.477 27.8179 420.447 27.829 420.411 27.829H419.007V30.8795C419.007 31.0932 419.066 31.259 419.184 31.3769C419.309 31.4948 419.478 31.5537 419.692 31.5537C419.803 31.5537 419.909 31.5427 420.013 31.5206C420.123 31.4985 420.241 31.469 420.366 31.4322C420.411 31.4174 420.444 31.4211 420.466 31.4432C420.495 31.4579 420.51 31.4801 420.51 31.5095L420.543 32.2722C420.543 32.3016 420.539 32.3274 420.532 32.3495C420.525 32.3716 420.506 32.3901 420.477 32.4048C420.344 32.4711 420.175 32.5227 419.968 32.5595C419.762 32.5964 419.548 32.6148 419.327 32.6148ZM421.826 32.5264C421.775 32.5264 421.73 32.5116 421.694 32.4822C421.664 32.4527 421.649 32.4122 421.649 32.3606V24.9553C421.649 24.9037 421.664 24.8632 421.694 24.8337C421.73 24.8043 421.775 24.7895 421.826 24.7895H424.413C425.201 24.7895 425.838 24.9922 426.325 25.3974C426.818 25.7953 427.065 26.359 427.065 27.0885C427.065 27.5748 426.951 27.9948 426.723 28.3485C426.494 28.6948 426.181 28.9564 425.783 29.1332L427.341 32.3164C427.371 32.3679 427.371 32.4158 427.341 32.4601C427.319 32.5043 427.283 32.5264 427.231 32.5264H426.093C426.026 32.5264 425.975 32.5153 425.938 32.4932C425.901 32.4637 425.868 32.4158 425.838 32.3495L424.446 29.3985H423.02V32.3606C423.02 32.4122 423.005 32.4527 422.976 32.4822C422.954 32.5116 422.913 32.5264 422.854 32.5264H421.826ZM424.379 28.3153C424.748 28.3153 425.057 28.2195 425.308 28.0279C425.558 27.829 425.684 27.5306 425.684 27.1327C425.684 26.7348 425.558 26.4401 425.308 26.2485C425.057 26.0495 424.748 25.9501 424.379 25.9501H423.02V28.3153H424.379ZM429.84 32.6148C429.302 32.6148 428.871 32.4674 428.547 32.1727C428.23 31.8779 428.072 31.5095 428.072 31.0674C428.072 30.5443 428.264 30.1353 428.647 29.8406C429.03 29.5385 429.56 29.3616 430.238 29.3101L431.587 29.2106V28.8348C431.587 28.4737 431.487 28.1974 431.288 28.0058C431.097 27.8143 430.842 27.7185 430.526 27.7185C430.26 27.7185 430.017 27.7774 429.796 27.8953C429.582 28.0058 429.384 28.2158 429.199 28.5253C429.17 28.5548 429.137 28.5732 429.1 28.5806C429.063 28.5806 429.019 28.5695 428.967 28.5474L428.282 28.2269C428.238 28.2048 428.212 28.1753 428.205 28.1385C428.197 28.0943 428.205 28.0501 428.227 28.0058C428.433 27.6448 428.735 27.3427 429.133 27.0995C429.531 26.849 430.036 26.7237 430.647 26.7237C431.31 26.7237 431.845 26.9116 432.25 27.2874C432.662 27.6632 432.869 28.1864 432.869 28.8569V32.3716C432.869 32.4232 432.854 32.4637 432.825 32.4932C432.802 32.5153 432.766 32.5264 432.714 32.5264H431.719C431.675 32.5264 431.642 32.5153 431.62 32.4932C431.598 32.4637 431.587 32.4232 431.587 32.3716V31.6974C431.417 31.9848 431.178 32.2095 430.868 32.3716C430.566 32.5337 430.224 32.6148 429.84 32.6148ZM429.321 30.9458C429.321 31.2111 429.413 31.4064 429.597 31.5316C429.781 31.6495 430.006 31.7085 430.271 31.7085C430.61 31.7085 430.912 31.6016 431.178 31.3879C431.45 31.1743 431.587 30.8795 431.587 30.5037V30.0285L430.526 30.1279C430.128 30.1574 429.826 30.2385 429.619 30.3711C429.42 30.5037 429.321 30.6953 429.321 30.9458ZM436.437 32.6148C436.246 32.6148 436.062 32.5927 435.885 32.5485C435.715 32.5043 435.553 32.4416 435.398 32.3606C435.244 32.2795 435.1 32.1764 434.967 32.0511C434.842 31.9258 434.724 31.7822 434.614 31.6201C434.511 31.4579 434.422 31.2774 434.348 31.0785C434.275 30.8795 434.22 30.6622 434.183 30.4264C434.146 30.1906 434.127 29.9364 434.127 29.6637C434.127 29.3985 434.146 29.1479 434.183 28.9122C434.22 28.6764 434.275 28.459 434.348 28.2601C434.422 28.0611 434.511 27.8806 434.614 27.7185C434.724 27.5564 434.842 27.4127 434.967 27.2874C435.1 27.1622 435.244 27.059 435.398 26.9779C435.553 26.8969 435.715 26.8343 435.885 26.7901C436.062 26.7458 436.246 26.7237 436.437 26.7237C436.821 26.7237 437.152 26.8158 437.432 27.0001C437.72 27.1769 437.944 27.4348 438.106 27.7737V24.9443C438.106 24.9001 438.121 24.8632 438.151 24.8337C438.18 24.8043 438.221 24.7895 438.272 24.7895H439.256C439.307 24.7895 439.348 24.8043 439.377 24.8337C439.407 24.8632 439.422 24.9001 439.422 24.9443V32.3716C439.422 32.4158 439.407 32.4527 439.377 32.4822C439.348 32.5116 439.307 32.5264 439.256 32.5264H438.272C438.221 32.5264 438.18 32.5116 438.151 32.4822C438.121 32.4527 438.106 32.4158 438.106 32.3716V31.5537C437.944 31.8927 437.72 32.1543 437.432 32.3385C437.152 32.5227 436.821 32.6148 436.437 32.6148ZM436.78 31.5648C437.163 31.5648 437.48 31.4064 437.731 31.0895C437.981 30.7727 438.106 30.2974 438.106 29.6637C438.106 29.0227 437.981 28.5474 437.731 28.2379C437.48 27.9211 437.163 27.7627 436.78 27.7627C436.397 27.7627 436.076 27.9211 435.818 28.2379C435.561 28.5474 435.432 29.0227 435.432 29.6637C435.432 30.2974 435.561 30.7727 435.818 31.0895C436.076 31.4064 436.397 31.5648 436.78 31.5648ZM442.27 25.8616C442.064 25.8616 441.873 25.7879 441.696 25.6406C441.519 25.4932 441.43 25.3016 441.43 25.0658C441.43 24.8301 441.519 24.6385 441.696 24.4911C441.873 24.3437 442.064 24.2701 442.27 24.2701C442.477 24.2701 442.665 24.3437 442.834 24.4911C443.011 24.6385 443.099 24.8301 443.099 25.0658C443.099 25.3016 443.011 25.4932 442.834 25.6406C442.665 25.7879 442.477 25.8616 442.27 25.8616ZM443.254 32.6148C442.724 32.6148 442.318 32.4822 442.038 32.2169C441.758 31.9443 441.618 31.5869 441.618 31.1448V27.829H440.546C440.509 27.829 440.476 27.8179 440.447 27.7958C440.417 27.7664 440.403 27.7332 440.403 27.6964V26.9337C440.403 26.8969 440.414 26.8674 440.436 26.8453C440.465 26.8232 440.502 26.8122 440.546 26.8122H442.801C442.838 26.8122 442.867 26.8232 442.889 26.8453C442.919 26.8674 442.934 26.8969 442.934 26.9337V30.8795C442.934 31.0932 442.989 31.259 443.099 31.3769C443.217 31.4948 443.379 31.5537 443.586 31.5537C443.674 31.5537 443.766 31.5464 443.862 31.5316C443.958 31.5095 444.065 31.4837 444.183 31.4543C444.227 31.4395 444.256 31.4432 444.271 31.4653C444.293 31.4874 444.308 31.5132 444.315 31.5427L444.359 32.3053C444.359 32.3348 444.352 32.3606 444.337 32.3827C444.33 32.4048 444.312 32.4232 444.282 32.4379C444.179 32.4895 444.032 32.5301 443.84 32.5595C443.656 32.5964 443.46 32.6148 443.254 32.6148ZM448.679 30.3711V26.9669C448.679 26.9227 448.69 26.8858 448.712 26.8564C448.742 26.8269 448.782 26.8122 448.834 26.8122H449.829C449.88 26.8122 449.917 26.8269 449.939 26.8564C449.969 26.8858 449.983 26.9227 449.983 26.9669V32.3716C449.983 32.4158 449.969 32.4527 449.939 32.4822C449.917 32.5116 449.88 32.5264 449.829 32.5264H448.834C448.782 32.5264 448.742 32.5116 448.712 32.4822C448.69 32.4527 448.679 32.4158 448.679 32.3716V31.6974C448.517 31.9922 448.296 32.2206 448.016 32.3827C447.743 32.5374 447.438 32.6148 447.099 32.6148C446.561 32.6148 446.115 32.4379 445.761 32.0843C445.408 31.7306 445.231 31.2332 445.231 30.5922V26.9669C445.231 26.9227 445.245 26.8858 445.275 26.8564C445.304 26.8269 445.345 26.8122 445.397 26.8122H446.38C446.439 26.8122 446.48 26.8269 446.502 26.8564C446.524 26.8858 446.535 26.9227 446.535 26.9669V30.3711C446.535 30.769 446.634 31.0711 446.833 31.2774C447.032 31.4837 447.287 31.5869 447.596 31.5869C447.905 31.5869 448.163 31.4837 448.37 31.2774C448.576 31.0711 448.679 30.769 448.679 30.3711ZM453.324 26.7237C453.818 26.7237 454.26 26.8379 454.65 27.0664C455.048 27.2948 455.35 27.5785 455.557 27.9174C455.579 27.9469 455.586 27.9837 455.579 28.0279C455.571 28.0648 455.549 28.0979 455.512 28.1274L454.893 28.5585C454.864 28.5806 454.831 28.5879 454.794 28.5806C454.764 28.5732 454.735 28.5511 454.706 28.5143C454.514 28.2343 454.304 28.0243 454.076 27.8843C453.854 27.7443 453.615 27.6743 453.357 27.6743C453.129 27.6743 452.933 27.7332 452.771 27.8511C452.617 27.9616 452.539 28.1274 452.539 28.3485C452.539 28.5843 452.657 28.7574 452.893 28.8679C453.129 28.9785 453.405 29.0779 453.722 29.1664C453.81 29.1885 453.899 29.2143 453.987 29.2437C454.083 29.2658 454.175 29.2916 454.263 29.3211C454.352 29.3506 454.44 29.3837 454.529 29.4206C454.624 29.4501 454.713 29.4869 454.794 29.5311C454.875 29.5679 454.952 29.6122 455.026 29.6637C455.107 29.7079 455.181 29.7595 455.247 29.8185C455.313 29.8774 455.372 29.9437 455.424 30.0174C455.476 30.0837 455.52 30.1611 455.557 30.2495C455.593 30.3306 455.623 30.4227 455.645 30.5258C455.667 30.6216 455.678 30.7285 455.678 30.8464C455.678 31.0085 455.66 31.1595 455.623 31.2995C455.586 31.4395 455.531 31.5685 455.457 31.6864C455.383 31.8043 455.291 31.9148 455.181 32.0179C455.078 32.1137 454.96 32.1985 454.827 32.2722C454.702 32.3458 454.562 32.4085 454.407 32.4601C454.252 32.5116 454.087 32.5485 453.91 32.5706C453.74 32.6001 453.56 32.6148 453.368 32.6148C452.779 32.6148 452.289 32.5006 451.898 32.2722C451.515 32.0364 451.231 31.7564 451.047 31.4322C451.025 31.3953 451.014 31.3585 451.014 31.3216C451.014 31.2848 451.036 31.2516 451.08 31.2222L451.666 30.769C451.696 30.7395 451.729 30.7285 451.766 30.7358C451.802 30.7358 451.832 30.7506 451.854 30.7801C452.046 31.0969 452.27 31.3253 452.528 31.4653C452.786 31.6053 453.055 31.6753 453.335 31.6753C453.652 31.6753 453.906 31.6127 454.098 31.4874C454.297 31.3548 454.396 31.1706 454.396 30.9348C454.396 30.699 454.271 30.5295 454.02 30.4264C453.777 30.3232 453.49 30.2311 453.158 30.1501C453.062 30.1206 452.963 30.0948 452.86 30.0727C452.757 30.0432 452.653 30.0137 452.55 29.9843C452.454 29.9474 452.359 29.9106 452.263 29.8737C452.174 29.8295 452.086 29.7853 451.998 29.7411C451.909 29.6895 451.824 29.6343 451.743 29.5753C451.67 29.509 451.603 29.439 451.544 29.3653C451.486 29.2916 451.434 29.2106 451.39 29.1222C451.346 29.0264 451.309 28.9232 451.279 28.8127C451.257 28.6948 451.246 28.5695 451.246 28.4369C451.246 27.9064 451.441 27.4901 451.832 27.1879C452.23 26.8785 452.727 26.7237 453.324 26.7237Z" fill="white"/>
<path d="M367.361 43.6958C367.47 43.3608 367.944 43.3608 368.053 43.6958L369.176 47.1536C369.225 47.3034 369.365 47.4048 369.522 47.4048H373.158C373.51 47.4048 373.656 47.8555 373.372 48.0625L370.43 50.1996C370.303 50.2922 370.249 50.4563 370.298 50.6061L371.422 54.0639C371.53 54.3989 371.147 54.6774 370.862 54.4704L367.921 52.3333C367.793 52.2407 367.621 52.2407 367.493 52.3333L364.552 54.4704C364.267 54.6774 363.884 54.3989 363.992 54.0639L365.116 50.6061C365.165 50.4563 365.111 50.2922 364.984 50.1996L362.042 48.0625C361.757 47.8555 361.904 47.4048 362.256 47.4048H365.892C366.049 47.4048 366.189 47.3034 366.238 47.1536L367.361 43.6958Z" fill="white"/>
<path d="M381.177 43.6958C381.286 43.3608 381.76 43.3608 381.868 43.6958L382.992 47.1536C383.041 47.3034 383.18 47.4048 383.338 47.4048H386.973C387.326 47.4048 387.472 47.8555 387.187 48.0625L384.246 50.1996C384.118 50.2922 384.065 50.4563 384.114 50.6061L385.237 54.0639C385.346 54.3989 384.963 54.6774 384.678 54.4704L381.736 52.3333C381.609 52.2407 381.436 52.2407 381.309 52.3333L378.368 54.4704C378.083 54.6774 377.699 54.3989 377.808 54.0639L378.932 50.6061C378.98 50.4563 378.927 50.2922 378.799 50.1996L375.858 48.0625C375.573 47.8555 375.72 47.4048 376.072 47.4048H379.708C379.865 47.4048 380.005 47.3034 380.053 47.1536L381.177 43.6958Z" fill="white"/>
<path d="M394.993 43.6958C395.102 43.3608 395.576 43.3608 395.684 43.6958L396.808 47.1536C396.857 47.3034 396.996 47.4048 397.154 47.4048H400.789C401.142 47.4048 401.288 47.8555 401.003 48.0625L398.062 50.1996C397.934 50.2922 397.881 50.4563 397.93 50.6061L399.053 54.0639C399.162 54.3989 398.779 54.6774 398.494 54.4704L395.552 52.3333C395.425 52.2407 395.252 52.2407 395.125 52.3333L392.183 54.4704C391.899 54.6774 391.515 54.3989 391.624 54.0639L392.747 50.6061C392.796 50.4563 392.743 50.2922 392.615 50.1996L389.674 48.0625C389.389 47.8555 389.536 47.4048 389.888 47.4048H393.523C393.681 47.4048 393.821 47.3034 393.869 47.1536L394.993 43.6958Z" fill="white"/>
<path d="M408.808 43.6958C408.917 43.3608 409.391 43.3608 409.5 43.6958L410.624 47.1536C410.672 47.3034 410.812 47.4048 410.969 47.4048H414.605C414.957 47.4048 415.104 47.8555 414.819 48.0625L411.877 50.1996C411.75 50.2922 411.697 50.4563 411.745 50.6061L412.869 54.0639C412.978 54.3989 412.594 54.6774 412.309 54.4704L409.368 52.3333C409.241 52.2407 409.068 52.2407 408.941 52.3333L405.999 54.4704C405.714 54.6774 405.331 54.3989 405.44 54.0639L406.563 50.6061C406.612 50.4563 406.559 50.2922 406.431 50.1996L403.49 48.0625C403.205 47.8555 403.351 47.4048 403.703 47.4048H407.339C407.497 47.4048 407.636 47.3034 407.685 47.1536L408.808 43.6958Z" fill="white"/>
<path d="M419.867 54.3475L422.393 52.2874C422.478 52.2183 422.527 52.1149 422.527 52.0056V43.7831L421.498 47.1478C421.451 47.3006 421.31 47.405 421.15 47.405H417.519C417.167 47.405 417.021 47.8557 417.306 48.0627L420.247 50.1998C420.374 50.2923 420.428 50.4564 420.379 50.6063L419.292 53.9534C419.18 54.2983 419.586 54.5767 419.867 54.3475Z" fill="white"/>
<path d="M422.798 43.7517C422.852 43.5846 423.089 43.5845 423.143 43.7517L424.266 47.2097C424.339 47.4343 424.549 47.5865 424.785 47.5867H428.421C428.597 47.5867 428.671 47.8123 428.528 47.9158L425.587 50.0525C425.396 50.1913 425.316 50.4373 425.388 50.6619L426.511 54.1199C426.566 54.2874 426.375 54.4265 426.232 54.323L423.291 52.1863C423.1 52.0474 422.84 52.0474 422.649 52.1863L419.708 54.323C419.565 54.4263 419.374 54.2873 419.428 54.1199L420.552 50.6619C420.624 50.4373 420.545 50.1914 420.354 50.0525L417.413 47.9158C417.27 47.8123 417.343 47.5867 417.519 47.5867H421.155C421.391 47.5867 421.601 47.4344 421.674 47.2097L422.798 43.7517Z" stroke="white" stroke-width="0.363573"/>
<defs>
<clipPath id="clip0_1093_28544">
<rect width="60.1583" height="34.8744" fill="white" transform="translate(7.37427 18.7864)"/>
</clipPath>
<clipPath id="clip1_1093_28544">
<rect width="55.4779" height="20.2632" fill="white" transform="translate(213.599 18.75)"/>
</clipPath>
</defs>
</svg>
