<svg width="207" height="46" viewBox="0 0 207 46" fill="none" xmlns="http://www.w3.org/2000/svg">
<path d="M121.889 38.4418C121.253 39.2089 117.49 42.9019 114.238 45.1319C113.699 37.3679 109.958 32.3764 103.843 28.1191C103.651 32.2613 103.628 35.8995 103.777 38.4418C103.902 40.639 104.956 41.9759 106.678 43.3786C104.446 43.8881 97.9129 43.7949 95.6802 43.0936C95.9327 42.9019 98.697 41.3787 98.9329 36.4036C99.1031 32.8366 99.1248 30.1957 98.9985 25.8288L98.741 24.711C95.7624 22.5194 93.1619 20.2729 89.8162 16.6567C92.877 24.7439 88.988 34.8091 88.5436 38.5075C88.39 39.7513 88.0005 42.2663 88.1267 44.847C87.1723 44.2771 83.3101 41.7567 81.4619 39.3404C86.8484 30.1354 90.7431 21.0893 82.2901 12.8705C83.8865 10.4816 86.2453 8.35027 88.1267 7.42424C90.1069 13.1281 94.4402 17.6484 97.5673 19.6209C95.1752 10.7666 92.1087 7.8681 90.1675 6.88183C91.44 3.89569 95.6528 0.799961 97.8854 0C96.8647 3.30941 96.7774 5.47916 97.7866 9.01321C98.8066 12.5802 100.403 16.9142 102.186 20.1634C103.146 18.5086 106.525 11.5008 107.413 8.4434C108.308 5.38602 108.308 2.64643 107.923 0.673938C109.871 1.66019 114.046 5.57779 115 7.49003C112.959 7.93382 111.999 8.98032 110.792 11.0569C109.547 13.1884 106.393 21.2482 104.638 24.722C106.486 26.3165 109.707 28.3218 112.257 31.3792C109.448 20.3606 112.323 11.983 116.02 9.46797C117.743 9.97755 119.942 11.3803 121.539 13.0349C115.543 15.5499 115.927 23.1988 115.894 23.7686C115.62 28.1464 117.391 35.9379 120.716 37.8391C121.44 38.2555 121.511 38.2774 121.889 38.4528C121.253 39.2198 117.49 42.9128 114.238 45.1428" fill="white"/>
<path d="M121.97 34.2613H121.345V35.9708H120.917V34.2613H120.292V33.8887H121.975V34.2613H121.97ZM124.817 35.9708H124.395V34.3161H124.384L123.78 35.9708H123.369L122.788 34.3161H122.777V35.9708H122.354V33.8887H123.089L123.572 35.2475H123.583L124.088 33.8887H124.817V35.9708Z" fill="white"/>
</svg>
