<svg width="207" height="66" viewBox="0 0 207 66" fill="none" xmlns="http://www.w3.org/2000/svg">
<path d="M23.6255 34.3394C23.7138 34.304 23.7138 34.3748 23.705 34.419C23.705 34.4632 23.7403 34.5604 23.6255 34.5339V34.3394Z" fill="white"/>
<path d="M23.6255 33.5437C23.705 33.526 23.7227 33.579 23.7138 33.6321C23.7138 33.6851 23.6785 33.7028 23.6255 33.6763V33.5437Z" fill="white"/>
<path d="M23.6255 33.8796C23.6255 33.8796 23.705 33.862 23.705 33.915C23.705 33.9681 23.6608 33.9681 23.6255 33.9504V33.8796Z" fill="white"/>
<path d="M23.6255 34.136C23.6255 34.136 23.7138 34.1184 23.6962 34.1802C23.6962 34.2245 23.652 34.2068 23.6255 34.1979V34.1272V34.136Z" fill="white"/>
<path d="M23.6255 31.0858C23.6255 31.0858 23.6873 31.0857 23.6873 31.1034C23.705 31.1565 23.6608 31.1653 23.6255 31.1565V31.0858Z" fill="white"/>
<path d="M54.9995 30.1662C54.708 29.5562 54.2309 29.0169 53.6389 28.5836C52.8879 28.0443 52.0839 27.726 51.1739 27.6553C50.0871 27.5669 49.1152 27.9028 48.2494 28.5306C47.5249 29.0434 47.0478 29.7595 46.6325 30.5287C46.2968 31.1565 46.3852 31.8196 46.3233 32.465C46.2438 33.3845 46.0582 34.2775 45.643 35.0909C45.2984 35.7717 44.8832 36.4083 44.3089 36.9653C43.5755 37.6726 42.7715 38.1766 41.8261 38.5391C41.4374 38.6894 41.0045 38.6805 40.6422 38.9016C40.4213 39.0519 40.2005 38.9016 39.9796 38.9016C39.3258 38.9192 38.6808 38.9104 38.0447 38.7513C36.7989 38.4418 35.7121 37.8671 34.7933 36.9741C34.0423 36.2403 33.5652 35.365 33.2206 34.3924C32.8937 33.4729 32.611 32.5623 32.8495 31.5809C32.8937 31.404 32.9909 31.2272 32.9997 31.0504C33.0174 30.2989 33.3178 29.6092 33.6624 28.9992C34.378 27.7437 35.4382 26.7711 36.7547 26.1257C37.541 25.7367 38.3892 25.5422 39.2728 25.5775C40.6687 25.6306 41.7908 25.0205 42.8334 24.1983C43.0366 24.0391 42.9836 23.7739 43.1779 23.6236C43.7611 23.1904 43.9554 22.4831 44.1056 21.873C44.2735 21.1745 44.247 20.3876 43.9554 19.645C43.7169 19.0349 43.443 18.4425 43.0189 17.9474C42.3739 17.1694 41.5169 16.745 40.5097 16.63C40.3153 16.6035 40.2446 16.5416 40.2976 16.356H37.8326C37.8326 16.5151 38.0181 16.4621 38.133 16.6035C37.7266 16.6742 37.3555 16.6389 36.9844 16.6831C36.1539 16.7803 35.3499 16.9837 34.5547 17.187C34.113 17.302 33.7154 17.523 33.2913 17.6998C31.6302 18.3983 30.1459 19.3709 28.7941 20.5645C27.9283 21.3248 27.1861 22.209 26.5411 23.1462C25.7018 24.384 24.9154 25.666 24.5002 27.1248C24.2793 27.8852 23.9612 28.6278 23.9171 29.4236C23.8464 30.6083 23.864 31.8107 23.864 32.9955C23.864 33.4995 23.8464 34.0123 23.9347 34.5162C23.9966 34.8522 23.9347 35.197 23.9524 35.5418C24.1203 36.3729 24.3942 37.1863 24.6769 37.9909C25.3395 39.9006 26.5588 41.4656 27.8399 42.9775C28.909 44.2418 30.2784 45.1613 31.7009 45.9747C32.7523 46.5759 33.8214 47.1594 35.0318 47.3982C35.4736 47.4954 35.9242 47.5573 36.3483 47.7165C37.1081 47.9994 37.9121 47.964 38.6896 48.1055C39.7852 48.3 40.8631 47.9286 41.9587 47.8933C42.0559 47.8933 42.1531 47.8491 42.2502 47.8314C43.0631 47.6899 43.8406 47.4335 44.6269 47.2125C45.2896 47.0357 45.9345 46.8235 46.5353 46.4875C47.8076 45.7625 49.0622 45.011 50.1578 44.0384C50.6703 43.5875 51.1915 43.1366 51.6333 42.6061C52.0309 42.1198 52.3843 41.5982 52.7731 41.1119C52.8526 41.0058 52.9763 40.9528 53.0293 40.829C53.365 40.0952 53.7714 39.3967 54.1514 38.6805C54.3457 38.3092 54.4959 37.9113 54.5843 37.5488C54.7256 37.0183 55.0967 36.5232 54.973 35.922C54.973 35.9043 54.9907 35.8866 54.9995 35.8601C55.2116 35.1793 55.2911 34.4809 55.3529 33.7735C55.3883 33.411 55.3088 33.0309 55.3706 32.6772C55.5297 31.7842 55.3353 30.9354 54.973 30.1662H54.9995Z" fill="white"/>
<path d="M152.241 37.2924C152.099 37.036 152.09 36.7796 152.037 36.5409C151.949 36.1607 152.117 35.8601 152.347 35.5772C152.444 35.4534 152.453 35.418 152.294 35.3562C152.011 35.2412 151.719 35.1263 151.463 34.976C150.915 34.6577 150.606 34.1184 150.385 33.5613C150.041 32.686 150.111 31.7842 150.65 31.0239C151.331 30.0513 152.232 29.3617 153.539 29.3882C154.158 29.4059 154.776 29.344 155.377 29.5562C155.439 29.5739 155.501 29.6092 155.554 29.6446C155.907 29.901 155.96 29.8922 156.19 29.5297C156.34 29.2733 156.481 29.008 156.658 28.7693C157.091 28.1858 157.895 28.23 158.293 28.8312C158.39 28.9815 158.416 29.1053 158.249 29.2556C157.824 29.6623 157.436 30.0955 157.02 30.5199C156.914 30.626 156.906 30.6879 157.02 30.8117C157.551 31.3952 157.701 32.0848 157.595 32.854C157.551 33.1723 157.48 33.4729 157.383 33.7735C157.259 34.1449 157.003 34.419 156.729 34.6754C155.987 35.3562 155.05 35.5507 154.096 35.6568C153.99 35.6744 153.875 35.6921 153.769 35.7187C153.654 35.754 153.442 35.6302 153.46 35.8424C153.46 36.0369 153.504 36.2668 153.716 36.3818C154.449 36.7708 155.245 36.9122 156.049 37.0537C156.499 37.1333 156.906 37.3455 157.303 37.5488C158.257 38.0351 158.54 39.1403 158.302 39.8918C158.019 40.7583 157.312 41.1738 156.543 41.4833C155.315 41.9784 154.016 41.9872 152.718 41.8192C152.267 41.7573 151.799 41.8369 151.375 41.6689C150.686 41.3948 149.996 41.0854 149.749 40.2808C149.422 39.2199 149.749 38.5037 150.394 37.9644C150.933 37.5046 151.445 37.319 152.258 37.2747L152.241 37.2924ZM153.716 30.6879C152.382 30.7056 151.543 31.908 151.984 33.1989C152.285 34.1095 152.947 34.4632 154.025 34.4897C155.245 34.5162 156.04 33.5967 155.837 32.3236C155.651 31.1476 155.103 30.6879 153.955 30.6879H153.716ZM153.875 40.7583C154.529 40.7936 155.13 40.6433 155.722 40.44C156.11 40.3074 156.402 40.0509 156.579 39.6884C156.685 39.4851 156.729 39.2994 156.579 39.0607C156.375 38.7424 156.11 38.5656 155.775 38.4418C154.812 38.0882 153.849 37.761 152.806 38.1235C152.17 38.3446 151.587 38.601 151.295 39.2641C151.198 39.4851 151.198 39.6796 151.339 39.8741C151.56 40.1747 151.852 40.3958 152.214 40.5019C152.762 40.6698 153.327 40.7671 153.875 40.7583Z" fill="white"/>
<path d="M129.737 32.3059C129.737 30.7233 129.737 29.1495 129.737 27.5669C129.737 26.9303 130.037 26.7093 130.55 26.5943C130.762 26.5501 130.992 26.5413 131.213 26.5413H136.947C137.318 26.5413 137.662 26.5678 138.016 26.7888C138.325 26.9833 138.369 27.2221 138.343 27.505C138.307 27.8056 138.192 28.0797 137.848 28.1769C137.733 28.2123 137.618 28.23 137.494 28.23H132.025C131.593 28.23 131.486 28.3095 131.548 28.7251C131.663 29.5031 131.584 30.2812 131.593 31.0681C131.593 31.4836 131.593 31.4748 132.017 31.4748C133.386 31.4748 134.756 31.4748 136.116 31.4925C136.593 31.4925 137.097 31.8107 137.017 32.3589C136.964 32.7303 136.646 32.801 136.408 32.9513C136.019 33.19 135.568 33.0662 135.144 33.0662C134.013 33.0662 132.882 33.0662 131.752 33.0839C131.575 33.0839 131.54 33.1635 131.557 33.3403C131.637 34.1537 131.637 34.9671 131.557 35.7717V35.8071C131.442 36.4436 131.513 36.5321 132.158 36.5321H136.964C137.274 36.5321 137.583 36.5497 137.883 36.6028C138.157 36.6558 138.343 36.8061 138.36 37.1156V37.3808C138.36 37.9202 138.175 38.1235 137.636 38.1235C136.258 38.1324 134.879 38.1235 133.501 38.1235C132.591 38.1235 131.681 38.1235 130.762 38.1147C130.117 38.1147 129.755 37.7345 129.755 37.1068V32.297H129.737V32.3059Z" fill="white"/>
<path d="M68.5794 26.3998C69.7103 26.223 70.7882 26.3733 71.8307 26.8772C72.3697 27.1336 72.8291 27.4696 73.2797 27.8498C73.8717 28.3449 73.907 29.1406 73.3151 29.6004C72.8468 29.9629 72.6701 29.8656 72.3962 29.4943C72.087 29.0699 71.7247 28.6632 71.2034 28.4775C70.1079 28.0885 69.0123 27.8321 67.8549 28.3095C66.8653 28.7163 66.1938 29.4236 65.7697 30.3696C65.4517 31.0858 65.2838 31.855 65.3456 32.633C65.4958 34.3306 66.1497 35.7363 67.846 36.4436C68.9946 36.9211 70.1432 36.9476 71.2476 36.2845C71.7954 35.9574 72.2902 35.5949 72.5994 35.0113C72.7584 34.7019 73.0323 34.6665 73.3416 34.8434C73.9865 35.2147 74.0572 35.8955 73.5359 36.5674C72.8645 37.425 71.9721 37.8936 70.9207 38.1235C70.4259 38.2296 69.9488 38.3799 69.4364 38.3976C68.6412 38.4153 67.8902 38.2473 67.148 37.9997C65.5312 37.4427 64.4445 36.3376 63.8613 34.7638C63.6935 34.3129 63.5698 33.8443 63.5521 33.3403C63.5344 33.0043 63.3931 32.6684 63.4196 32.3147C63.5433 30.3431 64.1264 28.5836 65.8493 27.4077C66.5649 26.9214 67.3247 26.4705 68.2524 26.4882C68.4026 26.612 68.5352 26.6474 68.597 26.3998H68.5794Z" fill="white"/>
<path d="M107.958 33.0043C108.188 32.9867 108.426 32.969 108.656 32.9601C108.789 32.9601 108.868 32.9248 108.851 32.7745C108.798 32.0229 108.638 31.3068 107.834 31.0415C106.827 30.7144 105.785 30.6702 104.875 31.4129C104.751 31.5101 104.654 31.6339 104.583 31.7754C104.398 32.1821 104.097 32.3412 103.708 32.1732C103.267 31.9787 103.063 31.6074 103.196 31.1565C103.249 30.9797 103.355 30.8294 103.47 30.679C104.053 29.9629 104.857 29.5385 105.714 29.4236C106.818 29.2733 107.994 29.2025 109.018 29.7684C109.796 30.2016 110.388 30.8294 110.556 31.7931C110.662 32.3854 110.644 32.969 110.644 33.5613C110.653 34.9406 110.644 36.3199 110.653 37.708C110.653 38.0174 110.485 38.1766 110.167 38.1766C110.034 38.1766 109.893 38.1943 109.769 38.1677C109.363 38.0793 108.965 37.8583 109.045 37.2482C109.054 37.1686 109.107 37.036 108.974 36.9918C108.859 36.9476 108.789 37.0537 108.718 37.1244C107.755 38.0705 106.562 38.4064 105.263 38.3003C104.557 38.2385 103.876 37.929 103.373 37.425C102.949 37.0007 102.949 36.3906 102.922 35.8071C102.887 34.9141 103.293 34.304 104.053 33.8796C104.875 33.4376 105.714 33.0928 106.668 33.1723C107.11 33.2342 107.525 33.1104 107.94 32.9955H107.958V33.0043ZM105.864 37.0537C106.2 37.2571 106.545 37.2482 106.818 37.036C107.349 36.9653 107.808 36.7619 108.206 36.4083C108.859 35.8248 108.868 35.0644 108.842 34.2863C108.842 34.1537 108.753 34.1537 108.665 34.1537C107.684 34.1184 106.704 34.1714 105.767 34.4897C105.396 34.6135 105.069 34.8257 104.83 35.144C104.442 35.6568 104.601 36.4879 105.149 36.8238C105.369 36.9653 105.617 37.0007 105.864 37.0537Z" fill="white"/>
<path d="M176.025 34.3305C175.76 34.3305 175.654 34.4013 175.707 34.6665C175.919 35.6391 176.44 36.3376 177.377 36.7531C178.084 37.0625 178.808 36.983 179.506 36.9034C180.045 36.8415 180.549 36.5763 180.902 36.09C181.061 35.869 181.211 35.6126 181.582 35.6568C181.839 35.6833 181.998 35.7805 182.104 35.9927C182.28 36.3464 182.192 36.8592 181.909 37.1598C181.238 37.876 180.354 38.1235 179.436 38.3092C178.543 38.486 177.695 38.3446 176.847 38.0616C175.954 37.7699 175.265 37.2217 174.735 36.4702C174.258 35.8071 174.081 35.0644 174.073 34.2598C174.064 33.4553 174.055 32.6418 174.399 31.8903C174.726 31.183 175.195 30.5729 175.884 30.1574C176.228 29.9452 176.555 29.7153 176.962 29.6004C178.146 29.2644 179.294 29.2379 180.416 29.8214C181.22 30.237 181.75 30.8736 182.174 31.6693C182.546 32.3766 182.563 33.1281 182.652 33.8796C182.678 34.1272 182.404 34.3305 182.077 34.3305H176.025ZM180.328 33.1635C180.699 33.1635 180.852 32.9896 180.787 32.6418V32.5711C180.575 31.7842 180.125 31.2095 179.347 30.8736C178.596 30.5553 177.889 30.679 177.165 30.962C176.299 31.2979 176.016 32.0495 175.769 32.8275C175.689 33.0839 175.831 33.1635 176.087 33.1635C176.829 33.1458 177.58 33.1635 178.322 33.1635H180.328Z" fill="white"/>
<path d="M79.9945 29.3882C80.5246 29.2909 81.1166 29.4501 81.6821 29.6534C82.0355 29.7772 82.327 30.0425 82.6539 30.237C83.3608 30.6525 83.7053 31.3775 84.1029 32.0318C84.315 32.3766 84.368 32.8452 84.3945 33.2696C84.5005 34.64 84.2443 35.8866 83.2459 36.9476C82.168 38.0882 80.8162 38.5214 79.3496 38.3534C77.7327 38.1766 76.4339 37.3278 75.7713 35.7717C75.5062 35.1616 75.3295 34.4897 75.3648 33.8354C75.4179 32.8275 75.6829 31.8284 76.2926 30.9885C76.646 30.5022 77.1496 30.1574 77.6797 29.8391C78.3953 29.4147 79.1375 29.3705 80.0034 29.3882H79.9945ZM82.7423 33.8973C82.7158 33.5879 82.7688 33.3049 82.6893 33.0397C82.2652 31.687 81.3021 30.8028 79.7206 30.8647C78.413 30.9178 77.1849 31.8726 77.0259 33.1723C76.911 34.1184 76.9905 35.0467 77.6355 35.8601C78.466 36.9122 80.0829 37.372 81.3198 36.6116C82.3535 35.9839 82.7688 35.0379 82.7423 33.8885V33.8973Z" fill="white"/>
<path d="M86.4089 33.7205V30.1751C86.4089 29.5385 86.78 29.2909 87.3896 29.5562C87.7519 29.7153 87.9374 30.0071 88.0346 30.3784C88.1318 30.794 88.1583 30.7763 88.4941 30.5022C88.8298 30.2193 89.0772 29.8214 89.5013 29.6711C90.7559 29.2467 91.9663 29.1406 93.1061 30.0425C93.6008 30.4315 93.9631 30.8912 94.131 31.4836C94.237 31.8373 94.2635 32.2175 94.2988 32.58C94.4049 33.9769 94.3783 35.3827 94.3607 36.7796C94.3607 37.0537 94.3253 37.3278 94.2988 37.593C94.2723 37.8848 94.1928 38.1412 93.7952 38.1589C93.4948 38.1677 93.1944 38.2296 92.9117 38.1412C92.6555 38.0616 92.3992 37.4958 92.4699 37.1686C92.5406 36.8592 92.5053 36.5586 92.5053 36.2491C92.5053 35.144 92.5229 34.0388 92.5053 32.9336C92.4876 32.1379 92.2049 31.4394 91.445 31.0592C91.0033 30.8382 90.5085 30.8205 90.0314 30.9089C89.2627 31.0592 88.7503 31.572 88.3174 32.1732C88.2378 32.2882 88.2467 32.4208 88.2467 32.5534V37.2571C88.2467 37.4074 88.2467 37.5665 88.2025 37.7168C88.0876 38.0174 87.9198 38.2031 87.5575 38.1589C87.3808 38.1412 87.2041 38.1412 87.0274 38.1324C86.621 38.1058 86.4178 37.8936 86.4178 37.5046V33.7028H86.4354L86.4089 33.7205Z" fill="white"/>
<path d="M148.3 35.1616V37.6461C148.3 37.8936 148.061 38.1589 147.779 38.1854C147.461 38.2119 147.125 38.2296 146.825 38.1147C146.559 38.0086 146.48 37.7257 146.48 37.4604C146.48 36.3464 146.48 35.2324 146.48 34.1095C146.48 33.5171 146.48 32.9071 146.339 32.3412C146.065 31.2537 145.084 30.7321 143.971 30.9531C143.14 31.1123 142.592 31.6428 142.142 32.2793C141.983 32.5004 142.071 32.8098 142.106 33.0839C142.124 33.19 142.142 33.2961 142.142 33.411V37.4869C142.142 37.9909 141.921 38.2031 141.417 38.2119H141.117C140.543 38.2119 140.339 37.9909 140.339 37.4162C140.339 35.0467 140.357 32.686 140.366 30.3254V30.2281C140.384 29.9717 140.233 29.6004 140.578 29.512C141.117 29.3794 141.674 29.6358 141.833 30.0071C141.912 30.1928 142.036 30.3431 142.089 30.5376C142.142 30.7321 142.266 30.6437 142.363 30.5553C142.531 30.3961 142.681 30.2193 142.866 30.069C143.626 29.4412 144.527 29.3263 145.455 29.4147C146.719 29.5385 147.62 30.1839 148.035 31.3775C148.194 31.8373 148.3 32.3501 148.3 32.854V35.1705V35.1616Z" fill="white"/>
<path d="M170.335 33.8885C170.309 33.4641 170.282 33.0309 170.256 32.5976C170.203 31.7047 169.522 31.0327 168.63 30.9354C167.446 30.8117 166.624 31.3156 166.032 32.2882C165.918 32.4827 165.9 32.7037 165.9 32.9248C165.9 34.3306 165.9 35.7363 165.9 37.1333V37.4693C165.882 38.0263 165.538 38.2915 164.999 38.1766C164.937 38.1589 164.875 38.1324 164.813 38.1235C164.46 38.0793 164.283 37.876 164.283 37.5135V30.0513C164.283 29.8568 164.195 29.565 164.469 29.512C164.769 29.4589 165.114 29.4059 165.379 29.6711C165.617 29.9187 165.812 30.1928 165.873 30.5376C165.926 30.8028 166.068 30.6879 166.138 30.5906C166.545 29.9717 167.163 29.5827 167.844 29.4678C168.992 29.2733 170.15 29.2644 171.095 30.1574C171.625 30.6525 171.908 31.2626 172.023 31.9699C172.27 33.3934 172.138 34.8257 172.155 36.258C172.155 36.7266 172.208 37.204 172.102 37.6726C172.04 37.9467 171.926 38.0882 171.652 38.15C171.298 38.2385 170.971 38.1412 170.636 38.097C170.521 38.0793 170.494 37.9644 170.494 37.8671V33.6144C170.415 33.7559 170.432 33.862 170.326 33.8885H170.335Z" fill="white"/>
<path d="M117.182 29.3794C118.375 29.2733 119.4 29.7419 120.23 30.6348C120.513 30.9443 120.76 31.2891 120.734 31.7489C120.707 32.1732 120.195 32.58 119.78 32.4915C119.665 32.4739 119.647 32.3766 119.612 32.3059C119.488 32.1114 119.382 31.908 119.232 31.7223C118.773 31.183 118.181 30.9443 117.491 30.8912C116.811 30.8382 116.131 30.8205 115.539 31.2449C114.85 31.74 114.355 32.3678 114.293 33.2431C114.258 33.8266 114.187 34.4278 114.381 34.9848C114.726 35.9927 115.468 36.6116 116.502 36.8769C117.562 37.151 118.428 36.7619 119.197 36.0812C119.364 35.9309 119.435 35.6656 119.541 35.4446C119.603 35.312 119.691 35.2501 119.85 35.2501C120.495 35.2235 120.928 35.8778 120.654 36.4613C120.204 37.4074 119.391 37.8848 118.437 38.1677C117.739 38.3799 117.023 38.4595 116.299 38.3092C114.629 37.9732 113.418 37.0714 112.826 35.4711C112.279 33.9681 112.464 32.5004 113.357 31.1653C114.178 29.9364 115.45 29.3617 117.182 29.3705V29.3794Z" fill="white"/>
<path d="M123.261 33.7912V31.404C123.261 31.183 123.208 31.0858 122.969 31.0769C122.713 31.0769 122.457 30.9973 122.201 30.9443C122.095 30.9266 122.024 30.847 121.989 30.7498C121.883 30.4315 121.9 30.1044 121.989 29.7861C122.024 29.6711 122.121 29.6534 122.245 29.6534C122.51 29.6534 122.775 29.6269 123.031 29.6358C123.208 29.6358 123.261 29.5827 123.261 29.4147C123.261 28.9815 123.261 28.5571 123.261 28.1239C123.261 27.6111 123.42 27.4608 123.941 27.4519C124.18 27.4519 124.418 27.4342 124.657 27.5315C124.904 27.6376 124.975 27.8056 124.975 28.0443C124.975 28.4687 124.993 28.8842 124.975 29.3086C124.975 29.5916 125.072 29.6534 125.337 29.6446C125.964 29.6269 126.583 29.6446 127.201 29.6446C127.458 29.6446 127.802 30.0425 127.758 30.29C127.661 30.847 127.458 31.0327 126.866 31.0415C126.353 31.0592 125.841 31.0681 125.328 31.0681C125.143 31.0681 125.054 31.0946 125.019 31.3156C124.948 31.7931 124.931 32.2617 125.019 32.7479C125.046 32.8806 124.966 33.022 124.966 33.1635C124.966 34.0388 124.948 34.9141 124.966 35.7805C124.966 36.2403 125.169 36.6382 125.602 36.8592C126.132 37.1333 126.618 36.9918 127.078 36.6558C127.21 36.5586 127.281 36.2845 127.519 36.3994C127.767 36.5232 127.82 36.7885 127.82 37.0272C127.82 37.425 127.678 37.7875 127.29 37.9821C126.291 38.486 125.284 38.6186 124.295 37.9644C123.623 37.5223 123.27 36.8769 123.234 36.09C123.199 35.3296 123.234 34.5604 123.234 33.8001H123.252L123.261 33.7912Z" fill="white"/>
<path d="M97.241 33.6409V31.4571C97.241 31.2095 97.188 31.0769 96.8964 31.0769C96.6402 31.0769 96.3751 30.9885 96.1189 30.9354C96.0129 30.9178 95.951 30.8294 95.9245 30.7321C95.9069 30.6702 95.898 30.5995 95.898 30.5376C95.898 30.2635 95.8097 29.9364 95.9334 29.7242C96.0659 29.5031 96.4193 29.6534 96.6755 29.6269C97.1173 29.5827 97.2145 29.4766 97.2321 28.955C97.241 28.6455 97.2321 28.3361 97.2321 28.0266C97.2321 27.5669 97.6121 27.2751 98.0627 27.3812C98.1068 27.3812 98.1422 27.4254 98.1864 27.4342C98.6635 27.5315 98.8932 27.8144 98.902 28.283V29.344C98.902 29.5739 99.0787 29.6181 99.2819 29.6181H100.987C101.464 29.6181 101.667 29.7861 101.703 30.2016C101.738 30.6172 101.429 30.9973 101.014 31.015C100.448 31.0327 99.8827 31.0504 99.3173 31.015C98.9727 30.9973 98.8932 31.1123 98.902 31.4394C98.9197 32.7214 98.902 34.0034 98.9109 35.2854C98.9109 35.7275 98.9374 36.1872 99.2378 36.5674C99.6972 37.1421 100.696 37.1333 101.137 36.4967C101.349 36.1961 101.5 36.3641 101.614 36.4967C101.968 36.9122 101.862 37.5842 101.332 37.9025C100.192 38.5833 98.902 38.5567 97.9125 37.6372C97.3735 37.1333 97.2587 36.4171 97.241 35.7098C97.2233 35.0113 97.241 34.3217 97.241 33.6232V33.6409Z" fill="white"/>
<path d="M159.83 33.8443V30.3342C159.83 29.954 160.095 29.5739 160.369 29.512C160.873 29.397 161.306 29.5385 161.526 29.8833C161.624 30.0336 161.632 30.1928 161.632 30.3608C161.632 32.6595 161.632 34.9583 161.632 37.2482C161.632 38.1235 161.35 38.3534 160.484 38.1854C160.016 38.097 159.848 37.876 159.839 37.3189V33.8443H159.83Z" fill="white"/>
<path d="M161.765 26.8065C161.809 27.1602 161.668 27.4608 161.314 27.6111C160.961 27.7702 160.634 27.8586 160.236 27.5845C159.927 27.3724 159.821 27.2309 159.821 26.8242C159.821 26.5059 159.759 26.223 160.024 26.0196C160.369 25.7544 160.758 25.7013 161.173 25.8516C161.685 26.0373 161.756 26.1346 161.756 26.7977L161.765 26.8065Z" fill="white"/>
<path d="M170.335 33.8885C170.441 33.862 170.424 33.7559 170.503 33.6144V37.8671C170.379 37.7345 170.353 37.5665 170.344 37.4074C170.309 36.2315 170.282 35.0644 170.326 33.8885H170.335Z" fill="white"/>
<path d="M107.958 33.0043C107.543 33.1104 107.128 33.2342 106.686 33.1812C106.704 33.1104 106.765 33.0574 106.827 33.0574C107.207 33.0751 107.578 32.9336 107.958 33.0043Z" fill="white"/>
<path d="M23.9436 34.5162C24.0054 34.8522 23.9436 35.197 23.9612 35.5418C23.8552 35.2058 23.9259 34.861 23.9436 34.5162Z" fill="white"/>
<path d="M68.5794 26.3998C68.5175 26.6385 68.385 26.612 68.2348 26.4882C68.3231 26.3468 68.4557 26.3998 68.5794 26.3998Z" fill="white"/>
<path d="M105.864 37.036C106.182 36.983 106.5 37.0183 106.818 37.0183C106.536 37.2394 106.2 37.2394 105.864 37.036Z" fill="white"/>
</svg>
