<svg width="207" height="48" viewBox="0 0 207 48" fill="none" xmlns="http://www.w3.org/2000/svg">
<g clip-path="url(#clip0_1093_28843)">
<mask id="mask0_1093_28843" style="mask-type:luminance" maskUnits="userSpaceOnUse" x="50" y="0" width="106" height="48">
<path d="M50.4376 0.0271834H155.849V47.9773H50.4376V0.0271834Z" fill="white"/>
</mask>
<g mask="url(#mask0_1093_28843)">
<path d="M144.367 18.3103C144.022 18.3103 143.363 17.9407 142.896 17.6315C144.697 14.0273 144.657 13.3145 145.31 12.8009C146.163 13.3731 146.341 13.5666 146.341 14.8993C146.341 16.4682 145.435 18.3103 144.367 18.3103ZM119.092 19.0968C118.852 18.3413 120.569 15.7561 121.588 15.442C122.063 15.3101 122.353 15.5089 122.455 15.6831C122.759 16.2221 122.189 17.3053 121.466 18.1032C119.849 19.6762 119.143 19.2469 119.092 19.0968ZM94.4182 21.6102L94.4061 21.5751V21.5482C94.4061 20.2511 96.3805 15.4723 97.0865 14.4922C97.2929 14.225 97.5544 14.3263 97.6527 14.3924C97.7774 14.4922 98.1119 14.7507 97.237 17.3023C97.226 17.3465 95.6477 21.8888 94.7591 21.8925C94.6858 21.8925 94.5097 21.8687 94.4182 21.6102ZM151.183 13.6653C151.183 16.6809 149.473 19.0322 147.556 19.1803C148.764 17.4988 149.112 16.9206 149.391 14.812C150.035 9.87628 148.732 9.89858 148.135 7.18601C148.135 7.18601 148.842 4.53052 147.597 4.77241C142.397 5.75055 146.037 7.35836 138.63 18.9294C137.352 20.9541 135.632 21.5622 135.486 21.5414C132.895 21.0867 137.736 16.7853 137.915 15.3403C138.325 12.0442 137.289 10.2474 136.481 10.3226C134.589 10.5025 132.978 11.6757 131.507 11.5873C131.507 11.5873 132.397 10.2402 130.831 10.2402C127.694 10.2402 125.903 15.8933 125.903 17.4096C125.903 18.1697 126.506 18.8035 126.506 19.0144C126.506 19.9098 123.529 25.0371 121.235 25.0371C119.908 25.0371 119.716 23.4958 119.716 23.2392C119.716 22.2217 125.817 19.5095 125.817 14.5311C125.817 13.2665 125.264 11.5873 123.57 11.5873C120.376 11.5873 117.203 14.7129 116.152 16.7694C113.236 22.3759 116.311 23.1515 112.995 24.3194C112.995 24.3194 111.471 24.7635 112 23.0597C112.194 22.038 112.919 21.2028 113.22 19.1803C113.707 15.7928 112.447 15.8884 111.1 15.9734C108.097 16.176 107.352 22.0169 107.352 23.6693C107.352 24.463 107.352 24.9426 107.352 25.7416C107.352 26.3648 106.001 29.153 104.764 29.1931C104.191 29.204 104.028 27.1313 104.028 26.6457C104.028 25.3319 107.074 22.54 107.074 18.4879C107.074 17.1965 105.495 17.0502 104.475 17.0502C100.886 17.0502 100.353 26.4692 100.353 26.4692C100.353 30.418 96.8613 31.2597 96.8246 31.2597C95.134 31.2597 94.8816 27.0951 94.8816 27.0951C94.7954 24.9388 100.53 22.3559 100.53 10.8665C100.53 9.66009 99.9964 7.39578 98.7253 7.62406C94.6143 8.34973 90.7536 22.6065 91.1179 27.5369C90.7536 28.4738 87.6441 32.64 86.4683 32.64C85.8886 32.64 85.9184 32.157 85.9184 31.4842C85.9184 28.6745 89.4077 24.9275 89.4077 23.3257C89.4077 21.7209 87.3191 19.3531 87.1558 19.3531C85.1617 19.3531 82.2413 26.0156 81.7058 28.2576C81.2564 30.1425 78.5676 34.0864 77.5762 33.7243C75.7968 33.0765 80.7102 27.2217 81.4332 25.5693C82.0614 24.1327 81.8547 23.1171 80.0881 22.8068C74.3519 21.8067 73.9071 30.051 73.3643 31.6656C73.3073 31.8527 65.6477 41.7041 62.2423 41.7041C60.4576 41.7041 57.7012 41.2702 57.9454 35.0661C58.3199 25.5931 67.5333 14.0991 69.6834 13.7356C71.0048 13.5122 69.3388 20.4722 66.9157 22.0709C62.9623 24.6712 58.2137 30.3224 61.892 32.5633C67.4928 35.9792 71.5743 24.7635 71.5743 24.7635C78.2993 11.314 73.528 8.30929 70.9432 8.30929C64.9881 8.30929 50.415 25.9192 50.415 36.8685C50.415 43.6724 54.8945 48 58.86 48C66.6678 48 71.3952 38.7507 73.7037 36.6055C74.3429 37.2533 75.7915 39.3766 78.015 39.3766C80.607 39.3766 80.6267 35.7925 81.9858 34.8888C82.3313 35.7925 82.9016 38.1611 85.0952 38.1611C88.6298 38.1611 88.9617 33.9961 91.1323 32.8142C91.6455 35.4675 93.3199 36.6055 95.2735 36.6055C98.2416 36.6055 99.9189 33.9375 101.248 31.5742C102.366 32.4355 102.589 33.5456 104.247 33.6771C107.857 33.9643 109.769 27.9012 109.935 27.8143C109.935 27.8143 111.12 28.3291 111.493 28.3291C113.479 28.3291 115.053 26.2038 115.32 26.4692C115.41 26.5512 116.783 28.955 118.37 29.3337C124.994 30.9146 129.125 21.3555 130.113 18.398C130.158 18.2721 131.69 17.6372 132.447 17.3204C131.91 18.8474 130.209 21.5577 130.831 24.6712C131.19 26.4692 132.447 27.7202 134.604 27.4677C137.64 27.1158 139.492 22.1046 140.154 21.9885C141.588 21.7043 142.349 24.401 144.638 24.401C147.776 24.401 153.079 20.2174 153.079 16.5951C153.079 16.1288 152.616 12.8353 151.183 13.6653ZM138.584 10.0369C142.484 9.88195 144.28 5.3057 144.28 2.98091C144.28 1.68075 143.676 0.0272085 142.382 0.0272085C140.776 0.0272085 138.41 2.53115 138.41 5.38129C138.41 7.28088 139.281 7.50841 139.259 7.81795C139.168 8.98015 136.714 10.1144 138.584 10.0369Z" fill="white"/>
</g>
<path d="M154.686 19.6962H154.405V20.0795H154.693C154.839 20.0795 154.917 20.0012 154.917 19.8893C154.917 19.7601 154.829 19.6962 154.686 19.6962ZM154.927 20.2794L155.246 20.7462H154.911L154.632 20.3266H154.405V20.7462H154.117V19.4418H154.697C155.008 19.4418 155.208 19.6013 155.208 19.872C155.208 20.0863 155.094 20.2178 154.927 20.2794ZM154.626 19.0382C154.005 19.0382 153.538 19.5295 153.538 20.1335C153.538 20.7363 154.002 21.2209 154.619 21.2209C155.239 21.2209 155.707 20.7295 155.707 20.1271C155.707 19.5231 155.243 19.0382 154.626 19.0382ZM154.619 21.3569C153.931 21.3569 153.395 20.8044 153.395 20.1335C153.395 19.4623 153.938 18.9021 154.626 18.9021C155.313 18.9021 155.849 19.4555 155.849 20.1271C155.849 20.7976 155.307 21.3569 154.619 21.3569Z" fill="#155195"/>
</g>
<defs>
<clipPath id="clip0_1093_28843">
<rect width="105.449" height="48" fill="white" transform="translate(50.4152)"/>
</clipPath>
</defs>
</svg>
