<svg width="207" height="48" viewBox="0 0 207 48" fill="none" xmlns="http://www.w3.org/2000/svg">
<g clip-path="url(#clip0_1093_28780)">
<path d="M78.1198 17.8202C77.9398 19.3802 77.6998 21.0002 77.5198 22.5602C77.0998 25.8602 76.7398 29.1602 76.3198 32.5202C76.1998 33.3602 76.0798 33.4802 75.2398 33.4802C73.6198 33.4802 73.7398 33.4802 73.4998 32.1002C73.1398 29.9402 72.9598 27.7202 72.6598 25.5602C72.3598 23.1002 72.0598 20.7002 71.7598 18.2402C71.7598 18.1202 71.6998 18.0602 71.6398 17.8802C70.4998 19.2602 69.4798 20.5202 69.1798 22.3202C68.6998 25.2602 68.1598 28.2002 67.6198 31.1402C67.4998 31.6802 67.3198 32.2802 67.1998 32.8202C67.0798 33.1802 66.8398 33.3602 66.4798 33.4202C66.2998 33.4202 66.1198 33.4802 65.9398 33.4802C64.8598 33.5402 64.5598 33.3002 64.3798 32.2802C64.1398 30.3002 63.9598 28.3202 63.7798 26.4002C63.6598 25.0802 63.4198 23.8202 63.2998 22.5602C63.2398 21.9602 62.8798 21.4202 62.3398 21.1802C61.4398 20.7602 60.5398 20.4002 59.6398 19.9802C59.1598 19.7402 58.6798 19.5602 58.2598 19.2602C57.8998 19.0202 57.6598 18.6002 57.8398 18.0602C58.0198 17.5802 58.4998 17.3402 58.9198 17.3402C59.4598 17.3402 59.9998 17.4002 60.5398 17.5202C62.0998 17.8802 63.5998 18.1802 65.2198 18.2402C66.2398 18.2402 67.1998 18.0602 68.0998 17.5202C68.8798 16.9802 69.6598 16.4402 70.4998 15.8402C69.7798 15.0602 69.1198 14.3402 68.4598 13.6802C68.0998 13.2602 67.6798 12.8402 67.3198 12.4202C66.8398 11.8202 67.0198 11.3402 67.7998 11.2202C68.4598 11.0402 68.9998 11.2802 69.5398 11.7002C70.5598 12.4202 71.5798 13.2002 72.6598 13.8602C74.2198 14.7602 75.7798 14.7002 77.3398 13.8002C78.2998 13.2002 79.1398 12.5402 80.0998 11.8802C80.5198 11.5802 80.9998 11.2802 81.5398 11.0402C82.1398 10.8002 82.5598 11.1602 82.5598 11.8202C82.5598 12.3002 82.3798 12.7202 82.0198 13.0802C81.2398 13.8602 80.4598 14.7002 79.7398 15.4802C79.6798 15.5402 79.6198 15.6602 79.4998 15.7202C81.1198 17.1602 82.6798 18.4202 85.0198 18.2402C86.5798 18.1202 88.1398 17.8202 89.6998 17.4602C90.2398 17.3402 90.8998 17.2802 91.4398 17.4002C92.2198 17.5202 92.4598 18.3002 91.9198 18.9002C91.6198 19.2602 91.1398 19.5602 90.7198 19.7402C89.9998 20.0402 89.2798 20.2802 88.5598 20.5802C87.2998 21.0602 86.5798 21.9002 86.5198 23.2802C86.3398 25.3202 86.0998 27.4202 85.9198 29.4602C85.7998 30.5402 85.6798 31.5602 85.4998 32.6402C85.3798 33.3002 85.3198 33.3602 84.6598 33.4202C84.5398 33.4202 84.4198 33.4802 84.2998 33.4802C83.2798 33.5402 82.9198 33.3602 82.7398 32.3402C82.3198 30.4802 82.0198 28.6202 81.6598 26.7002C81.3598 25.0202 81.0598 23.4002 80.7598 21.7202C80.6398 20.9402 80.3398 20.2802 79.8598 19.6202C79.3798 18.9602 78.8998 18.3602 78.4198 17.7002C78.2398 17.7602 78.1798 17.7602 78.1198 17.8202Z" fill="white"/>
<path d="M50.9397 10.2C51.6597 9.72004 52.2597 9.30004 52.8597 8.94004C57.1197 6.36004 61.3797 3.78004 65.6997 1.20004C66.6597 0.660041 67.6197 0.120041 68.8197 0.240041C69.4797 0.300041 70.1397 0.420041 70.6797 0.720041C74.6397 2.52004 78.5397 4.32004 82.4397 6.18004C85.4997 7.62004 88.4997 9.18004 91.5597 10.62C91.8597 10.74 92.0997 10.92 92.3397 11.04C92.9997 11.46 92.9397 12.36 92.2797 12.72C91.4397 13.2 90.5997 13.2 89.7597 12.84C88.3797 12.24 87.0597 11.58 85.6797 10.92C82.6797 9.48004 79.6197 8.04004 76.6197 6.60004C75.5397 6.06004 74.5197 6.06004 73.4997 6.60004C71.0397 7.92004 68.5197 9.18004 66.0597 10.5C64.6197 11.28 63.1797 12.18 61.7397 13.02C60.0597 14.04 58.3197 14.1 56.5197 13.2C54.7197 12.24 52.9197 11.28 50.9397 10.2Z" fill="white"/>
<path d="M103.5 23.7602C103.5 21.8402 103.5 19.9202 103.5 17.9402C102.6 17.9402 101.7 17.9402 100.74 17.9402C100.74 19.9202 100.74 21.8402 100.74 23.7602C99.5995 23.7602 98.3995 23.7602 97.2595 23.7602C97.4995 19.3202 97.4995 14.8802 97.2595 10.4402C98.3995 10.4402 99.5995 10.4402 100.74 10.4402C100.74 12.1802 100.74 13.9202 100.74 15.6602C101.64 15.6602 102.54 15.6602 103.5 15.6602C103.5 13.9202 103.5 12.1802 103.5 10.4402C104.64 10.4402 105.84 10.4402 106.92 10.4402C106.92 14.8802 106.92 19.3202 106.92 23.7602C105.9 23.7602 104.7 23.7602 103.5 23.7602Z" fill="white"/>
<path d="M119.1 23.16C118.8 23.4 118.56 23.64 118.26 23.88C118.14 23.94 117.9 24 117.84 23.94C117 23.46 117.18 23.76 117.24 22.8C117.3 22.32 117.3 21.78 117.3 21.3C117.3 18.42 117.3 15.6 117.3 12.72C117.3 12 117.24 11.28 117.18 10.5C118.26 10.5 119.28 10.5 120.42 10.5C120.42 11.88 120.42 13.2 120.42 14.58C120.9 14.46 121.32 14.28 121.8 14.22C123.36 14.04 124.62 14.7 125.22 16.2C126 18.18 125.94 20.16 124.92 22.08C123.78 24.18 121.38 24.72 119.4 23.34C119.28 23.22 119.22 23.22 119.1 23.16ZM120.36 19.08C120.36 19.86 120.36 20.58 120.36 21.36C120.36 21.72 120.48 22.02 120.84 22.14C121.2 22.26 121.56 22.2 121.8 21.9C121.98 21.66 122.16 21.36 122.22 21.06C122.52 19.86 122.52 18.6 122.16 17.4C122.1 17.1 121.92 16.86 121.8 16.62C121.56 16.26 121.2 16.2 120.78 16.32C120.42 16.44 120.36 16.74 120.36 17.16C120.36 17.7 120.36 18.42 120.36 19.08Z" fill="white"/>
<path d="M116.22 23.8201C115.2 23.8201 114.3 23.8201 113.34 23.8201C113.16 23.8201 112.98 23.5201 112.86 23.4601C112.2 23.6401 111.54 23.9401 110.88 23.9401C109.44 24.0001 108.3 23.2801 107.94 22.0801C107.52 20.8201 107.94 19.5001 109.08 18.6001C109.86 17.9401 110.82 17.6401 111.78 17.3401C112.02 17.2801 112.26 17.2201 112.5 17.1001C112.5 16.4401 112.08 15.9601 111.36 15.9001C110.58 15.8401 109.86 16.2001 109.2 16.5601C109.08 16.6201 108.9 16.7401 108.72 16.8601C108.72 15.9601 108.72 15.1201 108.72 14.2201C110.4 14.0401 112.08 13.9201 113.7 14.5801C115.02 15.1201 115.62 16.2001 115.74 17.5801C115.8 18.1801 115.74 18.7201 115.74 19.3201C115.74 20.8201 115.62 22.3201 116.22 23.8201ZM112.74 19.0201C111.72 19.2001 111 19.8601 110.88 20.7001C110.76 21.3001 111.12 21.9001 111.72 22.0201C112.14 22.1401 112.74 21.8401 112.74 21.4801C112.74 20.7001 112.74 19.8601 112.74 19.0201Z" fill="white"/>
<path d="M145.68 23.8202C144.78 23.8202 143.88 23.8202 142.92 23.8202C142.74 23.8202 142.56 23.5202 142.32 23.3402C141.6 23.8802 140.7 24.1202 139.74 23.9402C138.6 23.7602 137.76 23.1002 137.46 22.0202C137.1 20.8202 137.46 19.7402 138.36 18.9002C138.96 18.3002 139.68 17.9402 140.52 17.7002C141 17.5202 141.54 17.4002 142.02 17.2202C142.08 16.5602 141.6 16.0802 140.94 16.0202C140.16 15.9602 139.44 16.2602 138.78 16.6802C138.66 16.7402 138.48 16.8602 138.3 16.9802C138.3 16.5002 138.3 16.0802 138.3 15.6602C138.3 15.2402 138.3 14.8202 138.3 14.3402C139.92 14.1602 141.48 14.0402 143.04 14.5802C144.42 15.0602 145.26 16.1402 145.32 17.5802C145.38 18.9002 145.32 20.2802 145.38 21.6002C145.38 22.3202 145.56 23.0402 145.68 23.8202ZM142.26 19.0202C141.24 19.2002 140.52 19.8602 140.4 20.7002C140.28 21.3602 140.58 21.9002 141.12 22.0202C141.6 22.1402 142.26 21.8402 142.26 21.4802C142.32 20.6402 142.26 19.8602 142.26 19.0202Z" fill="white"/>
<path d="M55.7398 20.5801C55.7998 20.5801 55.8598 20.5801 55.9198 20.5801C57.4198 21.1201 58.9798 21.6601 60.2998 22.6201C61.1398 23.1601 61.4998 24.0001 61.6198 24.9601C61.8598 27.4201 62.0398 29.8801 62.2798 32.2801C62.2798 32.3401 62.2798 32.4001 62.2798 32.5201C62.0998 32.4001 61.9198 32.3401 61.7998 32.2801C59.9998 30.8401 58.1398 29.4001 56.3398 27.9001C55.9798 27.6001 55.7998 27.1801 55.7998 26.7001C55.7998 25.0201 55.7398 23.2801 55.7398 21.6001C55.6798 21.3001 55.7398 20.9401 55.7398 20.5801Z" fill="white"/>
<path d="M146.16 14.34C146.52 14.34 146.82 14.34 147.18 14.34C147.18 13.38 147.18 12.42 147.18 11.46C148.2 11.46 149.22 11.46 150.3 11.46C150.3 12.36 150.3 13.32 150.3 14.28C150.72 14.28 151.2 14.28 151.68 14.28C151.68 14.88 151.68 15.48 151.68 16.14C151.2 16.14 150.78 16.14 150.3 16.14C150.3 16.68 150.3 17.16 150.3 17.64C150.3 18.6 150.3 19.5 150.3 20.46C150.3 21.78 150.42 21.9 151.74 22.08C151.74 22.56 151.74 23.1 151.74 23.58C151.74 23.64 151.62 23.82 151.56 23.82C150.78 23.88 150.06 24.06 149.28 24C148.02 23.82 147.3 22.92 147.3 21.54C147.24 19.92 147.3 18.3 147.3 16.74C147.3 16.56 147.3 16.44 147.3 16.2C146.94 16.2 146.58 16.14 146.22 16.14C146.16 15.54 146.16 15 146.16 14.34Z" fill="white"/>
<path d="M131.94 16.14C131.52 16.14 131.22 16.14 130.86 16.14C130.86 15.54 130.86 14.94 130.86 14.34C131.22 14.34 131.52 14.34 131.88 14.34C131.88 13.38 131.88 12.42 131.88 11.52C132.9 11.52 133.92 11.52 135 11.52C135 12.42 135 13.38 135 14.34C135.42 14.34 135.9 14.34 136.38 14.34C136.38 15 136.38 15.54 136.38 16.2C135.96 16.2 135.48 16.2 135 16.2C135 16.62 135 16.98 135 17.34C135 18.42 135 19.5 135 20.58C135 21.78 135.18 21.96 136.38 22.08C136.38 22.56 136.38 23.1 136.38 23.58C136.38 23.64 136.26 23.82 136.14 23.82C135.42 23.88 134.7 24.06 133.98 24C132.72 23.88 131.94 22.92 131.94 21.6C131.88 19.98 131.94 18.36 131.88 16.74C131.94 16.56 131.94 16.38 131.94 16.14Z" fill="white"/>
<path d="M126.719 14.3401C127.739 14.3401 128.759 14.3401 129.899 14.3401C129.899 17.4601 129.899 20.6401 129.899 23.7601C128.879 23.7601 127.799 23.7601 126.719 23.7601C126.719 20.6401 126.719 17.5201 126.719 14.3401Z" fill="white"/>
<path d="M114.24 30.12C114.24 30.72 114.24 31.2 114.24 31.68C114.24 32.16 114.24 32.7 114.24 33.24C113.64 33.24 112.98 33.24 112.38 33.24C112.38 30.84 112.38 28.44 112.38 26.04C112.98 26.04 113.58 26.04 114.24 26.04C114.24 26.94 114.24 27.9 114.24 28.86C114.72 28.86 115.2 28.86 115.68 28.86C115.68 27.96 115.68 27 115.68 26.1C116.34 26.1 116.94 26.1 117.54 26.1C117.54 28.5 117.54 30.9 117.54 33.3C116.94 33.3 116.34 33.3 115.68 33.3C115.68 32.28 115.68 31.26 115.68 30.18C115.2 30.12 114.72 30.12 114.24 30.12Z" fill="white"/>
<path d="M130.62 33.2401C130.08 33.2401 129.48 33.2401 128.94 33.2401C128.94 32.1601 128.94 31.1401 128.94 30.0601C128.94 29.9401 128.94 29.8201 128.94 29.6401C128.94 29.4001 128.88 29.1601 128.58 29.1601C128.28 29.1601 128.1 29.3401 128.1 29.6401C128.1 29.8201 128.1 30.0601 128.1 30.2401C128.1 31.2001 128.1 32.2201 128.1 33.1801C127.56 33.1801 126.96 33.1801 126.42 33.1801C126.42 32.1601 126.42 31.1401 126.42 30.1201C126.42 29.9401 126.42 29.8201 126.42 29.6401C126.42 29.4001 126.36 29.1001 126 29.1001C125.7 29.1001 125.46 29.3401 125.52 29.6401C125.52 30.7201 125.58 31.8601 125.58 32.9401C125.58 33.0001 125.58 33.0601 125.58 33.1801C124.98 33.1801 124.38 33.1801 123.78 33.1801C123.78 31.5001 123.78 29.8201 123.78 28.0801C124.2 28.0801 124.62 28.0801 125.1 28.0801C125.22 28.0801 125.34 28.2601 125.52 28.3801C126.72 27.7201 127.02 27.7201 127.86 28.4401C128.34 28.2601 128.7 28.0201 129.18 27.9601C129.96 27.7801 130.56 28.2601 130.68 28.9801C130.74 29.4001 130.74 29.8201 130.74 30.2401C130.62 31.2601 130.62 32.2201 130.62 33.2401Z" fill="white"/>
<path d="M122.76 28.1401C122.76 29.8201 122.76 31.5001 122.76 33.2401C122.28 33.2401 121.8 33.2401 121.32 33.2401C121.26 33.1201 121.2 33.0001 121.14 32.8801C120.72 33.2401 120.24 33.4801 119.64 33.3601C119.04 33.2401 118.68 32.8801 118.5 32.2801C118.44 32.0401 118.44 31.7401 118.44 31.4401C118.44 30.3601 118.44 29.2201 118.44 28.0801C118.92 28.0801 119.52 28.0801 120.12 28.0801C120.12 28.4401 120.12 28.8001 120.12 29.1601C120.12 29.9401 120.12 30.7801 120.12 31.5601C120.12 31.8601 120.24 32.1001 120.54 32.1001C120.9 32.1001 121.02 31.8601 121.02 31.5601C121.02 30.4201 121.02 29.2801 121.02 28.1401C121.56 28.1401 122.16 28.1401 122.76 28.1401Z" fill="white"/>
<path d="M137.94 33.24C137.4 33.24 136.8 33.24 136.26 33.24C136.26 31.56 136.26 29.88 136.26 28.14C136.68 28.14 137.1 28.14 137.58 28.14C137.7 28.14 137.82 28.32 137.88 28.44C138.18 28.32 138.54 28.14 138.9 28.02C139.74 27.84 140.46 28.38 140.52 29.22C140.58 29.82 140.58 30.42 140.58 31.02C140.58 31.38 140.58 31.8 140.58 32.16C140.58 32.52 140.58 32.88 140.58 33.24C140.04 33.24 139.44 33.24 138.9 33.24C138.9 32.1 138.9 31.02 138.9 29.94C138.9 29.64 138.9 29.28 138.48 29.28C138.12 29.28 137.94 29.52 137.94 30C137.94 31.02 137.94 32.1 137.94 33.24Z" fill="white"/>
<path d="M69.1794 47.5801C69.5394 45.7201 69.8394 43.9201 70.1994 42.0601C71.1594 42.0601 72.0594 42.0001 72.9594 42.0601C73.6194 42.1201 74.1594 42.3601 74.2794 43.0801C74.4594 43.8601 74.2194 44.2801 73.4994 44.7601C74.1594 45.1801 74.2194 45.8401 73.9794 46.5001C73.7394 47.2201 73.1394 47.5201 72.4794 47.5801C71.3994 47.6401 70.3194 47.5801 69.1794 47.5801ZM70.7994 45.1801C70.7394 45.7201 70.6194 46.1401 70.5594 46.6801C71.1594 46.6201 71.7594 46.6201 72.2994 46.5601C72.6594 46.5001 72.8994 46.1401 72.8994 45.7801C72.8394 45.3601 72.5394 45.2401 72.1794 45.1801C71.7594 45.1201 71.2794 45.1801 70.7994 45.1801ZM70.9794 44.2201C71.5194 44.2201 71.9994 44.2201 72.4794 44.2201C72.8394 44.2201 73.1394 43.9201 73.0794 43.5601C73.0794 43.2001 72.7794 43.0801 72.4194 43.0801C72.0594 43.0801 71.7594 43.0801 71.3994 43.0801C71.2794 43.0801 71.0994 43.2001 71.0994 43.2601C71.0994 43.5601 71.0394 43.8601 70.9794 44.2201Z" fill="white"/>
<path d="M105.06 30.6001C105.06 32.1001 104.34 33.1201 103.2 33.3601C101.7 33.6601 100.44 32.5801 100.32 30.9601C100.26 30.2401 100.38 29.5801 100.8 28.9801C101.4 28.2001 102.36 27.8401 103.32 28.0801C104.22 28.3201 104.94 29.1601 105.06 30.1801C105 30.3601 105 30.5401 105.06 30.6001ZM102.06 30.6601C102.12 31.1401 102.18 31.5601 102.3 31.9801C102.36 32.1001 102.54 32.2801 102.66 32.2801C102.78 32.2801 102.96 32.1001 103.02 31.9801C103.32 31.0801 103.32 30.2401 103.02 29.3401C102.96 29.2201 102.78 29.0401 102.66 29.0401C102.54 29.0401 102.36 29.2201 102.3 29.3401C102.18 29.8201 102.12 30.2401 102.06 30.6601Z" fill="white"/>
<path d="M149.699 30.8401C149.879 29.9401 150.059 29.0401 150.239 28.1401C150.719 28.1401 151.139 28.1401 151.679 28.1401C151.499 28.9201 151.319 29.7001 151.079 30.4201C150.719 31.5601 150.359 32.7001 149.879 33.7801C149.399 34.9201 148.499 35.2801 147.239 35.1001C147.239 34.6801 147.239 34.2601 147.239 33.8401C147.359 33.8401 147.479 33.9001 147.599 33.9001C148.319 34.0201 148.799 33.4801 148.559 32.7601C148.139 31.3801 147.659 29.9401 147.239 28.5601C147.179 28.4401 147.179 28.2601 147.179 28.1401C147.779 28.1401 148.319 28.1401 148.919 28.1401C149.159 29.0401 149.399 29.9401 149.579 30.8401C149.579 30.8401 149.639 30.8401 149.699 30.8401Z" fill="white"/>
<path d="M134.04 33.12C133.44 33.18 132.96 33.3 132.48 33.3C131.88 33.24 131.46 32.88 131.28 32.28C131.1 31.68 131.22 31.14 131.64 30.66C132.06 30.18 132.66 29.94 133.26 29.76C133.44 29.7 133.74 29.52 133.74 29.46C133.68 29.1 133.44 28.98 133.14 28.98C132.78 29.04 132.42 29.22 132.06 29.34C131.94 29.4 131.88 29.4 131.76 29.46C131.76 28.98 131.76 28.56 131.76 28.08C132.72 27.96 133.62 27.9 134.46 28.26C135.24 28.56 135.54 29.22 135.54 30C135.54 30.84 135.6 31.68 135.66 32.52C135.66 32.76 135.78 32.94 135.84 33.24C135.12 33.12 134.46 33.48 134.04 33.12ZM133.86 30.66C133.2 30.78 132.78 31.26 132.9 31.8C132.96 32.1 133.14 32.28 133.44 32.22C133.74 32.22 133.92 32.04 133.86 31.68C133.86 31.44 133.86 31.08 133.86 30.66Z" fill="white"/>
<path d="M123.24 43.9201C122.88 43.9201 122.52 43.9201 122.16 43.9201C122.1 43.2601 121.74 42.9001 121.08 42.9001C120.36 42.9001 119.82 43.3201 119.58 43.9801C119.4 44.5201 119.28 45.0601 119.34 45.6001C119.34 46.3201 119.88 46.7401 120.54 46.7401C121.08 46.8001 121.86 46.3801 121.98 45.6001C121.56 45.6001 121.08 45.6001 120.66 45.6001C120.66 45.5401 120.66 45.4801 120.66 45.4801C120.78 44.7001 120.78 44.7001 121.56 44.7001C122.16 44.7001 122.7 44.7001 123.36 44.7001C123.18 45.6601 123.06 46.6201 122.88 47.5801C122.64 47.5801 122.34 47.5801 122.1 47.5801C122.1 47.4601 122.04 47.3401 122.04 47.1601C121.5 47.6401 120.84 47.8801 120.18 47.7601C118.98 47.6401 118.2 46.8001 118.2 45.5401C118.2 44.9401 118.32 44.2801 118.56 43.6801C119.16 42.1801 120.72 41.5201 122.22 42.0601C122.88 42.3601 123.3 43.0201 123.24 43.9201Z" fill="white"/>
<path d="M100.38 27.0002C99.5995 27.0002 99.3595 27.1202 99.3595 27.6002C99.3595 28.0802 99.3595 28.0802 100.14 28.1402C100.32 28.9802 100.26 29.0402 99.4795 29.1602C99.4795 30.4802 99.4795 31.8602 99.4795 33.1802C98.8795 33.1802 98.3395 33.1802 97.7395 33.1802C97.7395 31.8602 97.7395 30.4802 97.7395 29.1602C97.6195 29.1602 97.4395 29.1002 97.2595 29.1002C97.2595 28.8002 97.2595 28.5002 97.2595 28.1402C97.3795 28.1402 97.5595 28.0802 97.7395 28.0802C97.7995 27.7802 97.7995 27.4202 97.8595 27.1202C98.0395 26.2202 99.4795 25.5002 100.26 25.9202C100.32 25.9802 100.38 26.1002 100.38 26.1602C100.38 26.4602 100.38 26.7002 100.38 27.0002Z" fill="white"/>
<path d="M134.82 43.5001C134.88 44.4001 134.88 45.1801 134.94 46.0201C135 46.0201 135 46.0201 135.06 46.0201C135.3 45.3601 135.6 44.7001 135.84 44.0401C135.96 43.6201 136.2 43.3801 136.68 43.5001C136.86 43.5001 137.04 43.5001 137.28 43.5001C136.92 44.2201 136.62 44.9401 136.32 45.6001C136.08 46.1401 135.84 46.6201 135.6 47.1601C135.48 47.5201 135.24 47.6401 134.94 47.5801C134.76 47.5801 134.52 47.5801 134.28 47.5801C134.22 46.7401 134.16 45.8401 134.16 45.0001C134.1 45.0001 134.1 45.0001 134.04 45.0001C133.8 45.6001 133.56 46.2601 133.32 46.8601C133.02 47.5801 133.02 47.5801 132.24 47.5801C132.12 47.5801 132 47.5801 131.88 47.5801C131.76 46.2601 131.58 44.8801 131.46 43.5601C131.82 43.5601 132.18 43.5601 132.54 43.5601C132.6 44.4001 132.66 45.2401 132.72 46.0801H132.78C132.84 45.9601 132.9 45.8401 132.96 45.7201C133.2 45.1201 133.44 44.5201 133.62 43.9201C133.68 43.6801 133.86 43.5601 134.1 43.5601C134.28 43.5001 134.52 43.5001 134.82 43.5001Z" fill="white"/>
<path d="M145.92 26.5801C145.92 26.8801 145.92 27.1201 145.92 27.3601C145.92 27.6001 145.92 27.8401 145.92 28.0801C146.16 28.0801 146.4 28.0801 146.64 28.0801C146.64 28.4401 146.64 28.7401 146.64 29.1001C146.4 29.1001 146.22 29.1001 145.92 29.1601C145.92 30.0601 145.92 30.9601 145.92 31.8601C145.92 32.2801 146.28 32.2801 146.64 32.2801C146.64 32.5201 146.64 32.7601 146.64 33.0001C146.64 33.0601 146.52 33.2401 146.46 33.2401C145.98 33.2401 145.44 33.3001 144.96 33.2401C144.54 33.1801 144.3 32.8201 144.24 32.3401C144.18 31.6201 144.18 30.9001 144.18 30.1801C144.18 29.8201 144.18 29.5201 144.18 29.2201C143.52 29.0401 143.52 29.0401 143.64 28.1401C143.82 28.1401 143.94 28.1401 144.18 28.0801C144.18 27.6001 144.18 27.1201 144.18 26.5801C144.78 26.5801 145.32 26.5801 145.92 26.5801Z" fill="white"/>
<path d="M86.9396 43.9801C87.0596 43.3801 87.1796 42.7201 87.2996 42.0601C87.6596 42.0601 88.0196 42.0601 88.4396 42.0601C88.0796 43.9201 87.7796 45.7201 87.4196 47.5801C87.0596 47.5801 86.7596 47.5801 86.4596 47.5801C86.4596 47.4601 86.4596 47.2801 86.5196 47.1001C86.1596 47.5801 85.6796 47.8201 85.0796 47.7001C84.4196 47.6401 83.9996 47.2201 83.8796 46.5001C83.6996 45.6001 83.8796 44.7601 84.4196 43.9801C84.8396 43.3801 85.6196 43.1401 86.1596 43.3801C86.4596 43.5601 86.6396 43.8001 86.9396 43.9801ZM86.7596 45.3001C86.6396 44.7001 86.5196 44.4001 86.0996 44.3401C85.6796 44.2201 85.2596 44.4601 85.0796 44.9401C84.9596 45.3001 84.8996 45.7201 84.8396 46.0801C84.7796 46.4401 84.9596 46.6801 85.3196 46.8001C85.6796 46.9201 85.9796 46.8001 86.1596 46.5001C86.4596 46.1401 86.6396 45.7201 86.7596 45.3001Z" fill="white"/>
<path d="M97.6795 43.8001C98.0395 43.6801 98.3995 43.5001 98.7595 43.4401C99.6595 43.2601 100.26 43.9201 100.14 44.8201C100.08 45.5401 99.8995 46.2001 99.7795 46.9201C99.7195 47.1601 99.6595 47.4001 99.6595 47.5801C99.2995 47.5801 98.9395 47.5801 98.5795 47.5801C98.7595 46.7401 98.8795 45.9001 98.9995 45.0601C99.0595 44.8201 98.9395 44.4601 98.8195 44.4001C98.6395 44.2801 98.2195 44.2801 98.0395 44.4001C97.7995 44.6401 97.5595 44.9401 97.4395 45.3001C97.2595 46.0201 97.1395 46.7401 97.0195 47.5201C96.6595 47.5201 96.2995 47.5201 95.8795 47.5201C96.1795 45.7201 96.5395 43.9801 96.8395 42.2401C96.8395 42.1201 97.0195 42.0001 97.1395 42.0001C97.3795 41.9401 97.6795 42.0001 97.9795 42.0001C97.9195 42.6601 97.7995 43.2601 97.6795 43.8001Z" fill="white"/>
<path d="M101.52 6.36016C100.44 6.42016 100.38 6.42016 100.14 5.46016C100.08 5.16016 99.8996 5.04016 99.5996 5.04016C98.4596 5.04016 98.4596 5.04016 98.1596 6.12016C98.1596 6.24016 97.9796 6.36016 97.8596 6.42016C97.6196 6.48016 97.3796 6.42016 97.1396 6.42016C97.4996 5.34016 97.7996 4.32016 98.1596 3.24016C98.3396 2.76016 98.4596 2.28016 98.5796 1.80016C98.6996 1.44016 98.6996 1.02016 98.7596 0.600156C99.7196 0.480156 99.7197 0.480156 100.02 1.44016C100.5 3.12016 101.04 4.74016 101.52 6.36016ZM99.2396 2.46016H99.1796C98.9996 3.06016 98.8196 3.60016 98.6396 4.26016C99.0596 4.26016 99.3596 4.26016 99.7796 4.26016C99.5996 3.60016 99.4196 3.06016 99.2396 2.46016Z" fill="white"/>
<path d="M113.28 45.9601C112.32 45.9601 111.42 45.9601 110.52 45.9601C110.46 46.3201 110.52 46.6201 110.82 46.7401C111.06 46.8601 111.48 46.8601 111.6 46.7401C112.08 46.3201 112.62 46.5001 113.16 46.4401C113.1 46.5601 113.1 46.6801 113.04 46.8001C112.62 47.5201 111.72 47.9401 110.82 47.7601C109.98 47.5801 109.56 47.1001 109.44 46.1401C109.26 44.8801 109.98 43.7401 111.12 43.4401C111.78 43.2601 112.44 43.3801 112.92 43.9201C113.4 44.4601 113.4 45.1801 113.28 45.9601ZM112.2 45.1201C112.26 44.5801 112.08 44.3401 111.66 44.2801C111.12 44.2201 110.76 44.5201 110.64 45.1201C111.18 45.1201 111.66 45.1201 112.2 45.1201Z" fill="white"/>
<path d="M73.1396 11.22C73.1396 10.2 73.9796 9.36005 74.9996 9.30005C76.0196 9.30005 76.9196 10.14 76.9196 11.16C76.9196 12.18 76.0796 13.08 74.9996 13.08C73.9796 13.08 73.1396 12.24 73.1396 11.22Z" fill="white"/>
<path d="M67.7998 15.0001C67.7998 16.0201 66.9598 16.8601 65.9398 16.8601C64.9198 16.8601 64.0198 16.0201 64.0198 14.9401C64.0198 13.9201 64.8598 13.0801 65.8798 13.0801C66.9598 13.0801 67.7998 13.9801 67.7998 15.0001Z" fill="white"/>
<path d="M82.2595 15.0001C82.2595 13.9801 83.1595 13.1401 84.1795 13.1401C85.1995 13.1401 86.0995 14.0401 86.0395 15.0601C85.9795 16.0801 85.1395 16.9201 84.1195 16.9201C83.0995 16.9201 82.2595 16.0201 82.2595 15.0001Z" fill="white"/>
<path d="M107.52 33.24C106.86 33.24 106.26 33.24 105.66 33.24C105.66 31.56 105.66 29.88 105.66 28.14C106.08 28.14 106.56 28.08 107.1 28.14C107.22 28.14 107.34 28.44 107.4 28.56C107.76 28.38 108.06 28.2 108.48 28.02C108.72 27.9 108.9 27.96 108.9 28.32C108.9 28.68 108.9 29.04 108.9 29.34C108.06 29.34 107.7 29.58 107.58 30.36C107.52 31.2 107.52 31.98 107.52 32.82C107.46 33 107.52 33.12 107.52 33.24Z" fill="white"/>
<path d="M130.98 45.2401C130.98 46.6801 130.02 47.7001 128.64 47.7001C127.5 47.7001 126.72 46.9201 126.66 45.7801C126.66 44.4001 127.68 43.3201 129 43.3201C130.26 43.3201 130.98 44.0401 130.98 45.2401ZM129.96 45.3001C129.84 44.7601 129.66 44.4001 129.24 44.2801C128.82 44.1601 128.34 44.3401 128.1 44.8201C127.92 45.1801 127.86 45.5401 127.86 45.9601C127.8 46.3201 128.04 46.6801 128.4 46.8001C128.76 46.9201 129.24 46.8001 129.48 46.4401C129.66 46.0801 129.78 45.7201 129.96 45.3001Z" fill="white"/>
<path d="M78.4197 47.58C78.0597 47.58 77.7597 47.58 77.3997 47.58C77.3997 47.4 77.4597 47.28 77.4597 47.04C77.0397 47.46 76.6197 47.7 76.0797 47.7C75.2997 47.7 74.8197 47.16 74.8797 46.38C74.9997 45.42 75.1797 44.46 75.3597 43.5C75.7197 43.5 76.0797 43.5 76.4997 43.5C76.3797 44.22 76.2597 44.94 76.0797 45.66C76.0797 45.78 76.0197 45.9 76.0197 46.02C76.0797 46.26 76.0797 46.56 76.1997 46.62C76.3797 46.74 76.7397 46.68 76.9197 46.62C77.3397 46.44 77.4597 46.02 77.5797 45.54C77.6997 44.88 77.8197 44.16 77.9397 43.5C78.2997 43.5 78.6597 43.5 79.0797 43.5C78.8997 44.88 78.6597 46.2 78.4197 47.58Z" fill="white"/>
<path d="M93.7797 47.58C93.4197 47.58 93.0597 47.58 92.6397 47.58C92.7597 46.8 92.8797 46.08 93.0597 45.3C93.1797 44.58 93.3597 43.8 93.4797 43.02C92.9997 43.02 92.5197 43.02 92.0397 43.02C92.0997 42.66 92.1597 42.36 92.2197 42C93.5397 42 94.7997 42 96.1797 42C96.1197 42.3 96.0597 42.6 95.9997 42.96C95.6997 42.96 95.3997 42.96 95.0997 42.96C94.7997 42.96 94.6797 43.08 94.6197 43.38C94.3797 44.7 94.1397 46.02 93.8997 47.28C93.8397 47.46 93.8397 47.52 93.7797 47.58Z" fill="white"/>
<path d="M128.34 13.68C127.38 13.68 126.6 12.96 126.6 12C126.6 11.04 127.38 10.26 128.28 10.26C129.24 10.26 130.02 11.04 130.02 11.94C130.02 12.9 129.24 13.68 128.34 13.68Z" fill="white"/>
<path d="M141.3 28.1401C141.84 28.1401 142.44 28.1401 143.04 28.1401C143.04 29.8201 143.04 31.5001 143.04 33.2401C142.5 33.2401 141.9 33.2401 141.3 33.2401C141.3 31.5601 141.3 29.8801 141.3 28.1401Z" fill="white"/>
<path d="M109.08 6.42003C108.66 6.36003 108.3 6.30003 108 6.30003C108 6.24003 108 6.24003 108 6.18003C107.76 6.30003 107.58 6.42003 107.34 6.48003C106.8 6.60003 106.38 6.42003 106.08 6.00003C105.84 5.52003 105.84 4.86003 106.26 4.50003C106.62 4.20003 107.04 3.96003 107.46 3.72003C107.64 3.66003 107.82 3.60003 108 3.54003C107.88 2.82003 107.52 2.76003 106.44 3.12003C106.44 2.82003 106.44 2.52003 106.44 2.16003C107.16 2.04003 107.94 2.04003 108.54 2.58003C108.78 2.76003 108.96 3.18003 109.02 3.48003C109.08 4.20003 109.08 4.98003 109.14 5.76003C109.02 5.94003 109.08 6.12003 109.08 6.42003ZM108 4.32003C107.34 4.38003 106.92 4.68003 106.92 5.16003C106.92 5.52003 107.1 5.76003 107.46 5.76003C107.82 5.76003 108 5.64003 108 5.22003C108 4.92003 108 4.62003 108 4.32003Z" fill="white"/>
<path d="M110.76 6.36009C110.4 6.36009 110.1 6.36009 109.74 6.36009C109.74 5.04009 109.74 3.66009 109.74 2.34009C110.04 2.40009 110.4 2.10009 110.64 2.58009C110.82 2.46009 110.94 2.34009 111.18 2.28009C111.84 1.98009 112.56 2.34009 112.56 3.12009C112.62 4.20009 112.56 5.28009 112.56 6.36009C112.32 6.36009 112.02 6.36009 111.72 6.36009C111.72 5.64009 111.72 4.92009 111.72 4.20009C111.72 3.96009 111.72 3.72009 111.66 3.48009C111.6 3.24009 111.54 3.00009 111.18 3.00009C110.88 3.06009 110.64 3.24009 110.64 3.54009C110.64 4.38009 110.64 5.16009 110.7 6.00009C110.82 6.18009 110.76 6.24009 110.76 6.36009Z" fill="white"/>
<path d="M116.1 3.12018C116.04 2.10018 115.92 2.16018 117 2.22018C117.3 2.22018 117.6 2.34018 117.9 2.46018C118.38 2.64018 118.62 3.06018 118.68 3.60018C118.74 4.56018 118.74 5.46018 118.74 6.48018C118.44 6.42018 118.08 6.42018 117.78 6.36018C117.78 6.30018 117.78 6.24018 117.78 6.18018C117.72 6.24018 117.6 6.30018 117.54 6.36018C116.94 6.72018 116.34 6.60018 115.98 6.18018C115.56 5.70018 115.56 4.86018 116.1 4.44018C116.46 4.14018 116.94 3.96018 117.36 3.72018C117.48 3.66018 117.6 3.66018 117.72 3.60018C117.6 2.88018 117.48 2.88018 116.1 3.12018ZM117.78 4.32018C117.24 4.32018 116.76 4.56018 116.7 5.04018C116.7 5.22018 116.76 5.52018 116.88 5.58018C117 5.70018 117.3 5.70018 117.48 5.64018C117.6 5.58018 117.72 5.34018 117.72 5.16018C117.78 4.92018 117.78 4.62018 117.78 4.32018Z" fill="white"/>
<path d="M105.84 43.5001C106.26 43.5001 106.56 43.5001 106.92 43.5001C106.98 44.4001 107.04 45.2401 107.1 46.0801H107.16C107.46 45.3601 107.82 44.6401 108.06 43.9201C108.18 43.5601 108.36 43.3801 108.78 43.4401C108.96 43.4401 109.2 43.4401 109.5 43.4401C108.84 44.8201 108.18 46.2001 107.52 47.5201C107.1 47.5201 106.74 47.5201 106.32 47.5201C106.2 46.2601 106.02 44.8801 105.84 43.5001Z" fill="white"/>
<path d="M115.38 2.94008C115.2 2.94008 114.96 3.00008 114.72 3.00008C114.72 3.78008 114.66 4.62008 114.72 5.40008C114.72 5.58008 115.08 5.70008 115.32 5.82008C115.38 6.06008 115.5 6.36008 115.08 6.42008C114.54 6.54008 114.06 6.36008 113.88 5.94008C113.82 5.70008 113.76 5.46008 113.76 5.28008C113.76 4.50008 113.76 3.78008 113.76 3.00008C113.58 3.00008 113.4 2.94008 113.28 2.94008C113.28 2.76008 113.28 2.52008 113.28 2.34008C113.46 2.34008 113.58 2.34008 113.76 2.28008C113.76 1.86008 113.76 1.50008 113.76 1.08008C114.12 1.08008 114.36 1.08008 114.72 1.08008C114.72 1.50008 114.72 1.86008 114.72 2.28008C114.96 2.28008 115.14 2.28008 115.38 2.34008C115.38 2.52008 115.38 2.76008 115.38 2.94008Z" fill="white"/>
<path d="M103.2 2.34008C103.44 2.34008 103.62 2.34008 103.86 2.34008C103.86 2.58008 103.86 2.76008 103.86 3.00008C103.62 3.00008 103.44 3.00008 103.2 3.00008C103.2 3.84008 103.2 4.62008 103.2 5.46008C103.2 5.64008 103.56 5.76008 103.74 5.88008C103.8 5.88008 103.86 5.88008 103.92 5.88008C103.8 6.06008 103.74 6.36008 103.56 6.42008C103.14 6.66008 102.6 6.48008 102.42 6.18008C102.36 6.00008 102.3 5.76008 102.24 5.52008C102.24 4.68008 102.24 3.90008 102.24 3.06008C102.06 3.00008 101.88 3.00008 101.76 2.94008C101.76 2.76008 101.76 2.58008 101.76 2.34008C101.94 2.34008 102.06 2.28008 102.24 2.28008C102.24 1.86008 102.24 1.50008 102.24 1.08008C102.54 1.08008 102.84 1.08008 103.2 1.08008C103.2 1.50008 103.2 1.86008 103.2 2.34008Z" fill="white"/>
<path d="M83.6997 42.0599C83.3397 43.9199 83.0397 45.7199 82.6797 47.5799C82.3197 47.5799 81.9597 47.5799 81.5397 47.5799C81.7197 46.4399 81.9597 45.2999 82.1397 44.1599C82.2597 43.5599 82.3797 43.0199 82.4397 42.4199C82.4997 42.1199 82.6197 41.9999 82.8597 42.0599C83.1597 42.0599 83.3997 42.0599 83.6997 42.0599Z" fill="white"/>
<path d="M100.62 47.5802C100.86 46.2602 101.1 45.0002 101.34 43.6802C101.34 43.5602 101.52 43.5002 101.64 43.4402C101.88 43.3802 102.12 43.4402 102.36 43.4402C102.36 43.6202 102.36 43.7402 102.36 43.9202C102.72 43.5602 103.08 43.2002 103.68 43.3202C103.62 43.6802 103.62 44.0402 103.56 44.3402C102.6 44.4002 102.3 44.6402 102.12 45.6002C102 46.1402 101.94 46.6202 101.88 47.1602C101.82 47.4002 101.76 47.5202 101.52 47.5202C101.16 47.5802 100.92 47.5802 100.62 47.5802Z" fill="white"/>
<path d="M125.52 43.5C125.52 43.68 125.46 43.8 125.4 44.04C125.76 43.56 126.12 43.26 126.78 43.38C126.72 43.74 126.66 44.1 126.66 44.4C125.7 44.46 125.46 44.64 125.28 45.66C125.22 45.96 125.16 46.26 125.1 46.62C125.04 46.92 124.98 47.22 124.92 47.58C124.56 47.58 124.2 47.58 123.78 47.58C124.02 46.2 124.26 44.88 124.5 43.56C124.8 43.5 125.16 43.5 125.52 43.5Z" fill="white"/>
<path d="M104.4 0.600098C104.7 0.600098 105 0.600098 105.36 0.600098C105.36 2.5201 105.36 4.4401 105.36 6.3601C105.06 6.3601 104.76 6.3601 104.4 6.3601C104.4 4.4401 104.4 2.5801 104.4 0.600098Z" fill="white"/>
<path d="M104.64 47.58C104.22 47.58 103.92 47.58 103.5 47.58C103.74 46.2 103.98 44.88 104.22 43.5C104.58 43.5 104.94 43.5 105.36 43.5C105.12 44.88 104.88 46.2 104.64 47.58Z" fill="white"/>
<path d="M80.5798 47.58C80.2198 47.58 79.8598 47.58 79.4998 47.58C79.6198 46.86 79.7398 46.2 79.8598 45.54C79.9798 44.88 80.0998 44.22 80.2198 43.5C80.5798 43.5 80.9398 43.5 81.3598 43.5C81.0598 44.88 80.8198 46.2 80.5798 47.58Z" fill="white"/>
<path d="M142.2 27.7799C141.66 27.7799 141.24 27.3599 141.24 26.8799C141.24 26.3999 141.66 25.9799 142.14 25.9199C142.68 25.9199 143.1 26.2799 143.1 26.8199C143.1 27.3599 142.74 27.7799 142.2 27.7799Z" fill="white"/>
<path d="M153.72 25.8C154.62 25.8 155.34 26.46 155.34 27.36C155.34 28.26 154.62 28.92 153.72 28.92C152.82 28.92 152.16 28.2 152.16 27.36C152.1 26.52 152.82 25.8 153.72 25.8ZM154.98 27.36C154.98 26.58 154.44 26.04 153.72 26.04C153 26.04 152.46 26.58 152.46 27.36C152.46 28.08 153 28.68 153.72 28.68C154.44 28.68 154.98 28.14 154.98 27.36Z" fill="white"/>
<path d="M115.2 46.4402C115.14 46.8602 115.08 47.2202 114.96 47.5802C114.54 47.5802 114.18 47.5802 113.76 47.5802C113.76 47.5202 113.76 47.4002 113.82 47.3402C114.06 46.3202 114.06 46.3202 115.2 46.4402Z" fill="white"/>
<path d="M88.4996 47.5801C88.4996 47.5201 88.4996 47.4601 88.4996 47.4001C88.6196 46.3801 88.7396 46.2601 89.8796 46.5001C89.8196 46.8601 89.7596 47.2201 89.6996 47.5801C89.2196 47.5801 88.8596 47.5801 88.4996 47.5801Z" fill="white"/>
<path d="M138.12 47.5802C137.7 47.5802 137.34 47.5802 136.92 47.5802C136.98 47.2202 137.04 46.9202 137.1 46.6202C137.1 46.5602 137.22 46.4402 137.34 46.4402C137.64 46.4402 137.94 46.4402 138.3 46.4402C138.24 46.8602 138.18 47.2202 138.12 47.5802Z" fill="white"/>
<path d="M105.66 42.0001C105.6 42.3001 105.54 42.6001 105.48 42.9001C105.12 42.9001 104.76 42.9001 104.4 42.9001C104.46 41.8801 104.64 41.7601 105.66 42.0001Z" fill="white"/>
<path d="M80.3396 42.9C80.3996 41.88 80.4596 41.82 81.5996 42C81.5396 42.3 81.4796 42.6 81.4796 42.9C81.0596 42.9 80.6996 42.9 80.3396 42.9Z" fill="white"/>
<path d="M153.12 26.4001C153.36 26.4001 153.54 26.4001 153.78 26.4001C154.08 26.4001 154.38 26.4001 154.5 26.7601C154.62 27.1201 154.44 27.3601 154.08 27.4801C154.26 27.7201 154.38 27.9601 154.62 28.3201C154.44 28.2601 154.26 28.2601 154.2 28.2001C154.08 28.1401 154.08 27.9601 153.96 27.9001C153.84 27.7801 153.66 27.6601 153.54 27.5401C153.48 27.7201 153.48 27.9001 153.42 28.0201C153.36 28.1401 153.3 28.2001 153.24 28.3201C153.18 28.2601 153.12 28.1401 153.12 28.0801C153.12 27.4801 153.12 27.0001 153.12 26.4001ZM153.48 26.5801C153.48 26.8801 153.48 27.0001 153.48 27.2401C153.72 27.1801 153.96 27.1201 154.14 27.0601C154.2 27.0601 154.2 26.8201 154.14 26.8201C153.96 26.7601 153.72 26.7001 153.48 26.5801Z" fill="white"/>
</g>
<defs>
<clipPath id="clip0_1093_28780">
<rect width="105" height="48" fill="white" transform="translate(50.6396)"/>
</clipPath>
</defs>
</svg>
