<svg width="207" height="66" viewBox="0 0 207 66" fill="none" xmlns="http://www.w3.org/2000/svg">
<path fill-rule="evenodd" clip-rule="evenodd" d="M86.5222 41.7849C86.5222 41.7849 87.8585 55.0536 84.5296 65.0403C84.5296 65.0403 86.0065 55.5225 83.7794 46.9892L86.5222 41.7849Z" fill="white"/>
<path d="M84.4593 33.2282C81.7634 47.8566 70.1825 60.1876 66.8536 63.7978C73.5818 58.3122 85.1626 46.7782 87.5538 30.837C88.7962 22.5148 88.679 16.2086 86.9911 10.4417L83.6622 11.0981C85.7018 17.0057 86.1472 24.1558 84.4593 33.2282Z" fill="white"/>
<path fill-rule="evenodd" clip-rule="evenodd" d="M72.5268 21.6941C78.5048 26.2655 76.0667 30.6962 74.7305 33.1577C73.1832 36.0412 72.9488 37.6119 73.5114 40.0265C73.7927 41.1752 73.7927 42.4411 73.4645 43.6132C72.8785 45.7231 71.5891 47.5048 71.5891 47.5048L71.636 47.4579C71.636 47.4579 76.1839 44.3165 75.5041 40.0968C75.1056 37.6353 76.0667 36.1115 77.6139 33.2515C78.9736 30.7665 80.3802 22.8194 72.5268 21.6941Z" fill="white"/>
<path fill-rule="evenodd" clip-rule="evenodd" d="M60.3834 16.771C60.2897 16.4897 60.1724 16.2787 60.0552 15.8802C59.8442 15.0128 59.938 14.5205 60.571 14.3799C60.8054 14.333 61.2977 14.1923 61.7197 14.122C62.3058 14.0048 62.7512 14.122 62.9387 14.9425C63.5013 17.2633 62.4699 16.5132 63.7358 18.4355C65.0017 20.3578 66.502 22.6318 66.502 22.6318C66.502 22.6318 67.7445 21.5768 68.143 20.1468C68.4947 18.8575 69.198 15.6458 73.9803 15.763C73.9803 15.763 71.847 17.3337 70.7921 20.8736C69.4793 25.2574 65.4237 26.4999 65.4237 26.4999C65.4237 26.4999 62.3995 20.5688 61.8369 19.0919C61.2977 17.5915 60.6413 17.5915 60.3834 16.771Z" fill="white"/>
<path fill-rule="evenodd" clip-rule="evenodd" d="M110.856 6.36247C110.856 6.36247 109.801 4.97934 108.465 5.26065L69.4793 13.6298C69.3856 13.5126 69.2449 13.4188 68.9636 13.4891C68.2837 13.6298 62.3058 14.9426 61.8838 15.0364C61.4618 15.1301 61.8369 16.4429 62.1651 16.3726C62.4933 16.3023 68.6823 14.9426 69.2449 14.8254C69.5731 14.755 69.6434 14.5909 69.6669 14.4034L106.121 6.62034C107.129 6.38591 107.785 6.5969 108.629 7.62839C109.145 8.26135 109.825 9.62104 109.825 9.62104C109.825 9.62104 109.989 9.99613 110.34 9.85547L112.263 9.19907C112.638 9.05841 112.474 8.7771 112.474 8.7771C112.474 8.7771 111.677 7.39396 110.856 6.36247Z" fill="white"/>
<path fill-rule="evenodd" clip-rule="evenodd" d="M71.05 7.93322C71.4251 7.53469 72.0347 7.44092 72.316 7.3237C71.5424 6.57353 69.3622 6.175 68.1197 8.61307C67.5805 9.62111 65.8926 10.1603 65.0018 8.6834C64.8611 9.26947 65.4003 11.942 68.2135 11.3793C70.2061 10.9808 69.8779 8.94127 71.05 7.93322Z" fill="white"/>
<path fill-rule="evenodd" clip-rule="evenodd" d="M79.9583 6.50321C80.4741 6.94862 80.1459 7.25338 79.9583 7.62847C78.9268 9.69145 82.2323 9.41013 82.2323 9.41013L81.5993 8.77717C81.4118 8.56618 81.2946 8.42553 81.2946 8.23798C81.2946 8.14421 81.3415 8.00355 81.4352 7.8629C81.6931 7.41748 81.8103 7.06584 81.8338 6.76108C81.8572 6.19845 81.5993 5.96402 81.2008 5.65926L81.1539 5.61237C83.6858 4.67466 83.8264 2.21315 83.8264 2.21315L79.3723 1.60363C78.0126 -0.0373774 76.4184 -0.459351 74.0038 0.525253C70.8156 2.04904 70.8625 5.21384 70.8625 5.21384C70.8625 5.21384 71.5189 3.92448 72.6207 2.96332C74.1679 1.62707 76.5122 0.595582 78.5283 3.03365C78.5283 3.03365 81.4352 3.26808 81.8103 3.33841C81.8103 3.33841 81.529 4.08858 81.0367 4.34645C79.6536 5.07318 78.4345 4.32301 77.5437 4.46367C75.5042 4.74498 74.6602 6.31566 74.6602 6.31566C74.6602 6.31566 77.7312 4.81531 79.9583 6.50321Z" fill="white"/>
<path d="M96.6028 22.8665C96.6028 23.1712 96.6028 34.0956 96.6028 34.4238C96.9075 34.4238 106.261 34.4238 106.566 34.4238C106.566 34.166 106.566 32.9235 106.566 32.689C106.261 32.689 98.361 32.689 98.361 32.689C98.361 32.689 98.361 23.1947 98.361 22.8899C98.1031 22.8665 96.8607 22.8665 96.6028 22.8665Z" fill="white"/>
<path d="M126.399 22.8665C124.687 22.8665 123.281 23.3822 122.179 24.4137C121.101 25.4452 120.538 26.8283 120.538 28.4928C120.538 30.1807 121.101 31.6107 122.203 32.7359C123.304 33.8378 124.711 34.4004 126.399 34.4004C126.399 34.4004 131.556 34.4004 131.861 34.4004C131.861 34.0956 131.861 28.4693 131.861 28.1646C131.556 28.1646 125.625 28.1646 125.32 28.1646C125.32 28.4224 125.32 29.6415 125.32 29.8993C125.625 29.8993 130.103 29.8993 130.103 29.8993V32.6422H126.399C125.227 32.6422 124.242 32.2671 123.468 31.5404C122.695 30.8136 122.32 29.829 122.32 28.6569C122.32 27.4613 122.718 26.4767 123.468 25.7265C124.242 24.9763 125.227 24.5778 126.399 24.5778C126.399 24.5778 131.58 24.5778 131.884 24.5778C131.884 24.3199 131.884 23.0774 131.884 22.843C131.58 22.8665 126.399 22.8665 126.399 22.8665Z" fill="white"/>
<path d="M108.113 22.8665C108.113 23.1712 108.113 34.0956 108.113 34.4238C108.371 34.4238 109.614 34.4238 109.872 34.4238C109.872 34.1191 109.872 31.0715 109.872 31.0715H114.56C115.849 31.0715 116.928 30.7198 117.795 29.9931C118.709 29.2195 119.178 28.2115 119.178 26.969C119.178 25.7265 118.709 24.695 117.819 23.9448C116.975 23.2181 115.873 22.843 114.584 22.843C114.537 22.8665 108.418 22.8665 108.113 22.8665ZM109.872 24.6247H114.888C115.615 24.6247 116.225 24.8357 116.717 25.2576C117.209 25.6796 117.467 26.2657 117.467 26.969C117.467 27.6957 117.209 28.2583 116.717 28.7038C116.225 29.1257 115.615 29.3602 114.888 29.3602H109.872V24.6247Z" fill="white"/>
<path d="M138.8 23.7807C138.8 23.7807 138.753 23.8745 138.73 23.898C138.73 23.898 133.666 33.955 133.432 34.4238C133.83 34.4238 135.237 34.4238 135.401 34.4238C135.495 34.2597 136.972 31.2825 136.972 31.2825H142.856C142.856 31.2825 144.333 34.2363 144.403 34.4004C144.567 34.4004 145.927 34.4004 146.325 34.4238C146.114 33.9784 141.168 23.898 141.168 23.898L141.097 23.7339C140.91 23.3588 140.629 22.8196 139.949 22.8196C139.316 22.8196 138.988 23.4525 138.8 23.7807ZM139.949 25.3983L142.012 29.5477H137.862L139.949 25.3983Z" fill="white"/>
</svg>
