<svg width="147" height="56" viewBox="0 0 147 56" fill="none" xmlns="http://www.w3.org/2000/svg">
<path d="M81.1273 24.2217C80.921 24.2829 80.7987 24.3669 80.6917 24.5274C80.5465 24.7491 80.3324 24.9249 80.149 25.1312C79.9121 25.3987 79.6828 25.6662 79.4459 25.9337C79.3159 26.079 79.1784 26.2242 79.0408 26.3694C78.9644 26.4535 78.8956 26.5375 78.8192 26.6292C78.4982 26.9961 78.1848 27.3706 77.8714 27.7375C77.6727 27.9668 77.4587 28.1808 77.26 28.4024C77.0689 28.6164 76.8855 28.838 76.7021 29.052L76.0601 29.7858C75.7467 30.145 75.441 30.5042 75.1276 30.8634C75.0665 30.9398 74.9901 31.001 74.9289 31.0774C74.5621 31.4672 74.2105 31.8723 73.836 32.2544C73.3698 32.7283 72.7966 32.82 72.1851 32.6518C71.9711 32.5907 71.7877 32.4073 71.5966 32.2697C71.5202 32.2162 71.4514 32.1551 71.3903 32.0863C71.0234 31.6736 70.6642 31.2608 70.2973 30.8558C70.1063 30.6418 69.9075 30.4354 69.7165 30.2214C69.5025 29.9845 69.2961 29.7399 69.0898 29.503C68.914 29.3043 68.7305 29.1132 68.5548 28.9145C68.2949 28.6164 68.0503 28.3107 67.7905 28.0126C67.6987 27.9056 67.5917 27.8063 67.4924 27.6992C67.0338 27.1872 66.5752 26.6827 66.1167 26.1707C65.7422 25.7503 65.383 25.3223 65.0084 24.902C64.8632 24.7415 64.7257 24.5733 64.5804 24.4128C64.5422 24.3746 64.5117 24.3134 64.4658 24.2982C64.3817 24.2676 64.2977 24.2447 64.2059 24.2523C64.183 24.2523 64.1524 24.3669 64.1524 24.4281V31.6353C64.1524 31.8341 64.1372 32.0328 64.1142 32.2315C64.0913 32.4761 63.9614 32.6366 63.7244 32.6671C63.541 32.6977 63.3194 32.713 63.1665 32.6366C63.0289 32.5678 62.9296 32.3691 62.8532 32.2086C62.8073 32.1168 62.8149 31.9869 62.8149 31.8723V23.8702C62.8149 23.6179 62.8761 23.3887 62.9907 23.167C63.1589 22.846 63.4569 22.7237 63.7856 22.6779C64.2136 22.6167 64.5881 22.7314 64.9473 22.9759C65.3906 23.274 65.7116 23.6944 66.0555 24.0842C66.3689 24.4357 66.6899 24.772 67.0032 25.1236C67.2937 25.4522 67.5612 25.7962 67.844 26.1325C67.9204 26.2242 68.0121 26.3006 68.0962 26.3847C68.3637 26.6904 68.6159 26.9961 68.8834 27.3018C69.0439 27.4852 69.212 27.661 69.3725 27.8445L70.1292 28.7158C70.4043 29.0291 70.6871 29.3425 70.9699 29.6635C71.3444 30.0915 71.7189 30.5348 72.0934 30.9628C72.2692 31.1615 72.4526 31.3449 72.6361 31.536C72.7125 31.6124 72.7813 31.6201 72.8577 31.536C73.1176 31.2379 73.3774 30.9475 73.6373 30.657C73.8513 30.4125 74.0653 30.1679 74.2716 29.9233C74.4398 29.7323 74.6003 29.5335 74.7608 29.3425C75.0971 28.9527 75.441 28.5629 75.7773 28.1731C76.2053 27.684 76.6333 27.2025 77.0536 26.7057C77.2676 26.4535 77.4664 26.1936 77.6804 25.949C77.8714 25.7197 78.0778 25.4981 78.2765 25.2688C78.5058 25.0013 78.7274 24.7185 78.9644 24.451C79.2472 24.1377 79.5376 23.8319 79.8204 23.5186C79.9044 23.4192 79.9732 23.3046 80.0726 23.2205C80.3936 22.9683 80.7299 22.7543 81.1579 22.7084C81.4483 22.6779 81.7158 22.7084 81.9604 22.846C82.2279 22.9836 82.3578 23.2511 82.4266 23.5339C82.4648 23.6944 82.4725 23.8702 82.4725 24.0383V31.8952C82.4725 32.1016 82.4342 32.285 82.3196 32.4761C82.1744 32.713 81.8763 32.7359 81.5859 32.6824C81.326 32.6289 81.2037 32.4837 81.1732 32.2086C81.1579 32.1092 81.1502 32.0022 81.1502 31.9028V24.5657C81.1502 24.4587 81.1273 24.3517 81.112 24.2294H81.1273V24.2217Z" fill="white"/>
<path d="M104.675 27.9209V24.1606C104.675 23.9772 104.698 23.7938 104.713 23.6104C104.736 23.297 104.935 23.1441 105.203 23.0066C105.547 22.8308 105.906 22.8231 106.273 22.7773C107.282 22.6397 108.29 22.5862 109.307 22.5862C110.323 22.5862 111.401 22.5633 112.448 22.5862C113.067 22.6015 113.679 22.6779 114.29 22.7696C114.787 22.8461 115.276 22.9607 115.757 23.1059C116.04 23.19 116.285 23.3658 116.56 23.4804C116.835 23.5951 117.072 23.7632 117.263 23.9925C117.408 24.1683 117.546 24.3594 117.668 24.5504C118.111 25.2612 118.027 26.0331 117.859 26.7822C117.768 27.1949 117.492 27.5617 117.141 27.8369C116.934 27.9974 116.728 28.1426 116.514 28.2954C116.499 28.2954 116.491 28.3184 116.476 28.3184C116.178 28.4254 115.88 28.5324 115.574 28.6317C115.406 28.6929 115.238 28.7693 115.062 28.7922C114.344 28.9069 113.625 29.0139 112.907 29.0979C112.616 29.1362 112.318 29.1132 112.028 29.1362C111.959 29.1362 111.89 29.1973 111.814 29.2279C111.852 29.289 111.875 29.3655 111.928 29.4113C112.119 29.5795 112.326 29.74 112.525 29.9005C112.7 30.0457 112.876 30.2062 113.06 30.3361C113.388 30.5654 113.717 30.8023 114.068 30.9781C114.603 31.2456 115.123 31.5513 115.735 31.6278C116.147 31.6813 116.545 31.8265 116.973 31.7883C117.11 31.7806 117.255 31.773 117.393 31.7424C117.615 31.6965 117.829 31.7424 118.027 31.8418C118.188 31.9182 118.234 32.0863 118.211 32.2468C118.188 32.4073 118.142 32.5678 117.959 32.6519C117.431 32.9118 116.873 32.8888 116.315 32.8277C115.872 32.7742 115.429 32.7283 115.001 32.606C114.496 32.4608 113.984 32.308 113.533 32.0099C113.495 31.9793 113.449 31.964 113.403 31.9411C113.067 31.7424 112.708 31.5666 112.395 31.3373C112.028 31.0775 111.691 30.787 111.348 30.4966C110.874 30.0992 110.415 29.7017 109.949 29.2967C109.804 29.1744 109.651 29.1209 109.46 29.1209C108.871 29.1209 108.29 29.1209 107.702 29.0827C107.312 29.0597 106.922 28.9757 106.533 28.9145C106.051 28.8381 105.967 28.9145 105.967 29.396V31.9335C105.967 32.1169 105.967 32.2927 105.822 32.4455C105.608 32.6901 105.348 32.6978 105.08 32.6213C104.836 32.5525 104.706 32.3615 104.691 32.094C104.691 31.9258 104.668 31.7577 104.668 31.5895V27.8827V27.9133L104.675 27.9209ZM110.438 23.6256C109.666 23.6562 108.887 23.6868 108.115 23.7326C107.526 23.7632 106.938 23.8091 106.349 23.8549C106.066 23.8779 106.013 23.9314 105.99 24.2141V27.3859C105.99 27.4777 106.013 27.5694 106.028 27.6611C106.051 27.7681 106.12 27.8292 106.234 27.8292C106.433 27.8292 106.624 27.8598 106.815 27.8674L107.985 27.9362C108.581 27.9821 109.185 28.0509 109.781 28.0814C110.4 28.1044 111.019 28.0967 111.638 28.0814C112.051 28.0814 112.471 28.0203 112.884 27.9821C113.167 27.9592 113.442 27.9133 113.724 27.8827C114.007 27.8445 114.29 27.8445 114.558 27.7604C114.917 27.6534 115.268 27.5006 115.612 27.3554C115.735 27.3019 115.842 27.2025 115.956 27.1261C116.27 26.9197 116.461 26.614 116.545 26.2624C116.72 25.544 116.346 24.7415 115.681 24.4129C115.391 24.2676 115.07 24.1606 114.756 24.0613C114.351 23.9314 113.931 23.8396 113.503 23.8091C113.113 23.7785 112.716 23.6868 112.326 23.6791C111.699 23.6562 111.065 23.6791 110.438 23.6791V23.6256Z" fill="white"/>
<path d="M127.627 22.6855H133.275C133.474 22.6855 133.672 22.7007 133.818 22.8536C134.078 23.1288 134.085 23.5033 133.657 23.6943C133.512 23.7555 133.344 23.786 133.183 23.786H122.911C122.529 23.786 122.476 23.8395 122.476 24.2217C122.476 25.1083 122.476 26.0025 122.46 26.8891C122.46 27.019 122.514 27.0954 122.644 27.1107C122.766 27.126 122.896 27.1413 123.018 27.1413H133C133.222 27.1413 133.413 27.1795 133.558 27.3782C133.703 27.5846 133.695 27.8826 133.512 28.0584C133.466 28.0966 133.405 28.1348 133.344 28.1425C133.222 28.1578 133.099 28.1654 132.969 28.1654H123.056C122.942 28.1654 122.827 28.1807 122.713 28.1807C122.544 28.1807 122.483 28.2724 122.468 28.4253C122.468 28.4711 122.468 28.5093 122.468 28.5552V31.3372C122.468 31.5741 122.491 31.5971 122.728 31.6277C122.827 31.6429 122.934 31.6429 123.034 31.6429H133.244C133.367 31.6429 133.497 31.6429 133.619 31.6735C133.848 31.7117 134.062 32.1015 133.978 32.3155C133.871 32.5983 133.657 32.7435 133.359 32.7512H122.193C122.032 32.7512 121.879 32.7282 121.719 32.7206C121.421 32.7206 121.291 32.4378 121.237 32.1856C121.222 32.1091 121.237 32.0327 121.237 31.9563V23.465C121.237 22.8995 121.49 22.6855 122.032 22.6855H127.642H127.627Z" fill="white"/>
<path d="M36.7985 32.9881C35.9196 32.9194 35.0406 32.8735 34.177 32.7665C33.5503 32.6901 32.9312 32.5296 32.3121 32.3844C32.1058 32.3385 31.9147 32.2162 31.716 32.1321C31.181 31.9105 30.6918 31.6048 30.2333 31.2456C29.9734 31.0392 29.7976 30.787 29.6142 30.5348C29.4919 30.359 29.3696 30.1756 29.2473 29.9998C29.2473 29.9845 29.2244 29.9768 29.2244 29.9616C29.1174 29.6253 28.9722 29.3043 28.9034 28.9603C28.827 28.5935 28.7964 28.2113 28.7811 27.8292C28.7658 27.5693 28.804 27.3095 28.8193 27.0496C28.8423 26.5223 29.041 26.0484 29.2091 25.5669C29.2626 25.414 29.362 25.2688 29.4613 25.1313C29.6218 24.902 29.7823 24.665 29.9581 24.451C30.0345 24.3593 30.1492 24.2982 30.2409 24.2141C30.5161 23.9542 30.8371 23.7479 31.181 23.5797C31.4408 23.4575 31.6931 23.3199 31.9453 23.19C31.9758 23.1747 32.0141 23.1517 32.0446 23.1441C32.3733 23.0524 32.6943 22.9377 33.0306 22.869C33.4509 22.7772 33.8713 22.6932 34.2916 22.6397C35.5451 22.4945 36.7985 22.4562 38.0596 22.548C38.587 22.5862 39.1143 22.6091 39.634 22.6855C40.0697 22.7467 40.5206 22.7925 40.918 22.9989C40.9486 23.0142 40.9792 23.0218 41.0097 23.0295C41.4607 23.0982 41.8658 23.297 42.2632 23.511C42.4543 23.618 42.6683 23.6944 42.844 23.832C43.1268 24.046 43.379 24.2982 43.6465 24.5351C43.7153 24.5962 43.7765 24.665 43.8376 24.7338C44.2503 25.2459 44.4796 25.8344 44.6554 26.4688C44.8159 27.0573 44.8541 27.6381 44.8236 28.2343C44.8083 28.4636 44.7395 28.6852 44.6936 28.9145C44.6783 28.9833 44.6554 29.0521 44.6325 29.1208C44.5255 29.4418 44.4567 29.7781 44.3038 30.0686C44.1586 30.359 43.9293 30.6036 43.7306 30.8711C43.4096 31.2914 42.9663 31.5666 42.5307 31.8417C42.309 31.9793 42.0492 32.0481 41.8275 32.178C41.3307 32.4684 40.7575 32.5219 40.2149 32.6519C39.5576 32.8047 38.8774 32.8582 38.2048 32.927C37.7462 32.9729 37.28 32.9652 36.8214 32.9805V33.0187L36.7985 32.9881ZM36.7985 23.5415V23.6027C36.3552 23.6027 35.9043 23.5874 35.461 23.6027C34.6509 23.6332 33.856 23.7479 33.0917 24.0307C32.5643 24.2217 32.0446 24.4281 31.5784 24.7568C31.0128 25.1465 30.6001 25.651 30.3938 26.3083C30.3785 26.3618 30.3479 26.4076 30.3326 26.4611C30.2868 26.6216 30.2103 26.7745 30.1951 26.9426C30.1263 27.6916 30.1033 28.4253 30.3938 29.1514C30.539 29.5183 30.7377 29.8393 30.9823 30.145C31.4943 30.787 32.2281 31.0927 32.9618 31.3602C33.8713 31.6889 34.8343 31.8341 35.8049 31.8417C36.6533 31.8417 37.494 31.8417 38.3424 31.8111C38.7016 31.7959 39.0608 31.7118 39.42 31.643C39.8404 31.5589 40.2607 31.4672 40.6735 31.3679C40.7193 31.3602 40.7575 31.322 40.8034 31.2991C40.9104 31.2456 41.0174 31.1921 41.1244 31.1539C41.2008 31.1233 41.2849 31.1156 41.3537 31.0774C41.8199 30.787 42.2785 30.4889 42.6224 30.0533C42.7218 29.9233 42.8211 29.7858 42.8899 29.6329C43.0275 29.3348 43.188 29.0368 43.2644 28.7234C43.3408 28.4406 43.3638 28.1273 43.3485 27.8368C43.3255 27.4088 43.2873 26.9732 43.188 26.5528C43.1268 26.27 42.951 26.0102 42.8288 25.7427C42.6606 25.3911 42.3855 25.1313 42.0874 24.8943C41.6976 24.5733 41.2467 24.367 40.7881 24.1682C40.2378 23.9237 39.657 23.7861 39.0685 23.7173C38.3194 23.6256 37.5552 23.6103 36.7985 23.5568V23.5415Z" fill="white"/>
<path d="M93.486 32.9423C92.5689 32.9194 91.6593 32.8888 90.7498 32.7283C90.1919 32.6289 89.6416 32.5066 89.099 32.3844C88.8315 32.3309 88.5945 32.178 88.3423 32.0634C88.2659 32.0328 88.1971 31.9946 88.1207 31.9564C87.9067 31.8417 87.6774 31.7271 87.471 31.5971C87.2647 31.4596 87.0583 31.3143 86.8825 31.1386C86.6838 30.9475 86.5004 30.7258 86.3322 30.5042C86.0112 30.0686 85.8737 29.5641 85.6979 29.0597C85.461 28.3871 85.5297 27.7145 85.5297 27.0343C85.5297 26.8815 85.5909 26.7286 85.6291 26.5758C85.6673 26.4382 85.7132 26.3083 85.7514 26.1707C85.8431 25.8115 85.9959 25.4752 86.1947 25.1542C86.424 24.7873 86.6762 24.4434 87.0048 24.1759C87.2952 23.939 87.6239 23.7479 87.9449 23.5492C88.1665 23.4192 88.4035 23.3122 88.6404 23.1976C88.755 23.1441 88.8773 23.0906 89.0073 23.06C89.5499 22.9225 90.0849 22.7696 90.6276 22.6702C91.0708 22.5862 91.5218 22.5479 91.9727 22.525C92.6529 22.4944 93.3408 22.4562 94.021 22.4792C94.877 22.5097 95.733 22.5862 96.5814 22.6855C96.9176 22.7237 97.2463 22.8613 97.5826 22.9454C97.6667 22.9683 97.7507 22.9989 97.8348 23.0142C98.2322 23.083 98.5838 23.2664 98.9277 23.4575C99.1341 23.5721 99.371 23.6485 99.5544 23.7937C99.9289 24.0995 100.281 24.4205 100.617 24.7644C100.754 24.9096 100.838 25.1083 100.938 25.2841C101.091 25.5516 101.167 25.8497 101.274 26.1401C101.61 27.0649 101.572 28.0126 101.404 28.9451C101.312 29.4571 101.098 29.9616 100.77 30.4201C100.51 30.7717 100.196 31.0621 99.8907 31.3678C99.7914 31.4672 99.6614 31.5283 99.5468 31.6124C99.2182 31.8494 98.836 31.9793 98.4844 32.1627C97.9877 32.4302 97.445 32.5066 96.91 32.6136C96.1839 32.7589 95.4426 32.8276 94.7012 32.8888C94.2885 32.927 93.8758 32.8888 93.4631 32.8888V32.927L93.486 32.9423ZM93.5013 23.5492V23.5797H92.8822C91.8351 23.5797 90.811 23.6791 89.8174 24.046C89.42 24.1912 89.0225 24.3287 88.671 24.558C88.5258 24.6497 88.3729 24.7415 88.243 24.8561C88.0213 25.0472 87.7844 25.2306 87.6239 25.4675C87.28 25.9567 87.043 26.4917 86.9895 27.0955C86.9208 27.9133 86.9513 28.7081 87.3258 29.4571C87.3793 29.5641 87.4481 29.6711 87.5245 29.7781C87.6621 29.9692 87.792 30.1756 87.9525 30.3437C88.434 30.8634 89.0913 31.1003 89.718 31.3678C90.2913 31.6124 90.9256 31.6889 91.5371 31.7653C92.6988 31.9181 93.8681 31.8952 95.0299 31.8188C95.3967 31.7959 95.7559 31.6965 96.1228 31.6583C96.8107 31.5742 97.4603 31.3526 98.087 31.0698C98.1023 31.0698 98.1176 31.0545 98.1252 31.0468C98.3469 30.9016 98.5838 30.7717 98.7825 30.6112C99.0042 30.4354 99.2182 30.252 99.394 30.038C99.6844 29.6788 99.8907 29.2813 99.9672 28.8151C99.9824 28.7387 100.013 28.6699 100.028 28.5935C100.059 28.4483 100.112 28.303 100.112 28.1502C100.128 27.661 100.112 27.1795 99.9748 26.6904C99.8525 26.2853 99.7073 25.8955 99.4704 25.544C99.1265 25.0242 98.6373 24.6727 98.1023 24.4052C97.5138 24.1147 96.9024 23.8702 96.2451 23.7861C96.0464 23.7632 95.8553 23.6791 95.6566 23.6715C94.9381 23.6256 94.2197 23.595 93.4936 23.5568L93.5013 23.5492Z" fill="white"/>
<path d="M19.3116 32.9118C18.532 32.927 17.7601 32.8965 16.9882 32.7742C16.7436 32.736 16.4914 32.713 16.2468 32.6519C15.8723 32.5678 15.4978 32.4685 15.1386 32.3538C14.9169 32.285 14.7182 32.1551 14.5119 32.0557C14.4584 32.0328 14.4125 31.9946 14.3514 31.9717C13.9157 31.8112 13.5641 31.5131 13.2126 31.2227C12.8381 30.917 12.5324 30.5501 12.326 30.1221C12.1731 29.8164 11.9744 29.5259 11.9209 29.1591C11.8368 28.6164 11.6993 28.0891 11.7222 27.5388C11.7451 26.9885 11.8751 26.4688 12.0126 25.9414C12.0738 25.6892 12.2343 25.4599 12.3719 25.2383C12.5324 24.9861 12.7005 24.7262 12.9069 24.5046C13.1361 24.26 13.3807 24.0231 13.6635 23.8473C14.0839 23.5798 14.5271 23.3428 14.9857 23.1441C15.3526 22.9836 15.7424 22.8766 16.1322 22.8002C16.6672 22.6856 17.2098 22.5938 17.7525 22.548C18.7231 22.4639 19.6937 22.441 20.6644 22.5251C21.1918 22.5709 21.7268 22.5786 22.2541 22.6626C22.7433 22.7391 23.2477 22.762 23.7139 22.9683C23.7827 22.9989 23.8591 23.0066 23.9356 23.0218C24.4553 23.1212 24.9368 23.3199 25.3953 23.5951C25.5406 23.6868 25.6246 23.8091 25.6246 23.9848C25.6246 24.2371 25.4794 24.4052 25.1966 24.4129C24.8374 24.4129 24.4858 24.3746 24.1496 24.2371C23.9738 24.1606 23.7903 24.1224 23.6069 24.0766C23.2171 23.9848 22.8273 23.8931 22.4375 23.8091C21.1535 23.5339 19.8466 23.5951 18.5473 23.6027C17.8289 23.6027 17.1334 23.725 16.4455 23.9008C16.1092 23.9848 15.7959 24.1606 15.4672 24.2753C15.1157 24.3976 14.8099 24.5963 14.5271 24.8332C14.2214 25.0854 13.9539 25.3835 13.7246 25.7198C13.2737 26.3924 13.2355 27.1337 13.2508 27.898C13.2508 27.9974 13.2661 28.1044 13.2737 28.2037C13.2737 28.7234 13.4342 29.1897 13.7017 29.6253C13.9692 30.061 14.2979 30.4202 14.7182 30.7106C15.0163 30.917 15.322 31.0698 15.6583 31.2074C16.7665 31.6736 17.9282 31.8341 19.1205 31.8417C19.7855 31.8417 20.4427 31.857 21.1077 31.8035C21.6656 31.7577 22.2235 31.6277 22.7738 31.536C22.9955 31.4978 23.2095 31.4596 23.4235 31.3985C23.8744 31.2762 24.3253 31.1462 24.7839 31.024C25.0132 30.9628 25.2348 30.9322 25.4565 31.0775C25.6476 31.2074 25.7316 31.3679 25.6323 31.5742C25.5558 31.7424 25.4336 31.88 25.2425 31.9411C24.8603 32.071 24.4782 32.2239 24.0961 32.3462C23.905 32.4073 23.6986 32.4455 23.4923 32.4761C22.9573 32.5755 22.4223 32.6901 21.8796 32.7512C21.1612 32.8277 20.4427 32.8659 19.7243 32.9194C19.602 32.927 19.4721 32.9194 19.3498 32.9194H19.3116V32.9118Z" fill="white"/>
<path d="M53.8269 32.7054H48.6527C48.4081 32.7054 48.1712 32.6671 48.026 32.4379C47.9725 32.3538 47.9113 32.2468 47.9113 32.1551V23.5033C47.9113 23.2664 48.003 23.083 48.1177 22.9072C48.2323 22.739 48.5763 22.6779 48.8055 22.7467C49.073 22.8231 49.1724 23.0142 49.2106 23.2587C49.2335 23.3963 49.2488 23.5415 49.2488 23.6791V31.1615C49.2488 31.6277 49.2718 31.643 49.7303 31.643H59.047C59.3527 31.643 59.5362 31.7653 59.6661 32.0099C59.7884 32.2315 59.5744 32.6519 59.3145 32.6901C59.1846 32.713 59.0547 32.7206 58.9247 32.7206H53.8269V32.7054Z" fill="white"/>
</svg>
