<svg width="207" height="28" viewBox="0 0 207 28" fill="none" xmlns="http://www.w3.org/2000/svg">
<g clip-path="url(#clip0_1093_28747)">
<path d="M20.3128 10.044V7.19876H27.2963V5.41352H20.4916C20.8908 4.39958 21.8646 3.59588 22.5016 3.15308C22.9891 2.8145 23.4788 2.54594 23.9344 2.33552V4.66112H25.7206V0.00488281C24.0098 0.00488281 19.2946 2.13536 18.6098 5.49722C15.2496 6.1796 13.1396 10.8785 13.1396 12.5885L25.724 12.5869V7.95278H23.9344V10.7964H15.4591C15.6659 10.3502 15.9354 9.86618 16.2662 9.38738C16.7065 8.75126 17.5136 7.77656 18.5251 7.37984V10.044H20.3128Z" fill="white"/>
<path d="M30.6793 7.17318H33.5204V14.1566H35.3082V7.35282C36.3221 7.75296 37.1258 8.72424 37.567 9.36198C37.9056 9.84924 38.1767 10.3401 38.3869 10.795H36.0597V12.58H40.7159C40.7159 10.87 38.588 6.15402 35.2245 5.47182C34.5412 2.11014 29.8439 0 28.1316 0L28.135 12.5834H32.7698V10.7948H29.926V2.32038C30.3706 2.5272 30.8537 2.79576 31.336 3.1275C31.9696 3.56868 32.945 4.3758 33.3426 5.38632H30.6793V7.17318Z" fill="white"/>
<path d="M33.6203 17.6089V20.4527H26.6379V22.2412H33.4401C33.0427 23.2519 32.0696 24.0605 31.4337 24.5C30.9471 24.839 30.4529 25.109 30.0016 25.3192V22.9922H28.2138V27.6482C29.9264 27.6482 34.6398 25.5174 35.3246 22.1557C38.6864 21.4737 40.7948 16.7746 40.7948 15.063L28.212 15.0666V19.7019H30.0016V16.8583H38.476C38.2665 17.3045 38.0015 17.7867 37.6673 18.2639C37.2279 18.9017 36.4224 19.8765 35.4066 20.2767V17.6091L33.6203 17.6089Z" fill="white"/>
<path d="M23.1845 20.4629H20.3408V13.4812H18.5549V20.285C17.5409 19.8849 16.7354 18.91 16.2943 18.2723C15.9582 17.7884 15.6873 17.2959 15.4769 16.8445H17.8025V15.0557H13.1462C13.1462 16.7657 15.2767 21.4818 18.6377 22.1675C19.3201 25.5273 24.0197 27.6378 25.7322 27.6378L25.7288 15.0526H21.0923V16.8445H23.9376V25.3155C23.4914 25.1088 23.0074 24.8401 22.5295 24.5103C21.8908 24.0674 20.9186 23.2637 20.5194 22.2515H23.1845V20.4629Z" fill="white"/>
<path d="M53.4774 7.7168H50.7407V19.9685H62.2674V17.7815H53.4774V7.7168Z" fill="white"/>
<path d="M66.0487 7.7168H65.9839V19.9685H77.5105V17.7815H68.7206V14.661H74.6215V12.6448H68.7206V9.90218H77.5105V7.7168H66.0487Z" fill="white"/>
<path d="M124.514 16.3125L116.585 7.83488V7.70996H114.085V19.9636H116.585V11.4907L124.514 19.9636H127.013V7.70996H124.514V16.3125Z" fill="white"/>
<path d="M98.4422 7.7168H98.3772V19.9685H109.903V17.7815H101.114V14.661H106.979V12.6448H101.114V9.90218H109.903V7.7168H98.4422Z" fill="white"/>
<path d="M87.5684 15.5263H91.7065L91.7236 17.3079V17.3832C91.2278 17.554 90.6994 17.7165 89.9941 17.8602C89.288 18.007 88.5295 18.0722 87.6471 18.0722C87.0769 18.0722 86.5023 17.9988 85.9364 17.8346C85.3712 17.6753 84.9172 17.4532 84.4762 17.1128C84.0383 16.7712 83.7058 16.3348 83.4382 15.7878C83.1646 15.239 83.0355 14.589 83.0355 13.83C83.0355 13.0588 83.1475 12.4638 83.4185 11.925C83.6887 11.3847 84.0581 10.9519 84.5009 10.6117C84.9403 10.2732 85.3901 10.0543 85.956 9.89011C86.5178 9.72937 87.0693 9.67141 87.6421 9.67141C88.1047 9.67141 88.5664 9.66277 89.0837 9.72613C89.6017 9.78769 90.1063 9.88849 90.544 10.0321C92.0897 10.5383 92.4608 10.8871 92.6362 10.9624L93.7288 8.82667L92.4369 8.34949C92.1197 8.25031 91.7205 8.13925 91.2408 8.02801C90.7629 7.90993 90.2114 7.80391 89.5915 7.70995C88.9733 7.62103 88.3235 7.57495 87.6386 7.57495C86.5581 7.57495 85.5722 7.71697 84.6812 8.00065C83.7937 8.28955 83.0319 8.70013 82.3942 9.23527C81.7624 9.77905 81.2742 10.4307 80.9236 11.1931C80.5731 11.9592 80.3987 12.8295 80.3987 13.7992C80.3987 14.7739 80.5731 15.6391 80.9236 16.4052C81.2699 17.1661 81.7624 17.8161 82.3942 18.3476C83.0285 18.8795 83.792 19.2814 84.6812 19.5514C85.5704 19.8182 86.5561 19.9568 87.6386 19.9568C88.197 19.9568 88.7645 19.9413 89.3461 19.9107C89.9239 19.878 90.5053 19.7979 91.0867 19.6677C91.6622 19.536 92.2367 19.3531 92.801 19.1241C93.1994 18.9614 93.5849 18.8143 93.9561 18.5886V13.8181H87.5686L87.5684 15.5263Z" fill="white"/>
<path d="M154.389 15.2545H152.067L154.016 11.125L155.986 15.2545H154.389ZM153.004 7.85547L147.217 19.9619H149.842L151.234 17.0155H156.827L158.233 19.9619H161.184L155.073 7.85547H153.004Z" fill="white"/>
<path d="M189.932 7.83813L186.298 12.7424L182.892 7.83813H179.682L184.686 15.0902V19.9601H187.861V15.2372L193.14 7.83813H189.932Z" fill="white"/>
<path d="M167.025 13.2297V9.97911H171.882V9.96723C172.075 9.96885 172.249 9.98433 172.408 10.0185C172.781 10.1075 173.031 10.2135 173.248 10.3656C173.469 10.5247 173.602 10.6973 173.7 10.9059C173.79 11.1214 173.823 11.3487 173.823 11.6002C173.823 11.8446 173.761 12.0551 173.67 12.2637C173.575 12.4809 173.448 12.6381 173.226 12.7972C173.01 12.9493 172.749 13.0451 172.376 13.1324C171.998 13.2161 171.543 13.2299 170.979 13.2299L167.025 13.2297ZM175.712 13.8966C176.321 13.3529 176.623 12.5679 176.623 11.5421C176.623 10.8768 176.506 10.3109 176.273 9.85257C176.035 9.39591 175.705 9.02151 175.271 8.73765C174.833 8.44875 174.317 8.23995 173.71 8.10837C173.183 7.99047 172.533 7.88445 171.882 7.85709V7.85205H164.367V19.9585H167.026V15.1159H170.336L173.739 19.9583H176.868L173.272 14.9142C174.26 14.7257 175.124 14.4217 175.712 13.8966Z" fill="white"/>
<path d="M141.961 15.8017C141.749 16.5028 141.456 16.8275 140.901 17.2516C140.349 17.6755 139.663 17.8074 138.914 17.8879C138.261 17.9595 135.251 17.9066 134.492 17.8915V9.92106H138.018C138.018 9.92106 139.81 9.88686 140.561 10.3262C141.31 10.7674 141.587 11.1249 141.749 11.453C141.913 11.7779 142.188 12.2328 142.188 13.4075C142.188 14.5805 142.173 15.102 141.961 15.8017ZM143.933 10.3606C143.558 9.6921 142.922 9.13806 142.06 8.61642C141.195 8.09658 139.777 7.88292 139.191 7.85034C138.605 7.81794 134.253 7.85034 134.253 7.85034H131.835V19.9568H134.492V19.9258H139.535C139.94 19.9258 141.178 19.8439 142.207 19.1428C143.233 18.4435 143.445 18.1492 144.015 17.2363C144.584 16.3247 144.766 15.6476 144.813 15.1261C144.863 14.6045 144.896 13.6282 144.813 12.6824C144.731 11.7371 144.307 11.0291 143.933 10.3606Z" fill="white"/>
</g>
<defs>
<clipPath id="clip0_1093_28747">
<rect width="180" height="27.6482" fill="white" transform="translate(13.1396)"/>
</clipPath>
</defs>
</svg>
