<svg width="207" height="63" viewBox="0 0 207 63" fill="none" xmlns="http://www.w3.org/2000/svg">
<path d="M125.311 6.89161C126.182 7.87556 127.037 8.80305 127.844 9.77894C129.989 12.384 131.642 15.2632 132.772 18.449C134.417 23.1268 134.215 27.7401 132.554 32.3695C131.788 34.4906 130.731 36.4424 129.465 38.2651C128.473 39.6846 127.231 40.9427 126.061 42.2331C125.287 43.0881 125.263 43.0639 124.448 42.2412C121.706 39.4749 119.48 36.3536 118.141 32.6921C116.956 29.4499 116.303 26.0867 116.827 22.6025C117.343 19.1345 118.561 15.9327 120.432 12.9647C121.722 10.9242 123.214 9.05307 124.884 7.311C124.997 7.19809 125.11 7.09324 125.319 6.89967L125.311 6.89161Z" fill="white"/>
<path d="M134.981 53.6534H133.159C127.432 53.6534 121.714 53.6454 115.988 53.6534C115.488 53.6534 115.157 53.476 114.851 53.0969C113.657 51.6129 112.488 50.0967 111.213 48.6853C109.213 46.4674 107.028 44.4511 104.616 42.6767C101.527 40.4024 98.2043 38.5716 94.696 37.0472C92.7684 36.2165 90.8569 35.3616 88.9132 34.5793C85.9453 33.3857 82.9289 32.2969 79.9851 31.0468C77.6139 30.0386 75.3234 28.853 73.0007 27.7401C72.42 27.4658 71.8312 27.2078 71.2828 26.8851C71.1054 26.7803 70.9441 26.498 70.936 26.2883C70.8957 25.5141 70.9199 24.7398 70.9199 23.9978C71.2828 24.3043 71.6054 24.5946 71.9603 24.8689C73.0249 25.6915 74.0411 26.5867 75.1702 27.3126C76.5655 28.2159 78.0091 29.0627 79.5093 29.7725C81.2997 30.6113 83.1628 31.3129 85.0178 32.0065C87.0341 32.7646 89.0826 33.4583 91.115 34.168C91.3005 34.2325 91.5021 34.2648 91.6957 34.3051C91.7038 34.2648 91.7199 34.2325 91.728 34.1922C90.7279 33.797 89.7278 33.4018 88.7197 33.0066C86.905 32.2969 85.0904 31.5791 83.2676 30.8935C80.7352 29.9418 78.4124 28.595 76.0977 27.2158C75.7025 26.9819 75.3234 26.6996 74.9847 26.3851C73.8395 25.3528 72.7587 24.264 71.5812 23.28C71.0328 22.8203 70.8473 22.3525 70.9118 21.6831C70.9602 21.1831 70.9118 20.675 70.9118 20.1669L71.0731 20.0701C71.1215 20.1669 71.1618 20.2636 71.2183 20.3524C72.5893 22.4654 74.4605 24.0301 76.5332 25.4254C79.5012 27.4255 82.7273 28.8369 86.1388 29.8289C90.8892 31.2161 95.6557 32.5308 100.406 33.8776C103.906 34.8697 107.302 36.1601 110.657 37.5554C115.415 39.5233 119.795 42.1606 124.021 45.0963C127.537 47.54 130.949 50.1128 134.191 52.9195C134.417 53.1131 134.675 53.2905 134.909 53.476C134.925 53.4921 134.933 53.5324 134.981 53.6695V53.6534Z" fill="white"/>
<path d="M104.842 33.4502C101.592 30.2322 99.4947 26.5464 99.6076 21.8686C99.648 20.2314 100.156 18.699 100.769 17.1908C101.559 15.231 102.85 13.6018 104.173 11.9888C104.285 11.8517 104.431 11.7468 104.552 11.6178C104.777 11.3758 104.987 11.3839 105.197 11.6339C105.858 12.4162 106.584 13.1502 107.165 13.989C108.479 15.8923 109.576 17.9086 109.923 20.2556C110.423 23.6188 109.81 26.748 108.012 29.6354C107.149 31.0306 106.116 32.2888 104.842 33.4421V33.4502Z" fill="white"/>
<path d="M77.1865 0.0200913C80.1222 -0.221864 83.5015 2.56868 83.4935 6.28672C83.4935 10.2628 80.1303 12.6582 77.0655 12.6098C73.8556 12.5695 70.8231 9.69829 70.8876 6.11735C70.9521 2.99614 73.9846 -0.221862 77.1865 0.0120275V0.0200913Z" fill="white"/>
<path d="M89.8085 15.231C90.2198 15.6584 90.615 16.0133 90.9376 16.4246C92.5426 18.4732 93.5346 20.7314 93.1475 23.4091C92.8248 25.6754 91.6796 27.5062 90.0504 29.0627C89.9698 29.1434 89.6633 29.1353 89.5827 29.0466C87.4938 26.9335 86.2275 24.4656 86.5421 21.425C86.7276 19.6104 87.4938 17.9812 88.6713 16.5698C89.0262 16.1424 89.3972 15.723 89.8165 15.2391H89.8085V15.231Z" fill="white"/>
<path d="M82.4853 53.105C82.4692 53.0001 82.445 52.9114 82.445 52.8146C82.445 50.6854 82.445 48.5482 82.4288 46.419C82.4288 46.0641 82.5014 45.8867 82.9128 45.9351C83.2918 45.9754 83.6789 45.9351 84.1064 45.9351V46.8222C84.7677 46.1286 85.4936 45.7496 86.4534 45.7818C87.3889 45.8141 88.1229 46.1609 88.6471 46.9674C88.7197 46.9109 88.7761 46.8867 88.8084 46.8464C89.5988 45.7738 91.2441 45.4189 92.4055 46.0964C93.1878 46.5561 93.3813 47.3707 93.4217 48.1691C93.5023 49.7176 93.4781 51.2742 93.4781 52.8308C93.4781 52.9276 93.3088 53.105 93.212 53.113C92.7523 53.1453 92.2925 53.1211 91.7683 53.1211V50.4838C91.7683 49.8467 91.7683 49.2014 91.6957 48.5643C91.6151 47.8384 91.2844 47.4997 90.7279 47.4352C89.8891 47.3384 89.3488 47.5884 89.0907 48.282C88.9778 48.6046 88.9052 48.9676 88.9052 49.3144C88.881 50.5645 88.9052 51.8146 88.9052 53.0969H87.0905V51.3065C87.0905 50.4435 87.0986 49.5724 87.0905 48.7095C87.0744 47.8546 86.7437 47.4674 86.042 47.4271C85.1226 47.3707 84.3645 47.8546 84.3 48.6369C84.2274 49.5805 84.2516 50.5241 84.2435 51.4678V53.105H82.4853Z" fill="white"/>
<path d="M78.614 50.2257H73.0168C73.5088 51.6533 74.9605 52.2259 76.1542 51.5726C76.388 51.4436 76.5897 51.2419 76.8316 51.121C76.9526 51.0564 77.1784 51.0242 77.2752 51.0968C77.6139 51.3306 77.9204 51.6129 78.235 51.8791C77.2833 53.1453 75.5735 53.5486 73.8556 53.0889C71.9845 52.5888 70.3069 49.7579 72.0571 47.2981C73.2426 45.6366 75.4041 45.6044 76.6381 46.0318C77.3639 46.2819 77.7672 46.9029 78.1221 47.54C78.5818 48.3465 78.606 49.2418 78.606 50.2257H78.614ZM76.8881 48.7014C76.5897 47.5884 75.8719 47.0964 74.7589 47.161C74.0653 47.2013 73.17 47.9917 73.0733 48.7014H76.8881Z" fill="white"/>
<path d="M98.3414 47.5562C98.1882 47.5481 98.1156 47.54 98.0349 47.532C96.8897 47.4513 96.8816 47.4513 96.9703 46.2899C96.9703 46.177 97.1478 46.0076 97.2687 45.9915C97.5994 45.9351 97.9382 45.9431 98.3253 45.927V43.8784H100.253V45.8947C100.793 45.927 101.301 45.9754 101.809 45.9754C102.108 45.9754 102.18 46.0964 102.18 46.3786C102.197 47.5239 102.213 47.5239 101.043 47.5239C100.221 47.5239 100.237 47.5239 100.253 48.3627C100.269 49.145 100.253 49.9273 100.269 50.7177C100.269 51.4839 100.592 51.7823 101.366 51.7339C101.616 51.7178 101.866 51.6533 102.172 51.5968C102.172 52.0001 102.213 52.4114 102.156 52.8066C102.14 52.9517 101.898 53.1695 101.753 53.1776C101.1 53.2179 100.438 53.2744 99.8012 53.1776C98.8495 53.0324 98.3898 52.2985 98.3656 51.0403C98.3495 50.0483 98.3656 49.0563 98.3656 48.0643V47.5562H98.3414Z" fill="white"/>
<path d="M114.464 58.0328C114.464 58.9038 114.536 59.8313 114.448 60.7427C114.335 61.8799 112.818 62.4606 111.867 61.767C111.746 61.6783 111.738 61.4524 111.633 61.1943C112.391 61.2831 113.02 61.8557 113.617 61.2427C113.786 61.0653 113.859 60.8072 114.012 60.4927C113.552 60.5491 113.246 60.6056 112.931 60.6217C112.383 60.6378 111.955 60.404 111.738 59.9039C111.488 59.3474 111.576 58.799 111.955 58.3231C112.294 57.9038 112.73 57.7505 113.278 57.9038C113.649 58.0005 114.052 58.0005 114.464 58.0409V58.0328ZM113.843 59.3071C113.843 58.7506 113.536 58.4119 113.02 58.3957C112.48 58.3877 112.117 58.7829 112.125 59.3636C112.133 59.7829 112.464 60.0733 112.923 60.0733C113.593 60.0733 113.843 59.8717 113.843 59.3071Z" fill="white"/>
<path d="M89.4052 57.9602C89.8488 57.9441 90.1553 57.9602 90.4456 57.9038C90.8166 57.8231 91.1231 57.815 91.4376 58.0731C91.5263 58.1457 91.7602 58.1296 91.8732 58.0731C92.6958 57.5973 93.3329 57.9038 93.4297 58.8474C93.4781 59.3232 93.4862 59.8071 93.4701 60.291C93.4701 60.4201 93.341 60.5411 93.2684 60.6701C93.1797 60.5411 93.0426 60.412 93.0265 60.2749C92.9861 59.8636 93.0103 59.4442 92.9861 59.0248C92.962 58.5893 92.6797 58.4522 92.2925 58.4764C91.9296 58.5006 91.7522 58.678 91.7844 59.0732C91.8167 59.4684 91.8167 59.8717 91.7764 60.2749C91.7602 60.4201 91.5828 60.5491 91.478 60.6862C91.3973 60.5491 91.2602 60.4201 91.2441 60.283C91.2118 59.8878 91.2279 59.4845 91.2279 59.0813C91.2279 58.7022 91.0908 58.4845 90.6553 58.4925C90.2359 58.4925 89.9778 58.6377 89.9698 59.0893C89.9698 59.4765 89.994 59.8636 89.9536 60.2427C89.9375 60.3878 89.7843 60.5249 89.6956 60.6701C89.5988 60.5411 89.4133 60.404 89.4052 60.2669C89.381 59.4765 89.3971 58.6861 89.3971 57.9764V57.9602H89.4052Z" fill="white"/>
<path d="M72.6055 59.4765C72.3474 59.4765 72.0893 59.4684 71.8312 59.4765C71.7344 59.4765 71.557 59.541 71.5489 59.5894C71.5328 59.6942 71.5812 59.8475 71.6538 59.9201C71.9441 60.2023 72.2829 60.283 72.67 60.1136C72.8152 60.0491 72.9604 59.9684 73.1136 59.9442C73.2023 59.9362 73.3717 60.0088 73.3878 60.0652C73.4039 60.162 73.3555 60.3152 73.283 60.3798C72.8394 60.7669 71.9925 60.7669 71.4764 60.412C71.0086 60.0894 70.815 59.4523 71.0005 58.8635C71.2183 58.2102 71.7667 57.7828 72.3797 57.7989C72.912 57.815 73.2426 58.1296 73.4281 58.5812C73.7669 59.4119 73.9846 59.4442 72.8878 59.4523C72.791 59.4523 72.6942 59.4603 72.5974 59.4684V59.4442V59.4765H72.6055ZM72.1216 59.1055C72.2506 59.1055 72.3393 59.1216 72.4119 59.1055C72.5974 59.0409 72.7748 58.9522 72.9523 58.8796C72.791 58.7103 72.6539 58.4925 72.4603 58.3877C72.3393 58.3151 72.0812 58.3473 71.9683 58.4361C71.7909 58.5732 71.678 58.799 71.5489 58.9845C71.7102 59.0329 71.8796 59.0813 72.0409 59.1216C72.0812 59.1297 72.1377 59.1216 72.1377 59.1216L72.1216 59.1055Z" fill="white"/>
<path d="M97.6881 60.5572C97.1962 60.5975 96.7284 60.654 96.2606 60.6701C95.7202 60.6862 95.3492 60.3717 95.3008 59.9201C95.2686 59.5732 95.5831 59.2103 96.0428 59.0974C96.309 59.0329 96.5832 59.0329 96.8413 58.9764C96.9461 58.9522 97.0994 58.8635 97.1155 58.7829C97.1316 58.6861 97.0429 58.5086 96.9623 58.4764C96.7848 58.4038 96.5671 58.3715 96.3735 58.3796C96.188 58.3796 96.0025 58.4845 95.809 58.4925C95.7122 58.4925 95.5993 58.4038 95.4944 58.3554C95.5428 58.2506 95.5912 58.0651 95.6477 58.057C96.1396 57.9925 96.6639 57.8554 97.1316 57.9602C97.6478 58.0812 97.6962 58.6296 97.6881 59.1135V60.5572ZM96.809 59.2022C96.4219 59.4603 96.0106 59.5974 95.8654 59.8717C95.7283 60.1378 96.0993 60.2507 96.3735 60.2669C96.8494 60.283 97.2042 60.0652 97.172 59.7184C97.1639 59.5732 96.9865 59.4442 96.809 59.2022Z" fill="white"/>
<path d="M77.6381 60.5653C77.0978 60.5975 76.6058 60.6459 76.1138 60.6459C75.6219 60.6459 75.3638 60.4201 75.3315 59.9846C75.2993 59.541 75.5331 59.2023 75.9687 59.1055C76.2348 59.0409 76.509 59.0409 76.7671 58.9764C76.88 58.9522 77.0575 58.8393 77.0575 58.7667C77.0575 58.6538 76.9445 58.4522 76.8558 58.4441C76.5977 58.4119 76.3316 58.4441 76.0735 58.4683C75.8719 58.4764 75.5896 58.6619 75.5412 58.3151C75.5331 58.2183 75.7751 58.0247 75.9364 57.9683C76.1864 57.8796 76.4687 57.8473 76.7348 57.8473C77.1865 57.8554 77.6059 58.2102 77.622 58.6377C77.6543 59.2748 77.622 59.912 77.622 60.5733H77.6381V60.5653ZM76.3155 60.3152C76.3155 60.3152 76.3638 60.2669 76.388 60.2346C76.4526 60.2346 76.5171 60.2346 76.5816 60.2265C76.9607 60.1701 77.2107 59.8878 77.1139 59.5732C77.001 59.2103 76.7026 59.3877 76.4687 59.3958C76.4042 59.3958 76.3316 59.4119 76.2832 59.4442C76.1219 59.5894 75.9767 59.7426 75.8154 59.8959C75.9848 60.033 76.1461 60.1701 76.3074 60.3072H76.3155V60.3152Z" fill="white"/>
<path d="M107.326 59.2587C107.326 58.8635 107.189 58.3796 107.374 58.0973C107.495 57.9038 108.068 58.0167 108.423 57.9199C109.221 57.686 109.657 58.0651 109.729 58.8474C109.77 59.3071 109.778 59.7749 109.754 60.2346C109.746 60.3878 109.592 60.533 109.504 60.6782C109.415 60.533 109.27 60.3878 109.254 60.2346C109.221 59.8555 109.254 59.4684 109.254 59.0813C109.254 58.7667 109.173 58.5006 108.786 58.5006C108.399 58.5006 108.003 58.4764 107.939 58.9845C107.882 59.3958 107.907 59.8152 107.85 60.2265C107.834 60.3878 107.705 60.533 107.624 60.6862C107.528 60.533 107.358 60.3959 107.334 60.2265C107.286 59.912 107.318 59.5894 107.318 59.2668L107.326 59.2587Z" fill="white"/>
<path d="M131.828 58.5651C131.53 58.5167 131.231 58.4522 130.933 58.4361C130.828 58.4361 130.723 58.5248 130.61 58.5732C130.683 58.6861 130.723 58.8554 130.82 58.9038C131.046 59.0167 131.296 59.0974 131.538 59.1619C131.949 59.2668 132.038 59.5732 132.03 59.9362C132.03 60.3152 131.876 60.5975 131.449 60.6217C131.118 60.6378 130.779 60.6701 130.457 60.6056C130.271 60.5653 130.118 60.3556 129.957 60.2185C130.167 60.1701 130.368 60.0975 130.57 60.0813C130.771 60.0733 130.981 60.162 131.183 60.1459C131.296 60.1459 131.409 60.0168 131.521 59.9523C131.433 59.8555 131.36 59.7265 131.255 59.67C131.046 59.5652 130.779 59.541 130.586 59.4119C130.368 59.2668 130.046 59.0409 130.037 58.8393C130.037 58.5732 130.215 58.2183 130.433 58.0409C130.804 57.7425 131.296 57.7989 131.715 57.9844C131.852 58.0489 131.892 58.307 131.973 58.4844C131.925 58.5086 131.876 58.5409 131.828 58.5732V58.5651Z" fill="white"/>
<path d="M81.3804 58.5248C80.9126 58.4925 80.4851 58.4522 80.0093 58.4199C80.1303 59.0168 80.59 58.9845 80.8884 59.17C81.1223 59.3152 81.4126 59.5491 81.461 59.7829C81.5014 60.0007 81.3159 60.3394 81.1223 60.5007C80.9529 60.6459 80.6465 60.662 80.3964 60.6701C80.1625 60.6701 79.9125 60.6137 79.7028 60.5249C79.5738 60.4685 79.4851 60.3072 79.3802 60.1862C79.5415 60.1217 79.6948 60.0168 79.8561 60.0168C80.0416 60.0168 80.219 60.1781 80.4045 60.1781C80.59 60.1781 80.7513 60.0572 80.9287 59.9926C80.8158 59.8636 80.7271 59.7023 80.59 59.6055C80.4368 59.5007 80.219 59.4926 80.0658 59.3797C79.8319 59.2103 79.4205 58.8877 79.4609 58.8071C79.6222 58.4683 79.8641 58.1054 80.1787 57.928C80.6868 57.6376 81.3239 57.9763 81.3804 58.5409V58.5248Z" fill="white"/>
<path d="M126.182 57.8231C126.239 58.0167 126.328 58.2102 126.336 58.4119C126.36 58.7587 126.336 59.1135 126.336 59.4684C126.336 59.8555 126.497 60.1217 126.916 60.1459C127.336 60.1701 127.61 59.9523 127.65 59.5007C127.682 59.1216 127.65 58.7264 127.682 58.3473C127.699 58.1941 127.828 58.057 127.9 57.9038C127.973 58.0409 128.102 58.186 128.102 58.3231C128.118 59.0732 128.102 59.8152 128.102 60.5411C127.626 60.5733 127.158 60.6217 126.682 60.6459C126.239 60.6701 125.908 60.4927 125.876 60.0249C125.827 59.4039 125.836 58.7829 125.836 58.1618C125.836 58.0489 125.948 57.928 126.005 57.815H126.174L126.182 57.8231Z" fill="white"/>
<path d="M82.945 58.2425C83.2596 57.815 83.5176 57.4682 83.808 57.0811C84.0257 57.5731 84.2435 58.1135 85.0097 58.0489L84.9129 58.2183C84.8242 58.2748 84.7355 58.3796 84.6548 58.3796C84.0822 58.3635 84.058 58.7183 84.0983 59.1377C84.1145 59.2829 84.1145 59.4281 84.0983 59.5732C84.0499 59.92 84.1548 60.1055 84.5258 60.162C84.6629 60.1781 84.7677 60.3556 84.8968 60.4524C84.7516 60.5411 84.6145 60.6862 84.4693 60.6943C83.7515 60.7185 83.4773 60.4685 83.5176 59.92C83.5176 59.8071 83.5176 59.6942 83.5015 59.5813C83.4612 59.0571 83.687 58.4199 82.945 58.2425Z" fill="white"/>
<path d="M134.522 57.0408C134.61 57.6376 134.844 57.9844 135.393 58.0489V58.1699C135.272 58.2586 135.159 58.3877 135.022 58.4119C134.691 58.4683 134.61 58.6538 134.643 58.9522C134.667 59.1458 134.643 59.3394 134.643 59.5249C134.643 59.8233 134.707 60.0894 135.07 60.1862C135.183 60.2185 135.256 60.3959 135.344 60.5088C135.215 60.5733 135.086 60.6943 134.949 60.7024C134.385 60.7346 134.127 60.5007 134.078 59.9362C134.078 59.8394 134.062 59.7426 134.078 59.6458C134.078 59.3474 134.175 59.0087 134.078 58.7425C133.989 58.5006 133.691 58.3393 133.497 58.1618C133.804 57.8231 134.118 57.4844 134.522 57.0408Z" fill="white"/>
<path d="M119.577 56.9843C119.851 57.6053 120.093 58.0973 120.803 58.0409C120.803 58.0973 120.787 58.1457 120.779 58.2022C120.642 58.2748 120.504 58.3957 120.367 58.3957C119.948 58.3957 119.851 58.6135 119.9 58.9764C119.916 59.1055 119.916 59.2345 119.9 59.3635C119.843 59.7991 119.948 60.1136 120.448 60.1943C120.561 60.2104 120.666 60.3394 120.787 60.4282C120.222 60.904 119.512 60.6943 119.4 60.0491C119.343 59.7426 119.335 59.4119 119.351 59.0974C119.367 58.7345 119.351 58.428 118.908 58.3554C118.843 58.3473 118.795 58.2586 118.674 58.1538C118.891 58.0167 119.125 57.936 119.246 57.7667C119.383 57.5973 119.432 57.3473 119.577 56.9924V56.9843Z" fill="white"/>
<path d="M100.253 58.4361C100.253 59.0248 100.277 59.6216 100.237 60.2104C100.229 60.3717 100.035 60.5169 99.9303 60.6782C99.8415 60.533 99.6802 60.3878 99.6722 60.2427C99.6399 59.0732 99.648 57.9038 99.6318 56.7343C99.6318 56.4601 99.7528 56.2665 100.019 56.3311C100.124 56.3553 100.229 56.5972 100.237 56.7504C100.261 57.315 100.245 57.8715 100.245 58.428L100.253 58.4361Z" fill="white"/>
<path d="M102.785 58.4683C102.785 59.049 102.801 59.6216 102.777 60.1943C102.777 60.3717 102.64 60.533 102.568 60.7024C102.439 60.5249 102.213 60.3556 102.205 60.1781C102.148 59.3635 102.156 58.549 102.14 57.7344C102.132 57.3795 102.14 57.0327 102.124 56.6779C102.124 56.3794 102.293 56.2423 102.543 56.3149C102.664 56.3472 102.81 56.5569 102.818 56.694C102.85 57.2827 102.826 57.8715 102.826 58.4683H102.785Z" fill="white"/>
<path d="M122.513 58.0005C122.956 57.9683 123.319 57.9199 123.682 57.9118C123.811 57.9118 123.94 58.0086 124.077 58.057C124.013 58.1699 123.964 58.3635 123.868 58.3877C123.029 58.5732 122.972 59.17 123.053 59.8555C123.069 60.0491 123.077 60.2427 123.053 60.4282C123.037 60.5088 122.908 60.6217 122.835 60.6217C122.73 60.6217 122.545 60.5249 122.537 60.4685C122.521 59.6216 122.537 58.7748 122.537 58.0005H122.513Z" fill="white"/>
<path d="M105.439 59.299C105.439 59.6539 105.455 60.0007 105.431 60.3556C105.423 60.4685 105.294 60.5733 105.221 60.6782C105.108 60.5814 104.906 60.4927 104.898 60.3878C104.85 59.6216 104.834 58.8554 104.834 58.0973C104.834 58.0328 105.06 57.9118 105.148 57.928C105.261 57.9521 105.439 58.0893 105.439 58.1941C105.471 58.557 105.455 58.928 105.455 59.291H105.439V59.299Z" fill="white"/>
<path d="M105.132 56.4601C105.294 56.7101 105.463 56.8634 105.447 56.9924C105.431 57.1214 105.213 57.3311 105.108 57.3231C104.955 57.3069 104.818 57.1214 104.681 57.0005C104.802 56.8553 104.923 56.7101 105.132 56.4601Z" fill="white"/>
</svg>
