<svg width="314" height="558" viewBox="0 0 314 558" fill="none" xmlns="http://www.w3.org/2000/svg">
<rect x="1.77161" y="1.77148" width="310.01" height="553.991" rx="155.005" fill="black" stroke="black" stroke-width="3.54297"/>
<path d="M50.1334 489.558C48.1051 486.876 47.0825 483.434 47.8262 480.236L55.1786 427.248C55.3335 423.969 57.2547 420.935 59.9366 418.907C62.6184 416.878 66.0608 415.856 69.2581 416.599L122.247 423.952C129.312 424.932 134.129 431.301 132.895 438.031C131.915 445.096 125.545 449.914 118.816 448.68L95.8538 445.494L100.417 451.528C117.658 474.323 146.116 485.473 173.835 480.318C201.808 475.498 224.759 454.978 233.055 427.625C234.877 420.977 242.007 417.165 248.909 419.323C255.557 421.146 259.369 428.276 257.211 435.177C246.177 471.452 215.688 498.727 178.475 505.265C141.262 511.804 103.122 496.91 80.3038 466.74L75.7402 460.706L72.5542 483.667C71.8189 488.966 68.3033 492.679 63.0129 494.045C58.3113 495.493 53.1758 493.581 50.1334 489.558ZM66.3678 387.694C63.8325 384.341 63.2268 380.057 64.3057 376.606C75.34 340.331 105.829 313.056 143.042 306.518C180.255 299.979 218.395 314.873 241.213 345.043L245.776 351.078L248.963 328.116C249.943 321.051 256.566 316.569 263.042 317.467C270.107 318.448 274.671 324.482 273.69 331.547L266.338 384.535C265.848 388.068 264.262 390.848 261.58 392.877C258.898 394.905 255.456 395.928 252.259 395.184L199.27 387.832C192.205 386.851 187.388 380.482 188.622 373.752C189.602 366.687 195.971 361.87 202.701 363.104L225.663 366.29L221.099 360.256C203.859 337.46 175.401 326.31 147.682 331.466C119.708 336.286 96.758 356.805 88.4618 384.158C87.2195 388.787 83.4503 392.164 78.5769 392.688C73.9569 393.548 69.1567 391.381 66.3678 387.694Z" fill="#00D639"/>
<path d="M47.8704 152.689C47.6389 152.689 47.4653 152.632 47.3495 152.516C47.257 152.377 47.2107 152.227 47.2107 152.064V129.01C47.2107 128.848 47.257 128.709 47.3495 128.593C47.4653 128.454 47.6389 128.385 47.8704 128.385H56.9673C59.7218 128.385 61.944 129.102 63.6337 130.537C65.3235 131.949 66.1684 133.928 66.1684 136.475C66.1684 138.975 65.3235 140.919 63.6337 142.308C61.944 143.697 59.7218 144.391 56.9673 144.391H53.0785V152.064C53.0785 152.227 53.0207 152.377 52.9049 152.516C52.8123 152.632 52.6503 152.689 52.4188 152.689H47.8704ZM56.6895 133.419H53.0785V139.738H56.6895C57.708 139.738 58.5645 139.484 59.2589 138.975C59.9533 138.465 60.3005 137.678 60.3005 136.614C60.3005 135.549 59.9533 134.75 59.2589 134.218C58.5645 133.685 57.708 133.419 56.6895 133.419ZM73.1861 152.967C71.4501 152.967 70.0728 152.504 69.0543 151.578C68.0358 150.629 67.5266 149.426 67.5266 147.967C67.5266 146.37 68.14 145.086 69.3668 144.113C70.5936 143.141 72.2834 142.574 74.4361 142.412L78.7068 142.134V140.988C78.7068 140.132 78.4521 139.472 77.9429 139.009C77.4568 138.523 76.7971 138.28 75.9638 138.28C75.1768 138.28 74.4708 138.454 73.8458 138.801C73.244 139.125 72.6421 139.704 72.0403 140.537C71.9477 140.63 71.832 140.688 71.6931 140.711C71.5542 140.734 71.3806 140.699 71.1723 140.607L68.1516 139.148C67.9895 139.079 67.8969 138.975 67.8738 138.836C67.8506 138.674 67.8854 138.523 67.9779 138.384C68.6955 137.204 69.7487 136.209 71.1376 135.398C72.5264 134.565 74.3088 134.148 76.4846 134.148C78.8225 134.148 80.6859 134.773 82.0747 136.023C83.4867 137.25 84.1927 138.951 84.1927 141.127V152.099C84.1927 152.284 84.1464 152.435 84.0538 152.551C83.9612 152.643 83.8108 152.689 83.6024 152.689H79.1929C79.0308 152.689 78.9035 152.643 78.8109 152.551C78.7415 152.435 78.7068 152.284 78.7068 152.099V150.155C78.1744 151.011 77.4221 151.694 76.4499 152.203C75.4777 152.713 74.3898 152.967 73.1861 152.967ZM72.8389 147.447C72.8389 148.095 73.0588 148.581 73.4986 148.905C73.9615 149.229 74.5518 149.391 75.2694 149.391C76.1721 149.391 76.9707 149.113 77.6651 148.558C78.3596 147.979 78.7068 147.192 78.7068 146.197V145.155L75.686 145.398C74.737 145.491 74.0194 145.699 73.5333 146.023C73.0704 146.347 72.8389 146.822 72.8389 147.447ZM90.7433 160.154C90.072 160.154 89.3429 160.097 88.5559 159.981C87.7689 159.888 87.0976 159.692 86.5421 159.391C86.38 159.344 86.2759 159.263 86.2296 159.148C86.1833 159.055 86.1717 158.939 86.1949 158.8L87.2365 155.294C87.2596 155.155 87.3291 155.062 87.4448 155.016C87.5606 154.969 87.6763 154.958 87.792 154.981C88.2087 155.143 88.6253 155.294 89.042 155.432C89.4818 155.571 89.8869 155.641 90.2572 155.641C90.8359 155.641 91.322 155.502 91.7155 155.224C92.1322 154.946 92.5257 154.333 92.896 153.384L85.9518 135.086C85.8824 134.924 85.8824 134.773 85.9518 134.634C86.0444 134.496 86.1949 134.426 86.4032 134.426H91.2641C91.403 134.426 91.5072 134.461 91.5766 134.53C91.6692 134.577 91.7387 134.658 91.785 134.773L95.7779 146.683L99.9444 134.773C99.9676 134.658 100.037 134.577 100.153 134.53C100.268 134.461 100.373 134.426 100.465 134.426H104.979C105.187 134.426 105.326 134.496 105.396 134.634C105.465 134.773 105.477 134.912 105.43 135.051L98.2431 154.217C97.3866 156.486 96.3334 158.037 95.0835 158.87C93.8566 159.726 92.4099 160.154 90.7433 160.154ZM108.185 152.689C107.954 152.689 107.791 152.632 107.699 152.516C107.629 152.4 107.595 152.261 107.595 152.099V128.975C107.595 128.813 107.629 128.674 107.699 128.558C107.791 128.443 107.954 128.385 108.185 128.385H112.595C112.78 128.385 112.919 128.443 113.011 128.558C113.127 128.674 113.185 128.813 113.185 128.975V137.239C113.694 136.243 114.377 135.479 115.233 134.947C116.09 134.391 117.108 134.114 118.289 134.114C120.442 134.114 122.212 134.935 123.601 136.579C125.013 138.222 125.719 140.537 125.719 143.523C125.719 146.532 125.013 148.859 123.601 150.502C122.212 152.145 120.442 152.967 118.289 152.967C117.108 152.967 116.09 152.701 115.233 152.169C114.377 151.613 113.694 150.838 113.185 149.842V152.099C113.185 152.261 113.127 152.4 113.011 152.516C112.919 152.632 112.78 152.689 112.595 152.689H108.185ZM116.657 148.523C117.652 148.523 118.486 148.106 119.157 147.273C119.851 146.44 120.198 145.19 120.198 143.523C120.198 141.833 119.851 140.583 119.157 139.773C118.486 138.94 117.652 138.523 116.657 138.523C115.662 138.523 114.828 138.94 114.157 139.773C113.509 140.583 113.185 141.833 113.185 143.523C113.185 145.19 113.509 146.44 114.157 147.273C114.828 148.106 115.662 148.523 116.657 148.523ZM133.711 152.967C131.975 152.967 130.597 152.504 129.579 151.578C128.56 150.629 128.051 149.426 128.051 147.967C128.051 146.37 128.665 145.086 129.891 144.113C131.118 143.141 132.808 142.574 134.961 142.412L139.231 142.134V140.988C139.231 140.132 138.977 139.472 138.467 139.009C137.981 138.523 137.322 138.28 136.488 138.28C135.701 138.28 134.995 138.454 134.37 138.801C133.769 139.125 133.167 139.704 132.565 140.537C132.472 140.63 132.357 140.688 132.218 140.711C132.079 140.734 131.905 140.699 131.697 140.607L128.676 139.148C128.514 139.079 128.422 138.975 128.398 138.836C128.375 138.674 128.41 138.523 128.503 138.384C129.22 137.204 130.273 136.209 131.662 135.398C133.051 134.565 134.833 134.148 137.009 134.148C139.347 134.148 141.21 134.773 142.599 136.023C144.011 137.25 144.717 138.951 144.717 141.127V152.099C144.717 152.284 144.671 152.435 144.578 152.551C144.486 152.643 144.335 152.689 144.127 152.689H139.717C139.555 152.689 139.428 152.643 139.336 152.551C139.266 152.435 139.231 152.284 139.231 152.099V150.155C138.699 151.011 137.947 151.694 136.974 152.203C136.002 152.713 134.914 152.967 133.711 152.967ZM133.363 147.447C133.363 148.095 133.583 148.581 134.023 148.905C134.486 149.229 135.076 149.391 135.794 149.391C136.697 149.391 137.495 149.113 138.19 148.558C138.884 147.979 139.231 147.192 139.231 146.197V145.155L136.211 145.398C135.262 145.491 134.544 145.699 134.058 146.023C133.595 146.347 133.363 146.822 133.363 147.447ZM153.547 143.558C153.547 145.224 153.848 146.486 154.45 147.342C155.052 148.199 155.839 148.627 156.811 148.627C157.575 148.627 158.211 148.372 158.721 147.863C159.253 147.354 159.658 146.625 159.936 145.676C159.982 145.56 160.063 145.467 160.179 145.398C160.295 145.329 160.434 145.305 160.596 145.329L164.589 145.884C164.727 145.907 164.832 145.977 164.901 146.092C164.994 146.208 165.028 146.347 165.005 146.509C164.936 146.926 164.82 147.342 164.658 147.759C164.519 148.153 164.346 148.546 164.137 148.94C163.929 149.31 163.686 149.669 163.408 150.016C163.13 150.363 162.818 150.687 162.471 150.988C162.123 151.289 161.741 151.567 161.325 151.821C160.931 152.053 160.492 152.261 160.005 152.446C159.542 152.608 159.033 152.736 158.478 152.828C157.945 152.921 157.378 152.967 156.776 152.967C156.151 152.967 155.538 152.909 154.936 152.794C154.357 152.701 153.802 152.551 153.27 152.342C152.737 152.134 152.239 151.879 151.777 151.578C151.314 151.254 150.885 150.896 150.492 150.502C150.098 150.109 149.74 149.669 149.415 149.183C149.115 148.673 148.848 148.129 148.617 147.551C148.409 146.972 148.247 146.347 148.131 145.676C148.015 145.005 147.957 144.299 147.957 143.558C147.957 142.817 148.015 142.111 148.131 141.44C148.247 140.769 148.409 140.144 148.617 139.565C148.848 138.986 149.115 138.454 149.415 137.968C149.74 137.458 150.098 137.007 150.492 136.614C150.885 136.197 151.314 135.838 151.777 135.537C152.239 135.213 152.737 134.947 153.27 134.739C153.802 134.53 154.357 134.38 154.936 134.287C155.538 134.172 156.151 134.114 156.776 134.114C157.378 134.114 157.945 134.16 158.478 134.253C159.033 134.345 159.542 134.484 160.005 134.669C160.492 134.831 160.931 135.04 161.325 135.294C161.741 135.526 162.123 135.792 162.471 136.093C162.818 136.394 163.13 136.718 163.408 137.065C163.686 137.412 163.929 137.783 164.137 138.176C164.346 138.546 164.519 138.94 164.658 139.357C164.82 139.75 164.936 140.155 165.005 140.572C165.028 140.734 165.005 140.873 164.936 140.988C164.866 141.104 164.751 141.174 164.589 141.197L160.596 141.752C160.434 141.775 160.295 141.752 160.179 141.683C160.063 141.613 159.982 141.521 159.936 141.405C159.635 140.433 159.23 139.692 158.721 139.183C158.211 138.674 157.575 138.419 156.811 138.419C155.839 138.419 155.052 138.847 154.45 139.704C153.848 140.56 153.547 141.845 153.547 143.558ZM168.506 152.689C168.275 152.689 168.113 152.632 168.02 152.516C167.951 152.4 167.916 152.261 167.916 152.099V128.975C167.916 128.813 167.951 128.674 168.02 128.558C168.113 128.443 168.275 128.385 168.506 128.385H172.916C173.101 128.385 173.24 128.443 173.332 128.558C173.448 128.674 173.506 128.813 173.506 128.975V152.099C173.506 152.261 173.448 152.4 173.332 152.516C173.24 152.632 173.101 152.689 172.916 152.689H168.506ZM179.929 152.689C179.767 152.689 179.64 152.678 179.547 152.655C179.478 152.608 179.397 152.516 179.304 152.377L173.992 143.731C173.969 143.685 173.969 143.639 173.992 143.593C174.015 143.523 174.038 143.465 174.061 143.419L179.825 134.669C179.918 134.553 180.01 134.484 180.103 134.461C180.196 134.438 180.311 134.426 180.45 134.426H184.999C185.207 134.426 185.334 134.496 185.381 134.634C185.427 134.75 185.404 134.889 185.311 135.051L179.825 143.28L185.45 151.96C185.566 152.122 185.6 152.284 185.554 152.446C185.531 152.608 185.392 152.689 185.138 152.689H179.929ZM55.7521 234.933C55.0113 234.933 54.3053 234.875 53.6341 234.759C52.9859 234.643 52.361 234.47 51.7591 234.238C51.1573 234.007 50.6018 233.729 50.0925 233.405C49.5833 233.081 49.1087 232.699 48.6689 232.259C48.2291 231.819 47.8356 231.345 47.4884 230.835C47.1644 230.303 46.8866 229.736 46.6551 229.134C46.4236 228.509 46.25 227.849 46.1343 227.155C46.0186 226.461 45.9607 225.72 45.9607 224.933C45.9607 224.053 46.0186 223.197 46.1343 222.363C46.2732 221.507 46.4584 220.685 46.6898 219.898C46.9445 219.111 47.2454 218.359 47.5926 217.641C47.963 216.901 48.3912 216.218 48.8773 215.593C49.3634 214.945 49.9073 214.354 50.5092 213.822C51.1341 213.267 51.8054 212.769 52.523 212.329C53.2637 211.866 54.0507 211.473 54.884 211.149C55.7405 210.824 56.6432 210.57 57.5923 210.385C58.5645 210.176 59.5945 210.049 60.6824 210.003C60.8445 210.003 60.9718 210.037 61.0644 210.107C61.1801 210.153 61.238 210.257 61.238 210.419L62.0018 214.135C62.025 214.32 62.0018 214.47 61.9324 214.586C61.863 214.679 61.7472 214.736 61.5852 214.76C58.9001 214.922 56.7242 215.616 55.0576 216.843C53.391 218.07 52.3378 219.968 51.898 222.537C52.5461 221.681 53.3679 221.009 54.3632 220.523C55.3585 220.014 56.4465 219.759 57.627 219.759C59.6871 219.759 61.3769 220.408 62.6963 221.704C64.0388 223 64.7101 224.713 64.7101 226.842C64.7101 227.444 64.6522 228.023 64.5365 228.579C64.4208 229.134 64.2471 229.666 64.0157 230.176C63.8073 230.662 63.5412 231.125 63.2171 231.565C62.893 231.981 62.5227 232.363 62.106 232.71C61.7125 233.058 61.2727 233.37 60.7866 233.648C60.3237 233.926 59.826 234.157 59.2936 234.342C58.7612 234.527 58.1941 234.666 57.5923 234.759C56.9904 234.875 56.377 234.933 55.7521 234.933ZM55.6132 230.627C56.6317 230.627 57.465 230.291 58.1131 229.62C58.7612 228.949 59.0853 228.104 59.0853 227.086C59.0853 226.09 58.7612 225.268 58.1131 224.62C57.465 223.972 56.6317 223.648 55.6132 223.648C54.5715 223.648 53.7267 223.972 53.0785 224.62C52.4535 225.268 52.1411 226.09 52.1411 227.086C52.1411 228.104 52.4535 228.949 53.0785 229.62C53.7267 230.291 54.5715 230.627 55.6132 230.627ZM80.5958 234.064C80.5958 234.25 80.5379 234.4 80.4222 234.516C80.3296 234.632 80.2023 234.689 80.0403 234.689H75.9779C75.7696 234.689 75.6191 234.632 75.5265 234.516C75.4339 234.4 75.3876 234.25 75.3876 234.064V211.079C75.3876 210.871 75.4455 210.709 75.5613 210.593C75.7001 210.454 75.8737 210.385 76.0821 210.385H81.8805C82.112 210.385 82.2856 210.431 82.4013 210.524C82.5402 210.616 82.6559 210.801 82.7485 211.079L87.0539 222.259L91.3246 211.079C91.4172 210.801 91.533 210.616 91.6718 210.524C91.8107 210.431 91.9959 210.385 92.2274 210.385H98.0258C98.2341 210.385 98.3962 210.477 98.5119 210.662C98.6508 210.824 98.7202 211.056 98.7202 211.357V234.064C98.7202 234.25 98.6739 234.4 98.5813 234.516C98.5119 234.632 98.3614 234.689 98.13 234.689H93.9287C93.6972 234.689 93.5352 234.632 93.4426 234.516C93.35 234.4 93.3037 234.25 93.3037 234.064L93.4773 218.162L89.033 229.516C88.9636 229.701 88.8826 229.828 88.79 229.898C88.6974 229.967 88.5817 230.002 88.4428 230.002H85.4915C85.3526 230.002 85.2369 229.967 85.1443 229.898C85.0517 229.828 84.9707 229.713 84.9012 229.551L80.4569 218.162L80.5958 234.064ZM102.182 225.523C102.182 224.782 102.24 224.088 102.356 223.44C102.472 222.769 102.634 222.144 102.842 221.565C103.073 220.963 103.34 220.419 103.641 219.933C103.965 219.424 104.323 218.972 104.717 218.579C105.134 218.162 105.585 217.803 106.071 217.503C106.557 217.202 107.066 216.947 107.599 216.739C108.154 216.507 108.733 216.345 109.335 216.253C109.937 216.137 110.562 216.079 111.21 216.079C111.858 216.079 112.483 216.137 113.085 216.253C113.687 216.345 114.265 216.507 114.821 216.739C115.376 216.947 115.886 217.202 116.349 217.503C116.835 217.803 117.274 218.162 117.668 218.579C118.085 218.972 118.455 219.424 118.779 219.933C119.103 220.419 119.369 220.963 119.578 221.565C119.809 222.144 119.983 222.769 120.098 223.44C120.214 224.088 120.272 224.782 120.272 225.523C120.272 226.264 120.214 226.97 120.098 227.641C119.983 228.312 119.809 228.949 119.578 229.551C119.369 230.129 119.103 230.662 118.779 231.148C118.455 231.634 118.085 232.085 117.668 232.502C117.274 232.896 116.835 233.254 116.349 233.578C115.886 233.879 115.376 234.134 114.821 234.342C114.265 234.551 113.687 234.701 113.085 234.794C112.483 234.909 111.858 234.967 111.21 234.967C110.562 234.967 109.937 234.909 109.335 234.794C108.733 234.701 108.154 234.551 107.599 234.342C107.066 234.134 106.557 233.879 106.071 233.578C105.585 233.254 105.134 232.896 104.717 232.502C104.323 232.085 103.965 231.634 103.641 231.148C103.34 230.662 103.073 230.129 102.842 229.551C102.634 228.949 102.472 228.312 102.356 227.641C102.24 226.97 102.182 226.264 102.182 225.523ZM114.751 225.523C114.751 223.833 114.404 222.572 113.71 221.738C113.038 220.882 112.205 220.454 111.21 220.454C110.214 220.454 109.381 220.882 108.71 221.738C108.039 222.572 107.703 223.833 107.703 225.523C107.703 227.259 108.039 228.555 108.71 229.412C109.381 230.245 110.214 230.662 111.21 230.662C112.205 230.662 113.038 230.245 113.71 229.412C114.404 228.555 114.751 227.259 114.751 225.523ZM124.121 234.689C123.89 234.689 123.728 234.632 123.635 234.516C123.566 234.4 123.531 234.261 123.531 234.099V216.982C123.531 216.82 123.566 216.692 123.635 216.6C123.728 216.484 123.89 216.426 124.121 216.426H128.531C128.716 216.426 128.855 216.484 128.948 216.6C129.063 216.692 129.121 216.82 129.121 216.982V219.1C129.631 218.127 130.325 217.398 131.205 216.912C132.107 216.403 133.091 216.148 134.156 216.148C135.892 216.148 137.304 216.704 138.392 217.815C139.503 218.926 140.058 220.5 140.058 222.537V234.099C140.058 234.261 140.001 234.4 139.885 234.516C139.792 234.632 139.642 234.689 139.433 234.689H135.059C134.827 234.689 134.665 234.632 134.572 234.516C134.503 234.4 134.468 234.261 134.468 234.099V223.509C134.468 222.491 134.214 221.727 133.704 221.218C133.218 220.685 132.582 220.419 131.795 220.419C131.031 220.419 130.394 220.685 129.885 221.218C129.376 221.727 129.121 222.491 129.121 223.509V234.099C129.121 234.261 129.063 234.4 128.948 234.516C128.855 234.632 128.716 234.689 128.531 234.689H124.121ZM152.145 234.967C150.293 234.967 148.858 234.504 147.839 233.578C146.844 232.629 146.346 231.391 146.346 229.863V220.697H142.701C142.562 220.697 142.446 220.662 142.354 220.593C142.284 220.5 142.249 220.373 142.249 220.211V216.878C142.249 216.715 142.284 216.6 142.354 216.53C142.446 216.461 142.562 216.426 142.701 216.426H146.346V212.19C146.346 212.005 146.393 211.855 146.485 211.739C146.601 211.623 146.752 211.565 146.937 211.565H151.312C151.497 211.565 151.636 211.623 151.728 211.739C151.844 211.855 151.902 212.005 151.902 212.19V216.426H156.138C156.277 216.426 156.392 216.461 156.485 216.53C156.578 216.6 156.624 216.715 156.624 216.878V220.211C156.624 220.373 156.578 220.5 156.485 220.593C156.392 220.662 156.277 220.697 156.138 220.697H151.902V228.613C151.902 229.215 152.075 229.678 152.423 230.002C152.77 230.303 153.268 230.453 153.916 230.453C154.217 230.453 154.529 230.43 154.853 230.384C155.2 230.315 155.594 230.222 156.034 230.106C156.196 230.06 156.323 230.083 156.416 230.176C156.508 230.245 156.554 230.338 156.554 230.453L156.589 233.787C156.612 233.879 156.601 233.972 156.554 234.064C156.508 234.157 156.427 234.227 156.311 234.273C155.825 234.504 155.2 234.678 154.436 234.794C153.696 234.909 152.932 234.967 152.145 234.967ZM159.826 234.689C159.594 234.689 159.432 234.632 159.34 234.516C159.27 234.4 159.236 234.261 159.236 234.099V210.975C159.236 210.813 159.27 210.674 159.34 210.558C159.432 210.443 159.594 210.385 159.826 210.385H164.235C164.421 210.385 164.559 210.443 164.652 210.558C164.768 210.674 164.826 210.813 164.826 210.975V219.1C165.335 218.127 166.029 217.398 166.909 216.912C167.812 216.403 168.795 216.148 169.86 216.148C171.596 216.148 173.008 216.704 174.096 217.815C175.207 218.926 175.763 220.5 175.763 222.537V234.099C175.763 234.261 175.705 234.4 175.589 234.516C175.497 234.632 175.346 234.689 175.138 234.689H170.763C170.532 234.689 170.369 234.632 170.277 234.516C170.207 234.4 170.173 234.261 170.173 234.099V223.509C170.173 222.491 169.918 221.727 169.409 221.218C168.923 220.685 168.286 220.419 167.499 220.419C166.735 220.419 166.099 220.685 165.59 221.218C165.08 221.727 164.826 222.491 164.826 223.509V234.099C164.826 234.261 164.768 234.4 164.652 234.516C164.559 234.632 164.421 234.689 164.235 234.689H159.826ZM186.448 216.148C188.022 216.148 189.481 216.472 190.823 217.121C192.189 217.769 193.23 218.556 193.948 219.482C194.041 219.597 194.087 219.748 194.087 219.933C194.11 220.095 194.041 220.222 193.879 220.315L191.413 222.329C191.298 222.421 191.182 222.456 191.066 222.433C190.95 222.41 190.835 222.352 190.719 222.259C190.071 221.495 189.388 220.951 188.67 220.627C187.953 220.28 187.258 220.107 186.587 220.107C185.985 220.107 185.488 220.234 185.094 220.489C184.724 220.743 184.539 221.114 184.539 221.6C184.539 222.155 184.863 222.572 185.511 222.85C186.159 223.104 186.934 223.336 187.837 223.544C188.115 223.613 188.404 223.683 188.705 223.752C189.006 223.822 189.307 223.903 189.608 223.995C189.909 224.088 190.198 224.192 190.476 224.308C190.777 224.4 191.066 224.516 191.344 224.655C191.645 224.771 191.923 224.91 192.177 225.072C192.432 225.234 192.663 225.407 192.872 225.593C193.103 225.778 193.311 225.998 193.497 226.252C193.682 226.484 193.832 226.738 193.948 227.016C194.087 227.294 194.191 227.606 194.26 227.954C194.33 228.278 194.365 228.636 194.365 229.03C194.365 230.882 193.624 232.34 192.142 233.405C190.661 234.446 188.717 234.967 186.309 234.967C184.296 234.967 182.606 234.62 181.24 233.926C179.874 233.208 178.925 232.456 178.393 231.669C178.277 231.553 178.208 231.426 178.185 231.287C178.185 231.125 178.266 230.986 178.428 230.87L180.719 228.717C180.835 228.602 180.951 228.544 181.066 228.544C181.182 228.544 181.286 228.59 181.379 228.683C182.073 229.539 182.837 230.164 183.671 230.558C184.504 230.951 185.349 231.148 186.205 231.148C187.108 231.148 187.779 230.997 188.219 230.697C188.682 230.396 188.913 229.991 188.913 229.481C188.913 228.903 188.532 228.498 187.768 228.266C187.004 228.011 186.113 227.768 185.094 227.537C184.793 227.467 184.481 227.398 184.157 227.329C183.833 227.236 183.509 227.143 183.184 227.051C182.884 226.935 182.583 226.819 182.282 226.704C181.981 226.565 181.691 226.414 181.414 226.252C181.159 226.09 180.904 225.905 180.65 225.697C180.418 225.488 180.198 225.268 179.99 225.037C179.805 224.782 179.643 224.505 179.504 224.204C179.365 223.88 179.249 223.544 179.157 223.197C179.087 222.826 179.053 222.421 179.053 221.982C179.053 220.199 179.724 218.787 181.066 217.746C182.432 216.681 184.226 216.148 186.448 216.148Z" fill="#00D639"/>
<path d="M199.315 131.753C198.667 131.753 198.065 131.521 197.509 131.058C196.954 130.595 196.676 129.993 196.676 129.253C196.676 128.512 196.954 127.91 197.509 127.447C198.065 126.984 198.667 126.753 199.315 126.753C199.963 126.753 200.553 126.984 201.086 127.447C201.641 127.91 201.919 128.512 201.919 129.253C201.919 129.993 201.641 130.595 201.086 131.058C200.553 131.521 199.963 131.753 199.315 131.753ZM202.405 152.967C200.738 152.967 199.465 152.551 198.586 151.717C197.706 150.861 197.266 149.738 197.266 148.349V137.933H193.898C193.783 137.933 193.678 137.898 193.586 137.829C193.493 137.736 193.447 137.632 193.447 137.516V135.121C193.447 135.005 193.482 134.912 193.551 134.843C193.644 134.773 193.759 134.739 193.898 134.739H200.981C201.097 134.739 201.19 134.773 201.259 134.843C201.352 134.912 201.398 135.005 201.398 135.121V147.516C201.398 148.187 201.572 148.708 201.919 149.078C202.289 149.449 202.799 149.634 203.447 149.634C203.724 149.634 204.014 149.611 204.315 149.565C204.616 149.495 204.951 149.414 205.322 149.322C205.46 149.275 205.553 149.287 205.599 149.356C205.669 149.426 205.715 149.507 205.738 149.599L205.877 151.995C205.877 152.088 205.854 152.169 205.808 152.238C205.785 152.308 205.727 152.365 205.634 152.412C205.31 152.574 204.847 152.701 204.245 152.794C203.667 152.909 203.053 152.967 202.405 152.967ZM209.203 152.689C209.018 152.689 208.891 152.643 208.821 152.551C208.752 152.458 208.717 152.342 208.717 152.203V135.19C208.717 135.074 208.752 134.97 208.821 134.878C208.891 134.785 209.018 134.739 209.203 134.739H212.293C212.455 134.739 212.583 134.785 212.675 134.878C212.768 134.97 212.814 135.074 212.814 135.19V137.308C213.323 136.382 214.006 135.676 214.863 135.19C215.742 134.704 216.703 134.461 217.744 134.461C219.457 134.461 220.858 135.016 221.946 136.127C223.057 137.239 223.612 138.801 223.612 140.815V152.203C223.612 152.342 223.566 152.458 223.473 152.551C223.404 152.643 223.288 152.689 223.126 152.689H219.967C219.805 152.689 219.689 152.643 219.619 152.551C219.55 152.458 219.515 152.342 219.515 152.203V141.475C219.515 140.225 219.203 139.276 218.578 138.627C217.953 137.979 217.143 137.655 216.147 137.655C215.198 137.655 214.4 137.979 213.751 138.627C213.127 139.276 212.814 140.225 212.814 141.475V152.203C212.814 152.342 212.768 152.458 212.675 152.551C212.583 152.643 212.455 152.689 212.293 152.689H209.203ZM51.9327 193.967C50.243 193.967 48.8888 193.504 47.8704 192.578C46.875 191.652 46.3774 190.495 46.3774 189.106C46.3774 187.463 46.9792 186.178 48.1829 185.252C49.3865 184.303 51.0531 183.748 53.1827 183.586L57.4187 183.273V182.093C57.4187 180.958 57.1062 180.09 56.4812 179.489C55.8794 178.887 55.0808 178.586 54.0854 178.586C53.2521 178.586 52.4883 178.771 51.7938 179.141C51.1226 179.489 50.4976 180.148 49.9189 181.12C49.8263 181.213 49.7222 181.271 49.6064 181.294C49.4907 181.294 49.3518 181.259 49.1898 181.19L47.0371 180.183C46.8982 180.114 46.8172 180.021 46.794 179.905C46.7709 179.766 46.794 179.627 46.8634 179.489C47.5116 178.354 48.4606 177.405 49.7106 176.641C50.9605 175.854 52.5461 175.461 54.4674 175.461C56.5506 175.461 58.2288 176.051 59.5019 177.232C60.7982 178.412 61.4463 180.056 61.4463 182.162V193.203C61.4463 193.365 61.4 193.493 61.3074 193.585C61.238 193.655 61.1222 193.689 60.9602 193.689H57.8353C57.6964 193.689 57.5923 193.655 57.5228 193.585C57.4534 193.493 57.4187 193.365 57.4187 193.203V191.085C56.8863 191.988 56.134 192.694 55.1618 193.203C54.2127 193.713 53.1364 193.967 51.9327 193.967ZM50.3008 188.724C50.3008 189.558 50.5902 190.171 51.1689 190.565C51.7476 190.935 52.4535 191.12 53.2869 191.12C54.3516 191.12 55.3007 190.784 56.134 190.113C56.9904 189.442 57.4187 188.516 57.4187 187.335V185.842L54.0854 186.155C52.8355 186.248 51.8864 186.502 51.2383 186.919C50.6133 187.335 50.3008 187.937 50.3008 188.724ZM71.9277 175.461C73.4786 175.461 74.8675 175.82 76.0943 176.537C77.3442 177.255 78.2933 178.146 78.9414 179.211C79.0108 179.303 79.034 179.419 79.0108 179.558C78.9877 179.674 78.9183 179.778 78.8025 179.87L76.8581 181.225C76.7656 181.294 76.6614 181.317 76.5457 181.294C76.4531 181.271 76.3605 181.201 76.2679 181.086C75.666 180.206 75.0063 179.546 74.2888 179.107C73.5944 178.667 72.8421 178.447 72.0319 178.447C71.3143 178.447 70.7009 178.632 70.1917 179.002C69.7056 179.35 69.4625 179.87 69.4625 180.565C69.4625 181.306 69.8329 181.85 70.5736 182.197C71.3143 182.544 72.1824 182.856 73.1777 183.134C73.4555 183.204 73.7332 183.285 74.011 183.377C74.3119 183.447 74.6013 183.528 74.879 183.62C75.1568 183.713 75.4346 183.817 75.7123 183.933C76.0133 184.025 76.291 184.141 76.5457 184.28C76.8003 184.396 77.0433 184.535 77.2748 184.697C77.5294 184.836 77.7609 184.998 77.9692 185.183C78.1775 185.368 78.3627 185.576 78.5248 185.808C78.6868 186.016 78.8257 186.259 78.9414 186.537C79.0571 186.792 79.1497 187.081 79.2192 187.405C79.2886 187.706 79.3233 188.041 79.3233 188.412C79.3233 188.921 79.2655 189.396 79.1497 189.835C79.034 190.275 78.8604 190.68 78.6289 191.051C78.3974 191.421 78.1081 191.768 77.7609 192.092C77.4368 192.393 77.0665 192.659 76.6498 192.891C76.2563 193.122 75.8165 193.319 75.3304 193.481C74.8443 193.643 74.3235 193.759 73.768 193.828C73.2356 193.921 72.6685 193.967 72.0666 193.967C70.2148 193.967 68.6755 193.608 67.4487 192.891C66.2451 192.15 65.3539 191.271 64.7752 190.252C64.7058 190.136 64.671 190.021 64.671 189.905C64.671 189.789 64.7405 189.685 64.8794 189.592L66.7196 188.169C66.8122 188.076 66.9163 188.041 67.0321 188.065C67.1478 188.065 67.2404 188.111 67.3098 188.204C67.9117 189.199 68.6177 189.916 69.4278 190.356C70.238 190.796 71.0829 191.016 71.9625 191.016C72.9578 191.016 73.7564 190.819 74.3582 190.426C74.9832 190.009 75.2957 189.43 75.2957 188.69C75.2957 187.949 74.9022 187.417 74.1152 187.092C73.3513 186.768 72.4486 186.479 71.4069 186.224C71.106 186.132 70.7935 186.051 70.4695 185.981C70.1454 185.889 69.8213 185.796 69.4973 185.704C69.1964 185.588 68.8954 185.472 68.5945 185.356C68.3167 185.218 68.039 185.079 67.7612 184.94C67.4834 184.778 67.2172 184.604 66.9626 184.419C66.7312 184.211 66.5228 183.991 66.3376 183.759C66.1525 183.528 65.9904 183.273 65.8516 182.995C65.7127 182.694 65.5969 182.37 65.5043 182.023C65.4349 181.653 65.4002 181.259 65.4002 180.843C65.4002 179.176 66.0136 177.868 67.2404 176.919C68.4904 175.947 70.0528 175.461 71.9277 175.461ZM95.977 193.967C94.3104 193.967 93.0373 193.551 92.1577 192.717C91.3012 191.861 90.873 190.738 90.873 189.349V172.579H87.4703C87.3777 172.579 87.2967 172.544 87.2273 172.475C87.1347 172.382 87.0884 172.267 87.0884 172.128V169.801C87.0884 169.662 87.1347 169.558 87.2273 169.489C87.2967 169.419 87.3777 169.385 87.4703 169.385H94.5881C94.6807 169.385 94.7618 169.431 94.8312 169.524C94.9238 169.593 94.9701 169.686 94.9701 169.801V188.516C94.9701 189.187 95.1553 189.708 95.5256 190.078C95.896 190.449 96.4052 190.634 97.0533 190.634C97.308 190.634 97.5857 190.611 97.8866 190.565C98.2107 190.518 98.5579 190.437 98.9283 190.322C99.0672 190.275 99.1713 190.287 99.2408 190.356C99.3102 190.426 99.3449 190.507 99.3449 190.599L99.4491 192.995C99.4491 193.088 99.4375 193.169 99.4144 193.238C99.3912 193.308 99.3218 193.365 99.2061 193.412C98.882 193.574 98.419 193.701 97.8172 193.794C97.2154 193.909 96.602 193.967 95.977 193.967ZM104.781 172.753C104.133 172.753 103.531 172.521 102.976 172.058C102.42 171.595 102.142 170.993 102.142 170.253C102.142 169.512 102.42 168.91 102.976 168.447C103.531 167.984 104.133 167.753 104.781 167.753C105.429 167.753 106.02 167.984 106.552 168.447C107.108 168.91 107.385 169.512 107.385 170.253C107.385 170.993 107.108 171.595 106.552 172.058C106.02 172.521 105.429 172.753 104.781 172.753ZM107.871 193.967C106.205 193.967 104.932 193.551 104.052 192.717C103.172 191.861 102.733 190.738 102.733 189.349V178.933H99.3647C99.249 178.933 99.1448 178.898 99.0522 178.829C98.9597 178.736 98.9134 178.632 98.9134 178.516V176.121C98.9134 176.005 98.9481 175.912 99.0175 175.843C99.1101 175.773 99.2259 175.739 99.3647 175.739H106.448C106.564 175.739 106.656 175.773 106.726 175.843C106.818 175.912 106.864 176.005 106.864 176.121V188.516C106.864 189.187 107.038 189.708 107.385 190.078C107.756 190.449 108.265 190.634 108.913 190.634C109.191 190.634 109.48 190.611 109.781 190.565C110.082 190.495 110.418 190.414 110.788 190.322C110.927 190.275 111.019 190.287 111.066 190.356C111.135 190.426 111.181 190.507 111.205 190.599L111.344 192.995C111.344 193.088 111.32 193.169 111.274 193.238C111.251 193.308 111.193 193.365 111.1 193.412C110.776 193.574 110.313 193.701 109.712 193.794C109.133 193.909 108.52 193.967 107.871 193.967ZM120.086 193.967C118.466 193.967 117.216 193.551 116.336 192.717C115.457 191.861 115.017 190.738 115.017 189.349V178.933H111.336C111.221 178.933 111.128 178.898 111.059 178.829C110.989 178.759 110.955 178.655 110.955 178.516V176.121C110.955 175.982 110.989 175.889 111.059 175.843C111.128 175.773 111.221 175.739 111.336 175.739H115.017V171.329C115.017 171.19 115.052 171.074 115.121 170.982C115.191 170.889 115.306 170.843 115.468 170.843H118.593C118.755 170.843 118.871 170.889 118.94 170.982C119.033 171.074 119.079 171.19 119.079 171.329V175.739H123.489C123.605 175.739 123.697 175.773 123.767 175.843C123.859 175.889 123.906 175.982 123.906 176.121V178.516C123.906 178.655 123.859 178.759 123.767 178.829C123.697 178.898 123.605 178.933 123.489 178.933H119.079V188.516C119.079 189.187 119.264 189.708 119.635 190.078C120.028 190.449 120.561 190.634 121.232 190.634C121.579 190.634 121.915 190.599 122.239 190.53C122.586 190.46 122.956 190.368 123.35 190.252C123.489 190.206 123.593 190.217 123.662 190.287C123.755 190.333 123.801 190.403 123.801 190.495L123.906 192.891C123.906 192.983 123.894 193.064 123.871 193.134C123.848 193.203 123.79 193.261 123.697 193.308C123.281 193.516 122.748 193.678 122.1 193.794C121.452 193.909 120.781 193.967 120.086 193.967ZM134.7 193.967C133.08 193.967 131.83 193.551 130.95 192.717C130.071 191.861 129.631 190.738 129.631 189.349V178.933H125.951C125.835 178.933 125.742 178.898 125.673 178.829C125.603 178.759 125.569 178.655 125.569 178.516V176.121C125.569 175.982 125.603 175.889 125.673 175.843C125.742 175.773 125.835 175.739 125.951 175.739H129.631V171.329C129.631 171.19 129.666 171.074 129.735 170.982C129.805 170.889 129.92 170.843 130.082 170.843H133.207C133.369 170.843 133.485 170.889 133.554 170.982C133.647 171.074 133.693 171.19 133.693 171.329V175.739H138.103C138.219 175.739 138.311 175.773 138.381 175.843C138.473 175.889 138.52 175.982 138.52 176.121V178.516C138.52 178.655 138.473 178.759 138.381 178.829C138.311 178.898 138.219 178.933 138.103 178.933H133.693V188.516C133.693 189.187 133.879 189.708 134.249 190.078C134.642 190.449 135.175 190.634 135.846 190.634C136.193 190.634 136.529 190.599 136.853 190.53C137.2 190.46 137.571 190.368 137.964 190.252C138.103 190.206 138.207 190.217 138.277 190.287C138.369 190.333 138.415 190.403 138.415 190.495L138.52 192.891C138.52 192.983 138.508 193.064 138.485 193.134C138.462 193.203 138.404 193.261 138.311 193.308C137.895 193.516 137.362 193.678 136.714 193.794C136.066 193.909 135.395 193.967 134.7 193.967ZM147.787 193.967C146.121 193.967 144.848 193.551 143.968 192.717C143.112 191.861 142.683 190.738 142.683 189.349V172.579H139.281C139.188 172.579 139.107 172.544 139.038 172.475C138.945 172.382 138.899 172.267 138.899 172.128V169.801C138.899 169.662 138.945 169.558 139.038 169.489C139.107 169.419 139.188 169.385 139.281 169.385H146.399C146.491 169.385 146.572 169.431 146.642 169.524C146.734 169.593 146.78 169.686 146.78 169.801V188.516C146.78 189.187 146.966 189.708 147.336 190.078C147.706 190.449 148.216 190.634 148.864 190.634C149.118 190.634 149.396 190.611 149.697 190.565C150.021 190.518 150.368 190.437 150.739 190.322C150.878 190.275 150.982 190.287 151.051 190.356C151.121 190.426 151.155 190.507 151.155 190.599L151.259 192.995C151.259 193.088 151.248 193.169 151.225 193.238C151.202 193.308 151.132 193.365 151.016 193.412C150.692 193.574 150.229 193.701 149.628 193.794C149.026 193.909 148.412 193.967 147.787 193.967ZM168.401 185.634H156.873C156.989 187.44 157.452 188.771 158.262 189.627C159.095 190.46 160.137 190.877 161.387 190.877C162.243 190.877 162.984 190.68 163.609 190.287C164.257 189.87 164.801 189.268 165.241 188.481C165.31 188.366 165.391 188.296 165.484 188.273C165.577 188.227 165.704 188.227 165.866 188.273L168.262 188.828C168.447 188.875 168.563 188.944 168.609 189.037C168.678 189.129 168.69 189.245 168.644 189.384C168.505 189.731 168.331 190.067 168.123 190.391C167.914 190.715 167.683 191.028 167.428 191.328C167.197 191.629 166.919 191.919 166.595 192.196C166.294 192.451 165.959 192.694 165.588 192.926C165.218 193.134 164.813 193.319 164.373 193.481C163.933 193.643 163.459 193.759 162.949 193.828C162.463 193.921 161.931 193.967 161.352 193.967C160.75 193.967 160.16 193.909 159.581 193.794C159.026 193.701 158.494 193.551 157.984 193.342C157.475 193.134 156.989 192.879 156.526 192.578C156.086 192.277 155.681 191.93 155.311 191.537C154.94 191.143 154.605 190.703 154.304 190.217C154.003 189.731 153.748 189.199 153.54 188.62C153.332 188.041 153.17 187.428 153.054 186.78C152.961 186.132 152.915 185.437 152.915 184.697C152.915 183.979 152.961 183.296 153.054 182.648C153.17 181.977 153.332 181.363 153.54 180.808C153.748 180.229 153.991 179.697 154.269 179.211C154.57 178.725 154.894 178.285 155.241 177.891C155.612 177.498 156.017 177.151 156.457 176.85C156.896 176.549 157.359 176.294 157.845 176.086C158.331 175.878 158.841 175.727 159.373 175.634C159.905 175.519 160.461 175.461 161.04 175.461C161.618 175.461 162.174 175.519 162.706 175.634C163.239 175.727 163.748 175.878 164.234 176.086C164.72 176.294 165.172 176.549 165.588 176.85C166.005 177.151 166.387 177.498 166.734 177.891C167.104 178.285 167.428 178.725 167.706 179.211C167.984 179.697 168.215 180.229 168.401 180.808C168.586 181.363 168.725 181.965 168.817 182.613C168.933 183.262 168.991 183.944 168.991 184.662C168.991 184.963 168.945 185.206 168.852 185.391C168.783 185.553 168.632 185.634 168.401 185.634ZM160.97 178.482C159.975 178.482 159.107 178.84 158.366 179.558C157.625 180.252 157.151 181.398 156.943 182.995H165.067C164.882 181.398 164.408 180.252 163.644 179.558C162.903 178.84 162.012 178.482 160.97 178.482ZM184.612 193.967C182.922 193.967 181.568 193.504 180.55 192.578C179.554 191.652 179.057 190.495 179.057 189.106C179.057 187.463 179.659 186.178 180.862 185.252C182.066 184.303 183.732 183.748 185.862 183.586L190.098 183.273V182.093C190.098 180.958 189.786 180.09 189.161 179.489C188.559 178.887 187.76 178.586 186.765 178.586C185.931 178.586 185.168 178.771 184.473 179.141C183.802 179.489 183.177 180.148 182.598 181.12C182.506 181.213 182.402 181.271 182.286 181.294C182.17 181.294 182.031 181.259 181.869 181.19L179.716 180.183C179.578 180.114 179.497 180.021 179.473 179.905C179.45 179.766 179.473 179.627 179.543 179.489C180.191 178.354 181.14 177.405 182.39 176.641C183.64 175.854 185.226 175.461 187.147 175.461C189.23 175.461 190.908 176.051 192.181 177.232C193.478 178.412 194.126 180.056 194.126 182.162V193.203C194.126 193.365 194.079 193.493 193.987 193.585C193.917 193.655 193.802 193.689 193.64 193.689H190.515C190.376 193.689 190.272 193.655 190.202 193.585C190.133 193.493 190.098 193.365 190.098 193.203V191.085C189.566 191.988 188.813 192.694 187.841 193.203C186.892 193.713 185.816 193.967 184.612 193.967ZM182.98 188.724C182.98 189.558 183.27 190.171 183.848 190.565C184.427 190.935 185.133 191.12 185.966 191.12C187.031 191.12 187.98 190.784 188.813 190.113C189.67 189.442 190.098 188.516 190.098 187.335V185.842L186.765 186.155C185.515 186.248 184.566 186.502 183.918 186.919C183.293 187.335 182.98 187.937 182.98 188.724ZM204.607 175.461C206.158 175.461 207.547 175.82 208.774 176.537C210.024 177.255 210.973 178.146 211.621 179.211C211.69 179.303 211.713 179.419 211.69 179.558C211.667 179.674 211.598 179.778 211.482 179.87L209.538 181.225C209.445 181.294 209.341 181.317 209.225 181.294C209.132 181.271 209.04 181.201 208.947 181.086C208.345 180.206 207.686 179.546 206.968 179.107C206.274 178.667 205.521 178.447 204.711 178.447C203.994 178.447 203.38 178.632 202.871 179.002C202.385 179.35 202.142 179.87 202.142 180.565C202.142 181.306 202.512 181.85 203.253 182.197C203.994 182.544 204.862 182.856 205.857 183.134C206.135 183.204 206.413 183.285 206.69 183.377C206.991 183.447 207.281 183.528 207.558 183.62C207.836 183.713 208.114 183.817 208.392 183.933C208.693 184.025 208.97 184.141 209.225 184.28C209.48 184.396 209.723 184.535 209.954 184.697C210.209 184.836 210.44 184.998 210.649 185.183C210.857 185.368 211.042 185.576 211.204 185.808C211.366 186.016 211.505 186.259 211.621 186.537C211.737 186.792 211.829 187.081 211.899 187.405C211.968 187.706 212.003 188.041 212.003 188.412C212.003 188.921 211.945 189.396 211.829 189.835C211.713 190.275 211.54 190.68 211.308 191.051C211.077 191.421 210.787 191.768 210.44 192.092C210.116 192.393 209.746 192.659 209.329 192.891C208.936 193.122 208.496 193.319 208.01 193.481C207.524 193.643 207.003 193.759 206.447 193.828C205.915 193.921 205.348 193.967 204.746 193.967C202.894 193.967 201.355 193.608 200.128 192.891C198.924 192.15 198.033 191.271 197.455 190.252C197.385 190.136 197.35 190.021 197.35 189.905C197.35 189.789 197.42 189.685 197.559 189.592L199.399 188.169C199.492 188.076 199.596 188.041 199.711 188.065C199.827 188.065 199.92 188.111 199.989 188.204C200.591 189.199 201.297 189.916 202.107 190.356C202.917 190.796 203.762 191.016 204.642 191.016C205.637 191.016 206.436 190.819 207.038 190.426C207.663 190.009 207.975 189.43 207.975 188.69C207.975 187.949 207.582 187.417 206.795 187.092C206.031 186.768 205.128 186.479 204.086 186.224C203.785 186.132 203.473 186.051 203.149 185.981C202.825 185.889 202.501 185.796 202.177 185.704C201.876 185.588 201.575 185.472 201.274 185.356C200.996 185.218 200.718 185.079 200.441 184.94C200.163 184.778 199.897 184.604 199.642 184.419C199.411 184.211 199.202 183.991 199.017 183.759C198.832 183.528 198.67 183.273 198.531 182.995C198.392 182.694 198.276 182.37 198.184 182.023C198.114 181.653 198.08 181.259 198.08 180.843C198.08 179.176 198.693 177.868 199.92 176.919C201.17 175.947 202.732 175.461 204.607 175.461Z" fill="white"/>
</svg>
