<svg width="411" height="292" viewBox="0 0 411 292" fill="none" xmlns="http://www.w3.org/2000/svg">
<path d="M0 21.75C0 9.73781 9.73781 0 21.75 0H387.875C399.887 0 409.625 9.73781 409.625 21.75V270.062C409.625 282.075 399.887 291.812 387.875 291.812H21.75C9.73782 291.812 0 282.075 0 270.062V21.75Z" fill="black"/>
<rect x="19.8398" y="129.309" width="370.994" height="116.496" rx="17.9224" fill="white" stroke="url(#paint0_linear_1106_33754)" stroke-width="3.58448"/>
<g clip-path="url(#clip0_1106_33754)">
<path d="M39.8126 158.747C38.8711 158.747 38.0835 158.526 37.4498 158.082C36.8252 157.629 36.4133 156.996 36.2141 156.181C36.196 156.108 36.1915 156.045 36.2006 155.991C36.2187 155.936 36.2639 155.896 36.3364 155.869L37.9658 155.325C38.0201 155.307 38.0699 155.303 38.1152 155.312C38.1605 155.321 38.1876 155.353 38.1967 155.407C38.3325 155.869 38.5226 156.208 38.767 156.425C39.0205 156.643 39.3283 156.751 39.6904 156.751C40.0887 156.751 40.41 156.638 40.6545 156.412C40.9079 156.176 41.0347 155.801 41.0347 155.285V149.351C41.0347 149.287 41.0573 149.238 41.1026 149.201C41.1478 149.156 41.2021 149.133 41.2655 149.133H43.1258C43.1892 149.133 43.239 149.156 43.2752 149.201C43.3114 149.238 43.3295 149.287 43.3295 149.351V155.339C43.3295 156.416 43.0036 157.254 42.3518 157.851C41.7091 158.449 40.8627 158.747 39.8126 158.747ZM44.5867 155.054C44.5867 154.764 44.6094 154.493 44.6546 154.239C44.6999 153.977 44.7633 153.732 44.8447 153.506C44.9353 153.27 45.0394 153.058 45.1571 152.868C45.2838 152.668 45.4241 152.492 45.578 152.338C45.7409 152.175 45.9175 152.035 46.1076 151.917C46.2977 151.799 46.4968 151.7 46.7051 151.618C46.9223 151.528 47.1486 151.464 47.384 151.428C47.6194 151.383 47.8638 151.36 48.1173 151.36C48.3707 151.36 48.6152 151.383 48.8505 151.428C49.0859 151.464 49.3122 151.528 49.5295 151.618C49.7467 151.7 49.9459 151.799 50.1269 151.917C50.3171 152.035 50.4891 152.175 50.6429 152.338C50.8059 152.492 50.9507 152.668 51.0775 152.868C51.2042 153.058 51.3083 153.27 51.3898 153.506C51.4803 153.732 51.5482 153.977 51.5935 154.239C51.6387 154.493 51.6614 154.764 51.6614 155.054C51.6614 155.344 51.6387 155.62 51.5935 155.882C51.5482 156.145 51.4803 156.394 51.3898 156.629C51.3083 156.855 51.2042 157.064 51.0775 157.254C50.9507 157.444 50.8059 157.62 50.6429 157.783C50.4891 157.937 50.3171 158.077 50.1269 158.204C49.9459 158.322 49.7467 158.421 49.5295 158.503C49.3122 158.584 49.0859 158.643 48.8505 158.679C48.6152 158.725 48.3707 158.747 48.1173 158.747C47.8638 158.747 47.6194 158.725 47.384 158.679C47.1486 158.643 46.9223 158.584 46.7051 158.503C46.4968 158.421 46.2977 158.322 46.1076 158.204C45.9175 158.077 45.7409 157.937 45.578 157.783C45.4241 157.62 45.2838 157.444 45.1571 157.254C45.0394 157.064 44.9353 156.855 44.8447 156.629C44.7633 156.394 44.6999 156.145 44.6546 155.882C44.6094 155.62 44.5867 155.344 44.5867 155.054ZM49.5023 155.054C49.5023 154.393 49.3665 153.9 49.0949 153.574C48.8324 153.239 48.5065 153.071 48.1173 153.071C47.728 153.071 47.4021 153.239 47.1396 153.574C46.8771 153.9 46.7458 154.393 46.7458 155.054C46.7458 155.733 46.8771 156.24 47.1396 156.575C47.4021 156.901 47.728 157.064 48.1173 157.064C48.5065 157.064 48.8324 156.901 49.0949 156.575C49.3665 156.24 49.5023 155.733 49.5023 155.054ZM57.2134 155.855V151.727C57.2134 151.664 57.2315 151.609 57.2677 151.564C57.3039 151.519 57.3627 151.496 57.4442 151.496H59.1551C59.2457 151.496 59.309 151.519 59.3452 151.564C59.3815 151.609 59.3996 151.664 59.3996 151.727V158.408C59.3996 158.471 59.3815 158.526 59.3452 158.571C59.309 158.616 59.2457 158.639 59.1551 158.639H57.4442C57.3627 158.639 57.3039 158.616 57.2677 158.571C57.2315 158.526 57.2134 158.471 57.2134 158.408V157.607C57.0142 157.978 56.7381 158.263 56.385 158.462C56.032 158.652 55.6472 158.747 55.2308 158.747C54.5519 158.747 53.9997 158.535 53.5742 158.109C53.1487 157.675 52.936 157.054 52.936 156.249V151.727C52.936 151.664 52.9541 151.609 52.9903 151.564C53.0265 151.519 53.0899 151.496 53.1804 151.496H54.8914C54.9819 151.496 55.0407 151.519 55.0679 151.564C55.1041 151.609 55.1222 151.664 55.1222 151.727V155.855C55.1222 156.253 55.2172 156.557 55.4074 156.765C55.5975 156.964 55.8419 157.064 56.1406 157.064C56.4484 157.064 56.7019 156.964 56.901 156.765C57.1092 156.557 57.2134 156.253 57.2134 155.855ZM61.2293 158.639C61.1388 158.639 61.0754 158.616 61.0392 158.571C61.0121 158.526 60.9985 158.471 60.9985 158.408V151.713C60.9985 151.65 61.0121 151.6 61.0392 151.564C61.0754 151.519 61.1388 151.496 61.2293 151.496H62.9539C63.0263 151.496 63.0806 151.519 63.1168 151.564C63.1621 151.6 63.1847 151.65 63.1847 151.713V152.99C63.402 152.42 63.7188 152.003 64.1352 151.741C64.5607 151.478 64.9952 151.347 65.4388 151.347C65.475 151.347 65.5112 151.351 65.5474 151.36C65.5927 151.36 65.6334 151.365 65.6696 151.374C65.7602 151.383 65.8235 151.406 65.8597 151.442C65.896 151.469 65.9141 151.514 65.9141 151.578L65.8869 153.126C65.8779 153.216 65.8552 153.275 65.819 153.302C65.7828 153.329 65.733 153.338 65.6696 153.329C65.561 153.32 65.4524 153.311 65.3437 153.302C65.2351 153.293 65.1355 153.289 65.045 153.289C64.52 153.289 64.0764 153.483 63.7143 153.872C63.3612 154.262 63.1847 154.76 63.1847 155.366V158.408C63.1847 158.471 63.1621 158.526 63.1168 158.571C63.0806 158.616 63.0263 158.639 62.9539 158.639H61.2293ZM67.1966 158.639C67.1061 158.639 67.0427 158.616 67.0065 158.571C66.9794 158.526 66.9658 158.471 66.9658 158.408V151.713C66.9658 151.65 66.9794 151.6 67.0065 151.564C67.0427 151.519 67.1061 151.496 67.1966 151.496H68.9212C68.9936 151.496 69.0479 151.519 69.0841 151.564C69.1294 151.6 69.152 151.65 69.152 151.713V152.542C69.3512 152.162 69.6227 151.876 69.9667 151.686C70.3198 151.487 70.7045 151.388 71.121 151.388C71.7999 151.388 72.3521 151.605 72.7776 152.039C73.2121 152.474 73.4294 153.089 73.4294 153.886V158.408C73.4294 158.471 73.4067 158.526 73.3615 158.571C73.3253 158.616 73.2664 158.639 73.185 158.639H71.474C71.3835 158.639 71.3201 158.616 71.2839 158.571C71.2567 158.526 71.2432 158.471 71.2432 158.408V154.266C71.2432 153.868 71.1436 153.569 70.9444 153.37C70.7543 153.162 70.5054 153.058 70.1976 153.058C69.8988 153.058 69.6499 153.162 69.4507 153.37C69.2516 153.569 69.152 153.868 69.152 154.266V158.408C69.152 158.471 69.1294 158.526 69.0841 158.571C69.0479 158.616 68.9936 158.639 68.9212 158.639H67.1966ZM76.8479 158.747C76.1689 158.747 75.6303 158.566 75.232 158.204C74.8337 157.833 74.6345 157.362 74.6345 156.792C74.6345 156.167 74.8744 155.665 75.3542 155.285C75.834 154.904 76.4948 154.683 77.3367 154.619L79.0069 154.511V154.063C79.0069 153.728 78.9073 153.47 78.7082 153.289C78.5181 153.098 78.2601 153.003 77.9342 153.003C77.6264 153.003 77.3503 153.071 77.1059 153.207C76.8705 153.334 76.6351 153.56 76.3998 153.886C76.3636 153.922 76.3183 153.945 76.264 153.954C76.2097 153.963 76.1418 153.949 76.0603 153.913L74.8789 153.343C74.8156 153.316 74.7793 153.275 74.7703 153.221C74.7612 153.157 74.7748 153.098 74.811 153.044C75.0917 152.582 75.5036 152.193 76.0467 151.876C76.5899 151.55 77.2869 151.388 78.1379 151.388C79.0522 151.388 79.7809 151.632 80.3241 152.121C80.8763 152.601 81.1524 153.266 81.1524 154.117V158.408C81.1524 158.48 81.1343 158.539 81.0981 158.584C81.0619 158.621 81.003 158.639 80.9216 158.639H79.197C79.1337 158.639 79.0839 158.621 79.0477 158.584C79.0205 158.539 79.0069 158.48 79.0069 158.408V157.647C78.7987 157.982 78.5045 158.249 78.1243 158.449C77.7441 158.648 77.3186 158.747 76.8479 158.747ZM76.7121 156.588C76.7121 156.842 76.7981 157.032 76.9701 157.159C77.1511 157.285 77.382 157.349 77.6626 157.349C78.0157 157.349 78.328 157.24 78.5996 157.023C78.8711 156.796 79.0069 156.489 79.0069 156.099V155.692L77.8256 155.787C77.4544 155.823 77.1738 155.905 76.9837 156.032C76.8026 156.158 76.7121 156.344 76.7121 156.588ZM85.4204 158.747C84.6691 158.747 84.0987 158.566 83.7095 158.204C83.3202 157.833 83.1256 157.344 83.1256 156.738V150.79H81.822C81.7767 150.79 81.736 150.776 81.6998 150.749C81.6545 150.713 81.6319 150.663 81.6319 150.6V149.324C81.6319 149.26 81.6545 149.215 81.6998 149.188C81.736 149.152 81.7767 149.133 81.822 149.133H85.1217C85.176 149.133 85.2213 149.152 85.2575 149.188C85.2937 149.224 85.3118 149.269 85.3118 149.324V156.249C85.3118 156.493 85.3706 156.679 85.4883 156.806C85.6151 156.923 85.8006 156.982 86.0451 156.982C86.1446 156.982 86.2623 156.973 86.3981 156.955C86.5339 156.937 86.6833 156.905 86.8462 156.86C86.9096 156.842 86.9549 156.851 86.982 156.887C87.0092 156.923 87.0227 156.964 87.0227 157.009L87.0499 158.299C87.0499 158.335 87.0409 158.372 87.0227 158.408C87.0046 158.444 86.973 158.471 86.9277 158.489C86.7829 158.562 86.5701 158.621 86.2895 158.666C86.0089 158.72 85.7192 158.747 85.4204 158.747ZM91.1878 158.639C91.0972 158.639 91.0294 158.616 90.9841 158.571C90.9479 158.516 90.9298 158.458 90.9298 158.394V149.378C90.9298 149.314 90.9479 149.26 90.9841 149.215C91.0294 149.161 91.0972 149.133 91.1878 149.133H97.6378C97.7011 149.133 97.7555 149.152 97.8007 149.188C97.846 149.224 97.8686 149.283 97.8686 149.364V150.804C97.8686 150.885 97.846 150.944 97.8007 150.98C97.7555 151.016 97.7011 151.034 97.6378 151.034H93.2246V152.936H96.2527C96.3161 152.936 96.3659 152.954 96.4021 152.99C96.4383 153.026 96.4564 153.08 96.4564 153.153V154.538C96.4564 154.619 96.4383 154.678 96.4021 154.714C96.3659 154.751 96.3161 154.769 96.2527 154.769H93.2246V156.778H97.6378C97.7011 156.778 97.7555 156.801 97.8007 156.846C97.846 156.882 97.8686 156.941 97.8686 157.023V158.394C97.8686 158.476 97.846 158.539 97.8007 158.584C97.7555 158.621 97.7011 158.639 97.6378 158.639H91.1878ZM99.314 158.639C99.2235 158.639 99.1601 158.616 99.1239 158.571C99.0968 158.526 99.0832 158.471 99.0832 158.408V151.713C99.0832 151.65 99.0968 151.6 99.1239 151.564C99.1601 151.519 99.2235 151.496 99.314 151.496H101.039C101.111 151.496 101.165 151.519 101.202 151.564C101.247 151.6 101.269 151.65 101.269 151.713V152.542C101.469 152.162 101.74 151.876 102.084 151.686C102.437 151.487 102.822 151.388 103.238 151.388C103.917 151.388 104.47 151.605 104.895 152.039C105.33 152.474 105.547 153.089 105.547 153.886V158.408C105.547 158.471 105.524 158.526 105.479 158.571C105.443 158.616 105.384 158.639 105.302 158.639H103.591C103.501 158.639 103.438 158.616 103.401 158.571C103.374 158.526 103.361 158.471 103.361 158.408V154.266C103.361 153.868 103.261 153.569 103.062 153.37C102.872 153.162 102.623 153.058 102.315 153.058C102.016 153.058 101.767 153.162 101.568 153.37C101.369 153.569 101.269 153.868 101.269 154.266V158.408C101.269 158.471 101.247 158.526 101.202 158.571C101.165 158.616 101.111 158.639 101.039 158.639H99.314ZM110.274 158.747C109.549 158.747 108.988 158.566 108.59 158.204C108.201 157.833 108.006 157.349 108.006 156.751V153.166H106.58C106.526 153.166 106.481 153.153 106.444 153.126C106.417 153.089 106.404 153.04 106.404 152.976V151.673C106.404 151.609 106.417 151.564 106.444 151.537C106.481 151.51 106.526 151.496 106.58 151.496H108.006V149.84C108.006 149.767 108.024 149.708 108.06 149.663C108.106 149.618 108.164 149.595 108.237 149.595H109.948C110.02 149.595 110.074 149.618 110.111 149.663C110.156 149.708 110.179 149.767 110.179 149.84V151.496H111.835C111.89 151.496 111.935 151.51 111.971 151.537C112.007 151.564 112.025 151.609 112.025 151.673V152.976C112.025 153.04 112.007 153.089 111.971 153.126C111.935 153.153 111.89 153.166 111.835 153.166H110.179V156.262C110.179 156.498 110.246 156.679 110.382 156.806C110.518 156.923 110.713 156.982 110.966 156.982C111.084 156.982 111.206 156.973 111.333 156.955C111.469 156.928 111.622 156.892 111.794 156.846C111.858 156.828 111.908 156.837 111.944 156.873C111.98 156.901 111.998 156.937 111.998 156.982L112.012 158.286C112.021 158.322 112.016 158.358 111.998 158.394C111.98 158.43 111.948 158.458 111.903 158.476C111.713 158.566 111.469 158.634 111.17 158.679C110.88 158.725 110.581 158.747 110.274 158.747ZM113.278 158.639C113.187 158.639 113.124 158.616 113.087 158.571C113.06 158.526 113.047 158.471 113.047 158.408V151.713C113.047 151.65 113.06 151.6 113.087 151.564C113.124 151.519 113.187 151.496 113.278 151.496H115.002C115.074 151.496 115.129 151.519 115.165 151.564C115.21 151.6 115.233 151.65 115.233 151.713V152.99C115.45 152.42 115.767 152.003 116.183 151.741C116.609 151.478 117.043 151.347 117.487 151.347C117.523 151.347 117.559 151.351 117.596 151.36C117.641 151.36 117.682 151.365 117.718 151.374C117.808 151.383 117.872 151.406 117.908 151.442C117.944 151.469 117.962 151.514 117.962 151.578L117.935 153.126C117.926 153.216 117.903 153.275 117.867 153.302C117.831 153.329 117.781 153.338 117.718 153.329C117.609 153.32 117.501 153.311 117.392 153.302C117.283 153.293 117.184 153.289 117.093 153.289C116.568 153.289 116.125 153.483 115.762 153.872C115.409 154.262 115.233 154.76 115.233 155.366V158.408C115.233 158.471 115.21 158.526 115.165 158.571C115.129 158.616 115.074 158.639 115.002 158.639H113.278ZM120.42 161.558C120.157 161.558 119.872 161.536 119.564 161.49C119.257 161.454 118.994 161.377 118.777 161.259C118.713 161.241 118.673 161.21 118.655 161.164C118.636 161.128 118.632 161.083 118.641 161.029L119.048 159.657C119.057 159.603 119.085 159.567 119.13 159.548C119.175 159.53 119.22 159.526 119.266 159.535C119.429 159.598 119.592 159.657 119.754 159.711C119.926 159.766 120.085 159.793 120.23 159.793C120.456 159.793 120.646 159.739 120.8 159.63C120.963 159.521 121.117 159.281 121.262 158.91L118.546 151.754C118.519 151.691 118.519 151.632 118.546 151.578C118.582 151.523 118.641 151.496 118.722 151.496H120.624C120.678 151.496 120.719 151.51 120.746 151.537C120.782 151.555 120.809 151.587 120.827 151.632L122.389 156.29L124.018 151.632C124.027 151.587 124.054 151.555 124.1 151.537C124.145 151.51 124.186 151.496 124.222 151.496H125.987C126.069 151.496 126.123 151.523 126.15 151.578C126.177 151.632 126.182 151.686 126.164 151.741L123.353 159.236C123.018 160.123 122.606 160.73 122.117 161.056C121.637 161.391 121.072 161.558 120.42 161.558Z" fill="#1A1A1A"/>
</g>
<path d="M37.4335 180.097L40.2714 188.865L43.1243 180.097H44.4685L40.9585 190.553H39.5395L36.0295 180.097H37.4335ZM50.0279 188.372L51.0287 188.73C50.8096 189.248 50.4511 189.701 49.9532 190.09C49.4554 190.478 48.828 190.672 48.0713 190.672C47.7924 190.672 47.5236 190.642 47.2647 190.583C47.0157 190.523 46.7768 190.438 46.5477 190.329C46.3187 190.219 46.1046 190.08 45.9055 189.91C45.7163 189.741 45.547 189.552 45.3976 189.343C45.2483 189.124 45.1188 188.88 45.0093 188.611C44.8998 188.342 44.8151 188.053 44.7554 187.745C44.7056 187.426 44.6807 187.087 44.6807 186.729C44.6807 186.42 44.7006 186.127 44.7404 185.848C44.7902 185.569 44.8549 185.31 44.9346 185.071C45.0143 184.832 45.1089 184.613 45.2184 184.414C45.3379 184.205 45.4673 184.016 45.6067 183.846C45.7561 183.677 45.9154 183.528 46.0847 183.398C46.2639 183.269 46.4482 183.164 46.6374 183.085C46.8365 182.995 47.0406 182.93 47.2498 182.89C47.4688 182.841 47.6929 182.816 47.9219 182.816C48.8579 182.816 49.6246 183.159 50.2221 183.846C50.8196 184.533 51.1183 185.484 51.1183 186.699V187.043H45.9204C45.9602 187.939 46.1793 188.596 46.5776 189.014C46.9759 189.433 47.4738 189.642 48.0713 189.642C48.5193 189.642 48.9027 189.532 49.2214 189.313C49.54 189.094 49.8089 188.78 50.0279 188.372ZM47.907 183.801C47.3991 183.801 46.961 183.986 46.5925 184.354C46.2341 184.713 46.015 185.29 45.9353 186.087H49.8935C49.8039 185.29 49.5749 184.713 49.2064 184.354C48.8479 183.986 48.4148 183.801 47.907 183.801ZM58.9494 190.553H57.6947V185.728C57.6947 185.101 57.5304 184.628 57.2018 184.309C56.8832 183.981 56.4799 183.816 55.992 183.816C55.524 183.816 55.1307 183.981 54.812 184.309C54.4934 184.628 54.334 185.101 54.334 185.728V190.553H53.0794V182.935H54.334V184.026C54.5531 183.627 54.8469 183.328 55.2153 183.129C55.5837 182.92 55.992 182.816 56.4401 182.816C57.157 182.816 57.7545 183.055 58.2324 183.533C58.7104 184.011 58.9494 184.683 58.9494 185.549V190.553ZM63.9033 190.672C63.0469 190.672 62.33 190.329 61.7524 189.642C61.1848 188.955 60.9011 187.984 60.9011 186.729C60.9011 185.484 61.1848 184.523 61.7524 183.846C62.33 183.159 63.0469 182.816 63.9033 182.816C64.4509 182.816 64.9239 182.945 65.3222 183.204C65.7205 183.463 66.0342 183.836 66.2632 184.324V180.097H67.5179V190.553H66.2632V189.134C66.0342 189.622 65.7205 190 65.3222 190.269C64.9239 190.538 64.4509 190.672 63.9033 190.672ZM64.202 189.627C64.7995 189.627 65.2924 189.388 65.6807 188.91C66.069 188.422 66.2632 187.695 66.2632 186.729C66.2632 185.763 66.069 185.041 65.6807 184.563C65.2924 184.085 64.7995 183.846 64.202 183.846C63.6045 183.846 63.1116 184.085 62.7233 184.563C62.3449 185.041 62.1557 185.763 62.1557 186.729C62.1557 187.695 62.3449 188.422 62.7233 188.91C63.1116 189.388 63.6045 189.627 64.202 189.627ZM69.5066 186.729C69.5066 186.42 69.5266 186.132 69.5664 185.863C69.6162 185.584 69.6809 185.325 69.7606 185.086C69.8402 184.837 69.9348 184.613 70.0444 184.414C70.1638 184.205 70.2983 184.016 70.4476 183.846C70.597 183.677 70.7563 183.528 70.9256 183.398C71.1048 183.269 71.294 183.159 71.4932 183.07C71.6923 182.98 71.9014 182.915 72.1205 182.875C72.3495 182.826 72.5835 182.801 72.8225 182.801C73.0615 182.801 73.2905 182.826 73.5096 182.875C73.7386 182.915 73.9527 182.98 74.1519 183.07C74.351 183.159 74.5402 183.269 74.7194 183.398C74.8987 183.528 75.063 183.677 75.2123 183.846C75.3617 184.016 75.4912 184.205 75.6007 184.414C75.7202 184.613 75.8198 184.837 75.8994 185.086C75.9791 185.325 76.0388 185.584 76.0787 185.863C76.1284 186.132 76.1533 186.42 76.1533 186.729C76.1533 187.087 76.1235 187.426 76.0637 187.745C76.0139 188.053 75.9343 188.342 75.8247 188.611C75.7252 188.87 75.6007 189.109 75.4513 189.328C75.302 189.547 75.1327 189.741 74.9435 189.91C74.7543 190.07 74.5452 190.209 74.3162 190.329C74.0971 190.438 73.8631 190.523 73.6142 190.583C73.3652 190.642 73.1013 190.672 72.8225 190.672C72.5835 190.672 72.3495 190.647 72.1205 190.598C71.9014 190.558 71.6923 190.493 71.4932 190.403C71.294 190.314 71.1048 190.209 70.9256 190.09C70.7563 189.96 70.597 189.811 70.4476 189.642C70.2983 189.472 70.1638 189.283 70.0444 189.074C69.9348 188.865 69.8402 188.641 69.7606 188.402C69.6809 188.153 69.6162 187.889 69.5664 187.61C69.5266 187.331 69.5066 187.038 69.5066 186.729ZM74.8987 186.729C74.8987 185.773 74.6995 185.051 74.3012 184.563C73.9129 184.075 73.42 183.831 72.8225 183.831C72.2251 183.831 71.7322 184.075 71.3438 184.563C70.9555 185.051 70.7613 185.773 70.7613 186.729C70.7613 187.695 70.9555 188.427 71.3438 188.925C71.7322 189.413 72.2251 189.657 72.8225 189.657C73.42 189.657 73.9129 189.413 74.3012 188.925C74.6995 188.427 74.8987 187.695 74.8987 186.729ZM79.3934 190.553H78.1387V182.935H79.3934V184.309C79.6124 183.811 79.9211 183.438 80.3194 183.189C80.7177 182.93 81.1459 182.801 81.604 182.801C81.7235 182.801 81.838 182.811 81.9475 182.831C82.057 182.851 82.1716 182.875 82.291 182.905L82.1566 184.085C82.0172 184.045 81.8878 184.016 81.7683 183.996C81.6488 183.976 81.5293 183.966 81.4098 183.966C80.8422 183.966 80.3642 184.175 79.9759 184.593C79.5876 185.001 79.3934 185.579 79.3934 186.326V190.553Z" fill="black" fill-opacity="0.7"/>
<path d="M43.199 217.066L42.4372 214.647H38.7479L37.9861 217.066H35.9847L39.4947 206.611H41.7949L45.305 217.066H43.199ZM39.2109 213.168H41.9742L40.6 208.792L39.2109 213.168ZM52.4783 213.347L54.3304 213.81C54.0417 214.906 53.5338 215.742 52.8069 216.32C52.08 216.897 51.2187 217.186 50.2229 217.186C49.9043 217.186 49.5956 217.156 49.2969 217.096C48.9981 217.037 48.7143 216.947 48.4455 216.827C48.1866 216.708 47.9426 216.564 47.7136 216.394C47.4846 216.215 47.2755 216.016 47.0863 215.797C46.8971 215.568 46.7278 215.314 46.5784 215.035C46.4291 214.746 46.3046 214.438 46.205 214.109C46.1054 213.78 46.0258 213.427 45.966 213.049C45.9162 212.67 45.8914 212.267 45.8914 211.839C45.8914 211.41 45.9162 211.007 45.966 210.629C46.0258 210.25 46.1054 209.897 46.205 209.568C46.3046 209.24 46.4291 208.936 46.5784 208.657C46.7278 208.368 46.8921 208.115 47.0713 207.895C47.2605 207.666 47.4696 207.467 47.6987 207.298C47.9277 207.119 48.1716 206.969 48.4305 206.85C48.6994 206.73 48.9782 206.641 49.267 206.581C49.5657 206.521 49.8744 206.491 50.193 206.491C51.1988 206.491 52.0701 206.78 52.8069 207.358C53.5438 207.935 54.0516 208.777 54.3304 209.882L52.4783 210.345C52.2891 209.718 52.0053 209.205 51.6269 208.807C51.2585 208.398 50.7756 208.194 50.1781 208.194C49.5209 208.194 48.9732 208.493 48.5351 209.09C48.1069 209.678 47.8928 210.594 47.8928 211.839C47.8928 213.083 48.1119 214.004 48.55 214.602C48.9981 215.189 49.5508 215.483 50.208 215.483C50.7855 215.483 51.2585 215.284 51.6269 214.886C52.0053 214.487 52.2891 213.975 52.4783 213.347ZM60.0274 214.662L57.7571 209.329L57.8168 217.066H56.0095V206.611H58.4292L60.6846 212.033L62.94 206.611H65.3746V217.066H63.5076L63.5823 209.285L61.297 214.662H60.0274ZM74.8623 215.438V217.066H67.7077V206.611H74.8623V208.269H69.7092V211.002H73.3388V212.6H69.7092V215.438H74.8623ZM81.6408 206.611V217.066H79.6394V206.611H81.6408ZM90.4681 217.066H88.5414V212.257C88.5414 211.739 88.4069 211.346 88.1381 211.077C87.8792 210.808 87.5506 210.674 87.1523 210.674C86.7739 210.674 86.4503 210.808 86.1814 211.077C85.9225 211.346 85.793 211.739 85.793 212.257V217.066H83.8663V209.314H85.793V210.435C86.0121 210.036 86.3059 209.733 86.6743 209.524C87.0527 209.304 87.4709 209.195 87.929 209.195C88.6658 209.195 89.2732 209.434 89.7512 209.912C90.2292 210.39 90.4681 211.062 90.4681 211.928V217.066ZM97.2661 214.124L99.0136 214.423C98.9639 214.642 98.8991 214.856 98.8195 215.065C98.7398 215.264 98.6402 215.458 98.5207 215.647C98.4112 215.827 98.2818 215.996 98.1324 216.155C97.993 216.315 97.8337 216.459 97.6544 216.588C97.4851 216.708 97.291 216.812 97.0719 216.902C96.8628 216.992 96.6388 217.061 96.3998 217.111C96.1608 217.161 95.9069 217.186 95.638 217.186C95.3891 217.186 95.1451 217.161 94.9061 217.111C94.6671 217.071 94.4381 217.007 94.2191 216.917C94.0099 216.827 93.8108 216.718 93.6216 216.588C93.4324 216.459 93.2581 216.31 93.0988 216.14C92.9395 215.961 92.7951 215.767 92.6657 215.558C92.5462 215.349 92.4416 215.12 92.352 214.871C92.2624 214.622 92.1927 214.358 92.1429 214.079C92.1031 213.8 92.0831 213.502 92.0831 213.183C92.0831 212.864 92.1031 212.566 92.1429 212.287C92.1927 212.008 92.2624 211.744 92.352 211.495C92.4416 211.246 92.5462 211.017 92.6657 210.808C92.7951 210.599 92.9395 210.41 93.0988 210.24C93.2581 210.061 93.4324 209.907 93.6216 209.777C93.8108 209.648 94.0099 209.538 94.2191 209.449C94.4381 209.359 94.6671 209.294 94.9061 209.255C95.1451 209.205 95.3891 209.18 95.638 209.18C95.9069 209.18 96.1608 209.205 96.3998 209.255C96.6487 209.304 96.8777 209.374 97.0868 209.464C97.296 209.553 97.4901 209.663 97.6694 209.792C97.8486 209.912 98.0079 210.051 98.1473 210.211C98.2967 210.37 98.4261 210.544 98.5357 210.733C98.6552 210.913 98.7498 211.107 98.8195 211.316C98.8991 211.515 98.9639 211.724 99.0136 211.943L97.2661 212.227C97.1167 211.739 96.9076 211.366 96.6388 211.107C96.3799 210.838 96.0562 210.703 95.6679 210.703C95.17 210.703 94.7667 210.913 94.458 211.331C94.1493 211.749 93.995 212.366 93.995 213.183C93.995 213.99 94.1493 214.607 94.458 215.035C94.7667 215.453 95.17 215.662 95.6679 215.662C96.0562 215.662 96.3799 215.533 96.6388 215.274C96.9076 215.005 97.1167 214.622 97.2661 214.124ZM101.086 217.156C100.777 217.156 100.488 217.046 100.219 216.827C99.9604 216.598 99.8309 216.3 99.8309 215.931C99.8309 215.553 99.9604 215.254 100.219 215.035C100.488 214.806 100.777 214.692 101.086 214.692C101.404 214.692 101.693 214.806 101.952 215.035C102.211 215.254 102.34 215.553 102.34 215.931C102.34 216.3 102.211 216.598 101.952 216.827C101.693 217.046 101.404 217.156 101.086 217.156Z" fill="#1A1A1A"/>
<line x1="117.003" y1="173.709" x2="117.003" y2="222.911" stroke="#CCD6DB" stroke-opacity="0.5" stroke-width="0.878612"/>
<path d="M130.562 190.553V180.097H133.714C134.759 180.097 135.601 180.366 136.238 180.904C136.885 181.442 137.209 182.203 137.209 183.189C137.209 184.165 136.885 184.922 136.238 185.459C135.601 185.987 134.759 186.251 133.714 186.251H131.892V190.553H130.562ZM133.729 181.217H131.892V185.176H133.729C134.336 185.176 134.844 185.016 135.252 184.698C135.67 184.379 135.88 183.886 135.88 183.219C135.88 182.542 135.67 182.039 135.252 181.71C134.844 181.382 134.336 181.217 133.729 181.217ZM138.646 185.325C138.646 183.642 139.01 182.333 139.736 181.397C140.463 180.451 141.449 179.978 142.694 179.978C143.939 179.978 144.924 180.451 145.651 181.397C146.388 182.333 146.757 183.642 146.757 185.325C146.757 187.008 146.388 188.322 145.651 189.268C144.924 190.204 143.939 190.672 142.694 190.672C141.449 190.672 140.463 190.204 139.736 189.268C139.01 188.322 138.646 187.008 138.646 185.325ZM145.427 185.325C145.427 183.871 145.168 182.806 144.651 182.129C144.133 181.442 143.481 181.098 142.694 181.098C141.917 181.098 141.27 181.442 140.752 182.129C140.234 182.806 139.975 183.871 139.975 185.325C139.975 186.779 140.234 187.849 140.752 188.536C141.27 189.213 141.917 189.552 142.694 189.552C143.481 189.552 144.133 189.213 144.651 188.536C145.168 187.849 145.427 186.779 145.427 185.325Z" fill="black" fill-opacity="0.7"/>
<path d="M130.323 217.066V206.611H134.072C135.197 206.611 136.104 206.905 136.791 207.492C137.478 208.07 137.821 208.876 137.821 209.912C137.821 210.947 137.478 211.754 136.791 212.332C136.104 212.899 135.197 213.183 134.072 213.183H132.325V217.066H130.323ZM133.998 208.314H132.325V211.57H133.998C134.515 211.57 134.949 211.44 135.297 211.181C135.646 210.913 135.82 210.509 135.82 209.972C135.82 209.424 135.646 209.011 135.297 208.732C134.949 208.453 134.515 208.314 133.998 208.314ZM138.992 211.839C138.992 211.41 139.017 211.007 139.067 210.629C139.127 210.25 139.206 209.897 139.306 209.568C139.416 209.24 139.545 208.936 139.694 208.657C139.844 208.368 140.013 208.115 140.202 207.895C140.391 207.666 140.6 207.467 140.829 207.298C141.068 207.119 141.317 206.969 141.576 206.85C141.845 206.73 142.129 206.641 142.428 206.581C142.726 206.521 143.04 206.491 143.369 206.491C143.697 206.491 144.011 206.521 144.31 206.581C144.608 206.641 144.892 206.73 145.161 206.85C145.43 206.969 145.679 207.119 145.908 207.298C146.147 207.467 146.361 207.666 146.55 207.895C146.739 208.115 146.909 208.368 147.058 208.657C147.207 208.936 147.332 209.24 147.431 209.568C147.541 209.897 147.621 210.25 147.67 210.629C147.73 211.007 147.76 211.41 147.76 211.839C147.76 212.267 147.73 212.67 147.67 213.049C147.621 213.427 147.541 213.78 147.431 214.109C147.332 214.438 147.207 214.746 147.058 215.035C146.909 215.314 146.739 215.568 146.55 215.797C146.361 216.016 146.147 216.215 145.908 216.394C145.679 216.564 145.43 216.708 145.161 216.827C144.892 216.947 144.608 217.037 144.31 217.096C144.011 217.156 143.697 217.186 143.369 217.186C143.04 217.186 142.726 217.156 142.428 217.096C142.129 217.037 141.845 216.947 141.576 216.827C141.317 216.708 141.068 216.564 140.829 216.394C140.6 216.215 140.391 216.016 140.202 215.797C140.013 215.568 139.844 215.314 139.694 215.035C139.545 214.746 139.416 214.438 139.306 214.109C139.206 213.78 139.127 213.427 139.067 213.049C139.017 212.67 138.992 212.267 138.992 211.839ZM145.759 211.839C145.759 210.594 145.529 209.678 145.071 209.09C144.623 208.493 144.056 208.194 143.369 208.194C142.682 208.194 142.114 208.493 141.666 209.09C141.218 209.678 140.994 210.594 140.994 211.839C140.994 213.083 141.218 214.004 141.666 214.602C142.114 215.189 142.682 215.483 143.369 215.483C144.056 215.483 144.623 215.189 145.071 214.602C145.529 214.004 145.759 213.083 145.759 211.839ZM153.892 211.047V212.511H148.918V211.047H153.892ZM155.186 211.854C155.186 210.031 155.51 208.687 156.157 207.821C156.804 206.944 157.681 206.506 158.786 206.506C159.891 206.506 160.768 206.944 161.415 207.821C162.062 208.687 162.386 210.031 162.386 211.854C162.386 213.666 162.062 215.01 161.415 215.886C160.768 216.763 159.891 217.201 158.786 217.201C157.681 217.201 156.804 216.763 156.157 215.886C155.51 215.01 155.186 213.666 155.186 211.854ZM160.474 211.854C160.474 210.489 160.319 209.533 160.011 208.986C159.712 208.428 159.304 208.149 158.786 208.149C158.268 208.149 157.855 208.428 157.546 208.986C157.248 209.533 157.098 210.489 157.098 211.854C157.098 213.218 157.248 214.174 157.546 214.721C157.855 215.269 158.268 215.543 158.786 215.543C159.304 215.543 159.712 215.269 160.011 214.721C160.319 214.174 160.474 213.218 160.474 211.854ZM164.142 211.854C164.142 210.031 164.466 208.687 165.113 207.821C165.76 206.944 166.637 206.506 167.742 206.506C168.847 206.506 169.724 206.944 170.371 207.821C171.018 208.687 171.342 210.031 171.342 211.854C171.342 213.666 171.018 215.01 170.371 215.886C169.724 216.763 168.847 217.201 167.742 217.201C166.637 217.201 165.76 216.763 165.113 215.886C164.466 215.01 164.142 213.666 164.142 211.854ZM169.43 211.854C169.43 210.489 169.275 209.533 168.967 208.986C168.668 208.428 168.26 208.149 167.742 208.149C167.224 208.149 166.811 208.428 166.502 208.986C166.204 209.533 166.054 210.489 166.054 211.854C166.054 213.218 166.204 214.174 166.502 214.721C166.811 215.269 167.224 215.543 167.742 215.543C168.26 215.543 168.668 215.269 168.967 214.721C169.275 214.174 169.43 213.218 169.43 211.854ZM176.429 217.186C175.732 217.186 175.095 217.091 174.517 216.902C173.95 216.703 173.437 216.404 172.979 216.006L173.98 214.602C174.348 214.881 174.711 215.105 175.07 215.274C175.438 215.433 175.852 215.513 176.31 215.513C176.867 215.513 177.33 215.364 177.699 215.065C178.077 214.756 178.266 214.343 178.266 213.825C178.266 213.686 178.246 213.551 178.207 213.422C178.177 213.283 178.127 213.158 178.057 213.049C177.988 212.929 177.898 212.819 177.788 212.72C177.679 212.62 177.549 212.536 177.4 212.466C177.251 212.386 177.081 212.327 176.892 212.287C176.713 212.247 176.509 212.227 176.28 212.227C176.061 212.217 175.817 212.232 175.548 212.272L174.771 211.256L177.609 208.194L173.293 208.209V206.611H179.64V208.179L177.191 210.913C178.187 211.012 178.943 211.326 179.461 211.854C179.989 212.371 180.253 213.029 180.253 213.825C180.253 214.074 180.228 214.313 180.178 214.542C180.128 214.771 180.054 214.99 179.954 215.199C179.865 215.399 179.75 215.588 179.611 215.767C179.481 215.946 179.332 216.11 179.163 216.26C178.993 216.409 178.804 216.544 178.595 216.663C178.396 216.773 178.182 216.867 177.953 216.947C177.724 217.027 177.48 217.086 177.221 217.126C176.972 217.166 176.708 217.186 176.429 217.186ZM181.666 214.662V213.138L185.998 206.611H188.372V213.093H189.552V214.662H188.372V217.066H186.461V214.662H181.666ZM183.473 213.093H186.461V208.433L183.473 213.093ZM193.729 217.425L192.429 216.215C193.306 215.528 194.097 214.841 194.804 214.154C195.511 213.457 195.994 212.74 196.253 212.003C195.984 212.312 195.656 212.556 195.267 212.735C194.889 212.904 194.476 212.989 194.028 212.989C193.141 212.989 192.414 212.71 191.847 212.152C191.279 211.585 190.995 210.843 190.995 209.927C190.995 209.668 191.015 209.424 191.055 209.195C191.105 208.956 191.175 208.732 191.264 208.523C191.354 208.314 191.463 208.119 191.593 207.94C191.722 207.761 191.867 207.597 192.026 207.447C192.195 207.298 192.375 207.164 192.564 207.044C192.753 206.925 192.957 206.825 193.176 206.745C193.395 206.666 193.624 206.606 193.863 206.566C194.102 206.526 194.351 206.506 194.61 206.506C194.879 206.506 195.138 206.531 195.387 206.581C195.636 206.621 195.87 206.686 196.089 206.775C196.318 206.855 196.532 206.959 196.731 207.089C196.93 207.218 197.109 207.368 197.269 207.537C197.438 207.696 197.587 207.881 197.717 208.09C197.846 208.289 197.956 208.508 198.045 208.747C198.135 208.986 198.2 209.245 198.24 209.524C198.289 209.792 198.314 210.081 198.314 210.39C198.314 211.674 197.911 212.884 197.104 214.019C196.308 215.145 195.183 216.28 193.729 217.425ZM196.298 209.822C196.298 209.324 196.144 208.901 195.835 208.553C195.526 208.204 195.113 208.03 194.595 208.03C194.077 208.03 193.664 208.204 193.355 208.553C193.047 208.901 192.892 209.324 192.892 209.822C192.892 210.31 193.047 210.728 193.355 211.077C193.664 211.425 194.077 211.6 194.595 211.6C195.113 211.6 195.526 211.425 195.835 211.077C196.144 210.728 196.298 210.31 196.298 209.822ZM202.685 217.425L201.385 216.215C202.262 215.528 203.053 214.841 203.76 214.154C204.467 213.457 204.95 212.74 205.209 212.003C204.94 212.312 204.612 212.556 204.223 212.735C203.845 212.904 203.432 212.989 202.984 212.989C202.097 212.989 201.37 212.71 200.803 212.152C200.235 211.585 199.951 210.843 199.951 209.927C199.951 209.668 199.971 209.424 200.011 209.195C200.061 208.956 200.131 208.732 200.22 208.523C200.31 208.314 200.419 208.119 200.549 207.94C200.678 207.761 200.823 207.597 200.982 207.447C201.151 207.298 201.331 207.164 201.52 207.044C201.709 206.925 201.913 206.825 202.132 206.745C202.351 206.666 202.58 206.606 202.819 206.566C203.058 206.526 203.307 206.506 203.566 206.506C203.835 206.506 204.094 206.531 204.343 206.581C204.592 206.621 204.826 206.686 205.045 206.775C205.274 206.855 205.488 206.959 205.687 207.089C205.886 207.218 206.065 207.368 206.225 207.537C206.394 207.696 206.543 207.881 206.673 208.09C206.802 208.289 206.912 208.508 207.001 208.747C207.091 208.986 207.156 209.245 207.196 209.524C207.245 209.792 207.27 210.081 207.27 210.39C207.27 211.674 206.867 212.884 206.06 214.019C205.264 215.145 204.139 216.28 202.685 217.425ZM205.254 209.822C205.254 209.324 205.1 208.901 204.791 208.553C204.482 208.204 204.069 208.03 203.551 208.03C203.033 208.03 202.62 208.204 202.311 208.553C202.003 208.901 201.848 209.324 201.848 209.822C201.848 210.31 202.003 210.728 202.311 211.077C202.62 211.425 203.033 211.6 203.551 211.6C204.069 211.6 204.482 211.425 204.791 211.077C205.1 210.728 205.254 210.31 205.254 209.822Z" fill="#1A1A1A"/>
<line x1="221.191" y1="173.709" x2="221.191" y2="222.911" stroke="#CCD6DB" stroke-opacity="0.5" stroke-width="0.878612"/>
<path d="M236.945 190.553V181.203H233.555V180.097H241.65V181.203H238.275V190.553H236.945ZM241.561 186.729C241.561 186.42 241.581 186.132 241.62 185.863C241.67 185.584 241.735 185.325 241.815 185.086C241.894 184.837 241.989 184.613 242.098 184.414C242.218 184.205 242.352 184.016 242.502 183.846C242.651 183.677 242.81 183.528 242.98 183.398C243.159 183.269 243.348 183.159 243.547 183.07C243.746 182.98 243.956 182.915 244.175 182.875C244.404 182.826 244.638 182.801 244.877 182.801C245.116 182.801 245.345 182.826 245.564 182.875C245.793 182.915 246.007 182.98 246.206 183.07C246.405 183.159 246.594 183.269 246.774 183.398C246.953 183.528 247.117 183.677 247.266 183.846C247.416 184.016 247.545 184.205 247.655 184.414C247.774 184.613 247.874 184.837 247.954 185.086C248.033 185.325 248.093 185.584 248.133 185.863C248.183 186.132 248.207 186.42 248.207 186.729C248.207 187.087 248.178 187.426 248.118 187.745C248.068 188.053 247.988 188.342 247.879 188.611C247.779 188.87 247.655 189.109 247.505 189.328C247.356 189.547 247.187 189.741 246.998 189.91C246.808 190.07 246.599 190.209 246.37 190.329C246.151 190.438 245.917 190.523 245.668 190.583C245.419 190.642 245.155 190.672 244.877 190.672C244.638 190.672 244.404 190.647 244.175 190.598C243.956 190.558 243.746 190.493 243.547 190.403C243.348 190.314 243.159 190.209 242.98 190.09C242.81 189.96 242.651 189.811 242.502 189.642C242.352 189.472 242.218 189.283 242.098 189.074C241.989 188.865 241.894 188.641 241.815 188.402C241.735 188.153 241.67 187.889 241.62 187.61C241.581 187.331 241.561 187.038 241.561 186.729ZM246.953 186.729C246.953 185.773 246.754 185.051 246.355 184.563C245.967 184.075 245.474 183.831 244.877 183.831C244.279 183.831 243.786 184.075 243.398 184.563C243.01 185.051 242.815 185.773 242.815 186.729C242.815 187.695 243.01 188.427 243.398 188.925C243.786 189.413 244.279 189.657 244.877 189.657C245.474 189.657 245.967 189.413 246.355 188.925C246.754 188.427 246.953 187.695 246.953 186.729ZM254.257 189.388L254.347 190.388C254.188 190.478 253.973 190.548 253.705 190.598C253.436 190.647 253.172 190.672 252.913 190.672C252.296 190.672 251.818 190.508 251.479 190.179C251.141 189.841 250.971 189.398 250.971 188.85V183.951H249.224V182.935H250.971V180.814H252.226V182.935H254.317V183.951H252.226V188.641C252.226 188.95 252.311 189.194 252.48 189.373C252.649 189.542 252.883 189.627 253.182 189.627C253.371 189.627 253.55 189.607 253.72 189.567C253.889 189.517 254.068 189.457 254.257 189.388ZM257.719 190.672C257.002 190.672 256.43 190.478 256.001 190.09C255.573 189.691 255.359 189.203 255.359 188.626C255.359 187.909 255.618 187.356 256.136 186.968C256.654 186.57 257.361 186.336 258.257 186.266L260.064 186.117V185.415C260.064 184.877 259.91 184.479 259.601 184.22C259.302 183.961 258.924 183.831 258.466 183.831C258.068 183.831 257.689 183.931 257.331 184.13C256.982 184.329 256.688 184.673 256.449 185.161L255.464 184.653C255.723 184.115 256.106 183.672 256.614 183.324C257.122 182.975 257.764 182.801 258.541 182.801C259.327 182.801 259.989 183.03 260.527 183.488C261.065 183.936 261.334 184.578 261.334 185.415V190.553H260.064V189.447C259.835 189.826 259.511 190.125 259.093 190.344C258.685 190.563 258.227 190.672 257.719 190.672ZM256.584 188.521C256.584 188.93 256.733 189.228 257.032 189.418C257.331 189.607 257.679 189.701 258.077 189.701C258.227 189.701 258.371 189.686 258.511 189.657C258.65 189.627 258.784 189.587 258.914 189.537C259.043 189.487 259.168 189.423 259.287 189.343C259.407 189.263 259.511 189.174 259.601 189.074C259.701 188.964 259.78 188.85 259.84 188.73C259.91 188.611 259.964 188.482 260.004 188.342C260.044 188.193 260.064 188.038 260.064 187.879V187.087L258.526 187.222C257.878 187.282 257.39 187.416 257.062 187.625C256.743 187.824 256.584 188.123 256.584 188.521ZM265.012 190.553H263.757V180.097H265.012V190.553Z" fill="black" fill-opacity="0.7"/>
<path d="M233.555 214.572L234.839 213.676C235.138 214.194 235.462 214.592 235.81 214.871C236.169 215.14 236.547 215.319 236.945 215.408V212.496C236.786 212.436 236.622 212.381 236.452 212.332C236.293 212.272 236.134 212.207 235.975 212.137C235.815 212.068 235.656 211.998 235.497 211.928C235.347 211.849 235.203 211.764 235.063 211.674C234.934 211.585 234.809 211.49 234.69 211.391C234.57 211.281 234.461 211.167 234.361 211.047C234.262 210.918 234.177 210.778 234.107 210.629C234.038 210.479 233.983 210.32 233.943 210.151C233.913 209.982 233.898 209.797 233.898 209.598C233.898 208.822 234.172 208.179 234.72 207.671C235.268 207.164 236.009 206.88 236.945 206.82V205.67H237.991V206.85C238.618 206.93 239.191 207.154 239.709 207.522C240.226 207.881 240.66 208.423 241.008 209.15L239.724 209.927C239.445 209.429 239.166 209.051 238.887 208.792C238.608 208.533 238.31 208.363 237.991 208.284V211.122C238.14 211.172 238.29 211.221 238.439 211.271C238.588 211.321 238.733 211.376 238.872 211.435C239.022 211.485 239.166 211.545 239.305 211.615C239.455 211.674 239.594 211.744 239.724 211.824C239.853 211.893 239.977 211.973 240.097 212.063C240.216 212.142 240.326 212.232 240.426 212.332C240.535 212.431 240.63 212.541 240.709 212.66C240.789 212.78 240.859 212.909 240.918 213.049C240.978 213.188 241.023 213.337 241.053 213.497C241.083 213.656 241.098 213.825 241.098 214.004C241.098 214.791 240.819 215.448 240.261 215.976C239.704 216.504 238.947 216.798 237.991 216.857V218.217H236.945V216.827C236.199 216.748 235.536 216.519 234.959 216.14C234.391 215.752 233.923 215.229 233.555 214.572ZM235.661 209.419C235.661 209.758 235.78 210.026 236.019 210.226C236.268 210.425 236.577 210.599 236.945 210.748V208.209C236.557 208.259 236.243 208.388 236.004 208.597C235.775 208.807 235.661 209.08 235.661 209.419ZM239.35 214.169C239.35 213.85 239.221 213.591 238.962 213.392C238.703 213.193 238.379 213.019 237.991 212.869V215.453C238.419 215.403 238.753 215.269 238.992 215.05C239.231 214.821 239.35 214.527 239.35 214.169ZM245.901 217.186C245.204 217.186 244.567 217.091 243.989 216.902C243.422 216.703 242.909 216.404 242.451 216.006L243.452 214.602C243.82 214.881 244.183 215.105 244.542 215.274C244.91 215.433 245.324 215.513 245.782 215.513C246.339 215.513 246.802 215.364 247.171 215.065C247.549 214.756 247.738 214.343 247.738 213.825C247.738 213.686 247.718 213.551 247.679 213.422C247.649 213.283 247.599 213.158 247.529 213.049C247.46 212.929 247.37 212.819 247.26 212.72C247.151 212.62 247.021 212.536 246.872 212.466C246.723 212.386 246.553 212.327 246.364 212.287C246.185 212.247 245.981 212.227 245.752 212.227C245.533 212.217 245.289 212.232 245.02 212.272L244.243 211.256L247.081 208.194L242.765 208.209V206.611H249.112V208.179L246.663 210.913C247.659 211.012 248.415 211.326 248.933 211.854C249.461 212.371 249.725 213.029 249.725 213.825C249.725 214.074 249.7 214.313 249.65 214.542C249.6 214.771 249.526 214.99 249.426 215.199C249.337 215.399 249.222 215.588 249.083 215.767C248.953 215.946 248.804 216.11 248.635 216.26C248.465 216.409 248.276 216.544 248.067 216.663C247.868 216.773 247.654 216.867 247.425 216.947C247.196 217.027 246.952 217.086 246.693 217.126C246.444 217.166 246.18 217.186 245.901 217.186ZM252.154 219.441L251.228 218.784C251.506 218.455 251.75 218.147 251.96 217.858C252.179 217.569 252.353 217.295 252.482 217.037C252.203 217.017 251.95 216.912 251.721 216.723C251.501 216.524 251.392 216.26 251.392 215.931C251.392 215.563 251.521 215.274 251.78 215.065C252.039 214.846 252.318 214.736 252.617 214.736C252.945 214.736 253.244 214.856 253.513 215.095C253.792 215.324 253.931 215.667 253.931 216.125C253.931 216.633 253.762 217.166 253.423 217.724C253.095 218.281 252.671 218.854 252.154 219.441ZM255.105 214.662V213.138L259.437 206.611H261.812V213.093H262.992V214.662H261.812V217.066H259.9V214.662H255.105ZM256.913 213.093H259.9V208.433L256.913 213.093ZM270.409 206.432L270.663 208.09C269.449 208.119 268.468 208.463 267.721 209.12C266.984 209.777 266.536 210.758 266.377 212.063C266.626 211.654 266.959 211.331 267.377 211.092C267.806 210.843 268.274 210.718 268.781 210.718C269.658 210.718 270.375 211.002 270.932 211.57C271.49 212.137 271.769 212.874 271.769 213.78C271.769 214.039 271.744 214.288 271.694 214.527C271.654 214.756 271.589 214.975 271.5 215.184C271.41 215.394 271.301 215.588 271.171 215.767C271.052 215.946 270.907 216.11 270.738 216.26C270.579 216.409 270.404 216.544 270.215 216.663C270.026 216.773 269.822 216.867 269.603 216.947C269.394 217.027 269.17 217.086 268.931 217.126C268.702 217.166 268.458 217.186 268.199 217.186C267.92 217.186 267.651 217.161 267.392 217.111C267.133 217.061 266.884 216.992 266.646 216.902C266.416 216.803 266.202 216.683 266.003 216.544C265.804 216.404 265.62 216.245 265.451 216.066C265.281 215.876 265.127 215.667 264.988 215.438C264.858 215.209 264.749 214.96 264.659 214.692C264.569 214.423 264.5 214.134 264.45 213.825C264.4 213.517 264.375 213.188 264.375 212.839C264.375 212.491 264.395 212.152 264.435 211.824C264.475 211.495 264.534 211.176 264.614 210.868C264.704 210.549 264.808 210.245 264.928 209.957C265.047 209.658 265.187 209.379 265.346 209.12C265.515 208.851 265.7 208.602 265.899 208.373C266.098 208.144 266.317 207.93 266.556 207.731C266.805 207.532 267.069 207.358 267.348 207.208C267.626 207.049 267.925 206.915 268.244 206.805C268.572 206.696 268.916 206.611 269.274 206.551C269.633 206.481 270.011 206.442 270.409 206.432ZM268.184 215.677C268.692 215.677 269.1 215.508 269.409 215.169C269.717 214.821 269.872 214.393 269.872 213.885C269.872 213.397 269.717 212.979 269.409 212.63C269.1 212.282 268.692 212.108 268.184 212.108C267.666 212.108 267.248 212.282 266.929 212.63C266.621 212.979 266.466 213.397 266.466 213.885C266.466 214.393 266.621 214.821 266.929 215.169C267.248 215.508 267.666 215.677 268.184 215.677ZM273.406 211.854C273.406 210.031 273.729 208.687 274.377 207.821C275.024 206.944 275.9 206.506 277.006 206.506C278.111 206.506 278.987 206.944 279.634 207.821C280.282 208.687 280.605 210.031 280.605 211.854C280.605 213.666 280.282 215.01 279.634 215.886C278.987 216.763 278.111 217.201 277.006 217.201C275.9 217.201 275.024 216.763 274.377 215.886C273.729 215.01 273.406 213.666 273.406 211.854ZM278.693 211.854C278.693 210.489 278.539 209.533 278.23 208.986C277.932 208.428 277.523 208.149 277.006 208.149C276.488 208.149 276.075 208.428 275.766 208.986C275.467 209.533 275.318 210.489 275.318 211.854C275.318 213.218 275.467 214.174 275.766 214.721C276.075 215.269 276.488 215.543 277.006 215.543C277.523 215.543 277.932 215.269 278.23 214.721C278.539 214.174 278.693 213.218 278.693 211.854ZM283.452 217.156C283.144 217.156 282.855 217.046 282.586 216.827C282.327 216.598 282.198 216.3 282.198 215.931C282.198 215.553 282.327 215.254 282.586 215.035C282.855 214.806 283.144 214.692 283.452 214.692C283.771 214.692 284.06 214.806 284.319 215.035C284.577 215.254 284.707 215.553 284.707 215.931C284.707 216.3 284.577 216.598 284.319 216.827C284.06 217.046 283.771 217.156 283.452 217.156ZM289.646 217.186C288.949 217.186 288.311 217.091 287.734 216.902C287.166 216.703 286.653 216.404 286.195 216.006L287.196 214.602C287.564 214.881 287.928 215.105 288.286 215.274C288.655 215.433 289.068 215.513 289.526 215.513C290.084 215.513 290.547 215.364 290.915 215.065C291.294 214.756 291.483 214.343 291.483 213.825C291.483 213.686 291.463 213.551 291.423 213.422C291.393 213.283 291.343 213.158 291.274 213.049C291.204 212.929 291.114 212.819 291.005 212.72C290.895 212.62 290.766 212.536 290.616 212.466C290.467 212.386 290.298 212.327 290.109 212.287C289.929 212.247 289.725 212.227 289.496 212.227C289.277 212.217 289.033 212.232 288.764 212.272L287.988 211.256L290.826 208.194L286.509 208.209V206.611H292.857V208.179L290.407 210.913C291.403 211.012 292.16 211.326 292.678 211.854C293.205 212.371 293.469 213.029 293.469 213.825C293.469 214.074 293.444 214.313 293.395 214.542C293.345 214.771 293.27 214.99 293.171 215.199C293.081 215.399 292.966 215.588 292.827 215.767C292.698 215.946 292.548 216.11 292.379 216.26C292.21 216.409 292.02 216.544 291.811 216.663C291.612 216.773 291.398 216.867 291.169 216.947C290.94 217.027 290.696 217.086 290.437 217.126C290.188 217.166 289.924 217.186 289.646 217.186ZM297.989 217.425L296.69 216.215C297.566 215.528 298.358 214.841 299.065 214.154C299.772 213.457 300.255 212.74 300.513 212.003C300.245 212.312 299.916 212.556 299.528 212.735C299.149 212.904 298.736 212.989 298.288 212.989C297.402 212.989 296.675 212.71 296.107 212.152C295.54 211.585 295.256 210.843 295.256 209.927C295.256 209.668 295.276 209.424 295.316 209.195C295.365 208.956 295.435 208.732 295.525 208.523C295.614 208.314 295.724 208.119 295.853 207.94C295.983 207.761 296.127 207.597 296.286 207.447C296.456 207.298 296.635 207.164 296.824 207.044C297.013 206.925 297.217 206.825 297.437 206.745C297.656 206.666 297.885 206.606 298.124 206.566C298.363 206.526 298.612 206.506 298.87 206.506C299.139 206.506 299.398 206.531 299.647 206.581C299.896 206.621 300.13 206.686 300.349 206.775C300.578 206.855 300.792 206.959 300.991 207.089C301.191 207.218 301.37 207.368 301.529 207.537C301.698 207.696 301.848 207.881 301.977 208.09C302.107 208.289 302.216 208.508 302.306 208.747C302.395 208.986 302.46 209.245 302.5 209.524C302.55 209.792 302.575 210.081 302.575 210.39C302.575 211.674 302.171 212.884 301.365 214.019C300.568 215.145 299.443 216.28 297.989 217.425ZM300.558 209.822C300.558 209.324 300.404 208.901 300.095 208.553C299.787 208.204 299.373 208.03 298.856 208.03C298.338 208.03 297.924 208.204 297.616 208.553C297.307 208.901 297.153 209.324 297.153 209.822C297.153 210.31 297.307 210.728 297.616 211.077C297.924 211.425 298.338 211.6 298.856 211.6C299.373 211.6 299.787 211.425 300.095 211.077C300.404 210.728 300.558 210.31 300.558 209.822Z" fill="#1A1A1A"/>
<line x1="316.38" y1="173.709" x2="316.38" y2="222.911" stroke="#CCD6DB" stroke-opacity="0.5" stroke-width="0.878612"/>
<path d="M329.938 190.553V180.097H332.716C333.075 180.097 333.413 180.127 333.732 180.187C334.051 180.247 334.354 180.336 334.643 180.456C334.932 180.565 335.201 180.705 335.45 180.874C335.699 181.043 335.923 181.242 336.122 181.471C336.331 181.69 336.515 181.939 336.675 182.218C336.834 182.487 336.968 182.786 337.078 183.114C337.197 183.433 337.282 183.777 337.332 184.145C337.391 184.513 337.421 184.907 337.421 185.325C337.421 185.743 337.391 186.137 337.332 186.505C337.282 186.873 337.197 187.222 337.078 187.551C336.968 187.869 336.834 188.168 336.675 188.447C336.515 188.716 336.331 188.964 336.122 189.194C335.923 189.413 335.699 189.607 335.45 189.776C335.201 189.945 334.932 190.09 334.643 190.209C334.354 190.319 334.051 190.403 333.732 190.463C333.413 190.523 333.075 190.553 332.716 190.553H329.938ZM332.716 181.232H331.268V189.433H332.716C332.955 189.433 333.184 189.413 333.403 189.373C333.623 189.333 333.832 189.273 334.031 189.194C334.24 189.104 334.434 188.999 334.613 188.88C334.793 188.75 334.957 188.601 335.106 188.432C335.266 188.262 335.405 188.073 335.524 187.864C335.644 187.655 335.743 187.421 335.823 187.162C335.913 186.903 335.977 186.624 336.017 186.326C336.067 186.017 336.092 185.688 336.092 185.34C336.092 184.991 336.067 184.668 336.017 184.369C335.977 184.06 335.913 183.777 335.823 183.518C335.743 183.259 335.644 183.025 335.524 182.816C335.405 182.597 335.266 182.402 335.106 182.233C334.957 182.064 334.793 181.919 334.613 181.8C334.434 181.671 334.24 181.566 334.031 181.486C333.832 181.397 333.623 181.332 333.403 181.292C333.184 181.252 332.955 181.232 332.716 181.232ZM345.416 190.553H344.161V189.462C343.942 189.861 343.649 190.164 343.28 190.373C342.912 190.573 342.503 190.672 342.055 190.672C341.338 190.672 340.741 190.433 340.263 189.955C339.785 189.477 339.546 188.805 339.546 187.939V182.935H340.801V187.76C340.801 188.377 340.96 188.85 341.279 189.179C341.597 189.497 342.001 189.657 342.489 189.657C342.957 189.657 343.35 189.497 343.669 189.179C343.997 188.85 344.161 188.377 344.161 187.76V182.935H345.416V190.553ZM352.73 188.372L353.731 188.73C353.512 189.248 353.153 189.701 352.655 190.09C352.157 190.478 351.53 190.672 350.773 190.672C350.494 190.672 350.226 190.642 349.967 190.583C349.718 190.523 349.479 190.438 349.25 190.329C349.021 190.219 348.807 190.08 348.607 189.91C348.418 189.741 348.249 189.552 348.1 189.343C347.95 189.124 347.821 188.88 347.711 188.611C347.602 188.342 347.517 188.053 347.457 187.745C347.408 187.426 347.383 187.087 347.383 186.729C347.383 186.42 347.403 186.127 347.442 185.848C347.492 185.569 347.557 185.31 347.637 185.071C347.716 184.832 347.811 184.613 347.92 184.414C348.04 184.205 348.169 184.016 348.309 183.846C348.458 183.677 348.617 183.528 348.787 183.398C348.966 183.269 349.15 183.164 349.339 183.085C349.538 182.995 349.743 182.93 349.952 182.89C350.171 182.841 350.395 182.816 350.624 182.816C351.56 182.816 352.327 183.159 352.924 183.846C353.522 184.533 353.82 185.484 353.82 186.699V187.043H348.622C348.662 187.939 348.881 188.596 349.28 189.014C349.678 189.433 350.176 189.642 350.773 189.642C351.221 189.642 351.605 189.532 351.923 189.313C352.242 189.094 352.511 188.78 352.73 188.372ZM350.609 183.801C350.101 183.801 349.663 183.986 349.295 184.354C348.936 184.713 348.717 185.29 348.637 186.087H352.595C352.506 185.29 352.277 184.713 351.908 184.354C351.55 183.986 351.117 183.801 350.609 183.801Z" fill="black" fill-opacity="0.7"/>
<path d="M335.763 217.066L335.002 214.647H331.312L330.551 217.066H328.549L332.059 206.611H334.359L337.869 217.066H335.763ZM331.775 213.168H334.539L333.164 208.792L331.775 213.168ZM345.355 217.066H343.444V215.946C343.224 216.344 342.926 216.653 342.547 216.872C342.179 217.081 341.766 217.186 341.308 217.186C340.561 217.186 339.948 216.947 339.47 216.469C339.002 215.991 338.768 215.314 338.768 214.438V209.314H340.68V214.124C340.68 214.632 340.81 215.02 341.069 215.289C341.337 215.558 341.671 215.692 342.069 215.692C342.448 215.692 342.771 215.558 343.04 215.289C343.309 215.02 343.444 214.632 343.444 214.124V209.314H345.355V217.066ZM350.137 217.081C349.878 217.081 349.629 217.051 349.39 216.992C349.161 216.932 348.942 216.847 348.733 216.738C348.524 216.628 348.33 216.489 348.15 216.32C347.971 216.15 347.812 215.961 347.672 215.752C347.533 215.533 347.413 215.289 347.314 215.02C347.214 214.751 347.135 214.462 347.075 214.154C347.025 213.845 347 213.512 347 213.153C347 212.795 347.025 212.456 347.075 212.137C347.135 211.819 347.214 211.53 347.314 211.271C347.413 211.002 347.533 210.758 347.672 210.539C347.812 210.32 347.971 210.126 348.15 209.957C348.33 209.787 348.524 209.648 348.733 209.538C348.942 209.429 349.161 209.344 349.39 209.285C349.629 209.225 349.878 209.195 350.137 209.195C350.655 209.195 351.103 209.314 351.481 209.553C351.86 209.792 352.158 210.136 352.377 210.584V209.314H354.304V216.932C354.304 217.191 354.279 217.435 354.229 217.664C354.18 217.893 354.11 218.107 354.02 218.306C353.931 218.505 353.821 218.689 353.692 218.859C353.562 219.028 353.413 219.182 353.244 219.322C353.074 219.461 352.89 219.581 352.691 219.68C352.502 219.79 352.293 219.879 352.064 219.949C351.845 220.029 351.611 220.084 351.362 220.113C351.113 220.153 350.859 220.173 350.6 220.173C349.833 220.173 349.161 220.044 348.584 219.785C348.016 219.536 347.563 219.197 347.224 218.769L348.3 217.589C348.618 217.958 348.957 218.231 349.315 218.411C349.684 218.59 350.087 218.68 350.525 218.68C351.063 218.68 351.506 218.525 351.855 218.217C352.203 217.918 352.377 217.43 352.377 216.753V215.692C352.158 216.14 351.86 216.484 351.481 216.723C351.103 216.962 350.655 217.081 350.137 217.081ZM350.66 215.603C351.158 215.603 351.566 215.399 351.884 214.99C352.213 214.582 352.377 213.97 352.377 213.153C352.377 212.327 352.213 211.709 351.884 211.301C351.566 210.893 351.158 210.689 350.66 210.689C350.162 210.689 349.744 210.893 349.405 211.301C349.076 211.709 348.912 212.327 348.912 213.153C348.912 213.97 349.076 214.582 349.405 214.99C349.744 215.399 350.162 215.603 350.66 215.603ZM362.903 217.171C362.664 217.171 362.425 217.156 362.186 217.126C361.957 217.096 361.732 217.051 361.513 216.992C361.304 216.932 361.1 216.862 360.901 216.783C360.702 216.693 360.518 216.593 360.348 216.484C360.189 216.364 360.04 216.235 359.9 216.096C359.771 215.946 359.656 215.787 359.557 215.618C359.467 215.448 359.397 215.264 359.348 215.065C359.298 214.866 359.273 214.652 359.273 214.423C359.273 214.253 359.288 214.094 359.318 213.945C359.348 213.785 359.387 213.641 359.437 213.512C359.497 213.372 359.562 213.243 359.631 213.123C359.711 213.004 359.801 212.889 359.9 212.78C360 212.67 360.104 212.566 360.214 212.466C360.323 212.366 360.438 212.277 360.557 212.197C360.677 212.108 360.801 212.023 360.931 211.943C361.07 211.854 361.205 211.774 361.334 211.704C360.876 211.425 360.473 211.092 360.124 210.703C359.786 210.305 359.617 209.807 359.617 209.21C359.617 208.443 359.905 207.801 360.483 207.283C361.07 206.765 361.877 206.506 362.903 206.506C363.161 206.506 363.405 206.526 363.634 206.566C363.863 206.596 364.078 206.646 364.277 206.715C364.476 206.785 364.66 206.87 364.829 206.969C365.009 207.059 365.168 207.164 365.307 207.283C365.457 207.403 365.581 207.532 365.681 207.671C365.79 207.811 365.88 207.96 365.95 208.119C366.029 208.279 366.089 208.448 366.129 208.627C366.169 208.797 366.189 208.976 366.189 209.165C366.189 209.743 366.019 210.226 365.681 210.614C365.342 210.992 364.944 211.321 364.486 211.6C365.014 211.898 365.482 212.262 365.89 212.69C366.308 213.118 366.517 213.671 366.517 214.348C366.517 214.557 366.497 214.756 366.457 214.945C366.418 215.125 366.358 215.299 366.278 215.468C366.208 215.628 366.119 215.777 366.009 215.916C365.9 216.056 365.775 216.185 365.636 216.305C365.506 216.414 365.362 216.519 365.203 216.618C365.043 216.708 364.874 216.788 364.695 216.857C364.516 216.927 364.326 216.987 364.127 217.037C363.938 217.076 363.739 217.106 363.53 217.126C363.331 217.156 363.122 217.171 362.903 217.171ZM361.498 209.165C361.498 209.553 361.643 209.872 361.932 210.121C362.22 210.37 362.574 210.604 362.992 210.823C363.361 210.614 363.669 210.38 363.918 210.121C364.177 209.862 364.307 209.543 364.307 209.165C364.307 208.826 364.177 208.533 363.918 208.284C363.669 208.035 363.331 207.91 362.903 207.91C362.464 207.91 362.121 208.035 361.872 208.284C361.623 208.533 361.498 208.826 361.498 209.165ZM362.903 215.767C363.4 215.767 363.809 215.637 364.127 215.379C364.446 215.12 364.605 214.776 364.605 214.348C364.605 213.92 364.426 213.566 364.068 213.287C363.709 212.999 363.286 212.73 362.798 212.481C362.36 212.71 361.981 212.969 361.663 213.258C361.344 213.546 361.185 213.91 361.185 214.348C361.185 214.776 361.344 215.12 361.663 215.379C361.981 215.637 362.395 215.767 362.903 215.767Z" fill="#1A1A1A"/>
<rect opacity="0.6" x="26.7559" y="201" width="82.8911" height="22.1043" rx="3.68405" fill="url(#paint1_linear_1106_33754)"/>
<rect opacity="0.6" x="129.908" y="201" width="82.8911" height="22.1043" rx="3.68405" fill="url(#paint2_linear_1106_33754)"/>
<rect opacity="0.6" x="227.543" y="201" width="82.8911" height="22.1043" rx="3.68405" fill="url(#paint3_linear_1106_33754)"/>
<rect opacity="0.6" x="320.936" y="201" width="51.975" height="21.5069" rx="3.68405" fill="url(#paint4_linear_1106_33754)"/>
<rect x="98.6982" y="50.4492" width="219.101" height="59.1439" rx="7.64458" fill="#ECEEEF"/>
<path d="M120.86 64.3867C119.723 64.3867 118.79 65.3194 118.79 66.4571V72.5091C118.79 73.6468 119.723 74.5795 120.86 74.5795H129.461C130.598 74.5795 131.531 73.6468 131.531 72.5091V66.4571C131.531 65.3194 130.598 64.3867 129.461 64.3867H120.86ZM120.86 65.3423H129.461C130.082 65.3423 130.575 65.836 130.575 66.4571V66.8092L125.161 69.7363L119.746 66.8092V66.4571C119.746 65.836 120.239 65.3423 120.86 65.3423ZM119.746 67.8955L124.933 70.7C125.003 70.7376 125.081 70.7574 125.161 70.7574C125.24 70.7574 125.318 70.7376 125.388 70.7L130.575 67.8955V72.5091C130.575 73.1302 130.082 73.6239 129.461 73.6239H120.86C120.239 73.6239 119.746 73.1302 119.746 72.5091V67.8955Z" fill="black"/>
<path d="M126.152 95.625L125.359 93.0681H121.338L120.562 95.625H117.424L121.568 83.2815H125.306L129.45 95.625H126.152ZM122.026 90.8463H124.671L123.349 86.5261L122.026 90.8463ZM137.582 90.8463L140.509 91.5693C140.18 92.8624 139.557 93.8852 138.64 94.6375C137.735 95.3899 136.606 95.7661 135.254 95.7661C134.855 95.7661 134.467 95.7308 134.091 95.6603C133.726 95.5897 133.379 95.4839 133.05 95.3429C132.721 95.2018 132.41 95.0313 132.116 94.8315C131.833 94.6199 131.569 94.3848 131.322 94.1261C131.087 93.8558 130.87 93.556 130.67 93.2268C130.482 92.8859 130.323 92.5215 130.194 92.1336C130.064 91.7456 129.964 91.3283 129.894 90.8816C129.823 90.4349 129.788 89.9588 129.788 89.4533C129.788 88.9478 129.823 88.4717 129.894 88.0249C129.964 87.5782 130.064 87.1609 130.194 86.773C130.323 86.385 130.482 86.0265 130.67 85.6973C130.858 85.3564 131.069 85.0566 131.304 84.798C131.54 84.5276 131.798 84.2925 132.08 84.0927C132.374 83.8811 132.686 83.7047 133.015 83.5636C133.344 83.4226 133.691 83.3168 134.055 83.2462C134.42 83.1757 134.802 83.1404 135.202 83.1404C136.577 83.1404 137.723 83.5166 138.64 84.269C139.569 85.0214 140.192 86.0441 140.509 87.3372L137.582 88.0426C137.406 87.4665 137.129 86.9552 136.753 86.5085C136.377 86.05 135.854 85.8207 135.184 85.8207C134.526 85.8207 133.985 86.1205 133.562 86.7201C133.138 87.3078 132.927 88.2189 132.927 89.4533C132.927 90.6876 133.144 91.5987 133.579 92.1865C134.026 92.7742 134.578 93.0681 135.237 93.0681C135.872 93.0681 136.377 92.8448 136.753 92.3981C137.129 91.9396 137.406 91.4223 137.582 90.8463ZM146.997 93.3855L144.705 87.5488L144.81 95.625H142.007V83.2815H145.798L148.037 89.1711L150.259 83.2815H154.068V95.625H151.158L151.264 87.4959L148.99 93.3855H146.997ZM165.416 93.0858V95.625H156.282V83.2815H165.416V85.8736H159.421V88.166H163.6V90.6523H159.421V93.0858H165.416ZM173.766 83.2815V95.625H170.627V83.2815H173.766ZM175.859 86.3145H178.892V87.6723C179.15 87.1785 179.503 86.8082 179.95 86.5614C180.408 86.3027 180.908 86.1734 181.449 86.1734C182.354 86.1734 183.083 86.4556 183.635 87.0198C184.2 87.5841 184.482 88.3835 184.482 89.418V95.625H181.449V89.947C181.449 89.465 181.325 89.1006 181.078 88.8537C180.843 88.6068 180.538 88.4834 180.161 88.4834C179.809 88.4834 179.509 88.6068 179.262 88.8537C179.015 89.1006 178.892 89.465 178.892 89.947V95.625H175.859V86.3145ZM192.163 91.7809L194.914 92.1688C194.879 92.4039 194.82 92.6391 194.737 92.8742C194.667 93.1093 194.573 93.3326 194.455 93.5442C194.35 93.7558 194.22 93.9616 194.067 94.1614C193.926 94.3495 193.762 94.5258 193.574 94.6904C193.397 94.855 193.203 95.0019 192.992 95.1313C192.78 95.2606 192.545 95.3723 192.286 95.4663C192.04 95.5603 191.769 95.6309 191.475 95.6779C191.193 95.7367 190.887 95.7661 190.558 95.7661C190.229 95.7661 189.912 95.7367 189.606 95.6779C189.312 95.6309 189.024 95.5545 188.742 95.4487C188.472 95.3429 188.213 95.2136 187.966 95.0607C187.731 94.8961 187.514 94.7139 187.314 94.5141C187.114 94.3025 186.932 94.0732 186.767 93.8264C186.603 93.5795 186.461 93.3091 186.344 93.0152C186.238 92.7096 186.156 92.3863 186.097 92.0454C186.038 91.7045 186.009 91.3459 186.009 90.9697C186.009 90.5936 186.038 90.235 186.097 89.8941C186.156 89.5532 186.238 89.2358 186.344 88.9419C186.461 88.6362 186.603 88.36 186.767 88.1131C186.932 87.8545 187.114 87.6252 187.314 87.4254C187.514 87.2138 187.731 87.0316 187.966 86.8788C188.213 86.7142 188.472 86.579 188.742 86.4732C189.024 86.3674 189.312 86.291 189.606 86.2439C189.912 86.1852 190.229 86.1558 190.558 86.1558C190.887 86.1558 191.193 86.1852 191.475 86.2439C191.769 86.291 192.04 86.3615 192.286 86.4556C192.545 86.5378 192.78 86.6495 192.992 86.7906C193.215 86.9199 193.415 87.0668 193.591 87.2314C193.768 87.396 193.926 87.5782 194.067 87.7781C194.22 87.9662 194.35 88.166 194.455 88.3776C194.561 88.5892 194.649 88.8126 194.72 89.0477C194.79 89.271 194.843 89.5003 194.879 89.7354L192.145 90.1057C192.004 89.5767 191.804 89.1829 191.546 88.9242C191.299 88.6539 190.987 88.5187 190.611 88.5187C190.129 88.5187 189.741 88.7244 189.447 89.1359C189.165 89.5473 189.024 90.1586 189.024 90.9697C189.024 91.7691 189.165 92.3745 189.447 92.786C189.741 93.1974 190.129 93.4032 190.611 93.4032C190.987 93.4032 191.305 93.268 191.563 92.9976C191.822 92.7272 192.022 92.3216 192.163 91.7809ZM197.35 95.7308C196.915 95.7308 196.504 95.5721 196.116 95.2547C195.728 94.9373 195.534 94.4965 195.534 93.9322C195.534 93.3797 195.728 92.9447 196.116 92.6273C196.504 92.3099 196.915 92.1512 197.35 92.1512C197.797 92.1512 198.208 92.3099 198.584 92.6273C198.972 92.9447 199.166 93.3797 199.166 93.9322C199.166 94.4965 198.972 94.9373 198.584 95.2547C198.208 95.5721 197.797 95.7308 197.35 95.7308ZM207.689 83.2815V95.625H204.551V83.2815H207.689ZM209.783 86.3145H212.816V87.6723C213.074 87.1785 213.427 86.8082 213.874 86.5614C214.332 86.3027 214.832 86.1734 215.373 86.1734C216.278 86.1734 217.007 86.4556 217.559 87.0198C218.123 87.5841 218.406 88.3835 218.406 89.418V95.625H215.373V89.947C215.373 89.465 215.249 89.1006 215.002 88.8537C214.767 88.6068 214.462 88.4834 214.085 88.4834C213.733 88.4834 213.433 88.6068 213.186 88.8537C212.939 89.1006 212.816 89.465 212.816 89.947V95.625H209.783V86.3145ZM226.005 95.625H222.549L219.057 86.3145H222.302L224.33 92.451L226.393 86.3145H229.496L226.005 95.625ZM229.714 90.9521C229.714 90.5759 229.743 90.2174 229.802 89.8765C229.861 89.5355 229.949 89.2181 230.067 88.9242C230.184 88.6304 230.319 88.36 230.472 88.1131C230.637 87.8545 230.825 87.6194 231.036 87.4078C231.248 87.1962 231.477 87.0139 231.724 86.8611C231.971 86.7083 232.235 86.579 232.518 86.4732C232.812 86.3556 233.111 86.2733 233.417 86.2263C233.734 86.1675 234.064 86.1381 234.404 86.1381C234.734 86.1381 235.051 86.1675 235.357 86.2263C235.674 86.2733 235.974 86.3556 236.256 86.4732C236.538 86.579 236.803 86.7083 237.049 86.8611C237.296 87.0139 237.52 87.1962 237.72 87.4078C237.931 87.6194 238.119 87.8545 238.284 88.1131C238.448 88.36 238.589 88.6304 238.707 88.9242C238.825 89.2181 238.913 89.5355 238.972 89.8765C239.03 90.2174 239.06 90.5759 239.06 90.9521C239.06 91.34 239.03 91.7045 238.972 92.0454C238.913 92.3863 238.825 92.7037 238.707 92.9976C238.589 93.2915 238.448 93.5678 238.284 93.8264C238.119 94.0732 237.931 94.3025 237.72 94.5141C237.52 94.7139 237.296 94.8961 237.049 95.0607C236.803 95.2136 236.538 95.3429 236.256 95.4487C235.974 95.5545 235.674 95.6309 235.357 95.6779C235.051 95.7367 234.734 95.7661 234.404 95.7661C234.064 95.7661 233.734 95.7367 233.417 95.6779C233.111 95.6309 232.812 95.5545 232.518 95.4487C232.235 95.3429 231.971 95.2136 231.724 95.0607C231.477 94.8961 231.248 94.7139 231.036 94.5141C230.825 94.3025 230.637 94.0732 230.472 93.8264C230.319 93.5678 230.184 93.2915 230.067 92.9976C229.949 92.7037 229.861 92.3863 229.802 92.0454C229.743 91.7045 229.714 91.34 229.714 90.9521ZM236.08 90.9521C236.08 90.141 235.915 89.5297 235.586 89.1182C235.268 88.7068 234.875 88.501 234.404 88.501C233.911 88.501 233.499 88.7068 233.17 89.1182C232.853 89.5297 232.694 90.141 232.694 90.9521C232.694 91.7868 232.853 92.4157 233.17 92.8389C233.499 93.2503 233.911 93.4561 234.404 93.4561C234.875 93.4561 235.268 93.2503 235.586 92.8389C235.915 92.4157 236.08 91.7868 236.08 90.9521ZM242.159 85.2212C241.747 85.2212 241.354 85.0801 240.977 84.798C240.613 84.5159 240.431 84.122 240.431 83.6165C240.431 83.1111 240.613 82.7114 240.977 82.4175C241.354 82.1236 241.747 81.9766 242.159 81.9766C242.558 81.9766 242.941 82.1236 243.305 82.4175C243.669 82.7114 243.852 83.1111 243.852 83.6165C243.852 84.122 243.669 84.5159 243.305 84.798C242.941 85.0801 242.558 85.2212 242.159 85.2212ZM243.64 95.625H240.607V86.3145H243.64V95.625ZM251.366 91.7809L254.117 92.1688C254.082 92.4039 254.023 92.6391 253.941 92.8742C253.87 93.1093 253.776 93.3326 253.659 93.5442C253.553 93.7558 253.424 93.9616 253.271 94.1614C253.13 94.3495 252.965 94.5258 252.777 94.6904C252.601 94.855 252.407 95.0019 252.195 95.1313C251.983 95.2606 251.748 95.3723 251.49 95.4663C251.243 95.5603 250.972 95.6309 250.679 95.6779C250.396 95.7367 250.091 95.7661 249.762 95.7661C249.432 95.7661 249.115 95.7367 248.809 95.6779C248.515 95.6309 248.227 95.5545 247.945 95.4487C247.675 95.3429 247.416 95.2136 247.169 95.0607C246.934 94.8961 246.717 94.7139 246.517 94.5141C246.317 94.3025 246.135 94.0732 245.97 93.8264C245.806 93.5795 245.665 93.3091 245.547 93.0152C245.441 92.7096 245.359 92.3863 245.3 92.0454C245.242 91.7045 245.212 91.3459 245.212 90.9697C245.212 90.5936 245.242 90.235 245.3 89.8941C245.359 89.5532 245.441 89.2358 245.547 88.9419C245.665 88.6362 245.806 88.36 245.97 88.1131C246.135 87.8545 246.317 87.6252 246.517 87.4254C246.717 87.2138 246.934 87.0316 247.169 86.8788C247.416 86.7142 247.675 86.579 247.945 86.4732C248.227 86.3674 248.515 86.291 248.809 86.2439C249.115 86.1852 249.432 86.1558 249.762 86.1558C250.091 86.1558 250.396 86.1852 250.679 86.2439C250.972 86.291 251.243 86.3615 251.49 86.4556C251.748 86.5378 251.983 86.6495 252.195 86.7906C252.418 86.9199 252.618 87.0668 252.795 87.2314C252.971 87.396 253.13 87.5782 253.271 87.7781C253.424 87.9662 253.553 88.166 253.659 88.3776C253.764 88.5892 253.853 88.8126 253.923 89.0477C253.994 89.271 254.047 89.5003 254.082 89.7354L251.349 90.1057C251.208 89.5767 251.008 89.1829 250.749 88.9242C250.502 88.6539 250.191 88.5187 249.815 88.5187C249.333 88.5187 248.945 88.7244 248.651 89.1359C248.369 89.5473 248.227 90.1586 248.227 90.9697C248.227 91.7691 248.369 92.3745 248.651 92.786C248.945 93.1974 249.333 93.4032 249.815 93.4032C250.191 93.4032 250.508 93.268 250.767 92.9976C251.025 92.7272 251.225 92.3216 251.366 91.7809ZM261.392 92.5391L263.967 93.0858C263.896 93.2503 263.82 93.4149 263.737 93.5795C263.655 93.7323 263.555 93.8852 263.438 94.038C263.332 94.1908 263.208 94.3436 263.067 94.4965C262.938 94.6375 262.791 94.7727 262.627 94.902C262.462 95.0313 262.28 95.1489 262.08 95.2547C261.892 95.3605 261.68 95.4545 261.445 95.5368C261.21 95.6074 260.957 95.6603 260.687 95.6955C260.428 95.7426 260.146 95.7661 259.84 95.7661C259.499 95.7661 259.17 95.7367 258.853 95.6779C258.536 95.6309 258.23 95.5545 257.936 95.4487C257.654 95.3311 257.383 95.1959 257.125 95.0431C256.878 94.8785 256.643 94.6963 256.419 94.4965C256.208 94.2848 256.02 94.0556 255.855 93.8087C255.691 93.5501 255.55 93.2739 255.432 92.98C255.314 92.6861 255.226 92.3687 255.168 92.0278C255.109 91.6868 255.079 91.3283 255.079 90.9521C255.079 90.5759 255.109 90.2233 255.168 89.8941C255.226 89.5532 255.314 89.2358 255.432 88.9419C255.55 88.648 255.691 88.3776 255.855 88.1307C256.02 87.8721 256.202 87.6429 256.402 87.443C256.613 87.2314 256.843 87.0492 257.09 86.8964C257.336 86.7436 257.595 86.6143 257.865 86.5085C258.148 86.3909 258.436 86.3086 258.729 86.2616C259.035 86.2028 259.353 86.1734 259.682 86.1734C259.999 86.1734 260.305 86.2028 260.599 86.2616C260.904 86.3204 261.186 86.4027 261.445 86.5085C261.715 86.6143 261.968 86.7494 262.203 86.914C262.438 87.0668 262.656 87.2491 262.856 87.4607C263.056 87.6723 263.232 87.9074 263.385 88.166C263.538 88.4129 263.667 88.6833 263.773 88.9772C263.878 89.271 263.961 89.5884 264.02 89.9294C264.078 90.2585 264.108 90.6112 264.108 90.9874V91.6575H257.971C258.054 92.3275 258.265 92.8213 258.606 93.1387C258.947 93.4443 259.376 93.5971 259.893 93.5971C260.199 93.5971 260.475 93.509 260.722 93.3326C260.981 93.1445 261.204 92.88 261.392 92.5391ZM259.646 88.3423C259.259 88.3423 258.918 88.4658 258.624 88.7126C258.33 88.9595 258.13 89.3768 258.024 89.9646H261.286C261.192 89.3768 260.992 88.9595 260.687 88.7126C260.393 88.4658 260.046 88.3423 259.646 88.3423Z" fill="black"/>
<path d="M145.151 74.2866V75.2793H139.182V65.7604H145.151V66.7667H140.392V69.9895H143.778V70.9822H140.392V74.2866H145.151ZM150.457 72.6276L148.078 67.3379L148.105 75.2793H147.003V65.7604H148.472L150.865 71.0774L153.245 65.7604H154.727V75.2793H153.585L153.626 67.3107L151.219 72.6276H150.457ZM162.463 75.2793L161.674 72.8452H158.07L157.282 75.2793H156.058L159.253 65.7604H160.545L163.741 75.2793H162.463ZM158.383 71.8661H161.361L159.879 67.2291L158.383 71.8661ZM166.287 65.7604V75.2793H165.077V65.7604H166.287ZM174.845 74.273V75.2793H168.875V65.7604H170.085V74.273H174.845Z" fill="black"/>
<path d="M293.59 71.957L281.424 84.5289C279.222 86.8041 279.222 90.4157 281.424 92.6909C283.73 95.074 287.552 95.074 289.858 92.6908L301.807 80.3436C303.229 78.8738 303.229 76.5407 301.807 75.0709C300.317 73.5313 297.848 73.5313 296.358 75.0709L283.915 87.929C283.165 88.7042 283.165 89.9347 283.915 90.7098C284.701 91.5218 286.003 91.5218 286.789 90.7098L299.336 77.7446" stroke="#ABABAB" stroke-width="1.34418" stroke-linecap="round"/>
<path d="M161.168 127.516L161.168 121.658C161.168 119.223 163.142 117.249 165.577 117.249L178.266 117.249C180.701 117.249 182.675 115.275 182.675 112.84L182.675 107.801" stroke="url(#paint5_linear_1106_33754)" stroke-width="3.58448"/>
<path d="M104.075 127.516L104.075 121.658C104.075 119.223 106.049 117.249 108.484 117.249L133.719 117.249C136.154 117.249 138.128 115.275 138.128 112.84L138.128 107.801" stroke="url(#paint6_linear_1106_33754)" stroke-width="3.58448"/>
<path d="M263.585 127.516L263.585 121.658C263.585 119.223 261.611 117.249 259.176 117.249L246.487 117.249C244.052 117.249 242.078 115.275 242.078 112.84L242.078 107.801" stroke="url(#paint7_linear_1106_33754)" stroke-width="3.58448"/>
<path d="M320.677 127.516L320.677 121.658C320.677 119.223 318.703 117.249 316.268 117.249L291.033 117.249C288.598 117.249 286.624 115.275 286.624 112.84L286.624 107.801" stroke="url(#paint8_linear_1106_33754)" stroke-width="3.58448"/>
<defs>
<linearGradient id="paint0_linear_1106_33754" x1="394.689" y1="192.485" x2="49.1415" y2="192.485" gradientUnits="userSpaceOnUse">
<stop stop-color="#00D639"/>
<stop offset="0.475962" stop-color="white"/>
<stop offset="1" stop-color="#00D639"/>
</linearGradient>
<linearGradient id="paint1_linear_1106_33754" x1="83.7435" y1="210.712" x2="26.8296" y2="212.936" gradientUnits="userSpaceOnUse">
<stop stop-color="#00D639"/>
<stop offset="1" stop-color="white" stop-opacity="0"/>
</linearGradient>
<linearGradient id="paint2_linear_1106_33754" x1="186.896" y1="210.712" x2="129.982" y2="212.936" gradientUnits="userSpaceOnUse">
<stop stop-color="#00D639"/>
<stop offset="1" stop-color="white" stop-opacity="0"/>
</linearGradient>
<linearGradient id="paint3_linear_1106_33754" x1="284.531" y1="210.712" x2="227.617" y2="212.936" gradientUnits="userSpaceOnUse">
<stop stop-color="#00D639"/>
<stop offset="1" stop-color="white" stop-opacity="0"/>
</linearGradient>
<linearGradient id="paint4_linear_1106_33754" x1="356.668" y1="210.45" x2="320.95" y2="211.349" gradientUnits="userSpaceOnUse">
<stop stop-color="#00D639"/>
<stop offset="1" stop-color="white" stop-opacity="0"/>
</linearGradient>
<linearGradient id="paint5_linear_1106_33754" x1="179.361" y1="127.516" x2="179.361" y2="109.593" gradientUnits="userSpaceOnUse">
<stop offset="0.389423" stop-color="#00D639"/>
<stop offset="1" stop-color="white"/>
</linearGradient>
<linearGradient id="paint6_linear_1106_33754" x1="132.881" y1="127.516" x2="132.881" y2="109.593" gradientUnits="userSpaceOnUse">
<stop offset="0.389423" stop-color="#00D639"/>
<stop offset="1" stop-color="white"/>
</linearGradient>
<linearGradient id="paint7_linear_1106_33754" x1="245.392" y1="127.516" x2="245.392" y2="109.593" gradientUnits="userSpaceOnUse">
<stop offset="0.389423" stop-color="#00D639"/>
<stop offset="1" stop-color="white"/>
</linearGradient>
<linearGradient id="paint8_linear_1106_33754" x1="291.871" y1="127.516" x2="291.871" y2="109.593" gradientUnits="userSpaceOnUse">
<stop offset="0.389423" stop-color="#00D639"/>
<stop offset="1" stop-color="white"/>
</linearGradient>
<clipPath id="clip0_1106_33754">
<rect width="116.496" height="17" fill="white" transform="translate(35.9697 144.639)"/>
</clipPath>
</defs>
</svg>
