<svg width="746" height="472" viewBox="0 0 746 472" fill="none" xmlns="http://www.w3.org/2000/svg">
<g clip-path="url(#clip0_1093_29597)">
<mask id="mask0_1093_29597" style="mask-type:luminance" maskUnits="userSpaceOnUse" x="0" y="0" width="746" height="472">
<path d="M746 0H0V471.158H746V0Z" fill="white"/>
</mask>
<g mask="url(#mask0_1093_29597)">
<path d="M31.4115 0.982422H714.59C731.395 0.982422 745.019 14.6059 745.019 31.4114V439.748C745.019 456.553 731.395 470.177 714.59 470.177H31.4115C14.6061 470.177 0.982544 456.553 0.982544 439.748V31.4114L0.99213 30.6253C1.40903 14.1832 14.8688 0.982422 31.4115 0.982422Z" fill="white" stroke="#E2E2E2" stroke-width="1.96316"/>
<path d="M691.033 82.4531H47.1174C38.4436 82.4531 31.4121 89.4846 31.4121 98.1584V427.969C31.4121 436.642 38.4436 443.674 47.1174 443.674H691.033C699.706 443.674 706.738 436.642 706.738 427.969V98.1584C706.738 89.4846 699.706 82.4531 691.033 82.4531Z" fill="white"/>
<path d="M86.0046 408.924L87.9063 408.371C88.1148 409.558 88.516 410.385 89.1097 410.85C89.7195 411.315 90.4337 411.549 91.2521 411.549C92.1506 411.549 92.889 411.26 93.4665 410.683C94.0604 410.088 94.3572 409.15 94.3572 407.866V396.336H96.4994V407.962C96.4994 409.662 96.0261 410.995 95.0793 411.957C94.1326 412.905 92.889 413.379 91.3483 413.379C89.9843 413.379 88.8209 413.025 87.858 412.319C86.8953 411.596 86.2775 410.465 86.0046 408.924ZM103.55 413.379C102.394 413.379 101.472 413.064 100.782 412.44C100.092 411.798 99.7467 411.011 99.7467 410.081C99.7467 408.924 100.164 408.035 100.998 407.409C101.833 406.767 102.972 406.39 104.416 406.278L107.329 406.036V404.906C107.329 404.038 107.08 403.396 106.583 402.98C106.101 402.562 105.491 402.354 104.753 402.354C104.112 402.354 103.502 402.515 102.924 402.835C102.362 403.156 101.889 403.71 101.504 404.495L99.9151 403.679C100.332 402.811 100.95 402.096 101.769 401.535C102.587 400.973 103.622 400.693 104.874 400.693C106.141 400.693 107.209 401.062 108.075 401.8C108.942 402.522 109.375 403.557 109.375 404.906V413.186H107.329V411.404C106.96 412.014 106.438 412.495 105.764 412.849C105.106 413.202 104.368 413.379 103.55 413.379ZM101.72 409.912C101.72 410.569 101.961 411.052 102.442 411.357C102.924 411.661 103.486 411.814 104.127 411.814C104.368 411.814 104.601 411.79 104.826 411.741C105.05 411.694 105.267 411.629 105.476 411.549C105.684 411.468 105.885 411.364 106.077 411.237C106.27 411.107 106.438 410.964 106.583 410.803C106.743 410.626 106.872 410.442 106.968 410.249C107.08 410.057 107.168 409.847 107.233 409.623C107.297 409.382 107.329 409.134 107.329 408.877V407.601L104.85 407.817C103.806 407.915 103.02 408.131 102.491 408.469C101.977 408.789 101.72 409.27 101.72 409.912ZM122.789 413.186H120.767V405.41C120.767 404.399 120.502 403.637 119.973 403.125C119.459 402.595 118.809 402.33 118.023 402.33C117.269 402.33 116.635 402.595 116.121 403.125C115.608 403.637 115.351 404.399 115.351 405.41V413.186H113.329V400.909H115.351V402.668C115.704 402.026 116.178 401.543 116.771 401.223C117.365 400.885 118.023 400.716 118.745 400.716C119.9 400.716 120.863 401.103 121.634 401.873C122.404 402.642 122.789 403.726 122.789 405.122V413.186Z" fill="black" fill-opacity="0.65"/>
<path d="M166.654 403.846V405.628H160.661V413.186H158.518V396.336H169.085V398.117H160.661V403.846H166.654ZM177.947 409.672L179.56 410.249C179.207 411.084 178.629 411.814 177.827 412.44C177.025 413.064 176.014 413.379 174.794 413.379C174.345 413.379 173.912 413.33 173.494 413.233C173.093 413.137 172.708 413.002 172.339 412.825C171.97 412.648 171.625 412.423 171.304 412.15C170.999 411.879 170.726 411.573 170.486 411.237C170.245 410.883 170.036 410.489 169.86 410.057C169.683 409.623 169.547 409.158 169.451 408.661C169.37 408.147 169.33 407.601 169.33 407.024C169.33 406.525 169.362 406.052 169.426 405.603C169.507 405.155 169.611 404.737 169.739 404.352C169.868 403.967 170.02 403.614 170.197 403.292C170.389 402.956 170.598 402.65 170.822 402.377C171.063 402.104 171.32 401.865 171.593 401.657C171.882 401.447 172.179 401.278 172.483 401.15C172.804 401.007 173.133 400.901 173.47 400.838C173.823 400.757 174.184 400.716 174.553 400.716C176.062 400.716 177.297 401.27 178.26 402.377C179.223 403.484 179.705 405.018 179.705 406.975V407.528H171.328C171.392 408.973 171.745 410.031 172.387 410.707C173.029 411.38 173.831 411.718 174.794 411.718C175.516 411.718 176.134 411.541 176.648 411.188C177.161 410.834 177.595 410.33 177.947 409.672ZM174.529 402.306C173.711 402.306 173.005 402.603 172.411 403.196C171.833 403.775 171.48 404.705 171.352 405.989H177.731C177.586 404.705 177.217 403.775 176.624 403.196C176.046 402.603 175.348 402.306 174.529 402.306ZM184.887 413.186H182.865V396.336H184.887V403.149C185.256 402.361 185.762 401.761 186.403 401.342C187.045 400.926 187.808 400.716 188.69 400.716C190.07 400.716 191.218 401.27 192.132 402.377C193.063 403.469 193.528 405.018 193.528 407.024C193.528 409.046 193.063 410.611 192.132 411.718C191.218 412.825 190.07 413.379 188.69 413.379C187.808 413.379 187.045 413.161 186.403 412.729C185.762 412.295 185.256 411.684 184.887 410.899V413.186ZM188.185 411.694C189.148 411.694 189.942 411.307 190.568 410.538C191.194 409.751 191.506 408.581 191.506 407.024C191.506 405.467 191.194 404.303 190.568 403.533C189.942 402.764 189.148 402.377 188.185 402.377C187.222 402.377 186.428 402.764 185.802 403.533C185.192 404.303 184.887 405.467 184.887 407.024C184.887 408.581 185.192 409.751 185.802 410.538C186.428 411.307 187.222 411.694 188.185 411.694Z" fill="black" fill-opacity="0.65"/>
<path d="M235.363 408.492L231.15 399.128L231.199 413.186H229.25V396.336H231.849L236.086 405.748L240.299 396.336H242.921V413.186H240.899L240.972 399.081L236.712 408.492H235.363ZM250.164 413.379C249.007 413.379 248.085 413.064 247.395 412.44C246.704 411.798 246.361 411.011 246.361 410.081C246.361 408.924 246.777 408.035 247.611 407.409C248.446 406.767 249.586 406.39 251.029 406.278L253.943 406.036V404.906C253.943 404.038 253.693 403.396 253.197 402.98C252.716 402.562 252.105 402.354 251.367 402.354C250.725 402.354 250.114 402.515 249.537 402.835C248.976 403.156 248.503 403.71 248.118 404.495L246.53 403.679C246.946 402.811 247.564 402.096 248.383 401.535C249.202 400.973 250.236 400.693 251.487 400.693C252.755 400.693 253.823 401.062 254.689 401.8C255.556 402.522 255.988 403.557 255.988 404.906V413.186H253.943V411.404C253.574 412.014 253.051 412.495 252.378 412.849C251.72 413.202 250.982 413.379 250.164 413.379ZM248.334 409.912C248.334 410.569 248.575 411.052 249.056 411.357C249.537 411.661 250.099 411.814 250.741 411.814C250.982 411.814 251.214 411.79 251.44 411.741C251.663 411.694 251.881 411.629 252.089 411.549C252.297 411.468 252.498 411.364 252.69 411.237C252.884 411.107 253.051 410.964 253.197 410.803C253.358 410.626 253.485 410.442 253.581 410.249C253.693 410.057 253.782 409.847 253.846 409.623C253.911 409.382 253.943 409.134 253.943 408.877V407.601L251.463 407.817C250.421 407.915 249.633 408.131 249.103 408.469C248.591 408.789 248.334 409.27 248.334 409.912ZM261.964 413.186H259.942V400.909H261.964V403.125C262.317 402.322 262.816 401.719 263.458 401.319C264.1 400.901 264.789 400.693 265.527 400.693C265.72 400.693 265.904 400.708 266.081 400.742C266.257 400.773 266.442 400.812 266.634 400.862L266.418 402.764C266.193 402.699 265.985 402.65 265.792 402.619C265.6 402.587 265.407 402.569 265.215 402.569C264.3 402.569 263.529 402.907 262.904 403.58C262.278 404.24 261.964 405.171 261.964 406.374V413.186Z" fill="black" fill-opacity="0.65"/>
<path d="M309.802 413.186L308.404 408.877H302.026L300.63 413.186H298.463L304.121 396.336H306.408L312.064 413.186H309.802ZM302.58 407.144H307.851L305.228 398.936L302.58 407.144ZM316.186 418.023H314.164V400.909H316.186V403.172C316.556 402.385 317.06 401.784 317.702 401.366C318.344 400.934 319.106 400.716 319.989 400.716C321.369 400.716 322.516 401.27 323.43 402.377C324.363 403.484 324.828 405.041 324.828 407.047C324.828 409.054 324.363 410.611 323.43 411.718C322.516 412.825 321.369 413.379 319.989 413.379C319.106 413.379 318.344 413.171 317.702 412.752C317.06 412.318 316.556 411.71 316.186 410.923V418.023ZM319.485 411.694C320.447 411.694 321.242 411.307 321.866 410.538C322.492 409.751 322.806 408.581 322.806 407.024C322.806 405.467 322.492 404.303 321.866 403.533C321.242 402.764 320.447 402.377 319.485 402.377C318.521 402.377 317.726 402.764 317.101 403.533C316.491 404.303 316.186 405.467 316.186 407.024C316.186 408.581 316.491 409.751 317.101 410.538C317.726 411.307 318.521 411.694 319.485 411.694ZM330.078 413.186H328.056V400.909H330.078V403.125C330.431 402.322 330.93 401.719 331.572 401.319C332.214 400.901 332.903 400.693 333.641 400.693C333.833 400.693 334.018 400.708 334.194 400.742C334.371 400.773 334.556 400.812 334.748 400.862L334.532 402.764C334.306 402.699 334.098 402.65 333.906 402.619C333.714 402.587 333.521 402.569 333.329 402.569C332.414 402.569 331.642 402.907 331.018 403.58C330.392 404.24 330.078 405.171 330.078 406.374V413.186Z" fill="black" fill-opacity="0.65"/>
<path d="M374.829 408.492L370.616 399.128L370.665 413.186H368.716V396.336H371.315L375.552 405.748L379.765 396.336H382.388V413.186H380.365L380.438 399.081L376.178 408.492H374.829ZM389.63 413.379C388.473 413.379 387.551 413.065 386.862 412.44C386.17 411.798 385.827 411.011 385.827 410.081C385.827 408.924 386.243 408.035 387.077 407.409C387.912 406.767 389.052 406.39 390.495 406.278L393.409 406.036V404.906C393.409 404.038 393.159 403.396 392.663 402.98C392.182 402.562 391.571 402.354 390.833 402.354C390.191 402.354 389.581 402.515 389.003 402.835C388.442 403.156 387.969 403.71 387.584 404.495L385.996 403.679C386.412 402.811 387.03 402.096 387.849 401.535C388.668 400.973 389.702 400.693 390.953 400.693C392.221 400.693 393.289 401.062 394.155 401.8C395.022 402.522 395.454 403.557 395.454 404.906V413.186H393.409V411.404C393.04 412.014 392.517 412.495 391.844 412.849C391.186 413.202 390.448 413.379 389.63 413.379ZM387.8 409.912C387.8 410.569 388.041 411.052 388.522 411.357C389.003 411.661 389.565 411.814 390.207 411.814C390.448 411.814 390.68 411.79 390.906 411.741C391.129 411.694 391.347 411.629 391.555 411.549C391.764 411.468 391.964 411.364 392.156 411.237C392.349 411.107 392.517 410.964 392.663 410.803C392.824 410.626 392.951 410.442 393.047 410.249C393.159 410.057 393.248 409.847 393.312 409.623C393.377 409.382 393.409 409.134 393.409 408.877V407.601L390.929 407.817C389.887 407.915 389.1 408.131 388.569 408.469C388.057 408.789 387.8 409.27 387.8 409.912ZM397.514 417.662L398.114 416.001C398.419 416.162 398.709 416.29 398.982 416.386C399.271 416.5 399.544 416.555 399.799 416.555C400.152 416.555 400.441 416.443 400.666 416.219C400.906 415.994 401.147 415.57 401.389 414.943L402.039 413.282L397.296 400.909H399.463L403.097 410.827L406.805 400.909H408.825L403.193 415.666C402.84 416.581 402.392 417.238 401.846 417.639C401.316 418.039 400.659 418.241 399.871 418.241C399.471 418.241 399.061 418.192 398.644 418.096C398.226 418 397.849 417.855 397.514 417.662Z" fill="black" fill-opacity="0.65"/>
<path d="M441.679 408.924L443.579 408.371C443.789 409.558 444.19 410.385 444.783 410.85C445.393 411.315 446.108 411.549 446.926 411.549C447.823 411.549 448.562 411.26 449.141 410.683C449.734 410.088 450.03 409.15 450.03 407.866V396.336H452.174V407.962C452.174 409.662 451.701 410.995 450.752 411.957C449.806 412.905 448.562 413.379 447.022 413.379C445.658 413.379 444.494 413.025 443.532 412.319C442.568 411.596 441.952 410.465 441.679 408.924ZM465.651 413.186H463.629V411.429C463.275 412.071 462.802 412.56 462.208 412.898C461.615 413.218 460.957 413.379 460.235 413.379C459.078 413.379 458.116 412.994 457.347 412.222C456.575 411.453 456.19 410.369 456.19 408.973V400.909H458.212V408.685C458.212 409.68 458.47 410.442 458.982 410.972C459.496 411.484 460.146 411.741 460.933 411.741C461.687 411.741 462.321 411.484 462.834 410.972C463.364 410.442 463.629 409.68 463.629 408.685V400.909H465.651V413.186ZM479.073 413.186H477.051V405.41C477.051 404.399 476.788 403.637 476.258 403.125C475.743 402.595 475.094 402.33 474.308 402.33C473.555 402.33 472.92 402.595 472.406 403.125C471.892 403.637 471.637 404.399 471.637 405.41V413.186H469.614V400.909H471.637V402.668C471.99 402.026 472.463 401.543 473.056 401.223C473.651 400.885 474.308 400.716 475.031 400.716C476.185 400.716 477.149 401.103 477.919 401.873C478.688 402.642 479.073 403.726 479.073 405.122V413.186Z" fill="black" fill-opacity="0.65"/>
<path d="M513.348 408.924L515.248 408.371C515.456 409.558 515.859 410.385 516.452 410.85C517.062 411.315 517.777 411.549 518.595 411.549C519.493 411.549 520.231 411.26 520.81 410.683C521.403 410.088 521.699 409.15 521.699 407.866V396.336H523.843V407.962C523.843 409.662 523.368 410.995 522.422 411.957C521.475 412.905 520.231 413.379 518.692 413.379C517.327 413.379 516.163 413.025 515.201 412.319C514.237 411.596 513.621 410.465 513.348 408.924ZM537.32 413.186H535.298V411.429C534.945 412.071 534.472 412.56 533.877 412.898C533.284 413.218 532.626 413.379 531.904 413.379C530.747 413.379 529.786 412.994 529.014 412.222C528.244 411.453 527.86 410.369 527.86 408.973V400.909H529.882V408.685C529.882 409.68 530.139 410.442 530.651 410.972C531.166 411.484 531.815 411.741 532.601 411.741C533.356 411.741 533.989 411.484 534.503 410.972C535.033 410.442 535.298 409.68 535.298 408.685V400.909H537.32V413.186ZM543.257 413.186H541.235V396.336H543.257V413.186Z" fill="black" fill-opacity="0.65"/>
<path d="M587.849 413.186L586.453 408.877H580.075L578.679 413.186H576.512L582.17 396.336H584.455L590.113 413.186H587.849ZM580.629 407.144H585.9L583.277 398.936L580.629 407.144ZM601.389 413.186H599.367V411.429C599.014 412.071 598.541 412.56 597.948 412.898C597.353 413.218 596.695 413.379 595.973 413.379C594.818 413.379 593.854 412.994 593.085 412.222C592.315 411.453 591.929 410.369 591.929 408.973V400.909H593.951V408.685C593.951 409.68 594.208 410.442 594.722 410.972C595.235 411.484 595.884 411.741 596.672 411.741C597.425 411.741 598.06 411.484 598.572 410.972C599.102 410.442 599.367 409.68 599.367 408.685V400.909H601.389V413.186ZM609.444 413.306C609.043 413.306 608.659 413.267 608.29 413.186C607.92 413.09 607.575 412.953 607.255 412.776C606.933 412.584 606.629 412.36 606.34 412.103C606.067 411.83 605.818 411.525 605.594 411.188C605.384 410.834 605.2 410.45 605.041 410.031C604.88 409.6 604.76 409.134 604.679 408.636C604.599 408.139 604.558 407.601 604.558 407.024C604.558 406.447 604.599 405.909 604.679 405.41C604.76 404.913 604.88 404.448 605.041 404.014C605.2 403.58 605.384 403.196 605.594 402.86C605.818 402.507 606.067 402.2 606.34 401.945C606.629 401.672 606.933 401.447 607.255 401.27C607.575 401.077 607.92 400.942 608.29 400.862C608.659 400.765 609.043 400.716 609.444 400.716C610.312 400.716 611.058 400.926 611.684 401.342C612.326 401.761 612.83 402.361 613.199 403.149V400.909H615.221V413.426C615.221 413.795 615.182 414.148 615.102 414.486C615.037 414.822 614.941 415.136 614.813 415.424C614.684 415.713 614.525 415.978 614.33 416.219C614.155 416.475 613.945 416.7 613.706 416.893C613.48 417.101 613.233 417.277 612.96 417.423C612.687 417.582 612.397 417.711 612.092 417.808C611.788 417.919 611.466 418 611.13 418.049C610.793 418.096 610.447 418.12 610.094 418.12C608.939 418.12 607.913 417.872 607.014 417.374C606.13 416.893 605.48 416.259 605.064 415.473L606.533 414.366C606.933 415.055 607.432 415.577 608.025 415.931C608.635 416.282 609.308 416.459 610.047 416.459C610.912 416.459 611.651 416.211 612.261 415.713C612.887 415.216 613.199 414.374 613.199 413.186V410.876C612.83 411.661 612.326 412.264 611.684 412.68C611.058 413.098 610.312 413.306 609.444 413.306ZM609.901 411.669C610.865 411.669 611.651 411.284 612.261 410.514C612.887 409.727 613.199 408.565 613.199 407.024C613.199 405.451 612.887 404.279 612.261 403.51C611.651 402.738 610.865 402.354 609.901 402.354C608.939 402.354 608.144 402.738 607.52 403.51C606.909 404.279 606.605 405.451 606.605 407.024C606.605 408.565 606.909 409.727 607.52 410.514C608.144 411.284 608.939 411.669 609.901 411.669Z" fill="black" fill-opacity="0.65"/>
<path d="M656.174 413.379C654.682 413.379 653.39 413.01 652.299 412.271C651.223 411.518 650.414 410.442 649.868 409.046L651.553 408.155C652.083 409.407 652.74 410.314 653.526 410.876C654.313 411.421 655.186 411.694 656.15 411.694C657.065 411.694 657.819 411.445 658.412 410.946C659.022 410.434 659.327 409.743 659.327 408.877C659.327 408.653 659.295 408.443 659.23 408.251C659.183 408.058 659.103 407.882 658.991 407.721C658.895 407.562 658.773 407.409 658.63 407.263C658.5 407.12 658.349 406.99 658.172 406.879C657.996 406.751 657.803 406.631 657.595 406.517C657.385 406.405 657.169 406.301 656.945 406.205C656.72 406.109 656.488 406.013 656.247 405.917C656.005 405.82 655.758 405.724 655.501 405.628C655.259 405.532 655.02 405.444 654.778 405.363C654.554 405.267 654.321 405.171 654.079 405.074C653.855 404.961 653.632 404.849 653.406 404.737C653.198 404.625 652.99 404.503 652.78 404.376C652.571 404.248 652.371 404.111 652.179 403.967C652.002 403.806 651.833 403.645 651.672 403.484C651.513 403.31 651.36 403.125 651.215 402.931C651.087 402.723 650.975 402.507 650.879 402.281C650.799 402.041 650.734 401.784 650.687 401.511C650.638 401.238 650.614 400.95 650.614 400.646C650.614 399.328 651.072 398.254 651.986 397.42C652.917 396.568 654.128 396.144 655.62 396.144C656.953 396.144 658.092 396.488 659.038 397.179C659.986 397.852 660.732 398.936 661.278 400.428L659.568 401.127C659.119 399.923 658.557 399.081 657.884 398.598C657.208 398.101 656.455 397.852 655.62 397.852C654.835 397.852 654.152 398.093 653.575 398.574C653.013 399.04 652.732 399.69 652.732 400.524C652.732 400.75 652.756 400.966 652.805 401.174C652.852 401.366 652.925 401.551 653.021 401.727C653.117 401.888 653.229 402.041 653.359 402.185C653.502 402.33 653.655 402.465 653.816 402.595C653.975 402.707 654.152 402.819 654.344 402.931C654.537 403.045 654.739 403.149 654.947 403.245C655.171 403.341 655.396 403.437 655.62 403.533C655.846 403.63 656.078 403.726 656.319 403.822C656.559 403.918 656.8 404.014 657.042 404.111C657.297 404.207 657.546 404.303 657.788 404.399C658.027 404.495 658.261 404.601 658.485 404.713C658.726 404.825 658.95 404.945 659.16 405.074C659.384 405.202 659.592 405.339 659.784 405.483C659.994 405.628 660.179 405.787 660.338 405.964C660.514 406.14 660.668 406.325 660.795 406.517C660.94 406.71 661.06 406.928 661.156 407.167C661.253 407.393 661.325 407.642 661.374 407.915C661.437 408.186 661.47 408.477 661.47 408.781C661.47 410.112 660.98 411.211 660.002 412.079C659.022 412.945 657.746 413.379 656.174 413.379ZM672.456 409.672L674.07 410.249C673.717 411.084 673.138 411.814 672.337 412.44C671.534 413.064 670.523 413.379 669.303 413.379C668.854 413.379 668.42 413.33 668.004 413.233C667.601 413.137 667.217 413.002 666.848 412.825C666.478 412.648 666.133 412.423 665.813 412.15C665.509 411.879 665.236 411.573 664.994 411.237C664.753 410.883 664.545 410.489 664.368 410.057C664.191 409.623 664.056 409.158 663.96 408.661C663.879 408.147 663.84 407.601 663.84 407.024C663.84 406.525 663.871 406.052 663.936 405.603C664.015 405.155 664.121 404.737 664.248 404.352C664.376 403.967 664.529 403.614 664.706 403.292C664.898 402.956 665.106 402.65 665.332 402.377C665.571 402.104 665.829 401.865 666.102 401.657C666.39 401.447 666.687 401.278 666.993 401.15C667.313 401.007 667.643 400.901 667.978 400.838C668.332 400.757 668.693 400.716 669.062 400.716C670.572 400.716 671.807 401.27 672.768 402.377C673.732 403.484 674.213 405.018 674.213 406.975V407.528H665.837C665.901 408.973 666.255 410.031 666.897 410.707C667.539 411.38 668.34 411.718 669.303 411.718C670.026 411.718 670.642 411.541 671.157 411.188C671.671 410.834 672.103 410.33 672.456 409.672ZM669.038 402.306C668.22 402.306 667.513 402.603 666.92 403.196C666.343 403.775 665.99 404.705 665.86 405.989H672.24C672.095 404.705 671.726 403.775 671.133 403.196C670.554 402.603 669.857 402.306 669.038 402.306ZM679.396 418.023H677.374V400.909H679.396V403.172C679.765 402.385 680.27 401.784 680.912 401.366C681.554 400.934 682.317 400.716 683.199 400.716C684.579 400.716 685.727 401.27 686.642 402.377C687.573 403.484 688.038 405.041 688.038 407.047C688.038 409.054 687.573 410.611 686.642 411.718C685.727 412.825 684.579 413.379 683.199 413.379C682.317 413.379 681.554 413.17 680.912 412.752C680.27 412.318 679.765 411.71 679.396 410.923V418.023ZM682.694 411.694C683.656 411.694 684.451 411.307 685.077 410.538C685.702 409.751 686.016 408.581 686.016 407.024C686.016 405.467 685.702 404.303 685.077 403.533C684.451 402.764 683.656 402.377 682.694 402.377C681.73 402.377 680.937 402.764 680.311 403.533C679.7 404.303 679.396 405.467 679.396 407.024C679.396 408.581 679.7 409.751 680.311 410.538C680.937 411.307 681.73 411.694 682.694 411.694Z" fill="black" fill-opacity="0.65"/>
<path d="M89.5013 151.44H691.274M89.5013 299.665H691.274M89.5013 373.778H691.274M89.5013 225.553H691.274" stroke="#CCD6DB" stroke-width="2.27426"/>
<path d="M93.2513 338.645C93.2513 338.645 177.702 364.559 240.488 297.419C339.628 191.409 348.462 269.935 428.951 252.267C540.166 227.853 574.58 180.332 688.088 191.409" stroke="#00D639" stroke-width="3.4114" stroke-linecap="round" stroke-linejoin="round"/>
<path d="M40.1378 154.051C39.2231 154.051 38.3405 153.922 37.4901 153.666C36.6555 153.409 35.8932 153.032 35.2034 152.534L36.2383 150.946C36.832 151.363 37.4339 151.692 38.0437 151.932C38.6695 152.157 39.3435 152.269 40.0655 152.269C41.1568 152.269 42.0475 151.956 42.7374 151.331C43.4435 150.705 43.7965 149.886 43.7965 148.875C43.7965 148.586 43.7645 148.314 43.7003 148.057C43.6361 147.784 43.5319 147.527 43.3874 147.287C43.259 147.046 43.0906 146.829 42.8819 146.637C42.6893 146.444 42.4566 146.276 42.1838 146.131C41.927 145.971 41.6302 145.85 41.2933 145.77C40.9562 145.674 40.5791 145.618 40.1619 145.602C39.7606 145.57 39.3193 145.578 38.838 145.626L37.9233 144.494L42.6653 138.742H35.5402V137.009H44.8798V138.742L40.571 144.037C42.2721 144.101 43.58 144.575 44.4946 145.457C45.4253 146.34 45.8908 147.455 45.8908 148.803C45.8908 150.344 45.3531 151.603 44.2781 152.582C43.2028 153.561 41.8227 154.051 40.1378 154.051ZM49.6846 145.433C49.6846 142.689 50.1338 140.571 51.0325 139.078C51.9312 137.57 53.263 136.816 55.0283 136.816C56.7934 136.816 58.1254 137.57 59.0241 139.078C59.9227 140.571 60.372 142.689 60.372 145.433C60.372 148.193 59.9227 150.32 59.0241 151.812C58.1254 153.304 56.7934 154.051 55.0283 154.051C53.263 154.051 51.9312 153.304 51.0325 151.812C50.1338 150.32 49.6846 148.193 49.6846 145.433ZM58.2779 145.433C58.2779 143.01 57.9809 141.269 57.3873 140.21C56.8095 139.135 56.0232 138.597 55.0283 138.597C54.0334 138.597 53.2391 139.135 52.6452 140.21C52.0675 141.269 51.7787 143.01 51.7787 145.433C51.7787 147.856 52.0675 149.605 52.6452 150.681C53.2391 151.74 54.0334 152.269 55.0283 152.269C56.0232 152.269 56.8095 151.74 57.3873 150.681C57.9809 149.605 58.2779 147.856 58.2779 145.433ZM76.4179 137.009L69.967 145.241L76.7789 153.858H74.1071L67.5116 145.409L73.9867 137.009H76.4179ZM66.6451 137.009V153.858H64.5027V137.009H66.6451Z" fill="black" fill-opacity="0.6"/>
<path d="M35.6125 229.833V228.269L41.6302 221.433C42.4005 220.565 42.906 219.819 43.1467 219.193C43.4035 218.567 43.5319 217.982 43.5319 217.436C43.5319 216.537 43.2509 215.84 42.6893 215.341C42.1437 214.829 41.4778 214.572 40.6914 214.572C39.889 214.572 39.175 214.829 38.5492 215.341C37.9233 215.84 37.3375 216.521 36.792 217.389L35.2034 216.401C35.8292 215.31 36.6074 214.436 37.5382 213.777C38.485 213.119 39.5842 212.791 40.8359 212.791C41.1729 212.791 41.5018 212.822 41.8227 212.887C42.1437 212.934 42.4486 213.015 42.7374 213.127C43.0264 213.223 43.299 213.345 43.5558 213.488C43.8287 213.633 44.0694 213.802 44.2781 213.994C44.5027 214.187 44.7033 214.403 44.8798 214.644C45.0563 214.884 45.2008 215.141 45.313 215.414C45.4414 215.671 45.5376 215.952 45.6018 216.256C45.666 216.562 45.6982 216.882 45.6982 217.22C45.6982 218.054 45.4976 218.881 45.0965 219.699C44.7113 220.518 44.0374 221.472 43.0745 222.564L38.2121 228.1H45.7705V229.833H35.6125ZM49.6846 221.407C49.6846 218.665 50.1338 216.547 51.0325 215.053C51.9312 213.545 53.263 212.791 55.0283 212.791C56.7934 212.791 58.1254 213.545 59.0241 215.053C59.9227 216.547 60.372 218.665 60.372 221.407C60.372 224.168 59.9227 226.294 59.0241 227.788C58.1254 229.28 56.7934 230.026 55.0283 230.026C53.263 230.026 51.9312 229.28 51.0325 227.788C50.1338 226.294 49.6846 224.168 49.6846 221.407ZM58.2779 221.407C58.2779 218.985 57.9809 217.243 57.3873 216.185C56.8095 215.11 56.0232 214.572 55.0283 214.572C54.0334 214.572 53.2391 215.11 52.6452 216.185C52.0675 217.243 51.7787 218.985 51.7787 221.407C51.7787 223.832 52.0675 225.581 52.6452 226.655C53.2391 227.715 54.0334 228.245 55.0283 228.245C56.0232 228.245 56.8095 227.715 57.3873 226.655C57.9809 225.581 58.2779 223.832 58.2779 221.407ZM76.4179 212.983L69.967 221.215L76.7789 229.833H74.1071L67.5116 221.384L73.9867 212.983H76.4179ZM66.6451 212.983V229.833H64.5027V212.983H66.6451Z" fill="black" fill-opacity="0.6"/>
<path d="M37.5998 307.818V306.061H41.8843V293.424L38.1773 296.384L37.0461 295.035L42.0286 290.968H44.0265V306.061H48.1187V307.818H37.5998ZM51.6477 299.392C51.6477 296.649 52.0969 294.531 52.9956 293.037C53.8944 291.529 55.2262 290.775 56.9914 290.775C58.7565 290.775 60.0885 291.529 60.9872 293.037C61.8858 294.531 62.3351 296.649 62.3351 299.392C62.3351 302.152 61.8858 304.278 60.9872 305.772C60.0885 307.264 58.7565 308.01 56.9914 308.01C55.2262 308.01 53.8944 307.264 52.9956 305.772C52.0969 304.278 51.6477 302.152 51.6477 299.392ZM60.241 299.392C60.241 296.969 59.944 295.228 59.3504 294.17C58.7726 293.094 57.9864 292.556 56.9914 292.556C55.9965 292.556 55.2022 293.094 54.6084 294.17C54.0306 295.228 53.7418 296.969 53.7418 299.392C53.7418 301.816 54.0306 303.565 54.6084 304.639C55.2022 305.699 55.9965 306.229 56.9914 306.229C57.9864 306.229 58.7726 305.699 59.3504 304.639C59.944 303.565 60.241 301.816 60.241 299.392ZM78.381 290.968L71.9301 299.199L78.742 307.818H76.0702L69.4748 299.368L75.9498 290.968H78.381ZM68.6082 290.968V307.818H66.4658V290.968H68.6082Z" fill="black" fill-opacity="0.6"/>
<path d="M64.9065 375.368C64.9065 372.623 65.3557 370.505 66.2544 369.013C67.1529 367.505 68.4849 366.751 70.2502 366.751C72.0153 366.751 73.3473 367.505 74.2458 369.013C75.1446 370.505 75.5939 372.623 75.5939 375.368C75.5939 378.128 75.1446 380.254 74.2458 381.746C73.3473 383.24 72.0153 383.986 70.2502 383.986C68.4849 383.986 67.1529 383.24 66.2544 381.746C65.3557 380.254 64.9065 378.128 64.9065 375.368ZM73.4996 375.368C73.4996 372.945 73.2028 371.204 72.6091 370.144C72.0314 369.07 71.2451 368.532 70.2502 368.532C69.2553 368.532 68.4608 369.07 67.8671 370.144C67.2894 371.204 67.0006 372.945 67.0006 375.368C67.0006 377.79 67.2894 379.539 67.8671 380.615C68.4608 381.675 69.2553 382.203 70.2502 382.203C71.2451 382.203 72.0314 381.675 72.6091 380.615C73.2028 379.539 73.4996 377.79 73.4996 375.368Z" fill="black" fill-opacity="0.6"/>
<path d="M55.3159 66.6811V47.1398H47.7538V41.9453H69.1679V47.1398H61.6058V66.6811H55.3159ZM67.0212 57.3168C67.0212 56.563 67.0801 55.8445 67.1979 55.1613C67.3157 54.4781 67.4924 53.842 67.7279 53.2531C67.9635 52.6642 68.2344 52.1223 68.5407 51.6276C68.8705 51.1093 69.2474 50.6382 69.6715 50.2141C70.0955 49.7901 70.5549 49.4249 71.0496 49.1187C71.5443 48.8124 72.0744 48.5533 72.6398 48.3413C73.2287 48.1057 73.8294 47.9408 74.4419 47.8466C75.078 47.7288 75.7376 47.6699 76.4208 47.6699C77.0804 47.6699 77.7165 47.7288 78.329 47.8466C78.965 47.9408 79.5658 48.1057 80.1312 48.3413C80.6966 48.5533 81.2266 48.8124 81.7213 49.1187C82.216 49.4249 82.6636 49.7901 83.0641 50.2141C83.4882 50.6382 83.8651 51.1093 84.1949 51.6276C84.5247 52.1223 84.8074 52.6642 85.043 53.2531C85.2786 53.842 85.4553 54.4781 85.573 55.1613C85.6908 55.8445 85.7497 56.563 85.7497 57.3168C85.7497 58.0942 85.6908 58.8245 85.573 59.5077C85.4553 60.1909 85.2786 60.827 85.043 61.4159C84.8074 62.0049 84.5247 62.5585 84.1949 63.0767C83.8651 63.5715 83.4882 64.0308 83.0641 64.4549C82.6636 64.8554 82.216 65.2205 81.7213 65.5503C81.2266 65.8566 80.6966 66.1157 80.1312 66.3277C79.5658 66.5398 78.965 66.6929 78.329 66.7871C77.7165 66.9049 77.0804 66.9638 76.4208 66.9638C75.7376 66.9638 75.078 66.9049 74.4419 66.7871C73.8294 66.6929 73.2287 66.5398 72.6398 66.3277C72.0744 66.1157 71.5443 65.8566 71.0496 65.5503C70.5549 65.2205 70.0955 64.8554 69.6715 64.4549C69.2474 64.0308 68.8705 63.5715 68.5407 63.0767C68.2344 62.5585 67.9635 62.0049 67.7279 61.4159C67.4924 60.827 67.3157 60.1909 67.1979 59.5077C67.0801 58.8245 67.0212 58.0942 67.0212 57.3168ZM79.7778 57.3168C79.7778 55.6913 79.448 54.4663 78.7884 53.6418C78.1523 52.8173 77.3631 52.405 76.4208 52.405C75.4314 52.405 74.6068 52.8173 73.9472 53.6418C73.3112 54.4663 72.9931 55.6913 72.9931 57.3168C72.9931 58.9894 73.3112 60.2498 73.9472 61.0979C74.6068 61.9224 75.4314 62.3347 76.4208 62.3347C77.3631 62.3347 78.1523 61.9224 78.7884 61.0979C79.448 60.2498 79.7778 58.9894 79.7778 57.3168ZM102.11 61.6633L102.216 66.2217C101.627 66.4337 100.92 66.6104 100.096 66.7518C99.2714 66.8931 98.4586 66.9638 97.6577 66.9638C95.6552 66.9638 94.1004 66.4809 92.9932 65.515C91.9095 64.5256 91.3677 63.1828 91.3677 61.4866V52.6524H87.2333V48.0232H91.3677V43.0761H97.4103V48.0232H102.216V52.6524H97.4103V60.4265C97.4103 60.9683 97.5752 61.3806 97.905 61.6633C98.2584 61.9224 98.7531 62.052 99.3892 62.052C99.6483 62.052 100.025 62.0166 100.52 61.946C101.038 61.8753 101.568 61.7811 102.11 61.6633ZM109.668 66.9638C107.902 66.9638 106.5 66.4809 105.463 65.515C104.427 64.5491 103.909 63.3241 103.909 61.84C103.909 60.2145 104.533 58.907 105.781 57.9176C107.03 56.9281 108.75 56.351 110.941 56.1861L115.322 55.9034V54.7726C115.322 53.9952 115.075 53.3944 114.58 52.9704C114.086 52.5228 113.438 52.299 112.637 52.299C111.836 52.299 111.105 52.4992 110.446 52.8997C109.81 53.2767 109.15 53.9363 108.467 54.8786L103.944 52.5817C104.792 51.286 105.958 50.1552 107.442 49.1894C108.926 48.2235 110.858 47.7406 113.237 47.7406C115.664 47.7406 117.607 48.3766 119.068 49.6487C120.529 50.9209 121.259 52.6759 121.259 54.9139V66.6811H115.322V64.0662C114.781 64.9614 114.015 65.6681 113.025 66.1864C112.036 66.7047 110.917 66.9638 109.668 66.9638ZM109.598 61.2746C109.598 61.8871 109.822 62.3464 110.269 62.6527C110.717 62.959 111.294 63.1121 112.001 63.1121C112.872 63.1121 113.638 62.8412 114.298 62.2993C114.981 61.7575 115.322 61.0036 115.322 60.0378V59.0837L112.283 59.331C111.412 59.4017 110.74 59.602 110.269 59.9318C109.822 60.238 109.598 60.6856 109.598 61.2746ZM131.195 66.6811H125.118V41.9453H131.195V66.6811ZM147.145 66.9638C145.378 66.9638 143.976 66.4809 142.94 65.515C141.903 64.5491 141.385 63.3241 141.385 61.84C141.385 60.2145 142.009 58.907 143.258 57.9176C144.506 56.9281 146.226 56.351 148.417 56.1861L152.799 55.9034V54.7726C152.799 53.9952 152.551 53.3944 152.057 52.9704C151.562 52.5228 150.914 52.299 150.113 52.299C149.312 52.299 148.582 52.4992 147.922 52.8997C147.286 53.2767 146.626 53.9363 145.943 54.8786L141.42 52.5817C142.268 51.286 143.434 50.1552 144.919 49.1894C146.403 48.2235 148.334 47.7406 150.714 47.7406C153.14 47.7406 155.084 48.3766 156.544 49.6487C158.005 50.9209 158.735 52.6759 158.735 54.9139V66.6811H152.799V64.0662C152.257 64.9614 151.491 65.6681 150.502 66.1864C149.512 66.7047 148.393 66.9638 147.145 66.9638ZM147.074 61.2746C147.074 61.8871 147.298 62.3464 147.745 62.6527C148.193 62.959 148.77 63.1121 149.477 63.1121C150.349 63.1121 151.114 62.8412 151.774 62.2993C152.457 61.7575 152.799 61.0036 152.799 60.0378V59.0837L149.76 59.331C148.888 59.4017 148.217 59.602 147.745 59.9318C147.298 60.238 147.074 60.6856 147.074 61.2746ZM162.664 48.0232H168.742V50.8855C169.237 49.8725 169.92 49.0951 170.792 48.5533C171.687 48.0115 172.653 47.7406 173.69 47.7406C174.938 47.7406 176.022 48.035 176.941 48.624C177.859 49.1894 178.543 50.0139 178.99 51.0976C179.508 50.0139 180.262 49.1894 181.252 48.624C182.265 48.035 183.348 47.7406 184.503 47.7406C186.222 47.7406 187.612 48.3059 188.672 49.4367C189.756 50.5675 190.298 52.1694 190.298 54.2425V66.6811H184.22V55.1966C184.22 54.2543 183.996 53.5476 183.549 53.0764C183.125 52.6053 182.583 52.3697 181.923 52.3697C181.216 52.3697 180.639 52.6053 180.192 53.0764C179.768 53.5476 179.556 54.2543 179.556 55.1966V66.6811H173.478V55.1966C173.478 54.2543 173.254 53.5476 172.806 53.0764C172.359 52.6053 171.805 52.3697 171.145 52.3697C170.462 52.3697 169.885 52.6053 169.414 53.0764C168.966 53.5476 168.742 54.2543 168.742 55.1966V66.6811H162.664V48.0232ZM193.357 57.3168C193.357 56.563 193.416 55.8445 193.534 55.1613C193.652 54.4781 193.828 53.842 194.064 53.2531C194.3 52.6642 194.571 52.1223 194.877 51.6276C195.207 51.1093 195.584 50.6382 196.008 50.2141C196.432 49.7901 196.891 49.4249 197.386 49.1187C197.88 48.8124 198.41 48.5533 198.976 48.3413C199.565 48.1057 200.166 47.9408 200.778 47.8466C201.414 47.7288 202.074 47.6699 202.757 47.6699C203.417 47.6699 204.053 47.7288 204.665 47.8466C205.301 47.9408 205.902 48.1057 206.467 48.3413C207.033 48.5533 207.563 48.8124 208.057 49.1187C208.552 49.4249 209 49.7901 209.4 50.2141C209.824 50.6382 210.201 51.1093 210.531 51.6276C210.861 52.1223 211.143 52.6642 211.379 53.2531C211.615 53.842 211.791 54.4781 211.909 55.1613C212.027 55.8445 212.086 56.563 212.086 57.3168C212.086 58.0942 212.027 58.8245 211.909 59.5077C211.791 60.1909 211.615 60.827 211.379 61.4159C211.143 62.0049 210.861 62.5585 210.531 63.0767C210.201 63.5715 209.824 64.0308 209.4 64.4549C209 64.8554 208.552 65.2205 208.057 65.5503C207.563 65.8566 207.033 66.1157 206.467 66.3277C205.902 66.5398 205.301 66.6929 204.665 66.7871C204.053 66.9049 203.417 66.9638 202.757 66.9638C202.074 66.9638 201.414 66.9049 200.778 66.7871C200.166 66.6929 199.565 66.5398 198.976 66.3277C198.41 66.1157 197.88 65.8566 197.386 65.5503C196.891 65.2205 196.432 64.8554 196.008 64.4549C195.584 64.0308 195.207 63.5715 194.877 63.0767C194.571 62.5585 194.3 62.0049 194.064 61.4159C193.828 60.827 193.652 60.1909 193.534 59.5077C193.416 58.8245 193.357 58.0942 193.357 57.3168ZM206.114 57.3168C206.114 55.6913 205.784 54.4663 205.124 53.6418C204.488 52.8173 203.699 52.405 202.757 52.405C201.767 52.405 200.943 52.8173 200.283 53.6418C199.647 54.4663 199.329 55.6913 199.329 57.3168C199.329 58.9894 199.647 60.2498 200.283 61.0979C200.943 61.9224 201.767 62.3347 202.757 62.3347C203.699 62.3347 204.488 61.9224 205.124 61.0979C205.784 60.2498 206.114 58.9894 206.114 57.3168ZM215.152 48.0232H221.23V59.4017C221.23 60.3676 221.466 61.0979 221.937 61.5926C222.432 62.0873 223.044 62.3347 223.774 62.3347C224.505 62.3347 225.117 62.0873 225.612 61.5926C226.107 61.0979 226.354 60.3676 226.354 59.4017V48.0232H232.432V66.6811H226.354V63.9602C225.836 64.9496 225.117 65.7034 224.199 66.2217C223.303 66.7164 222.314 66.9638 221.23 66.9638C219.393 66.9638 217.92 66.3984 216.813 65.2676C215.706 64.1368 215.152 62.5349 215.152 60.4618V48.0232ZM236.374 48.0232H242.452V50.7442C242.97 49.7548 243.677 49.0127 244.572 48.518C245.491 47.9997 246.492 47.7406 247.576 47.7406C249.39 47.7406 250.85 48.3059 251.958 49.4367C253.088 50.5675 253.654 52.1694 253.654 54.2425V66.6811H247.576V55.3026C247.576 54.3368 247.328 53.6065 246.834 53.1118C246.363 52.617 245.75 52.3697 244.996 52.3697C244.289 52.3697 243.689 52.617 243.194 53.1118C242.699 53.6065 242.452 54.3368 242.452 55.3026V66.6811H236.374V48.0232ZM270.651 61.6633L270.757 66.2217C270.168 66.4337 269.461 66.6104 268.637 66.7518C267.812 66.8931 266.999 66.9638 266.198 66.9638C264.196 66.9638 262.641 66.4809 261.534 65.515C260.45 64.5256 259.908 63.1828 259.908 61.4866V52.6524H255.774V48.0232H259.908V43.0761H265.951V48.0232H270.757V52.6524H265.951V60.4265C265.951 60.9683 266.116 61.3806 266.446 61.6633C266.799 61.9224 267.294 62.052 267.93 62.052C268.189 62.052 268.566 62.0166 269.061 61.946C269.579 61.8753 270.109 61.7811 270.651 61.6633ZM278.747 63.5715L282.139 60.2145C282.893 61.0861 283.694 61.7457 284.542 62.1933C285.414 62.6409 286.297 62.8647 287.192 62.8647C288.04 62.8647 288.665 62.7234 289.065 62.4407C289.489 62.1344 289.701 61.7575 289.701 61.3099C289.701 60.7916 289.348 60.4265 288.641 60.2145C287.958 59.9789 287.133 59.7551 286.168 59.5431C285.885 59.4724 285.59 59.4017 285.284 59.331C284.978 59.2604 284.672 59.1897 284.365 59.119C284.083 59.0248 283.788 58.9306 283.482 58.8363C283.199 58.7185 282.917 58.589 282.634 58.4476C282.351 58.3063 282.08 58.1531 281.821 57.9882C281.562 57.8233 281.326 57.6466 281.114 57.4582C280.902 57.2462 280.702 57.0224 280.514 56.7868C280.349 56.5276 280.196 56.245 280.054 55.9387C279.936 55.6324 279.842 55.3026 279.772 54.9493C279.701 54.5959 279.666 54.2072 279.666 53.7832C279.666 51.9456 280.384 50.485 281.821 49.4014C283.258 48.2942 285.143 47.7406 287.475 47.7406C289.171 47.7406 290.75 48.0939 292.21 48.8007C293.671 49.4838 294.813 50.3319 295.638 51.3449L292.175 54.4192C291.397 53.6182 290.62 53.0175 289.843 52.617C289.065 52.2166 288.311 52.0163 287.581 52.0163C286.992 52.0163 286.521 52.1341 286.168 52.3697C285.814 52.6053 285.637 52.9351 285.637 53.3591C285.637 53.8774 285.967 54.2661 286.627 54.5252C287.31 54.7608 288.123 54.9964 289.065 55.232C289.348 55.3026 289.631 55.3733 289.913 55.444C290.219 55.5147 290.526 55.5971 290.832 55.6913C291.138 55.762 291.433 55.8562 291.715 55.974C292.022 56.0683 292.316 56.1861 292.599 56.3274C292.882 56.4452 293.141 56.5865 293.376 56.7514C293.635 56.9164 293.871 57.093 294.083 57.2815C294.319 57.47 294.519 57.6938 294.684 57.9529C294.872 58.1885 295.025 58.4476 295.143 58.7303C295.284 59.013 295.39 59.331 295.461 59.6844C295.532 60.0142 295.567 60.3794 295.567 60.7798C295.567 62.7116 294.79 64.2311 293.235 65.3383C291.704 66.422 289.701 66.9638 287.228 66.9638C286.615 66.9638 286.026 66.9285 285.461 66.8578C284.895 66.7871 284.354 66.6929 283.835 66.5751C283.341 66.4337 282.869 66.2806 282.422 66.1157C281.998 65.9272 281.597 65.7388 281.22 65.5503C280.843 65.3383 280.49 65.1263 280.16 64.9143C279.854 64.6787 279.583 64.4549 279.348 64.2429C279.112 64.0073 278.912 63.7835 278.747 63.5715ZM304.395 73.8898H298.318V48.0232H304.395V50.8502C304.914 49.8608 305.597 49.0951 306.445 48.5533C307.317 48.0115 308.353 47.7406 309.555 47.7406C310.191 47.7406 310.791 47.8112 311.357 47.9526C311.922 48.0939 312.452 48.3059 312.947 48.5886C313.465 48.8478 313.936 49.1776 314.36 49.5781C314.808 49.9786 315.197 50.4497 315.527 50.9915C315.88 51.5098 316.174 52.0988 316.41 52.7584C316.646 53.418 316.822 54.1365 316.94 54.9139C317.081 55.6678 317.152 56.4805 317.152 57.3522C317.152 58.2238 317.081 59.0483 316.94 59.8258C316.822 60.6032 316.646 61.3217 316.41 61.9813C316.174 62.6174 315.88 63.2063 315.527 63.7481C315.197 64.2664 314.808 64.7376 314.36 65.1616C313.936 65.5621 313.465 65.9037 312.947 66.1864C312.452 66.4455 311.922 66.6458 311.357 66.7871C310.791 66.9285 310.191 66.9991 309.555 66.9991C308.353 66.9991 307.317 66.7282 306.445 66.1864C305.597 65.6446 304.914 64.8671 304.395 63.8542V73.8898ZM307.752 62.1933C308.742 62.1933 309.555 61.7928 310.191 60.9919C310.85 60.1673 311.18 58.9423 311.18 57.3168C311.18 55.6913 310.85 54.4781 310.191 53.6771C309.555 52.8526 308.742 52.4404 307.752 52.4404C306.81 52.4404 306.009 52.8526 305.35 53.6771C304.713 54.4781 304.395 55.6913 304.395 57.3168C304.395 58.9423 304.713 60.1673 305.35 60.9919C306.009 61.7928 306.81 62.1933 307.752 62.1933ZM332.274 60.4972L337.433 61.5926C337.292 61.9224 337.139 62.2522 336.974 62.582C336.809 62.8883 336.609 63.1945 336.373 63.5008C336.161 63.807 335.914 64.1133 335.631 64.4195C335.372 64.7022 335.078 64.9731 334.748 65.2323C334.418 65.4914 334.053 65.727 333.652 65.939C333.275 66.151 332.851 66.3395 332.38 66.5044C331.909 66.6458 331.403 66.7518 330.861 66.8224C330.342 66.9167 329.777 66.9638 329.165 66.9638C328.481 66.9638 327.822 66.9049 327.186 66.7871C326.55 66.6929 325.937 66.5398 325.348 66.3277C324.783 66.0922 324.241 65.8212 323.723 65.515C323.228 65.1852 322.757 64.82 322.309 64.4195C321.885 63.9955 321.508 63.5361 321.178 63.0414C320.849 62.5231 320.566 61.9695 320.33 61.3806C320.095 60.7916 319.918 60.1556 319.8 59.4724C319.683 58.7892 319.624 58.0707 319.624 57.3168C319.624 56.563 319.683 55.8562 319.8 55.1966C319.918 54.5134 320.095 53.8774 320.33 53.2884C320.566 52.6995 320.849 52.1577 321.178 51.6629C321.508 51.1447 321.873 50.6853 322.274 50.2848C322.698 49.8608 323.157 49.4956 323.652 49.1894C324.147 48.8831 324.665 48.624 325.207 48.412C325.772 48.1764 326.349 48.0115 326.938 47.9172C327.551 47.7994 328.187 47.7406 328.847 47.7406C329.483 47.7406 330.095 47.7994 330.684 47.9172C331.297 48.035 331.862 48.1999 332.38 48.412C332.922 48.624 333.429 48.8949 333.9 49.2247C334.371 49.531 334.807 49.8961 335.207 50.3201C335.608 50.7442 335.961 51.2153 336.267 51.7336C336.574 52.2283 336.833 52.7702 337.045 53.3591C337.257 53.9481 337.422 54.5841 337.539 55.2673C337.657 55.9269 337.716 56.6337 337.716 57.3875V58.7303H325.419C325.584 60.0731 326.008 61.0625 326.691 61.6986C327.374 62.3111 328.234 62.6174 329.271 62.6174C329.883 62.6174 330.437 62.4407 330.931 62.0873C331.45 61.7104 331.897 61.1803 332.274 60.4972ZM328.776 52.087C327.998 52.087 327.315 52.3343 326.726 52.8291C326.137 53.3238 325.737 54.1601 325.525 55.338H332.062C331.874 54.1601 331.473 53.3238 330.861 52.8291C330.272 52.3343 329.577 52.087 328.776 52.087ZM340.763 48.0232H346.841V50.7442C347.359 49.7548 348.066 49.0127 348.961 48.518C349.88 47.9997 350.881 47.7406 351.965 47.7406C353.779 47.7406 355.239 48.3059 356.347 49.4367C357.477 50.5675 358.043 52.1694 358.043 54.2425V66.6811H351.965V55.3026C351.965 54.3368 351.717 53.6065 351.223 53.1118C350.752 52.617 350.139 52.3697 349.385 52.3697C348.678 52.3697 348.078 52.617 347.583 53.1118C347.088 53.6065 346.841 54.3368 346.841 55.3026V66.6811H340.763V48.0232ZM375.04 61.6633L375.146 66.2217C374.557 66.4337 373.85 66.6104 373.025 66.7518C372.201 66.8931 371.388 66.9638 370.587 66.9638C368.585 66.9638 367.03 66.4809 365.923 65.515C364.839 64.5256 364.297 63.1828 364.297 61.4866V52.6524H360.163V48.0232H364.297V43.0761H370.34V48.0232H375.146V52.6524H370.34V60.4265C370.34 60.9683 370.505 61.3806 370.835 61.6633C371.188 61.9224 371.683 62.052 372.319 62.052C372.578 62.052 372.955 62.0166 373.45 61.946C373.968 61.8753 374.498 61.7811 375.04 61.6633ZM390.91 66.6811H384.832V41.9453H390.91V50.8149C391.428 49.8254 392.111 49.0598 392.959 48.518C393.807 47.9761 394.832 47.7052 396.034 47.7052C396.67 47.7052 397.27 47.7759 397.836 47.9172C398.425 48.0586 398.967 48.2706 399.461 48.5533C399.98 48.8124 400.451 49.1422 400.875 49.5427C401.322 49.9432 401.711 50.4144 402.041 50.9562C402.394 51.4745 402.689 52.0634 402.924 52.723C403.16 53.3827 403.337 54.1012 403.454 54.8786C403.596 55.6324 403.666 56.4452 403.666 57.3168C403.666 58.212 403.596 59.0483 403.454 59.8258C403.337 60.5796 403.16 61.2863 402.924 61.946C402.689 62.582 402.394 63.171 402.041 63.7128C401.711 64.2311 401.322 64.7022 400.875 65.1263C400.451 65.5268 399.98 65.8684 399.461 66.151C398.967 66.4102 398.425 66.6104 397.836 66.7518C397.27 66.8931 396.67 66.9638 396.034 66.9638C394.832 66.9638 393.807 66.6929 392.959 66.151C392.111 65.6092 391.428 64.8318 390.91 63.8188V66.6811ZM394.267 62.1933C395.233 62.1933 396.045 61.7928 396.705 60.9919C397.365 60.1673 397.695 58.9423 397.695 57.3168C397.695 55.6913 397.365 54.4781 396.705 53.6771C396.045 52.8526 395.233 52.4404 394.267 52.4404C393.325 52.4404 392.524 52.8526 391.864 53.6771C391.228 54.4781 390.91 55.6913 390.91 57.3168C390.91 58.9423 391.228 60.1673 391.864 60.9919C392.524 61.7928 393.325 62.1933 394.267 62.1933ZM404.634 73.3951L405.942 68.6246C406.436 68.8366 406.943 69.0251 407.461 69.19C408.003 69.3549 408.51 69.4374 408.981 69.4374C409.57 69.4374 410.064 69.3196 410.465 69.084C410.865 68.8484 411.231 68.3184 411.56 67.4938L404.21 48.0232H410.677L414.705 60.2498L418.875 48.0232H424.988L417.532 68.0239C416.613 70.4268 415.494 72.0759 414.175 72.9711C412.856 73.8663 411.313 74.3139 409.546 74.3139C408.745 74.3139 407.885 74.2432 406.967 74.1018C406.071 73.9605 405.294 73.7249 404.634 73.3951ZM434.04 48.0232H440.118V50.8855C440.613 49.8725 441.296 49.0951 442.168 48.5533C443.063 48.0115 444.029 47.7406 445.066 47.7406C446.314 47.7406 447.398 48.035 448.317 48.624C449.235 49.1894 449.918 50.0139 450.366 51.0976C450.884 50.0139 451.638 49.1894 452.628 48.624C453.641 48.035 454.724 47.7406 455.879 47.7406C457.598 47.7406 458.988 48.3059 460.048 49.4367C461.132 50.5675 461.674 52.1694 461.674 54.2425V66.6811H455.596V55.1966C455.596 54.2543 455.372 53.5476 454.924 53.0764C454.5 52.6053 453.959 52.3697 453.299 52.3697C452.592 52.3697 452.015 52.6053 451.568 53.0764C451.143 53.5476 450.931 54.2543 450.931 55.1966V66.6811H444.854V55.1966C444.854 54.2543 444.63 53.5476 444.182 53.0764C443.734 52.6053 443.181 52.3697 442.521 52.3697C441.838 52.3697 441.261 52.6053 440.79 53.0764C440.342 53.5476 440.118 54.2543 440.118 55.1966V66.6811H434.04V48.0232ZM464.732 57.3168C464.732 56.563 464.791 55.8445 464.909 55.1613C465.027 54.4781 465.204 53.842 465.439 53.2531C465.675 52.6642 465.946 52.1223 466.252 51.6276C466.582 51.1093 466.959 50.6382 467.383 50.2141C467.807 49.7901 468.266 49.4249 468.761 49.1187C469.256 48.8124 469.786 48.5533 470.351 48.3413C470.94 48.1057 471.541 47.9408 472.153 47.8466C472.789 47.7288 473.449 47.6699 474.132 47.6699C474.792 47.6699 475.428 47.7288 476.04 47.8466C476.676 47.9408 477.277 48.1057 477.842 48.3413C478.408 48.5533 478.938 48.8124 479.433 49.1187C479.927 49.4249 480.375 49.7901 480.775 50.2141C481.199 50.6382 481.576 51.1093 481.906 51.6276C482.236 52.1223 482.519 52.6642 482.754 53.2531C482.99 53.842 483.166 54.4781 483.284 55.1613C483.402 55.8445 483.461 56.563 483.461 57.3168C483.461 58.0942 483.402 58.8245 483.284 59.5077C483.166 60.1909 482.99 60.827 482.754 61.4159C482.519 62.0049 482.236 62.5585 481.906 63.0767C481.576 63.5715 481.199 64.0308 480.775 64.4549C480.375 64.8554 479.927 65.2205 479.433 65.5503C478.938 65.8566 478.408 66.1157 477.842 66.3277C477.277 66.5398 476.676 66.6929 476.04 66.7871C475.428 66.9049 474.792 66.9638 474.132 66.9638C473.449 66.9638 472.789 66.9049 472.153 66.7871C471.541 66.6929 470.94 66.5398 470.351 66.3277C469.786 66.1157 469.256 65.8566 468.761 65.5503C468.266 65.2205 467.807 64.8554 467.383 64.4549C466.959 64.0308 466.582 63.5715 466.252 63.0767C465.946 62.5585 465.675 62.0049 465.439 61.4159C465.204 60.827 465.027 60.1909 464.909 59.5077C464.791 58.8245 464.732 58.0942 464.732 57.3168ZM477.489 57.3168C477.489 55.6913 477.159 54.4663 476.5 53.6418C475.864 52.8173 475.074 52.405 474.132 52.405C473.143 52.405 472.318 52.8173 471.658 53.6418C471.022 54.4663 470.704 55.6913 470.704 57.3168C470.704 58.9894 471.022 60.2498 471.658 61.0979C472.318 61.9224 473.143 62.3347 474.132 62.3347C475.074 62.3347 475.864 61.9224 476.5 61.0979C477.159 60.2498 477.489 58.9894 477.489 57.3168ZM486.563 48.0232H492.641V50.7442C493.159 49.7548 493.866 49.0127 494.761 48.518C495.68 47.9997 496.681 47.7406 497.765 47.7406C499.578 47.7406 501.039 48.3059 502.146 49.4367C503.277 50.5675 503.842 52.1694 503.842 54.2425V66.6811H497.765V55.3026C497.765 54.3368 497.517 53.6065 497.022 53.1118C496.551 52.617 495.939 52.3697 495.185 52.3697C494.478 52.3697 493.877 52.617 493.383 53.1118C492.888 53.6065 492.641 54.3368 492.641 55.3026V66.6811H486.563V48.0232ZM520.838 61.6633L520.944 66.2217C520.355 66.4337 519.648 66.6104 518.823 66.7518C517.999 66.8931 517.186 66.9638 516.385 66.9638C514.383 66.9638 512.828 66.4809 511.721 65.515C510.637 64.5256 510.095 63.1828 510.095 61.4866V52.6524H505.961V48.0232H510.095V43.0761H516.138V48.0232H520.944V52.6524H516.138V60.4265C516.138 60.9683 516.303 61.3806 516.632 61.6633C516.986 61.9224 517.481 62.052 518.117 62.052C518.376 62.052 518.753 62.0166 519.247 61.946C519.766 61.8753 520.296 61.7811 520.838 61.6633ZM540.697 66.6811H534.619V55.3026C534.619 54.3368 534.372 53.6065 533.877 53.1118C533.406 52.617 532.793 52.3697 532.039 52.3697C531.333 52.3697 530.732 52.617 530.237 53.1118C529.742 53.6065 529.495 54.3368 529.495 55.3026V66.6811H523.417V41.9453H529.495V50.7442C530.013 49.7548 530.72 49.0127 531.615 48.518C532.534 47.9997 533.535 47.7406 534.619 47.7406C536.456 47.7406 537.929 48.3059 539.036 49.4367C540.143 50.5675 540.697 52.1694 540.697 54.2425V66.6811Z" fill="black"/>
<path d="M559.501 23.5586H537.906V45.1533H559.501V23.5586Z" fill="white"/>
<path d="M607.599 202.206C612.477 202.206 616.433 198.25 616.433 193.372C616.433 188.493 612.477 184.538 607.599 184.538C602.721 184.538 598.765 188.493 598.765 193.372C598.765 198.25 602.721 202.206 607.599 202.206Z" fill="#00D639"/>
<path d="M607.599 198.292L605.636 373.013" stroke="#00D639" stroke-width="1.96316" stroke-dasharray="3.93 3.93"/>
<path d="M620.359 280.732H590.912V373.001H620.359V280.732Z" fill="#00D639" fill-opacity="0.2"/>
<path d="M607.599 210.059L618.649 218.893H596.548L607.599 210.059Z" fill="black" fill-opacity="0.9"/>
<path d="M673.364 217.911H541.833C538.58 217.911 535.943 220.548 535.943 223.801V286.622C535.943 289.875 538.58 292.511 541.833 292.511H673.364C676.617 292.511 679.254 289.875 679.254 286.622V223.801C679.254 220.548 676.617 217.911 673.364 217.911Z" fill="black" fill-opacity="0.9"/>
<path d="M601.317 245.584L600.406 242.773H596.244L595.333 245.584H593.92L597.611 234.59H599.103L602.793 245.584H601.317ZM596.605 241.642H600.045L598.333 236.286L596.605 241.642ZM610.151 245.584H608.832V244.438C608.6 244.858 608.292 245.176 607.905 245.396C607.517 245.606 607.089 245.71 606.618 245.71C605.864 245.71 605.236 245.458 604.733 244.956C604.23 244.453 603.979 243.746 603.979 242.836V237.574H605.298V242.647C605.298 243.297 605.465 243.794 605.801 244.139C606.135 244.475 606.559 244.642 607.073 244.642C607.564 244.642 607.978 244.475 608.314 244.139C608.659 243.794 608.832 243.297 608.832 242.647V237.574H610.151V245.584ZM615.407 245.663C615.146 245.663 614.894 245.637 614.653 245.584C614.411 245.521 614.188 245.433 613.977 245.317C613.767 245.191 613.569 245.046 613.381 244.877C613.202 244.701 613.041 244.5 612.894 244.28C612.758 244.051 612.637 243.799 612.533 243.527C612.429 243.244 612.35 242.942 612.297 242.616C612.244 242.292 612.218 241.94 612.218 241.563C612.218 241.187 612.244 240.837 612.297 240.511C612.35 240.187 612.429 239.883 612.533 239.6C612.637 239.318 612.758 239.066 612.894 238.846C613.041 238.617 613.202 238.418 613.381 238.25C613.569 238.073 613.767 237.926 613.977 237.81C614.188 237.684 614.411 237.596 614.653 237.543C614.894 237.48 615.146 237.449 615.407 237.449C615.972 237.449 616.459 237.586 616.867 237.857C617.285 238.13 617.615 238.523 617.857 239.035V237.574H619.176V245.741C619.176 245.983 619.15 246.212 619.097 246.432C619.056 246.652 618.993 246.856 618.909 247.045C618.824 247.233 618.72 247.406 618.595 247.563C618.479 247.732 618.344 247.877 618.187 248.003C618.039 248.14 617.878 248.254 617.7 248.348C617.521 248.454 617.333 248.537 617.134 248.599C616.936 248.674 616.726 248.725 616.506 248.756C616.286 248.788 616.06 248.804 615.831 248.804C615.077 248.804 614.407 248.643 613.82 248.317C613.245 248.003 612.821 247.59 612.548 247.076L613.506 246.354C613.767 246.805 614.093 247.145 614.48 247.374C614.879 247.606 615.318 247.72 615.799 247.72C616.365 247.72 616.846 247.559 617.244 247.233C617.652 246.909 617.857 246.359 617.857 245.584V244.076C617.615 244.591 617.285 244.983 616.867 245.254C616.459 245.527 615.972 245.663 615.407 245.663ZM615.705 244.595C616.333 244.595 616.846 244.343 617.244 243.841C617.652 243.328 617.857 242.569 617.857 241.563C617.857 240.539 617.652 239.773 617.244 239.27C616.846 238.768 616.333 238.517 615.705 238.517C615.077 238.517 614.559 238.768 614.15 239.27C613.752 239.773 613.553 240.539 613.553 241.563C613.553 242.569 613.752 243.328 614.15 243.841C614.559 244.343 615.077 244.595 615.705 244.595Z" fill="white" fill-opacity="0.9"/>
<path d="M546.348 271.843L547.903 271.065C548.311 272.023 548.806 272.738 549.387 273.209C549.984 273.68 550.628 273.971 551.319 274.081V268.521C551.067 268.427 550.824 268.333 550.588 268.238C550.353 268.144 550.117 268.05 549.882 267.956C549.646 267.846 549.418 267.736 549.199 267.626C548.979 267.5 548.767 267.367 548.562 267.225C548.374 267.084 548.193 266.935 548.021 266.778C547.848 266.605 547.691 266.424 547.549 266.236C547.408 266.047 547.29 265.843 547.196 265.623C547.102 265.388 547.023 265.144 546.96 264.893C546.913 264.626 546.89 264.343 546.89 264.045C546.89 262.914 547.298 261.972 548.115 261.218C548.932 260.448 549.999 260.032 551.319 259.969V258.203H552.779V260.017C553.769 260.142 554.633 260.519 555.371 261.147C556.109 261.776 556.721 262.734 557.208 264.021L555.606 264.728C555.261 263.817 554.845 263.118 554.358 262.632C553.887 262.145 553.36 261.823 552.779 261.666V267.108C553.031 267.202 553.274 267.296 553.51 267.39C553.761 267.484 554.004 267.587 554.24 267.696C554.475 267.791 554.703 267.901 554.923 268.026C555.159 268.136 555.379 268.262 555.583 268.403C555.787 268.529 555.975 268.678 556.148 268.851C556.337 269.008 556.501 269.181 556.643 269.369C556.784 269.558 556.902 269.762 556.996 269.982C557.106 270.201 557.185 270.445 557.232 270.712C557.295 270.963 557.326 271.238 557.326 271.536C557.326 272.683 556.902 273.657 556.054 274.458C555.221 275.243 554.13 275.675 552.779 275.753V277.873H551.319V275.73C550.172 275.604 549.175 275.227 548.327 274.599C547.494 273.955 546.835 273.036 546.348 271.843ZM548.798 263.927C548.798 264.603 549.041 265.144 549.528 265.553C550.015 265.945 550.612 266.283 551.319 266.566V261.571C550.596 261.634 549.992 261.87 549.505 262.278C549.034 262.671 548.798 263.22 548.798 263.927ZM555.418 271.654C555.418 270.979 555.159 270.453 554.64 270.076C554.122 269.699 553.502 269.361 552.779 269.063V274.128C553.58 274.049 554.216 273.798 554.687 273.374C555.174 272.95 555.418 272.377 555.418 271.654ZM560.671 276.107V274.575L566.561 267.885C567.315 267.037 567.809 266.307 568.045 265.694C568.296 265.082 568.422 264.508 568.422 263.974C568.422 263.095 568.147 262.412 567.597 261.925C567.063 261.422 566.411 261.171 565.642 261.171C564.857 261.171 564.158 261.422 563.545 261.925C562.933 262.412 562.359 263.079 561.826 263.927L560.271 262.961C560.883 261.893 561.645 261.037 562.556 260.394C563.482 259.75 564.558 259.428 565.783 259.428C566.113 259.428 566.435 259.459 566.749 259.522C567.063 259.569 567.362 259.648 567.644 259.757C567.927 259.852 568.194 259.969 568.445 260.111C568.712 260.252 568.948 260.417 569.152 260.606C569.372 260.794 569.568 261.006 569.741 261.242C569.914 261.477 570.055 261.728 570.165 261.995C570.291 262.247 570.385 262.522 570.448 262.82C570.511 263.118 570.542 263.432 570.542 263.762C570.542 264.579 570.346 265.388 569.953 266.189C569.576 266.99 568.916 267.924 567.974 268.992L563.215 274.41H570.613V276.107H560.671ZM573.691 271.89V270.194L581.041 259.616H583.467V270.17H585.517V271.89H583.467V276.107H581.489V271.89H573.691ZM575.693 270.17H581.489V261.76L575.693 270.17ZM588.97 279.475L587.934 278.745C588.326 278.258 588.672 277.803 588.97 277.379C589.284 276.97 589.52 276.57 589.677 276.177H589.63C589.253 276.177 588.915 276.052 588.617 275.8C588.318 275.533 588.169 275.196 588.169 274.787C588.169 274.348 588.318 273.994 588.617 273.727C588.915 273.445 589.261 273.303 589.653 273.303C590.062 273.303 590.431 273.46 590.761 273.774C591.09 274.073 591.255 274.505 591.255 275.07C591.255 275.761 591.035 276.484 590.596 277.237C590.172 278.007 589.63 278.753 588.97 279.475ZM603.364 259.428L603.529 261.194C601.424 261.147 599.744 261.807 598.488 263.173C597.247 264.54 596.524 266.487 596.32 269.016C596.65 268.215 597.176 267.555 597.899 267.037C598.637 266.519 599.453 266.259 600.349 266.259C601.762 266.259 602.909 266.715 603.788 267.626C604.667 268.537 605.107 269.707 605.107 271.136C605.107 271.513 605.068 271.882 604.989 272.243C604.927 272.589 604.832 272.918 604.707 273.233C604.581 273.547 604.424 273.845 604.236 274.128C604.047 274.395 603.835 274.646 603.6 274.882C603.364 275.102 603.105 275.306 602.822 275.494C602.555 275.667 602.265 275.816 601.95 275.942C601.636 276.067 601.307 276.162 600.961 276.224C600.616 276.287 600.262 276.319 599.901 276.319C599.508 276.319 599.124 276.279 598.747 276.201C598.385 276.138 598.032 276.036 597.687 275.895C597.357 275.753 597.043 275.581 596.744 275.376C596.446 275.156 596.171 274.905 595.92 274.622C595.684 274.34 595.464 274.026 595.26 273.68C595.072 273.319 594.907 272.934 594.765 272.526C594.624 272.102 594.514 271.646 594.436 271.159C594.373 270.673 594.341 270.154 594.341 269.605C594.341 269.039 594.373 268.49 594.436 267.956C594.498 267.422 594.593 266.903 594.718 266.401C594.844 265.898 594.993 265.411 595.166 264.94C595.354 264.469 595.574 264.021 595.825 263.597C596.077 263.173 596.352 262.773 596.65 262.396C596.964 262.019 597.302 261.681 597.663 261.383C598.024 261.069 598.409 260.794 598.817 260.558C599.241 260.307 599.689 260.095 600.16 259.922C600.647 259.75 601.157 259.624 601.691 259.545C602.225 259.467 602.783 259.428 603.364 259.428ZM599.877 274.67C600.867 274.67 601.644 274.332 602.21 273.657C602.775 272.981 603.058 272.18 603.058 271.254C603.058 270.359 602.775 269.581 602.21 268.921C601.644 268.246 600.867 267.908 599.877 267.908C598.872 267.908 598.079 268.246 597.498 268.921C596.917 269.581 596.626 270.359 596.626 271.254C596.626 272.18 596.917 272.981 597.498 273.657C598.079 274.332 598.872 274.67 599.877 274.67ZM608.562 267.861C608.562 265.176 609.002 263.103 609.882 261.642C610.761 260.166 612.065 259.428 613.792 259.428C615.52 259.428 616.823 260.166 617.703 261.642C618.582 263.103 619.022 265.176 619.022 267.861C619.022 270.563 618.582 272.644 617.703 274.104C616.823 275.565 615.52 276.295 613.792 276.295C612.065 276.295 610.761 275.565 609.882 274.104C609.002 272.644 608.562 270.563 608.562 267.861ZM616.973 267.861C616.973 265.49 616.682 263.786 616.101 262.749C615.536 261.697 614.766 261.171 613.792 261.171C612.819 261.171 612.041 261.697 611.46 262.749C610.895 263.786 610.612 265.49 610.612 267.861C610.612 270.233 610.895 271.945 611.46 272.997C612.041 274.034 612.819 274.552 613.792 274.552C614.766 274.552 615.536 274.034 616.101 272.997C616.682 271.945 616.973 270.233 616.973 267.861ZM622.687 267.861C622.687 265.176 623.127 263.103 624.007 261.642C624.886 260.166 626.19 259.428 627.917 259.428C629.645 259.428 630.948 260.166 631.828 261.642C632.707 263.103 633.147 265.176 633.147 267.861C633.147 270.563 632.707 272.644 631.828 274.104C630.948 275.565 629.645 276.295 627.917 276.295C626.19 276.295 624.886 275.565 624.007 274.104C623.127 272.644 622.687 270.563 622.687 267.861ZM631.098 267.861C631.098 265.49 630.807 263.786 630.226 262.749C629.66 261.697 628.891 261.171 627.917 261.171C626.943 261.171 626.166 261.697 625.585 262.749C625.02 263.786 624.737 265.49 624.737 267.861C624.737 270.233 625.02 271.945 625.585 272.997C626.166 274.034 626.943 274.552 627.917 274.552C628.891 274.552 629.66 274.034 630.226 272.997C630.807 271.945 631.098 270.233 631.098 267.861ZM637.896 276.272C637.503 276.272 637.15 276.138 636.836 275.871C636.537 275.588 636.388 275.227 636.388 274.787C636.388 274.348 636.537 273.986 636.836 273.704C637.15 273.421 637.503 273.28 637.896 273.28C638.289 273.28 638.634 273.421 638.932 273.704C639.247 273.986 639.404 274.348 639.404 274.787C639.404 275.227 639.247 275.588 638.932 275.871C638.634 276.138 638.289 276.272 637.896 276.272ZM642.68 267.861C642.68 265.176 643.12 263.103 643.999 261.642C644.879 260.166 646.182 259.428 647.91 259.428C649.638 259.428 650.941 260.166 651.821 261.642C652.7 263.103 653.14 265.176 653.14 267.861C653.14 270.563 652.7 272.644 651.821 274.104C650.941 275.565 649.638 276.295 647.91 276.295C646.182 276.295 644.879 275.565 643.999 274.104C643.12 272.644 642.68 270.563 642.68 267.861ZM651.09 267.861C651.09 265.49 650.8 263.786 650.219 262.749C649.653 261.697 648.884 261.171 647.91 261.171C646.936 261.171 646.159 261.697 645.578 262.749C645.012 263.786 644.73 265.49 644.73 267.861C644.73 270.233 645.012 271.945 645.578 272.997C646.159 274.034 646.936 274.552 647.91 274.552C648.884 274.552 649.653 274.034 650.219 272.997C650.8 271.945 651.09 270.233 651.09 267.861ZM656.805 267.861C656.805 265.176 657.245 263.103 658.124 261.642C659.004 260.166 660.307 259.428 662.035 259.428C663.763 259.428 665.066 260.166 665.946 261.642C666.825 263.103 667.265 265.176 667.265 267.861C667.265 270.563 666.825 272.644 665.946 274.104C665.066 275.565 663.763 276.295 662.035 276.295C660.307 276.295 659.004 275.565 658.124 274.104C657.245 272.644 656.805 270.563 656.805 267.861ZM665.215 267.861C665.215 265.49 664.925 263.786 664.344 262.749C663.778 261.697 663.009 261.171 662.035 261.171C661.061 261.171 660.284 261.697 659.703 262.749C659.137 263.786 658.855 265.49 658.855 267.861C658.855 270.233 659.137 271.945 659.703 272.997C660.284 274.034 661.061 274.552 662.035 274.552C663.009 274.552 663.778 274.034 664.344 272.997C664.925 271.945 665.215 270.233 665.215 267.861Z" fill="white" fill-opacity="0.9"/>
</g>
</g>
<defs>
<clipPath id="clip0_1093_29597">
<rect width="746" height="471.158" fill="white"/>
</clipPath>
</defs>
</svg>
