<svg width="746" height="472" viewBox="0 0 746 472" fill="none" xmlns="http://www.w3.org/2000/svg">
<g clip-path="url(#clip0_1093_29570)">
<path d="M31.4105 0.981445H714.589C731.394 0.981445 745.018 14.605 745.018 31.4104V439.747C745.018 456.552 731.394 470.176 714.589 470.176H31.4105C14.6051 470.176 0.981567 456.552 0.981567 439.747V31.4104L0.991153 30.6243C1.40806 14.1822 14.8679 0.981445 31.4105 0.981445Z" fill="white" stroke="#E2E2E2" stroke-width="1.96316"/>
<path d="M713.954 394.6H110" stroke="#CCD6DB" stroke-width="1.54893"/>
<path d="M713.954 322.82H110" stroke="#CCD6DB" stroke-width="1.54893"/>
<path d="M713.954 249.201H110" stroke="#CCD6DB" stroke-width="1.54893"/>
<path d="M713.954 177.42H110" stroke="#CCD6DB" stroke-width="1.54893"/>
<path d="M242.439 210.551H194.414V394.603H242.439V210.551Z" fill="#00D639"/>
<path d="M187.117 319.14H139.092V394.601H187.117V319.14Z" fill="#008C4E"/>
<path d="M389.408 208.713H341.383V394.606H389.408V208.713Z" fill="#00D639"/>
<path d="M334.112 319.14H287.542V394.601H334.112V319.14Z" fill="#008C4E"/>
<path d="M540.77 205.029H492.745V394.603H540.77V205.029Z" fill="#00D639"/>
<path d="M485.473 317.302H437.447V394.604H485.473V317.302Z" fill="#008C4E"/>
<path d="M692.127 193.985H645.558V394.602H692.127V193.985Z" fill="#00D639"/>
<path d="M636.821 313.62H590.251V394.603H636.821V313.62Z" fill="#008C4E"/>
<path d="M60.7249 179.94H59.2405V171.069H56.0272V169.881C56.4463 169.881 56.8538 169.852 57.2496 169.794C57.6455 169.724 58.0006 169.602 58.3149 169.427C58.6409 169.253 58.9145 169.014 59.1357 168.711C59.3569 168.409 59.5083 168.024 59.5898 167.559H60.7249V179.94ZM65.6613 178.002H67.5997V179.94H65.6613V178.002ZM77.2802 169.078H72.2856L71.622 172.641L71.6569 172.676C71.9247 172.373 72.2681 172.152 72.6873 172.012C73.118 171.861 73.543 171.785 73.9621 171.785C74.5093 171.785 75.0274 171.872 75.5164 172.047C76.0054 172.221 76.4303 172.489 76.7912 172.85C77.1522 173.199 77.4374 173.642 77.647 174.177C77.8565 174.701 77.9613 175.318 77.9613 176.029C77.9613 176.552 77.8682 177.065 77.6819 177.565C77.5073 178.054 77.2395 178.491 76.8786 178.875C76.5176 179.259 76.0636 179.568 75.5164 179.801C74.9808 180.022 74.3521 180.133 73.6303 180.133C73.0948 180.133 72.5883 180.057 72.111 179.906C71.6453 179.743 71.232 179.515 70.871 179.224C70.5101 178.922 70.2249 178.549 70.0153 178.107C69.8058 177.664 69.6952 177.164 69.6835 176.605H71.1679C71.1912 176.919 71.2669 177.216 71.395 177.496C71.5347 177.763 71.7151 178.002 71.9363 178.212C72.1692 178.409 72.437 178.567 72.7397 178.683C73.054 178.788 73.3975 178.84 73.77 178.84C74.1193 178.84 74.4511 178.782 74.7655 178.666C75.0914 178.538 75.3709 178.351 75.6037 178.107C75.8482 177.862 76.0403 177.56 76.18 177.199C76.3197 176.826 76.3896 176.395 76.3896 175.906C76.3896 175.499 76.3197 175.126 76.18 174.789C76.0519 174.439 75.8657 174.142 75.6212 173.898C75.3767 173.642 75.0798 173.444 74.7305 173.304C74.3929 173.165 74.0145 173.095 73.5954 173.095C73.1064 173.095 72.6698 173.205 72.2856 173.426C71.913 173.636 71.5812 173.915 71.2902 174.265L70.0153 174.195L71.1679 167.768H77.2802V169.078ZM80.1733 167.471H82.4436L86.373 177.95L90.3198 167.471H92.59V179.94H91.0183V169.567H90.9834L87.089 179.94H85.6744L81.78 169.567H81.7451V179.94H80.1733V167.471Z" fill="#B3B3B3"/>
<path d="M75.2903 251.721H73.8059V242.849H70.5926V241.662C71.0117 241.662 71.4192 241.632 71.815 241.574C72.2109 241.504 72.566 241.382 72.8803 241.208C73.2063 241.033 73.4799 240.794 73.7011 240.492C73.9223 240.189 74.0737 239.805 74.1552 239.339H75.2903V251.721ZM80.1743 239.252H82.4446L86.3739 249.73L90.3207 239.252H92.591V251.721H91.0193V241.347H90.9843L87.0899 251.721H85.6754L81.781 241.347H81.746V251.721H80.1743V239.252Z" fill="#B3B3B3"/>
<path d="M61.4374 314.479H56.4428L55.7792 318.042L55.8141 318.077C56.0819 317.774 56.4254 317.553 56.8445 317.413C57.2753 317.262 57.7002 317.186 58.1193 317.186C58.6665 317.186 59.1846 317.274 59.6736 317.448C60.1626 317.623 60.5875 317.891 60.9485 318.252C61.3094 318.601 61.5946 319.043 61.8042 319.579C62.0137 320.103 62.1185 320.72 62.1185 321.43C62.1185 321.954 62.0254 322.466 61.8391 322.967C61.6645 323.456 61.3967 323.892 61.0358 324.277C60.6749 324.661 60.2208 324.969 59.6736 325.202C59.1381 325.423 58.5094 325.534 57.7875 325.534C57.252 325.534 56.7455 325.458 56.2682 325.307C55.8025 325.144 55.3892 324.917 55.0283 324.626C54.6673 324.323 54.3821 323.951 54.1725 323.508C53.963 323.066 53.8524 322.565 53.8407 322.006H55.3251C55.3484 322.321 55.4241 322.617 55.5522 322.897C55.6919 323.165 55.8723 323.403 56.0935 323.613C56.3264 323.811 56.5942 323.968 56.8969 324.084C57.2112 324.189 57.5547 324.242 57.9272 324.242C58.2765 324.242 58.6083 324.183 58.9227 324.067C59.2487 323.939 59.5281 323.753 59.7609 323.508C60.0054 323.264 60.1975 322.961 60.3372 322.6C60.4769 322.227 60.5468 321.797 60.5468 321.308C60.5468 320.9 60.4769 320.528 60.3372 320.19C60.2092 319.841 60.0229 319.544 59.7784 319.299C59.5339 319.043 59.237 318.845 58.8877 318.706C58.5501 318.566 58.1717 318.496 57.7526 318.496C57.2636 318.496 56.827 318.607 56.4428 318.828C56.0703 319.037 55.7384 319.317 55.4474 319.666L54.1725 319.596L55.3251 313.17H61.4374V314.479ZM65.2387 319.247C65.2387 319.713 65.2503 320.237 65.2736 320.819C65.3085 321.389 65.4017 321.931 65.553 322.443C65.716 322.943 65.9721 323.368 66.3214 323.718C66.6707 324.067 67.1597 324.242 67.7884 324.242C68.4171 324.242 68.906 324.067 69.2553 323.718C69.6046 323.368 69.8549 322.943 70.0063 322.443C70.1693 321.931 70.2624 321.389 70.2857 320.819C70.3206 320.237 70.3381 319.713 70.3381 319.247C70.3381 318.944 70.3323 318.612 70.3206 318.252C70.3206 317.879 70.2915 317.512 70.2333 317.151C70.1867 316.779 70.111 316.418 70.0063 316.069C69.9131 315.719 69.7676 315.417 69.5697 315.16C69.3834 314.893 69.1447 314.677 68.8537 314.514C68.5626 314.351 68.2075 314.27 67.7884 314.27C67.3692 314.27 67.0141 314.351 66.7231 314.514C66.432 314.677 66.1875 314.893 65.9896 315.16C65.8033 315.417 65.6578 315.719 65.553 316.069C65.4599 316.418 65.3842 316.779 65.326 317.151C65.2794 317.512 65.2503 317.879 65.2387 318.252C65.2387 318.612 65.2387 318.944 65.2387 319.247ZM63.6669 319.264C63.6669 318.81 63.6786 318.339 63.7019 317.85C63.7251 317.361 63.7834 316.884 63.8765 316.418C63.9696 315.952 64.1035 315.51 64.2782 315.091C64.4528 314.671 64.6915 314.305 64.9942 313.99C65.2969 313.676 65.6753 313.426 66.1293 313.239C66.595 313.053 67.148 312.96 67.7884 312.96C68.4287 312.96 68.9759 313.053 69.43 313.239C69.8957 313.426 70.2799 313.676 70.5826 313.99C70.8853 314.305 71.1239 314.671 71.2986 315.091C71.4732 315.51 71.6071 315.952 71.7002 316.418C71.7934 316.884 71.8516 317.361 71.8749 317.85C71.8982 318.339 71.9098 318.81 71.9098 319.264C71.9098 319.718 71.8982 320.19 71.8749 320.679C71.8516 321.168 71.7934 321.645 71.7002 322.111C71.6071 322.577 71.4732 323.019 71.2986 323.438C71.1239 323.846 70.8853 324.207 70.5826 324.521C70.2799 324.835 69.9015 325.086 69.4474 325.272C68.9934 325.447 68.4403 325.534 67.7884 325.534C67.148 325.534 66.595 325.447 66.1293 325.272C65.6753 325.086 65.2969 324.835 64.9942 324.521C64.6915 324.207 64.4528 323.846 64.2782 323.438C64.1035 323.019 63.9696 322.577 63.8765 322.111C63.7834 321.645 63.7251 321.168 63.7019 320.679C63.6786 320.19 63.6669 319.718 63.6669 319.264ZM74.9426 319.247C74.9426 319.713 74.9543 320.237 74.9776 320.819C75.0125 321.389 75.1056 321.931 75.257 322.443C75.42 322.943 75.6761 323.368 76.0254 323.718C76.3747 324.067 76.8636 324.242 77.4923 324.242C78.121 324.242 78.61 324.067 78.9593 323.718C79.3086 323.368 79.5589 322.943 79.7102 322.443C79.8732 321.931 79.9664 321.389 79.9896 320.819C80.0246 320.237 80.042 319.713 80.042 319.247C80.042 318.944 80.0362 318.612 80.0246 318.252C80.0246 317.879 79.9955 317.512 79.9373 317.151C79.8907 316.779 79.815 316.418 79.7102 316.069C79.6171 315.719 79.4716 315.417 79.2736 315.16C79.0873 314.893 78.8487 314.677 78.5576 314.514C78.2666 314.351 77.9115 314.27 77.4923 314.27C77.0732 314.27 76.7181 314.351 76.427 314.514C76.136 314.677 75.8915 314.893 75.6936 315.16C75.5073 315.417 75.3618 315.719 75.257 316.069C75.1638 316.418 75.0882 316.779 75.0299 317.151C74.9834 317.512 74.9543 317.879 74.9426 318.252C74.9426 318.612 74.9426 318.944 74.9426 319.247ZM73.3709 319.264C73.3709 318.81 73.3825 318.339 73.4058 317.85C73.4291 317.361 73.4873 316.884 73.5805 316.418C73.6736 315.952 73.8075 315.51 73.9821 315.091C74.1568 314.671 74.3954 314.305 74.6981 313.99C75.0008 313.676 75.3792 313.426 75.8333 313.239C76.299 313.053 76.852 312.96 77.4923 312.96C78.1327 312.96 78.6799 313.053 79.1339 313.239C79.5996 313.426 79.9838 313.676 80.2865 313.99C80.5892 314.305 80.8279 314.671 81.0025 315.091C81.1772 315.51 81.3111 315.952 81.4042 316.418C81.4973 316.884 81.5556 317.361 81.5788 317.85C81.6021 318.339 81.6138 318.81 81.6138 319.264C81.6138 319.718 81.6021 320.19 81.5788 320.679C81.5556 321.168 81.4973 321.645 81.4042 322.111C81.3111 322.577 81.1772 323.019 81.0025 323.438C80.8279 323.846 80.5892 324.207 80.2865 324.521C79.9838 324.835 79.6054 325.086 79.1514 325.272C78.6973 325.447 78.1443 325.534 77.4923 325.534C76.852 325.534 76.299 325.447 75.8333 325.272C75.3792 325.086 75.0008 324.835 74.6981 324.521C74.3954 324.207 74.1568 323.846 73.9821 323.438C73.8075 323.019 73.6736 322.577 73.5805 322.111C73.4873 321.645 73.4291 321.168 73.4058 320.679C73.3825 320.19 73.3709 319.718 73.3709 319.264ZM83.7035 312.873H85.3626V319.09L91.6845 312.873H93.8325L88.5759 317.902L94.0421 325.342H91.9464L87.4408 319.037L85.3626 320.976V325.342H83.7035V312.873Z" fill="#B3B3B3"/>
<path d="M86.5826 389.185C86.5826 389.651 86.5942 390.175 86.6175 390.757C86.6524 391.328 86.7455 391.869 86.8969 392.381C87.0599 392.882 87.316 393.307 87.6653 393.656C88.0146 394.005 88.5036 394.18 89.1323 394.18C89.761 394.18 90.2499 394.005 90.5992 393.656C90.9485 393.307 91.1988 392.882 91.3502 392.381C91.5131 391.869 91.6063 391.328 91.6296 390.757C91.6645 390.175 91.682 389.651 91.682 389.185C91.682 388.883 91.6761 388.551 91.6645 388.19C91.6645 387.817 91.6354 387.451 91.5772 387.09C91.5306 386.717 91.4549 386.356 91.3502 386.007C91.257 385.658 91.1115 385.355 90.9136 385.099C90.7273 384.831 90.4886 384.616 90.1975 384.453C89.9065 384.29 89.5514 384.208 89.1323 384.208C88.7131 384.208 88.358 384.29 88.067 384.453C87.7759 384.616 87.5314 384.831 87.3335 385.099C87.1472 385.355 87.0017 385.658 86.8969 386.007C86.8038 386.356 86.7281 386.717 86.6699 387.09C86.6233 387.451 86.5942 387.817 86.5826 388.19C86.5826 388.551 86.5826 388.883 86.5826 389.185ZM85.0108 389.203C85.0108 388.749 85.0225 388.277 85.0457 387.788C85.069 387.299 85.1272 386.822 85.2204 386.356C85.3135 385.891 85.4474 385.448 85.6221 385.029C85.7967 384.61 86.0354 384.243 86.3381 383.929C86.6408 383.615 87.0191 383.364 87.4732 383.178C87.9389 382.992 88.4919 382.898 89.1323 382.898C89.7726 382.898 90.3198 382.992 90.7738 383.178C91.2395 383.364 91.6237 383.615 91.9265 383.929C92.2292 384.243 92.4678 384.61 92.6425 385.029C92.8171 385.448 92.951 385.891 93.0441 386.356C93.1373 386.822 93.1955 387.299 93.2188 387.788C93.2421 388.277 93.2537 388.749 93.2537 389.203C93.2537 389.657 93.2421 390.128 93.2188 390.617C93.1955 391.106 93.1373 391.584 93.0441 392.049C92.951 392.515 92.8171 392.958 92.6425 393.377C92.4678 393.784 92.2292 394.145 91.9265 394.459C91.6237 394.774 91.2454 395.024 90.7913 395.21C90.3373 395.385 89.7842 395.472 89.1323 395.472C88.4919 395.472 87.9389 395.385 87.4732 395.21C87.0191 395.024 86.6408 394.774 86.3381 394.459C86.0354 394.145 85.7967 393.784 85.6221 393.377C85.4474 392.958 85.3135 392.515 85.2204 392.049C85.1272 391.584 85.069 391.106 85.0457 390.617C85.0225 390.128 85.0108 389.657 85.0108 389.203Z" fill="#B3B3B3"/>
<path d="M173.053 425.063L174.43 424.649C174.586 425.509 174.881 426.106 175.313 426.439C175.758 426.773 176.277 426.937 176.87 426.931C177.522 426.925 178.057 426.711 178.473 426.288C178.902 425.853 179.113 425.17 179.108 424.238L179.059 415.874L180.613 415.859L180.662 424.294C180.669 425.528 180.332 426.498 179.649 427.202C178.966 427.896 178.066 428.247 176.948 428.258C175.958 428.267 175.113 428.019 174.411 427.513C173.71 426.995 173.257 426.179 173.053 425.063ZM190.309 427.994L189.278 424.878L184.65 424.921L183.655 428.056L182.084 428.071L186.117 415.808L187.776 415.793L191.95 427.979L190.309 427.994ZM185.044 423.66L188.869 423.624L186.931 417.687L185.044 423.66ZM200.441 427.901L195.006 418.171L195.098 427.95L193.666 427.963L193.595 415.739L195.254 415.724L200.689 425.383L200.598 415.674L202.03 415.661L202.1 427.885L200.441 427.901Z" fill="#B3B3B3"/>
<path d="M327.15 424.696L324.055 417.931L324.149 428.13L322.734 428.143L322.663 415.918L324.549 415.901L327.662 422.701L330.679 415.844L332.582 415.826L332.653 428.051L331.186 428.064L331.179 417.83L328.128 424.687L327.15 424.696ZM342.587 427.959L341.556 424.842L336.928 424.885L335.934 428.02L334.362 428.035L338.395 415.773L340.054 415.757L344.229 427.944L342.587 427.959ZM337.323 423.624L341.147 423.589L339.209 417.651L337.323 423.624ZM345.944 427.928L345.873 415.703L349.733 415.668C350.92 415.657 351.877 415.95 352.602 416.549C353.327 417.148 353.693 417.994 353.699 419.089C353.704 419.869 353.521 420.534 353.152 421.085C352.783 421.635 352.279 422.042 351.64 422.304L354.379 427.85L352.667 427.865L350.122 422.615C350.064 422.627 350.006 422.633 349.948 422.634C349.889 422.634 349.831 422.635 349.773 422.635L347.468 422.657L347.498 427.913L345.944 427.928ZM349.801 421.36C350.464 421.354 351.022 421.169 351.474 420.803C351.926 420.438 352.15 419.889 352.145 419.156C352.141 418.41 351.911 417.86 351.455 417.503C350.999 417.146 350.439 416.971 349.775 416.977L347.435 416.999L347.461 421.382L349.801 421.36Z" fill="#B3B3B3"/>
<path d="M478.52 424.696L475.425 417.931L475.519 428.13L474.104 428.143L474.033 415.918L475.919 415.901L479.032 422.701L482.049 415.844L483.952 415.826L484.023 428.051L482.556 428.064L482.549 417.83L479.498 424.687L478.52 424.696ZM493.957 427.959L492.926 424.842L488.299 424.885L487.304 428.02L485.732 428.035L489.765 415.773L491.424 415.757L495.599 427.944L493.957 427.959ZM488.693 423.624L492.517 423.589L490.579 417.651L488.693 423.624ZM500.789 427.896L499.235 427.91L499.21 423.614L494.938 415.725L496.649 415.709L500.039 422.122L503.355 415.647L504.927 415.632L500.764 423.582L500.789 427.896Z" fill="#B3B3B3"/>
<path d="M627.109 425.063L628.486 424.649C628.643 425.509 628.937 426.106 629.37 426.439C629.814 426.773 630.333 426.937 630.927 426.931C631.579 426.925 632.113 426.711 632.53 426.288C632.958 425.853 633.17 425.17 633.164 424.238L633.116 415.874L634.67 415.859L634.719 424.294C634.726 425.528 634.388 426.498 633.705 427.202C633.022 427.896 632.122 428.247 631.005 428.258C630.015 428.267 629.169 428.019 628.468 427.513C627.766 426.995 627.313 426.179 627.109 425.063ZM641.847 428.157C640.636 428.169 639.645 427.823 638.872 427.12C638.111 426.405 637.727 425.395 637.72 424.092L637.672 415.831L639.226 415.817L639.273 423.92C639.279 424.91 639.527 425.647 640.019 426.131C640.511 426.615 641.118 426.854 641.84 426.848C642.573 426.841 643.177 426.591 643.652 426.097C644.126 425.604 644.36 424.862 644.355 423.873L644.308 415.77L645.862 415.755L645.91 424.016C645.917 425.32 645.545 426.336 644.792 427.065C644.04 427.782 643.058 428.146 641.847 428.157ZM656.745 426.587L656.753 427.88L649.087 427.951L649.016 415.726L650.57 415.712L650.633 426.644L656.745 426.587Z" fill="#B3B3B3"/>
<path d="M54.3216 114.715C57.8523 114.715 60.7145 111.853 60.7145 108.323C60.7145 104.792 57.8523 101.93 54.3216 101.93C50.7909 101.93 47.9287 104.792 47.9287 108.323C47.9287 111.853 50.7909 114.715 54.3216 114.715Z" fill="#008C4E"/>
<path d="M83.1344 111.183L84.8836 111.636C84.4373 113.234 83.7174 114.408 82.7241 115.156C81.7451 115.891 80.651 116.258 79.4417 116.258C77.6565 116.258 76.2385 115.581 75.1875 114.228C74.151 112.86 73.6327 110.96 73.6327 108.527C73.6327 106.094 74.151 104.201 75.1875 102.847C76.2385 101.48 77.6493 100.796 79.4201 100.796C80.6294 100.796 81.7307 101.17 82.7241 101.919C83.7174 102.653 84.4301 103.834 84.862 105.46L83.1128 105.935C82.7817 104.813 82.3066 103.949 81.6875 103.344C81.0685 102.725 80.3055 102.415 79.3985 102.415C78.29 102.415 77.3686 102.912 76.6344 103.906C75.9146 104.884 75.5546 106.425 75.5546 108.527C75.5546 110.629 75.9218 112.176 76.656 113.17C77.3902 114.149 78.3116 114.638 79.4201 114.638C80.3271 114.638 81.0901 114.343 81.7091 113.753C82.3282 113.148 82.8033 112.291 83.1344 111.183ZM90.3455 116.258C89.309 116.258 88.4812 115.977 87.8621 115.416C87.2431 114.84 86.9335 114.134 86.9335 113.299C86.9335 112.263 87.3079 111.464 88.0565 110.902C88.8051 110.326 89.8272 109.988 91.1229 109.887L93.7359 109.671V108.656C93.7359 107.879 93.5127 107.303 93.0665 106.929C92.6346 106.554 92.0875 106.367 91.4253 106.367C90.8494 106.367 90.3023 106.511 89.7841 106.799C89.2802 107.087 88.8555 107.584 88.51 108.289L87.0847 107.555C87.459 106.778 88.0133 106.137 88.7475 105.633C89.4817 105.129 90.4103 104.877 91.5332 104.877C92.6705 104.877 93.6279 105.208 94.4053 105.871C95.1827 106.518 95.5714 107.447 95.5714 108.656V116.085H93.7359V114.487C93.4048 115.034 92.9369 115.466 92.3322 115.783C91.742 116.099 91.0797 116.258 90.3455 116.258ZM88.7043 113.148C88.7043 113.738 88.9203 114.17 89.3522 114.444C89.7841 114.717 90.2879 114.854 90.8638 114.854C91.0797 114.854 91.2885 114.832 91.49 114.789C91.6916 114.746 91.8859 114.689 92.0731 114.617C92.2602 114.545 92.4402 114.451 92.613 114.336C92.7857 114.221 92.9369 114.091 93.0665 113.947C93.2104 113.789 93.3256 113.623 93.412 113.45C93.5127 113.278 93.5919 113.09 93.6495 112.889C93.7071 112.673 93.7359 112.45 93.7359 112.22V111.075L91.5116 111.269C90.5759 111.356 89.8704 111.55 89.3953 111.852C88.9347 112.14 88.7043 112.572 88.7043 113.148ZM97.8664 113.58L99.27 112.781C99.63 113.501 100.055 114.026 100.544 114.357C101.048 114.674 101.602 114.832 102.207 114.832C102.869 114.832 103.423 114.689 103.87 114.401C104.316 114.098 104.539 113.659 104.539 113.083C104.539 112.536 104.273 112.148 103.74 111.917C103.222 111.672 102.624 111.456 101.948 111.269C101.761 111.212 101.573 111.154 101.386 111.097C101.199 111.039 101.012 110.981 100.825 110.924C100.638 110.852 100.451 110.78 100.263 110.708C100.091 110.636 99.9251 110.55 99.7667 110.449C99.6084 110.348 99.4572 110.24 99.3132 110.125C99.1693 110.01 99.0397 109.88 98.9245 109.736C98.8238 109.592 98.7302 109.441 98.6438 109.283C98.5574 109.11 98.4926 108.923 98.4494 108.721C98.4063 108.505 98.3847 108.275 98.3847 108.03C98.3847 107.742 98.4135 107.476 98.471 107.231C98.543 106.986 98.6366 106.763 98.7518 106.562C98.8813 106.346 99.0253 106.151 99.1837 105.979C99.3564 105.806 99.5436 105.655 99.7451 105.525C99.9611 105.381 100.191 105.266 100.436 105.18C100.681 105.079 100.933 105.007 101.192 104.964C101.466 104.92 101.746 104.899 102.034 104.899C103.013 104.899 103.848 105.151 104.539 105.655C105.245 106.159 105.806 106.799 106.224 107.577L104.863 108.354C104.489 107.663 104.078 107.152 103.632 106.821C103.186 106.475 102.675 106.303 102.099 106.303C101.595 106.303 101.149 106.439 100.76 106.713C100.386 106.972 100.199 107.368 100.199 107.901C100.199 108.476 100.451 108.894 100.954 109.153C101.473 109.412 102.063 109.635 102.725 109.822C102.912 109.88 103.1 109.938 103.287 109.995C103.488 110.053 103.683 110.118 103.87 110.19C104.057 110.247 104.237 110.312 104.41 110.384C104.597 110.456 104.77 110.542 104.928 110.643C105.101 110.729 105.259 110.83 105.403 110.945C105.547 111.061 105.676 111.19 105.792 111.334C105.907 111.464 106.008 111.615 106.094 111.788C106.18 111.946 106.245 112.126 106.288 112.327C106.332 112.529 106.353 112.752 106.353 112.997C106.353 113.256 106.324 113.501 106.267 113.731C106.209 113.961 106.13 114.177 106.029 114.379C105.928 114.581 105.799 114.768 105.64 114.94C105.497 115.113 105.331 115.272 105.144 115.416C104.971 115.545 104.77 115.667 104.539 115.783C104.323 115.883 104.093 115.97 103.848 116.042C103.603 116.114 103.344 116.164 103.071 116.193C102.812 116.236 102.545 116.258 102.272 116.258C101.149 116.258 100.235 116.013 99.5292 115.523C98.8238 115.02 98.2695 114.372 97.8664 113.58ZM117.391 116.085H115.577V109.11C115.577 108.203 115.339 107.519 114.864 107.058C114.403 106.583 113.82 106.346 113.115 106.346C112.438 106.346 111.87 106.583 111.409 107.058C110.948 107.519 110.718 108.203 110.718 109.11V116.085H108.904V100.969H110.718V106.648C111.035 106.072 111.459 105.64 111.992 105.352C112.525 105.05 113.115 104.899 113.763 104.899C114.799 104.899 115.663 105.244 116.354 105.935C117.045 106.626 117.391 107.598 117.391 108.851V116.085ZM125.696 116.085V100.969H130.749C132.131 100.969 133.247 101.307 134.096 101.984C134.946 102.66 135.371 103.639 135.371 104.92C135.371 105.755 135.176 106.461 134.787 107.037C134.399 107.598 133.873 108.016 133.211 108.289C134.032 108.563 134.68 109.002 135.155 109.607C135.63 110.211 135.867 110.989 135.867 111.939C135.867 113.278 135.428 114.307 134.55 115.027C133.672 115.732 132.506 116.085 131.052 116.085H125.696ZM130.749 102.545H127.618V107.598H130.749C131.512 107.598 132.153 107.389 132.671 106.972C133.204 106.554 133.47 105.921 133.47 105.072C133.47 104.208 133.204 103.574 132.671 103.171C132.153 102.754 131.512 102.545 130.749 102.545ZM131.03 109.11H127.618V114.53H131.03C131.851 114.53 132.542 114.307 133.103 113.861C133.665 113.414 133.945 112.731 133.945 111.809C133.945 110.902 133.665 110.226 133.103 109.779C132.542 109.333 131.851 109.11 131.03 109.11ZM141.591 116.258C140.554 116.258 139.726 115.977 139.107 115.416C138.488 114.84 138.179 114.134 138.179 113.299C138.179 112.263 138.553 111.464 139.302 110.902C140.05 110.326 141.073 109.988 142.368 109.887L144.981 109.671V108.656C144.981 107.879 144.758 107.303 144.312 106.929C143.88 106.554 143.333 106.367 142.671 106.367C142.095 106.367 141.548 106.511 141.029 106.799C140.525 107.087 140.101 107.584 139.755 108.289L138.33 107.555C138.704 106.778 139.259 106.137 139.993 105.633C140.727 105.129 141.656 104.877 142.779 104.877C143.916 104.877 144.873 105.208 145.651 105.871C146.428 106.518 146.817 107.447 146.817 108.656V116.085H144.981V114.487C144.65 115.034 144.182 115.466 143.578 115.783C142.987 116.099 142.325 116.258 141.591 116.258ZM139.95 113.148C139.95 113.738 140.166 114.17 140.597 114.444C141.029 114.717 141.533 114.854 142.109 114.854C142.325 114.854 142.534 114.832 142.735 114.789C142.937 114.746 143.131 114.689 143.318 114.617C143.506 114.545 143.686 114.451 143.858 114.336C144.031 114.221 144.182 114.091 144.312 113.947C144.456 113.789 144.571 113.623 144.657 113.45C144.758 113.278 144.837 113.09 144.895 112.889C144.952 112.673 144.981 112.45 144.981 112.22V111.075L142.757 111.269C141.821 111.356 141.116 111.55 140.641 111.852C140.18 112.14 139.95 112.572 139.95 113.148ZM152.135 116.085H150.321V100.969H152.135V116.085ZM158.335 116.258C157.299 116.258 156.471 115.977 155.852 115.416C155.233 114.84 154.923 114.134 154.923 113.299C154.923 112.263 155.298 111.464 156.046 110.902C156.795 110.326 157.817 109.988 159.113 109.887L161.726 109.671V108.656C161.726 107.879 161.502 107.303 161.056 106.929C160.624 106.554 160.077 106.367 159.415 106.367C158.839 106.367 158.292 106.511 157.774 106.799C157.27 107.087 156.845 107.584 156.5 108.289L155.074 107.555C155.449 106.778 156.003 106.137 156.737 105.633C157.471 105.129 158.4 104.877 159.523 104.877C160.66 104.877 161.618 105.208 162.395 105.871C163.172 106.518 163.561 107.447 163.561 108.656V116.085H161.726V114.487C161.394 115.034 160.927 115.466 160.322 115.783C159.732 116.099 159.069 116.258 158.335 116.258ZM156.694 113.148C156.694 113.738 156.91 114.17 157.342 114.444C157.774 114.717 158.278 114.854 158.853 114.854C159.069 114.854 159.278 114.832 159.48 114.789C159.681 114.746 159.876 114.689 160.063 114.617C160.25 114.545 160.43 114.451 160.603 114.336C160.775 114.221 160.927 114.091 161.056 113.947C161.2 113.789 161.315 113.623 161.402 113.45C161.502 113.278 161.582 113.09 161.639 112.889C161.697 112.673 161.726 112.45 161.726 112.22V111.075L159.501 111.269C158.566 111.356 157.86 111.55 157.385 111.852C156.924 112.14 156.694 112.572 156.694 113.148ZM175.595 116.085H173.781V109.11C173.781 108.203 173.544 107.519 173.069 107.058C172.608 106.583 172.025 106.346 171.32 106.346C170.643 106.346 170.074 106.583 169.614 107.058C169.153 107.519 168.923 108.203 168.923 109.11V116.085H167.109V105.072H168.923V106.648C169.239 106.072 169.664 105.64 170.197 105.352C170.729 105.05 171.32 104.899 171.967 104.899C173.004 104.899 173.868 105.244 174.559 105.935C175.25 106.626 175.595 107.598 175.595 108.851V116.085ZM185.867 112.306L187.508 112.673C187.235 113.71 186.717 114.566 185.953 115.243C185.19 115.919 184.24 116.258 183.103 116.258C182.772 116.258 182.448 116.222 182.131 116.15C181.815 116.092 181.512 115.999 181.224 115.869C180.951 115.739 180.684 115.581 180.425 115.394C180.181 115.207 179.95 114.991 179.734 114.746C179.533 114.501 179.346 114.235 179.173 113.947C179.014 113.645 178.878 113.321 178.762 112.975C178.647 112.615 178.554 112.241 178.482 111.852C178.424 111.449 178.395 111.025 178.395 110.578C178.395 110.132 178.424 109.715 178.482 109.326C178.554 108.923 178.647 108.548 178.762 108.203C178.878 107.843 179.014 107.519 179.173 107.231C179.346 106.929 179.533 106.655 179.734 106.411C179.95 106.166 180.181 105.95 180.425 105.763C180.684 105.576 180.951 105.417 181.224 105.288C181.512 105.158 181.815 105.064 182.131 105.007C182.448 104.935 182.772 104.899 183.103 104.899C184.269 104.899 185.226 105.237 185.975 105.914C186.738 106.59 187.264 107.447 187.552 108.484L185.889 108.851C185.615 108.073 185.248 107.469 184.787 107.037C184.341 106.59 183.787 106.367 183.125 106.367C182.275 106.367 181.577 106.727 181.03 107.447C180.483 108.152 180.209 109.196 180.209 110.578C180.209 111.946 180.483 112.99 181.03 113.71C181.577 114.415 182.275 114.768 183.125 114.768C183.787 114.768 184.341 114.552 184.787 114.12C185.248 113.688 185.608 113.083 185.867 112.306ZM197.177 112.932L198.624 113.45C198.307 114.199 197.789 114.854 197.069 115.416C196.349 115.977 195.442 116.258 194.348 116.258C193.945 116.258 193.556 116.215 193.182 116.128C192.822 116.042 192.476 115.919 192.145 115.761C191.814 115.603 191.504 115.401 191.217 115.156C190.943 114.912 190.698 114.638 190.482 114.336C190.266 114.019 190.079 113.666 189.921 113.278C189.762 112.889 189.64 112.471 189.554 112.025C189.482 111.564 189.446 111.075 189.446 110.557C189.446 110.11 189.475 109.686 189.532 109.283C189.604 108.88 189.698 108.505 189.813 108.16C189.928 107.814 190.065 107.497 190.223 107.21C190.396 106.907 190.583 106.634 190.785 106.389C191.001 106.144 191.231 105.928 191.476 105.741C191.735 105.554 192.001 105.403 192.275 105.288C192.563 105.158 192.858 105.064 193.16 105.007C193.477 104.935 193.801 104.899 194.132 104.899C195.485 104.899 196.594 105.396 197.457 106.389C198.321 107.382 198.753 108.757 198.753 110.514V111.01H191.238C191.296 112.306 191.612 113.256 192.188 113.861C192.764 114.465 193.484 114.768 194.348 114.768C194.996 114.768 195.55 114.609 196.011 114.293C196.471 113.976 196.86 113.522 197.177 112.932ZM194.11 106.324C193.376 106.324 192.743 106.59 192.21 107.123C191.692 107.641 191.375 108.476 191.26 109.628H196.982C196.853 108.476 196.522 107.641 195.989 107.123C195.471 106.59 194.844 106.324 194.11 106.324ZM207.029 110.686C207.029 112.327 207.317 113.983 207.893 115.653C208.469 117.309 209.44 118.892 210.808 120.404H208.886C207.461 118.863 206.475 117.244 205.928 115.545C205.381 113.846 205.107 112.227 205.107 110.686C205.107 109.146 205.381 107.526 205.928 105.827C206.475 104.129 207.461 102.509 208.886 100.969H210.808C209.44 102.48 208.469 104.071 207.893 105.741C207.317 107.397 207.029 109.045 207.029 110.686ZM212.602 116.085V100.969H217.655C219.037 100.969 220.153 101.307 221.003 101.984C221.852 102.66 222.277 103.639 222.277 104.92C222.277 105.755 222.082 106.461 221.694 107.037C221.305 107.598 220.779 108.016 220.117 108.289C220.938 108.563 221.586 109.002 222.061 109.607C222.536 110.211 222.773 110.989 222.773 111.939C222.773 113.278 222.334 114.307 221.456 115.027C220.578 115.732 219.412 116.085 217.958 116.085H212.602ZM217.655 102.545H214.524V107.598H217.655C218.418 107.598 219.059 107.389 219.577 106.972C220.11 106.554 220.376 105.921 220.376 105.072C220.376 104.208 220.11 103.574 219.577 103.171C219.059 102.754 218.418 102.545 217.655 102.545ZM217.936 109.11H214.524V114.53H217.936C218.757 114.53 219.448 114.307 220.009 113.861C220.571 113.414 220.851 112.731 220.851 111.809C220.851 110.902 220.571 110.226 220.009 109.779C219.448 109.333 218.757 109.11 217.936 109.11ZM234.263 116.085H232.449V114.509C232.132 115.084 231.707 115.523 231.175 115.826C230.642 116.114 230.052 116.258 229.404 116.258C228.367 116.258 227.504 115.912 226.813 115.221C226.122 114.53 225.776 113.558 225.776 112.306V105.072H227.59V112.047C227.59 112.939 227.82 113.623 228.281 114.098C228.742 114.559 229.325 114.789 230.03 114.789C230.707 114.789 231.276 114.559 231.736 114.098C232.211 113.623 232.449 112.939 232.449 112.047V105.072H234.263V116.085ZM241.468 116.258C240.23 116.258 239.194 115.761 238.359 114.768C237.538 113.774 237.128 112.371 237.128 110.557C237.128 108.757 237.538 107.368 238.359 106.389C239.194 105.396 240.23 104.899 241.468 104.899C242.26 104.899 242.944 105.086 243.52 105.46C244.096 105.835 244.549 106.375 244.88 107.08V100.969H246.694V116.085H244.88V114.033C244.549 114.739 244.096 115.286 243.52 115.675C242.944 116.063 242.26 116.258 241.468 116.258ZM241.9 114.746C242.764 114.746 243.476 114.401 244.038 113.71C244.599 113.004 244.88 111.953 244.88 110.557C244.88 109.16 244.599 108.117 244.038 107.425C243.476 106.734 242.764 106.389 241.9 106.389C241.036 106.389 240.324 106.734 239.762 107.425C239.215 108.117 238.942 109.16 238.942 110.557C238.942 111.953 239.215 113.004 239.762 113.71C240.324 114.401 241.036 114.746 241.9 114.746ZM253.953 116.193C253.593 116.193 253.248 116.157 252.917 116.085C252.585 115.999 252.276 115.876 251.988 115.718C251.7 115.545 251.427 115.344 251.167 115.113C250.923 114.868 250.7 114.595 250.498 114.293C250.311 113.976 250.145 113.63 250.001 113.256C249.857 112.867 249.749 112.45 249.677 112.004C249.605 111.557 249.569 111.075 249.569 110.557C249.569 110.038 249.605 109.556 249.677 109.11C249.749 108.664 249.857 108.246 250.001 107.857C250.145 107.469 250.311 107.123 250.498 106.821C250.7 106.504 250.923 106.231 251.167 106C251.427 105.755 251.7 105.554 251.988 105.396C252.276 105.223 252.585 105.1 252.917 105.028C253.248 104.942 253.593 104.899 253.953 104.899C254.731 104.899 255.4 105.086 255.961 105.46C256.537 105.835 256.991 106.375 257.322 107.08V105.072H259.136V116.301C259.136 116.632 259.1 116.949 259.028 117.251C258.97 117.553 258.884 117.834 258.769 118.093C258.654 118.352 258.51 118.59 258.337 118.806C258.178 119.036 257.991 119.238 257.775 119.411C257.574 119.598 257.351 119.756 257.106 119.886C256.861 120.03 256.602 120.145 256.329 120.231C256.055 120.332 255.767 120.404 255.465 120.447C255.162 120.49 254.853 120.512 254.536 120.512C253.5 120.512 252.578 120.289 251.772 119.842C250.98 119.411 250.397 118.842 250.023 118.136L251.34 117.143C251.7 117.762 252.146 118.23 252.679 118.547C253.226 118.863 253.831 119.022 254.493 119.022C255.27 119.022 255.933 118.799 256.48 118.352C257.041 117.906 257.322 117.15 257.322 116.085V114.012C256.991 114.717 256.537 115.257 255.961 115.631C255.4 116.006 254.731 116.193 253.953 116.193ZM254.363 114.724C255.227 114.724 255.933 114.379 256.48 113.688C257.041 112.983 257.322 111.939 257.322 110.557C257.322 109.146 257.041 108.095 256.48 107.404C255.933 106.713 255.227 106.367 254.363 106.367C253.5 106.367 252.787 106.713 252.226 107.404C251.678 108.095 251.405 109.146 251.405 110.557C251.405 111.939 251.678 112.983 252.226 113.688C252.787 114.379 253.5 114.724 254.363 114.724ZM269.743 112.932L271.189 113.45C270.873 114.199 270.354 114.854 269.635 115.416C268.915 115.977 268.008 116.258 266.914 116.258C266.511 116.258 266.122 116.215 265.748 116.128C265.388 116.042 265.042 115.919 264.711 115.761C264.38 115.603 264.07 115.401 263.782 115.156C263.509 114.912 263.264 114.638 263.048 114.336C262.832 114.019 262.645 113.666 262.487 113.278C262.328 112.889 262.206 112.471 262.12 112.025C262.048 111.564 262.012 111.075 262.012 110.557C262.012 110.11 262.04 109.686 262.098 109.283C262.17 108.88 262.264 108.505 262.379 108.16C262.494 107.814 262.631 107.497 262.789 107.21C262.962 106.907 263.149 106.634 263.351 106.389C263.566 106.144 263.797 105.928 264.042 105.741C264.301 105.554 264.567 105.403 264.841 105.288C265.129 105.158 265.424 105.064 265.726 105.007C266.043 104.935 266.367 104.899 266.698 104.899C268.051 104.899 269.16 105.396 270.023 106.389C270.887 107.382 271.319 108.757 271.319 110.514V111.01H263.804C263.862 112.306 264.178 113.256 264.754 113.861C265.33 114.465 266.05 114.768 266.914 114.768C267.562 114.768 268.116 114.609 268.576 114.293C269.037 113.976 269.426 113.522 269.743 112.932ZM266.676 106.324C265.942 106.324 265.308 106.59 264.776 107.123C264.258 107.641 263.941 108.476 263.826 109.628H269.548C269.419 108.476 269.088 107.641 268.555 107.123C268.037 106.59 267.41 106.324 266.676 106.324ZM280.031 114.401L280.16 115.847C279.93 115.977 279.62 116.078 279.232 116.15C278.843 116.222 278.461 116.258 278.087 116.258C277.195 116.258 276.503 116.02 276.014 115.545C275.525 115.056 275.28 114.415 275.28 113.623V106.54H272.753V105.072H275.28V102.005H277.094V105.072H280.117V106.54H277.094V113.321C277.094 113.767 277.216 114.12 277.461 114.379C277.706 114.624 278.044 114.746 278.476 114.746C278.749 114.746 279.008 114.717 279.253 114.66C279.498 114.588 279.757 114.501 280.031 114.401ZM284.129 110.708C284.129 109.067 283.841 107.418 283.265 105.763C282.689 104.093 281.717 102.502 280.349 100.99H282.271C283.697 102.531 284.683 104.15 285.23 105.849C285.777 107.548 286.05 109.167 286.05 110.708C286.05 112.248 285.777 113.868 285.23 115.567C284.683 117.265 283.697 118.885 282.271 120.426H280.349C281.717 118.914 282.689 117.33 283.265 115.675C283.841 114.005 284.129 112.349 284.129 110.708Z" fill="black" fill-opacity="0.9"/>
<path d="M335.881 114.715C339.412 114.715 342.274 111.853 342.274 108.323C342.274 104.792 339.412 101.93 335.881 101.93C332.35 101.93 329.488 104.792 329.488 108.323C329.488 111.853 332.35 114.715 335.881 114.715Z" fill="#00D639"/>
<path d="M364.694 111.183L366.443 111.636C365.997 113.234 365.277 114.408 364.284 115.156C363.305 115.891 362.211 116.258 361.001 116.258C359.216 116.258 357.798 115.581 356.747 114.228C355.711 112.86 355.192 110.96 355.192 108.527C355.192 106.094 355.711 104.201 356.747 102.847C357.798 101.48 359.209 100.796 360.98 100.796C362.189 100.796 363.29 101.17 364.284 101.919C365.277 102.653 365.99 103.834 366.422 105.46L364.672 105.935C364.341 104.813 363.866 103.949 363.247 103.344C362.628 102.725 361.865 102.415 360.958 102.415C359.85 102.415 358.928 102.912 358.194 103.906C357.474 104.884 357.114 106.425 357.114 108.527C357.114 110.629 357.481 112.176 358.216 113.17C358.95 114.149 359.871 114.638 360.98 114.638C361.887 114.638 362.65 114.343 363.269 113.753C363.888 113.148 364.363 112.291 364.694 111.183ZM371.905 116.258C370.869 116.258 370.041 115.977 369.422 115.416C368.803 114.84 368.493 114.134 368.493 113.299C368.493 112.263 368.867 111.464 369.616 110.902C370.365 110.326 371.387 109.988 372.682 109.887L375.295 109.671V108.656C375.295 107.879 375.072 107.303 374.626 106.929C374.194 106.554 373.647 106.367 372.985 106.367C372.409 106.367 371.862 106.511 371.344 106.799C370.84 107.087 370.415 107.584 370.07 108.289L368.644 107.555C369.019 106.778 369.573 106.137 370.307 105.633C371.041 105.129 371.97 104.877 373.093 104.877C374.23 104.877 375.187 105.208 375.965 105.871C376.742 106.518 377.131 107.447 377.131 108.656V116.085H375.295V114.487C374.964 115.034 374.496 115.466 373.892 115.783C373.302 116.099 372.639 116.258 371.905 116.258ZM370.264 113.148C370.264 113.738 370.48 114.17 370.912 114.444C371.344 114.717 371.847 114.854 372.423 114.854C372.639 114.854 372.848 114.832 373.05 114.789C373.251 114.746 373.446 114.689 373.633 114.617C373.82 114.545 374 114.451 374.173 114.336C374.345 114.221 374.496 114.091 374.626 113.947C374.77 113.789 374.885 113.623 374.972 113.45C375.072 113.278 375.151 113.09 375.209 112.889C375.267 112.673 375.295 112.45 375.295 112.22V111.075L373.071 111.269C372.135 111.356 371.43 111.55 370.955 111.852C370.494 112.14 370.264 112.572 370.264 113.148ZM379.426 113.58L380.83 112.781C381.19 113.501 381.614 114.026 382.104 114.357C382.608 114.674 383.162 114.832 383.766 114.832C384.429 114.832 384.983 114.689 385.429 114.401C385.876 114.098 386.099 113.659 386.099 113.083C386.099 112.536 385.832 112.148 385.3 111.917C384.781 111.672 384.184 111.456 383.507 111.269C383.32 111.212 383.133 111.154 382.946 111.097C382.759 111.039 382.572 110.981 382.384 110.924C382.197 110.852 382.01 110.78 381.823 110.708C381.65 110.636 381.485 110.55 381.326 110.449C381.168 110.348 381.017 110.24 380.873 110.125C380.729 110.01 380.599 109.88 380.484 109.736C380.383 109.592 380.29 109.441 380.203 109.283C380.117 109.11 380.052 108.923 380.009 108.721C379.966 108.505 379.944 108.275 379.944 108.03C379.944 107.742 379.973 107.476 380.031 107.231C380.103 106.986 380.196 106.763 380.311 106.562C380.441 106.346 380.585 106.151 380.743 105.979C380.916 105.806 381.103 105.655 381.305 105.525C381.521 105.381 381.751 105.266 381.996 105.18C382.24 105.079 382.492 105.007 382.752 104.964C383.025 104.92 383.306 104.899 383.594 104.899C384.573 104.899 385.408 105.151 386.099 105.655C386.804 106.159 387.366 106.799 387.783 107.577L386.423 108.354C386.048 107.663 385.638 107.152 385.192 106.821C384.745 106.475 384.234 106.303 383.659 106.303C383.155 106.303 382.708 106.439 382.32 106.713C381.945 106.972 381.758 107.368 381.758 107.901C381.758 108.476 382.01 108.894 382.514 109.153C383.032 109.412 383.623 109.635 384.285 109.822C384.472 109.88 384.659 109.938 384.846 109.995C385.048 110.053 385.242 110.118 385.429 110.19C385.616 110.247 385.796 110.312 385.969 110.384C386.156 110.456 386.329 110.542 386.487 110.643C386.66 110.729 386.819 110.83 386.963 110.945C387.106 111.061 387.236 111.19 387.351 111.334C387.466 111.464 387.567 111.615 387.654 111.788C387.74 111.946 387.805 112.126 387.848 112.327C387.891 112.529 387.913 112.752 387.913 112.997C387.913 113.256 387.884 113.501 387.826 113.731C387.769 113.961 387.69 114.177 387.589 114.379C387.488 114.581 387.358 114.768 387.2 114.94C387.056 115.113 386.891 115.272 386.703 115.416C386.531 115.545 386.329 115.667 386.099 115.783C385.883 115.883 385.652 115.97 385.408 116.042C385.163 116.114 384.904 116.164 384.63 116.193C384.371 116.236 384.105 116.258 383.831 116.258C382.708 116.258 381.794 116.013 381.089 115.523C380.383 115.02 379.829 114.372 379.426 113.58ZM398.95 116.085H397.136V109.11C397.136 108.203 396.899 107.519 396.424 107.058C395.963 106.583 395.38 106.346 394.675 106.346C393.998 106.346 393.429 106.583 392.969 107.058C392.508 107.519 392.278 108.203 392.278 109.11V116.085H390.464V100.969H392.278V106.648C392.594 106.072 393.019 105.64 393.552 105.352C394.084 105.05 394.675 104.899 395.322 104.899C396.359 104.899 397.223 105.244 397.914 105.935C398.605 106.626 398.95 107.598 398.95 108.851V116.085ZM415.483 116.085L414.231 112.22H408.508L407.256 116.085H405.312L410.387 100.969H412.438L417.513 116.085H415.483ZM409.005 110.665H413.734L411.38 103.301L409.005 110.665ZM426.156 112.306L427.797 112.673C427.524 113.71 427.006 114.566 426.243 115.243C425.48 115.919 424.529 116.258 423.392 116.258C423.061 116.258 422.737 116.222 422.42 116.15C422.104 116.092 421.801 115.999 421.513 115.869C421.24 115.739 420.974 115.581 420.714 115.394C420.47 115.207 420.239 114.991 420.023 114.746C419.822 114.501 419.635 114.235 419.462 113.947C419.304 113.645 419.167 113.321 419.052 112.975C418.936 112.615 418.843 112.241 418.771 111.852C418.713 111.449 418.685 111.025 418.685 110.578C418.685 110.132 418.713 109.715 418.771 109.326C418.843 108.923 418.936 108.548 419.052 108.203C419.167 107.843 419.304 107.519 419.462 107.231C419.635 106.929 419.822 106.655 420.023 106.411C420.239 106.166 420.47 105.95 420.714 105.763C420.974 105.576 421.24 105.417 421.513 105.288C421.801 105.158 422.104 105.064 422.42 105.007C422.737 104.935 423.061 104.899 423.392 104.899C424.558 104.899 425.516 105.237 426.264 105.914C427.027 106.59 427.553 107.447 427.841 108.484L426.178 108.851C425.904 108.073 425.537 107.469 425.077 107.037C424.63 106.59 424.076 106.367 423.414 106.367C422.564 106.367 421.866 106.727 421.319 107.447C420.772 108.152 420.498 109.196 420.498 110.578C420.498 111.946 420.772 112.99 421.319 113.71C421.866 114.415 422.564 114.768 423.414 114.768C424.076 114.768 424.63 114.552 425.077 114.12C425.537 113.688 425.897 113.083 426.156 112.306ZM436.324 114.401L436.453 115.847C436.223 115.977 435.914 116.078 435.525 116.15C435.136 116.222 434.755 116.258 434.38 116.258C433.488 116.258 432.797 116.02 432.307 115.545C431.818 115.056 431.573 114.415 431.573 113.623V106.54H429.046V105.072H431.573V102.005H433.387V105.072H436.41V106.54H433.387V113.321C433.387 113.767 433.509 114.12 433.754 114.379C433.999 114.624 434.337 114.746 434.769 114.746C435.043 114.746 435.302 114.717 435.546 114.66C435.791 114.588 436.05 114.501 436.324 114.401ZM447.095 116.085H445.281V114.509C444.964 115.084 444.539 115.523 444.007 115.826C443.474 116.114 442.884 116.258 442.236 116.258C441.199 116.258 440.335 115.912 439.644 115.221C438.953 114.53 438.608 113.558 438.608 112.306V105.072H440.422V112.047C440.422 112.939 440.652 113.623 441.113 114.098C441.574 114.559 442.157 114.789 442.862 114.789C443.539 114.789 444.107 114.559 444.568 114.098C445.043 113.623 445.281 112.939 445.281 112.047V105.072H447.095V116.085ZM453.328 116.258C452.292 116.258 451.464 115.977 450.845 115.416C450.226 114.84 449.916 114.134 449.916 113.299C449.916 112.263 450.291 111.464 451.039 110.902C451.788 110.326 452.81 109.988 454.106 109.887L456.719 109.671V108.656C456.719 107.879 456.495 107.303 456.049 106.929C455.617 106.554 455.07 106.367 454.408 106.367C453.832 106.367 453.285 106.511 452.767 106.799C452.263 107.087 451.838 107.584 451.493 108.289L450.067 107.555C450.442 106.778 450.996 106.137 451.73 105.633C452.464 105.129 453.393 104.877 454.516 104.877C455.653 104.877 456.611 105.208 457.388 105.871C458.165 106.518 458.554 107.447 458.554 108.656V116.085H456.719V114.487C456.387 115.034 455.92 115.466 455.315 115.783C454.725 116.099 454.062 116.258 453.328 116.258ZM451.687 113.148C451.687 113.738 451.903 114.17 452.335 114.444C452.767 114.717 453.271 114.854 453.846 114.854C454.062 114.854 454.271 114.832 454.473 114.789C454.674 114.746 454.869 114.689 455.056 114.617C455.243 114.545 455.423 114.451 455.596 114.336C455.768 114.221 455.92 114.091 456.049 113.947C456.193 113.789 456.308 113.623 456.395 113.45C456.495 113.278 456.575 113.09 456.632 112.889C456.69 112.673 456.719 112.45 456.719 112.22V111.075L454.494 111.269C453.559 111.356 452.853 111.55 452.378 111.852C451.917 112.14 451.687 112.572 451.687 113.148ZM463.872 116.085H462.058V100.969H463.872V116.085ZM472.835 110.686C472.835 112.327 473.123 113.983 473.699 115.653C474.275 117.309 475.247 118.892 476.614 120.404H474.692C473.267 118.863 472.281 117.244 471.734 115.545C471.187 113.846 470.913 112.227 470.913 110.686C470.913 109.146 471.187 107.526 471.734 105.827C472.281 104.129 473.267 102.509 474.692 100.969H476.614C475.247 102.48 474.275 104.071 473.699 105.741C473.123 107.397 472.835 109.045 472.835 110.686ZM478.409 116.085V100.969H483.462C484.844 100.969 485.96 101.307 486.809 101.984C487.658 102.66 488.083 103.639 488.083 104.92C488.083 105.755 487.889 106.461 487.5 107.037C487.111 107.598 486.586 108.016 485.924 108.289C486.744 108.563 487.392 109.002 487.867 109.607C488.342 110.211 488.58 110.989 488.58 111.939C488.58 113.278 488.141 114.307 487.262 115.027C486.384 115.732 485.218 116.085 483.764 116.085H478.409ZM483.462 102.545H480.331V107.598H483.462C484.225 107.598 484.865 107.389 485.384 106.972C485.916 106.554 486.183 105.921 486.183 105.072C486.183 104.208 485.916 103.574 485.384 103.171C484.865 102.754 484.225 102.545 483.462 102.545ZM483.743 109.11H480.331V114.53H483.743C484.563 114.53 485.254 114.307 485.816 113.861C486.377 113.414 486.658 112.731 486.658 111.809C486.658 110.902 486.377 110.226 485.816 109.779C485.254 109.333 484.563 109.11 483.743 109.11ZM500.069 116.085H498.255V114.509C497.938 115.084 497.514 115.523 496.981 115.826C496.448 116.114 495.858 116.258 495.21 116.258C494.174 116.258 493.31 115.912 492.619 115.221C491.928 114.53 491.582 113.558 491.582 112.306V105.072H493.396V112.047C493.396 112.939 493.627 113.623 494.087 114.098C494.548 114.559 495.131 114.789 495.837 114.789C496.513 114.789 497.082 114.559 497.543 114.098C498.018 113.623 498.255 112.939 498.255 112.047V105.072H500.069V116.085ZM507.275 116.258C506.036 116.258 505 115.761 504.165 114.768C503.344 113.774 502.934 112.371 502.934 110.557C502.934 108.757 503.344 107.368 504.165 106.389C505 105.396 506.036 104.899 507.275 104.899C508.066 104.899 508.75 105.086 509.326 105.46C509.902 105.835 510.355 106.375 510.687 107.08V100.969H512.5V116.085H510.687V114.033C510.355 114.739 509.902 115.286 509.326 115.675C508.75 116.063 508.066 116.258 507.275 116.258ZM507.706 114.746C508.57 114.746 509.283 114.401 509.844 113.71C510.406 113.004 510.687 111.953 510.687 110.557C510.687 109.16 510.406 108.117 509.844 107.425C509.283 106.734 508.57 106.389 507.706 106.389C506.843 106.389 506.13 106.734 505.569 107.425C505.021 108.117 504.748 109.16 504.748 110.557C504.748 111.953 505.021 113.004 505.569 113.71C506.13 114.401 506.843 114.746 507.706 114.746ZM519.76 116.193C519.4 116.193 519.054 116.157 518.723 116.085C518.392 115.999 518.082 115.876 517.794 115.718C517.506 115.545 517.233 115.344 516.974 115.113C516.729 114.868 516.506 114.595 516.304 114.293C516.117 113.976 515.952 113.63 515.808 113.256C515.664 112.867 515.556 112.45 515.484 112.004C515.412 111.557 515.376 111.075 515.376 110.557C515.376 110.038 515.412 109.556 515.484 109.11C515.556 108.664 515.664 108.246 515.808 107.857C515.952 107.469 516.117 107.123 516.304 106.821C516.506 106.504 516.729 106.231 516.974 106C517.233 105.755 517.506 105.554 517.794 105.396C518.082 105.223 518.392 105.1 518.723 105.028C519.054 104.942 519.4 104.899 519.76 104.899C520.537 104.899 521.206 105.086 521.768 105.46C522.344 105.835 522.797 106.375 523.128 107.08V105.072H524.942V116.301C524.942 116.632 524.906 116.949 524.834 117.251C524.777 117.553 524.69 117.834 524.575 118.093C524.46 118.352 524.316 118.59 524.143 118.806C523.985 119.036 523.798 119.238 523.582 119.411C523.38 119.598 523.157 119.756 522.912 119.886C522.668 120.03 522.408 120.145 522.135 120.231C521.861 120.332 521.573 120.404 521.271 120.447C520.969 120.49 520.659 120.512 520.343 120.512C519.306 120.512 518.385 120.289 517.578 119.842C516.787 119.411 516.204 118.842 515.829 118.136L517.147 117.143C517.506 117.762 517.953 118.23 518.485 118.547C519.032 118.863 519.637 119.022 520.299 119.022C521.077 119.022 521.739 118.799 522.286 118.352C522.848 117.906 523.128 117.15 523.128 116.085V114.012C522.797 114.717 522.344 115.257 521.768 115.631C521.206 116.006 520.537 116.193 519.76 116.193ZM520.17 114.724C521.034 114.724 521.739 114.379 522.286 113.688C522.848 112.983 523.128 111.939 523.128 110.557C523.128 109.146 522.848 108.095 522.286 107.404C521.739 106.713 521.034 106.367 520.17 106.367C519.306 106.367 518.593 106.713 518.032 107.404C517.485 108.095 517.211 109.146 517.211 110.557C517.211 111.939 517.485 112.983 518.032 113.688C518.593 114.379 519.306 114.724 520.17 114.724ZM535.549 112.932L536.996 113.45C536.679 114.199 536.161 114.854 535.441 115.416C534.721 115.977 533.814 116.258 532.72 116.258C532.317 116.258 531.928 116.215 531.554 116.128C531.194 116.042 530.849 115.919 530.517 115.761C530.186 115.603 529.877 115.401 529.589 115.156C529.315 114.912 529.071 114.638 528.855 114.336C528.639 114.019 528.451 113.666 528.293 113.278C528.135 112.889 528.012 112.471 527.926 112.025C527.854 111.564 527.818 111.075 527.818 110.557C527.818 110.11 527.847 109.686 527.904 109.283C527.976 108.88 528.07 108.505 528.185 108.16C528.3 107.814 528.437 107.497 528.595 107.21C528.768 106.907 528.955 106.634 529.157 106.389C529.373 106.144 529.603 105.928 529.848 105.741C530.107 105.554 530.373 105.403 530.647 105.288C530.935 105.158 531.23 105.064 531.532 105.007C531.849 104.935 532.173 104.899 532.504 104.899C533.857 104.899 534.966 105.396 535.83 106.389C536.693 107.382 537.125 108.757 537.125 110.514V111.01H529.61C529.668 112.306 529.985 113.256 530.561 113.861C531.136 114.465 531.856 114.768 532.72 114.768C533.368 114.768 533.922 114.609 534.383 114.293C534.844 113.976 535.232 113.522 535.549 112.932ZM532.483 106.324C531.748 106.324 531.115 106.59 530.582 107.123C530.064 107.641 529.747 108.476 529.632 109.628H535.355C535.225 108.476 534.894 107.641 534.361 107.123C533.843 106.59 533.217 106.324 532.483 106.324ZM545.837 114.401L545.967 115.847C545.736 115.977 545.427 116.078 545.038 116.15C544.649 116.222 544.268 116.258 543.893 116.258C543.001 116.258 542.31 116.02 541.82 115.545C541.331 115.056 541.086 114.415 541.086 113.623V106.54H538.56V105.072H541.086V102.005H542.9V105.072H545.923V106.54H542.9V113.321C542.9 113.767 543.022 114.12 543.267 114.379C543.512 114.624 543.85 114.746 544.282 114.746C544.556 114.746 544.815 114.717 545.06 114.66C545.304 114.588 545.563 114.501 545.837 114.401ZM549.935 110.708C549.935 109.067 549.647 107.418 549.071 105.763C548.495 104.093 547.524 102.502 546.156 100.99H548.078C549.503 102.531 550.489 104.15 551.036 105.849C551.583 107.548 551.857 109.167 551.857 110.708C551.857 112.248 551.583 113.868 551.036 115.567C550.489 117.265 549.503 118.885 548.078 120.426H546.156C547.524 118.914 548.495 117.33 549.071 115.675C549.647 114.005 549.935 112.349 549.935 110.708Z" fill="black" fill-opacity="0.9"/>
<path d="M64.1476 56.7665L70.0135 58.2153C69.3539 60.8067 68.1053 62.8562 66.2678 64.3639C64.4538 65.8716 62.1923 66.6255 59.4831 66.6255C58.6822 66.6255 57.9048 66.5548 57.1509 66.4134C56.4206 66.2721 55.7256 66.0601 55.066 65.7774C54.4064 65.4947 53.7821 65.1531 53.1932 64.7526C52.6278 64.3286 52.0977 63.8574 51.603 63.3391C51.1319 62.7973 50.696 62.1966 50.2956 61.537C49.9186 60.8538 49.6006 60.1235 49.3415 59.3461C49.0823 58.5687 48.8821 57.7324 48.7407 56.8372C48.5994 55.942 48.5287 54.9879 48.5287 53.9749C48.5287 52.9619 48.5994 52.0078 48.7407 51.1126C48.8821 50.2174 49.0823 49.3811 49.3415 48.6037C49.6006 47.8263 49.9186 47.1078 50.2956 46.4481C50.6725 45.765 51.0965 45.1642 51.5677 44.646C52.0388 44.1041 52.5571 43.633 53.1225 43.2325C53.7114 42.8084 54.3357 42.4551 54.9954 42.1724C55.655 41.8897 56.3499 41.6777 57.0802 41.5363C57.8105 41.395 58.5762 41.3243 59.3771 41.3243C62.1334 41.3243 64.4303 42.0781 66.2678 43.5858C68.1289 45.0936 69.3774 47.1431 70.0135 49.7345L64.1476 51.1479C63.7942 49.9936 63.2406 48.9688 62.4868 48.0736C61.7329 47.1549 60.6846 46.6955 59.3418 46.6955C58.0225 46.6955 56.9389 47.2962 56.0908 48.4977C55.2427 49.6756 54.8187 51.5013 54.8187 53.9749C54.8187 56.4485 55.2545 58.2742 56.1261 59.4521C57.0213 60.63 58.1286 61.2189 59.4478 61.2189C60.7199 61.2189 61.7329 60.7713 62.4868 59.8761C63.2406 58.9574 63.7942 57.9208 64.1476 56.7665ZM77.7454 66.6255C75.9785 66.6255 74.5768 66.1425 73.5403 65.1767C72.5037 64.2108 71.9855 62.9858 71.9855 61.5016C71.9855 59.8761 72.6098 58.5687 73.8583 57.5792C75.1069 56.5898 76.8266 56.0126 79.0175 55.8477L83.3993 55.565V54.4343C83.3993 53.6568 83.1519 53.0561 82.6572 52.6321C82.1625 52.1845 81.5146 51.9607 80.7137 51.9607C79.9127 51.9607 79.1824 52.1609 78.5228 52.5614C77.8867 52.9383 77.2271 53.598 76.5439 54.5403L72.0208 52.2434C72.8689 50.9477 74.035 49.8169 75.5192 48.851C77.0033 47.8852 78.935 47.4022 81.3144 47.4022C83.7409 47.4022 85.6844 48.0383 87.145 49.3104C88.6056 50.5825 89.3359 52.3376 89.3359 54.5756V66.3428H83.3993V63.7278C82.8574 64.623 82.0918 65.3298 81.1024 65.8481C80.1129 66.3663 78.9939 66.6255 77.7454 66.6255ZM77.6747 60.9362C77.6747 61.5487 77.8985 62.0081 78.3461 62.3144C78.7937 62.6206 79.3709 62.7738 80.0776 62.7738C80.9492 62.7738 81.7149 62.5028 82.3745 61.961C83.0577 61.4192 83.3993 60.6653 83.3993 59.6994V58.7454L80.3603 58.9927C79.4887 59.0634 78.8173 59.2636 78.3461 59.5934C77.8985 59.8997 77.6747 60.3473 77.6747 60.9362ZM91.569 63.2331L94.9613 59.8761C95.7152 60.7478 96.5161 61.4074 97.3642 61.855C98.2359 62.3026 99.1193 62.5264 100.014 62.5264C100.863 62.5264 101.487 62.385 101.887 62.1024C102.311 61.7961 102.523 61.4192 102.523 60.9716C102.523 60.4533 102.17 60.0882 101.463 59.8761C100.78 59.6406 99.9556 59.4168 98.9897 59.2047C98.707 59.1341 98.4125 59.0634 98.1063 58.9927C97.8 58.922 97.4938 58.8514 97.1875 58.7807C96.9048 58.6865 96.6104 58.5922 96.3041 58.498C96.0214 58.3802 95.7387 58.2506 95.456 58.1093C95.1733 57.9679 94.9024 57.8148 94.6433 57.6499C94.3841 57.485 94.1486 57.3083 93.9365 57.1199C93.7245 56.9078 93.5243 56.684 93.3358 56.4485C93.1709 56.1893 93.0178 55.9066 92.8764 55.6004C92.7587 55.2941 92.6644 54.9643 92.5937 54.6109C92.5231 54.2576 92.4877 53.8689 92.4877 53.4448C92.4877 51.6073 93.2063 50.1467 94.6433 49.0631C96.0803 47.9558 97.9649 47.4022 100.297 47.4022C101.993 47.4022 103.572 47.7556 105.032 48.4623C106.493 49.1455 107.635 49.9936 108.46 51.0066L104.997 54.0809C104.22 53.2799 103.442 52.6792 102.665 52.2787C101.887 51.8782 101.133 51.678 100.403 51.678C99.8142 51.678 99.3431 51.7958 98.9897 52.0314C98.6363 52.2669 98.4597 52.5967 98.4597 53.0208C98.4597 53.5391 98.7895 53.9278 99.4491 54.1869C100.132 54.4225 100.945 54.6581 101.887 54.8936C102.17 54.9643 102.453 55.035 102.735 55.1057C103.042 55.1763 103.348 55.2588 103.654 55.353C103.96 55.4237 104.255 55.5179 104.538 55.6357C104.844 55.7299 105.138 55.8477 105.421 55.9891C105.704 56.1069 105.963 56.2482 106.198 56.4131C106.458 56.578 106.693 56.7547 106.905 56.9432C107.141 57.1316 107.341 57.3554 107.506 57.6146C107.694 57.8502 107.847 58.1093 107.965 58.392C108.107 58.6747 108.213 58.9927 108.283 59.3461C108.354 59.6759 108.389 60.041 108.389 60.4415C108.389 62.3733 107.612 63.8928 106.057 65C104.526 66.0836 102.523 66.6255 100.05 66.6255C99.4373 66.6255 98.8484 66.5901 98.283 66.5195C97.7176 66.4488 97.1758 66.3546 96.6575 66.2368C96.1628 66.0954 95.6916 65.9423 95.244 65.7774C94.82 65.5889 94.4195 65.4005 94.0426 65.212C93.6656 65 93.3123 64.788 92.9825 64.5759C92.6762 64.3404 92.4053 64.1166 92.1697 63.9045C91.9341 63.669 91.7339 63.4452 91.569 63.2331ZM128.42 66.3428H122.342V54.9643C122.342 53.9984 122.095 53.2681 121.6 52.7734C121.129 52.2787 120.517 52.0314 119.763 52.0314C119.056 52.0314 118.455 52.2787 117.961 52.7734C117.466 53.2681 117.219 53.9984 117.219 54.9643V66.3428H111.141V41.607H117.219V50.4059C117.737 49.4164 118.444 48.6744 119.339 48.1796C120.258 47.6614 121.259 47.4022 122.342 47.4022C124.18 47.4022 125.652 47.9676 126.76 49.0984C127.867 50.2292 128.42 51.8311 128.42 53.9042V66.3428ZM139.789 66.3428V41.607H150.566C153.111 41.607 155.148 42.2195 156.68 43.4445C158.234 44.646 159.012 46.2714 159.012 48.321C159.012 49.6638 158.67 50.8063 157.987 51.7487C157.327 52.6674 156.409 53.3624 155.231 53.8335C156.621 54.2811 157.704 54.9761 158.482 55.9184C159.283 56.8607 159.683 58.0622 159.683 59.5228C159.683 61.5959 158.882 63.2567 157.28 64.5053C155.702 65.7303 153.617 66.3428 151.026 66.3428H139.789ZM150.072 46.6955H146.079V51.6073H150.072C150.873 51.6073 151.544 51.4071 152.086 51.0066C152.628 50.5825 152.899 49.9583 152.899 49.1337C152.899 48.3328 152.628 47.732 152.086 47.3316C151.544 46.9075 150.873 46.6955 150.072 46.6955ZM150.531 56.2718H146.079V61.3603H150.531C151.379 61.3603 152.074 61.1483 152.616 60.7242C153.158 60.3002 153.429 59.6641 153.429 58.816C153.429 57.9679 153.158 57.3319 152.616 56.9078C152.074 56.4838 151.379 56.2718 150.531 56.2718ZM167.571 66.6255C165.805 66.6255 164.403 66.1425 163.366 65.1767C162.33 64.2108 161.811 62.9858 161.811 61.5016C161.811 59.8761 162.436 58.5687 163.684 57.5792C164.933 56.5898 166.653 56.0126 168.843 55.8477L173.225 55.565V54.4343C173.225 53.6568 172.978 53.0561 172.483 52.6321C171.988 52.1845 171.341 51.9607 170.54 51.9607C169.739 51.9607 169.008 52.1609 168.349 52.5614C167.713 52.9383 167.053 53.598 166.37 54.5403L161.847 52.2434C162.695 50.9477 163.861 49.8169 165.345 48.851C166.829 47.8852 168.761 47.4022 171.14 47.4022C173.567 47.4022 175.51 48.0383 176.971 49.3104C178.432 50.5825 179.162 52.3376 179.162 54.5756V66.3428H173.225V63.7278C172.683 64.623 171.918 65.3298 170.928 65.8481C169.939 66.3663 168.82 66.6255 167.571 66.6255ZM167.501 60.9362C167.501 61.5487 167.724 62.0081 168.172 62.3144C168.62 62.6206 169.197 62.7738 169.904 62.7738C170.775 62.7738 171.541 62.5028 172.2 61.961C172.884 61.4192 173.225 60.6653 173.225 59.6994V58.7454L170.186 58.9927C169.315 59.0634 168.643 59.2636 168.172 59.5934C167.724 59.8997 167.501 60.3473 167.501 60.9362ZM189.098 66.3428H183.02V41.607H189.098V66.3428ZM197.835 66.6255C196.069 66.6255 194.667 66.1425 193.63 65.1767C192.594 64.2108 192.076 62.9858 192.076 61.5016C192.076 59.8761 192.7 58.5687 193.948 57.5792C195.197 56.5898 196.917 56.0126 199.108 55.8477L203.489 55.565V54.4343C203.489 53.6568 203.242 53.0561 202.747 52.6321C202.253 52.1845 201.605 51.9607 200.804 51.9607C200.003 51.9607 199.272 52.1609 198.613 52.5614C197.977 52.9383 197.317 53.598 196.634 54.5403L192.111 52.2434C192.959 50.9477 194.125 49.8169 195.609 48.851C197.093 47.8852 199.025 47.4022 201.404 47.4022C203.831 47.4022 205.774 48.0383 207.235 49.3104C208.696 50.5825 209.426 52.3376 209.426 54.5756V66.3428H203.489V63.7278C202.947 64.623 202.182 65.3298 201.192 65.8481C200.203 66.3663 199.084 66.6255 197.835 66.6255ZM197.765 60.9362C197.765 61.5487 197.989 62.0081 198.436 62.3144C198.884 62.6206 199.461 62.7738 200.168 62.7738C201.039 62.7738 201.805 62.5028 202.465 61.961C203.148 61.4192 203.489 60.6653 203.489 59.6994V58.7454L200.45 58.9927C199.579 59.0634 198.907 59.2636 198.436 59.5934C197.989 59.8997 197.765 60.3473 197.765 60.9362ZM213.355 47.6849H219.433V50.4059C219.951 49.4164 220.658 48.6744 221.553 48.1796C222.472 47.6614 223.473 47.4022 224.557 47.4022C226.371 47.4022 227.832 47.9676 228.939 49.0984C230.07 50.2292 230.635 51.8311 230.635 53.9042V66.3428H224.557V54.9643C224.557 53.9984 224.31 53.2681 223.815 52.7734C223.344 52.2787 222.731 52.0314 221.977 52.0314C221.271 52.0314 220.67 52.2787 220.175 52.7734C219.681 53.2681 219.433 53.9984 219.433 54.9643V66.3428H213.355V47.6849ZM246.028 58.6393L251.541 59.4168C251.47 59.8879 251.352 60.3591 251.187 60.8302C251.046 61.3014 250.857 61.749 250.622 62.173C250.41 62.5971 250.151 63.0093 249.844 63.4098C249.562 63.7867 249.232 64.1401 248.855 64.4699C248.502 64.7997 248.113 65.0942 247.689 65.3533C247.265 65.6125 246.794 65.8363 246.275 66.0247C245.781 66.2132 245.239 66.3546 244.65 66.4488C244.084 66.5666 243.472 66.6255 242.812 66.6255C242.153 66.6255 241.517 66.5666 240.904 66.4488C240.315 66.3546 239.738 66.2014 239.173 65.9894C238.631 65.7774 238.113 65.5182 237.618 65.212C237.147 64.8822 236.711 64.517 236.31 64.1166C235.91 63.6925 235.545 63.2331 235.215 62.7384C234.885 62.2437 234.602 61.7019 234.367 61.1129C234.155 60.5004 233.99 59.8526 233.872 59.1694C233.754 58.4862 233.695 57.7677 233.695 57.0138C233.695 56.26 233.754 55.5415 233.872 54.8583C233.99 54.1751 234.155 53.5391 234.367 52.9501C234.602 52.3376 234.885 51.784 235.215 51.2893C235.545 50.771 235.91 50.3116 236.31 49.9111C236.711 49.4871 237.147 49.122 237.618 48.8157C238.113 48.4859 238.631 48.215 239.173 48.003C239.738 47.7909 240.315 47.6378 240.904 47.5436C241.517 47.4258 242.153 47.3669 242.812 47.3669C243.472 47.3669 244.084 47.4258 244.65 47.5436C245.239 47.6378 245.781 47.7792 246.275 47.9676C246.794 48.1325 247.265 48.3563 247.689 48.639C248.136 48.8982 248.537 49.1926 248.89 49.5224C249.244 49.8522 249.562 50.2174 249.844 50.6179C250.151 50.9948 250.41 51.3953 250.622 51.8193C250.834 52.2434 251.01 52.691 251.152 53.1621C251.293 53.6097 251.399 54.0691 251.47 54.5403L245.993 55.2823C245.71 54.2222 245.309 53.433 244.791 52.9148C244.296 52.3729 243.672 52.102 242.918 52.102C241.952 52.102 241.175 52.5143 240.586 53.3388C240.021 54.1633 239.738 55.3884 239.738 57.0138C239.738 58.6158 240.021 59.829 240.586 60.6535C241.175 61.4781 241.952 61.8903 242.918 61.8903C243.672 61.8903 244.308 61.6194 244.827 61.0776C245.345 60.5358 245.745 59.723 246.028 58.6393ZM266.119 60.1588L271.279 61.2543C271.137 61.5841 270.984 61.9139 270.819 62.2437C270.654 62.55 270.454 62.8562 270.219 63.1625C270.007 63.4687 269.759 63.775 269.476 64.0812C269.217 64.3639 268.923 64.6348 268.593 64.894C268.263 65.1531 267.898 65.3887 267.498 65.6007C267.121 65.8127 266.697 66.0012 266.225 66.1661C265.754 66.3074 265.248 66.4134 264.706 66.4841C264.188 66.5784 263.622 66.6255 263.01 66.6255C262.327 66.6255 261.667 66.5666 261.031 66.4488C260.395 66.3546 259.782 66.2014 259.193 65.9894C258.628 65.7538 258.086 65.4829 257.568 65.1767C257.073 64.8468 256.602 64.4817 256.154 64.0812C255.73 63.6572 255.353 63.1978 255.024 62.7031C254.694 62.1848 254.411 61.6312 254.176 61.0422C253.94 60.4533 253.763 59.8172 253.646 59.1341C253.528 58.4509 253.469 57.7324 253.469 56.9785C253.469 56.2247 253.528 55.5179 253.646 54.8583C253.763 54.1751 253.94 53.5391 254.176 52.9501C254.411 52.3612 254.694 51.8193 255.024 51.3246C255.353 50.8063 255.719 50.347 256.119 49.9465C256.543 49.5224 257.003 49.1573 257.497 48.851C257.992 48.5448 258.51 48.2856 259.052 48.0736C259.617 47.838 260.195 47.6731 260.784 47.5789C261.396 47.4611 262.032 47.4022 262.692 47.4022C263.328 47.4022 263.94 47.4611 264.529 47.5789C265.142 47.6967 265.707 47.8616 266.225 48.0736C266.767 48.2856 267.274 48.5566 267.745 48.8864C268.216 49.1926 268.652 49.5578 269.052 49.9818C269.453 50.4059 269.806 50.877 270.113 51.3953C270.419 51.89 270.678 52.4318 270.89 53.0208C271.102 53.6097 271.267 54.2458 271.385 54.929C271.502 55.5886 271.561 56.2953 271.561 57.0492V58.392H259.264C259.429 59.7348 259.853 60.7242 260.536 61.3603C261.219 61.9728 262.079 62.279 263.116 62.279C263.728 62.279 264.282 62.1024 264.777 61.749C265.295 61.3721 265.743 60.842 266.119 60.1588ZM262.621 51.7487C261.844 51.7487 261.161 51.996 260.572 52.4907C259.983 52.9854 259.582 53.8218 259.37 54.9996H265.907C265.719 53.8218 265.318 52.9854 264.706 52.4907C264.117 51.996 263.422 51.7487 262.621 51.7487Z" fill="black"/>
</g>
<defs>
<clipPath id="clip0_1093_29570">
<rect width="746" height="471.158" fill="white"/>
</clipPath>
</defs>
</svg>
