<svg width="40" height="40" viewBox="0 0 40 40" fill="none" xmlns="http://www.w3.org/2000/svg">
<g clip-path="url(#clip0_1116_30920)">
<path d="M34.6667 40H5.33333C2.38802 39.9974 0.00260417 37.612 0 34.6667V13.3333C0.00260417 11.125 1.79167 9.33594 4 9.33333H12V8C12 7.26302 12.5964 6.66667 13.3333 6.66667C14.0703 6.66667 14.6667 7.26302 14.6667 8V9.33333H32C32.737 9.33333 33.3333 9.92969 33.3333 10.6667C33.3333 11.4036 32.737 12 32 12H14.6667V13.3333C14.6667 14.0703 14.0703 14.6667 13.3333 14.6667C12.5964 14.6667 12 14.0703 12 13.3333V12H4C3.26302 12 2.66667 12.5964 2.66667 13.3333V34.6667C2.66927 36.138 3.86198 37.3307 5.33333 37.3333H34.6667C36.138 37.3307 37.3307 36.138 37.3333 34.6667V5.33333C37.3307 3.86198 36.138 2.66927 34.6667 2.66667H5.33333C3.86198 2.66927 2.66927 3.86198 2.66667 5.33333V6.66667C2.66667 7.40365 2.07031 8 1.33333 8C0.596354 8 0 7.40365 0 6.66667V5.33333C0.00260417 2.38802 2.38802 0.00260417 5.33333 0H34.6667C37.612 0.00260417 39.9974 2.38802 40 5.33333V34.6667C39.9974 37.612 37.612 39.9974 34.6667 40ZM20 33.3333C19.6458 33.3333 19.3073 33.1927 19.0573 32.9427C18.8073 32.6927 18.6667 32.3542 18.6667 32V30.6667H8C7.26302 30.6667 6.66667 30.0703 6.66667 29.3333C6.66667 28.5964 7.26302 28 8 28H18.6667V26.6667C18.6667 25.9297 19.263 25.3333 20 25.3333C20.737 25.3333 21.3333 25.9297 21.3333 26.6667V28H32C32.737 28 33.3333 28.5964 33.3333 29.3333C33.3333 30.0703 32.737 30.6667 32 30.6667H21.3333V32C21.3333 32.3542 21.1927 32.6927 20.9427 32.9427C20.6927 33.1927 20.3542 33.3333 20 33.3333ZM26.6667 24C26.3125 24 25.974 23.8594 25.724 23.6094C25.474 23.3594 25.3333 23.0208 25.3333 22.6667V21.3333H8C7.26302 21.3333 6.66667 20.737 6.66667 20C6.66667 19.263 7.26302 18.6667 8 18.6667H25.3333V17.3333C25.3333 16.5964 25.9297 16 26.6667 16C27.4036 16 28 16.5964 28 17.3333V18.6667H32C32.737 18.6667 33.3333 19.263 33.3333 20C33.3333 20.737 32.737 21.3333 32 21.3333H28V22.6667C28 23.0208 27.8594 23.3594 27.6094 23.6094C27.3594 23.8594 27.0208 24 26.6667 24Z" fill="#F0F0F0"/>
</g>
<defs>
<clipPath id="clip0_1116_30920">
<rect width="40" height="40" fill="white"/>
</clipPath>
</defs>
</svg>
