<svg width="40" height="40" viewBox="0 0 40 40" fill="none" xmlns="http://www.w3.org/2000/svg">
<g clip-path="url(#clip0_1116_30921)">
<path d="M34.6667 40H12.987C11 40 9.29427 38.5208 9.02604 36.5599C8.34635 31.6406 8 28.7604 8 28C8 25.9323 8.59896 25.3333 10.6667 25.3333C11.6536 25.3333 12.5599 25.7474 13.3333 26.3854V18.6667H9.33333C7.86719 18.6667 6.66667 17.4661 6.66667 16V9.33333C6.66667 7.86719 7.86719 6.66667 9.33333 6.66667H30.6667C32.1328 6.66667 33.3333 7.86719 33.3333 9.33333V16C33.3333 17.4661 32.1328 18.6667 30.6667 18.6667H24C23.2656 18.6667 22.6667 18.0677 22.6667 17.3333C22.6667 16.599 23.2656 16 24 16H30.6667V9.33333H9.33333V16H13.3333V14.6667C13.3333 12.8255 14.8255 11.3333 16.6667 11.3333C18.5078 11.3333 20 12.8255 20 14.6667V21.8411L27.7188 25.6927C29.5339 26.599 30.6667 28.4271 30.6667 30.4661V32C30.6667 32.7344 30.0677 33.3333 29.3333 33.3333C28.599 33.3333 28 32.7344 28 32V30.4661C28 29.4531 27.4401 28.5339 26.5208 28.0807L18.7995 24.2266C17.8932 23.7734 17.3333 22.8672 17.3333 21.8411V14.6667C17.3333 14.2943 17.0391 14 16.6667 14C16.2943 14 16 14.2943 16 14.6667V32C16 32.7344 15.401 33.3333 14.6667 33.3333C13.9323 33.3333 13.3333 32.7344 13.3333 32C13.3333 30.3203 11.7865 28 10.6667 28C10.6667 28.2266 10.7344 29.4792 11.6667 36.1875C11.7604 36.8411 12.3203 37.3333 12.987 37.3333H34.6667C36.1328 37.3333 37.3333 36.1328 37.3333 34.6667V5.33333C37.3333 3.86719 36.1328 2.66667 34.6667 2.66667H5.33333C3.86719 2.66667 2.66667 3.86719 2.66667 5.33333V34.6667C2.66667 36.1328 3.86719 37.3333 5.33333 37.3333H6.66667C7.40104 37.3333 8 37.9323 8 38.6667C8 39.401 7.40104 40 6.66667 40H5.33333C2.38542 40 0 37.6146 0 34.6667V5.33333C0 2.38542 2.38542 0 5.33333 0H34.6667C37.6146 0 40 2.38542 40 5.33333V34.6667C40 37.6146 37.6146 40 34.6667 40Z" fill="#F0F0F0"/>
</g>
<defs>
<clipPath id="clip0_1116_30921">
<rect width="40" height="40" fill="white"/>
</clipPath>
</defs>
</svg>
