<svg width="684" height="54" viewBox="0 0 684 54" fill="none" xmlns="http://www.w3.org/2000/svg">
<path d="M113.75 18.7031H117.234C117.363 18.8296 117.437 19.0034 117.437 19.1817V33.9891C117.437 34.19 117.188 34.2916 117.043 34.1494L113.953 31.1197C113.824 30.9933 113.75 30.8217 113.75 30.6411V18.7031Z" fill="url(#paint0_linear_1093_28087)"/>
<path d="M122.968 18.7031V26.126V30.6411C122.968 30.8217 122.895 30.9933 122.766 31.1197L119.675 34.1471C119.53 34.2893 119.286 34.19 119.281 33.9913V19.1772C119.284 19.0011 119.355 18.8318 119.482 18.7076L119.484 18.7054H122.968V18.7031Z" fill="url(#paint1_linear_1093_28087)"/>
<path d="M128.73 27.2536L125.734 23.8672H125.368C125.308 23.8672 125.25 23.8898 125.206 23.9327C125.206 23.9327 125.206 23.9327 125.204 23.935L122.969 26.1248L130.14 33.1503C130.14 33.1503 130.142 33.1525 130.145 33.1525C130.274 33.2767 130.449 33.3467 130.631 33.3467H134.396C134.601 33.3467 134.705 33.1029 134.56 32.9606L128.73 27.2536Z" fill="url(#paint2_linear_1093_28087)"/>
<path d="M128.5 18.6719V24.09L131.984 24.0629C132.113 23.9365 132.187 23.7627 132.187 23.5843V19.1776C132.187 18.997 132.113 18.8254 131.984 18.699L128.5 18.6719Z" fill="url(#paint3_linear_1093_28087)"/>
<path d="M113.952 15.488C113.823 15.3615 113.645 15.2893 113.463 15.2893H104.856C104.651 15.2893 104.548 15.5331 104.693 15.6753L107.783 18.7027C107.912 18.8292 108.089 18.9014 108.271 18.9014H113.749H116.975C117.229 18.9014 117.436 19.1046 117.436 19.3529V19.1813C117.436 19.0007 117.362 18.8292 117.233 18.7027L113.952 15.488Z" fill="url(#paint4_linear_1093_28087)"/>
<path d="M122.766 15.4877C122.895 15.3613 123.072 15.2891 123.254 15.2891H128.211C128.395 15.2891 128.57 15.3613 128.699 15.4877L131.981 18.7025C132.11 18.8289 132.184 19.0028 132.184 19.1811V19.3527C132.184 19.1043 131.976 18.9012 131.723 18.9012H128.497H122.968H119.742C119.489 18.9012 119.281 19.1043 119.281 19.3527V19.1811C119.281 19.0005 119.355 18.8289 119.484 18.7025L122.766 15.4877Z" fill="url(#paint5_linear_1093_28087)"/>
<path d="M132.187 23.4141C132.187 23.6624 131.98 23.8656 131.727 23.8656H128.961H125.553C125.449 23.8656 125.399 23.9875 125.472 24.0575L128.731 27.2519L131.985 24.0642C132.114 23.9378 132.187 23.764 132.187 23.5856V23.4141Z" fill="url(#paint6_linear_1093_28087)"/>
<path d="M141.848 20.1H148.328C148.376 20.1 148.416 20.116 148.448 20.148C148.48 20.172 148.496 20.204 148.496 20.244V21.18C148.496 21.22 148.48 21.256 148.448 21.288C148.416 21.32 148.376 21.336 148.328 21.336H145.832V28.32C145.832 28.376 145.816 28.42 145.784 28.452C145.76 28.484 145.716 28.5 145.652 28.5H144.536C144.48 28.5 144.432 28.484 144.392 28.452C144.36 28.42 144.344 28.376 144.344 28.32V21.336H141.848C141.8 21.336 141.76 21.32 141.728 21.288C141.704 21.256 141.692 21.22 141.692 21.18V20.244C141.692 20.204 141.704 20.172 141.728 20.148C141.76 20.116 141.8 20.1 141.848 20.1ZM148.954 28.5C148.89 28.5 148.846 28.484 148.822 28.452C148.798 28.42 148.786 28.38 148.786 28.332V22.452C148.786 22.412 148.798 22.376 148.822 22.344C148.846 22.312 148.89 22.296 148.954 22.296H150.022C150.078 22.296 150.122 22.312 150.154 22.344C150.186 22.376 150.202 22.412 150.202 22.452V23.496C150.378 23.048 150.638 22.716 150.982 22.5C151.326 22.284 151.686 22.176 152.062 22.176C152.118 22.176 152.174 22.184 152.23 22.2C152.286 22.208 152.342 22.216 152.398 22.224C152.454 22.232 152.494 22.248 152.518 22.272C152.55 22.296 152.562 22.332 152.554 22.38L152.506 23.364C152.498 23.428 152.478 23.472 152.446 23.496C152.414 23.512 152.378 23.516 152.338 23.508C152.242 23.5 152.15 23.492 152.062 23.484C151.982 23.468 151.906 23.46 151.834 23.46C151.37 23.46 150.982 23.628 150.67 23.964C150.358 24.292 150.202 24.744 150.202 25.32V28.332C150.202 28.38 150.186 28.42 150.154 28.452C150.122 28.484 150.078 28.5 150.022 28.5H148.954ZM157.323 26.16V22.464C157.323 22.416 157.335 22.376 157.359 22.344C157.391 22.312 157.435 22.296 157.491 22.296H158.571C158.627 22.296 158.667 22.312 158.691 22.344C158.723 22.376 158.739 22.416 158.739 22.464V28.332C158.739 28.38 158.723 28.42 158.691 28.452C158.667 28.484 158.627 28.5 158.571 28.5H157.491C157.435 28.5 157.391 28.484 157.359 28.452C157.335 28.42 157.323 28.38 157.323 28.332V27.6C157.147 27.92 156.907 28.168 156.603 28.344C156.307 28.512 155.975 28.596 155.607 28.596C155.023 28.596 154.539 28.404 154.155 28.02C153.771 27.636 153.579 27.096 153.579 26.4V22.464C153.579 22.416 153.595 22.376 153.627 22.344C153.659 22.312 153.703 22.296 153.759 22.296H154.827C154.891 22.296 154.935 22.312 154.959 22.344C154.983 22.376 154.995 22.416 154.995 22.464V26.16C154.995 26.592 155.103 26.92 155.319 27.144C155.535 27.368 155.811 27.48 156.147 27.48C156.483 27.48 156.763 27.368 156.987 27.144C157.211 26.92 157.323 26.592 157.323 26.16ZM162.366 22.2C162.902 22.2 163.382 22.324 163.806 22.572C164.238 22.82 164.566 23.128 164.79 23.496C164.814 23.528 164.822 23.568 164.814 23.616C164.806 23.656 164.782 23.692 164.742 23.724L164.07 24.192C164.038 24.216 164.002 24.224 163.962 24.216C163.93 24.208 163.898 24.184 163.866 24.144C163.658 23.84 163.43 23.612 163.182 23.46C162.942 23.308 162.682 23.232 162.402 23.232C162.154 23.232 161.942 23.296 161.766 23.424C161.598 23.544 161.514 23.724 161.514 23.964C161.514 24.22 161.642 24.408 161.898 24.528C162.154 24.648 162.454 24.756 162.798 24.852C162.894 24.876 162.99 24.904 163.086 24.936C163.19 24.96 163.29 24.988 163.386 25.02C163.482 25.052 163.578 25.088 163.674 25.128C163.778 25.16 163.874 25.2 163.962 25.248C164.05 25.288 164.134 25.336 164.214 25.392C164.302 25.44 164.382 25.496 164.454 25.56C164.526 25.624 164.59 25.696 164.646 25.776C164.702 25.848 164.75 25.932 164.79 26.028C164.83 26.116 164.862 26.216 164.886 26.328C164.91 26.432 164.922 26.548 164.922 26.676C164.922 26.852 164.902 27.016 164.862 27.168C164.822 27.32 164.762 27.46 164.682 27.588C164.602 27.716 164.502 27.836 164.382 27.948C164.27 28.052 164.142 28.144 163.998 28.224C163.862 28.304 163.71 28.372 163.542 28.428C163.374 28.484 163.194 28.524 163.002 28.548C162.818 28.58 162.622 28.596 162.414 28.596C161.774 28.596 161.242 28.472 160.818 28.224C160.402 27.968 160.094 27.664 159.894 27.312C159.87 27.272 159.858 27.232 159.858 27.192C159.858 27.152 159.882 27.116 159.93 27.084L160.566 26.592C160.598 26.56 160.634 26.548 160.674 26.556C160.714 26.556 160.746 26.572 160.77 26.604C160.978 26.948 161.222 27.196 161.502 27.348C161.782 27.5 162.074 27.576 162.378 27.576C162.722 27.576 162.998 27.508 163.206 27.372C163.422 27.228 163.53 27.028 163.53 26.772C163.53 26.516 163.394 26.332 163.122 26.22C162.858 26.108 162.546 26.008 162.186 25.92C162.082 25.888 161.974 25.86 161.862 25.836C161.75 25.804 161.638 25.772 161.526 25.74C161.422 25.7 161.318 25.66 161.214 25.62C161.118 25.572 161.022 25.524 160.926 25.476C160.83 25.42 160.738 25.36 160.65 25.296C160.57 25.224 160.498 25.148 160.434 25.068C160.37 24.988 160.314 24.9 160.266 24.804C160.218 24.7 160.178 24.588 160.146 24.468C160.122 24.34 160.11 24.204 160.11 24.06C160.11 23.484 160.322 23.032 160.746 22.704C161.178 22.368 161.718 22.2 162.366 22.2ZM168.545 28.596C167.985 28.596 167.553 28.452 167.249 28.164C166.945 27.868 166.793 27.48 166.793 27V23.4H165.521C165.481 23.4 165.449 23.388 165.425 23.364C165.401 23.34 165.389 23.304 165.389 23.256V22.428C165.389 22.38 165.401 22.348 165.425 22.332C165.449 22.308 165.481 22.296 165.521 22.296H166.793V20.772C166.793 20.724 166.805 20.684 166.829 20.652C166.853 20.62 166.893 20.604 166.949 20.604H168.029C168.085 20.604 168.125 20.62 168.149 20.652C168.181 20.684 168.197 20.724 168.197 20.772V22.296H169.721C169.761 22.296 169.793 22.308 169.817 22.332C169.849 22.348 169.865 22.38 169.865 22.428V23.256C169.865 23.304 169.849 23.34 169.817 23.364C169.793 23.388 169.761 23.4 169.721 23.4H168.197V26.712C168.197 26.944 168.261 27.124 168.389 27.252C168.525 27.38 168.709 27.444 168.941 27.444C169.061 27.444 169.177 27.432 169.289 27.408C169.409 27.384 169.537 27.352 169.673 27.312C169.721 27.296 169.757 27.3 169.781 27.324C169.813 27.34 169.829 27.364 169.829 27.396L169.865 28.224C169.865 28.256 169.861 28.284 169.853 28.308C169.845 28.332 169.825 28.352 169.793 28.368C169.649 28.44 169.465 28.496 169.241 28.536C169.017 28.576 168.785 28.596 168.545 28.596ZM171.258 28.5C171.202 28.5 171.154 28.484 171.114 28.452C171.082 28.42 171.066 28.376 171.066 28.32V20.28C171.066 20.224 171.082 20.18 171.114 20.148C171.154 20.116 171.202 20.1 171.258 20.1H174.066C174.922 20.1 175.614 20.32 176.142 20.76C176.678 21.192 176.946 21.804 176.946 22.596C176.946 23.124 176.822 23.58 176.574 23.964C176.326 24.34 175.986 24.624 175.554 24.816L177.246 28.272C177.278 28.328 177.278 28.38 177.246 28.428C177.222 28.476 177.182 28.5 177.126 28.5H175.89C175.818 28.5 175.762 28.488 175.722 28.464C175.682 28.432 175.646 28.38 175.614 28.308L174.102 25.104H172.554V28.32C172.554 28.376 172.538 28.42 172.506 28.452C172.482 28.484 172.438 28.5 172.374 28.5H171.258ZM174.03 23.928C174.43 23.928 174.766 23.824 175.038 23.616C175.31 23.4 175.446 23.076 175.446 22.644C175.446 22.212 175.31 21.892 175.038 21.684C174.766 21.468 174.43 21.36 174.03 21.36H172.554V23.928H174.03ZM179.959 28.596C179.375 28.596 178.907 28.436 178.555 28.116C178.211 27.796 178.039 27.396 178.039 26.916C178.039 26.348 178.247 25.904 178.663 25.584C179.079 25.256 179.655 25.064 180.391 25.008L181.855 24.9V24.492C181.855 24.1 181.747 23.8 181.531 23.592C181.323 23.384 181.047 23.28 180.703 23.28C180.415 23.28 180.151 23.344 179.911 23.472C179.679 23.592 179.463 23.82 179.263 24.156C179.231 24.188 179.195 24.208 179.155 24.216C179.115 24.216 179.067 24.204 179.011 24.18L178.267 23.832C178.219 23.808 178.191 23.776 178.183 23.736C178.175 23.688 178.183 23.64 178.207 23.592C178.431 23.2 178.759 22.872 179.191 22.608C179.623 22.336 180.171 22.2 180.835 22.2C181.555 22.2 182.135 22.404 182.575 22.812C183.023 23.22 183.247 23.788 183.247 24.516V28.332C183.247 28.388 183.231 28.432 183.199 28.464C183.175 28.488 183.135 28.5 183.079 28.5H181.999C181.951 28.5 181.915 28.488 181.891 28.464C181.867 28.432 181.855 28.388 181.855 28.332V27.6C181.671 27.912 181.411 28.156 181.075 28.332C180.747 28.508 180.375 28.596 179.959 28.596ZM179.395 26.784C179.395 27.072 179.495 27.284 179.695 27.42C179.895 27.548 180.139 27.612 180.427 27.612C180.795 27.612 181.123 27.496 181.411 27.264C181.707 27.032 181.855 26.712 181.855 26.304V25.788L180.703 25.896C180.271 25.928 179.943 26.016 179.719 26.16C179.503 26.304 179.395 26.512 179.395 26.784ZM187.122 28.596C186.914 28.596 186.714 28.572 186.522 28.524C186.338 28.476 186.162 28.408 185.994 28.32C185.826 28.232 185.67 28.12 185.526 27.984C185.39 27.848 185.262 27.692 185.142 27.516C185.03 27.34 184.934 27.144 184.854 26.928C184.774 26.712 184.714 26.476 184.674 26.22C184.634 25.964 184.614 25.688 184.614 25.392C184.614 25.104 184.634 24.832 184.674 24.576C184.714 24.32 184.774 24.084 184.854 23.868C184.934 23.652 185.03 23.456 185.142 23.28C185.262 23.104 185.39 22.948 185.526 22.812C185.67 22.676 185.826 22.564 185.994 22.476C186.162 22.388 186.338 22.32 186.522 22.272C186.714 22.224 186.914 22.2 187.122 22.2C187.538 22.2 187.898 22.3 188.202 22.5C188.514 22.692 188.758 22.972 188.934 23.34V20.268C188.934 20.22 188.95 20.18 188.982 20.148C189.014 20.116 189.058 20.1 189.114 20.1H190.182C190.238 20.1 190.282 20.116 190.314 20.148C190.346 20.18 190.362 20.22 190.362 20.268V28.332C190.362 28.38 190.346 28.42 190.314 28.452C190.282 28.484 190.238 28.5 190.182 28.5H189.114C189.058 28.5 189.014 28.484 188.982 28.452C188.95 28.42 188.934 28.38 188.934 28.332V27.444C188.758 27.812 188.514 28.096 188.202 28.296C187.898 28.496 187.538 28.596 187.122 28.596ZM187.494 27.456C187.91 27.456 188.254 27.284 188.526 26.94C188.798 26.596 188.934 26.08 188.934 25.392C188.934 24.696 188.798 24.18 188.526 23.844C188.254 23.5 187.91 23.328 187.494 23.328C187.078 23.328 186.73 23.5 186.45 23.844C186.17 24.18 186.03 24.696 186.03 25.392C186.03 26.08 186.17 26.596 186.45 26.94C186.73 27.284 187.078 27.456 187.494 27.456ZM193.455 21.264C193.231 21.264 193.023 21.184 192.831 21.024C192.639 20.864 192.543 20.656 192.543 20.4C192.543 20.144 192.639 19.936 192.831 19.776C193.023 19.616 193.231 19.536 193.455 19.536C193.679 19.536 193.883 19.616 194.067 19.776C194.259 19.936 194.355 20.144 194.355 20.4C194.355 20.656 194.259 20.864 194.067 21.024C193.883 21.184 193.679 21.264 193.455 21.264ZM194.523 28.596C193.947 28.596 193.507 28.452 193.203 28.164C192.899 27.868 192.747 27.48 192.747 27V23.4H191.583C191.543 23.4 191.507 23.388 191.475 23.364C191.443 23.332 191.427 23.296 191.427 23.256V22.428C191.427 22.388 191.439 22.356 191.463 22.332C191.495 22.308 191.535 22.296 191.583 22.296H194.031C194.071 22.296 194.103 22.308 194.127 22.332C194.159 22.356 194.175 22.388 194.175 22.428V26.712C194.175 26.944 194.235 27.124 194.355 27.252C194.483 27.38 194.659 27.444 194.883 27.444C194.979 27.444 195.079 27.436 195.183 27.42C195.287 27.396 195.403 27.368 195.531 27.336C195.579 27.32 195.611 27.324 195.627 27.348C195.651 27.372 195.667 27.4 195.675 27.432L195.723 28.26C195.723 28.292 195.715 28.32 195.699 28.344C195.691 28.368 195.671 28.388 195.639 28.404C195.527 28.46 195.367 28.504 195.159 28.536C194.959 28.576 194.747 28.596 194.523 28.596ZM200.413 26.16V22.464C200.413 22.416 200.425 22.376 200.449 22.344C200.481 22.312 200.525 22.296 200.581 22.296H201.661C201.717 22.296 201.757 22.312 201.781 22.344C201.813 22.376 201.829 22.416 201.829 22.464V28.332C201.829 28.38 201.813 28.42 201.781 28.452C201.757 28.484 201.717 28.5 201.661 28.5H200.581C200.525 28.5 200.481 28.484 200.449 28.452C200.425 28.42 200.413 28.38 200.413 28.332V27.6C200.237 27.92 199.997 28.168 199.693 28.344C199.397 28.512 199.065 28.596 198.697 28.596C198.113 28.596 197.629 28.404 197.245 28.02C196.861 27.636 196.669 27.096 196.669 26.4V22.464C196.669 22.416 196.685 22.376 196.717 22.344C196.749 22.312 196.793 22.296 196.849 22.296H197.917C197.981 22.296 198.025 22.312 198.049 22.344C198.073 22.376 198.085 22.416 198.085 22.464V26.16C198.085 26.592 198.193 26.92 198.409 27.144C198.625 27.368 198.901 27.48 199.237 27.48C199.573 27.48 199.853 27.368 200.077 27.144C200.301 26.92 200.413 26.592 200.413 26.16ZM205.456 22.2C205.992 22.2 206.472 22.324 206.896 22.572C207.328 22.82 207.656 23.128 207.88 23.496C207.904 23.528 207.912 23.568 207.904 23.616C207.896 23.656 207.872 23.692 207.832 23.724L207.16 24.192C207.128 24.216 207.092 24.224 207.052 24.216C207.02 24.208 206.988 24.184 206.956 24.144C206.748 23.84 206.52 23.612 206.272 23.46C206.032 23.308 205.772 23.232 205.492 23.232C205.244 23.232 205.032 23.296 204.856 23.424C204.688 23.544 204.604 23.724 204.604 23.964C204.604 24.22 204.732 24.408 204.988 24.528C205.244 24.648 205.544 24.756 205.888 24.852C205.984 24.876 206.08 24.904 206.176 24.936C206.28 24.96 206.38 24.988 206.476 25.02C206.572 25.052 206.668 25.088 206.764 25.128C206.868 25.16 206.964 25.2 207.052 25.248C207.14 25.288 207.224 25.336 207.304 25.392C207.392 25.44 207.472 25.496 207.544 25.56C207.616 25.624 207.68 25.696 207.736 25.776C207.792 25.848 207.84 25.932 207.88 26.028C207.92 26.116 207.952 26.216 207.976 26.328C208 26.432 208.012 26.548 208.012 26.676C208.012 26.852 207.992 27.016 207.952 27.168C207.912 27.32 207.852 27.46 207.772 27.588C207.692 27.716 207.592 27.836 207.472 27.948C207.36 28.052 207.232 28.144 207.088 28.224C206.952 28.304 206.8 28.372 206.632 28.428C206.464 28.484 206.284 28.524 206.092 28.548C205.908 28.58 205.712 28.596 205.504 28.596C204.864 28.596 204.332 28.472 203.908 28.224C203.492 27.968 203.184 27.664 202.984 27.312C202.96 27.272 202.948 27.232 202.948 27.192C202.948 27.152 202.972 27.116 203.02 27.084L203.656 26.592C203.688 26.56 203.724 26.548 203.764 26.556C203.804 26.556 203.836 26.572 203.86 26.604C204.068 26.948 204.312 27.196 204.592 27.348C204.872 27.5 205.164 27.576 205.468 27.576C205.812 27.576 206.088 27.508 206.296 27.372C206.512 27.228 206.62 27.028 206.62 26.772C206.62 26.516 206.484 26.332 206.212 26.22C205.948 26.108 205.636 26.008 205.276 25.92C205.172 25.888 205.064 25.86 204.952 25.836C204.84 25.804 204.728 25.772 204.616 25.74C204.512 25.7 204.408 25.66 204.304 25.62C204.208 25.572 204.112 25.524 204.016 25.476C203.92 25.42 203.828 25.36 203.74 25.296C203.66 25.224 203.588 25.148 203.524 25.068C203.46 24.988 203.404 24.9 203.356 24.804C203.308 24.7 203.268 24.588 203.236 24.468C203.212 24.34 203.2 24.204 203.2 24.06C203.2 23.484 203.412 23.032 203.836 22.704C204.268 22.368 204.808 22.2 205.456 22.2Z" fill="white"/>
<path d="M227.625 20.6554C227.743 20.2917 228.257 20.2917 228.375 20.6554L229.595 24.4096C229.648 24.5723 229.8 24.6824 229.971 24.6824H233.918C234.3 24.6824 234.459 25.1717 234.15 25.3965L230.957 27.7167C230.818 27.8172 230.76 27.9954 230.813 28.158L232.033 31.9122C232.151 32.2759 231.735 32.5783 231.426 32.3535L228.232 30.0333C228.094 29.9328 227.906 29.9328 227.768 30.0333L224.574 32.3535C224.265 32.5783 223.849 32.2759 223.967 31.9122L225.187 28.158C225.24 27.9954 225.182 27.8172 225.043 27.7167L221.85 25.3965C221.541 25.1717 221.7 24.6824 222.082 24.6824H226.029C226.2 24.6824 226.352 24.5723 226.405 24.4096L227.625 20.6554Z" fill="white"/>
<path d="M242.625 20.6554C242.743 20.2917 243.257 20.2917 243.375 20.6554L244.595 24.4096C244.648 24.5723 244.8 24.6824 244.971 24.6824H248.918C249.3 24.6824 249.459 25.1717 249.15 25.3965L245.957 27.7167C245.818 27.8172 245.76 27.9954 245.813 28.158L247.033 31.9122C247.151 32.2759 246.735 32.5783 246.426 32.3535L243.232 30.0333C243.094 29.9328 242.906 29.9328 242.768 30.0333L239.574 32.3535C239.265 32.5783 238.849 32.2759 238.967 31.9122L240.187 28.158C240.24 27.9954 240.182 27.8172 240.043 27.7167L236.85 25.3965C236.541 25.1717 236.7 24.6824 237.082 24.6824H241.029C241.2 24.6824 241.352 24.5723 241.405 24.4096L242.625 20.6554Z" fill="white"/>
<path d="M257.625 20.6554C257.743 20.2917 258.257 20.2917 258.375 20.6554L259.595 24.4096C259.648 24.5723 259.8 24.6824 259.971 24.6824H263.918C264.3 24.6824 264.459 25.1717 264.15 25.3965L260.957 27.7167C260.818 27.8172 260.76 27.9954 260.813 28.158L262.033 31.9122C262.151 32.2759 261.735 32.5783 261.426 32.3535L258.232 30.0333C258.094 29.9328 257.906 29.9328 257.768 30.0333L254.574 32.3535C254.265 32.5783 253.849 32.2759 253.967 31.9122L255.187 28.158C255.24 27.9954 255.182 27.8172 255.043 27.7167L251.85 25.3965C251.541 25.1717 251.7 24.6824 252.082 24.6824H256.029C256.2 24.6824 256.352 24.5723 256.405 24.4096L257.625 20.6554Z" fill="white"/>
<path d="M272.625 20.6554C272.743 20.2917 273.257 20.2917 273.375 20.6554L274.595 24.4096C274.648 24.5723 274.8 24.6824 274.971 24.6824H278.918C279.3 24.6824 279.459 25.1717 279.15 25.3965L275.957 27.7167C275.818 27.8172 275.76 27.9954 275.813 28.158L277.033 31.9122C277.151 32.2759 276.735 32.5783 276.426 32.3535L273.232 30.0333C273.094 29.9328 272.906 29.9328 272.768 30.0333L269.574 32.3535C269.265 32.5783 268.849 32.2759 268.967 31.9122L270.187 28.158C270.24 27.9954 270.182 27.8172 270.043 27.7167L266.85 25.3965C266.541 25.1717 266.7 24.6824 267.082 24.6824H271.029C271.2 24.6824 271.352 24.5723 271.405 24.4096L272.625 20.6554Z" fill="white"/>
<path d="M284.631 32.2202L287.374 29.9835C287.465 29.9085 287.519 29.7962 287.519 29.6776V20.7502L286.402 24.4033C286.351 24.5693 286.198 24.6826 286.024 24.6826H282.082C281.7 24.6826 281.541 25.1719 281.85 25.3967L285.044 27.7169C285.182 27.8174 285.24 27.9956 285.187 28.1583L284.006 31.7923C283.885 32.1668 284.326 32.469 284.631 32.2202Z" fill="white"/>
<path d="M287.812 20.7168C287.872 20.535 288.128 20.535 288.188 20.7168L289.407 24.4707C289.486 24.7147 289.714 24.8799 289.971 24.8799H293.918C294.109 24.8799 294.188 25.1238 294.034 25.2363L290.841 27.5566C290.633 27.7073 290.546 27.9749 290.625 28.2188L291.846 31.9736C291.904 32.155 291.696 32.3059 291.542 32.1943L288.348 29.874C288.14 29.7233 287.86 29.7233 287.652 29.874L284.458 32.1943C284.304 32.3059 284.096 32.155 284.154 31.9736L285.375 28.2188C285.454 27.9749 285.367 27.7073 285.159 27.5566L281.966 25.2363C281.812 25.1238 281.891 24.8799 282.082 24.8799H286.029C286.286 24.8799 286.514 24.7147 286.593 24.4707L287.812 20.7168Z" stroke="white" stroke-width="0.394737"/>
<path d="M223.272 48.584C223.118 48.584 222.968 48.5735 222.821 48.5525C222.681 48.5315 222.541 48.5035 222.401 48.4685C222.268 48.4265 222.142 48.374 222.023 48.311C221.904 48.248 221.792 48.178 221.687 48.101C221.582 48.024 221.487 47.9365 221.403 47.8385C221.319 47.7405 221.246 47.6355 221.183 47.5235C221.127 47.4045 221.081 47.2785 221.046 47.1455C221.018 47.0125 221.004 46.869 221.004 46.715C221.004 46.582 221.015 46.4595 221.036 46.3475C221.064 46.2285 221.099 46.12 221.141 46.022C221.183 45.917 221.232 45.819 221.288 45.728C221.351 45.637 221.417 45.553 221.487 45.476C221.557 45.392 221.634 45.315 221.718 45.245C221.802 45.168 221.89 45.098 221.981 45.035C222.079 44.965 222.177 44.8985 222.275 44.8355C222.373 44.7725 222.471 44.713 222.569 44.657C222.226 44.447 221.921 44.1985 221.655 43.9115C221.396 43.6175 221.267 43.25 221.267 42.809C221.267 42.697 221.277 42.585 221.298 42.473C221.326 42.361 221.361 42.2525 221.403 42.1475C221.445 42.0425 221.498 41.9445 221.561 41.8535C221.631 41.7555 221.708 41.668 221.792 41.591C221.883 41.514 221.981 41.444 222.086 41.381C222.191 41.311 222.303 41.255 222.422 41.213C222.548 41.164 222.681 41.129 222.821 41.108C222.968 41.08 223.118 41.066 223.272 41.066C223.426 41.066 223.573 41.08 223.713 41.108C223.853 41.129 223.983 41.164 224.102 41.213C224.228 41.255 224.343 41.311 224.448 41.381C224.553 41.444 224.648 41.514 224.732 41.591C224.816 41.668 224.889 41.7555 224.952 41.8535C225.022 41.9445 225.078 42.0425 225.12 42.1475C225.162 42.2525 225.194 42.361 225.215 42.473C225.243 42.585 225.257 42.697 225.257 42.809C225.257 43.25 225.127 43.6105 224.868 43.8905C224.616 44.1705 224.319 44.412 223.976 44.615C224.074 44.671 224.172 44.7305 224.27 44.7935C224.368 44.8565 224.462 44.923 224.553 44.993C224.644 45.063 224.728 45.1365 224.805 45.2135C224.889 45.2835 224.966 45.3605 225.036 45.4445C225.113 45.5285 225.18 45.616 225.236 45.707C225.299 45.798 225.351 45.896 225.393 46.001C225.435 46.106 225.467 46.218 225.488 46.337C225.509 46.449 225.519 46.568 225.519 46.694C225.519 46.848 225.502 46.995 225.467 47.135C225.439 47.268 225.393 47.394 225.33 47.513C225.274 47.625 225.204 47.73 225.12 47.828C225.036 47.926 224.942 48.017 224.837 48.101C224.739 48.178 224.627 48.248 224.501 48.311C224.382 48.374 224.256 48.4265 224.123 48.4685C223.99 48.5035 223.85 48.5315 223.703 48.5525C223.563 48.5735 223.419 48.584 223.272 48.584ZM222.107 42.809C222.107 43.138 222.226 43.411 222.464 43.628C222.702 43.845 222.982 44.048 223.304 44.237C223.605 44.048 223.867 43.845 224.091 43.628C224.315 43.411 224.427 43.138 224.427 42.809C224.427 42.515 224.322 42.2595 224.112 42.0425C223.909 41.8255 223.629 41.717 223.272 41.717C222.908 41.717 222.621 41.8255 222.411 42.0425C222.208 42.2595 222.107 42.515 222.107 42.809ZM223.272 47.933C223.664 47.933 223.993 47.821 224.259 47.597C224.532 47.373 224.669 47.072 224.669 46.694C224.669 46.295 224.522 45.973 224.228 45.728C223.934 45.476 223.598 45.245 223.22 45.035C222.863 45.231 222.544 45.455 222.264 45.707C221.991 45.952 221.855 46.2775 221.855 46.6835C221.855 47.0615 221.991 47.366 222.264 47.597C222.537 47.821 222.873 47.933 223.272 47.933ZM227.216 48.5735C227.048 48.5735 226.897 48.514 226.764 48.395C226.631 48.276 226.565 48.122 226.565 47.933C226.565 47.744 226.631 47.59 226.764 47.471C226.897 47.345 227.048 47.282 227.216 47.282C227.391 47.282 227.541 47.345 227.667 47.471C227.8 47.59 227.867 47.744 227.867 47.933C227.867 48.122 227.8 48.276 227.667 48.395C227.541 48.514 227.391 48.5735 227.216 48.5735ZM228.962 44.531L229.078 41.2655C229.078 41.2305 229.088 41.2025 229.109 41.1815C229.13 41.1605 229.155 41.15 229.183 41.15H232.627C232.669 41.15 232.7 41.1605 232.721 41.1815C232.742 41.2025 232.753 41.2305 232.753 41.2655V41.7275C232.753 41.7695 232.742 41.8045 232.721 41.8325C232.7 41.8535 232.669 41.864 232.627 41.864H229.834L229.75 44.0795C229.904 44.0515 230.054 44.0305 230.201 44.0165C230.355 43.9955 230.499 43.985 230.632 43.985C230.828 43.985 231.01 43.999 231.178 44.027C231.353 44.055 231.517 44.097 231.671 44.153C231.825 44.209 231.965 44.2755 232.091 44.3525C232.224 44.4295 232.343 44.5205 232.448 44.6255C232.56 44.7235 232.655 44.832 232.732 44.951C232.816 45.063 232.886 45.189 232.942 45.329C232.998 45.462 233.04 45.602 233.068 45.749C233.096 45.889 233.11 46.0395 233.11 46.2005C233.11 46.3755 233.092 46.5435 233.057 46.7045C233.022 46.8655 232.973 47.0195 232.91 47.1665C232.847 47.3135 232.767 47.45 232.669 47.576C232.578 47.702 232.473 47.8175 232.354 47.9225C232.235 48.0275 232.102 48.122 231.955 48.206C231.815 48.283 231.661 48.353 231.493 48.416C231.325 48.472 231.146 48.514 230.957 48.542C230.775 48.57 230.583 48.584 230.38 48.584C230.128 48.584 229.862 48.563 229.582 48.521C229.302 48.479 229.036 48.402 228.784 48.29C228.756 48.276 228.738 48.2585 228.731 48.2375C228.724 48.2095 228.724 48.1815 228.731 48.1535L228.92 47.6285C228.927 47.6005 228.941 47.583 228.962 47.576C228.99 47.569 229.015 47.569 229.036 47.576C229.246 47.667 229.459 47.737 229.676 47.786C229.9 47.828 230.128 47.849 230.359 47.849C230.527 47.849 230.681 47.8385 230.821 47.8175C230.961 47.7895 231.09 47.7545 231.209 47.7125C231.328 47.6705 231.433 47.6215 231.524 47.5655C231.622 47.5025 231.706 47.4325 231.776 47.3555C231.853 47.2785 231.92 47.198 231.976 47.114C232.032 47.023 232.077 46.9285 232.112 46.8305C232.147 46.7325 232.172 46.6345 232.186 46.5365C232.207 46.4315 232.217 46.323 232.217 46.211C232.217 45.742 232.056 45.3675 231.734 45.0875C231.419 44.8075 231.003 44.6675 230.485 44.6675C230.352 44.6675 230.212 44.678 230.065 44.699C229.918 44.72 229.767 44.7515 229.613 44.7935C229.543 44.8145 229.487 44.8215 229.445 44.8145C229.403 44.8075 229.361 44.797 229.319 44.783L229.046 44.6885C229.011 44.6745 228.987 44.6535 228.973 44.6255C228.966 44.5975 228.962 44.566 228.962 44.531Z" fill="white" fill-opacity="0.9"/>
<g clip-path="url(#clip0_1093_28087)">
<path d="M347.5 6.23438C358.546 6.23438 367.5 15.1887 367.5 26.2344C367.5 37.2801 358.546 46.2344 347.5 46.2344C336.454 46.2344 327.5 37.2801 327.5 26.2344C327.5 15.1887 336.454 6.23438 347.5 6.23438ZM347.709 14.8047C341.397 14.8048 336.281 19.9206 336.281 26.2324C336.281 32.5443 341.397 37.661 347.709 37.6611C350.128 37.6657 352.486 36.8973 354.438 35.4688L351.965 31.1807C350.782 32.2021 349.272 32.7644 347.709 32.7646C344.109 32.7645 341.178 29.8323 341.178 26.2324C341.178 22.6326 344.109 19.7013 347.709 19.7012L349.945 15.0244C349.209 14.878 348.46 14.8046 347.709 14.8047ZM350.047 24.6016L347.219 29.498H352.875L355.703 34.3975L358.53 29.498L355.703 24.6016H350.047ZM353.588 15.6211C353.037 15.6146 352.497 15.7693 352.032 16.0654C351.564 16.3534 351.216 16.7255 351 17.1895L351.988 18.1816C352.372 17.4056 352.928 17.0254 353.66 17.0254C354.28 17.0254 354.66 17.3452 354.66 17.7891C354.66 18.1611 354.476 18.4691 353.764 18.8291L353.36 19.0254C352.484 19.4694 351.876 19.9777 351.524 20.5537C351.172 21.1297 351 21.8536 351 22.7295V22.9697H356.168V21.5537H352.752C352.844 21.0177 353.176 20.7169 353.848 20.377L354.476 20.0576C355.599 19.4817 356.2 18.8294 356.2 17.7656C356.2 17.0976 355.94 16.5695 355.424 16.1895C354.908 15.8095 354.3 15.6211 353.588 15.6211Z" fill="#FF492C"/>
<path d="M381.568 30.3624C380.096 30.3624 378.939 29.8504 378.096 28.8264C377.264 27.8024 376.848 26.405 376.848 24.6344C376.848 22.8637 377.264 21.4664 378.096 20.4424C378.939 19.4184 380.075 18.9064 381.504 18.9064C382.464 18.9064 383.328 19.157 384.096 19.6584C384.864 20.1597 385.429 20.9277 385.792 21.9624C385.813 22.037 385.813 22.101 385.792 22.1544C385.771 22.2077 385.717 22.245 385.632 22.2664L384.272 22.6184C384.208 22.6397 384.149 22.645 384.096 22.6344C384.043 22.613 384 22.5704 383.968 22.5064C383.733 21.8664 383.403 21.3864 382.976 21.0664C382.56 20.7464 382.064 20.5864 381.488 20.5864C380.709 20.5864 380.069 20.9224 379.568 21.5944C379.077 22.2557 378.832 23.269 378.832 24.6344C378.832 25.989 379.083 27.0077 379.584 27.6904C380.096 28.3624 380.768 28.6984 381.6 28.6984C382.4 28.6984 383.019 28.4317 383.456 27.8984C383.904 27.3544 384.149 26.6877 384.192 25.8984H381.744C381.691 25.8984 381.648 25.8824 381.616 25.8504C381.584 25.8077 381.568 25.765 381.568 25.7224V24.5704C381.568 24.5064 381.584 24.4584 381.616 24.4264C381.648 24.3837 381.691 24.3624 381.744 24.3624H385.888C385.941 24.3624 385.984 24.3837 386.016 24.4264C386.059 24.469 386.08 24.5117 386.08 24.5544V25.2744C386.08 25.5944 386.059 25.909 386.016 26.2184C385.984 26.517 385.925 26.805 385.84 27.0824C385.765 27.3597 385.669 27.6264 385.552 27.8824C385.445 28.1277 385.312 28.3624 385.152 28.5864C385.003 28.7997 384.832 29.0024 384.64 29.1944C384.459 29.3757 384.256 29.541 384.032 29.6904C383.819 29.829 383.579 29.9517 383.312 30.0584C383.056 30.1544 382.779 30.229 382.48 30.2824C382.192 30.3357 381.888 30.3624 381.568 30.3624ZM387.626 30.2344C387.552 30.2344 387.493 30.213 387.45 30.1704C387.408 30.1277 387.386 30.0744 387.386 30.0104V28.9224C387.386 28.8797 387.392 28.837 387.402 28.7944C387.413 28.7517 387.44 28.709 387.482 28.6664L391.226 24.6504C391.77 24.0744 392.133 23.605 392.314 23.2424C392.496 22.869 392.586 22.5117 392.586 22.1704C392.586 21.669 392.426 21.2797 392.106 21.0024C391.786 20.7144 391.413 20.5704 390.986 20.5704C390.517 20.5704 390.09 20.7144 389.706 21.0024C389.322 21.2797 388.96 21.6797 388.618 22.2024C388.586 22.245 388.544 22.2717 388.49 22.2824C388.437 22.2824 388.384 22.2717 388.33 22.2504L387.194 21.5784C387.141 21.557 387.109 21.5197 387.098 21.4664C387.088 21.413 387.098 21.3544 387.13 21.2904C387.557 20.565 388.106 19.989 388.778 19.5624C389.45 19.125 390.245 18.9064 391.162 18.9064C391.408 18.9064 391.642 18.9277 391.866 18.9704C392.09 19.0024 392.304 19.0557 392.506 19.1304C392.72 19.205 392.917 19.2957 393.098 19.4024C393.29 19.509 393.461 19.6317 393.61 19.7704C393.77 19.909 393.909 20.0637 394.026 20.2344C394.154 20.3944 394.261 20.5704 394.346 20.7624C394.432 20.9437 394.496 21.141 394.538 21.3544C394.592 21.5677 394.618 21.7864 394.618 22.0104C394.618 22.597 394.469 23.1624 394.17 23.7064C393.872 24.2397 393.37 24.8744 392.666 25.6104L389.818 28.6504H394.426C394.49 28.6504 394.538 28.6664 394.57 28.6984C394.613 28.7304 394.634 28.7784 394.634 28.8424V30.0264C394.634 30.0797 394.613 30.1277 394.57 30.1704C394.538 30.213 394.49 30.2344 394.426 30.2344H387.626Z" fill="white"/>
</g>
<path d="M414.999 19.5406C415.157 19.0557 415.843 19.0557 416.001 19.5406L416.953 22.4732C417.024 22.6901 417.226 22.8369 417.454 22.8369H420.538C421.047 22.8369 421.259 23.4893 420.847 23.789L418.352 25.6015C418.168 25.7355 418.091 25.9731 418.161 26.1899L419.114 29.1226C419.271 29.6075 418.717 30.0107 418.304 29.711L415.809 27.8985C415.625 27.7645 415.375 27.7645 415.191 27.8985L412.696 29.711C412.283 30.0107 411.729 29.6075 411.886 29.1226L412.839 26.1899C412.909 25.9731 412.832 25.7355 412.648 25.6015L410.153 23.789C409.741 23.4893 409.953 22.8369 410.462 22.8369H413.546C413.774 22.8369 413.976 22.6901 414.047 22.4732L414.999 19.5406Z" fill="white"/>
<path d="M428.999 19.5406C429.157 19.0557 429.843 19.0557 430.001 19.5406L430.953 22.4732C431.024 22.6901 431.226 22.8369 431.454 22.8369H434.538C435.047 22.8369 435.259 23.4893 434.847 23.789L432.352 25.6015C432.168 25.7355 432.091 25.9731 432.161 26.1899L433.114 29.1226C433.271 29.6075 432.717 30.0107 432.304 29.711L429.809 27.8985C429.625 27.7645 429.375 27.7645 429.191 27.8985L426.696 29.711C426.283 30.0107 425.729 29.6075 425.886 29.1226L426.839 26.1899C426.909 25.9731 426.832 25.7355 426.648 25.6015L424.153 23.789C423.741 23.4893 423.953 22.8369 424.462 22.8369H427.546C427.774 22.8369 427.976 22.6901 428.047 22.4732L428.999 19.5406Z" fill="white"/>
<path d="M442.999 19.5406C443.157 19.0557 443.843 19.0557 444.001 19.5406L444.953 22.4732C445.024 22.6901 445.226 22.8369 445.454 22.8369H448.538C449.047 22.8369 449.259 23.4893 448.847 23.789L446.352 25.6015C446.168 25.7355 446.091 25.9731 446.161 26.1899L447.114 29.1226C447.271 29.6075 446.717 30.0107 446.304 29.711L443.809 27.8985C443.625 27.7645 443.375 27.7645 443.191 27.8985L440.696 29.711C440.283 30.0107 439.729 29.6075 439.886 29.1226L440.839 26.1899C440.909 25.9731 440.832 25.7355 440.648 25.6015L438.153 23.789C437.741 23.4893 437.953 22.8369 438.462 22.8369H441.546C441.774 22.8369 441.976 22.6901 442.047 22.4732L442.999 19.5406Z" fill="white"/>
<path d="M456.999 19.5406C457.157 19.0557 457.843 19.0557 458.001 19.5406L458.953 22.4732C459.024 22.6901 459.226 22.8369 459.454 22.8369H462.538C463.047 22.8369 463.259 23.4893 462.847 23.789L460.352 25.6015C460.168 25.7355 460.091 25.9731 460.161 26.1899L461.114 29.1226C461.271 29.6075 460.717 30.0107 460.304 29.711L457.809 27.8985C457.625 27.7645 457.375 27.7645 457.191 27.8985L454.696 29.711C454.283 30.0107 453.729 29.6075 453.886 29.1226L454.839 26.1899C454.909 25.9731 454.832 25.7355 454.648 25.6015L452.153 23.789C451.741 23.4893 451.953 22.8369 452.462 22.8369H455.546C455.774 22.8369 455.976 22.6901 456.047 22.4732L456.999 19.5406Z" fill="white"/>
<path d="M468.773 29.5337L470.859 27.8325C470.982 27.7326 471.053 27.5828 471.053 27.4247V19.1675L470.044 22.4653C469.977 22.6866 469.772 22.8377 469.541 22.8377H466.465C465.955 22.8377 465.743 23.4901 466.155 23.7898L468.65 25.6023C468.834 25.7363 468.912 25.9739 468.841 26.1907L467.94 28.9632C467.778 29.4625 468.367 29.8655 468.773 29.5337Z" fill="white"/>
<path d="M471.25 19.6221C471.329 19.3796 471.671 19.3796 471.75 19.6221L472.703 22.5547C472.809 22.8799 473.112 23.0996 473.454 23.0996H476.537C476.792 23.0996 476.899 23.4263 476.692 23.5762L474.197 25.3887C473.921 25.5897 473.805 25.9463 473.911 26.2715L474.863 29.2041C474.942 29.4465 474.665 29.6477 474.459 29.498L471.964 27.6855C471.687 27.4847 471.313 27.4847 471.036 27.6855L468.541 29.498C468.335 29.6477 468.058 29.4465 468.137 29.2041L469.089 26.2715C469.195 25.9463 469.079 25.5897 468.803 25.3887L466.308 23.5762C466.101 23.4263 466.208 23.0996 466.463 23.0996H469.546C469.888 23.0996 470.191 22.8799 470.297 22.5547L471.25 19.6221Z" stroke="white" stroke-width="0.526316"/>
<path d="M412.092 43.896C412.092 43.928 412.084 43.9547 412.068 43.976C412.052 43.992 412.025 44 411.988 44H411.556C411.519 44 411.489 43.992 411.468 43.976C411.452 43.9547 411.444 43.928 411.444 43.896V42.552H408.916C408.889 42.552 408.865 42.544 408.844 42.528C408.823 42.5067 408.812 42.4773 408.812 42.44V42.08C408.812 42.048 408.815 42.0213 408.82 42C408.831 41.9787 408.847 41.9547 408.868 41.928L411.276 38.496C411.303 38.4587 411.327 38.4347 411.348 38.424C411.369 38.408 411.396 38.4 411.428 38.4H411.988C412.02 38.4 412.044 38.4107 412.06 38.432C412.081 38.448 412.092 38.472 412.092 38.504V42H412.764C412.791 42 412.812 42.008 412.828 42.024C412.849 42.04 412.86 42.0613 412.86 42.088V42.448C412.86 42.4747 412.849 42.4987 412.828 42.52C412.812 42.5413 412.791 42.552 412.764 42.552H412.092V43.896ZM409.452 42H411.444V39.144L409.452 42ZM414.047 44.056C413.919 44.056 413.804 44.0107 413.703 43.92C413.601 43.8293 413.551 43.712 413.551 43.568C413.551 43.424 413.601 43.3067 413.703 43.216C413.804 43.12 413.919 43.072 414.047 43.072C414.18 43.072 414.295 43.12 414.391 43.216C414.492 43.3067 414.543 43.424 414.543 43.568C414.543 43.712 414.492 43.8293 414.391 43.92C414.295 44.0107 414.18 44.056 414.047 44.056ZM416.737 44.064C416.449 44.064 416.169 44.0267 415.897 43.952C415.625 43.872 415.382 43.7573 415.169 43.608C415.148 43.592 415.134 43.576 415.129 43.56C415.129 43.544 415.134 43.5253 415.145 43.504L415.385 43.136C415.396 43.1147 415.412 43.1013 415.433 43.096C415.454 43.0907 415.473 43.096 415.489 43.112C415.686 43.2347 415.884 43.3307 416.081 43.4C416.284 43.4693 416.497 43.504 416.721 43.504C417.089 43.504 417.39 43.4 417.625 43.192C417.865 42.9787 417.985 42.6987 417.985 42.352C417.985 42.0107 417.849 41.7307 417.577 41.512C417.305 41.288 416.897 41.2027 416.353 41.256C416.332 41.256 416.313 41.2533 416.297 41.248C416.281 41.2427 416.265 41.2293 416.249 41.208L416.073 40.976C416.057 40.9547 416.046 40.9307 416.041 40.904C416.041 40.8773 416.052 40.8533 416.073 40.832L417.625 38.944H415.289C415.268 38.944 415.246 38.936 415.225 38.92C415.204 38.8987 415.193 38.8747 415.193 38.848V38.488C415.193 38.4613 415.201 38.44 415.217 38.424C415.238 38.408 415.262 38.4 415.289 38.4H418.201C418.238 38.4 418.265 38.4107 418.281 38.432C418.297 38.448 418.305 38.472 418.305 38.504V38.856C418.305 38.8773 418.3 38.8987 418.289 38.92C418.284 38.9413 418.27 38.9627 418.249 38.984L416.833 40.752C417.409 40.7627 417.854 40.9173 418.169 41.216C418.489 41.5093 418.649 41.88 418.649 42.328C418.649 42.456 418.636 42.5787 418.609 42.696C418.588 42.8133 418.553 42.9253 418.505 43.032C418.462 43.1387 418.406 43.2373 418.337 43.328C418.273 43.4187 418.198 43.504 418.113 43.584C418.028 43.6587 417.934 43.7253 417.833 43.784C417.732 43.8427 417.622 43.8933 417.505 43.936C417.393 43.9787 417.27 44.0107 417.137 44.032C417.009 44.0533 416.876 44.064 416.737 44.064ZM422.392 39.864C422.749 39.864 423.056 39.9547 423.312 40.136C423.573 40.3173 423.771 40.544 423.904 40.816C423.915 40.8373 423.915 40.8613 423.904 40.888C423.899 40.9093 423.885 40.9253 423.864 40.936L423.52 41.104C423.499 41.12 423.477 41.1227 423.456 41.112C423.44 41.1013 423.424 41.0853 423.408 41.064C423.285 40.824 423.141 40.648 422.976 40.536C422.816 40.4187 422.629 40.36 422.416 40.36C422.224 40.36 422.056 40.4133 421.912 40.52C421.773 40.6213 421.704 40.7707 421.704 40.968C421.704 41.1867 421.803 41.3467 422 41.448C422.197 41.544 422.424 41.6293 422.68 41.704C422.749 41.7253 422.819 41.7467 422.888 41.768C422.957 41.7893 423.024 41.8133 423.088 41.84C423.157 41.8613 423.224 41.8853 423.288 41.912C423.357 41.9387 423.421 41.9707 423.48 42.008C423.539 42.04 423.592 42.0773 423.64 42.12C423.693 42.1627 423.741 42.208 423.784 42.256C423.827 42.304 423.861 42.36 423.888 42.424C423.92 42.4827 423.944 42.5493 423.96 42.624C423.976 42.6987 423.984 42.7787 423.984 42.864C423.984 42.96 423.973 43.0507 423.952 43.136C423.931 43.2213 423.901 43.3013 423.864 43.376C423.827 43.4507 423.781 43.52 423.728 43.584C423.675 43.6427 423.613 43.6987 423.544 43.752C423.475 43.8053 423.4 43.8507 423.32 43.888C423.24 43.9253 423.155 43.9573 423.064 43.984C422.973 44.0107 422.88 44.0293 422.784 44.04C422.688 44.056 422.589 44.064 422.488 44.064C422.088 44.064 421.763 43.9787 421.512 43.808C421.261 43.632 421.067 43.4027 420.928 43.12C420.917 43.0987 420.912 43.0773 420.912 43.056C420.912 43.0347 420.928 43.016 420.96 43L421.304 42.816C421.325 42.8053 421.347 42.8027 421.368 42.808C421.389 42.808 421.405 42.8187 421.416 42.84C421.539 43.096 421.691 43.28 421.872 43.392C422.053 43.504 422.251 43.56 422.464 43.56C422.715 43.56 422.925 43.504 423.096 43.392C423.267 43.28 423.352 43.1147 423.352 42.896C423.352 42.6827 423.251 42.5307 423.048 42.44C422.845 42.3493 422.613 42.2667 422.352 42.192C422.283 42.1707 422.213 42.152 422.144 42.136C422.08 42.1147 422.013 42.0933 421.944 42.072C421.88 42.0453 421.816 42.0187 421.752 41.992C421.688 41.96 421.627 41.928 421.568 41.896C421.509 41.8587 421.453 41.8213 421.4 41.784C421.352 41.7413 421.307 41.6933 421.264 41.64C421.227 41.5867 421.192 41.5307 421.16 41.472C421.133 41.408 421.112 41.3387 421.096 41.264C421.08 41.1893 421.072 41.1067 421.072 41.016C421.072 40.9093 421.083 40.8107 421.104 40.72C421.131 40.6293 421.165 40.5467 421.208 40.472C421.251 40.392 421.301 40.32 421.36 40.256C421.424 40.192 421.493 40.136 421.568 40.088C421.648 40.04 421.731 40 421.816 39.968C421.901 39.9307 421.992 39.904 422.088 39.888C422.189 39.872 422.291 39.864 422.392 39.864ZM426.292 44.064C425.967 44.064 425.714 43.976 425.532 43.8C425.356 43.624 425.268 43.392 425.268 43.104V40.448H424.42C424.399 40.448 424.38 40.44 424.364 40.424C424.348 40.408 424.34 40.3867 424.34 40.36V40.008C424.34 39.9813 424.348 39.9627 424.364 39.952C424.38 39.936 424.399 39.928 424.42 39.928H425.268V38.88C425.268 38.8587 425.276 38.84 425.292 38.824C425.308 38.8027 425.33 38.792 425.356 38.792H425.812C425.839 38.792 425.86 38.8027 425.876 38.824C425.898 38.84 425.908 38.8587 425.908 38.88V39.928H426.956C426.978 39.928 426.996 39.936 427.012 39.952C427.028 39.9627 427.036 39.9813 427.036 40.008V40.36C427.036 40.3867 427.028 40.408 427.012 40.424C426.996 40.44 426.978 40.448 426.956 40.448H425.908V43C425.908 43.1653 425.954 43.296 426.044 43.392C426.14 43.488 426.268 43.536 426.428 43.536C426.514 43.536 426.594 43.528 426.668 43.512C426.748 43.496 426.831 43.472 426.916 43.44C426.943 43.4293 426.964 43.4293 426.98 43.44C427.002 43.4453 427.012 43.4587 427.012 43.48L427.044 43.84C427.044 43.856 427.044 43.872 427.044 43.888C427.044 43.8987 427.034 43.9093 427.012 43.92C426.927 43.9627 426.818 43.9973 426.684 44.024C426.556 44.0507 426.426 44.064 426.292 44.064ZM428.875 44.064C428.491 44.064 428.184 43.96 427.955 43.752C427.726 43.5387 427.611 43.2773 427.611 42.968C427.611 42.584 427.75 42.288 428.027 42.08C428.304 41.8667 428.683 41.7413 429.163 41.704L430.131 41.624V41.344C430.131 41.024 430.048 40.784 429.883 40.624C429.723 40.4587 429.512 40.376 429.251 40.376C429.043 40.376 428.854 40.4213 428.683 40.512C428.512 40.6027 428.36 40.7707 428.227 41.016C428.211 41.0373 428.19 41.048 428.163 41.048C428.142 41.048 428.118 41.0427 428.091 41.032L427.771 40.888C427.744 40.8773 427.728 40.8587 427.723 40.832C427.723 40.8053 427.728 40.7787 427.739 40.752C427.878 40.4907 428.075 40.2773 428.331 40.112C428.587 39.9467 428.91 39.864 429.299 39.864C429.731 39.864 430.083 39.9947 430.355 40.256C430.627 40.5173 430.763 40.88 430.763 41.344V43.912C430.763 43.9333 430.755 43.9547 430.739 43.976C430.728 43.992 430.707 44 430.675 44H430.211C430.19 44 430.171 43.992 430.155 43.976C430.139 43.9547 430.131 43.9333 430.131 43.912V43.408C430.008 43.6107 429.835 43.7707 429.611 43.888C429.392 44.0053 429.147 44.064 428.875 44.064ZM428.235 42.92C428.235 43.144 428.315 43.3067 428.475 43.408C428.64 43.5093 428.83 43.56 429.043 43.56C429.123 43.56 429.2 43.552 429.275 43.536C429.355 43.52 429.43 43.4987 429.499 43.472C429.574 43.44 429.643 43.4027 429.707 43.36C429.771 43.3173 429.827 43.2693 429.875 43.216C429.928 43.1627 429.974 43.104 430.011 43.04C430.048 42.9707 430.078 42.8987 430.099 42.824C430.12 42.744 430.131 42.6587 430.131 42.568V42.136L429.299 42.208C428.947 42.24 428.68 42.3147 428.499 42.432C428.323 42.544 428.235 42.7067 428.235 42.92ZM432.182 44C432.15 44 432.126 43.992 432.11 43.976C432.099 43.9547 432.094 43.9333 432.094 43.912V40.008C432.094 39.9867 432.099 39.968 432.11 39.952C432.126 39.936 432.15 39.928 432.182 39.928H432.638C432.665 39.928 432.686 39.936 432.702 39.952C432.723 39.968 432.734 39.9867 432.734 40.008V40.656C432.851 40.3947 433.014 40.1973 433.222 40.064C433.435 39.9253 433.662 39.856 433.902 39.856C433.955 39.856 434.003 39.8613 434.046 39.872C434.094 39.8773 434.145 39.8853 434.198 39.896C434.23 39.9013 434.251 39.912 434.262 39.928C434.273 39.944 434.275 39.9627 434.27 39.984L434.222 40.424C434.217 40.456 434.203 40.4773 434.182 40.488C434.166 40.4987 434.145 40.5013 434.118 40.496C434.059 40.48 434.006 40.4693 433.958 40.464C433.91 40.4533 433.862 40.448 433.814 40.448C433.51 40.448 433.254 40.56 433.046 40.784C432.838 41.0027 432.734 41.312 432.734 41.712V43.912C432.734 43.9333 432.723 43.9547 432.702 43.976C432.686 43.992 432.665 44 432.638 44H432.182ZM436.064 39.864C436.421 39.864 436.728 39.9547 436.984 40.136C437.245 40.3173 437.442 40.544 437.576 40.816C437.586 40.8373 437.586 40.8613 437.576 40.888C437.57 40.9093 437.557 40.9253 437.536 40.936L437.192 41.104C437.17 41.12 437.149 41.1227 437.128 41.112C437.112 41.1013 437.096 41.0853 437.08 41.064C436.957 40.824 436.813 40.648 436.648 40.536C436.488 40.4187 436.301 40.36 436.088 40.36C435.896 40.36 435.728 40.4133 435.584 40.52C435.445 40.6213 435.376 40.7707 435.376 40.968C435.376 41.1867 435.474 41.3467 435.672 41.448C435.869 41.544 436.096 41.6293 436.352 41.704C436.421 41.7253 436.49 41.7467 436.56 41.768C436.629 41.7893 436.696 41.8133 436.76 41.84C436.829 41.8613 436.896 41.8853 436.96 41.912C437.029 41.9387 437.093 41.9707 437.152 42.008C437.21 42.04 437.264 42.0773 437.312 42.12C437.365 42.1627 437.413 42.208 437.456 42.256C437.498 42.304 437.533 42.36 437.56 42.424C437.592 42.4827 437.616 42.5493 437.632 42.624C437.648 42.6987 437.656 42.7787 437.656 42.864C437.656 42.96 437.645 43.0507 437.624 43.136C437.602 43.2213 437.573 43.3013 437.536 43.376C437.498 43.4507 437.453 43.52 437.4 43.584C437.346 43.6427 437.285 43.6987 437.216 43.752C437.146 43.8053 437.072 43.8507 436.992 43.888C436.912 43.9253 436.826 43.9573 436.736 43.984C436.645 44.0107 436.552 44.0293 436.456 44.04C436.36 44.056 436.261 44.064 436.16 44.064C435.76 44.064 435.434 43.9787 435.184 43.808C434.933 43.632 434.738 43.4027 434.6 43.12C434.589 43.0987 434.584 43.0773 434.584 43.056C434.584 43.0347 434.6 43.016 434.632 43L434.976 42.816C434.997 42.8053 435.018 42.8027 435.04 42.808C435.061 42.808 435.077 42.8187 435.088 42.84C435.21 43.096 435.362 43.28 435.544 43.392C435.725 43.504 435.922 43.56 436.136 43.56C436.386 43.56 436.597 43.504 436.768 43.392C436.938 43.28 437.024 43.1147 437.024 42.896C437.024 42.6827 436.922 42.5307 436.72 42.44C436.517 42.3493 436.285 42.2667 436.024 42.192C435.954 42.1707 435.885 42.152 435.816 42.136C435.752 42.1147 435.685 42.0933 435.616 42.072C435.552 42.0453 435.488 42.0187 435.424 41.992C435.36 41.96 435.298 41.928 435.24 41.896C435.181 41.8587 435.125 41.8213 435.072 41.784C435.024 41.7413 434.978 41.6933 434.936 41.64C434.898 41.5867 434.864 41.5307 434.832 41.472C434.805 41.408 434.784 41.3387 434.768 41.264C434.752 41.1893 434.744 41.1067 434.744 41.016C434.744 40.9093 434.754 40.8107 434.776 40.72C434.802 40.6293 434.837 40.5467 434.88 40.472C434.922 40.392 434.973 40.32 435.032 40.256C435.096 40.192 435.165 40.136 435.24 40.088C435.32 40.04 435.402 40 435.488 39.968C435.573 39.9307 435.664 39.904 435.76 39.888C435.861 39.872 435.962 39.864 436.064 39.864Z" fill="white" fill-opacity="0.9"/>
<g clip-path="url(#clip1_1093_28087)">
<path d="M537.761 28.1811H538.544V28.3338H538.232V29.2394H538.072V28.3338H537.761V28.1811ZM539.266 28.9342L538.905 28.1811H538.764L538.634 29.2394H538.794L538.885 28.4762L539.196 29.1173H539.336L539.647 28.4762L539.738 29.2394H539.898L539.768 28.1811H539.627L539.266 28.9342ZM577.541 20.2746C577.54 20.4025 577.572 20.5286 577.632 20.6409C577.691 20.75 577.777 20.8413 577.883 20.9055C577.986 20.9665 578.104 20.9981 578.224 20.9971C578.344 20.9968 578.461 20.9653 578.565 20.9055C578.67 20.841 578.757 20.7498 578.816 20.6409C578.876 20.5286 578.907 20.4025 578.906 20.2746C578.907 20.1467 578.876 20.0206 578.816 19.9082C578.76 19.7959 578.673 19.7028 578.565 19.6406C578.462 19.5796 578.344 19.548 578.224 19.549C578.104 19.5493 577.987 19.5808 577.883 19.6406C577.778 19.7051 577.691 19.7963 577.632 19.9052C577.572 20.0175 577.54 20.1436 577.541 20.2715V20.2746ZM577.652 20.2715C577.654 20.1659 577.678 20.0618 577.722 19.9662C577.77 19.8789 577.839 19.8053 577.923 19.7526C578.008 19.701 578.105 19.673 578.204 19.6712C578.303 19.6716 578.4 19.6997 578.485 19.7526C578.571 19.8063 578.641 19.884 578.686 19.9764C578.733 20.0671 578.758 20.1687 578.756 20.2715C578.758 20.3744 578.733 20.4759 578.686 20.5666C578.638 20.6571 578.569 20.7341 578.485 20.7905C578.4 20.842 578.303 20.8701 578.204 20.8719C578.102 20.8703 578.001 20.8422 577.913 20.7905C577.826 20.7367 577.757 20.6591 577.712 20.5666C577.677 20.4721 577.656 20.3725 577.652 20.2715V20.2715ZM578.224 20.3428C578.242 20.3407 578.26 20.3424 578.277 20.3476C578.294 20.3529 578.31 20.3616 578.324 20.3733C578.346 20.4024 578.357 20.4385 578.354 20.475C578.35 20.5363 578.353 20.5979 578.364 20.6582H578.515V20.6378C578.507 20.6222 578.503 20.6046 578.505 20.587V20.475C578.505 20.4302 578.498 20.3856 578.485 20.3428C578.475 20.302 578.445 20.2817 578.405 20.2613C578.435 20.2471 578.461 20.2241 578.479 20.1951C578.497 20.1662 578.506 20.1326 578.505 20.0985C578.506 20.0638 578.5 20.0291 578.486 19.9973C578.472 19.9655 578.451 19.9375 578.425 19.9154C578.358 19.8662 578.276 19.8412 578.194 19.8441H577.923V20.6684H578.063V20.3428H578.224ZM578.073 19.9764H578.204C578.246 19.9713 578.289 19.9822 578.324 20.007C578.335 20.0194 578.343 20.0339 578.348 20.0497C578.354 20.0654 578.356 20.082 578.354 20.0985C578.353 20.1152 578.348 20.1314 578.339 20.1456C578.331 20.1598 578.319 20.1716 578.304 20.1799C578.268 20.202 578.226 20.2126 578.184 20.2105H578.063V19.9764H578.073ZM549.924 27.9135H551.258L548.147 19.5592H546.773L543.662 27.9135H545.016L545.809 25.8275H549.131L549.924 27.9135ZM547.475 21.167L548.709 24.6675H546.251L547.475 21.167ZM552.653 27.9135H553.918V19.5592H552.653V27.9135ZM562.097 25.7054C561.832 26.0467 561.493 26.3222 561.107 26.5108C560.721 26.6995 560.298 26.7964 559.869 26.7942C558.233 26.7942 556.979 25.4408 556.979 23.7516C556.979 22.0625 558.233 20.6989 559.869 20.6989C560.287 20.7032 560.699 20.798 561.078 20.977C561.457 21.156 561.794 21.4151 562.067 21.7368L563.05 20.9635C562.667 20.4851 562.181 20.1011 561.63 19.8402C561.079 19.5794 560.477 19.4485 559.869 19.4575C557.541 19.4575 555.704 21.3705 555.704 23.7516C555.704 26.1124 557.531 28.0255 559.869 28.0255C561.204 28.0255 562.358 27.4353 563.07 26.4889L562.097 25.7054ZM564.726 27.9135H566.001V24.8506H568.038C569.814 24.8506 570.547 23.5583 570.547 22.2253C570.547 20.8922 569.814 19.5694 568.038 19.5694H564.726V27.9135ZM568.008 20.7396C568.891 20.7396 569.272 21.5028 569.272 22.2049C569.272 22.907 568.881 23.6601 567.958 23.6601H566.001V20.7396H568.008ZM576.879 27.9135H578.224L575.113 19.5592H573.738L570.627 27.9135H571.982L572.775 25.8275H576.096L576.879 27.9135ZM574.43 21.167L575.665 24.6675H573.206L574.43 21.167Z" fill="white"/>
<path d="M521.214 25.3065C522.231 26.5378 523.502 27.5277 524.938 28.2063C526.374 28.885 527.939 29.2359 529.523 29.2344C530.954 29.2363 532.371 28.9503 533.692 28.3932C535.014 27.836 536.213 27.0186 537.22 25.9883C536.781 26.0752 536.334 26.1195 535.886 26.1206C531.771 26.1206 527.446 23.6988 524.776 20.1372L521.214 25.3065ZM525.77 18.6923C528.108 21.5924 531.781 23.7903 535.364 23.7903C536.317 23.7903 537.14 23.6174 537.823 23.2714L532.283 9.26953L525.77 18.6923ZM518.675 18.2344C518.674 20.44 519.328 22.5948 520.551 24.4182L524.144 19.2184C522.93 17.2952 522.187 15.1104 522.187 12.8178C522.187 10.7521 523.351 9.13419 523.974 8.77804C522.358 9.75241 521.019 11.1363 520.09 12.7936C519.161 14.451 518.674 16.3249 518.675 18.2313V18.2344ZM539.228 22.152C539.98 21.1955 540.372 19.8523 540.372 18.1937C540.361 15.8354 539.604 13.5428 538.213 11.6527C536.823 9.76255 534.871 8.37445 532.644 7.69228L539.228 22.152ZM523.311 12.5767C523.311 14.3269 523.994 16.1483 525.118 17.807L532.183 7.57017C531.313 7.34969 530.42 7.23693 529.523 7.23438C524.756 7.23437 523.311 10.0836 523.311 12.5767Z" fill="white"/>
</g>
<path d="M519.251 37V32.0357H520.874C521.413 32.0357 521.817 32.1471 522.088 32.3698C522.361 32.5926 522.497 32.9222 522.497 33.3586C522.497 33.5904 522.431 33.7962 522.299 33.9757C522.167 34.153 521.988 34.2905 521.76 34.3883C522.029 34.4633 522.24 34.6065 522.395 34.8179C522.551 35.027 522.63 35.277 522.63 35.568C522.63 36.0135 522.486 36.3636 522.197 36.6181C521.908 36.8727 521.5 37 520.973 37H519.251ZM519.906 34.6781V36.4647H520.986C521.291 36.4647 521.531 36.3863 521.706 36.2294C521.883 36.0703 521.972 35.8521 521.972 35.5748C521.972 34.977 521.647 34.6781 520.997 34.6781H519.906ZM519.906 34.153H520.894C521.181 34.153 521.409 34.0814 521.58 33.9382C521.752 33.795 521.839 33.6007 521.839 33.3552C521.839 33.0824 521.759 32.8847 521.6 32.7619C521.441 32.6369 521.199 32.5744 520.874 32.5744H519.906V34.153ZM525.78 36.6352C525.535 36.9239 525.175 37.0682 524.699 37.0682C524.306 37.0682 524.006 36.9545 523.799 36.7272C523.595 36.4977 523.491 36.159 523.489 35.7112V33.3109H524.12V35.6941C524.12 36.2533 524.347 36.5329 524.802 36.5329C525.284 36.5329 525.604 36.3533 525.763 35.9942V33.3109H526.394V37H525.794L525.78 36.6352ZM529.504 36.0215C529.504 35.851 529.439 35.7191 529.309 35.626C529.182 35.5305 528.958 35.4487 528.638 35.3805C528.319 35.3123 528.066 35.2304 527.877 35.135C527.691 35.0395 527.552 34.9259 527.461 34.794C527.373 34.6622 527.328 34.5053 527.328 34.3235C527.328 34.0212 527.456 33.7655 527.71 33.5564C527.967 33.3472 528.294 33.2427 528.692 33.2427C529.11 33.2427 529.449 33.3506 529.708 33.5666C529.97 33.7825 530.1 34.0587 530.1 34.3951H529.466C529.466 34.2224 529.392 34.0735 529.244 33.9485C529.099 33.8234 528.915 33.7609 528.692 33.7609C528.462 33.7609 528.283 33.8109 528.153 33.9109C528.024 34.011 527.959 34.1417 527.959 34.303C527.959 34.4553 528.019 34.5701 528.14 34.6474C528.26 34.7247 528.477 34.7986 528.791 34.869C529.107 34.9395 529.363 35.0236 529.558 35.1213C529.754 35.2191 529.898 35.3373 529.991 35.4759C530.087 35.6123 530.134 35.7794 530.134 35.9771C530.134 36.3067 530.002 36.5715 529.739 36.7716C529.475 36.9693 529.133 37.0682 528.713 37.0682C528.417 37.0682 528.156 37.0159 527.928 36.9114C527.701 36.8068 527.523 36.6613 527.393 36.4749C527.266 36.2863 527.202 36.0828 527.202 35.8646H527.833C527.844 36.076 527.928 36.2442 528.085 36.3692C528.244 36.492 528.453 36.5533 528.713 36.5533C528.951 36.5533 529.142 36.5056 529.285 36.4101C529.431 36.3124 529.504 36.1828 529.504 36.0215ZM531.641 37H531.011V33.3109H531.641V37ZM530.959 32.3323C530.959 32.23 530.99 32.1437 531.051 32.0732C531.115 32.0027 531.208 31.9675 531.331 31.9675C531.454 31.9675 531.547 32.0027 531.611 32.0732C531.674 32.1437 531.706 32.23 531.706 32.3323C531.706 32.4346 531.674 32.5199 531.611 32.588C531.547 32.6562 531.454 32.6903 531.331 32.6903C531.208 32.6903 531.115 32.6562 531.051 32.588C530.99 32.5199 530.959 32.4346 530.959 32.3323ZM533.251 33.3109L533.271 33.7746C533.553 33.42 533.921 33.2427 534.376 33.2427C535.155 33.2427 535.549 33.6825 535.555 34.5622V37H534.925V34.5588C534.922 34.2928 534.861 34.0962 534.741 33.9689C534.622 33.8416 534.437 33.778 534.185 33.778C533.98 33.778 533.801 33.8325 533.646 33.9416C533.492 34.0507 533.371 34.1939 533.285 34.3712V37H532.654V33.3109H533.251ZM538.038 37.0682C537.538 37.0682 537.131 36.9045 536.817 36.5772C536.503 36.2476 536.347 35.8078 536.347 35.2577V35.1418C536.347 34.7758 536.416 34.4497 536.554 34.1633C536.695 33.8746 536.891 33.6495 537.141 33.4882C537.393 33.3245 537.666 33.2427 537.959 33.2427C538.439 33.2427 538.812 33.4007 539.078 33.7166C539.343 34.0326 539.476 34.4849 539.476 35.0736V35.3361H536.977C536.986 35.6998 537.092 35.9942 537.294 36.2192C537.499 36.442 537.758 36.5533 538.072 36.5533C538.294 36.5533 538.483 36.5079 538.638 36.417C538.792 36.326 538.928 36.2056 539.043 36.0556L539.429 36.3556C539.12 36.8307 538.656 37.0682 538.038 37.0682ZM537.959 33.7609C537.705 33.7609 537.491 33.8541 537.318 34.0405C537.145 34.2246 537.039 34.4838 536.998 34.8179H538.846V34.7702C538.828 34.4497 538.741 34.2019 538.587 34.0269C538.432 33.8496 538.223 33.7609 537.959 33.7609ZM542.358 36.0215C542.358 35.851 542.293 35.7191 542.163 35.626C542.036 35.5305 541.812 35.4487 541.492 35.3805C541.173 35.3123 540.92 35.2304 540.731 35.135C540.545 35.0395 540.406 34.9259 540.315 34.794C540.227 34.6622 540.182 34.5053 540.182 34.3235C540.182 34.0212 540.31 33.7655 540.564 33.5564C540.821 33.3472 541.148 33.2427 541.546 33.2427C541.964 33.2427 542.303 33.3506 542.562 33.5666C542.824 33.7825 542.954 34.0587 542.954 34.3951H542.32C542.32 34.2224 542.246 34.0735 542.098 33.9485C541.953 33.8234 541.769 33.7609 541.546 33.7609C541.316 33.7609 541.137 33.8109 541.007 33.9109C540.878 34.011 540.813 34.1417 540.813 34.303C540.813 34.4553 540.873 34.5701 540.994 34.6474C541.114 34.7247 541.331 34.7986 541.645 34.869C541.961 34.9395 542.217 35.0236 542.412 35.1213C542.608 35.2191 542.752 35.3373 542.845 35.4759C542.941 35.6123 542.988 35.7794 542.988 35.9771C542.988 36.3067 542.856 36.5715 542.593 36.7716C542.329 36.9693 541.987 37.0682 541.567 37.0682C541.271 37.0682 541.01 37.0159 540.782 36.9114C540.555 36.8068 540.377 36.6613 540.247 36.4749C540.12 36.2863 540.056 36.0828 540.056 35.8646H540.687C540.698 36.076 540.782 36.2442 540.939 36.3692C541.098 36.492 541.307 36.5533 541.567 36.5533C541.805 36.5533 541.996 36.5056 542.139 36.4101C542.285 36.3124 542.358 36.1828 542.358 36.0215ZM545.958 36.0215C545.958 35.851 545.893 35.7191 545.764 35.626C545.636 35.5305 545.412 35.4487 545.092 35.3805C544.774 35.3123 544.52 35.2304 544.332 35.135C544.145 35.0395 544.007 34.9259 543.916 34.794C543.827 34.6622 543.783 34.5053 543.783 34.3235C543.783 34.0212 543.91 33.7655 544.165 33.5564C544.421 33.3472 544.749 33.2427 545.147 33.2427C545.565 33.2427 545.903 33.3506 546.163 33.5666C546.424 33.7825 546.555 34.0587 546.555 34.3951H545.921C545.921 34.2224 545.847 34.0735 545.699 33.9485C545.553 33.8234 545.369 33.7609 545.147 33.7609C544.917 33.7609 544.737 33.8109 544.608 33.9109C544.478 34.011 544.413 34.1417 544.413 34.303C544.413 34.4553 544.474 34.5701 544.594 34.6474C544.715 34.7247 544.932 34.7986 545.245 34.869C545.561 34.9395 545.817 35.0236 546.013 35.1213C546.208 35.2191 546.352 35.3373 546.446 35.4759C546.541 35.6123 546.589 35.7794 546.589 35.9771C546.589 36.3067 546.457 36.5715 546.193 36.7716C545.93 36.9693 545.588 37.0682 545.167 37.0682C544.872 37.0682 544.61 37.0159 544.383 36.9114C544.156 36.8068 543.977 36.6613 543.848 36.4749C543.72 36.2863 543.657 36.0828 543.657 35.8646H544.287C544.299 36.076 544.383 36.2442 544.54 36.3692C544.699 36.492 544.908 36.5533 545.167 36.5533C545.406 36.5533 545.597 36.5056 545.74 36.4101C545.885 36.3124 545.958 36.1828 545.958 36.0215ZM550.704 34.7872C550.143 34.6258 549.734 34.4281 549.477 34.1939C549.222 33.9575 549.095 33.6666 549.095 33.3211C549.095 32.9301 549.251 32.6074 549.562 32.3528C549.876 32.0959 550.282 31.9675 550.783 31.9675C551.123 31.9675 551.427 32.0334 551.693 32.1653C551.961 32.2971 552.168 32.4789 552.313 32.7108C552.461 32.9426 552.535 33.1961 552.535 33.4711H551.877C551.877 33.1711 551.782 32.9358 551.591 32.7653C551.4 32.5926 551.13 32.5062 550.783 32.5062C550.46 32.5062 550.207 32.5778 550.026 32.721C549.846 32.8619 549.756 33.0586 549.756 33.3109C549.756 33.5132 549.842 33.6848 550.012 33.8257C550.185 33.9644 550.477 34.0917 550.888 34.2076C551.302 34.3235 551.625 34.4519 551.857 34.5929C552.091 34.7315 552.263 34.894 552.375 35.0804C552.488 35.2668 552.545 35.4862 552.545 35.7385C552.545 36.1408 552.388 36.4636 552.075 36.7068C551.761 36.9477 551.342 37.0682 550.817 37.0682C550.476 37.0682 550.157 37.0034 549.862 36.8738C549.566 36.742 549.338 36.5624 549.177 36.3351C549.018 36.1078 548.938 35.8498 548.938 35.5612H549.596C549.596 35.8612 549.706 36.0987 549.927 36.2738C550.149 36.4465 550.446 36.5329 550.817 36.5329C551.162 36.5329 551.427 36.4624 551.611 36.3215C551.795 36.1806 551.887 35.9885 551.887 35.7453C551.887 35.5021 551.802 35.3145 551.632 35.1827C551.461 35.0486 551.152 34.9168 550.704 34.7872ZM553.121 35.1213C553.121 34.7599 553.192 34.4349 553.333 34.1462C553.476 33.8575 553.674 33.6348 553.926 33.4779C554.181 33.3211 554.471 33.2427 554.796 33.2427C555.298 33.2427 555.704 33.4166 556.013 33.7643C556.324 34.1121 556.48 34.5747 556.48 35.152V35.1963C556.48 35.5555 556.411 35.8783 556.272 36.1647C556.136 36.4488 555.939 36.6704 555.682 36.8295C555.427 36.9886 555.134 37.0682 554.802 37.0682C554.302 37.0682 553.897 36.8943 553.585 36.5465C553.276 36.1988 553.121 35.7385 553.121 35.1657V35.1213ZM553.756 35.1963C553.756 35.6055 553.85 35.9339 554.039 36.1817C554.23 36.4295 554.484 36.5533 554.802 36.5533C555.123 36.5533 555.377 36.4283 555.566 36.1783C555.755 35.926 555.849 35.5737 555.849 35.1213C555.849 34.7167 555.753 34.3894 555.559 34.1394C555.368 33.8871 555.114 33.7609 554.796 33.7609C554.484 33.7609 554.233 33.8848 554.042 34.1326C553.851 34.3803 553.756 34.7349 553.756 35.1963ZM557.956 37H557.325V31.7629H557.956V37ZM561.246 36.6352C561.001 36.9239 560.641 37.0682 560.166 37.0682C559.772 37.0682 559.472 36.9545 559.265 36.7272C559.061 36.4977 558.958 36.159 558.955 35.7112V33.3109H559.586V35.6941C559.586 36.2533 559.813 36.5329 560.268 36.5329C560.75 36.5329 561.07 36.3533 561.229 35.9942V33.3109H561.86V37H561.26L561.246 36.6352ZM563.677 32.4176V33.3109H564.366V33.7984H563.677V36.0862C563.677 36.234 563.708 36.3454 563.77 36.4204C563.831 36.4931 563.935 36.5295 564.083 36.5295C564.156 36.5295 564.256 36.5158 564.383 36.4886V37C564.217 37.0455 564.056 37.0682 563.899 37.0682C563.617 37.0682 563.405 36.983 563.261 36.8125C563.118 36.642 563.047 36.3999 563.047 36.0862V33.7984H562.375V33.3109H563.047V32.4176H563.677ZM565.791 37H565.161V33.3109H565.791V37ZM565.109 32.3323C565.109 32.23 565.14 32.1437 565.202 32.0732C565.265 32.0027 565.358 31.9675 565.481 31.9675C565.604 31.9675 565.697 32.0027 565.761 32.0732C565.824 32.1437 565.856 32.23 565.856 32.3323C565.856 32.4346 565.824 32.5199 565.761 32.588C565.697 32.6562 565.604 32.6903 565.481 32.6903C565.358 32.6903 565.265 32.6562 565.202 32.588C565.14 32.5199 565.109 32.4346 565.109 32.3323ZM566.637 35.1213C566.637 34.7599 566.707 34.4349 566.848 34.1462C566.992 33.8575 567.189 33.6348 567.442 33.4779C567.696 33.3211 567.986 33.2427 568.311 33.2427C568.813 33.2427 569.219 33.4166 569.528 33.7643C569.84 34.1121 569.995 34.5747 569.995 35.152V35.1963C569.995 35.5555 569.926 35.8783 569.787 36.1647C569.651 36.4488 569.454 36.6704 569.198 36.8295C568.943 36.9886 568.65 37.0682 568.318 37.0682C567.818 37.0682 567.412 36.8943 567.101 36.5465C566.792 36.1988 566.637 35.7385 566.637 35.1657V35.1213ZM567.271 35.1963C567.271 35.6055 567.365 35.9339 567.554 36.1817C567.745 36.4295 568 36.5533 568.318 36.5533C568.638 36.5533 568.893 36.4283 569.082 36.1783C569.27 35.926 569.365 35.5737 569.365 35.1213C569.365 34.7167 569.268 34.3894 569.075 34.1394C568.884 33.8871 568.629 33.7609 568.311 33.7609C568 33.7609 567.748 33.8848 567.558 34.1326C567.367 34.3803 567.271 34.7349 567.271 35.1963ZM571.383 33.3109L571.403 33.7746C571.685 33.42 572.054 33.2427 572.508 33.2427C573.288 33.2427 573.681 33.6825 573.688 34.5622V37H573.057V34.5588C573.055 34.2928 572.993 34.0962 572.873 33.9689C572.755 33.8416 572.57 33.778 572.317 33.778C572.113 33.778 571.933 33.8325 571.779 33.9416C571.624 34.0507 571.504 34.1939 571.417 34.3712V37H570.786V33.3109H571.383ZM576.787 36.0215C576.787 35.851 576.722 35.7191 576.593 35.626C576.466 35.5305 576.242 35.4487 575.921 35.3805C575.603 35.3123 575.349 35.2304 575.161 35.135C574.974 35.0395 574.836 34.9259 574.745 34.794C574.656 34.6622 574.612 34.5053 574.612 34.3235C574.612 34.0212 574.739 33.7655 574.994 33.5564C575.251 33.3472 575.578 33.2427 575.976 33.2427C576.394 33.2427 576.733 33.3506 576.992 33.5666C577.253 33.7825 577.384 34.0587 577.384 34.3951H576.75C576.75 34.2224 576.676 34.0735 576.528 33.9485C576.383 33.8234 576.198 33.7609 575.976 33.7609C575.746 33.7609 575.567 33.8109 575.437 33.9109C575.307 34.011 575.243 34.1417 575.243 34.303C575.243 34.4553 575.303 34.5701 575.423 34.6474C575.544 34.7247 575.761 34.7986 576.075 34.869C576.391 34.9395 576.646 35.0236 576.842 35.1213C577.037 35.2191 577.182 35.3373 577.275 35.4759C577.37 35.6123 577.418 35.7794 577.418 35.9771C577.418 36.3067 577.286 36.5715 577.022 36.7716C576.759 36.9693 576.417 37.0682 575.996 37.0682C575.701 37.0682 575.439 37.0159 575.212 36.9114C574.985 36.8068 574.806 36.6613 574.677 36.4749C574.549 36.2863 574.486 36.0828 574.486 35.8646H575.117C575.128 36.076 575.212 36.2442 575.369 36.3692C575.528 36.492 575.737 36.5533 575.996 36.5533C576.235 36.5533 576.426 36.5056 576.569 36.4101C576.714 36.3124 576.787 36.1828 576.787 36.0215Z" fill="white"/>
<path d="M519.225 43.1306V44H518.933V41.7791H519.752C519.995 41.7791 520.185 41.8412 520.322 41.9652C520.46 42.0893 520.53 42.2535 520.53 42.4579C520.53 42.6735 520.462 42.8397 520.327 42.9567C520.193 43.0726 520 43.1306 519.749 43.1306H519.225ZM519.225 42.8911H519.752C519.908 42.8911 520.028 42.8545 520.112 42.7813C520.195 42.707 520.237 42.6003 520.237 42.4609C520.237 42.3288 520.195 42.223 520.112 42.1437C520.028 42.0644 519.914 42.0232 519.768 42.0201H519.225V42.8911ZM521.657 42.6028C521.614 42.5957 521.568 42.5921 521.518 42.5921C521.333 42.5921 521.207 42.6709 521.141 42.8286V44H520.859V42.3496H521.134L521.138 42.5403C521.231 42.3928 521.362 42.3191 521.532 42.3191C521.587 42.3191 521.628 42.3262 521.657 42.3404V42.6028ZM522.575 44.0305C522.351 44.0305 522.169 43.9573 522.029 43.8109C521.889 43.6634 521.818 43.4666 521.818 43.2206V43.1687C521.818 43.005 521.85 42.8591 521.912 42.7309C521.975 42.6018 522.062 42.5011 522.174 42.4289C522.287 42.3557 522.409 42.3191 522.54 42.3191C522.755 42.3191 522.921 42.3898 523.04 42.5311C523.159 42.6725 523.219 42.8748 523.219 43.1382V43.2556H522.101C522.105 43.4183 522.152 43.55 522.243 43.6507C522.334 43.7504 522.45 43.8002 522.59 43.8002C522.69 43.8002 522.774 43.7798 522.844 43.7392C522.913 43.6985 522.973 43.6446 523.025 43.5775L523.197 43.7117C523.059 43.9242 522.852 44.0305 522.575 44.0305ZM522.54 42.5509C522.426 42.5509 522.331 42.5926 522.253 42.676C522.176 42.7584 522.128 42.8743 522.11 43.0238H522.937V43.0024C522.928 42.8591 522.89 42.7482 522.821 42.6699C522.751 42.5906 522.658 42.5509 522.54 42.5509ZM523.685 44V42.5677H523.425V42.3496H523.685V42.1803C523.685 42.0033 523.733 41.8666 523.827 41.77C523.922 41.6734 524.056 41.6251 524.229 41.6251C524.294 41.6251 524.358 41.6337 524.422 41.651L524.407 41.8798C524.359 41.8706 524.308 41.8661 524.254 41.8661C524.163 41.8661 524.092 41.893 524.042 41.9469C523.993 41.9998 523.968 42.0761 523.968 42.1757V42.3496H524.32V42.5677H523.968V44H523.685ZM525.281 44.0305C525.057 44.0305 524.875 43.9573 524.735 43.8109C524.595 43.6634 524.524 43.4666 524.524 43.2206V43.1687C524.524 43.005 524.555 42.8591 524.617 42.7309C524.681 42.6018 524.768 42.5011 524.88 42.4289C524.993 42.3557 525.115 42.3191 525.246 42.3191C525.46 42.3191 525.627 42.3898 525.746 42.5311C525.865 42.6725 525.925 42.8748 525.925 43.1382V43.2556H524.807C524.811 43.4183 524.858 43.55 524.948 43.6507C525.04 43.7504 525.156 43.8002 525.296 43.8002C525.396 43.8002 525.48 43.7798 525.549 43.7392C525.619 43.6985 525.679 43.6446 525.731 43.5775L525.903 43.7117C525.765 43.9242 525.558 44.0305 525.281 44.0305ZM525.246 42.5509C525.132 42.5509 525.036 42.5926 524.959 42.676C524.882 42.7584 524.834 42.8743 524.816 43.0238H525.642V43.0024C525.634 42.8591 525.596 42.7482 525.527 42.6699C525.457 42.5906 525.364 42.5509 525.246 42.5509ZM527.05 42.6028C527.008 42.5957 526.961 42.5921 526.912 42.5921C526.726 42.5921 526.601 42.6709 526.535 42.8286V44H526.253V42.3496H526.527L526.532 42.5403C526.624 42.3928 526.755 42.3191 526.925 42.3191C526.98 42.3191 527.022 42.3262 527.05 42.3404V42.6028ZM528.109 42.6028C528.066 42.5957 528.02 42.5921 527.97 42.5921C527.785 42.5921 527.659 42.6709 527.593 42.8286V44H527.311V42.3496H527.586L527.59 42.5403C527.683 42.3928 527.814 42.3191 527.984 42.3191C528.039 42.3191 528.08 42.3262 528.109 42.3404V42.6028ZM529.027 44.0305C528.803 44.0305 528.621 43.9573 528.481 43.8109C528.341 43.6634 528.271 43.4666 528.271 43.2206V43.1687C528.271 43.005 528.302 42.8591 528.364 42.7309C528.427 42.6018 528.514 42.5011 528.626 42.4289C528.739 42.3557 528.861 42.3191 528.992 42.3191C529.207 42.3191 529.373 42.3898 529.492 42.5311C529.611 42.6725 529.671 42.8748 529.671 43.1382V43.2556H528.553C528.557 43.4183 528.604 43.55 528.695 43.6507C528.786 43.7504 528.902 43.8002 529.042 43.8002C529.142 43.8002 529.226 43.7798 529.296 43.7392C529.365 43.6985 529.425 43.6446 529.477 43.5775L529.65 43.7117C529.511 43.9242 529.304 44.0305 529.027 44.0305ZM528.992 42.5509C528.878 42.5509 528.783 42.5926 528.705 42.676C528.628 42.7584 528.58 42.8743 528.562 43.0238H529.389V43.0024C529.381 42.8591 529.342 42.7482 529.273 42.6699C529.204 42.5906 529.11 42.5509 528.992 42.5509ZM529.93 43.1611C529.93 42.9079 529.99 42.7045 530.11 42.5509C530.23 42.3964 530.387 42.3191 530.581 42.3191C530.775 42.3191 530.928 42.3852 531.041 42.5174V41.6571H531.323V44H531.063L531.05 43.8231C530.937 43.9614 530.78 44.0305 530.578 44.0305C530.387 44.0305 530.231 43.9522 530.11 43.7956C529.99 43.639 529.93 43.4346 529.93 43.1824V43.1611ZM530.212 43.1931C530.212 43.3802 530.251 43.5266 530.328 43.6324C530.406 43.7382 530.512 43.791 530.649 43.791C530.828 43.791 530.958 43.7107 531.041 43.55V42.7919C530.956 42.6364 530.827 42.5586 530.652 42.5586C530.513 42.5586 530.406 42.612 530.328 42.7187C530.251 42.8255 530.212 42.9836 530.212 43.1931ZM532.874 43.1306V44H532.581V41.7791H533.4C533.643 41.7791 533.833 41.8412 533.971 41.9652C534.109 42.0893 534.178 42.2535 534.178 42.4579C534.178 42.6735 534.111 42.8397 533.975 42.9567C533.841 43.0726 533.648 43.1306 533.397 43.1306H532.874ZM532.874 42.8911H533.4C533.557 42.8911 533.677 42.8545 533.76 42.7813C533.844 42.707 533.885 42.6003 533.885 42.4609C533.885 42.3288 533.844 42.223 533.76 42.1437C533.677 42.0644 533.562 42.0232 533.417 42.0201H532.874V42.8911ZM535.305 42.6028C535.263 42.5957 535.216 42.5921 535.167 42.5921C534.982 42.5921 534.856 42.6709 534.79 42.8286V44H534.508V42.3496H534.782L534.787 42.5403C534.879 42.3928 535.011 42.3191 535.18 42.3191C535.235 42.3191 535.277 42.3262 535.305 42.3404V42.6028ZM535.461 43.1595C535.461 42.9979 535.493 42.8524 535.556 42.7233C535.62 42.5942 535.708 42.4945 535.821 42.4243C535.935 42.3542 536.065 42.3191 536.21 42.3191C536.435 42.3191 536.616 42.3969 536.754 42.5525C536.894 42.708 536.963 42.915 536.963 43.1733V43.1931C536.963 43.3538 536.932 43.4982 536.87 43.6263C536.809 43.7534 536.721 43.8526 536.607 43.9237C536.493 43.9949 536.361 44.0305 536.213 44.0305C535.989 44.0305 535.808 43.9527 535.668 43.7971C535.53 43.6415 535.461 43.4356 535.461 43.1794V43.1595ZM535.745 43.1931C535.745 43.3761 535.787 43.5231 535.871 43.6339C535.957 43.7448 536.071 43.8002 536.213 43.8002C536.356 43.8002 536.47 43.7443 536.555 43.6324C536.639 43.5195 536.681 43.3619 536.681 43.1595C536.681 42.9785 536.638 42.8321 536.552 42.7203C536.466 42.6074 536.352 42.5509 536.21 42.5509C536.071 42.5509 535.958 42.6064 535.873 42.7172C535.787 42.828 535.745 42.9867 535.745 43.1931ZM537.841 43.6171L538.249 42.3496H538.538L537.946 44H537.731L537.133 42.3496H537.421L537.841 43.6171ZM539.116 44H538.834V42.3496H539.116V44ZM538.811 41.9118C538.811 41.8661 538.824 41.8274 538.852 41.7959C538.88 41.7644 538.922 41.7486 538.977 41.7486C539.032 41.7486 539.073 41.7644 539.102 41.7959C539.13 41.8274 539.145 41.8661 539.145 41.9118C539.145 41.9576 539.13 41.9957 539.102 42.0262C539.073 42.0567 539.032 42.072 538.977 42.072C538.922 42.072 538.88 42.0567 538.852 42.0262C538.824 41.9957 538.811 41.9576 538.811 41.9118ZM539.5 43.1611C539.5 42.9079 539.56 42.7045 539.68 42.5509C539.8 42.3964 539.957 42.3191 540.151 42.3191C540.345 42.3191 540.498 42.3852 540.611 42.5174V41.6571H540.893V44H540.633L540.62 43.8231C540.507 43.9614 540.35 44.0305 540.148 44.0305C539.957 44.0305 539.801 43.9522 539.68 43.7956C539.56 43.639 539.5 43.4346 539.5 43.1824V43.1611ZM539.782 43.1931C539.782 43.3802 539.821 43.5266 539.898 43.6324C539.975 43.7382 540.082 43.791 540.218 43.791C540.397 43.791 540.528 43.7107 540.611 43.55V42.7919C540.526 42.6364 540.396 42.5586 540.222 42.5586C540.083 42.5586 539.975 42.612 539.898 42.7187C539.821 42.8255 539.782 42.9836 539.782 43.1931ZM542.017 44.0305C541.793 44.0305 541.611 43.9573 541.471 43.8109C541.33 43.6634 541.26 43.4666 541.26 43.2206V43.1687C541.26 43.005 541.291 42.8591 541.353 42.7309C541.416 42.6018 541.504 42.5011 541.616 42.4289C541.729 42.3557 541.851 42.3191 541.982 42.3191C542.196 42.3191 542.363 42.3898 542.482 42.5311C542.601 42.6725 542.661 42.8748 542.661 43.1382V43.2556H541.542C541.547 43.4183 541.594 43.55 541.684 43.6507C541.776 43.7504 541.892 43.8002 542.032 43.8002C542.132 43.8002 542.216 43.7798 542.285 43.7392C542.354 43.6985 542.415 43.6446 542.467 43.5775L542.639 43.7117C542.501 43.9242 542.293 44.0305 542.017 44.0305ZM541.982 42.5509C541.868 42.5509 541.772 42.5926 541.695 42.676C541.618 42.7584 541.57 42.8743 541.552 43.0238H542.378V43.0024C542.37 42.8591 542.332 42.7482 542.262 42.6699C542.193 42.5906 542.1 42.5509 541.982 42.5509ZM543.786 42.6028C543.744 42.5957 543.697 42.5921 543.647 42.5921C543.462 42.5921 543.337 42.6709 543.271 42.8286V44H542.988V42.3496H543.263L543.268 42.5403C543.36 42.3928 543.491 42.3191 543.661 42.3191C543.716 42.3191 543.758 42.3262 543.786 42.3404V42.6028ZM544.747 43.1595C544.747 42.9979 544.779 42.8524 544.842 42.7233C544.906 42.5942 544.994 42.4945 545.107 42.4243C545.221 42.3542 545.351 42.3191 545.496 42.3191C545.721 42.3191 545.902 42.3969 546.041 42.5525C546.18 42.708 546.25 42.915 546.25 43.1733V43.1931C546.25 43.3538 546.219 43.4982 546.157 43.6263C546.096 43.7534 546.008 43.8526 545.893 43.9237C545.779 43.9949 545.648 44.0305 545.499 44.0305C545.275 44.0305 545.094 43.9527 544.955 43.7971C544.816 43.6415 544.747 43.4356 544.747 43.1794V43.1595ZM545.031 43.1931C545.031 43.3761 545.073 43.5231 545.158 43.6339C545.243 43.7448 545.357 43.8002 545.499 43.8002C545.643 43.8002 545.756 43.7443 545.841 43.6324C545.925 43.5195 545.967 43.3619 545.967 43.1595C545.967 42.9785 545.924 42.8321 545.838 42.7203C545.752 42.6074 545.638 42.5509 545.496 42.5509C545.357 42.5509 545.244 42.6064 545.159 42.7172C545.074 42.828 545.031 42.9867 545.031 43.1931ZM546.742 44V42.5677H546.481V42.3496H546.742V42.1803C546.742 42.0033 546.79 41.8666 546.884 41.77C546.979 41.6734 547.112 41.6251 547.285 41.6251C547.35 41.6251 547.415 41.6337 547.479 41.651L547.464 41.8798C547.416 41.8706 547.365 41.8661 547.311 41.8661C547.22 41.8661 547.149 41.893 547.099 41.9469C547.049 41.9998 547.024 42.0761 547.024 42.1757V42.3496H547.377V42.5677H547.024V44H546.742ZM549.733 43.0192H548.802V44H548.509V41.7791H549.884V42.0201H548.802V42.7797H549.733V43.0192ZM550.498 44H550.215V42.3496H550.498V44ZM550.193 41.9118C550.193 41.8661 550.206 41.8274 550.234 41.7959C550.262 41.7644 550.304 41.7486 550.359 41.7486C550.414 41.7486 550.455 41.7644 550.484 41.7959C550.512 41.8274 550.527 41.8661 550.527 41.9118C550.527 41.9576 550.512 41.9957 550.484 42.0262C550.455 42.0567 550.414 42.072 550.359 42.072C550.304 42.072 550.262 42.0567 550.234 42.0262C550.206 41.9957 550.193 41.9576 550.193 41.9118ZM551.218 42.3496L551.227 42.557C551.353 42.3984 551.518 42.3191 551.721 42.3191C552.07 42.3191 552.246 42.5159 552.249 42.9094V44H551.967V42.9079C551.966 42.7889 551.938 42.7009 551.884 42.644C551.831 42.587 551.748 42.5586 551.636 42.5586C551.544 42.5586 551.464 42.583 551.395 42.6318C551.325 42.6806 551.272 42.7447 551.233 42.824V44H550.951V42.3496H551.218ZM553.693 44C553.677 43.9675 553.664 43.9095 553.654 43.8261C553.522 43.9624 553.366 44.0305 553.184 44.0305C553.021 44.0305 552.887 43.9847 552.783 43.8932C552.679 43.8007 552.627 43.6837 552.627 43.5424C552.627 43.3705 552.692 43.2373 552.822 43.1428C552.953 43.0472 553.137 42.9994 553.374 42.9994H553.649V42.8697C553.649 42.7711 553.619 42.6928 553.561 42.6348C553.502 42.5759 553.415 42.5464 553.3 42.5464C553.199 42.5464 553.115 42.5718 553.046 42.6226C552.978 42.6735 552.944 42.735 552.944 42.8072H552.661C552.661 42.7248 552.69 42.6455 552.748 42.5692C552.806 42.492 552.886 42.4309 552.985 42.3862C553.086 42.3415 553.196 42.3191 553.316 42.3191C553.507 42.3191 553.656 42.3669 553.763 42.4625C553.871 42.557 553.927 42.6877 553.931 42.8545V43.6141C553.931 43.7656 553.95 43.8861 553.989 43.9756V44H553.693ZM553.225 43.7849C553.313 43.7849 553.397 43.762 553.477 43.7163C553.556 43.6705 553.613 43.611 553.649 43.5378V43.1992H553.428C553.082 43.1992 552.909 43.3004 552.909 43.5027C552.909 43.5912 552.939 43.6604 552.998 43.7102C553.057 43.76 553.132 43.7849 553.225 43.7849ZM554.64 42.3496L554.65 42.557C554.776 42.3984 554.94 42.3191 555.144 42.3191C555.493 42.3191 555.669 42.5159 555.672 42.9094V44H555.389V42.9079C555.388 42.7889 555.361 42.7009 555.307 42.644C555.254 42.587 555.171 42.5586 555.058 42.5586C554.967 42.5586 554.887 42.583 554.817 42.6318C554.748 42.6806 554.694 42.7447 554.656 42.824V44H554.374V42.3496H554.64ZM556.759 43.8002C556.86 43.8002 556.948 43.7697 557.023 43.7087C557.098 43.6476 557.14 43.5714 557.148 43.4799H557.415C557.41 43.5744 557.377 43.6644 557.317 43.7498C557.257 43.8353 557.177 43.9034 557.076 43.9542C556.977 44.0051 556.871 44.0305 556.759 44.0305C556.534 44.0305 556.355 43.9558 556.222 43.8063C556.09 43.6558 556.024 43.4504 556.024 43.1901V43.1428C556.024 42.9821 556.053 42.8392 556.112 42.7142C556.171 42.5891 556.256 42.492 556.366 42.4228C556.476 42.3537 556.607 42.3191 556.758 42.3191C556.943 42.3191 557.096 42.3745 557.218 42.4854C557.341 42.5962 557.407 42.7401 557.415 42.917H557.148C557.14 42.8102 557.099 42.7228 557.026 42.6547C556.954 42.5855 556.864 42.5509 556.758 42.5509C556.614 42.5509 556.503 42.6028 556.424 42.7065C556.345 42.8092 556.306 42.9582 556.306 43.1534V43.2068C556.306 43.397 556.345 43.5434 556.424 43.6461C556.502 43.7488 556.614 43.8002 556.759 43.8002ZM558.039 44H557.757V42.3496H558.039V44ZM557.734 41.9118C557.734 41.8661 557.748 41.8274 557.775 41.7959C557.803 41.7644 557.845 41.7486 557.9 41.7486C557.955 41.7486 557.997 41.7644 558.025 41.7959C558.054 41.8274 558.068 41.8661 558.068 41.9118C558.068 41.9576 558.054 41.9957 558.025 42.0262C557.997 42.0567 557.955 42.072 557.9 42.072C557.845 42.072 557.803 42.0567 557.775 42.0262C557.748 41.9957 557.734 41.9576 557.734 41.9118ZM559.511 44C559.495 43.9675 559.481 43.9095 559.471 43.8261C559.34 43.9624 559.183 44.0305 559.001 44.0305C558.839 44.0305 558.705 43.9847 558.6 43.8932C558.496 43.8007 558.445 43.6837 558.445 43.5424C558.445 43.3705 558.51 43.2373 558.64 43.1428C558.771 43.0472 558.955 42.9994 559.192 42.9994H559.467V42.8697C559.467 42.7711 559.437 42.6928 559.378 42.6348C559.319 42.5759 559.232 42.5464 559.117 42.5464C559.017 42.5464 558.932 42.5718 558.864 42.6226C558.796 42.6735 558.762 42.735 558.762 42.8072H558.478C558.478 42.7248 558.507 42.6455 558.565 42.5692C558.624 42.492 558.703 42.4309 558.803 42.3862C558.904 42.3415 559.014 42.3191 559.134 42.3191C559.324 42.3191 559.473 42.3669 559.581 42.4625C559.689 42.557 559.745 42.6877 559.749 42.8545V43.6141C559.749 43.7656 559.768 43.8861 559.807 43.9756V44H559.511ZM559.043 43.7849C559.131 43.7849 559.215 43.762 559.294 43.7163C559.374 43.6705 559.431 43.611 559.467 43.5378V43.1992H559.245C558.9 43.1992 558.727 43.3004 558.727 43.5027C558.727 43.5912 558.756 43.6604 558.815 43.7102C558.874 43.76 558.95 43.7849 559.043 43.7849ZM560.498 44H560.216V41.6571H560.498V44ZM562.996 43.4204H562.066L561.857 44H561.555L562.403 41.7791H562.659L563.509 44H563.208L562.996 43.4204ZM562.154 43.1794H562.909L562.531 42.1406L562.154 43.1794ZM565.158 43.1931C565.158 43.4443 565.1 43.6466 564.985 43.8002C564.87 43.9537 564.715 44.0305 564.518 44.0305C564.318 44.0305 564.161 43.967 564.046 43.8398V44.6345H563.763V42.3496H564.021L564.035 42.5326C564.15 42.3903 564.309 42.3191 564.514 42.3191C564.712 42.3191 564.869 42.3938 564.984 42.5433C565.1 42.6928 565.158 42.9007 565.158 43.1672V43.1931ZM564.875 43.1611C564.875 42.975 564.836 42.828 564.756 42.7203C564.677 42.6125 564.568 42.5586 564.43 42.5586C564.259 42.5586 564.131 42.6343 564.046 42.7858V43.5744C564.13 43.7249 564.259 43.8002 564.433 43.8002C564.568 43.8002 564.676 43.7468 564.755 43.64C564.835 43.5322 564.875 43.3726 564.875 43.1611ZM566.912 43.1931C566.912 43.4443 566.854 43.6466 566.739 43.8002C566.624 43.9537 566.469 44.0305 566.273 44.0305C566.072 44.0305 565.915 43.967 565.8 43.8398V44.6345H565.518V42.3496H565.775L565.789 42.5326C565.904 42.3903 566.064 42.3191 566.268 42.3191C566.466 42.3191 566.623 42.3938 566.738 42.5433C566.854 42.6928 566.912 42.9007 566.912 43.1672V43.1931ZM566.63 43.1611C566.63 42.975 566.59 42.828 566.511 42.7203C566.431 42.6125 566.322 42.5586 566.184 42.5586C566.013 42.5586 565.885 42.6343 565.8 42.7858V43.5744C565.884 43.7249 566.013 43.8002 566.187 43.8002C566.322 43.8002 566.43 43.7468 566.509 43.64C566.589 43.5322 566.63 43.3726 566.63 43.1611ZM567.578 44H567.296V41.6571H567.578V44ZM568.338 44H568.056V42.3496H568.338V44ZM568.033 41.9118C568.033 41.8661 568.047 41.8274 568.074 41.7959C568.102 41.7644 568.144 41.7486 568.199 41.7486C568.254 41.7486 568.296 41.7644 568.324 41.7959C568.353 41.8274 568.367 41.8661 568.367 41.9118C568.367 41.9576 568.353 41.9957 568.324 42.0262C568.296 42.0567 568.254 42.072 568.199 42.072C568.144 42.072 568.102 42.0567 568.074 42.0262C568.047 41.9957 568.033 41.9576 568.033 41.9118ZM569.453 43.8002C569.554 43.8002 569.642 43.7697 569.717 43.7087C569.792 43.6476 569.834 43.5714 569.842 43.4799H570.109C570.104 43.5744 570.071 43.6644 570.011 43.7498C569.951 43.8353 569.871 43.9034 569.77 43.9542C569.67 44.0051 569.565 44.0305 569.453 44.0305C569.228 44.0305 569.049 43.9558 568.916 43.8063C568.784 43.6558 568.718 43.4504 568.718 43.1901V43.1428C568.718 42.9821 568.747 42.8392 568.806 42.7142C568.865 42.5891 568.95 42.492 569.059 42.4228C569.17 42.3537 569.301 42.3191 569.451 42.3191C569.636 42.3191 569.79 42.3745 569.912 42.4854C570.035 42.5962 570.101 42.7401 570.109 42.917H569.842C569.834 42.8102 569.793 42.7228 569.72 42.6547C569.648 42.5855 569.558 42.5509 569.451 42.5509C569.308 42.5509 569.197 42.6028 569.117 42.7065C569.039 42.8092 569 42.9582 569 43.1534V43.2068C569 43.397 569.039 43.5434 569.117 43.6461C569.196 43.7488 569.307 43.8002 569.453 43.8002ZM571.445 44C571.429 43.9675 571.415 43.9095 571.405 43.8261C571.274 43.9624 571.118 44.0305 570.935 44.0305C570.773 44.0305 570.639 43.9847 570.534 43.8932C570.431 43.8007 570.379 43.6837 570.379 43.5424C570.379 43.3705 570.444 43.2373 570.574 43.1428C570.705 43.0472 570.889 42.9994 571.126 42.9994H571.401V42.8697C571.401 42.7711 571.371 42.6928 571.312 42.6348C571.253 42.5759 571.166 42.5464 571.051 42.5464C570.951 42.5464 570.866 42.5718 570.798 42.6226C570.73 42.6735 570.696 42.735 570.696 42.8072H570.412C570.412 42.7248 570.441 42.6455 570.499 42.5692C570.558 42.492 570.638 42.4309 570.737 42.3862C570.838 42.3415 570.948 42.3191 571.068 42.3191C571.258 42.3191 571.407 42.3669 571.515 42.4625C571.623 42.557 571.679 42.6877 571.683 42.8545V43.6141C571.683 43.7656 571.702 43.8861 571.741 43.9756V44H571.445ZM570.977 43.7849C571.065 43.7849 571.149 43.762 571.228 43.7163C571.308 43.6705 571.365 43.611 571.401 43.5378V43.1992H571.18C570.834 43.1992 570.661 43.3004 570.661 43.5027C570.661 43.5912 570.69 43.6604 570.749 43.7102C570.808 43.76 570.884 43.7849 570.977 43.7849ZM572.508 41.95V42.3496H572.816V42.5677H572.508V43.5912C572.508 43.6573 572.522 43.7071 572.549 43.7407C572.577 43.7732 572.624 43.7895 572.69 43.7895C572.722 43.7895 572.767 43.7834 572.824 43.7712V44C572.75 44.0203 572.677 44.0305 572.607 44.0305C572.481 44.0305 572.386 43.9924 572.322 43.9161C572.258 43.8398 572.226 43.7315 572.226 43.5912V42.5677H571.925V42.3496H572.226V41.95H572.508ZM573.454 44H573.172V42.3496H573.454V44ZM573.149 41.9118C573.149 41.8661 573.162 41.8274 573.19 41.7959C573.218 41.7644 573.26 41.7486 573.315 41.7486C573.37 41.7486 573.412 41.7644 573.44 41.7959C573.469 41.8274 573.483 41.8661 573.483 41.9118C573.483 41.9576 573.469 41.9957 573.44 42.0262C573.412 42.0567 573.37 42.072 573.315 42.072C573.26 42.072 573.218 42.0567 573.19 42.0262C573.162 41.9957 573.149 41.9576 573.149 41.9118ZM573.832 43.1595C573.832 42.9979 573.864 42.8524 573.927 42.7233C573.991 42.5942 574.079 42.4945 574.192 42.4243C574.306 42.3542 574.436 42.3191 574.581 42.3191C574.806 42.3191 574.987 42.3969 575.126 42.5525C575.265 42.708 575.335 42.915 575.335 43.1733V43.1931C575.335 43.3538 575.304 43.4982 575.241 43.6263C575.18 43.7534 575.093 43.8526 574.978 43.9237C574.864 43.9949 574.733 44.0305 574.584 44.0305C574.36 44.0305 574.179 43.9527 574.04 43.7971C573.901 43.6415 573.832 43.4356 573.832 43.1794V43.1595ZM574.116 43.1931C574.116 43.3761 574.158 43.5231 574.242 43.6339C574.328 43.7448 574.442 43.8002 574.584 43.8002C574.727 43.8002 574.841 43.7443 574.926 43.6324C575.01 43.5195 575.052 43.3619 575.052 43.1595C575.052 42.9785 575.009 42.8321 574.923 42.7203C574.837 42.6074 574.723 42.5509 574.581 42.5509C574.442 42.5509 574.329 42.6064 574.244 42.7172C574.159 42.828 574.116 42.9867 574.116 43.1931ZM575.955 42.3496L575.964 42.557C576.091 42.3984 576.255 42.3191 576.459 42.3191C576.807 42.3191 576.983 42.5159 576.986 42.9094V44H576.704V42.9079C576.703 42.7889 576.676 42.7009 576.622 42.644C576.569 42.587 576.486 42.5586 576.373 42.5586C576.282 42.5586 576.201 42.583 576.132 42.6318C576.063 42.6806 576.009 42.7447 575.971 42.824V44H575.688V42.3496H575.955ZM578.373 43.5622C578.373 43.486 578.344 43.427 578.286 43.3853C578.229 43.3426 578.129 43.306 577.986 43.2755C577.843 43.245 577.73 43.2084 577.645 43.1656C577.562 43.1229 577.5 43.0721 577.459 43.0131C577.42 42.9541 577.4 42.884 577.4 42.8026C577.4 42.6674 577.457 42.553 577.571 42.4594C577.686 42.3659 577.832 42.3191 578.01 42.3191C578.197 42.3191 578.349 42.3674 578.464 42.464C578.581 42.5606 578.64 42.6842 578.64 42.8347H578.356C578.356 42.7574 578.323 42.6908 578.257 42.6348C578.192 42.5789 578.11 42.5509 578.01 42.5509C577.907 42.5509 577.827 42.5733 577.769 42.6181C577.711 42.6628 577.682 42.7213 577.682 42.7935C577.682 42.8616 577.709 42.913 577.763 42.9475C577.817 42.9821 577.914 43.0151 578.054 43.0467C578.196 43.0782 578.31 43.1158 578.397 43.1595C578.485 43.2033 578.549 43.2561 578.591 43.3182C578.634 43.3792 578.655 43.4539 578.655 43.5424C578.655 43.6899 578.596 43.8083 578.478 43.8978C578.36 43.9863 578.207 44.0305 578.019 44.0305C577.887 44.0305 577.77 44.0071 577.668 43.9603C577.567 43.9136 577.487 43.8485 577.429 43.7651C577.372 43.6807 577.343 43.5897 577.343 43.4921H577.626C577.631 43.5866 577.668 43.6619 577.738 43.7178C577.81 43.7727 577.903 43.8002 578.019 43.8002C578.126 43.8002 578.211 43.7788 578.275 43.7361C578.34 43.6924 578.373 43.6344 578.373 43.5622Z" fill="white"/>
<defs>
<linearGradient id="paint0_linear_1093_28087" x1="115.594" y1="34.253" x2="115.594" y2="15.2895" gradientUnits="userSpaceOnUse">
<stop offset="0.7144" stop-color="#116BF2"/>
<stop offset="1" stop-color="#1E50E5"/>
</linearGradient>
<linearGradient id="paint1_linear_1093_28087" x1="121.125" y1="34.253" x2="121.125" y2="15.2895" gradientUnits="userSpaceOnUse">
<stop offset="0.7144" stop-color="#116BF2"/>
<stop offset="1" stop-color="#1E50E5"/>
</linearGradient>
<linearGradient id="paint2_linear_1093_28087" x1="124.294" y1="24.9389" x2="133.097" y2="33.9242" gradientUnits="userSpaceOnUse">
<stop offset="0.4076" stop-color="#116BF2"/>
<stop offset="1" stop-color="#185DEC"/>
</linearGradient>
<linearGradient id="paint3_linear_1093_28087" x1="130.343" y1="27.2753" x2="130.343" y2="15.2473" gradientUnits="userSpaceOnUse">
<stop offset="0.578" stop-color="#116BF2"/>
<stop offset="1" stop-color="#1E50E5"/>
</linearGradient>
<linearGradient id="paint4_linear_1093_28087" x1="113.403" y1="15.0636" x2="109.792" y2="18.7498" gradientUnits="userSpaceOnUse">
<stop offset="0.0331" stop-color="#59C5FF"/>
<stop offset="0.989" stop-color="#21B1FF"/>
</linearGradient>
<linearGradient id="paint5_linear_1093_28087" x1="122.392" y1="15.8536" x2="126.004" y2="19.5399" gradientUnits="userSpaceOnUse">
<stop offset="0.0387" stop-color="#59C5FF"/>
<stop offset="0.989" stop-color="#21B1FF"/>
</linearGradient>
<linearGradient id="paint6_linear_1093_28087" x1="130.629" y1="25.4986" x2="127.921" y2="22.7339" gradientUnits="userSpaceOnUse">
<stop offset="0.0387" stop-color="#57C4FF"/>
<stop offset="0.989" stop-color="#21B1FF"/>
</linearGradient>
<clipPath id="clip0_1093_28087">
<rect width="69" height="40" fill="white" transform="translate(327.5 6)"/>
</clipPath>
<clipPath id="clip1_1093_28087">
<rect width="60.2331" height="22" fill="white" transform="translate(518.675 7)"/>
</clipPath>
</defs>
</svg>
