<svg width="25" height="25" viewBox="0 0 25 25" fill="none" xmlns="http://www.w3.org/2000/svg">
<path d="M21.5521 12.0311L20.4531 12.3696C20.0625 12.4894 19.7604 12.7967 19.6406 13.1821L19.3021 14.2811C19.1042 14.9321 18.1823 14.9321 17.9844 14.2811L17.6458 13.1821C17.526 12.7915 17.2188 12.4894 16.8333 12.3696L15.7344 12.0311C15.0833 11.8332 15.0833 10.9113 15.7344 10.7134L16.8333 10.3748C17.224 10.255 17.526 9.94775 17.6458 9.56234L17.9844 8.46338C18.1823 7.81234 19.1042 7.81234 19.3021 8.46338L19.6406 9.56234C19.7604 9.95296 20.0677 10.255 20.4531 10.3748L21.5521 10.7134C22.2031 10.9113 22.2031 11.8332 21.5521 12.0311Z" fill="url(#paint0_radial_1093_27257)"/>
<path d="M8.65593 2.49479C11.8799 2.49479 14.5049 4.72396 14.5622 7.82812C14.5934 8.70312 13.958 9.18229 13.2653 9.18229C12.5726 9.18229 12.0309 8.69792 11.9997 7.88542C11.9684 6.13542 10.4945 4.83854 8.62467 4.83854C6.87467 4.83854 5.55176 6.07292 5.55176 7.76042C5.55176 9.59896 6.78613 10.4115 9.34863 11.349C12.0934 12.3437 14.5934 13.5208 14.5934 17.0156C14.5934 20.0625 12.2132 22.5 8.89551 22.5C5.5778 22.5 2.95801 20.2083 2.95801 17.1042C2.95801 15.1771 3.8903 13.8177 4.79655 13.8177C5.58301 13.8177 6.06217 14.3281 6.06217 15.0208C6.06217 15.625 5.55176 15.8958 5.55176 16.9792C5.55176 18.9062 7.11947 20.1458 8.89551 20.1458C10.7653 20.1458 11.9997 18.849 11.9997 17.2812C11.9997 15.3542 10.7653 14.5365 8.2028 13.6354C5.33822 12.6094 2.95801 11.375 2.95801 7.96875C2.95801 4.89583 5.42676 2.48438 8.65593 2.48438V2.49479Z" fill="url(#paint1_linear_1093_27257)"/>
<defs>
<radialGradient id="paint0_radial_1093_27257" cx="0" cy="0" r="1" gradientUnits="userSpaceOnUse" gradientTransform="translate(15.7905 8.04171) rotate(48.89) scale(7.07292 6.79)">
<stop offset="0.34" stop-color="#9D60FF"/>
<stop offset="0.52" stop-color="#5A99F1"/>
<stop offset="0.59" stop-color="#32B3E8"/>
<stop offset="0.68" stop-color="#0DCCE0"/>
<stop offset="0.72" stop-color="#00D6DE"/>
<stop offset="0.74" stop-color="#00D6D7"/>
<stop offset="0.77" stop-color="#00D6C6"/>
<stop offset="0.81" stop-color="#00D6AA"/>
<stop offset="0.84" stop-color="#00D682"/>
<stop offset="0.88" stop-color="#00D650"/>
<stop offset="0.9" stop-color="#00D639"/>
</radialGradient>
<linearGradient id="paint1_linear_1093_27257" x1="12.2393" y1="2.59896" x2="5.51009" y2="21.8542" gradientUnits="userSpaceOnUse">
<stop offset="0.27" stop-color="#9D60FF"/>
<stop offset="0.33" stop-color="#7C78F8"/>
<stop offset="0.48" stop-color="#29B7E6"/>
<stop offset="0.54" stop-color="#00D6DE"/>
<stop offset="0.57" stop-color="#00D6DA"/>
<stop offset="0.59" stop-color="#00D6D0"/>
<stop offset="0.6" stop-color="#00D6C0"/>
<stop offset="0.62" stop-color="#00D6A8"/>
<stop offset="0.63" stop-color="#00D68A"/>
<stop offset="0.65" stop-color="#00D665"/>
<stop offset="0.66" stop-color="#00D639"/>
</linearGradient>
</defs>
</svg>
