<svg width="440" height="278" viewBox="0 0 440 278" fill="none" xmlns="http://www.w3.org/2000/svg">
<g clip-path="url(#clip0_1093_27536)">
<path d="M18.5265 0.579102H421.474C431.385 0.579102 439.421 8.61442 439.421 18.5265V259.369C439.421 269.28 431.385 277.316 421.474 277.316H18.5265C8.61442 277.316 0.579102 269.28 0.579102 259.369V18.5265L0.584756 18.0628C0.830651 8.36506 8.76941 0.579102 18.5265 0.579102Z" fill="white" stroke="#E2E2E2" stroke-width="1.15789"/>
<path d="M421.099 232.74H64.8794" stroke="#CCD6DB" stroke-width="0.913577"/>
<path d="M421.099 190.404H64.8794" stroke="#CCD6DB" stroke-width="0.913577"/>
<path d="M421.099 146.982H64.8794" stroke="#CCD6DB" stroke-width="0.913577"/>
<path d="M421.099 104.645H64.8794" stroke="#CCD6DB" stroke-width="0.913577"/>
<path d="M142.993 124.186H114.667V232.742H142.993V124.186Z" fill="#00D639"/>
<path d="M110.365 188.233H82.0386V232.741H110.365V188.233Z" fill="#008C4E"/>
<path d="M229.677 123.102H201.352V232.744H229.677V123.102Z" fill="#00D639"/>
<path d="M197.063 188.233H169.596V232.741H197.063V188.233Z" fill="#008C4E"/>
<path d="M318.953 120.929H290.627V232.742H318.953V120.929Z" fill="#00D639"/>
<path d="M286.337 187.149H258.011V232.743H286.337V187.149Z" fill="#008C4E"/>
<path d="M408.225 114.415H380.758V232.741H408.225V114.415Z" fill="#00D639"/>
<path d="M375.605 184.977H348.137V232.742H375.605V184.977Z" fill="#008C4E"/>
<path d="M35.8163 106.104H34.9408V100.872H33.0455V100.172C33.2927 100.172 33.5331 100.154 33.7666 100.12C34 100.079 34.2095 100.007 34.3949 99.9037C34.5872 99.8007 34.7485 99.6599 34.879 99.4814C35.0095 99.3028 35.0987 99.0762 35.1468 98.8016H35.8163V106.104ZM38.7279 104.961H39.8712V106.104H38.7279V104.961ZM45.5809 99.6977H42.635L42.2436 101.799L42.2642 101.82C42.4221 101.641 42.6247 101.511 42.8719 101.428C43.126 101.339 43.3766 101.294 43.6238 101.294C43.9466 101.294 44.2521 101.346 44.5405 101.449C44.8289 101.552 45.0796 101.71 45.2925 101.923C45.5053 102.129 45.6736 102.39 45.7972 102.705C45.9208 103.014 45.9826 103.378 45.9826 103.797C45.9826 104.106 45.9276 104.408 45.8178 104.704C45.7148 104.992 45.5568 105.25 45.344 105.476C45.1311 105.703 44.8633 105.885 44.5405 106.022C44.2247 106.153 43.8538 106.218 43.4281 106.218C43.1122 106.218 42.8135 106.173 42.532 106.084C42.2573 105.988 42.0135 105.854 41.8007 105.682C41.5878 105.504 41.4195 105.284 41.2959 105.023C41.1723 104.762 41.1071 104.467 41.1002 104.137H41.9758C41.9895 104.323 42.0341 104.498 42.1097 104.662C42.1921 104.82 42.2985 104.961 42.429 105.085C42.5663 105.201 42.7242 105.294 42.9028 105.363C43.0882 105.425 43.2908 105.456 43.5105 105.456C43.7165 105.456 43.9122 105.421 44.0976 105.353C44.2899 105.277 44.4547 105.167 44.592 105.023C44.7362 104.879 44.8495 104.7 44.9319 104.487C45.0144 104.268 45.0556 104.014 45.0556 103.725C45.0556 103.485 45.0144 103.265 44.9319 103.066C44.8564 102.86 44.7465 102.685 44.6023 102.541C44.4581 102.39 44.283 102.273 44.077 102.19C43.8779 102.108 43.6547 102.067 43.4075 102.067C43.1191 102.067 42.8616 102.132 42.635 102.262C42.4152 102.386 42.2195 102.551 42.0479 102.757L41.2959 102.716L41.9758 98.9252H45.5809V99.6977ZM47.2873 98.7501H48.6263L50.9439 104.93L53.2717 98.7501H54.6108V106.104H53.6838V99.9861H53.6632L51.3662 106.104H50.5319L48.2349 99.9861H48.2143V106.104H47.2873V98.7501Z" fill="#B3B3B3"/>
<path d="M44.4071 148.441H43.5316V143.209H41.6364V142.508C41.8836 142.508 42.1239 142.491 42.3574 142.457C42.5909 142.416 42.8003 142.344 42.9857 142.241C43.178 142.138 43.3393 141.997 43.4698 141.818C43.6003 141.64 43.6896 141.413 43.7376 141.138H44.4071V148.441ZM47.2878 141.087H48.6268L50.9444 147.267L53.2723 141.087H54.6113V148.441H53.6843V142.323H53.6637L51.3667 148.441H50.5324L48.2354 142.323H48.2148V148.441H47.2878V141.087Z" fill="#B3B3B3"/>
<path d="M36.2362 185.457H33.2903L32.8989 187.558L32.9195 187.579C33.0774 187.4 33.28 187.27 33.5272 187.187C33.7813 187.098 34.0319 187.054 34.2791 187.054C34.6019 187.054 34.9074 187.105 35.1958 187.208C35.4842 187.311 35.7349 187.469 35.9478 187.682C36.1606 187.888 36.3289 188.149 36.4525 188.465C36.5761 188.774 36.6379 189.138 36.6379 189.556C36.6379 189.866 36.5829 190.168 36.4731 190.463C36.3701 190.751 36.2121 191.009 35.9993 191.235C35.7864 191.462 35.5186 191.644 35.1958 191.781C34.88 191.912 34.5091 191.977 34.0834 191.977C33.7675 191.977 33.4688 191.932 33.1873 191.843C32.9126 191.747 32.6688 191.613 32.456 191.441C32.2431 191.263 32.0748 191.043 31.9512 190.782C31.8276 190.521 31.7624 190.226 31.7555 189.896H32.6311C32.6448 190.082 32.6894 190.257 32.765 190.422C32.8474 190.58 32.9538 190.72 33.0843 190.844C33.2216 190.961 33.3795 191.053 33.5581 191.122C33.7435 191.184 33.9461 191.215 34.1658 191.215C34.3718 191.215 34.5675 191.181 34.7529 191.112C34.9452 191.036 35.11 190.926 35.2473 190.782C35.3915 190.638 35.5048 190.459 35.5872 190.247C35.6697 190.027 35.7109 189.773 35.7109 189.484C35.7109 189.244 35.6697 189.024 35.5872 188.825C35.5117 188.619 35.4018 188.444 35.2576 188.3C35.1134 188.149 34.9383 188.032 34.7323 187.95C34.5332 187.867 34.31 187.826 34.0628 187.826C33.7744 187.826 33.5169 187.891 33.2903 188.022C33.0705 188.145 32.8748 188.31 32.7032 188.516L31.9512 188.475L32.6311 184.684H36.2362V185.457ZM38.4782 188.269C38.4782 188.544 38.485 188.853 38.4988 189.196C38.5194 189.532 38.5743 189.852 38.6636 190.154C38.7597 190.449 38.9108 190.7 39.1168 190.906C39.3228 191.112 39.6112 191.215 39.982 191.215C40.3528 191.215 40.6412 191.112 40.8473 190.906C41.0533 190.7 41.2009 190.449 41.2902 190.154C41.3863 189.852 41.4412 189.532 41.455 189.196C41.4756 188.853 41.4859 188.544 41.4859 188.269C41.4859 188.09 41.4824 187.895 41.4756 187.682C41.4756 187.462 41.4584 187.246 41.4241 187.033C41.3966 186.813 41.352 186.6 41.2902 186.394C41.2352 186.188 41.1494 186.01 41.0327 185.859C40.9228 185.701 40.782 185.574 40.6103 185.478C40.4387 185.381 40.2292 185.333 39.982 185.333C39.7348 185.333 39.5254 185.381 39.3537 185.478C39.182 185.574 39.0378 185.701 38.9211 185.859C38.8112 186.01 38.7254 186.188 38.6636 186.394C38.6086 186.6 38.564 186.813 38.5297 187.033C38.5022 187.246 38.485 187.462 38.4782 187.682C38.4782 187.895 38.4782 188.09 38.4782 188.269ZM37.5511 188.279C37.5511 188.011 37.558 187.733 37.5718 187.445C37.5855 187.157 37.6198 186.875 37.6748 186.6C37.7297 186.326 37.8087 186.065 37.9117 185.817C38.0147 185.57 38.1554 185.354 38.334 185.169C38.5125 184.983 38.7357 184.836 39.0035 184.726C39.2782 184.616 39.6043 184.561 39.982 184.561C40.3597 184.561 40.6824 184.616 40.9503 184.726C41.2249 184.836 41.4515 184.983 41.6301 185.169C41.8086 185.354 41.9494 185.57 42.0524 185.817C42.1554 186.065 42.2344 186.326 42.2893 186.6C42.3442 186.875 42.3786 187.157 42.3923 187.445C42.406 187.733 42.4129 188.011 42.4129 188.279C42.4129 188.547 42.406 188.825 42.3923 189.114C42.3786 189.402 42.3442 189.684 42.2893 189.958C42.2344 190.233 42.1554 190.494 42.0524 190.741C41.9494 190.981 41.8086 191.194 41.6301 191.38C41.4515 191.565 41.2284 191.713 40.9606 191.823C40.6927 191.926 40.3666 191.977 39.982 191.977C39.6043 191.977 39.2782 191.926 39.0035 191.823C38.7357 191.713 38.5125 191.565 38.334 191.38C38.1554 191.194 38.0147 190.981 37.9117 190.741C37.8087 190.494 37.7297 190.233 37.6748 189.958C37.6198 189.684 37.5855 189.402 37.5718 189.114C37.558 188.825 37.5511 188.547 37.5511 188.279ZM44.2017 188.269C44.2017 188.544 44.2086 188.853 44.2223 189.196C44.2429 189.532 44.2978 189.852 44.3871 190.154C44.4832 190.449 44.6343 190.7 44.8403 190.906C45.0463 191.112 45.3347 191.215 45.7055 191.215C46.0764 191.215 46.3648 191.112 46.5708 190.906C46.7768 190.7 46.9244 190.449 47.0137 190.154C47.1098 189.852 47.1648 189.532 47.1785 189.196C47.1991 188.853 47.2094 188.544 47.2094 188.269C47.2094 188.09 47.206 187.895 47.1991 187.682C47.1991 187.462 47.1819 187.246 47.1476 187.033C47.1201 186.813 47.0755 186.6 47.0137 186.394C46.9587 186.188 46.8729 186.01 46.7562 185.859C46.6463 185.701 46.5055 185.574 46.3339 185.478C46.1622 185.381 45.9527 185.333 45.7055 185.333C45.4583 185.333 45.2489 185.381 45.0772 185.478C44.9056 185.574 44.7613 185.701 44.6446 185.859C44.5347 186.01 44.4489 186.188 44.3871 186.394C44.3322 186.6 44.2875 186.813 44.2532 187.033C44.2257 187.246 44.2086 187.462 44.2017 187.682C44.2017 187.895 44.2017 188.09 44.2017 188.269ZM43.2747 188.279C43.2747 188.011 43.2815 187.733 43.2953 187.445C43.309 187.157 43.3433 186.875 43.3983 186.6C43.4532 186.326 43.5322 186.065 43.6352 185.817C43.7382 185.57 43.879 185.354 44.0575 185.169C44.236 184.983 44.4592 184.836 44.727 184.726C45.0017 184.616 45.3279 184.561 45.7055 184.561C46.0832 184.561 46.406 184.616 46.6738 184.726C46.9484 184.836 47.1751 184.983 47.3536 185.169C47.5321 185.354 47.6729 185.57 47.7759 185.817C47.8789 186.065 47.9579 186.326 48.0128 186.6C48.0677 186.875 48.1021 187.157 48.1158 187.445C48.1296 187.733 48.1364 188.011 48.1364 188.279C48.1364 188.547 48.1296 188.825 48.1158 189.114C48.1021 189.402 48.0677 189.684 48.0128 189.958C47.9579 190.233 47.8789 190.494 47.7759 190.741C47.6729 190.981 47.5321 191.194 47.3536 191.38C47.1751 191.565 46.9519 191.713 46.6841 191.823C46.4163 191.926 46.0901 191.977 45.7055 191.977C45.3279 191.977 45.0017 191.926 44.727 191.823C44.4592 191.713 44.236 191.565 44.0575 191.38C43.879 191.194 43.7382 190.981 43.6352 190.741C43.5322 190.494 43.4532 190.233 43.3983 189.958C43.3433 189.684 43.309 189.402 43.2953 189.114C43.2815 188.825 43.2747 188.547 43.2747 188.279ZM49.369 184.509H50.3475V188.176L54.0762 184.509H55.3432L52.2428 187.476L55.4668 191.864H54.2307L51.5733 188.145L50.3475 189.289V191.864H49.369V184.509Z" fill="#B3B3B3"/>
<path d="M51.0676 229.52C51.0676 229.795 51.0745 230.104 51.0883 230.447C51.1089 230.783 51.1638 231.103 51.2531 231.405C51.3492 231.7 51.5003 231.951 51.7063 232.157C51.9123 232.363 52.2007 232.466 52.5715 232.466C52.9423 232.466 53.2307 232.363 53.4367 232.157C53.6427 231.951 53.7904 231.7 53.8796 231.405C53.9758 231.103 54.0307 230.783 54.0444 230.447C54.065 230.104 54.0753 229.795 54.0753 229.52C54.0753 229.341 54.0719 229.146 54.065 228.933C54.065 228.713 54.0479 228.497 54.0135 228.284C53.9861 228.064 53.9414 227.851 53.8796 227.645C53.8247 227.439 53.7389 227.261 53.6221 227.11C53.5123 226.952 53.3715 226.825 53.1998 226.729C53.0281 226.632 52.8187 226.584 52.5715 226.584C52.3243 226.584 52.1148 226.632 51.9432 226.729C51.7715 226.825 51.6273 226.952 51.5106 227.11C51.4007 227.261 51.3149 227.439 51.2531 227.645C51.1981 227.851 51.1535 228.064 51.1192 228.284C51.0917 228.497 51.0745 228.713 51.0676 228.933C51.0676 229.146 51.0676 229.341 51.0676 229.52ZM50.1406 229.53C50.1406 229.262 50.1475 228.984 50.1612 228.696C50.175 228.408 50.2093 228.126 50.2642 227.851C50.3192 227.577 50.3981 227.316 50.5011 227.068C50.6041 226.821 50.7449 226.605 50.9234 226.42C51.102 226.234 51.3252 226.086 51.593 225.977C51.8676 225.867 52.1938 225.812 52.5715 225.812C52.9492 225.812 53.2719 225.867 53.5397 225.977C53.8144 226.086 54.041 226.234 54.2195 226.42C54.3981 226.605 54.5389 226.821 54.6419 227.068C54.7449 227.316 54.8238 227.577 54.8788 227.851C54.9337 228.126 54.968 228.408 54.9818 228.696C54.9955 228.984 55.0024 229.262 55.0024 229.53C55.0024 229.798 54.9955 230.076 54.9818 230.365C54.968 230.653 54.9337 230.935 54.8788 231.209C54.8238 231.484 54.7449 231.745 54.6419 231.992C54.5389 232.232 54.3981 232.445 54.2195 232.631C54.041 232.816 53.8178 232.964 53.55 233.074C53.2822 233.177 52.956 233.228 52.5715 233.228C52.1938 233.228 51.8676 233.177 51.593 233.074C51.3252 232.964 51.102 232.816 50.9234 232.631C50.7449 232.445 50.6041 232.232 50.5011 231.992C50.3981 231.745 50.3192 231.484 50.2642 231.209C50.2093 230.935 50.175 230.653 50.1612 230.365C50.1475 230.076 50.1406 229.798 50.1406 229.53Z" fill="#B3B3B3"/>
<path d="M102.068 250.681L102.88 250.436C102.973 250.944 103.146 251.296 103.401 251.492C103.664 251.689 103.97 251.786 104.32 251.783C104.704 251.779 105.02 251.653 105.265 251.403C105.518 251.147 105.643 250.744 105.639 250.194L105.611 245.261L106.528 245.252L106.556 250.227C106.561 250.955 106.361 251.527 105.959 251.943C105.556 252.352 105.025 252.559 104.366 252.565C103.782 252.571 103.283 252.424 102.869 252.126C102.456 251.821 102.189 251.339 102.068 250.681ZM112.246 252.41L111.638 250.572L108.908 250.597L108.322 252.446L107.395 252.455L109.773 245.222L110.752 245.213L113.214 252.401L112.246 252.41ZM109.141 249.853L111.397 249.832L110.254 246.33L109.141 249.853ZM118.222 252.354L115.017 246.616L115.071 252.384L114.226 252.391L114.184 245.181L115.163 245.172L118.368 250.87L118.314 245.143L119.159 245.135L119.201 252.345L118.222 252.354Z" fill="#B3B3B3"/>
<path d="M192.957 250.464L191.131 246.474L191.187 252.489L190.352 252.497L190.311 245.287L191.423 245.277L193.259 249.287L195.038 245.243L196.161 245.233L196.203 252.443L195.337 252.451L195.333 246.415L193.534 250.459L192.957 250.464ZM202.062 252.389L201.454 250.551L198.724 250.576L198.138 252.425L197.211 252.434L199.589 245.201L200.568 245.192L203.03 252.38L202.062 252.389ZM198.957 249.832L201.213 249.811L200.069 246.309L198.957 249.832ZM204.042 252.37L204 245.16L206.276 245.139C206.977 245.133 207.541 245.306 207.969 245.659C208.396 246.012 208.612 246.512 208.616 247.157C208.619 247.617 208.511 248.01 208.293 248.334C208.075 248.659 207.778 248.899 207.401 249.053L209.017 252.324L208.007 252.334L206.506 249.237C206.472 249.244 206.438 249.248 206.403 249.248C206.369 249.248 206.335 249.249 206.3 249.249L204.941 249.262L204.959 252.362L204.042 252.37ZM206.316 248.497C206.708 248.493 207.037 248.384 207.303 248.168C207.57 247.953 207.702 247.629 207.699 247.196C207.697 246.757 207.561 246.432 207.292 246.222C207.023 246.011 206.693 245.908 206.301 245.912L204.921 245.924L204.936 248.51L206.316 248.497Z" fill="#B3B3B3"/>
<path d="M282.237 250.464L280.411 246.474L280.466 252.489L279.632 252.497L279.59 245.287L280.703 245.277L282.539 249.287L284.318 245.243L285.441 245.233L285.482 252.443L284.617 252.451L284.613 246.415L282.813 250.459L282.237 250.464ZM291.342 252.389L290.733 250.551L288.004 250.576L287.417 252.425L286.49 252.434L288.869 245.201L289.848 245.192L292.31 252.38L291.342 252.389ZM288.237 249.832L290.492 249.811L289.349 246.309L288.237 249.832ZM295.371 252.351L294.454 252.36L294.44 249.826L291.92 245.173L292.929 245.164L294.929 248.946L296.884 245.127L297.811 245.118L295.356 249.807L295.371 252.351Z" fill="#B3B3B3"/>
<path d="M369.877 250.681L370.689 250.436C370.781 250.944 370.955 251.296 371.21 251.492C371.472 251.689 371.778 251.786 372.128 251.783C372.513 251.779 372.828 251.653 373.074 251.403C373.326 251.147 373.451 250.744 373.448 250.194L373.419 245.261L374.336 245.252L374.365 250.227C374.369 250.955 374.17 251.527 373.767 251.943C373.364 252.352 372.833 252.559 372.174 252.565C371.591 252.571 371.092 252.424 370.678 252.126C370.264 251.821 369.997 251.339 369.877 250.681ZM378.569 252.506C377.855 252.512 377.27 252.308 376.815 251.894C376.366 251.472 376.139 250.877 376.135 250.108L376.107 245.236L377.023 245.227L377.051 250.007C377.054 250.59 377.201 251.025 377.491 251.311C377.781 251.596 378.139 251.737 378.565 251.733C378.997 251.729 379.354 251.582 379.634 251.291C379.913 251 380.052 250.562 380.048 249.979L380.021 245.2L380.937 245.191L380.966 250.063C380.97 250.832 380.75 251.432 380.306 251.861C379.863 252.284 379.283 252.499 378.569 252.506ZM387.356 251.58L387.361 252.342L382.839 252.384L382.797 245.174L383.714 245.165L383.752 251.613L387.356 251.58Z" fill="#B3B3B3"/>
<path d="M32.0396 67.6608C34.1221 67.6608 35.8102 65.9727 35.8102 63.8902C35.8102 61.8078 34.1221 60.1196 32.0396 60.1196C29.9572 60.1196 28.269 61.8078 28.269 63.8902C28.269 65.9727 29.9572 67.6608 32.0396 67.6608Z" fill="#008C4E"/>
<path d="M49.033 65.1908L50.0647 65.4582C49.8015 66.4008 49.3769 67.0928 48.791 67.5343C48.2136 67.9674 47.5683 68.1839 46.855 68.1839C45.8021 68.1839 44.9657 67.7848 44.3459 66.9867C43.7345 66.18 43.4288 65.0592 43.4288 63.6241C43.4288 62.1891 43.7345 61.0725 44.3459 60.2743C44.9657 59.4677 45.7979 59.0643 46.8423 59.0643C47.5555 59.0643 48.2051 59.2851 48.791 59.7267C49.3769 60.1597 49.7972 60.856 50.052 61.8155L49.0203 62.0957C48.825 61.4334 48.5448 60.9239 48.1796 60.5673C47.8145 60.2022 47.3645 60.0196 46.8295 60.0196C46.1757 60.0196 45.6323 60.3126 45.1992 60.8985C44.7747 61.4759 44.5624 62.3844 44.5624 63.6241C44.5624 64.8639 44.7789 65.7767 45.212 66.3626C45.645 66.94 46.1885 67.2287 46.8423 67.2287C47.3772 67.2287 47.8273 67.0546 48.1924 66.7065C48.5575 66.3498 48.8377 65.8446 49.033 65.1908ZM53.2862 68.1839C52.6749 68.1839 52.1866 68.0183 51.8215 67.6872C51.4564 67.3475 51.2738 66.9315 51.2738 66.439C51.2738 65.8276 51.4946 65.3563 51.9361 65.0252C52.3777 64.6855 52.9805 64.486 53.7447 64.4266L55.2859 64.2992V63.7006C55.2859 63.242 55.1543 62.9024 54.8911 62.6816C54.6363 62.4608 54.3137 62.3505 53.9231 62.3505C53.5834 62.3505 53.2607 62.4354 52.9551 62.6052C52.6579 62.775 52.4074 63.068 52.2036 63.484L51.363 63.051C51.5837 62.5925 51.9106 62.2146 52.3437 61.9174C52.7767 61.6202 53.3244 61.4716 53.9867 61.4716C54.6576 61.4716 55.2222 61.6669 55.6807 62.0575C56.1393 62.4396 56.3685 62.9873 56.3685 63.7006V68.082H55.2859V67.1395C55.0906 67.4622 54.8146 67.7169 54.458 67.9037C54.1099 68.0905 53.7193 68.1839 53.2862 68.1839ZM52.3182 66.3498C52.3182 66.698 52.4456 66.9527 52.7003 67.114C52.9551 67.2754 53.2523 67.356 53.5919 67.356C53.7193 67.356 53.8424 67.3433 53.9613 67.3178C54.0802 67.2923 54.1948 67.2584 54.3052 67.2159C54.4156 67.1735 54.5217 67.1183 54.6236 67.0503C54.7255 66.9824 54.8146 66.906 54.8911 66.8211C54.976 66.7277 55.0439 66.63 55.0949 66.5281C55.1543 66.4262 55.201 66.3159 55.235 66.197C55.2689 66.0696 55.2859 65.938 55.2859 65.8021V65.1271L53.974 65.2417C53.4221 65.2927 53.006 65.4073 52.7258 65.5856C52.4541 65.7554 52.3182 66.0102 52.3182 66.3498ZM57.7221 66.6046L58.55 66.1333C58.7623 66.5579 59.0128 66.8678 59.3015 67.0631C59.5987 67.2499 59.9256 67.3433 60.2822 67.3433C60.6728 67.3433 60.9997 67.2584 61.263 67.0886C61.5262 66.9102 61.6578 66.6513 61.6578 66.3116C61.6578 65.9889 61.5007 65.7597 61.1865 65.6238C60.8809 65.4795 60.5285 65.3521 60.1294 65.2417C60.019 65.2078 59.9086 65.1738 59.7982 65.1398C59.6878 65.1059 59.5775 65.0719 59.4671 65.0379C59.3567 64.9955 59.2463 64.953 59.1359 64.9106C59.034 64.8681 58.9364 64.8172 58.843 64.7577C58.7496 64.6983 58.6604 64.6346 58.5755 64.5667C58.4906 64.4987 58.4142 64.4223 58.3462 64.3374C58.2868 64.2525 58.2316 64.1633 58.1807 64.0699C58.1297 63.968 58.0915 63.8576 58.066 63.7388C58.0405 63.6114 58.0278 63.4755 58.0278 63.3312C58.0278 63.1614 58.0448 63.0043 58.0788 62.8599C58.1212 62.7156 58.1764 62.584 58.2443 62.4651C58.3208 62.3377 58.4057 62.2231 58.4991 62.1212C58.601 62.0193 58.7114 61.9301 58.8302 61.8537C58.9576 61.7688 59.0935 61.7009 59.2378 61.6499C59.3822 61.5905 59.5308 61.548 59.6836 61.5226C59.8449 61.4971 60.0105 61.4843 60.1803 61.4843C60.7577 61.4843 61.2502 61.6329 61.6578 61.9301C62.0739 62.2273 62.405 62.6052 62.6513 63.0637L61.8489 63.5222C61.6281 63.1147 61.3861 62.8132 61.1229 62.6179C60.8596 62.4141 60.5582 62.3122 60.2185 62.3122C59.9214 62.3122 59.6581 62.3929 59.4289 62.5542C59.2081 62.7071 59.0977 62.9406 59.0977 63.2548C59.0977 63.5944 59.2463 63.8407 59.5435 63.9935C59.8492 64.1463 60.1973 64.278 60.5879 64.3883C60.6983 64.4223 60.8087 64.4563 60.9191 64.4902C61.038 64.5242 61.1526 64.5624 61.263 64.6049C61.3734 64.6388 61.4795 64.677 61.5814 64.7195C61.6918 64.762 61.7937 64.8129 61.8871 64.8723C61.989 64.9233 62.0824 64.9827 62.1673 65.0507C62.2522 65.1186 62.3286 65.195 62.3965 65.2799C62.4645 65.3563 62.5239 65.4455 62.5749 65.5474C62.6258 65.6408 62.664 65.7469 62.6895 65.8658C62.715 65.9847 62.7277 66.1163 62.7277 66.2607C62.7277 66.4135 62.7107 66.5579 62.6768 66.6937C62.6428 66.8296 62.5961 66.9569 62.5367 67.0758C62.4772 67.1947 62.4008 67.3051 62.3074 67.407C62.2225 67.5089 62.1248 67.6023 62.0144 67.6872C61.9125 67.7636 61.7937 67.8358 61.6578 67.9037C61.5304 67.9632 61.3946 68.0141 61.2502 68.0566C61.1059 68.099 60.953 68.1287 60.7917 68.1457C60.6389 68.1712 60.4818 68.1839 60.3204 68.1839C59.6581 68.1839 59.1189 68.0396 58.7029 67.7509C58.2868 67.4537 57.9599 67.0716 57.7221 66.6046ZM69.2378 68.082H68.1679V63.968C68.1679 63.4331 68.0278 63.0298 67.7476 62.758C67.4759 62.4778 67.132 62.3377 66.7159 62.3377C66.3168 62.3377 65.9814 62.4778 65.7097 62.758C65.438 63.0298 65.3021 63.4331 65.3021 63.968V68.082H64.2322V59.1662H65.3021V62.516C65.4889 62.1764 65.7394 61.9216 66.0536 61.7518C66.3678 61.5735 66.7159 61.4843 67.098 61.4843C67.7094 61.4843 68.2189 61.6881 68.6265 62.0957C69.034 62.5033 69.2378 63.0765 69.2378 63.8152V68.082ZM74.1364 68.082V59.1662H77.1169C77.932 59.1662 78.5901 59.3658 79.0911 59.7649C79.592 60.164 79.8425 60.7414 79.8425 61.4971C79.8425 61.9896 79.7279 62.4056 79.4986 62.7453C79.2694 63.0765 78.9595 63.3227 78.5689 63.484C79.0529 63.6454 79.435 63.9043 79.7152 64.261C79.9954 64.6176 80.1355 65.0761 80.1355 65.6366C80.1355 66.4262 79.8765 67.0334 79.3585 67.4579C78.8406 67.874 78.1528 68.082 77.2952 68.082H74.1364ZM77.1169 60.096H75.27V63.0765H77.1169C77.5669 63.0765 77.9448 62.9533 78.2504 62.7071C78.5646 62.4608 78.7217 62.0872 78.7217 61.5862C78.7217 61.0768 78.5646 60.7032 78.2504 60.4654C77.9448 60.2192 77.5669 60.096 77.1169 60.096ZM77.2824 63.968H75.27V67.165H77.2824C77.7664 67.165 78.174 67.0334 78.5052 66.7701C78.8363 66.5069 79.0019 66.1036 79.0019 65.5601C79.0019 65.0252 78.8363 64.6261 78.5052 64.3629C78.174 64.0996 77.7664 63.968 77.2824 63.968ZM83.5113 68.1839C82.9 68.1839 82.4117 68.0183 82.0466 67.6872C81.6815 67.3475 81.4989 66.9315 81.4989 66.439C81.4989 65.8276 81.7197 65.3563 82.1612 65.0252C82.6028 64.6855 83.2057 64.486 83.9699 64.4266L85.511 64.2992V63.7006C85.511 63.242 85.3794 62.9024 85.1162 62.6816C84.8615 62.4608 84.5388 62.3505 84.1482 62.3505C83.8085 62.3505 83.4859 62.4354 83.1802 62.6052C82.883 62.775 82.6325 63.068 82.4287 63.484L81.5881 63.051C81.8089 62.5925 82.1358 62.2146 82.5688 61.9174C83.0019 61.6202 83.5496 61.4716 84.2119 61.4716C84.8827 61.4716 85.4473 61.6669 85.9059 62.0575C86.3644 62.4396 86.5937 62.9873 86.5937 63.7006V68.082H85.511V67.1395C85.3157 67.4622 85.0398 67.7169 84.6831 67.9037C84.335 68.0905 83.9444 68.1839 83.5113 68.1839ZM82.5433 66.3498C82.5433 66.698 82.6707 66.9527 82.9255 67.114C83.1802 67.2754 83.4774 67.356 83.817 67.356C83.9444 67.356 84.0675 67.3433 84.1864 67.3178C84.3053 67.2923 84.4199 67.2584 84.5303 67.2159C84.6407 67.1735 84.7468 67.1183 84.8487 67.0503C84.9506 66.9824 85.0398 66.906 85.1162 66.8211C85.2011 66.7277 85.269 66.63 85.32 66.5281C85.3794 66.4262 85.4261 66.3159 85.4601 66.197C85.494 66.0696 85.511 65.938 85.511 65.8021V65.1271L84.1991 65.2417C83.6472 65.2927 83.2311 65.4073 82.9509 65.5856C82.6792 65.7554 82.5433 66.0102 82.5433 66.3498ZM89.7304 68.082H88.6605V59.1662H89.7304V68.082ZM93.3874 68.1839C92.776 68.1839 92.2878 68.0183 91.9226 67.6872C91.5575 67.3475 91.375 66.9315 91.375 66.439C91.375 65.8276 91.5957 65.3563 92.0373 65.0252C92.4788 64.6855 93.0817 64.486 93.8459 64.4266L95.3871 64.2992V63.7006C95.3871 63.242 95.2554 62.9024 94.9922 62.6816C94.7375 62.4608 94.4148 62.3505 94.0242 62.3505C93.6846 62.3505 93.3619 62.4354 93.0562 62.6052C92.759 62.775 92.5085 63.068 92.3047 63.484L91.4641 63.051C91.6849 62.5925 92.0118 62.2146 92.4448 61.9174C92.8779 61.6202 93.4256 61.4716 94.0879 61.4716C94.7587 61.4716 95.3234 61.6669 95.7819 62.0575C96.2404 62.4396 96.4697 62.9873 96.4697 63.7006V68.082H95.3871V67.1395C95.1918 67.4622 94.9158 67.7169 94.5592 67.9037C94.211 68.0905 93.8204 68.1839 93.3874 68.1839ZM92.4194 66.3498C92.4194 66.698 92.5467 66.9527 92.8015 67.114C93.0562 67.2754 93.3534 67.356 93.6931 67.356C93.8204 67.356 93.9435 67.3433 94.0624 67.3178C94.1813 67.2923 94.2959 67.2584 94.4063 67.2159C94.5167 67.1735 94.6228 67.1183 94.7247 67.0503C94.8266 66.9824 94.9158 66.906 94.9922 66.8211C95.0771 66.7277 95.1451 66.63 95.196 66.5281C95.2554 66.4262 95.3021 66.3159 95.3361 66.197C95.3701 66.0696 95.3871 65.938 95.3871 65.8021V65.1271L94.0752 65.2417C93.5232 65.2927 93.1072 65.4073 92.827 65.5856C92.5552 65.7554 92.4194 66.0102 92.4194 66.3498ZM103.568 68.082H102.498V63.968C102.498 63.4331 102.358 63.0298 102.077 62.758C101.806 62.4778 101.462 62.3377 101.046 62.3377C100.647 62.3377 100.311 62.4778 100.039 62.758C99.7678 63.0298 99.6319 63.4331 99.6319 63.968V68.082H98.562V61.5862H99.6319V62.516C99.8187 62.1764 100.069 61.9216 100.383 61.7518C100.698 61.5735 101.046 61.4843 101.428 61.4843C102.039 61.4843 102.549 61.6881 102.956 62.0957C103.364 62.5033 103.568 63.0765 103.568 63.8152V68.082ZM109.626 65.8531L110.594 66.0696C110.433 66.681 110.127 67.1862 109.677 67.5853C109.227 67.9844 108.667 68.1839 107.996 68.1839C107.8 68.1839 107.609 68.1627 107.423 68.1202C107.236 68.0863 107.057 68.0311 106.888 67.9547C106.726 67.8782 106.569 67.7848 106.416 67.6745C106.272 67.5641 106.136 67.4367 106.009 67.2923C105.89 67.148 105.78 66.9909 105.678 66.8211C105.584 66.6428 105.504 66.4517 105.436 66.2479C105.368 66.0356 105.313 65.8149 105.27 65.5856C105.236 65.3479 105.219 65.0974 105.219 64.8341C105.219 64.5709 105.236 64.3247 105.27 64.0954C105.313 63.8576 105.368 63.6369 105.436 63.4331C105.504 63.2208 105.584 63.0298 105.678 62.8599C105.78 62.6816 105.89 62.5203 106.009 62.3759C106.136 62.2316 106.272 62.1042 106.416 61.9938C106.569 61.8834 106.726 61.79 106.888 61.7136C107.057 61.6372 107.236 61.582 107.423 61.548C107.609 61.5056 107.8 61.4843 107.996 61.4843C108.684 61.4843 109.248 61.6839 109.69 62.083C110.14 62.4821 110.45 62.9873 110.62 63.5987L109.639 63.8152C109.477 63.3567 109.261 63 108.989 62.7453C108.726 62.4821 108.399 62.3505 108.008 62.3505C107.507 62.3505 107.096 62.5627 106.773 62.9873C106.45 63.4034 106.289 64.019 106.289 64.8341C106.289 65.6408 106.45 66.2564 106.773 66.681C107.096 67.097 107.507 67.3051 108.008 67.3051C108.399 67.3051 108.726 67.1777 108.989 66.923C109.261 66.6682 109.473 66.3116 109.626 65.8531ZM116.297 66.2225L117.15 66.5281C116.963 66.9697 116.657 67.356 116.233 67.6872C115.808 68.0183 115.273 68.1839 114.628 68.1839C114.39 68.1839 114.161 68.1585 113.94 68.1075C113.728 68.0566 113.524 67.9844 113.329 67.891C113.134 67.7976 112.951 67.6787 112.781 67.5343C112.62 67.39 112.476 67.2287 112.348 67.0503C112.221 66.8635 112.11 66.6555 112.017 66.4262C111.924 66.197 111.851 65.9507 111.8 65.6875C111.758 65.4158 111.737 65.1271 111.737 64.8214C111.737 64.5582 111.754 64.3077 111.788 64.0699C111.83 63.8322 111.885 63.6114 111.953 63.4076C112.021 63.2038 112.102 63.017 112.195 62.8472C112.297 62.6689 112.408 62.5075 112.526 62.3632C112.654 62.2188 112.79 62.0915 112.934 61.9811C113.087 61.8707 113.244 61.7815 113.405 61.7136C113.575 61.6372 113.749 61.582 113.928 61.548C114.114 61.5056 114.305 61.4843 114.501 61.4843C115.299 61.4843 115.953 61.7773 116.462 62.3632C116.972 62.9491 117.226 63.76 117.226 64.7959V65.0889H112.794C112.828 65.8531 113.015 66.4135 113.354 66.7701C113.694 67.1268 114.119 67.3051 114.628 67.3051C115.01 67.3051 115.337 67.2117 115.609 67.0249C115.881 66.8381 116.11 66.5706 116.297 66.2225ZM114.488 62.325C114.055 62.325 113.681 62.4821 113.367 62.7962C113.061 63.1019 112.875 63.5944 112.807 64.2737H116.182C116.106 63.5944 115.91 63.1019 115.596 62.7962C115.29 62.4821 114.921 62.325 114.488 62.325ZM122.108 64.8978C122.108 65.8658 122.277 66.8423 122.617 67.8273C122.957 68.8038 123.53 69.7378 124.337 70.6294H123.203C122.362 69.7208 121.781 68.7656 121.458 67.7636C121.135 66.7616 120.974 65.8064 120.974 64.8978C120.974 63.9893 121.135 63.034 121.458 62.032C121.781 61.0301 122.362 60.0748 123.203 59.1662H124.337C123.53 60.0578 122.957 60.9961 122.617 61.9811C122.277 62.9576 122.108 63.9298 122.108 64.8978ZM125.395 68.082V59.1662H128.375C129.19 59.1662 129.848 59.3658 130.349 59.7649C130.85 60.164 131.101 60.7414 131.101 61.4971C131.101 61.9896 130.986 62.4056 130.757 62.7453C130.528 63.0765 130.218 63.3227 129.827 63.484C130.311 63.6454 130.693 63.9043 130.973 64.261C131.254 64.6176 131.394 65.0761 131.394 65.6366C131.394 66.4262 131.135 67.0334 130.617 67.4579C130.099 67.874 129.411 68.082 128.553 68.082H125.395ZM128.375 60.096H126.528V63.0765H128.375C128.825 63.0765 129.203 62.9533 129.509 62.7071C129.823 62.4608 129.98 62.0872 129.98 61.5862C129.98 61.0768 129.823 60.7032 129.509 60.4654C129.203 60.2192 128.825 60.096 128.375 60.096ZM128.541 63.968H126.528V67.165H128.541C129.025 67.165 129.432 67.0334 129.763 66.7701C130.095 66.5069 130.26 66.1036 130.26 65.5601C130.26 65.0252 130.095 64.6261 129.763 64.3629C129.432 64.0996 129.025 63.968 128.541 63.968ZM138.17 68.082H137.101V67.1522C136.914 67.4919 136.663 67.7509 136.349 67.9292C136.035 68.099 135.687 68.1839 135.305 68.1839C134.693 68.1839 134.184 67.9801 133.776 67.5726C133.369 67.165 133.165 66.5918 133.165 65.8531V61.5862H134.235V65.7002C134.235 66.2267 134.371 66.63 134.642 66.9102C134.914 67.182 135.258 67.3178 135.674 67.3178C136.073 67.3178 136.408 67.182 136.68 66.9102C136.96 66.63 137.101 66.2267 137.101 65.7002V61.5862H138.17V68.082ZM142.42 68.1839C141.69 68.1839 141.079 67.891 140.586 67.3051C140.102 66.7192 139.86 65.8913 139.86 64.8214C139.86 63.76 140.102 62.9406 140.586 62.3632C141.079 61.7773 141.69 61.4843 142.42 61.4843C142.887 61.4843 143.291 61.5947 143.63 61.8155C143.97 62.0363 144.237 62.3547 144.433 62.7708V59.1662H145.503V68.082H144.433V66.872C144.237 67.2881 143.97 67.6108 143.63 67.84C143.291 68.0693 142.887 68.1839 142.42 68.1839ZM142.675 67.2923C143.184 67.2923 143.605 67.0886 143.936 66.681C144.267 66.2649 144.433 65.645 144.433 64.8214C144.433 63.9978 144.267 63.3821 143.936 62.9746C143.605 62.567 143.184 62.3632 142.675 62.3632C142.166 62.3632 141.745 62.567 141.414 62.9746C141.091 63.3821 140.93 63.9978 140.93 64.8214C140.93 65.645 141.091 66.2649 141.414 66.681C141.745 67.0886 142.166 67.2923 142.675 67.2923ZM149.784 68.1457C149.572 68.1457 149.368 68.1245 149.173 68.082C148.977 68.0311 148.795 67.9589 148.625 67.8655C148.455 67.7636 148.294 67.6447 148.141 67.5089C147.997 67.3645 147.865 67.2032 147.746 67.0249C147.636 66.8381 147.538 66.6343 147.453 66.4135C147.368 66.1842 147.305 65.938 147.262 65.6748C147.22 65.4115 147.198 65.1271 147.198 64.8214C147.198 64.5157 147.22 64.2313 147.262 63.968C147.305 63.7048 147.368 63.4586 147.453 63.2293C147.538 63 147.636 62.7962 147.746 62.6179C147.865 62.4311 147.997 62.2698 148.141 62.1339C148.294 61.9896 148.455 61.8707 148.625 61.7773C148.795 61.6754 148.977 61.6032 149.173 61.5608C149.368 61.5098 149.572 61.4843 149.784 61.4843C150.243 61.4843 150.637 61.5947 150.969 61.8155C151.308 62.0363 151.576 62.3547 151.771 62.7708V61.5862H152.841V68.2094C152.841 68.4047 152.82 68.5915 152.777 68.7698C152.743 68.9481 152.692 69.1137 152.624 69.2666C152.556 69.4194 152.471 69.5595 152.37 69.6869C152.276 69.8227 152.166 69.9416 152.038 70.0435C151.92 70.1539 151.788 70.2473 151.644 70.3237C151.499 70.4086 151.346 70.4766 151.185 70.5275C151.024 70.5869 150.854 70.6294 150.676 70.6549C150.497 70.6803 150.315 70.6931 150.128 70.6931C149.517 70.6931 148.973 70.5615 148.498 70.2982C148.031 70.0435 147.687 69.7081 147.466 69.292L148.243 68.7061C148.455 69.0713 148.718 69.3472 149.033 69.534C149.355 69.7208 149.712 69.8142 150.102 69.8142C150.561 69.8142 150.952 69.6826 151.274 69.4194C151.605 69.1562 151.771 68.7104 151.771 68.082V66.8593C151.576 67.2754 151.308 67.5938 150.969 67.8146C150.637 68.0353 150.243 68.1457 149.784 68.1457ZM150.026 67.2796C150.535 67.2796 150.952 67.0758 151.274 66.6682C151.605 66.2522 151.771 65.6366 151.771 64.8214C151.771 63.9893 151.605 63.3694 151.274 62.9618C150.952 62.5542 150.535 62.3505 150.026 62.3505C149.517 62.3505 149.096 62.5542 148.765 62.9618C148.442 63.3694 148.281 63.9893 148.281 64.8214C148.281 65.6366 148.442 66.2522 148.765 66.6682C149.096 67.0758 149.517 67.2796 150.026 67.2796ZM159.097 66.2225L159.95 66.5281C159.763 66.9697 159.458 67.356 159.033 67.6872C158.609 68.0183 158.074 68.1839 157.428 68.1839C157.191 68.1839 156.961 68.1585 156.741 68.1075C156.528 68.0566 156.324 67.9844 156.129 67.891C155.934 67.7976 155.751 67.6787 155.581 67.5343C155.42 67.39 155.276 67.2287 155.148 67.0503C155.021 66.8635 154.911 66.6555 154.817 66.4262C154.724 66.197 154.652 65.9507 154.601 65.6875C154.558 65.4158 154.537 65.1271 154.537 64.8214C154.537 64.5582 154.554 64.3077 154.588 64.0699C154.63 63.8322 154.686 63.6114 154.754 63.4076C154.822 63.2038 154.902 63.017 154.996 62.8472C155.097 62.6689 155.208 62.5075 155.327 62.3632C155.454 62.2188 155.59 62.0915 155.734 61.9811C155.887 61.8707 156.044 61.7815 156.206 61.7136C156.375 61.6372 156.549 61.582 156.728 61.548C156.915 61.5056 157.106 61.4843 157.301 61.4843C158.099 61.4843 158.753 61.7773 159.262 62.3632C159.772 62.9491 160.027 63.76 160.027 64.7959V65.0889H155.594C155.628 65.8531 155.815 66.4135 156.155 66.7701C156.494 67.1268 156.919 67.3051 157.428 67.3051C157.81 67.3051 158.137 67.2117 158.409 67.0249C158.681 66.8381 158.91 66.5706 159.097 66.2225ZM157.288 62.325C156.855 62.325 156.482 62.4821 156.167 62.7962C155.862 63.1019 155.675 63.5944 155.607 64.2737H158.982C158.906 63.5944 158.71 63.1019 158.396 62.7962C158.091 62.4821 157.721 62.325 157.288 62.325ZM165.165 67.0886L165.241 67.9419C165.105 68.0183 164.923 68.0778 164.694 68.1202C164.464 68.1627 164.239 68.1839 164.019 68.1839C163.492 68.1839 163.085 68.0438 162.796 67.7636C162.507 67.4749 162.363 67.097 162.363 66.63V62.4523H160.873V61.5862H162.363V59.7776H163.433V61.5862H165.216V62.4523H163.433V66.4517C163.433 66.7149 163.505 66.923 163.649 67.0758C163.794 67.2202 163.993 67.2923 164.248 67.2923C164.409 67.2923 164.562 67.2754 164.706 67.2414C164.851 67.1989 165.004 67.148 165.165 67.0886ZM167.582 64.9106C167.582 63.9426 167.412 62.9703 167.072 61.9938C166.733 61.0088 166.16 60.0706 165.353 59.179H166.487C167.327 60.0875 167.909 61.0428 168.231 62.0448C168.554 63.0467 168.715 64.002 168.715 64.9106C168.715 65.8191 168.554 66.7744 168.231 67.7763C167.909 68.7783 167.327 69.7336 166.487 70.6421H165.353C166.16 69.7506 166.733 68.8165 167.072 67.84C167.412 66.855 167.582 65.8786 167.582 64.9106Z" fill="black" fill-opacity="0.9"/>
<path d="M198.107 67.6608C200.189 67.6608 201.878 65.9727 201.878 63.8902C201.878 61.8078 200.189 60.1196 198.107 60.1196C196.025 60.1196 194.336 61.8078 194.336 63.8902C194.336 65.9727 196.025 67.6608 198.107 67.6608Z" fill="#00D639"/>
<path d="M215.101 65.1908L216.133 65.4582C215.869 66.4008 215.445 67.0928 214.859 67.5343C214.281 67.9674 213.636 68.1839 212.923 68.1839C211.87 68.1839 211.034 67.7848 210.414 66.9867C209.802 66.18 209.497 65.0592 209.497 63.6241C209.497 62.1891 209.802 61.0725 210.414 60.2743C211.034 59.4677 211.866 59.0643 212.91 59.0643C213.623 59.0643 214.273 59.2851 214.859 59.7267C215.445 60.1597 215.865 60.856 216.12 61.8155L215.088 62.0957C214.893 61.4334 214.613 60.9239 214.248 60.5673C213.882 60.2022 213.432 60.0196 212.897 60.0196C212.244 60.0196 211.7 60.3126 211.267 60.8985C210.843 61.4759 210.63 62.3844 210.63 63.6241C210.63 64.8639 210.847 65.7767 211.28 66.3626C211.713 66.94 212.256 67.2287 212.91 67.2287C213.445 67.2287 213.895 67.0546 214.26 66.7065C214.625 66.3498 214.906 65.8446 215.101 65.1908ZM219.354 68.1839C218.743 68.1839 218.254 68.0183 217.889 67.6872C217.524 67.3475 217.342 66.9315 217.342 66.439C217.342 65.8276 217.562 65.3563 218.004 65.0252C218.446 64.6855 219.048 64.486 219.813 64.4266L221.354 64.2992V63.7006C221.354 63.242 221.222 62.9024 220.959 62.6816C220.704 62.4608 220.382 62.3505 219.991 62.3505C219.651 62.3505 219.329 62.4354 219.023 62.6052C218.726 62.775 218.475 63.068 218.271 63.484L217.431 63.051C217.652 62.5925 217.979 62.2146 218.412 61.9174C218.845 61.6202 219.392 61.4716 220.055 61.4716C220.725 61.4716 221.29 61.6669 221.749 62.0575C222.207 62.4396 222.436 62.9873 222.436 63.7006V68.082H221.354V67.1395C221.158 67.4622 220.883 67.7169 220.526 67.9037C220.178 68.0905 219.787 68.1839 219.354 68.1839ZM218.386 66.3498C218.386 66.698 218.513 66.9527 218.768 67.114C219.023 67.2754 219.32 67.356 219.66 67.356C219.787 67.356 219.91 67.3433 220.029 67.3178C220.148 67.2923 220.263 67.2584 220.373 67.2159C220.483 67.1735 220.59 67.1183 220.691 67.0503C220.793 66.9824 220.883 66.906 220.959 66.8211C221.044 66.7277 221.112 66.63 221.163 66.5281C221.222 66.4262 221.269 66.3159 221.303 66.197C221.337 66.0696 221.354 65.938 221.354 65.8021V65.1271L220.042 65.2417C219.49 65.2927 219.074 65.4073 218.794 65.5856C218.522 65.7554 218.386 66.0102 218.386 66.3498ZM223.79 66.6046L224.618 66.1333C224.83 66.5579 225.081 66.8678 225.369 67.0631C225.667 67.2499 225.993 67.3433 226.35 67.3433C226.741 67.3433 227.068 67.2584 227.331 67.0886C227.594 66.9102 227.726 66.6513 227.726 66.3116C227.726 65.9889 227.569 65.7597 227.254 65.6238C226.949 65.4795 226.596 65.3521 226.197 65.2417C226.087 65.2078 225.976 65.1738 225.866 65.1398C225.756 65.1059 225.645 65.0719 225.535 65.0379C225.425 64.9955 225.314 64.953 225.204 64.9106C225.102 64.8681 225.004 64.8172 224.911 64.7577C224.817 64.6983 224.728 64.6346 224.643 64.5667C224.558 64.4987 224.482 64.4223 224.414 64.3374C224.355 64.2525 224.299 64.1633 224.249 64.0699C224.198 63.968 224.159 63.8576 224.134 63.7388C224.108 63.6114 224.096 63.4755 224.096 63.3312C224.096 63.1614 224.113 63.0043 224.147 62.8599C224.189 62.7156 224.244 62.584 224.312 62.4651C224.389 62.3377 224.474 62.2231 224.567 62.1212C224.669 62.0193 224.779 61.9301 224.898 61.8537C225.025 61.7688 225.161 61.7009 225.306 61.6499C225.45 61.5905 225.599 61.548 225.751 61.5226C225.913 61.4971 226.078 61.4843 226.248 61.4843C226.826 61.4843 227.318 61.6329 227.726 61.9301C228.142 62.2273 228.473 62.6052 228.719 63.0637L227.917 63.5222C227.696 63.1147 227.454 62.8132 227.191 62.6179C226.928 62.4141 226.626 62.3122 226.286 62.3122C225.989 62.3122 225.726 62.3929 225.497 62.5542C225.276 62.7071 225.166 62.9406 225.166 63.2548C225.166 63.5944 225.314 63.8407 225.611 63.9935C225.917 64.1463 226.265 64.278 226.656 64.3883C226.766 64.4223 226.877 64.4563 226.987 64.4902C227.106 64.5242 227.22 64.5624 227.331 64.6049C227.441 64.6388 227.547 64.677 227.649 64.7195C227.76 64.762 227.862 64.8129 227.955 64.8723C228.057 64.9233 228.15 64.9827 228.235 65.0507C228.32 65.1186 228.396 65.195 228.464 65.2799C228.532 65.3563 228.592 65.4455 228.643 65.5474C228.694 65.6408 228.732 65.7469 228.757 65.8658C228.783 65.9847 228.796 66.1163 228.796 66.2607C228.796 66.4135 228.779 66.5579 228.745 66.6937C228.711 66.8296 228.664 66.9569 228.605 67.0758C228.545 67.1947 228.469 67.3051 228.375 67.407C228.29 67.5089 228.193 67.6023 228.082 67.6872C227.98 67.7636 227.862 67.8358 227.726 67.9037C227.598 67.9632 227.462 68.0141 227.318 68.0566C227.174 68.099 227.021 68.1287 226.86 68.1457C226.707 68.1712 226.55 68.1839 226.388 68.1839C225.726 68.1839 225.187 68.0396 224.771 67.7509C224.355 67.4537 224.028 67.0716 223.79 66.6046ZM235.306 68.082H234.236V63.968C234.236 63.4331 234.096 63.0298 233.815 62.758C233.544 62.4778 233.2 62.3377 232.784 62.3377C232.385 62.3377 232.049 62.4778 231.778 62.758C231.506 63.0298 231.37 63.4331 231.37 63.968V68.082H230.3V59.1662H231.37V62.516C231.557 62.1764 231.807 61.9216 232.121 61.7518C232.436 61.5735 232.784 61.4843 233.166 61.4843C233.777 61.4843 234.287 61.6881 234.694 62.0957C235.102 62.5033 235.306 63.0765 235.306 63.8152V68.082ZM245.057 68.082L244.318 65.8021H240.943L240.204 68.082H239.058L242.051 59.1662H243.261L246.254 68.082H245.057ZM241.236 64.8851H244.025L242.637 60.5418L241.236 64.8851ZM251.352 65.8531L252.32 66.0696C252.159 66.681 251.853 67.1862 251.403 67.5853C250.953 67.9844 250.393 68.1839 249.722 68.1839C249.527 68.1839 249.335 68.1627 249.149 68.1202C248.962 68.0863 248.784 68.0311 248.614 67.9547C248.452 67.8782 248.295 67.7848 248.142 67.6745C247.998 67.5641 247.862 67.4367 247.735 67.2923C247.616 67.148 247.506 66.9909 247.404 66.8211C247.31 66.6428 247.23 66.4517 247.162 66.2479C247.094 66.0356 247.039 65.8149 246.996 65.5856C246.962 65.3479 246.945 65.0974 246.945 64.8341C246.945 64.5709 246.962 64.3247 246.996 64.0954C247.039 63.8576 247.094 63.6369 247.162 63.4331C247.23 63.2208 247.31 63.0298 247.404 62.8599C247.506 62.6816 247.616 62.5203 247.735 62.3759C247.862 62.2316 247.998 62.1042 248.142 61.9938C248.295 61.8834 248.452 61.79 248.614 61.7136C248.784 61.6372 248.962 61.582 249.149 61.548C249.335 61.5056 249.527 61.4843 249.722 61.4843C250.41 61.4843 250.974 61.6839 251.416 62.083C251.866 62.4821 252.176 62.9873 252.346 63.5987L251.365 63.8152C251.204 63.3567 250.987 63 250.715 62.7453C250.452 62.4821 250.125 62.3505 249.735 62.3505C249.234 62.3505 248.822 62.5627 248.499 62.9873C248.176 63.4034 248.015 64.019 248.015 64.8341C248.015 65.6408 248.176 66.2564 248.499 66.681C248.822 67.097 249.234 67.3051 249.735 67.3051C250.125 67.3051 250.452 67.1777 250.715 66.923C250.987 66.6682 251.199 66.3116 251.352 65.8531ZM257.349 67.0886L257.426 67.9419C257.29 68.0183 257.107 68.0778 256.878 68.1202C256.649 68.1627 256.424 68.1839 256.203 68.1839C255.676 68.1839 255.269 68.0438 254.98 67.7636C254.691 67.4749 254.547 67.097 254.547 66.63V62.4523H253.057V61.5862H254.547V59.7776H255.617V61.5862H257.4V62.4523H255.617V66.4517C255.617 66.7149 255.689 66.923 255.833 67.0758C255.978 67.2202 256.177 67.2923 256.432 67.2923C256.593 67.2923 256.746 67.2754 256.891 67.2414C257.035 67.1989 257.188 67.148 257.349 67.0886ZM263.702 68.082H262.632V67.1522C262.445 67.4919 262.195 67.7509 261.88 67.9292C261.566 68.099 261.218 68.1839 260.836 68.1839C260.225 68.1839 259.715 67.9801 259.308 67.5726C258.9 67.165 258.696 66.5918 258.696 65.8531V61.5862H259.766V65.7002C259.766 66.2267 259.902 66.63 260.174 66.9102C260.445 67.182 260.789 67.3178 261.205 67.3178C261.604 67.3178 261.94 67.182 262.212 66.9102C262.492 66.63 262.632 66.2267 262.632 65.7002V61.5862H263.702V68.082ZM267.378 68.1839C266.767 68.1839 266.279 68.0183 265.914 67.6872C265.549 67.3475 265.366 66.9315 265.366 66.439C265.366 65.8276 265.587 65.3563 266.028 65.0252C266.47 64.6855 267.073 64.486 267.837 64.4266L269.378 64.2992V63.7006C269.378 63.242 269.247 62.9024 268.983 62.6816C268.729 62.4608 268.406 62.3505 268.015 62.3505C267.676 62.3505 267.353 62.4354 267.047 62.6052C266.75 62.775 266.5 63.068 266.296 63.484L265.455 63.051C265.676 62.5925 266.003 62.2146 266.436 61.9174C266.869 61.6202 267.417 61.4716 268.079 61.4716C268.75 61.4716 269.314 61.6669 269.773 62.0575C270.232 62.4396 270.461 62.9873 270.461 63.7006V68.082H269.378V67.1395C269.183 67.4622 268.907 67.7169 268.55 67.9037C268.202 68.0905 267.812 68.1839 267.378 68.1839ZM266.41 66.3498C266.41 66.698 266.538 66.9527 266.793 67.114C267.047 67.2754 267.344 67.356 267.684 67.356C267.812 67.356 267.935 67.3433 268.054 67.3178C268.172 67.2923 268.287 67.2584 268.397 67.2159C268.508 67.1735 268.614 67.1183 268.716 67.0503C268.818 66.9824 268.907 66.906 268.983 66.8211C269.068 66.7277 269.136 66.63 269.187 66.5281C269.247 66.4262 269.293 66.3159 269.327 66.197C269.361 66.0696 269.378 65.938 269.378 65.8021V65.1271L268.066 65.2417C267.514 65.2927 267.098 65.4073 266.818 65.5856C266.546 65.7554 266.41 66.0102 266.41 66.3498ZM273.598 68.082H272.528V59.1662H273.598V68.082ZM278.884 64.8978C278.884 65.8658 279.054 66.8423 279.393 67.8273C279.733 68.8038 280.306 69.7378 281.113 70.6294H279.979C279.139 69.7208 278.557 68.7656 278.234 67.7636C277.912 66.7616 277.75 65.8064 277.75 64.8978C277.75 63.9893 277.912 63.034 278.234 62.032C278.557 61.0301 279.139 60.0748 279.979 59.1662H281.113C280.306 60.0578 279.733 60.9961 279.393 61.9811C279.054 62.9576 278.884 63.9298 278.884 64.8978ZM282.171 68.082V59.1662H285.152C285.967 59.1662 286.625 59.3658 287.126 59.7649C287.627 60.164 287.877 60.7414 287.877 61.4971C287.877 61.9896 287.763 62.4056 287.533 62.7453C287.304 63.0765 286.994 63.3227 286.604 63.484C287.088 63.6454 287.47 63.9043 287.75 64.261C288.03 64.6176 288.17 65.0761 288.17 65.6366C288.17 66.4262 287.911 67.0334 287.393 67.4579C286.875 67.874 286.188 68.082 285.33 68.082H282.171ZM285.152 60.096H283.305V63.0765H285.152C285.602 63.0765 285.98 62.9533 286.285 62.7071C286.599 62.4608 286.756 62.0872 286.756 61.5862C286.756 61.0768 286.599 60.7032 286.285 60.4654C285.98 60.2192 285.602 60.096 285.152 60.096ZM285.317 63.968H283.305V67.165H285.317C285.801 67.165 286.209 67.0334 286.54 66.7701C286.871 66.5069 287.037 66.1036 287.037 65.5601C287.037 65.0252 286.871 64.6261 286.54 64.3629C286.209 64.0996 285.801 63.968 285.317 63.968ZM294.947 68.082H293.877V67.1522C293.69 67.4919 293.44 67.7509 293.125 67.9292C292.811 68.099 292.463 68.1839 292.081 68.1839C291.47 68.1839 290.96 67.9801 290.553 67.5726C290.145 67.165 289.941 66.5918 289.941 65.8531V61.5862H291.011V65.7002C291.011 66.2267 291.147 66.63 291.419 66.9102C291.69 67.182 292.034 67.3178 292.45 67.3178C292.85 67.3178 293.185 67.182 293.457 66.9102C293.737 66.63 293.877 66.2267 293.877 65.7002V61.5862H294.947V68.082ZM299.197 68.1839C298.466 68.1839 297.855 67.891 297.363 67.3051C296.879 66.7192 296.637 65.8913 296.637 64.8214C296.637 63.76 296.879 62.9406 297.363 62.3632C297.855 61.7773 298.466 61.4843 299.197 61.4843C299.664 61.4843 300.067 61.5947 300.407 61.8155C300.746 62.0363 301.014 62.3547 301.209 62.7708V59.1662H302.279V68.082H301.209V66.872C301.014 67.2881 300.746 67.6108 300.407 67.84C300.067 68.0693 299.664 68.1839 299.197 68.1839ZM299.451 67.2923C299.961 67.2923 300.381 67.0886 300.712 66.681C301.044 66.2649 301.209 65.645 301.209 64.8214C301.209 63.9978 301.044 63.3821 300.712 62.9746C300.381 62.567 299.961 62.3632 299.451 62.3632C298.942 62.3632 298.522 62.567 298.19 62.9746C297.868 63.3821 297.706 63.9978 297.706 64.8214C297.706 65.645 297.868 66.2649 298.19 66.681C298.522 67.0886 298.942 67.2923 299.451 67.2923ZM306.56 68.1457C306.348 68.1457 306.144 68.1245 305.949 68.082C305.754 68.0311 305.571 67.9589 305.401 67.8655C305.232 67.7636 305.07 67.6447 304.917 67.5089C304.773 67.3645 304.641 67.2032 304.523 67.0249C304.412 66.8381 304.315 66.6343 304.23 66.4135C304.145 66.1842 304.081 65.938 304.039 65.6748C303.996 65.4115 303.975 65.1271 303.975 64.8214C303.975 64.5157 303.996 64.2313 304.039 63.968C304.081 63.7048 304.145 63.4586 304.23 63.2293C304.315 63 304.412 62.7962 304.523 62.6179C304.641 62.4311 304.773 62.2698 304.917 62.1339C305.07 61.9896 305.232 61.8707 305.401 61.7773C305.571 61.6754 305.754 61.6032 305.949 61.5608C306.144 61.5098 306.348 61.4843 306.56 61.4843C307.019 61.4843 307.414 61.5947 307.745 61.8155C308.085 62.0363 308.352 62.3547 308.547 62.7708V61.5862H309.617V68.2094C309.617 68.4047 309.596 68.5915 309.554 68.7698C309.52 68.9481 309.469 69.1137 309.401 69.2666C309.333 69.4194 309.248 69.5595 309.146 69.6869C309.053 69.8227 308.942 69.9416 308.815 70.0435C308.696 70.1539 308.564 70.2473 308.42 70.3237C308.276 70.4086 308.123 70.4766 307.962 70.5275C307.8 70.5869 307.63 70.6294 307.452 70.6549C307.274 70.6803 307.091 70.6931 306.904 70.6931C306.293 70.6931 305.75 70.5615 305.274 70.2982C304.807 70.0435 304.463 69.7081 304.242 69.292L305.019 68.7061C305.232 69.0713 305.495 69.3472 305.809 69.534C306.132 69.7208 306.488 69.8142 306.879 69.8142C307.337 69.8142 307.728 69.6826 308.051 69.4194C308.382 69.1562 308.547 68.7104 308.547 68.082V66.8593C308.352 67.2754 308.085 67.5938 307.745 67.8146C307.414 68.0353 307.019 68.1457 306.56 68.1457ZM306.802 67.2796C307.312 67.2796 307.728 67.0758 308.051 66.6682C308.382 66.2522 308.547 65.6366 308.547 64.8214C308.547 63.9893 308.382 63.3694 308.051 62.9618C307.728 62.5542 307.312 62.3505 306.802 62.3505C306.293 62.3505 305.873 62.5542 305.542 62.9618C305.219 63.3694 305.058 63.9893 305.058 64.8214C305.058 65.6366 305.219 66.2522 305.542 66.6682C305.873 67.0758 306.293 67.2796 306.802 67.2796ZM315.873 66.2225L316.727 66.5281C316.54 66.9697 316.234 67.356 315.81 67.6872C315.385 68.0183 314.85 68.1839 314.205 68.1839C313.967 68.1839 313.738 68.1585 313.517 68.1075C313.305 68.0566 313.101 67.9844 312.906 67.891C312.71 67.7976 312.528 67.6787 312.358 67.5343C312.197 67.39 312.052 67.2287 311.925 67.0503C311.798 66.8635 311.687 66.6555 311.594 66.4262C311.5 66.197 311.428 65.9507 311.377 65.6875C311.335 65.4158 311.314 65.1271 311.314 64.8214C311.314 64.5582 311.33 64.3077 311.364 64.0699C311.407 63.8322 311.462 63.6114 311.53 63.4076C311.598 63.2038 311.679 63.017 311.772 62.8472C311.874 62.6689 311.984 62.5075 312.103 62.3632C312.231 62.2188 312.366 62.0915 312.511 61.9811C312.664 61.8707 312.821 61.7815 312.982 61.7136C313.152 61.6372 313.326 61.582 313.504 61.548C313.691 61.5056 313.882 61.4843 314.077 61.4843C314.876 61.4843 315.529 61.7773 316.039 62.3632C316.548 62.9491 316.803 63.76 316.803 64.7959V65.0889H312.371C312.405 65.8531 312.591 66.4135 312.931 66.7701C313.271 67.1268 313.695 67.3051 314.205 67.3051C314.587 67.3051 314.914 67.2117 315.186 67.0249C315.457 66.8381 315.686 66.5706 315.873 66.2225ZM314.065 62.325C313.632 62.325 313.258 62.4821 312.944 62.7962C312.638 63.1019 312.451 63.5944 312.383 64.2737H315.759C315.682 63.5944 315.487 63.1019 315.173 62.7962C314.867 62.4821 314.498 62.325 314.065 62.325ZM321.941 67.0886L322.018 67.9419C321.882 68.0183 321.699 68.0778 321.47 68.1202C321.241 68.1627 321.016 68.1839 320.795 68.1839C320.269 68.1839 319.861 68.0438 319.572 67.7636C319.284 67.4749 319.139 67.097 319.139 66.63V62.4523H317.649V61.5862H319.139V59.7776H320.209V61.5862H321.992V62.4523H320.209V66.4517C320.209 66.7149 320.281 66.923 320.426 67.0758C320.57 67.2202 320.77 67.2923 321.024 67.2923C321.186 67.2923 321.338 67.2754 321.483 67.2414C321.627 67.1989 321.78 67.148 321.941 67.0886ZM324.358 64.9106C324.358 63.9426 324.188 62.9703 323.849 61.9938C323.509 61.0088 322.936 60.0706 322.129 59.179H323.263C324.104 60.0875 324.685 61.0428 325.008 62.0448C325.331 63.0467 325.492 64.002 325.492 64.9106C325.492 65.8191 325.331 66.7744 325.008 67.7763C324.685 68.7783 324.104 69.7336 323.263 70.6421H322.129C322.936 69.7506 323.509 68.8165 323.849 67.84C324.188 66.855 324.358 65.8786 324.358 64.9106Z" fill="black" fill-opacity="0.9"/>
<path d="M37.835 33.8381L41.2947 34.6926C40.9057 36.2211 40.1693 37.4299 39.0855 38.3192C38.0156 39.2084 36.6817 39.6531 35.0838 39.6531C34.6114 39.6531 34.1529 39.6114 33.7082 39.528C33.2775 39.4446 32.8676 39.3196 32.4785 39.1529C32.0895 38.9861 31.7213 38.7846 31.3739 38.5484C31.0404 38.2983 30.7278 38.0204 30.436 37.7147C30.1581 37.3952 29.9011 37.0409 29.6649 36.6518C29.4425 36.2489 29.255 35.8181 29.1021 35.3596C28.9493 34.9011 28.8312 34.4078 28.7478 33.8798C28.6644 33.3518 28.6227 32.7891 28.6227 32.1916C28.6227 31.5941 28.6644 31.0314 28.7478 30.5034C28.8312 29.9754 28.9493 29.4821 29.1021 29.0236C29.255 28.5651 29.4425 28.1413 29.6649 27.7522C29.8872 27.3493 30.1373 26.995 30.4152 26.6893C30.6931 26.3697 30.9987 26.0918 31.3322 25.8556C31.6796 25.6055 32.0478 25.3971 32.4369 25.2303C32.8259 25.0636 33.2358 24.9385 33.6665 24.8552C34.0973 24.7718 34.5489 24.7301 35.0213 24.7301C36.647 24.7301 38.0017 25.1747 39.0855 26.064C40.1832 26.9533 40.9196 28.1621 41.2947 29.6905L37.835 30.5242C37.6265 29.8434 37.3 29.239 36.8554 28.711C36.4107 28.1691 35.7924 27.8981 35.0004 27.8981C34.2223 27.8981 33.5832 28.2524 33.083 28.9611C32.5827 29.6558 32.3326 30.7326 32.3326 32.1916C32.3326 33.6505 32.5897 34.7274 33.1038 35.4221C33.6318 36.1169 34.2849 36.4642 35.063 36.4642C35.8133 36.4642 36.4107 36.2002 36.8554 35.6722C37.3 35.1303 37.6265 34.519 37.835 33.8381ZM45.8551 39.6531C44.813 39.6531 43.9863 39.3682 43.3749 38.7985C42.7635 38.2289 42.4578 37.5063 42.4578 36.631C42.4578 35.6722 42.826 34.9011 43.5625 34.3175C44.2989 33.7339 45.3132 33.3935 46.6054 33.2962L49.1898 33.1295V32.4625C49.1898 32.004 49.0439 31.6497 48.7522 31.3996C48.4604 31.1356 48.0783 31.0036 47.6058 31.0036C47.1334 31.0036 46.7027 31.1217 46.3136 31.3579C45.9385 31.5802 45.5494 31.9693 45.1465 32.5251L42.4787 31.1703C42.9789 30.4061 43.6667 29.7392 44.542 29.1695C45.4174 28.5998 46.5568 28.315 47.9602 28.315C49.3913 28.315 50.5376 28.6901 51.3991 29.4404C52.2606 30.1907 52.6913 31.2259 52.6913 32.5459V39.4863H49.1898V37.944C48.8703 38.472 48.4187 38.8889 47.8351 39.1945C47.2515 39.5002 46.5915 39.6531 45.8551 39.6531ZM45.8134 36.2975C45.8134 36.6587 45.9454 36.9297 46.2094 37.1103C46.4734 37.291 46.8138 37.3813 47.2307 37.3813C47.7448 37.3813 48.1964 37.2215 48.5854 36.9019C48.9884 36.5823 49.1898 36.1377 49.1898 35.568V35.0053L47.3974 35.1512C46.8833 35.1929 46.4873 35.311 46.2094 35.5055C45.9454 35.6861 45.8134 35.9501 45.8134 36.2975ZM54.0084 37.6522L56.0093 35.6722C56.4539 36.1863 56.9263 36.5754 57.4265 36.8394C57.9406 37.1034 58.4617 37.2354 58.9897 37.2354C59.4899 37.2354 59.8581 37.152 60.0943 36.9853C60.3444 36.8046 60.4695 36.5823 60.4695 36.3183C60.4695 36.0126 60.2611 35.7973 59.8442 35.6722C59.4413 35.5333 58.955 35.4013 58.3853 35.2762C58.2185 35.2345 58.0449 35.1929 57.8642 35.1512C57.6836 35.1095 57.503 35.0678 57.3223 35.0261C57.1556 34.9705 56.9819 34.915 56.8013 34.8594C56.6345 34.7899 56.4678 34.7135 56.3011 34.6301C56.1343 34.5467 55.9745 34.4564 55.8217 34.3592C55.6689 34.2619 55.5299 34.1577 55.4049 34.0465C55.2798 33.9215 55.1617 33.7895 55.0505 33.6505C54.9533 33.4977 54.863 33.331 54.7796 33.1503C54.7101 32.9697 54.6545 32.7752 54.6129 32.5667C54.5712 32.3583 54.5503 32.1291 54.5503 31.879C54.5503 30.7952 54.9741 29.9337 55.8217 29.2945C56.6693 28.6415 57.7809 28.315 59.1564 28.315C60.1569 28.315 61.0878 28.5234 61.9493 28.9402C62.8108 29.3432 63.4846 29.8434 63.971 30.4409L61.9284 32.2541C61.4699 31.7817 61.0114 31.4274 60.5529 31.1912C60.0943 30.955 59.6497 30.8369 59.219 30.8369C58.8716 30.8369 58.5937 30.9063 58.3853 31.0453C58.1769 31.1842 58.0726 31.3787 58.0726 31.6289C58.0726 31.9345 58.2672 32.1638 58.6562 32.3166C59.0592 32.4556 59.5385 32.5945 60.0943 32.7335C60.2611 32.7752 60.4278 32.8169 60.5945 32.8585C60.7752 32.9002 60.9558 32.9489 61.1364 33.0044C61.3171 33.0461 61.4908 33.1017 61.6575 33.1712C61.8381 33.2267 62.0118 33.2962 62.1785 33.3796C62.3453 33.4491 62.4981 33.5324 62.6371 33.6297C62.7899 33.727 62.9289 33.8312 63.0539 33.9423C63.1929 34.0535 63.311 34.1855 63.4082 34.3383C63.5194 34.4773 63.6097 34.6301 63.6792 34.7969C63.7625 34.9636 63.8251 35.1512 63.8668 35.3596C63.9084 35.5541 63.9293 35.7695 63.9293 36.0057C63.9293 37.1451 63.4708 38.0413 62.5537 38.6943C61.6505 39.3335 60.4695 39.6531 59.0105 39.6531C58.6493 39.6531 58.3019 39.6322 57.9684 39.5905C57.635 39.5489 57.3154 39.4933 57.0097 39.4238C56.7179 39.3404 56.44 39.2501 56.176 39.1529C55.9259 39.0417 55.6897 38.9305 55.4674 38.8194C55.2451 38.6943 55.0366 38.5693 54.8421 38.4442C54.6615 38.3053 54.5017 38.1733 54.3628 38.0482C54.2238 37.9093 54.1057 37.7773 54.0084 37.6522ZM75.7438 39.4863H72.159V32.7752C72.159 32.2055 72.0131 31.7747 71.7213 31.483C71.4434 31.1912 71.0821 31.0453 70.6375 31.0453C70.2207 31.0453 69.8663 31.1912 69.5746 31.483C69.2828 31.7747 69.1369 32.2055 69.1369 32.7752V39.4863H65.552V24.8969H69.1369V30.0865C69.4426 29.503 69.8594 29.0653 70.3874 28.7735C70.9293 28.4678 71.5198 28.315 72.159 28.315C73.2428 28.315 74.1112 28.6484 74.7642 29.3154C75.4173 29.9823 75.7438 30.9272 75.7438 32.1499V39.4863ZM82.449 39.4863V24.8969H88.8058C90.3064 24.8969 91.5083 25.2581 92.4115 25.9806C93.3285 26.6893 93.7871 27.648 93.7871 28.8569C93.7871 29.6489 93.5856 30.3227 93.1826 30.8785C92.7936 31.4204 92.2517 31.8303 91.557 32.1082C92.3767 32.3722 93.0159 32.7821 93.4744 33.3379C93.9469 33.8937 94.1831 34.6023 94.1831 35.4638C94.1831 36.6865 93.7106 37.6661 92.7658 38.4025C91.8349 39.1251 90.6052 39.4863 89.0767 39.4863H82.449ZM88.514 27.8981H86.1589V30.7952H88.514C88.9864 30.7952 89.3824 30.6771 89.702 30.4409C90.0216 30.1907 90.1814 29.8225 90.1814 29.3362C90.1814 28.8638 90.0216 28.5095 89.702 28.2733C89.3824 28.0232 88.9864 27.8981 88.514 27.8981ZM88.785 33.5463H86.1589V36.5476H88.785C89.2852 36.5476 89.6951 36.4225 90.0146 36.1724C90.3342 35.9223 90.494 35.5472 90.494 35.047C90.494 34.5467 90.3342 34.1716 90.0146 33.9215C89.6951 33.6714 89.2852 33.5463 88.785 33.5463ZM98.8356 39.6531C97.7935 39.6531 96.9667 39.3682 96.3554 38.7985C95.744 38.2289 95.4383 37.5063 95.4383 36.631C95.4383 35.6722 95.8065 34.9011 96.5429 34.3175C97.2794 33.7339 98.2937 33.3935 99.5859 33.2962L102.17 33.1295V32.4625C102.17 32.004 102.024 31.6497 101.733 31.3996C101.441 31.1356 101.059 31.0036 100.586 31.0036C100.114 31.0036 99.6832 31.1217 99.2941 31.3579C98.9189 31.5802 98.5299 31.9693 98.1269 32.5251L95.4592 31.1703C95.9594 30.4061 96.6472 29.7392 97.5225 29.1695C98.3979 28.5998 99.5373 28.315 100.941 28.315C102.372 28.315 103.518 28.6901 104.38 29.4404C105.241 30.1907 105.672 31.2259 105.672 32.5459V39.4863H102.17V37.944C101.851 38.472 101.399 38.8889 100.816 39.1945C100.232 39.5002 99.572 39.6531 98.8356 39.6531ZM98.7939 36.2975C98.7939 36.6587 98.9259 36.9297 99.1899 37.1103C99.4539 37.291 99.7943 37.3813 100.211 37.3813C100.725 37.3813 101.177 37.2215 101.566 36.9019C101.969 36.5823 102.17 36.1377 102.17 35.568V35.0053L100.378 35.1512C99.8638 35.1929 99.4678 35.311 99.1899 35.5055C98.9259 35.6861 98.7939 35.9501 98.7939 36.2975ZM111.532 39.4863H107.948V24.8969H111.532V39.4863ZM116.686 39.6531C115.644 39.6531 114.817 39.3682 114.205 38.7985C113.594 38.2289 113.288 37.5063 113.288 36.631C113.288 35.6722 113.657 34.9011 114.393 34.3175C115.129 33.7339 116.144 33.3935 117.436 33.2962L120.02 33.1295V32.4625C120.02 32.004 119.875 31.6497 119.583 31.3996C119.291 31.1356 118.909 31.0036 118.436 31.0036C117.964 31.0036 117.533 31.1217 117.144 31.3579C116.769 31.5802 116.38 31.9693 115.977 32.5251L113.309 31.1703C113.809 30.4061 114.497 29.7392 115.373 29.1695C116.248 28.5998 117.387 28.315 118.791 28.315C120.222 28.315 121.368 28.6901 122.23 29.4404C123.091 30.1907 123.522 31.2259 123.522 32.5459V39.4863H120.02V37.944C119.701 38.472 119.249 38.8889 118.666 39.1945C118.082 39.5002 117.422 39.6531 116.686 39.6531ZM116.644 36.2975C116.644 36.6587 116.776 36.9297 117.04 37.1103C117.304 37.291 117.644 37.3813 118.061 37.3813C118.575 37.3813 119.027 37.2215 119.416 36.9019C119.819 36.5823 120.02 36.1377 120.02 35.568V35.0053L118.228 35.1512C117.714 35.1929 117.318 35.311 117.04 35.5055C116.776 35.6861 116.644 35.9501 116.644 36.2975ZM125.839 28.4817H129.424V30.0865C129.73 29.503 130.147 29.0653 130.675 28.7735C131.217 28.4678 131.807 28.315 132.446 28.315C133.516 28.315 134.378 28.6484 135.031 29.3154C135.698 29.9823 136.031 30.9272 136.031 32.1499V39.4863H132.446V32.7752C132.446 32.2055 132.301 31.7747 132.009 31.483C131.731 31.1912 131.37 31.0453 130.925 31.0453C130.508 31.0453 130.154 31.1912 129.862 31.483C129.57 31.7747 129.424 32.2055 129.424 32.7752V39.4863H125.839V28.4817ZM145.11 34.9427L148.362 35.4013C148.32 35.6792 148.25 35.9571 148.153 36.235C148.07 36.5129 147.959 36.7769 147.82 37.027C147.695 37.2771 147.542 37.5202 147.361 37.7564C147.194 37.9787 147 38.1872 146.778 38.3817C146.569 38.5762 146.34 38.7499 146.09 38.9027C145.84 39.0556 145.562 39.1876 145.256 39.2987C144.964 39.4099 144.645 39.4933 144.297 39.5489C143.964 39.6183 143.603 39.6531 143.214 39.6531C142.825 39.6531 142.449 39.6183 142.088 39.5489C141.741 39.4933 141.4 39.403 141.067 39.2779C140.747 39.1529 140.442 39 140.15 38.8194C139.872 38.6249 139.615 38.4095 139.379 38.1733C139.142 37.9232 138.927 37.6522 138.733 37.3604C138.538 37.0686 138.371 36.7491 138.232 36.4017C138.107 36.0404 138.01 35.6583 137.941 35.2554C137.871 34.8524 137.836 34.4286 137.836 33.984C137.836 33.5394 137.871 33.1156 137.941 32.7126C138.01 32.3097 138.107 31.9345 138.232 31.5872C138.371 31.2259 138.538 30.8994 138.733 30.6076C138.927 30.3019 139.142 30.031 139.379 29.7947C139.615 29.5446 139.872 29.3293 140.15 29.1486C140.442 28.9541 140.747 28.7943 141.067 28.6693C141.4 28.5442 141.741 28.4539 142.088 28.3983C142.449 28.3289 142.825 28.2941 143.214 28.2941C143.603 28.2941 143.964 28.3289 144.297 28.3983C144.645 28.4539 144.964 28.5373 145.256 28.6484C145.562 28.7457 145.84 28.8777 146.09 29.0444C146.354 29.1973 146.59 29.371 146.798 29.5655C147.007 29.76 147.194 29.9754 147.361 30.2116C147.542 30.4339 147.695 30.6701 147.82 30.9202C147.945 31.1703 148.049 31.4343 148.132 31.7122C148.216 31.9762 148.278 32.2472 148.32 32.5251L145.089 32.9627C144.923 32.3375 144.686 31.872 144.381 31.5663C144.089 31.2467 143.721 31.087 143.276 31.087C142.706 31.087 142.248 31.3301 141.901 31.8164C141.567 32.3027 141.4 33.0253 141.4 33.984C141.4 34.9289 141.567 35.6444 141.901 36.1307C142.248 36.6171 142.706 36.8602 143.276 36.8602C143.721 36.8602 144.096 36.7004 144.402 36.3809C144.707 36.0613 144.944 35.5819 145.11 34.9427ZM156.96 35.839L160.003 36.4851C159.92 36.6796 159.83 36.8741 159.732 37.0686C159.635 37.2493 159.517 37.4299 159.378 37.6105C159.253 37.7912 159.107 37.9718 158.94 38.1524C158.788 38.3192 158.614 38.479 158.419 38.6318C158.225 38.7846 158.01 38.9236 157.773 39.0486C157.551 39.1737 157.301 39.2849 157.023 39.3821C156.745 39.4655 156.446 39.528 156.127 39.5697C155.821 39.6253 155.488 39.6531 155.126 39.6531C154.723 39.6531 154.334 39.6183 153.959 39.5489C153.584 39.4933 153.223 39.403 152.875 39.2779C152.542 39.139 152.222 38.9792 151.917 38.7985C151.625 38.604 151.347 38.3886 151.083 38.1524C150.833 37.9023 150.611 37.6314 150.416 37.3396C150.222 37.0339 150.055 36.7074 149.916 36.36C149.777 36.0126 149.673 35.6375 149.603 35.2345C149.534 34.8316 149.499 34.4078 149.499 33.9632C149.499 33.5185 149.534 33.1017 149.603 32.7126C149.673 32.3097 149.777 31.9345 149.916 31.5872C150.055 31.2398 150.222 30.9202 150.416 30.6284C150.611 30.3227 150.826 30.0518 151.062 29.8156C151.312 29.5655 151.583 29.3501 151.875 29.1695C152.167 28.9889 152.472 28.836 152.792 28.711C153.126 28.572 153.466 28.4747 153.813 28.4192C154.175 28.3497 154.55 28.315 154.939 28.315C155.314 28.315 155.675 28.3497 156.023 28.4192C156.384 28.4886 156.717 28.5859 157.023 28.711C157.343 28.836 157.641 28.9958 157.919 29.1903C158.197 29.371 158.454 29.5863 158.69 29.8364C158.927 30.0865 159.135 30.3644 159.316 30.6701C159.496 30.9619 159.649 31.2815 159.774 31.6289C159.899 31.9762 159.996 32.3514 160.066 32.7543C160.135 33.1434 160.17 33.5602 160.17 34.0049V34.7969H152.917C153.014 35.5889 153.264 36.1724 153.667 36.5476C154.07 36.9089 154.578 37.0895 155.189 37.0895C155.55 37.0895 155.877 36.9853 156.168 36.7769C156.474 36.5545 156.738 36.2419 156.96 35.839ZM154.897 30.8785C154.439 30.8785 154.036 31.0244 153.688 31.3162C153.341 31.608 153.105 32.1013 152.98 32.796H156.835C156.724 32.1013 156.488 31.608 156.127 31.3162C155.779 31.0244 155.37 30.8785 154.897 30.8785Z" fill="black"/>
</g>
<defs>
<clipPath id="clip0_1093_27536">
<rect width="440" height="277.895" fill="white"/>
</clipPath>
</defs>
</svg>
