<svg width="441" height="279" viewBox="0 0 441 279" fill="none" xmlns="http://www.w3.org/2000/svg">
<g clip-path="url(#clip0_1093_27505)">
<mask id="mask0_1093_27505" style="mask-type:luminance" maskUnits="userSpaceOnUse" x="0" y="0" width="441" height="279">
<path d="M441 0H0V278.526H441V0Z" fill="white"/>
</mask>
<g mask="url(#mask0_1093_27505)">
<path d="M18.5687 0.580566H422.432C432.366 0.580566 440.42 8.63414 440.42 18.5687V259.958C440.42 269.892 432.366 277.946 422.432 277.946H18.5687C8.63414 277.946 0.580566 269.892 0.580566 259.958V18.5687L0.586233 18.104C0.832687 8.38422 8.78949 0.580566 18.5687 0.580566Z" fill="white" stroke="#E2E2E2" stroke-width="1.16053"/>
<path d="M408.506 48.7422H27.8531C22.7255 48.7422 18.5688 52.8988 18.5688 58.0264V252.995C18.5688 258.122 22.7255 262.279 27.8531 262.279H408.506C413.633 262.279 417.79 258.122 417.79 252.995V58.0264C417.79 52.8988 413.633 48.7422 408.506 48.7422Z" fill="white"/>
<path d="M50.8418 241.737L51.966 241.409C52.0892 242.112 52.3265 242.6 52.6774 242.875C53.0379 243.15 53.4601 243.288 53.9439 243.288C54.4751 243.288 54.9115 243.118 55.253 242.777C55.604 242.425 55.7795 241.87 55.7795 241.111V234.295H57.0459V241.168C57.0459 242.173 56.7661 242.961 56.2063 243.53C55.6467 244.09 54.9115 244.37 54.0007 244.37C53.1944 244.37 52.5067 244.161 51.9374 243.743C51.3683 243.316 51.0031 242.648 50.8418 241.737ZM61.2138 244.37C60.5307 244.37 59.9852 244.184 59.5773 243.815C59.1694 243.436 58.9655 242.97 58.9655 242.42C58.9655 241.737 59.2121 241.211 59.7054 240.841C60.1987 240.461 60.8722 240.238 61.726 240.172L63.4478 240.03V239.361C63.4478 238.848 63.3007 238.469 63.0067 238.223C62.7221 237.975 62.3615 237.852 61.9252 237.852C61.5458 237.852 61.1852 237.948 60.8438 238.137C60.5118 238.327 60.2318 238.654 60.0043 239.119L59.0651 238.636C59.3117 238.123 59.6769 237.7 60.1607 237.368C60.6445 237.037 61.2564 236.871 61.9963 236.871C62.7458 236.871 63.3766 237.089 63.8889 237.525C64.4012 237.952 64.6573 238.564 64.6573 239.361V244.256H63.4478V243.202C63.2296 243.563 62.9213 243.848 62.5228 244.057C62.1339 244.266 61.6975 244.37 61.2138 244.37ZM60.1323 242.32C60.1323 242.709 60.2746 242.995 60.5591 243.175C60.8438 243.354 61.1758 243.445 61.5552 243.445C61.6975 243.445 61.8351 243.431 61.9679 243.402C62.1008 243.374 62.2288 243.336 62.3521 243.288C62.4754 243.241 62.594 243.179 62.7078 243.104C62.8217 243.027 62.9213 242.942 63.0067 242.847C63.1015 242.743 63.1774 242.634 63.2344 242.52C63.3007 242.406 63.3529 242.282 63.3908 242.15C63.4288 242.007 63.4478 241.861 63.4478 241.709V240.955L61.9822 241.082C61.3654 241.14 60.9007 241.268 60.5877 241.467C60.2841 241.657 60.1323 241.941 60.1323 242.32ZM72.587 244.256H71.3917V239.659C71.3917 239.062 71.2353 238.611 70.9222 238.309C70.6186 237.995 70.2344 237.839 69.7696 237.839C69.3238 237.839 68.949 237.995 68.6454 238.309C68.3418 238.611 68.1902 239.062 68.1902 239.659V244.256H66.9948V236.998H68.1902V238.038C68.3988 237.659 68.6786 237.373 69.0297 237.184C69.3806 236.984 69.7696 236.885 70.1965 236.885C70.8794 236.885 71.4487 237.113 71.9041 237.568C72.3594 238.023 72.587 238.664 72.587 239.489V244.256Z" fill="black" fill-opacity="0.65"/>
<path d="M98.5181 238.734V239.788H94.975V244.256H93.7085V234.295H99.9553V235.348H94.975V238.734H98.5181ZM105.194 242.179L106.147 242.52C105.939 243.013 105.597 243.445 105.123 243.815C104.649 244.184 104.051 244.37 103.33 244.37C103.064 244.37 102.808 244.341 102.562 244.284C102.324 244.227 102.097 244.147 101.879 244.043C101.66 243.938 101.457 243.805 101.267 243.643C101.087 243.483 100.925 243.302 100.783 243.104C100.641 242.895 100.517 242.662 100.413 242.406C100.309 242.15 100.228 241.875 100.171 241.581C100.124 241.277 100.1 240.955 100.1 240.613C100.1 240.319 100.119 240.039 100.157 239.773C100.204 239.508 100.266 239.261 100.342 239.034C100.418 238.806 100.508 238.597 100.612 238.407C100.726 238.209 100.849 238.028 100.982 237.866C101.124 237.705 101.276 237.563 101.437 237.44C101.608 237.316 101.784 237.216 101.964 237.141C102.154 237.056 102.348 236.994 102.547 236.956C102.756 236.909 102.969 236.885 103.188 236.885C104.079 236.885 104.81 237.212 105.379 237.866C105.948 238.521 106.233 239.427 106.233 240.584V240.912H101.281C101.319 241.766 101.528 242.391 101.907 242.79C102.287 243.189 102.761 243.388 103.33 243.388C103.757 243.388 104.122 243.284 104.426 243.075C104.729 242.866 104.985 242.568 105.194 242.179ZM103.174 237.825C102.69 237.825 102.272 238 101.921 238.35C101.58 238.693 101.371 239.243 101.295 240.002H105.066C104.981 239.243 104.763 238.693 104.411 238.35C104.07 238 103.657 237.825 103.174 237.825ZM109.296 244.256H108.101V234.295H109.296V238.322C109.515 237.857 109.813 237.502 110.193 237.255C110.572 237.009 111.023 236.885 111.545 236.885C112.361 236.885 113.039 237.212 113.579 237.866C114.13 238.512 114.405 239.427 114.405 240.613C114.405 241.809 114.13 242.734 113.579 243.388C113.039 244.043 112.361 244.37 111.545 244.37C111.023 244.37 110.572 244.241 110.193 243.986C109.813 243.729 109.515 243.368 109.296 242.904V244.256ZM111.246 243.374C111.815 243.374 112.285 243.146 112.655 242.691C113.025 242.225 113.21 241.534 113.21 240.613C113.21 239.693 113.025 239.005 112.655 238.55C112.285 238.095 111.815 237.866 111.246 237.866C110.677 237.866 110.207 238.095 109.837 238.55C109.477 239.005 109.296 239.693 109.296 240.613C109.296 241.534 109.477 242.225 109.837 242.691C110.207 243.146 110.677 243.374 111.246 243.374Z" fill="black" fill-opacity="0.65"/>
<path d="M139.135 241.481L136.645 235.946L136.674 244.256H135.521V234.295H137.058L139.562 239.859L142.053 234.295H143.603V244.256H142.408L142.451 235.918L139.933 241.481H139.135ZM147.885 244.37C147.201 244.37 146.656 244.184 146.248 243.815C145.84 243.436 145.637 242.97 145.637 242.42C145.637 241.737 145.883 241.211 146.376 240.841C146.869 240.461 147.543 240.238 148.396 240.172L150.119 240.03V239.361C150.119 238.848 149.971 238.469 149.678 238.223C149.393 237.975 149.032 237.852 148.596 237.852C148.216 237.852 147.856 237.948 147.514 238.137C147.182 238.327 146.903 238.654 146.675 239.119L145.736 238.636C145.982 238.123 146.348 237.7 146.832 237.368C147.316 237.037 147.928 236.871 148.667 236.871C149.416 236.871 150.048 237.089 150.56 237.525C151.073 237.952 151.328 238.564 151.328 239.361V244.256H150.119V243.202C149.9 243.563 149.592 243.848 149.194 244.057C148.805 244.266 148.369 244.37 147.885 244.37ZM146.803 242.32C146.803 242.709 146.946 242.995 147.23 243.175C147.514 243.354 147.846 243.445 148.226 243.445C148.369 243.445 148.505 243.431 148.639 243.402C148.771 243.374 148.9 243.336 149.023 243.288C149.146 243.241 149.264 243.179 149.378 243.104C149.493 243.027 149.592 242.942 149.678 242.847C149.773 242.743 149.848 242.634 149.905 242.52C149.971 242.406 150.023 242.282 150.062 242.15C150.1 242.007 150.119 241.861 150.119 241.709V240.955L148.653 241.082C148.037 241.14 147.571 241.268 147.258 241.467C146.955 241.657 146.803 241.941 146.803 242.32ZM154.86 244.256H153.665V236.998H154.86V238.309C155.069 237.834 155.364 237.478 155.744 237.241C156.123 236.994 156.53 236.871 156.967 236.871C157.081 236.871 157.19 236.88 157.294 236.9C157.399 236.918 157.508 236.941 157.621 236.97L157.494 238.095C157.36 238.057 157.237 238.028 157.124 238.009C157.01 237.991 156.896 237.98 156.782 237.98C156.242 237.98 155.785 238.18 155.416 238.578C155.046 238.968 154.86 239.518 154.86 240.229V244.256Z" fill="black" fill-opacity="0.65"/>
<path d="M183.14 244.256L182.314 241.709H178.543L177.718 244.256H176.437L179.782 234.295H181.134L184.477 244.256H183.14ZM178.871 240.684H181.987L180.436 235.832L178.871 240.684ZM186.914 247.116H185.719V236.998H186.914V238.336C187.132 237.871 187.431 237.516 187.81 237.269C188.19 237.013 188.64 236.885 189.162 236.885C189.978 236.885 190.656 237.212 191.197 237.866C191.748 238.521 192.023 239.441 192.023 240.627C192.023 241.813 191.748 242.734 191.197 243.388C190.656 244.043 189.978 244.37 189.162 244.37C188.64 244.37 188.19 244.247 187.81 244C187.431 243.743 187.132 243.384 186.914 242.918V247.116ZM188.864 243.374C189.433 243.374 189.903 243.146 190.272 242.691C190.642 242.225 190.828 241.534 190.828 240.613C190.828 239.693 190.642 239.005 190.272 238.55C189.903 238.095 189.433 237.866 188.864 237.866C188.294 237.866 187.824 238.095 187.455 238.55C187.094 239.005 186.914 239.693 186.914 240.613C186.914 241.534 187.094 242.225 187.455 242.691C187.824 243.146 188.294 243.374 188.864 243.374ZM195.126 244.256H193.931V236.998H195.126V238.309C195.335 237.834 195.63 237.478 196.009 237.241C196.389 236.994 196.796 236.871 197.232 236.871C197.346 236.871 197.455 236.88 197.56 236.9C197.664 236.918 197.773 236.941 197.887 236.97L197.759 238.095C197.626 238.057 197.503 238.028 197.389 238.009C197.275 237.991 197.162 237.98 197.048 237.98C196.507 237.98 196.051 238.18 195.682 238.578C195.312 238.968 195.126 239.518 195.126 240.229V244.256Z" fill="black" fill-opacity="0.65"/>
<path d="M221.581 241.481L219.091 235.946L219.12 244.256H217.967V234.295H219.504L222.008 239.859L224.499 234.295H226.049V244.256H224.854L224.897 235.918L222.378 241.481H221.581ZM230.33 244.37C229.647 244.37 229.101 244.184 228.694 243.815C228.286 243.436 228.082 242.97 228.082 242.42C228.082 241.737 228.328 241.211 228.822 240.841C229.315 240.461 229.989 240.238 230.842 240.172L232.564 240.03V239.361C232.564 238.848 232.417 238.469 232.123 238.223C231.839 237.975 231.478 237.852 231.042 237.852C230.662 237.852 230.301 237.948 229.96 238.137C229.628 238.327 229.349 238.654 229.121 239.119L228.182 238.636C228.428 238.123 228.794 237.7 229.278 237.368C229.762 237.037 230.373 236.871 231.113 236.871C231.862 236.871 232.494 237.089 233.005 237.525C233.518 237.952 233.774 238.564 233.774 239.361V244.256H232.564V243.202C232.346 243.563 232.038 243.848 231.639 244.057C231.251 244.266 230.814 244.37 230.33 244.37ZM229.249 242.32C229.249 242.709 229.392 242.995 229.676 243.175C229.96 243.354 230.292 243.445 230.672 243.445C230.814 243.445 230.951 243.431 231.085 243.402C231.217 243.374 231.346 243.336 231.469 243.288C231.592 243.241 231.71 243.179 231.824 243.104C231.938 243.027 232.038 242.942 232.123 242.847C232.219 242.743 232.294 242.634 232.351 242.52C232.417 242.406 232.469 242.282 232.508 242.15C232.546 242.007 232.564 241.861 232.564 241.709V240.955L231.099 241.082C230.482 241.14 230.017 241.268 229.704 241.467C229.401 241.657 229.249 241.941 229.249 242.32ZM234.991 246.902L235.346 245.92C235.526 246.016 235.698 246.091 235.859 246.148C236.03 246.215 236.191 246.248 236.342 246.248C236.551 246.248 236.721 246.182 236.855 246.049C236.996 245.916 237.139 245.665 237.282 245.295L237.666 244.313L234.862 236.998H236.143L238.292 242.861L240.484 236.998H241.678L238.348 245.722C238.14 246.263 237.875 246.652 237.552 246.888C237.239 247.125 236.85 247.245 236.385 247.245C236.148 247.245 235.906 247.216 235.66 247.159C235.412 247.102 235.189 247.016 234.991 246.902Z" fill="black" fill-opacity="0.65"/>
<path d="M261.1 241.737L262.223 241.409C262.347 242.112 262.584 242.6 262.934 242.875C263.295 243.15 263.718 243.288 264.202 243.288C264.732 243.288 265.168 243.118 265.511 242.777C265.861 242.425 266.036 241.87 266.036 241.111V234.295H267.304V241.168C267.304 242.173 267.024 242.961 266.464 243.53C265.904 244.09 265.168 244.37 264.259 244.37C263.452 244.37 262.764 244.161 262.195 243.743C261.625 243.316 261.261 242.648 261.1 241.737ZM275.271 244.256H274.075V243.218C273.867 243.597 273.587 243.886 273.235 244.086C272.885 244.275 272.496 244.37 272.069 244.37C271.385 244.37 270.817 244.142 270.362 243.686C269.906 243.231 269.678 242.591 269.678 241.766V236.998H270.874V241.595C270.874 242.184 271.026 242.634 271.328 242.947C271.633 243.25 272.017 243.402 272.482 243.402C272.928 243.402 273.303 243.25 273.605 242.947C273.919 242.634 274.075 242.184 274.075 241.595V236.998H275.271V244.256ZM283.205 244.256H282.01V239.659C282.01 239.062 281.854 238.611 281.541 238.309C281.237 237.995 280.853 237.839 280.389 237.839C279.943 237.839 279.568 237.995 279.264 238.309C278.96 238.611 278.809 239.062 278.809 239.659V244.256H277.614V236.998H278.809V238.038C279.018 237.659 279.298 237.373 279.648 237.184C280 236.984 280.389 236.885 280.816 236.885C281.498 236.885 282.068 237.113 282.523 237.568C282.978 238.023 283.205 238.664 283.205 239.489V244.256Z" fill="black" fill-opacity="0.65"/>
<path d="M303.467 241.737L304.59 241.409C304.713 242.112 304.951 242.6 305.302 242.875C305.663 243.15 306.085 243.288 306.569 243.288C307.099 243.288 307.536 243.118 307.878 242.777C308.228 242.425 308.404 241.87 308.404 241.111V234.295H309.671V241.168C309.671 242.173 309.39 242.961 308.831 243.53C308.271 244.09 307.536 244.37 306.626 244.37C305.819 244.37 305.131 244.161 304.562 243.743C303.993 243.316 303.628 242.648 303.467 241.737ZM317.638 244.256H316.443V243.218C316.234 243.597 315.954 243.886 315.602 244.086C315.252 244.275 314.863 244.37 314.436 244.37C313.753 244.37 313.184 244.142 312.728 243.686C312.273 243.231 312.045 242.591 312.045 241.766V236.998H313.241V241.595C313.241 242.184 313.393 242.634 313.696 242.947C314 243.25 314.384 243.402 314.848 243.402C315.295 243.402 315.669 243.25 315.973 242.947C316.286 242.634 316.443 242.184 316.443 241.595V236.998H317.638V244.256ZM321.147 244.256H319.952V234.295H321.147V244.256Z" fill="black" fill-opacity="0.65"/>
<path d="M347.508 244.256L346.683 241.709H342.913L342.087 244.256H340.806L344.151 234.295H345.502L348.846 244.256H347.508ZM343.24 240.684H346.356L344.805 235.832L343.24 240.684ZM355.512 244.256H354.317V243.218C354.108 243.597 353.828 243.886 353.478 244.086C353.126 244.275 352.738 244.37 352.31 244.37C351.628 244.37 351.058 244.142 350.603 243.686C350.148 243.231 349.92 242.591 349.92 241.766V236.998H351.115V241.595C351.115 242.184 351.267 242.634 351.571 242.947C351.874 243.25 352.258 243.402 352.724 243.402C353.169 243.402 353.544 243.25 353.847 242.947C354.16 242.634 354.317 242.184 354.317 241.595V236.998H355.512V244.256ZM360.274 244.327C360.037 244.327 359.81 244.304 359.592 244.256C359.373 244.199 359.169 244.118 358.98 244.014C358.79 243.9 358.61 243.768 358.439 243.616C358.278 243.454 358.13 243.274 357.998 243.075C357.874 242.866 357.765 242.638 357.671 242.391C357.576 242.136 357.505 241.861 357.457 241.566C357.41 241.272 357.385 240.955 357.385 240.613C357.385 240.272 357.41 239.954 357.457 239.659C357.505 239.366 357.576 239.091 357.671 238.834C357.765 238.578 357.874 238.35 357.998 238.152C358.13 237.943 358.278 237.762 358.439 237.611C358.61 237.45 358.79 237.316 358.98 237.212C359.169 237.098 359.373 237.018 359.592 236.97C359.81 236.914 360.037 236.885 360.274 236.885C360.787 236.885 361.228 237.009 361.598 237.255C361.978 237.502 362.276 237.857 362.494 238.322V236.998H363.689V244.398C363.689 244.616 363.666 244.825 363.619 245.024C363.58 245.223 363.523 245.409 363.448 245.579C363.371 245.75 363.277 245.906 363.163 246.049C363.059 246.2 362.935 246.334 362.793 246.447C362.66 246.57 362.514 246.675 362.352 246.761C362.191 246.855 362.019 246.931 361.84 246.988C361.66 247.054 361.469 247.102 361.271 247.131C361.071 247.159 360.867 247.173 360.658 247.173C359.976 247.173 359.369 247.026 358.837 246.732C358.315 246.447 357.931 246.072 357.685 245.608L358.553 244.954C358.79 245.361 359.084 245.67 359.435 245.879C359.796 246.086 360.194 246.191 360.63 246.191C361.142 246.191 361.578 246.045 361.939 245.75C362.31 245.456 362.494 244.958 362.494 244.256V242.89C362.276 243.354 361.978 243.711 361.598 243.957C361.228 244.204 360.787 244.327 360.274 244.327ZM360.544 243.359C361.114 243.359 361.578 243.132 361.939 242.677C362.31 242.211 362.494 241.524 362.494 240.613C362.494 239.684 362.31 238.991 361.939 238.536C361.578 238.08 361.114 237.852 360.544 237.852C359.976 237.852 359.506 238.08 359.137 238.536C358.776 238.991 358.596 239.684 358.596 240.613C358.596 241.524 358.776 242.211 359.137 242.677C359.506 243.132 359.976 243.359 360.544 243.359Z" fill="black" fill-opacity="0.65"/>
<path d="M387.899 244.37C387.017 244.37 386.253 244.152 385.608 243.715C384.972 243.27 384.494 242.634 384.171 241.809L385.167 241.282C385.48 242.022 385.869 242.558 386.333 242.89C386.798 243.213 387.315 243.374 387.885 243.374C388.425 243.374 388.871 243.227 389.221 242.932C389.582 242.629 389.762 242.221 389.762 241.709C389.762 241.577 389.744 241.452 389.705 241.339C389.678 241.225 389.63 241.12 389.564 241.025C389.507 240.931 389.435 240.841 389.35 240.755C389.274 240.67 389.184 240.594 389.08 240.527C388.975 240.452 388.862 240.381 388.739 240.314C388.615 240.248 388.487 240.186 388.355 240.129C388.221 240.072 388.084 240.016 387.941 239.959C387.799 239.902 387.652 239.845 387.5 239.788C387.358 239.731 387.216 239.679 387.073 239.631C386.941 239.575 386.803 239.518 386.66 239.461C386.528 239.394 386.396 239.327 386.262 239.261C386.139 239.195 386.016 239.123 385.892 239.048C385.769 238.972 385.651 238.891 385.537 238.806C385.432 238.711 385.333 238.616 385.237 238.521C385.143 238.418 385.053 238.308 384.967 238.194C384.892 238.071 384.825 237.943 384.769 237.809C384.721 237.668 384.683 237.516 384.655 237.355C384.626 237.193 384.612 237.023 384.612 236.843C384.612 236.064 384.882 235.429 385.423 234.936C385.973 234.432 386.689 234.182 387.571 234.182C388.359 234.182 389.032 234.385 389.592 234.793C390.152 235.191 390.593 235.832 390.916 236.714L389.905 237.127C389.639 236.416 389.307 235.918 388.909 235.632C388.51 235.339 388.064 235.191 387.571 235.191C387.107 235.191 386.703 235.334 386.362 235.618C386.03 235.893 385.864 236.278 385.864 236.771C385.864 236.904 385.878 237.032 385.907 237.155C385.935 237.269 385.978 237.378 386.035 237.482C386.092 237.577 386.158 237.668 386.234 237.753C386.319 237.838 386.41 237.919 386.505 237.995C386.599 238.061 386.703 238.127 386.817 238.194C386.931 238.261 387.05 238.322 387.173 238.379C387.305 238.436 387.439 238.493 387.571 238.55C387.705 238.607 387.842 238.664 387.984 238.72C388.126 238.777 388.269 238.834 388.411 238.891C388.562 238.948 388.71 239.005 388.852 239.062C388.994 239.119 389.132 239.181 389.264 239.247C389.407 239.313 389.539 239.384 389.664 239.461C389.796 239.536 389.919 239.618 390.033 239.702C390.157 239.788 390.266 239.882 390.36 239.987C390.464 240.091 390.555 240.2 390.63 240.314C390.716 240.428 390.787 240.556 390.844 240.698C390.901 240.831 390.944 240.979 390.973 241.14C391.01 241.3 391.03 241.472 391.03 241.652C391.03 242.439 390.739 243.089 390.162 243.602C389.582 244.113 388.828 244.37 387.899 244.37ZM397.524 242.179L398.478 242.52C398.269 243.013 397.927 243.445 397.453 243.815C396.978 244.184 396.381 244.37 395.66 244.37C395.394 244.37 395.138 244.341 394.892 244.284C394.654 244.227 394.426 244.147 394.208 244.043C393.99 243.938 393.786 243.805 393.597 243.643C393.417 243.483 393.255 243.302 393.113 243.104C392.97 242.895 392.847 242.662 392.743 242.406C392.638 242.15 392.558 241.875 392.501 241.581C392.454 241.277 392.43 240.954 392.43 240.613C392.43 240.318 392.449 240.039 392.487 239.773C392.534 239.508 392.596 239.261 392.672 239.034C392.747 238.806 392.838 238.597 392.942 238.407C393.056 238.209 393.179 238.028 393.312 237.866C393.454 237.705 393.606 237.563 393.767 237.44C393.938 237.316 394.113 237.216 394.294 237.141C394.483 237.056 394.678 236.994 394.877 236.956C395.086 236.909 395.299 236.885 395.517 236.885C396.41 236.885 397.14 237.212 397.708 237.866C398.278 238.521 398.563 239.427 398.563 240.584V240.912H393.611C393.649 241.766 393.858 242.391 394.237 242.79C394.617 243.188 395.09 243.388 395.66 243.388C396.087 243.388 396.452 243.284 396.756 243.075C397.06 242.866 397.315 242.568 397.524 242.179ZM395.503 237.825C395.019 237.825 394.602 238 394.251 238.35C393.91 238.693 393.701 239.243 393.625 240.002H397.396C397.31 239.243 397.092 238.693 396.742 238.35C396.399 238 395.987 237.825 395.503 237.825ZM401.626 247.116H400.431V236.998H401.626V238.336C401.845 237.871 402.143 237.516 402.522 237.269C402.902 237.013 403.353 236.885 403.874 236.885C404.69 236.885 405.369 237.212 405.91 237.866C406.46 238.521 406.735 239.441 406.735 240.627C406.735 241.813 406.46 242.734 405.91 243.388C405.369 244.043 404.69 244.37 403.874 244.37C403.353 244.37 402.902 244.247 402.522 244C402.143 243.743 401.845 243.383 401.626 242.918V247.116ZM403.576 243.374C404.145 243.374 404.615 243.146 404.985 242.691C405.354 242.225 405.54 241.534 405.54 240.613C405.54 239.693 405.354 239.005 404.985 238.55C404.615 238.095 404.145 237.866 403.576 237.866C403.006 237.866 402.537 238.095 402.167 238.55C401.806 239.005 401.626 239.693 401.626 240.613C401.626 241.534 401.806 242.225 402.167 242.691C402.537 243.146 403.006 243.374 403.576 243.374Z" fill="black" fill-opacity="0.65"/>
<path d="M52.9087 89.5244H408.649M52.9087 177.148H408.649M52.9087 220.96H408.649M52.9087 133.336H408.649" stroke="#CCD6DB" stroke-width="1.34444"/>
<path d="M55.1255 200.191C55.1255 200.191 105.049 215.51 142.165 175.82C200.772 113.152 205.994 159.573 253.575 149.128C319.32 134.696 339.664 106.604 406.765 113.152" stroke="#00D639" stroke-width="2.01666" stroke-linecap="round" stroke-linejoin="round"/>
<path d="M23.7275 91.0673C23.1868 91.0673 22.6651 90.9914 22.1623 90.8396C21.669 90.6878 21.2184 90.4649 20.8105 90.1708L21.4224 89.2317C21.7733 89.4783 22.1291 89.6728 22.4896 89.8151C22.8596 89.9478 23.258 90.0142 23.6848 90.0142C24.33 90.0142 24.8565 89.8292 25.2643 89.4593C25.6817 89.0893 25.8904 88.6056 25.8904 88.0079C25.8904 87.8371 25.8715 87.6759 25.8335 87.5241C25.7956 87.3628 25.734 87.211 25.6485 87.0687C25.5727 86.9264 25.4731 86.7984 25.3497 86.6846C25.2359 86.5707 25.0983 86.4711 24.937 86.3857C24.7852 86.2909 24.6098 86.2196 24.4106 86.1723C24.2114 86.1153 23.9884 86.0821 23.7418 86.0726C23.5046 86.0537 23.2437 86.0585 22.9591 86.0869L22.4185 85.4181L25.2217 82.0173H21.0097V80.9928H26.5308V82.0173L23.9837 85.1478C24.9893 85.1857 25.7624 85.4655 26.3031 85.9873C26.8533 86.5091 27.1285 87.1684 27.1285 87.9652C27.1285 88.8759 26.8106 89.6206 26.1751 90.1992C25.5395 90.7778 24.7236 91.0673 23.7275 91.0673ZM29.3712 85.973C29.3712 84.3508 29.6367 83.0986 30.168 82.2164C30.6993 81.3248 31.4866 80.8789 32.5301 80.8789C33.5735 80.8789 34.361 81.3248 34.8923 82.2164C35.4234 83.0986 35.6891 84.3508 35.6891 85.973C35.6891 87.6047 35.4234 88.8617 34.8923 89.7439C34.361 90.6262 33.5735 91.0673 32.5301 91.0673C31.4866 91.0673 30.6993 90.6262 30.168 89.7439C29.6367 88.8617 29.3712 87.6047 29.3712 85.973ZM34.4511 85.973C34.4511 84.5406 34.2756 83.5113 33.9246 82.8852C33.5831 82.2496 33.1183 81.9318 32.5301 81.9318C31.942 81.9318 31.4724 82.2496 31.1214 82.8852C30.7798 83.5113 30.6091 84.5406 30.6091 85.973C30.6091 87.4055 30.7798 88.4395 31.1214 89.0751C31.4724 89.7012 31.942 90.0142 32.5301 90.0142C33.1183 90.0142 33.5831 89.7012 33.9246 89.0751C34.2756 88.4395 34.4511 87.4055 34.4511 85.973ZM45.1746 80.9928L41.3611 85.8592L45.3881 90.9534H43.8086L39.9097 85.9589L43.7374 80.9928H45.1746ZM39.3974 80.9928V90.9534H38.1309V80.9928H39.3974Z" fill="black" fill-opacity="0.6"/>
<path d="M21.0524 135.867V134.942L24.6098 130.901C25.0652 130.388 25.364 129.947 25.5063 129.576C25.6581 129.206 25.734 128.86 25.734 128.538C25.734 128.006 25.5679 127.594 25.2359 127.3C24.9134 126.997 24.5197 126.845 24.0548 126.845C23.5805 126.845 23.1584 126.997 22.7884 127.3C22.4185 127.594 22.0722 127.997 21.7496 128.51L20.8105 127.926C21.1805 127.281 21.6406 126.765 22.1908 126.375C22.7505 125.986 23.4003 125.792 24.1402 125.792C24.3395 125.792 24.5339 125.811 24.7236 125.849C24.9134 125.877 25.0936 125.924 25.2643 125.99C25.4351 126.047 25.5963 126.119 25.7481 126.204C25.9094 126.29 26.0517 126.39 26.1751 126.503C26.3078 126.617 26.4265 126.745 26.5308 126.888C26.6351 127.029 26.7205 127.181 26.7869 127.342C26.8628 127.494 26.9197 127.66 26.9576 127.84C26.9956 128.021 27.0146 128.211 27.0146 128.41C27.0146 128.903 26.896 129.392 26.6589 129.876C26.4312 130.36 26.0328 130.924 25.4636 131.569L22.5892 134.842H27.0573V135.867H21.0524ZM29.3712 130.886C29.3712 129.264 29.6367 128.012 30.168 127.129C30.6993 126.238 31.4866 125.792 32.5301 125.792C33.5735 125.792 34.361 126.238 34.8923 127.129C35.4234 128.012 35.6891 129.264 35.6891 130.886C35.6891 132.517 35.4234 133.774 34.8923 134.657C34.361 135.539 33.5735 135.98 32.5301 135.98C31.4866 135.98 30.6993 135.539 30.168 134.657C29.6367 133.774 29.3712 132.517 29.3712 130.886ZM34.4511 130.886C34.4511 129.453 34.2756 128.424 33.9246 127.799C33.5831 127.163 33.1183 126.845 32.5301 126.845C31.942 126.845 31.4724 127.163 31.1214 127.799C30.7798 128.424 30.6091 129.453 30.6091 130.886C30.6091 132.319 30.7798 133.353 31.1214 133.988C31.4724 134.614 31.942 134.928 32.5301 134.928C33.1183 134.928 33.5831 134.614 33.9246 133.988C34.2756 133.353 34.4511 132.319 34.4511 130.886ZM45.1746 125.906L41.3611 130.772L45.3881 135.867H43.8086L39.9097 130.872L43.7374 125.906H45.1746ZM39.3974 125.906V135.867H38.1309V125.906H39.3974Z" fill="black" fill-opacity="0.6"/>
<path d="M22.2267 181.967V180.928H24.7595V173.458L22.5681 175.208L21.8994 174.411L24.8448 172.006H26.0259V180.928H28.445V181.967H22.2267ZM30.5312 176.986C30.5312 175.365 30.7967 174.113 31.328 173.23C31.8593 172.338 32.6466 171.893 33.6901 171.893C34.7336 171.893 35.521 172.338 36.0523 173.23C36.5834 174.113 36.8491 175.365 36.8491 176.986C36.8491 178.618 36.5834 179.875 36.0523 180.758C35.521 181.64 34.7336 182.081 33.6901 182.081C32.6466 182.081 31.8593 181.64 31.328 180.758C30.7967 179.875 30.5312 178.618 30.5312 176.986ZM35.6111 176.986C35.6111 175.554 35.4356 174.525 35.0846 173.899C34.7431 173.263 34.2783 172.945 33.6901 172.945C33.102 172.945 32.6324 173.263 32.2814 173.899C31.9398 174.525 31.7691 175.554 31.7691 176.986C31.7691 178.419 31.9398 179.453 32.2814 180.088C32.6324 180.715 33.102 181.028 33.6901 181.028C34.2783 181.028 34.7431 180.715 35.0846 180.088C35.4356 179.453 35.6111 178.419 35.6111 176.986ZM46.3346 172.006L42.5212 176.872L46.5481 181.967H44.9686L41.0697 176.972L44.8974 172.006H46.3346ZM40.5574 172.006V181.967H39.2909V172.006H40.5574Z" fill="black" fill-opacity="0.6"/>
<path d="M38.3691 221.9C38.3691 220.277 38.6347 219.025 39.166 218.143C39.6971 217.252 40.4845 216.806 41.5281 216.806C42.5715 216.806 43.3589 217.252 43.8901 218.143C44.4214 219.025 44.687 220.277 44.687 221.9C44.687 223.531 44.4214 224.788 43.8901 225.67C43.3589 226.553 42.5715 226.994 41.5281 226.994C40.4845 226.994 39.6971 226.553 39.166 225.67C38.6347 224.788 38.3691 223.531 38.3691 221.9ZM43.449 221.9C43.449 220.468 43.2735 219.438 42.9226 218.812C42.581 218.177 42.1162 217.859 41.5281 217.859C40.9399 217.859 40.4703 218.177 40.1193 218.812C39.7778 219.438 39.6071 220.468 39.6071 221.9C39.6071 223.332 39.7778 224.366 40.1193 225.002C40.4703 225.628 40.9399 225.941 41.5281 225.941C42.1162 225.941 42.581 225.628 42.9226 225.002C43.2735 224.366 43.449 223.332 43.449 221.9Z" fill="black" fill-opacity="0.6"/>
<path d="M32.6998 39.4185V27.8667H28.2295V24.7959H40.8885V27.8667H36.4182V39.4185H32.6998ZM39.6195 33.8828C39.6195 33.4372 39.6543 33.0124 39.7239 32.6086C39.7936 32.2047 39.898 31.8287 40.0373 31.4805C40.1765 31.1324 40.3367 30.8121 40.5177 30.5196C40.7127 30.2132 40.9355 29.9347 41.1862 29.684C41.4369 29.4334 41.7084 29.2175 42.0009 29.0365C42.2933 28.8554 42.6067 28.7022 42.9409 28.5769C43.2891 28.4376 43.6442 28.3401 44.0063 28.2844C44.3823 28.2148 44.7722 28.18 45.1761 28.18C45.566 28.18 45.942 28.2148 46.3041 28.2844C46.6801 28.3401 47.0352 28.4376 47.3695 28.5769C47.7037 28.7022 48.017 28.8554 48.3095 29.0365C48.602 29.2175 48.8666 29.4334 49.1033 29.684C49.354 29.9347 49.5768 30.2132 49.7718 30.5196C49.9667 30.8121 50.1338 31.1324 50.2731 31.4805C50.4124 31.8287 50.5168 32.2047 50.5865 32.6086C50.6561 33.0124 50.6909 33.4372 50.6909 33.8828C50.6909 34.3424 50.6561 34.7741 50.5865 35.178C50.5168 35.5818 50.4124 35.9578 50.2731 36.306C50.1338 36.6542 49.9667 36.9814 49.7718 37.2878C49.5768 37.5803 49.354 37.8518 49.1033 38.1025C48.8666 38.3392 48.602 38.5551 48.3095 38.7501C48.017 38.9311 47.7037 39.0843 47.3695 39.2096C47.0352 39.335 46.6801 39.4255 46.3041 39.4812C45.942 39.5508 45.566 39.5856 45.1761 39.5856C44.7722 39.5856 44.3823 39.5508 44.0063 39.4812C43.6442 39.4255 43.2891 39.335 42.9409 39.2096C42.6067 39.0843 42.2933 38.9311 42.0009 38.7501C41.7084 38.5551 41.4369 38.3392 41.1862 38.1025C40.9355 37.8518 40.7127 37.5803 40.5177 37.2878C40.3367 36.9814 40.1765 36.6542 40.0373 36.306C39.898 35.9578 39.7936 35.5818 39.7239 35.178C39.6543 34.7741 39.6195 34.3424 39.6195 33.8828ZM47.1606 33.8828C47.1606 32.9219 46.9656 32.1977 46.5757 31.7103C46.1997 31.2229 45.7331 30.9792 45.1761 30.9792C44.5912 30.9792 44.1038 31.2229 43.7138 31.7103C43.3378 32.1977 43.1498 32.9219 43.1498 33.8828C43.1498 34.8716 43.3378 35.6166 43.7138 36.118C44.1038 36.6054 44.5912 36.8491 45.1761 36.8491C45.7331 36.8491 46.1997 36.6054 46.5757 36.118C46.9656 35.6166 47.1606 34.8716 47.1606 33.8828ZM60.3624 36.4522L60.425 39.147C60.0769 39.2723 59.6591 39.3768 59.1717 39.4603C58.6843 39.5439 58.2038 39.5856 57.7303 39.5856C56.5466 39.5856 55.6274 39.3002 54.9729 38.7292C54.3323 38.1443 54.012 37.3505 54.012 36.3478V31.1254H51.5679V28.3889H54.012V25.4644H57.5841V28.3889H60.425V31.1254H57.5841V35.7211C57.5841 36.0414 57.6816 36.2851 57.8765 36.4522C58.0854 36.6054 58.3779 36.682 58.7539 36.682C58.9071 36.682 59.1299 36.6611 59.4224 36.6193C59.7287 36.5776 60.0421 36.5219 60.3624 36.4522ZM64.8305 39.5856C63.786 39.5856 62.9574 39.3002 62.3447 38.7292C61.7319 38.1582 61.4255 37.434 61.4255 36.5567C61.4255 35.5958 61.7946 34.8228 62.5327 34.2379C63.2708 33.653 64.2874 33.3118 65.5825 33.2144L68.1728 33.0472V32.3788C68.1728 31.9192 68.0266 31.5641 67.7342 31.3134C67.4417 31.0488 67.0587 30.9165 66.5852 30.9165C66.1117 30.9165 65.68 31.0349 65.2901 31.2716C64.9141 31.4945 64.5241 31.8844 64.1203 32.4414L61.4464 31.0836C61.9478 30.3177 62.6371 29.6492 63.5145 29.0782C64.3918 28.5073 65.5338 28.2218 66.9404 28.2218C68.3748 28.2218 69.5237 28.5978 70.3871 29.3498C71.2506 30.1018 71.6823 31.1393 71.6823 32.4623V39.4185H68.1728V37.8727C67.8525 38.4019 67.3999 38.8197 66.815 39.1261C66.2301 39.4325 65.5686 39.5856 64.8305 39.5856ZM64.7887 36.2224C64.7887 36.5845 64.921 36.8561 65.1856 37.0371C65.4502 37.2182 65.7914 37.3087 66.2092 37.3087C66.7245 37.3087 67.1771 37.1485 67.567 36.8282C67.9709 36.5079 68.1728 36.0623 68.1728 35.4913V34.9273L66.3763 35.0735C65.8611 35.1153 65.4642 35.2337 65.1856 35.4286C64.921 35.6097 64.7887 35.8743 64.7887 36.2224ZM77.5563 39.4185H73.9633V24.7959H77.5563V39.4185ZM86.9847 39.5856C85.9403 39.5856 85.1116 39.3002 84.4989 38.7292C83.8861 38.1582 83.5797 37.434 83.5797 36.5567C83.5797 35.5958 83.9488 34.8228 84.6869 34.2379C85.425 33.653 86.4416 33.3118 87.7368 33.2144L90.3271 33.0472V32.3788C90.3271 31.9192 90.1808 31.5641 89.8884 31.3134C89.5959 31.0488 89.213 30.9165 88.7395 30.9165C88.266 30.9165 87.8342 31.0349 87.4443 31.2716C87.0683 31.4945 86.6784 31.8844 86.2745 32.4414L83.6006 31.0836C84.102 30.3177 84.7913 29.6492 85.6687 29.0782C86.5461 28.5073 87.688 28.2218 89.0946 28.2218C90.529 28.2218 91.6779 28.5978 92.5413 29.3498C93.4048 30.1018 93.8365 31.1393 93.8365 32.4623V39.4185H90.3271V37.8727C90.0067 38.4019 89.5541 38.8197 88.9692 39.1261C88.3843 39.4325 87.7228 39.5856 86.9847 39.5856ZM86.943 36.2224C86.943 36.5845 87.0753 36.8561 87.3399 37.0371C87.6045 37.2182 87.9456 37.3087 88.3634 37.3087C88.8787 37.3087 89.3313 37.1485 89.7213 36.8282C90.1251 36.5079 90.3271 36.0623 90.3271 35.4913V34.9273L88.5306 35.0735C88.0153 35.1153 87.6184 35.2337 87.3399 35.4286C87.0753 35.6097 86.943 35.8743 86.943 36.2224ZM96.1593 28.3889H99.7523V30.0809C100.045 29.4821 100.449 29.0225 100.964 28.7022C101.493 28.3819 102.064 28.2218 102.677 28.2218C103.415 28.2218 104.055 28.3958 104.599 28.744C105.142 29.0782 105.546 29.5657 105.81 30.2063C106.117 29.5657 106.562 29.0782 107.147 28.744C107.746 28.3958 108.387 28.2218 109.069 28.2218C110.086 28.2218 110.907 28.556 111.534 29.2245C112.175 29.8929 112.495 30.8399 112.495 32.0654V39.4185H108.902V32.6295C108.902 32.0724 108.77 31.6546 108.505 31.3761C108.254 31.0976 107.934 30.9583 107.544 30.9583C107.126 30.9583 106.785 31.0976 106.52 31.3761C106.27 31.6546 106.144 32.0724 106.144 32.6295V39.4185H102.551V32.6295C102.551 32.0724 102.419 31.6546 102.155 31.3761C101.89 31.0976 101.563 30.9583 101.173 30.9583C100.769 30.9583 100.428 31.0976 100.149 31.3761C99.8846 31.6546 99.7523 32.0724 99.7523 32.6295V39.4185H96.1593V28.3889ZM114.303 33.8828C114.303 33.4372 114.338 33.0124 114.408 32.6086C114.477 32.2047 114.582 31.8287 114.721 31.4805C114.86 31.1324 115.021 30.8121 115.202 30.5196C115.397 30.2132 115.619 29.9347 115.87 29.684C116.121 29.4334 116.392 29.2175 116.685 29.0365C116.977 28.8554 117.291 28.7022 117.625 28.5769C117.973 28.4376 118.328 28.3401 118.69 28.2844C119.066 28.2148 119.456 28.18 119.86 28.18C120.25 28.18 120.626 28.2148 120.988 28.2844C121.364 28.3401 121.719 28.4376 122.053 28.5769C122.388 28.7022 122.701 28.8554 122.993 29.0365C123.286 29.2175 123.55 29.4334 123.787 29.684C124.038 29.9347 124.261 30.2132 124.456 30.5196C124.651 30.8121 124.818 31.1324 124.957 31.4805C125.096 31.8287 125.201 32.2047 125.27 32.6086C125.34 33.0124 125.375 33.4372 125.375 33.8828C125.375 34.3424 125.34 34.7741 125.27 35.178C125.201 35.5818 125.096 35.9578 124.957 36.306C124.818 36.6542 124.651 36.9814 124.456 37.2878C124.261 37.5803 124.038 37.8518 123.787 38.1025C123.55 38.3392 123.286 38.5551 122.993 38.7501C122.701 38.9311 122.388 39.0843 122.053 39.2096C121.719 39.335 121.364 39.4255 120.988 39.4812C120.626 39.5508 120.25 39.5856 119.86 39.5856C119.456 39.5856 119.066 39.5508 118.69 39.4812C118.328 39.4255 117.973 39.335 117.625 39.2096C117.291 39.0843 116.977 38.9311 116.685 38.7501C116.392 38.5551 116.121 38.3392 115.87 38.1025C115.619 37.8518 115.397 37.5803 115.202 37.2878C115.021 36.9814 114.86 36.6542 114.721 36.306C114.582 35.9578 114.477 35.5818 114.408 35.178C114.338 34.7741 114.303 34.3424 114.303 33.8828ZM121.845 33.8828C121.845 32.9219 121.65 32.1977 121.26 31.7103C120.884 31.2229 120.417 30.9792 119.86 30.9792C119.275 30.9792 118.788 31.2229 118.398 31.7103C118.022 32.1977 117.834 32.9219 117.834 33.8828C117.834 34.8716 118.022 35.6166 118.398 36.118C118.788 36.6054 119.275 36.8491 119.86 36.8491C120.417 36.8491 120.884 36.6054 121.26 36.118C121.65 35.6166 121.845 34.8716 121.845 33.8828ZM127.188 28.3889H130.781V35.1153C130.781 35.6863 130.92 36.118 131.198 36.4104C131.491 36.7029 131.853 36.8491 132.285 36.8491C132.716 36.8491 133.078 36.7029 133.371 36.4104C133.663 36.118 133.81 35.6863 133.81 35.1153V28.3889H137.403V39.4185H133.81V37.81C133.503 38.3949 133.078 38.8406 132.535 39.147C132.006 39.4394 131.421 39.5856 130.781 39.5856C129.694 39.5856 128.824 39.2514 128.169 38.5829C127.515 37.9145 127.188 36.9675 127.188 35.742V28.3889ZM139.733 28.3889H143.326V29.9974C143.632 29.4125 144.05 28.9738 144.579 28.6813C145.122 28.375 145.714 28.2218 146.355 28.2218C147.427 28.2218 148.291 28.556 148.945 29.2245C149.614 29.8929 149.948 30.8399 149.948 32.0654V39.4185H146.355V32.6921C146.355 32.1211 146.209 31.6894 145.916 31.397C145.638 31.1045 145.276 30.9583 144.83 30.9583C144.412 30.9583 144.057 31.1045 143.765 31.397C143.472 31.6894 143.326 32.1211 143.326 32.6921V39.4185H139.733V28.3889ZM159.996 36.4522L160.058 39.147C159.71 39.2723 159.292 39.3768 158.805 39.4603C158.318 39.5439 157.837 39.5856 157.364 39.5856C156.18 39.5856 155.261 39.3002 154.606 38.7292C153.966 38.1443 153.645 37.3505 153.645 36.3478V31.1254H151.201V28.3889H153.645V25.4644H157.217V28.3889H160.058V31.1254H157.217V35.7211C157.217 36.0414 157.315 36.2851 157.51 36.4522C157.719 36.6054 158.011 36.682 158.387 36.682C158.54 36.682 158.763 36.6611 159.056 36.6193C159.362 36.5776 159.675 36.5219 159.996 36.4522ZM164.782 37.5803L166.787 35.5958C167.233 36.111 167.706 36.501 168.208 36.7656C168.723 37.0302 169.245 37.1625 169.774 37.1625C170.276 37.1625 170.645 37.0789 170.881 36.9118C171.132 36.7307 171.257 36.5079 171.257 36.2433C171.257 35.9369 171.049 35.7211 170.631 35.5958C170.227 35.4565 169.739 35.3242 169.168 35.1989C169.001 35.1571 168.827 35.1153 168.646 35.0735C168.465 35.0317 168.284 34.99 168.103 34.9482C167.936 34.8925 167.762 34.8368 167.581 34.7811C167.414 34.7114 167.247 34.6348 167.08 34.5513C166.912 34.4677 166.752 34.3772 166.599 34.2797C166.446 34.1822 166.307 34.0778 166.181 33.9664C166.056 33.841 165.938 33.7087 165.826 33.5695C165.729 33.4163 165.638 33.2492 165.555 33.0681C165.485 32.8871 165.429 32.6921 165.387 32.4832C165.346 32.2743 165.325 32.0445 165.325 31.7939C165.325 30.7076 165.75 29.8442 166.599 29.2036C167.449 28.549 168.563 28.2218 169.941 28.2218C170.944 28.2218 171.877 28.4307 172.741 28.8485C173.604 29.2523 174.279 29.7537 174.767 30.3525L172.72 32.1699C172.26 31.6964 171.801 31.3413 171.341 31.1045C170.881 30.8678 170.436 30.7494 170.004 30.7494C169.656 30.7494 169.377 30.819 169.168 30.9583C168.96 31.0976 168.855 31.2925 168.855 31.5432C168.855 31.8496 169.05 32.0794 169.44 32.2325C169.844 32.3718 170.324 32.5111 170.881 32.6503C171.049 32.6921 171.216 32.7339 171.383 32.7757C171.564 32.8175 171.745 32.8662 171.926 32.9219C172.107 32.9637 172.281 33.0194 172.448 33.089C172.629 33.1447 172.803 33.2144 172.97 33.2979C173.137 33.3675 173.291 33.4511 173.43 33.5486C173.583 33.6461 173.722 33.7505 173.848 33.8619C173.987 33.9733 174.105 34.1056 174.203 34.2588C174.314 34.3981 174.405 34.5513 174.474 34.7184C174.558 34.8855 174.621 35.0735 174.662 35.2824C174.704 35.4774 174.725 35.6932 174.725 35.93C174.725 37.0719 174.265 37.9702 173.346 38.6247C172.441 39.2653 171.257 39.5856 169.795 39.5856C169.433 39.5856 169.085 39.5648 168.751 39.523C168.416 39.4812 168.096 39.4255 167.79 39.3559C167.497 39.2723 167.219 39.1818 166.954 39.0843C166.703 38.9729 166.467 38.8615 166.244 38.7501C166.021 38.6247 165.812 38.4994 165.617 38.3741C165.436 38.2348 165.276 38.1025 165.137 37.9772C164.998 37.8379 164.879 37.7056 164.782 37.5803ZM179.944 43.68H176.351V28.3889H179.944V30.06C180.25 29.4751 180.654 29.0225 181.156 28.7022C181.671 28.3819 182.284 28.2218 182.994 28.2218C183.37 28.2218 183.725 28.2636 184.059 28.3471C184.393 28.4307 184.707 28.556 184.999 28.7231C185.306 28.8763 185.584 29.0713 185.835 29.308C186.099 29.5448 186.329 29.8233 186.524 30.1436C186.733 30.45 186.907 30.7981 187.046 31.1881C187.186 31.578 187.29 32.0028 187.36 32.4623C187.443 32.908 187.485 33.3884 187.485 33.9037C187.485 34.419 187.443 34.9064 187.36 35.366C187.29 35.8255 187.186 36.2503 187.046 36.6402C186.907 37.0162 186.733 37.3644 186.524 37.6847C186.329 37.9911 186.099 38.2696 185.835 38.5203C185.584 38.757 185.306 38.959 184.999 39.1261C184.707 39.2793 184.393 39.3976 184.059 39.4812C183.725 39.5648 183.37 39.6065 182.994 39.6065C182.284 39.6065 181.671 39.4464 181.156 39.1261C180.654 38.8058 180.25 38.3462 179.944 37.7474V43.68ZM181.928 36.7656C182.513 36.7656 182.994 36.5288 183.37 36.0553C183.76 35.5679 183.955 34.8437 183.955 33.8828C183.955 32.9219 183.76 32.2047 183.37 31.7312C182.994 31.2438 182.513 31.0001 181.928 31.0001C181.371 31.0001 180.898 31.2438 180.508 31.7312C180.132 32.2047 179.944 32.9219 179.944 33.8828C179.944 34.8437 180.132 35.5679 180.508 36.0553C180.898 36.5288 181.371 36.7656 181.928 36.7656ZM196.425 35.7629L199.474 36.4104C199.391 36.6054 199.3 36.8004 199.203 36.9953C199.105 37.1764 198.987 37.3574 198.848 37.5385C198.722 37.7195 198.576 37.9006 198.409 38.0816C198.256 38.2487 198.082 38.4089 197.887 38.5621C197.692 38.7152 197.476 38.8545 197.239 38.9798C197.016 39.1052 196.766 39.2166 196.487 39.3141C196.209 39.3976 195.909 39.4603 195.589 39.5021C195.283 39.5578 194.948 39.5856 194.586 39.5856C194.182 39.5856 193.792 39.5508 193.416 39.4812C193.04 39.4255 192.678 39.335 192.33 39.2096C191.996 39.0704 191.676 38.9102 191.369 38.7292C191.077 38.5342 190.798 38.3184 190.534 38.0816C190.283 37.8309 190.06 37.5594 189.865 37.2669C189.67 36.9605 189.503 36.6333 189.364 36.2851C189.225 35.937 189.12 35.5609 189.051 35.1571C188.981 34.7532 188.946 34.3285 188.946 33.8828C188.946 33.4372 188.981 33.0194 189.051 32.6295C189.12 32.2256 189.225 31.8496 189.364 31.5014C189.503 31.1533 189.67 30.833 189.865 30.5405C190.06 30.2341 190.276 29.9626 190.513 29.7258C190.764 29.4751 191.035 29.2593 191.328 29.0782C191.62 28.8972 191.926 28.744 192.247 28.6187C192.581 28.4794 192.922 28.3819 193.27 28.3262C193.632 28.2566 194.008 28.2218 194.398 28.2218C194.774 28.2218 195.136 28.2566 195.485 28.3262C195.847 28.3959 196.181 28.4933 196.487 28.6187C196.808 28.744 197.107 28.9042 197.385 29.0991C197.664 29.2802 197.922 29.496 198.158 29.7467C198.395 29.9974 198.604 30.2759 198.785 30.5823C198.966 30.8747 199.119 31.195 199.245 31.5432C199.37 31.8914 199.467 32.2674 199.537 32.6712C199.607 33.0612 199.642 33.479 199.642 33.9246V34.7184H192.372C192.469 35.5122 192.72 36.0971 193.124 36.4731C193.528 36.8352 194.036 37.0162 194.649 37.0162C195.011 37.0162 195.338 36.9118 195.631 36.7029C195.937 36.4801 196.202 36.1667 196.425 35.7629ZM194.357 30.7912C193.897 30.7912 193.493 30.9374 193.145 31.2299C192.797 31.5223 192.56 32.0167 192.435 32.713H196.299C196.188 32.0167 195.951 31.5223 195.589 31.2299C195.241 30.9374 194.83 30.7912 194.357 30.7912ZM201.443 28.3889H205.036V29.9974C205.342 29.4125 205.76 28.9738 206.289 28.6813C206.832 28.375 207.424 28.2218 208.065 28.2218C209.137 28.2218 210 28.556 210.655 29.2245C211.323 29.8929 211.658 30.8399 211.658 32.0654V39.4185H208.065V32.6921C208.065 32.1211 207.918 31.6894 207.626 31.397C207.347 31.1045 206.985 30.9583 206.54 30.9583C206.122 30.9583 205.767 31.1045 205.474 31.397C205.182 31.6894 205.036 32.1211 205.036 32.6921V39.4185H201.443V28.3889ZM221.705 36.4522L221.768 39.147C221.42 39.2723 221.002 39.3768 220.515 39.4603C220.027 39.5439 219.547 39.5856 219.073 39.5856C217.89 39.5856 216.971 39.3002 216.316 38.7292C215.675 38.1443 215.355 37.3505 215.355 36.3478V31.1254H212.911V28.3889H215.355V25.4644H218.927V28.3889H221.768V31.1254H218.927V35.7211C218.927 36.0414 219.025 36.2851 219.22 36.4522C219.429 36.6054 219.721 36.682 220.097 36.682C220.25 36.682 220.473 36.6611 220.765 36.6193C221.072 36.5776 221.385 36.5219 221.705 36.4522ZM231.087 39.4185H227.494V24.7959H231.087V30.0392C231.394 29.4543 231.797 29.0016 232.299 28.6813C232.8 28.361 233.406 28.2009 234.116 28.2009C234.492 28.2009 234.847 28.2427 235.181 28.3262C235.53 28.4098 235.85 28.5351 236.142 28.7022C236.449 28.8554 236.727 29.0504 236.978 29.2871C237.243 29.5239 237.472 29.8024 237.667 30.1227C237.876 30.4291 238.05 30.7773 238.19 31.1672C238.329 31.5571 238.433 31.9819 238.503 32.4414C238.586 32.8871 238.628 33.3675 238.628 33.8828C238.628 34.412 238.586 34.9064 238.503 35.366C238.433 35.8116 238.329 36.2294 238.19 36.6193C238.05 36.9954 237.876 37.3435 237.667 37.6638C237.472 37.9702 237.243 38.2487 236.978 38.4994C236.727 38.7361 236.449 38.9381 236.142 39.1052C235.85 39.2584 235.53 39.3768 235.181 39.4603C234.847 39.5439 234.492 39.5856 234.116 39.5856C233.406 39.5856 232.8 39.4255 232.299 39.1052C231.797 38.7849 231.394 38.3253 231.087 37.7265V39.4185ZM233.072 36.7656C233.643 36.7656 234.123 36.5288 234.513 36.0553C234.903 35.5679 235.098 34.8437 235.098 33.8828C235.098 32.9219 234.903 32.2047 234.513 31.7312C234.123 31.2438 233.643 31.0001 233.072 31.0001C232.515 31.0001 232.041 31.2438 231.651 31.7312C231.275 32.2047 231.087 32.9219 231.087 33.8828C231.087 34.8437 231.275 35.5679 231.651 36.0553C232.041 36.5288 232.515 36.7656 233.072 36.7656ZM239.2 43.3875L239.973 40.5674C240.266 40.6928 240.565 40.8042 240.872 40.9017C241.192 40.9992 241.491 41.0479 241.77 41.0479C242.118 41.0479 242.41 40.9783 242.647 40.839C242.884 40.6997 243.1 40.3864 243.295 39.899L238.95 28.3889H242.772L245.154 35.6166L247.619 28.3889H251.233L246.825 40.2123C246.282 41.6328 245.62 42.6077 244.841 43.1369C244.061 43.6661 243.149 43.9307 242.104 43.9307C241.631 43.9307 241.122 43.8889 240.579 43.8053C240.05 43.7218 239.59 43.5825 239.2 43.3875ZM256.584 28.3889H260.177V30.0809C260.469 29.4821 260.873 29.0225 261.388 28.7022C261.918 28.3819 262.489 28.2218 263.101 28.2218C263.84 28.2218 264.48 28.3958 265.023 28.744C265.566 29.0782 265.97 29.5657 266.235 30.2063C266.541 29.5657 266.987 29.0782 267.572 28.744C268.171 28.3958 268.811 28.2218 269.494 28.2218C270.51 28.2218 271.332 28.556 271.959 29.2245C272.599 29.8929 272.919 30.8399 272.919 32.0654V39.4185H269.327V32.6295C269.327 32.0724 269.194 31.6546 268.93 31.3761C268.679 31.0976 268.359 30.9583 267.969 30.9583C267.551 30.9583 267.21 31.0976 266.945 31.3761C266.694 31.6546 266.569 32.0724 266.569 32.6295V39.4185H262.976V32.6295C262.976 32.0724 262.844 31.6546 262.579 31.3761C262.315 31.0976 261.987 30.9583 261.597 30.9583C261.194 30.9583 260.852 31.0976 260.574 31.3761C260.309 31.6546 260.177 32.0724 260.177 32.6295V39.4185H256.584V28.3889ZM274.728 33.8828C274.728 33.4372 274.762 33.0124 274.832 32.6086C274.902 32.2047 275.006 31.8287 275.145 31.4805C275.285 31.1324 275.445 30.8121 275.626 30.5196C275.821 30.2132 276.044 29.9347 276.294 29.684C276.545 29.4334 276.817 29.2175 277.109 29.0365C277.401 28.8554 277.715 28.7022 278.049 28.5769C278.397 28.4376 278.752 28.3401 279.114 28.2844C279.49 28.2148 279.88 28.18 280.284 28.18C280.674 28.18 281.05 28.2148 281.412 28.2844C281.788 28.3401 282.143 28.4376 282.478 28.5769C282.812 28.7022 283.125 28.8554 283.418 29.0365C283.71 29.2175 283.975 29.4334 284.211 29.684C284.462 29.9347 284.685 30.2132 284.88 30.5196C285.075 30.8121 285.242 31.1324 285.381 31.4805C285.52 31.8287 285.625 32.2047 285.695 32.6086C285.764 33.0124 285.799 33.4372 285.799 33.8828C285.799 34.3424 285.764 34.7741 285.695 35.178C285.625 35.5818 285.52 35.9578 285.381 36.306C285.242 36.6542 285.075 36.9814 284.88 37.2878C284.685 37.5803 284.462 37.8518 284.211 38.1025C283.975 38.3392 283.71 38.5551 283.418 38.7501C283.125 38.9311 282.812 39.0843 282.478 39.2096C282.143 39.335 281.788 39.4255 281.412 39.4812C281.05 39.5508 280.674 39.5856 280.284 39.5856C279.88 39.5856 279.49 39.5508 279.114 39.4812C278.752 39.4255 278.397 39.335 278.049 39.2096C277.715 39.0843 277.401 38.9311 277.109 38.7501C276.817 38.5551 276.545 38.3392 276.294 38.1025C276.044 37.8518 275.821 37.5803 275.626 37.2878C275.445 36.9814 275.285 36.6542 275.145 36.306C275.006 35.9578 274.902 35.5818 274.832 35.178C274.762 34.7741 274.728 34.3424 274.728 33.8828ZM282.269 33.8828C282.269 32.9219 282.074 32.1977 281.684 31.7103C281.308 31.2229 280.841 30.9792 280.284 30.9792C279.699 30.9792 279.212 31.2229 278.822 31.7103C278.446 32.1977 278.258 32.9219 278.258 33.8828C278.258 34.8716 278.446 35.6166 278.822 36.118C279.212 36.6054 279.699 36.8491 280.284 36.8491C280.841 36.8491 281.308 36.6054 281.684 36.118C282.074 35.6166 282.269 34.8716 282.269 33.8828ZM287.633 28.3889H291.226V29.9974C291.532 29.4125 291.95 28.9738 292.479 28.6813C293.022 28.375 293.614 28.2218 294.255 28.2218C295.327 28.2218 296.19 28.556 296.845 29.2245C297.513 29.8929 297.848 30.8399 297.848 32.0654V39.4185H294.255V32.6921C294.255 32.1211 294.108 31.6894 293.816 31.397C293.537 31.1045 293.175 30.9583 292.73 30.9583C292.312 30.9583 291.957 31.1045 291.664 31.397C291.372 31.6894 291.226 32.1211 291.226 32.6921V39.4185H287.633V28.3889ZM307.894 36.4522L307.957 39.147C307.609 39.2723 307.191 39.3768 306.704 39.4603C306.216 39.5439 305.736 39.5856 305.262 39.5856C304.078 39.5856 303.159 39.3002 302.505 38.7292C301.864 38.1443 301.544 37.3505 301.544 36.3478V31.1254H299.1V28.3889H301.544V25.4644H305.116V28.3889H307.957V31.1254H305.116V35.7211C305.116 36.0414 305.213 36.2851 305.408 36.4522C305.617 36.6054 305.91 36.682 306.286 36.682C306.439 36.682 306.662 36.6611 306.954 36.6193C307.261 36.5776 307.574 36.5219 307.894 36.4522ZM319.634 39.4185H316.041V32.6921C316.041 32.1211 315.895 31.6894 315.602 31.397C315.324 31.1045 314.962 30.9583 314.516 30.9583C314.098 30.9583 313.743 31.1045 313.451 31.397C313.158 31.6894 313.012 32.1211 313.012 32.6921V39.4185H309.419V24.7959H313.012V29.9974C313.319 29.4125 313.736 28.9738 314.266 28.6813C314.809 28.375 315.401 28.2218 316.041 28.2218C317.127 28.2218 317.998 28.556 318.652 29.2245C319.307 29.8929 319.634 30.8399 319.634 32.0654V39.4185Z" fill="black"/>
<path d="M330.751 13.9268H317.985V26.6925H330.751V13.9268Z" fill="white"/>
<path d="M359.183 119.535C362.067 119.535 364.406 117.196 364.406 114.312C364.406 111.428 362.067 109.09 359.183 109.09C356.299 109.09 353.961 111.428 353.961 114.312C353.961 117.196 356.299 119.535 359.183 119.535Z" fill="#00D639"/>
<path d="M359.183 117.221L358.023 220.508" stroke="#00D639" stroke-width="1.16053" stroke-dasharray="2.32 2.32"/>
<path d="M366.727 165.956H349.319V220.5H366.727V165.956Z" fill="#00D639" fill-opacity="0.2"/>
<path d="M359.183 124.177L365.716 129.399H352.651L359.183 124.177Z" fill="black" fill-opacity="0.9"/>
<path d="M398.061 128.819H320.306C318.383 128.819 316.824 130.377 316.824 132.3V169.437C316.824 171.36 318.383 172.919 320.306 172.919H398.061C399.984 172.919 401.543 171.36 401.543 169.437V132.3C401.543 130.377 399.984 128.819 398.061 128.819Z" fill="black" fill-opacity="0.9"/>
<path d="M355.47 145.178L354.932 143.516H352.471L351.933 145.178H351.097L353.279 138.679H354.161L356.343 145.178H355.47ZM352.685 142.847H354.718L353.706 139.681L352.685 142.847ZM360.692 145.178H359.912V144.5C359.776 144.748 359.593 144.936 359.365 145.066C359.135 145.19 358.882 145.252 358.603 145.252C358.158 145.252 357.786 145.103 357.489 144.806C357.192 144.509 357.044 144.091 357.044 143.553V140.443H357.824V143.442C357.824 143.826 357.922 144.119 358.121 144.324C358.318 144.522 358.569 144.621 358.873 144.621C359.163 144.621 359.408 144.522 359.606 144.324C359.81 144.119 359.912 143.826 359.912 143.442V140.443H360.692V145.178ZM363.799 145.224C363.645 145.224 363.496 145.209 363.353 145.178C363.211 145.141 363.078 145.088 362.954 145.02C362.83 144.946 362.713 144.86 362.601 144.76C362.496 144.655 362.401 144.537 362.314 144.407C362.234 144.271 362.162 144.123 362.1 143.961C362.039 143.794 361.992 143.616 361.961 143.423C361.93 143.231 361.914 143.024 361.914 142.801C361.914 142.578 361.93 142.372 361.961 142.179C361.992 141.987 362.039 141.807 362.1 141.64C362.162 141.473 362.234 141.325 362.314 141.195C362.401 141.059 362.496 140.942 362.601 140.842C362.713 140.737 362.83 140.65 362.954 140.582C363.078 140.508 363.211 140.455 363.353 140.424C363.496 140.387 363.645 140.368 363.799 140.368C364.133 140.368 364.421 140.45 364.663 140.61C364.91 140.771 365.105 141.003 365.247 141.306V140.443H366.027V145.271C366.027 145.413 366.012 145.549 365.981 145.679C365.957 145.809 365.919 145.93 365.869 146.041C365.82 146.152 365.758 146.255 365.684 146.347C365.615 146.447 365.535 146.533 365.442 146.607C365.355 146.689 365.26 146.756 365.155 146.812C365.049 146.874 364.938 146.923 364.82 146.96C364.703 147.004 364.579 147.034 364.449 147.053C364.319 147.072 364.186 147.081 364.05 147.081C363.604 147.081 363.208 146.986 362.861 146.793C362.521 146.607 362.271 146.364 362.109 146.06L362.676 145.633C362.83 145.9 363.023 146.1 363.251 146.236C363.487 146.373 363.747 146.44 364.031 146.44C364.365 146.44 364.65 146.345 364.885 146.152C365.127 145.961 365.247 145.636 365.247 145.178V144.286C365.105 144.59 364.91 144.823 364.663 144.983C364.421 145.144 364.133 145.224 363.799 145.224ZM363.976 144.593C364.347 144.593 364.65 144.444 364.885 144.147C365.127 143.844 365.247 143.395 365.247 142.801C365.247 142.195 365.127 141.742 364.885 141.445C364.65 141.148 364.347 141 363.976 141C363.604 141 363.298 141.148 363.056 141.445C362.821 141.742 362.704 142.195 362.704 142.801C362.704 143.395 362.821 143.844 363.056 144.147C363.298 144.444 363.604 144.593 363.976 144.593Z" fill="white" fill-opacity="0.9"/>
<path d="M322.975 160.701L323.894 160.241C324.135 160.807 324.428 161.23 324.771 161.508C325.124 161.787 325.505 161.959 325.913 162.024V158.737C325.765 158.681 325.621 158.626 325.481 158.57C325.342 158.514 325.203 158.458 325.064 158.403C324.924 158.338 324.79 158.273 324.66 158.208C324.53 158.133 324.404 158.055 324.284 157.971C324.172 157.887 324.066 157.799 323.963 157.706C323.861 157.604 323.768 157.497 323.685 157.386C323.601 157.275 323.532 157.154 323.476 157.024C323.42 156.885 323.374 156.741 323.337 156.592C323.309 156.434 323.295 156.267 323.295 156.091C323.295 155.422 323.536 154.865 324.019 154.42C324.502 153.965 325.133 153.719 325.913 153.682V152.637H326.776V153.71C327.361 153.784 327.872 154.007 328.308 154.378C328.745 154.749 329.107 155.316 329.395 156.077L328.448 156.495C328.243 155.956 327.997 155.543 327.71 155.255C327.431 154.968 327.12 154.777 326.776 154.684V157.901C326.925 157.957 327.069 158.013 327.208 158.068C327.357 158.124 327.501 158.185 327.64 158.25C327.779 158.305 327.914 158.37 328.044 158.444C328.183 158.509 328.313 158.584 328.434 158.667C328.554 158.742 328.666 158.83 328.768 158.932C328.879 159.025 328.977 159.127 329.06 159.238C329.144 159.35 329.214 159.47 329.269 159.6C329.334 159.73 329.381 159.874 329.409 160.032C329.446 160.181 329.464 160.343 329.464 160.519C329.464 161.197 329.214 161.773 328.712 162.246C328.22 162.711 327.575 162.966 326.776 163.012V164.266H325.913V162.998C325.235 162.924 324.646 162.701 324.144 162.33C323.652 161.949 323.262 161.406 322.975 160.701ZM324.423 156.021C324.423 156.421 324.567 156.741 324.855 156.982C325.143 157.214 325.495 157.414 325.913 157.581V154.629C325.486 154.666 325.129 154.805 324.841 155.046C324.562 155.279 324.423 155.604 324.423 156.021ZM328.336 160.589C328.336 160.19 328.183 159.879 327.877 159.656C327.57 159.433 327.204 159.234 326.776 159.057V162.051C327.25 162.005 327.626 161.856 327.905 161.606C328.192 161.355 328.336 161.016 328.336 160.589ZM331.442 163.221V162.316L334.923 158.361C335.369 157.86 335.661 157.428 335.801 157.066C335.949 156.704 336.024 156.365 336.024 156.049C336.024 155.529 335.861 155.125 335.536 154.838C335.22 154.54 334.835 154.392 334.38 154.392C333.916 154.392 333.503 154.54 333.141 154.838C332.779 155.125 332.44 155.52 332.124 156.021L331.205 155.45C331.567 154.819 332.017 154.313 332.556 153.932C333.104 153.552 333.74 153.361 334.464 153.361C334.659 153.361 334.849 153.38 335.035 153.417C335.22 153.445 335.397 153.491 335.564 153.556C335.731 153.612 335.889 153.682 336.038 153.765C336.195 153.849 336.335 153.946 336.455 154.058C336.585 154.169 336.701 154.294 336.803 154.434C336.906 154.573 336.989 154.722 337.054 154.879C337.128 155.028 337.184 155.19 337.221 155.367C337.258 155.543 337.277 155.729 337.277 155.924C337.277 156.407 337.161 156.885 336.929 157.358C336.706 157.832 336.316 158.384 335.759 159.015L332.946 162.219H337.319V163.221H331.442ZM339.138 160.728V159.726L343.483 153.473H344.918V159.712H346.129V160.728H344.918V163.221H343.748V160.728H339.138ZM340.322 159.712H343.748V154.74L340.322 159.712ZM348.171 165.213L347.558 164.781C347.79 164.493 347.994 164.224 348.171 163.973C348.356 163.732 348.496 163.495 348.589 163.263H348.561C348.338 163.263 348.138 163.189 347.962 163.04C347.786 162.882 347.697 162.683 347.697 162.441C347.697 162.181 347.786 161.972 347.962 161.815C348.138 161.648 348.343 161.564 348.575 161.564C348.816 161.564 349.034 161.657 349.229 161.842C349.424 162.019 349.522 162.274 349.522 162.608C349.522 163.017 349.392 163.444 349.132 163.89C348.881 164.345 348.561 164.786 348.171 165.213ZM356.68 153.361L356.777 154.406C355.533 154.378 354.54 154.768 353.797 155.576C353.064 156.383 352.637 157.535 352.516 159.029C352.711 158.556 353.022 158.166 353.449 157.86C353.885 157.553 354.368 157.4 354.897 157.4C355.733 157.4 356.411 157.669 356.93 158.208C357.45 158.746 357.71 159.438 357.71 160.283C357.71 160.506 357.687 160.724 357.641 160.937C357.604 161.142 357.548 161.337 357.474 161.522C357.399 161.708 357.306 161.884 357.195 162.051C357.084 162.209 356.958 162.358 356.819 162.497C356.68 162.627 356.527 162.748 356.359 162.859C356.202 162.961 356.03 163.049 355.844 163.124C355.659 163.198 355.464 163.254 355.259 163.291C355.055 163.328 354.846 163.347 354.633 163.347C354.401 163.347 354.173 163.323 353.95 163.277C353.737 163.24 353.528 163.179 353.324 163.096C353.129 163.012 352.943 162.91 352.767 162.789C352.59 162.66 352.428 162.511 352.279 162.344C352.14 162.177 352.01 161.991 351.889 161.787C351.778 161.573 351.68 161.346 351.597 161.104C351.513 160.854 351.448 160.584 351.402 160.297C351.365 160.009 351.346 159.702 351.346 159.378C351.346 159.043 351.365 158.718 351.402 158.403C351.439 158.087 351.495 157.781 351.569 157.484C351.643 157.186 351.731 156.899 351.833 156.62C351.945 156.342 352.075 156.077 352.223 155.826C352.372 155.576 352.534 155.339 352.711 155.116C352.896 154.893 353.096 154.694 353.31 154.517C353.523 154.332 353.751 154.169 353.992 154.03C354.243 153.881 354.507 153.756 354.786 153.654C355.074 153.552 355.375 153.477 355.691 153.431C356.007 153.385 356.336 153.361 356.68 153.361ZM354.619 162.372C355.204 162.372 355.663 162.172 355.997 161.773C356.332 161.374 356.499 160.9 356.499 160.352C356.499 159.823 356.332 159.364 355.997 158.974C355.663 158.574 355.204 158.375 354.619 158.375C354.024 158.375 353.556 158.574 353.212 158.974C352.869 159.364 352.697 159.823 352.697 160.352C352.697 160.9 352.869 161.374 353.212 161.773C353.556 162.172 354.024 162.372 354.619 162.372ZM359.753 158.347C359.753 156.759 360.013 155.534 360.533 154.67C361.053 153.798 361.823 153.361 362.845 153.361C363.866 153.361 364.636 153.798 365.156 154.67C365.676 155.534 365.936 156.759 365.936 158.347C365.936 159.944 365.676 161.174 365.156 162.037C364.636 162.901 363.866 163.333 362.845 163.333C361.823 163.333 361.053 162.901 360.533 162.037C360.013 161.174 359.753 159.944 359.753 158.347ZM364.725 158.347C364.725 156.945 364.553 155.938 364.209 155.325C363.875 154.703 363.42 154.392 362.845 154.392C362.269 154.392 361.809 154.703 361.466 155.325C361.132 155.938 360.964 156.945 360.964 158.347C360.964 159.749 361.132 160.761 361.466 161.383C361.809 161.996 362.269 162.302 362.845 162.302C363.42 162.302 363.875 161.996 364.209 161.383C364.553 160.761 364.725 159.749 364.725 158.347ZM368.103 158.347C368.103 156.759 368.363 155.534 368.883 154.67C369.403 153.798 370.173 153.361 371.194 153.361C372.216 153.361 372.986 153.798 373.506 154.67C374.026 155.534 374.286 156.759 374.286 158.347C374.286 159.944 374.026 161.174 373.506 162.037C372.986 162.901 372.216 163.333 371.194 163.333C370.173 163.333 369.403 162.901 368.883 162.037C368.363 161.174 368.103 159.944 368.103 158.347ZM373.075 158.347C373.075 156.945 372.903 155.938 372.559 155.325C372.225 154.703 371.77 154.392 371.194 154.392C370.619 154.392 370.159 154.703 369.816 155.325C369.482 155.938 369.314 156.945 369.314 158.347C369.314 159.749 369.482 160.761 369.816 161.383C370.159 161.996 370.619 162.302 371.194 162.302C371.77 162.302 372.225 161.996 372.559 161.383C372.903 160.761 373.075 159.749 373.075 158.347ZM377.093 163.319C376.861 163.319 376.652 163.24 376.467 163.082C376.29 162.915 376.202 162.701 376.202 162.441C376.202 162.181 376.29 161.968 376.467 161.801C376.652 161.634 376.861 161.55 377.093 161.55C377.326 161.55 377.53 161.634 377.706 161.801C377.892 161.968 377.985 162.181 377.985 162.441C377.985 162.701 377.892 162.915 377.706 163.082C377.53 163.24 377.326 163.319 377.093 163.319ZM379.922 158.347C379.922 156.759 380.182 155.534 380.702 154.67C381.221 153.798 381.992 153.361 383.013 153.361C384.035 153.361 384.805 153.798 385.325 154.67C385.845 155.534 386.105 156.759 386.105 158.347C386.105 159.944 385.845 161.174 385.325 162.037C384.805 162.901 384.035 163.333 383.013 163.333C381.992 163.333 381.221 162.901 380.702 162.037C380.182 161.174 379.922 159.944 379.922 158.347ZM384.893 158.347C384.893 156.945 384.722 155.938 384.378 155.325C384.044 154.703 383.589 154.392 383.013 154.392C382.438 154.392 381.978 154.703 381.635 155.325C381.3 155.938 381.133 156.945 381.133 158.347C381.133 159.749 381.3 160.761 381.635 161.383C381.978 161.996 382.438 162.302 383.013 162.302C383.589 162.302 384.044 161.996 384.378 161.383C384.722 160.761 384.893 159.749 384.893 158.347ZM388.272 158.347C388.272 156.759 388.532 155.534 389.052 154.67C389.571 153.798 390.342 153.361 391.363 153.361C392.385 153.361 393.155 153.798 393.675 154.67C394.195 155.534 394.455 156.759 394.455 158.347C394.455 159.944 394.195 161.174 393.675 162.037C393.155 162.901 392.385 163.333 391.363 163.333C390.342 163.333 389.571 162.901 389.052 162.037C388.532 161.174 388.272 159.944 388.272 158.347ZM393.243 158.347C393.243 156.945 393.072 155.938 392.728 155.325C392.394 154.703 391.939 154.392 391.363 154.392C390.788 154.392 390.328 154.703 389.985 155.325C389.65 155.938 389.483 156.945 389.483 158.347C389.483 159.749 389.65 160.761 389.985 161.383C390.328 161.996 390.788 162.302 391.363 162.302C391.939 162.302 392.394 161.996 392.728 161.383C393.072 160.761 393.243 159.749 393.243 158.347Z" fill="white" fill-opacity="0.9"/>
</g>
</g>
<defs>
<clipPath id="clip0_1093_27505">
<rect width="441" height="278.526" fill="white"/>
</clipPath>
</defs>
</svg>
