<svg width="1440" height="920" viewBox="0 0 1440 920" fill="none" xmlns="http://www.w3.org/2000/svg">
<g clip-path="url(#clip0_6206_44678)">
<rect width="1440" height="920" rx="20" fill="white"/>
<rect width="1440" height="800" transform="translate(0 120)" fill="white"/>
<rect width="1440" height="800" transform="translate(0 120)" fill="#F2F5F6"/>
<g clip-path="url(#clip1_6206_44678)">
<rect width="1440" height="69.3333" fill="black"/>
</g>
<line y1="68.6663" x2="1440" y2="68.6663" stroke="#D9E0E4" stroke-width="1.33333"/>
<path fill-rule="evenodd" clip-rule="evenodd" d="M38.407 21.8499C38.3184 17.282 34.3793 14 29.5459 14C24.7076 14 21 17.5486 21 22.0721C21 27.0835 24.5726 28.9027 28.8683 30.4138C32.7118 31.7452 34.5655 32.9422 34.5655 35.7808C34.5655 38.0869 32.7118 39.9941 29.9084 39.9941C27.24 39.9941 24.8888 38.1758 24.8888 35.3373C24.8888 34.4213 25.141 33.9003 25.3564 33.4554C25.5169 33.1236 25.6571 32.834 25.6571 32.4543C25.6571 31.4301 24.9341 30.6766 23.758 30.6766C22.4017 30.6766 21 32.6726 21 35.5111C21 40.079 25.0278 43.4499 29.9084 43.4479C34.8817 43.4479 38.4544 39.8548 38.4544 35.3758C38.4544 30.2311 34.7015 28.5007 30.5861 27.037C26.7396 25.6642 24.8888 24.4691 24.8868 21.762C24.8868 19.278 26.8806 17.4598 29.4986 17.4598C32.3029 17.4598 34.5182 19.3709 34.5635 21.9388C34.6088 23.1368 35.4678 23.8459 36.4626 23.8459C37.5008 23.8459 38.4524 23.1338 38.407 21.8499ZM40.3262 34.7121C40.3262 39.5911 44.3963 43.4499 49.28 43.4499C51.45 43.4499 53.1235 42.7397 53.1235 41.3649C53.1235 40.3447 52.2193 39.6355 51.3603 39.6355C51.0827 39.6355 50.8399 39.6866 50.5672 39.7439C50.2177 39.8174 49.8189 39.9012 49.2347 39.9012C46.4303 39.9012 44.2151 37.5062 44.2151 34.7121C44.2151 31.6968 46.4767 29.3462 49.3253 29.3462C52.5354 29.3462 54.5705 31.7412 54.5705 35.2444V41.5872C54.5705 42.6953 55.4747 43.4499 56.5602 43.4499C57.5984 43.4499 58.5046 42.6953 58.5046 41.5872V35.1111C58.5046 29.7896 54.7527 25.8864 49.4159 25.8864C44.4416 25.8864 40.3262 29.6563 40.3262 34.7121ZM69.6465 56.6667C64.5815 56.6667 60.3765 53.118 60.3765 48.5057C60.3765 46.9531 61.2828 46.2439 62.321 46.2439C63.3591 46.2439 64.22 46.9096 64.2654 48.1955C64.3107 51.0785 66.6619 53.2069 69.6022 53.2069C72.7237 53.2069 74.7567 51.2553 74.7567 48.7279C74.7567 45.8449 72.4961 44.6469 68.6526 43.4499C64.1757 42.0306 60.3776 40.079 60.3776 34.6676C60.3776 29.7007 64.2664 25.8864 69.3313 25.8864C74.4405 25.8864 78.6455 29.5229 78.6455 34.3131C78.6455 37.2405 77.4251 39.5022 75.7516 39.5022C74.6218 39.5022 73.8525 38.7042 73.8525 37.7244C73.8525 37.2875 74.0187 36.9564 74.2088 36.5777C74.4625 36.0722 74.7587 35.482 74.7587 34.4425C74.7587 31.3807 72.3179 29.3422 69.3786 29.3422C66.529 29.3422 64.2684 31.4706 64.2684 34.2647C64.2684 37.4143 66.5743 38.7447 70.3735 39.9862C74.7587 41.4054 78.6475 43.1793 78.6475 48.3684C78.6475 53.0262 74.8947 56.6647 69.6495 56.6647L69.6465 56.6667ZM80.5175 34.6677C80.5175 39.5467 84.6772 43.4499 89.7421 43.4499H89.7451C92.2776 43.4499 94.3126 42.7842 95.669 41.9418C97.0253 41.0993 97.5681 40.3892 97.5681 39.5911C97.5681 38.7487 96.9317 37.9941 95.7556 37.9941C95.2093 37.9941 94.7043 38.2973 94.088 38.6673C93.1228 39.2468 91.8847 39.9902 89.7874 39.9902C89.0767 39.991 88.3729 39.8535 87.7167 39.5858C87.0605 39.3181 86.4649 38.9253 85.9645 38.4303C85.464 37.9354 85.0686 37.3479 84.8012 36.7021C84.5337 36.0562 84.3995 35.3648 84.4063 34.6677C84.4063 31.7413 86.7575 29.3018 89.6515 29.3018C92.772 29.3018 94.4445 31.2998 94.4445 32.5837C94.4445 32.9383 94.1736 33.1161 93.8111 33.1161H89.9223C88.8791 33.1161 88.1098 33.8232 88.1098 34.7121C88.1098 35.6435 88.8832 36.3536 89.9223 36.3536H95.1232C97.1129 36.3536 98.3333 35.3334 98.3333 33.6484C98.3333 29.3018 94.5351 25.8865 89.5155 25.8865C88.3361 25.8809 87.1672 26.1038 86.0759 26.5426C84.9846 26.9814 83.9923 27.6273 83.1563 28.4432C82.3202 29.2592 81.6567 30.2291 81.2038 31.2973C80.751 32.3654 80.5177 33.5108 80.5175 34.6677Z" fill="#00D639"/>
<line x1="120.331" y1="14" x2="120.331" y2="56.6667" stroke="#5E5E5E" stroke-width="1.33333"/>
<text fill="white" fill-opacity="0.9" style="white-space: pre" xml:space="preserve" font-family="Sage UI" font-size="24" font-weight="500" letter-spacing="0px"><tspan x="139" y="42.8">Intacct</tspan></text>
<path d="M1305.38 34.1L1303.27 34.75C1302.52 34.98 1301.94 35.57 1301.71 36.31L1301.06 38.42C1300.68 39.67 1298.91 39.67 1298.53 38.42L1297.88 36.31C1297.65 35.56 1297.06 34.98 1296.32 34.75L1294.21 34.1C1292.96 33.72 1292.96 31.95 1294.21 31.57L1296.32 30.92C1297.07 30.69 1297.65 30.1 1297.88 29.36L1298.53 27.25C1298.91 26 1300.68 26 1301.06 27.25L1301.71 29.36C1301.94 30.11 1302.53 30.69 1303.27 30.92L1305.38 31.57C1306.63 31.95 1306.63 33.72 1305.38 34.1Z" fill="url(#paint0_radial_6206_44678)"/>
<path d="M1280.62 15.7895C1286.81 15.7895 1291.85 20.0695 1291.96 26.0295C1292.02 27.7095 1290.8 28.6295 1289.47 28.6295C1288.14 28.6295 1287.1 27.6995 1287.04 26.1395C1286.98 22.7795 1284.15 20.2895 1280.56 20.2895C1277.2 20.2895 1274.66 22.6595 1274.66 25.8995C1274.66 29.4295 1277.03 30.9895 1281.95 32.7895C1287.22 34.6995 1292.02 36.9595 1292.02 43.6695C1292.02 49.5195 1287.45 54.1995 1281.08 54.1995C1274.71 54.1995 1269.68 49.7995 1269.68 43.8395C1269.68 40.1395 1271.47 37.5295 1273.21 37.5295C1274.72 37.5295 1275.64 38.5095 1275.64 39.8395C1275.64 40.9995 1274.66 41.5195 1274.66 43.5995C1274.66 47.2995 1277.67 49.6795 1281.08 49.6795C1284.67 49.6795 1287.04 47.1895 1287.04 44.1795C1287.04 40.4795 1284.67 38.9095 1279.75 37.1795C1274.25 35.2095 1269.68 32.8395 1269.68 26.2995C1269.68 20.3995 1274.42 15.7695 1280.62 15.7695V15.7895Z" fill="url(#paint1_linear_6206_44678)"/>
<text fill="white" fill-opacity="0.9" style="white-space: pre" xml:space="preserve" font-family="Sage UI" font-size="24" font-weight="500" letter-spacing="0px"><tspan x="1316" y="43.3">Copilot</tspan></text>
<rect width="1440" height="53" transform="translate(0 67)" fill="white"/>
<rect width="65.3333" height="53.3333" transform="translate(0 66.833)" fill="white"/>
<text fill="black" style="white-space: pre" xml:space="preserve" font-family="Font Awesome 5 Pro" font-size="21.3333" font-weight="900" letter-spacing="0px"><tspan x="20" y="101.167">star</tspan></text>
<path d="M64.6667 67.4997V119.532" stroke="#595959" stroke-width="1.33333" stroke-linecap="square"/>
<rect width="65.3333" height="53.3333" transform="translate(65.333 66.833)" fill="white"/>
<text fill="black" style="white-space: pre" xml:space="preserve" font-family="Font Awesome 5 Pro" font-size="21.3333" font-weight="900" letter-spacing="0px"><tspan x="85.333" y="101.167">home</tspan></text>
<path d="M130 67.4997V119.532" stroke="#595959" stroke-width="1.33333" stroke-linecap="square"/>
<g clip-path="url(#clip2_6206_44678)">
<rect width="333.333" height="53.3333" transform="translate(130.667 66.833)" fill="white"/>
<text fill="#00141E" style="white-space: pre" xml:space="preserve" font-family="Helvetica-Neue" font-size="18.6667" letter-spacing="0px"><tspan x="157.334" y="100.323">Approve Journal Entries</tspan></text>
<text fill="black" style="white-space: pre" xml:space="preserve" font-family="Font Awesome 5 Pro" font-size="18.6667" letter-spacing="0px"><tspan x="437.334" y="100.333">&#xf107;</tspan></text>
<path d="M463.334 67.4997V119.532" stroke="#595959" stroke-width="1.33333" stroke-linecap="square"/>
</g>
<rect x="1169" y="77" width="81" height="32" rx="4" fill="white"/>
<g clip-path="url(#clip3_6206_44678)">
<text fill="#0060A7" style="white-space: pre" xml:space="preserve" font-family="Helvetica-Neue" font-size="14" letter-spacing="0px"><tspan x="1185.38" y="98.117">Decline</tspan></text>
</g>
<rect x="1169.5" y="77.5" width="80" height="31" rx="3.5" stroke="#0060A7"/>
<rect x="1260" y="77" width="67" height="32" rx="4" fill="white"/>
<g clip-path="url(#clip4_6206_44678)">
<text fill="#0060A7" style="white-space: pre" xml:space="preserve" font-family="Helvetica-Neue" font-size="14" letter-spacing="0px"><tspan x="1276.39" y="98.117">Done</tspan></text>
</g>
<rect x="1260.5" y="77.5" width="66" height="31" rx="3.5" stroke="#0060A7"/>
<rect x="1337" y="77" width="75" height="32" rx="4" fill="white"/>
<g clip-path="url(#clip5_6206_44678)">
<text fill="#0060A7" style="white-space: pre" xml:space="preserve" font-family="Helvetica-Neue" font-size="14" letter-spacing="0px"><tspan x="1353.11" y="98.117">Export</tspan></text>
</g>
<rect x="1337.5" y="77.5" width="74" height="31" rx="3.5" stroke="#0060A7"/>
<rect x="979" y="77" width="83" height="32" rx="4" fill="white"/>
<g clip-path="url(#clip6_6206_44678)">
<text fill="#0060A7" style="white-space: pre" xml:space="preserve" font-family="Helvetica-Neue" font-size="14" letter-spacing="0px"><tspan x="995.132" y="98.117">View All</tspan></text>
</g>
<rect x="979.5" y="77.5" width="82" height="31" rx="3.5" stroke="#0060A7"/>
<rect x="1072" y="77" width="87" height="32" rx="4" fill="white"/>
<g clip-path="url(#clip7_6206_44678)">
<text fill="#0060A7" style="white-space: pre" xml:space="preserve" font-family="Helvetica-Neue" font-size="14" letter-spacing="0px"><tspan x="1088.27" y="98.117">Approve</tspan></text>
</g>
<rect x="1072.5" y="77.5" width="86" height="31" rx="3.5" stroke="#0060A7"/>
<g clip-path="url(#clip8_6206_44678)">
<g clip-path="url(#clip9_6206_44678)">
<rect width="1777.15" height="35.0482" transform="translate(46.8555 307.062)" fill="#E6EBED"/>
<rect x="46.8555" y="342.11" width="1369.14" height="1.03083" fill="#CCD6DB"/>
<g clip-path="url(#clip10_6206_44678)">
<rect x="46.8555" y="343.142" width="1777.15" height="30.9249" fill="white"/>
<rect x="46.8555" y="374.066" width="1777.15" height="1.03083" fill="#D9E0E4"/>
<rect x="46.8555" y="375.098" width="1777.15" height="30.9249" fill="#FAFBFB"/>
<rect x="46.8555" y="406.022" width="1777.15" height="1.03083" fill="#D9E0E4"/>
<rect x="46.8555" y="407.053" width="1777.15" height="30.9249" fill="white"/>
<rect x="46.8555" y="437.978" width="1777.15" height="1.03083" fill="#D9E0E4"/>
<rect x="46.8555" y="439.009" width="1777.15" height="30.9249" fill="#FAFBFB"/>
<rect x="46.8555" y="469.934" width="1777.15" height="1.03083" fill="#D9E0E4"/>
<rect x="46.8555" y="470.965" width="1777.15" height="30.9249" fill="white"/>
<rect x="46.8555" y="501.89" width="1777.15" height="1.03083" fill="#D9E0E4"/>
<rect x="46.8555" y="502.92" width="1777.15" height="30.9249" fill="#FAFBFB"/>
<rect x="46.8555" y="533.845" width="1777.15" height="1.03083" fill="#D9E0E4"/>
<rect x="46.8555" y="534.876" width="1777.15" height="30.9249" fill="white"/>
</g>
<text fill="black" style="white-space: pre" xml:space="preserve" font-family="Helvetica Neue" font-size="13.4008" letter-spacing="0px"><tspan x="338.113" y="364.477">Submitted&#10;</tspan></text>
<text fill="black" style="white-space: pre" xml:space="preserve" font-family="Helvetica Neue" font-size="13.4008" letter-spacing="0px"><tspan x="338.113" y="396.432">Submitted&#10;</tspan><tspan x="338.113" y="428.388">Submitted&#10;</tspan><tspan x="338.113" y="460.344">Submitted&#10;</tspan><tspan x="338.113" y="492.299">Submitted&#10;</tspan><tspan x="338.113" y="524.255">Submitted&#10;</tspan><tspan x="338.113" y="556.211">Submitted&#10;</tspan></text>
<text fill="#1A1A1A" style="white-space: pre" xml:space="preserve" font-family="Font Awesome 5 Pro" font-size="18.5549" font-weight="900" letter-spacing="0px"><tspan x="263.041" y="433.448">exclamation-circle</tspan></text>
<text fill="#1A1A1A" style="white-space: pre" xml:space="preserve" font-family="Font Awesome 5 Pro" font-size="18.5549" font-weight="900" letter-spacing="0px"><tspan x="263.041" y="367.675">exclamation-circle</tspan></text>
<text fill="black" style="white-space: pre" xml:space="preserve" font-family="Helvetica Neue" font-size="13.4008" letter-spacing="0px"><tspan x="475.094" y="364.477">Grace, Karla&#10;</tspan><tspan x="475.094" y="396.432">Grace, Karla&#10;</tspan><tspan x="475.094" y="428.388">Grace, Karla&#10;</tspan><tspan x="475.094" y="460.344">Grace, Karla&#10;</tspan><tspan x="475.094" y="492.299">Grace, Karla&#10;</tspan><tspan x="475.094" y="524.255">Grace, Karla&#10;</tspan><tspan x="475.094" y="556.211">Grace, Karla&#10;</tspan></text>
<text fill="black" style="white-space: pre" xml:space="preserve" font-family="Helvetica Neue" font-size="13.4008" letter-spacing="0px"><tspan x="600.004" y="364.477">AAJ&#10;</tspan><tspan x="600.004" y="396.432">AAJ&#10;</tspan><tspan x="600.004" y="428.388">AAJ&#10;</tspan><tspan x="600.004" y="460.344">AAJ&#10;</tspan><tspan x="600.004" y="492.299">AAJ&#10;</tspan><tspan x="600.004" y="524.255">AAJ&#10;</tspan><tspan x="600.004" y="556.211">AAJ&#10;</tspan><tspan x="600.004" y="588.167">AAJ--Audit Adjustments Journal</tspan></text>
<text fill="black" style="white-space: pre" xml:space="preserve" font-family="Helvetica Neue" font-size="13.4008" letter-spacing="0px"><tspan x="713.277" y="364.477">Journal Entry&#10;</tspan><tspan x="713.277" y="396.432">Journal Entry&#10;</tspan><tspan x="713.277" y="428.388">Journal Entry&#10;</tspan><tspan x="713.277" y="460.344">Journal Entry&#10;</tspan><tspan x="713.277" y="492.299">Journal Entry&#10;</tspan><tspan x="713.277" y="524.255">Journal Entry&#10;</tspan><tspan x="713.277" y="556.211">Journal Entry&#10;</tspan><tspan x="713.277" y="588.167">AAJ--Audit </tspan><tspan x="713.277" y="619.092">Adjustments Journal</tspan></text>
<text fill="black" style="white-space: pre" xml:space="preserve" font-family="Helvetica Neue" font-size="13.4008" letter-spacing="0px"><tspan x="1048.64" y="362.414">reclassification&#10;</tspan><tspan x="1048.64" y="394.37">adjustment&#10;</tspan><tspan x="1048.64" y="426.325">adjustment&#10;</tspan><tspan x="1048.64" y="458.281">adjustment&#10;</tspan><tspan x="1048.64" y="490.237">adjustment&#10;</tspan><tspan x="1048.64" y="522.193">Reversed - Accrued Salaries&#10;</tspan><tspan x="1048.64" y="554.148">Accrued Salaries&#10;</tspan><tspan x="1048.64" y="586.104">AAJ--Audit Adjustments Journal</tspan></text>
<text fill="black" style="white-space: pre" xml:space="preserve" font-family="Helvetica Neue" font-size="13.4008" letter-spacing="0px"><tspan x="1254.55" y="362.414">Date &#38; Time&#10;</tspan><tspan x="1254.55" y="394.37">Date &#38; Time&#10;</tspan><tspan x="1254.55" y="426.325">Date &#38; Time&#10;</tspan><tspan x="1254.55" y="458.281">Date &#38; Time&#10;</tspan><tspan x="1254.55" y="490.237">Date &#38; Time&#10;</tspan><tspan x="1254.55" y="522.193">Date &#38; Time&#10;</tspan><tspan x="1254.55" y="554.148">Date &#38; Time&#10;</tspan><tspan x="1254.55" y="586.104">AAJ--Audit Adjustments Journal</tspan></text>
<text fill="black" style="white-space: pre" xml:space="preserve" font-family="Helvetica Neue" font-size="13.4008" letter-spacing="0px"><tspan x="863.094" y="364.477">19&#10;</tspan><tspan x="863.094" y="396.432">18&#10;</tspan><tspan x="863.094" y="428.388">16&#10;</tspan><tspan x="863.094" y="460.344">13&#10;</tspan><tspan x="863.094" y="492.299">9&#10;</tspan><tspan x="863.094" y="524.255">5&#10;</tspan><tspan x="863.094" y="556.211">4&#10;</tspan><tspan x="863.094" y="588.167">AAJ--Audit </tspan><tspan x="863.094" y="619.092">Adjustments </tspan><tspan x="863.094" y="650.016">Journal</tspan></text>
<text fill="black" style="white-space: pre" xml:space="preserve" font-family="Helvetica Neue" font-size="13.4008" letter-spacing="0px"><tspan x="920.52" y="364.477">&#10;</tspan><tspan x="920.52" y="396.432">&#10;</tspan><tspan x="920.52" y="428.388">&#10;</tspan><tspan x="920.52" y="460.344">&#10;</tspan><tspan x="920.52" y="492.299">&#10;</tspan><tspan x="920.52" y="524.255">Reversed -&#10;</tspan></text>
<g clip-path="url(#clip11_6206_44678)">
<rect width="60.819" height="1.03083" transform="matrix(-1 0 0 1 68.8203 341.997)" fill="#CCD6DB"/>
<g clip-path="url(#clip12_6206_44678)">
<rect width="60.819" height="30.9249" transform="matrix(-1 0 0 1 68.8203 343.028)" fill="white"/>
<rect width="60.819" height="1.03083" transform="matrix(-1 0 0 1 68.8203 373.953)" fill="#D9E0E4"/>
<rect width="60.819" height="30.9249" transform="matrix(-1 0 0 1 68.8203 374.984)" fill="#FAFBFB"/>
<rect width="60.819" height="1.03083" transform="matrix(-1 0 0 1 68.8203 405.909)" fill="#D9E0E4"/>
<rect width="60.819" height="30.9249" transform="matrix(-1 0 0 1 68.8203 406.939)" fill="white"/>
<rect width="60.819" height="1.03083" transform="matrix(-1 0 0 1 68.8203 437.864)" fill="#D9E0E4"/>
<rect width="60.819" height="30.9249" transform="matrix(-1 0 0 1 68.8203 438.896)" fill="#FAFBFB"/>
<rect width="60.819" height="1.03083" transform="matrix(-1 0 0 1 68.8203 469.82)" fill="#D9E0E4"/>
<rect width="60.819" height="30.9249" transform="matrix(-1 0 0 1 68.8203 470.852)" fill="white"/>
<rect width="60.819" height="1.03083" transform="matrix(-1 0 0 1 68.8203 501.776)" fill="#D9E0E4"/>
<rect width="60.819" height="30.9249" transform="matrix(-1 0 0 1 68.8203 502.807)" fill="#FAFBFB"/>
<rect width="60.819" height="1.03083" transform="matrix(-1 0 0 1 68.8203 533.731)" fill="#D9E0E4"/>
<rect width="60.819" height="30.9249" transform="matrix(-1 0 0 1 68.8203 534.763)" fill="white"/>
</g>
<g clip-path="url(#clip13_6206_44678)">
<g clip-path="url(#clip14_6206_44678)">
<rect x="-0.515415" y="0.515415" width="15.4624" height="15.4624" rx="3.6079" transform="matrix(-1 0 0 1 55.4194 350.244)" fill="white" stroke="#668494" stroke-width="1.03083"/>
<rect x="-0.515415" y="0.515415" width="15.4624" height="15.4624" rx="3.6079" transform="matrix(-1 0 0 1 55.4194 382.2)" fill="white" stroke="#668494" stroke-width="1.03083"/>
<rect x="-0.515415" y="0.515415" width="15.4624" height="15.4624" rx="3.6079" transform="matrix(-1 0 0 1 55.4194 414.155)" fill="white" stroke="#668494" stroke-width="1.03083"/>
<rect x="-0.515415" y="0.515415" width="15.4624" height="15.4624" rx="3.6079" transform="matrix(-1 0 0 1 55.4194 446.111)" fill="white" stroke="#668494" stroke-width="1.03083"/>
<rect x="-0.515415" y="0.515415" width="15.4624" height="15.4624" rx="3.6079" transform="matrix(-1 0 0 1 55.4194 478.067)" fill="white" stroke="#668494" stroke-width="1.03083"/>
<rect x="-0.515415" y="0.515415" width="15.4624" height="15.4624" rx="3.6079" transform="matrix(-1 0 0 1 55.4194 510.022)" fill="white" stroke="#668494" stroke-width="1.03083"/>
<rect x="-0.515415" y="0.515415" width="15.4624" height="15.4624" rx="3.6079" transform="matrix(-1 0 0 1 55.4194 541.979)" fill="white" stroke="#668494" stroke-width="1.03083"/>
</g>
</g>
</g>
</g>
<text fill="black" style="white-space: pre" xml:space="preserve" font-family="Helvetica Neue" font-size="13.4008" letter-spacing="0px"><tspan x="270.318" y="363.992">&#10;</tspan><tspan x="270.318" y="395.948">-&#10;</tspan><tspan x="270.318" y="459.859">-&#10;</tspan><tspan x="270.318" y="491.815">-&#10;</tspan><tspan x="270.318" y="523.771">-&#10;</tspan><tspan x="270.318" y="555.727">-&#10;</tspan></text>
<text fill="black" style="white-space: pre" xml:space="preserve" font-family="Helvetica Neue" font-size="13.4008" letter-spacing="0px"><tspan x="272.922" y="427.904">&#10;</tspan></text>
<g clip-path="url(#clip15_6206_44678)">
<rect width="1392" height="97" transform="translate(24 245)" fill="#E6EBED"/>
<g clip-path="url(#clip16_6206_44678)">
<g clip-path="url(#clip17_6206_44678)">
<rect x="219.566" y="285.199" width="96.898" height="34.9186" rx="5.37209" fill="white"/>
</g>
<rect x="220.238" y="285.871" width="95.555" height="33.5756" rx="4.70058" stroke="#668494" stroke-width="1.34302"/>
</g>
<g clip-path="url(#clip18_6206_44678)">
<g clip-path="url(#clip19_6206_44678)">
<rect x="39" y="285.199" width="96.898" height="34.9186" rx="5.37209" fill="white"/>
</g>
<rect x="39.6715" y="285.871" width="95.555" height="33.5756" rx="4.70058" stroke="#668494" stroke-width="1.34302"/>
</g>
<g clip-path="url(#clip20_6206_44678)">
<g clip-path="url(#clip21_6206_44678)">
<rect x="860.488" y="285.379" width="34" height="34.9186" rx="5.37209" fill="white"/>
</g>
<rect x="861.16" y="286.05" width="32.657" height="33.5756" rx="4.70058" stroke="#668494" stroke-width="1.34302"/>
</g>
<g clip-path="url(#clip22_6206_44678)">
<g clip-path="url(#clip23_6206_44678)">
<rect x="333.988" y="285.199" width="89" height="34.9186" rx="5.37209" fill="white"/>
</g>
<rect x="334.66" y="285.871" width="87.657" height="33.5756" rx="4.70058" stroke="#668494" stroke-width="1.34302"/>
</g>
<g clip-path="url(#clip24_6206_44678)">
<g clip-path="url(#clip25_6206_44678)">
<rect x="919.582" y="285.379" width="104" height="34.9186" rx="5.37209" fill="white"/>
</g>
<rect x="920.254" y="286.05" width="102.657" height="33.5756" rx="4.70058" stroke="#668494" stroke-width="1.34302"/>
</g>
<g clip-path="url(#clip26_6206_44678)">
<g clip-path="url(#clip27_6206_44678)">
<rect x="1252.49" y="285.199" width="144.316" height="34.9186" rx="5.37209" fill="white"/>
</g>
<rect x="1253.16" y="285.871" width="142.973" height="33.5756" rx="4.70058" stroke="#668494" stroke-width="1.34302"/>
</g>
<g clip-path="url(#clip28_6206_44678)">
<g clip-path="url(#clip29_6206_44678)">
<rect x="472" y="285.199" width="101" height="34.9186" rx="5.37209" fill="white"/>
</g>
<rect x="472.672" y="285.871" width="99.657" height="33.5756" rx="4.70058" stroke="#668494" stroke-width="1.34302"/>
</g>
<g clip-path="url(#clip30_6206_44678)">
<g clip-path="url(#clip31_6206_44678)">
<rect x="600" y="285.199" width="76" height="34.9186" rx="5.37209" fill="white"/>
</g>
<rect x="600.672" y="285.871" width="74.657" height="33.5756" rx="4.70058" stroke="#668494" stroke-width="1.34302"/>
</g>
<g clip-path="url(#clip32_6206_44678)">
<g clip-path="url(#clip33_6206_44678)">
<rect x="1043.77" y="285.379" width="182" height="34.9186" rx="5.37209" fill="white"/>
</g>
<rect x="1044.44" y="286.05" width="180.657" height="33.5756" rx="4.70058" stroke="#668494" stroke-width="1.34302"/>
</g>
<text fill="#1A1A1A" style="white-space: pre" xml:space="preserve" font-family="Helvetica-Neue" font-size="17.4593" letter-spacing="0px"><tspan x="219.566" y="273.753">Outlier</tspan></text>
<text fill="#1A1A1A" style="white-space: pre" xml:space="preserve" font-family="Helvetica-Neue" font-size="17.4593" letter-spacing="0px"><tspan x="860" y="273.753">No</tspan></text>
<text fill="#1A1A1A" style="white-space: pre" xml:space="preserve" font-family="Helvetica-Neue" font-size="17.4593" letter-spacing="0px"><tspan x="704" y="273.753">Transaction type</tspan></text>
<text fill="#1A1A1A" style="white-space: pre" xml:space="preserve" font-family="Helvetica-Neue" font-size="17.4593" letter-spacing="0px"><tspan x="333.988" y="273.753">Request status</tspan></text>
<text fill="#1A1A1A" style="white-space: pre" xml:space="preserve" font-family="Helvetica-Neue" font-size="17.4593" letter-spacing="0px"><tspan x="919.488" y="273.753">Reference #</tspan></text>
<text fill="#1A1A1A" style="white-space: pre" xml:space="preserve" font-family="Helvetica-Neue" font-size="17.4593" letter-spacing="0px"><tspan x="1252.49" y="273.753">Date requested</tspan></text>
<text fill="#1A1A1A" style="white-space: pre" xml:space="preserve" font-family="Helvetica-Neue" font-size="17.4593" letter-spacing="0px"><tspan x="472" y="273.753">Requester</tspan></text>
<text fill="#1A1A1A" style="white-space: pre" xml:space="preserve" font-family="Helvetica-Neue" font-size="17.4593" letter-spacing="0px"><tspan x="600" y="273.753">Journal</tspan></text>
<text fill="#1A1A1A" style="white-space: pre" xml:space="preserve" font-family="Helvetica-Neue" font-size="17.4593" letter-spacing="0px"><tspan x="1043.49" y="273.753">Description</tspan></text>
<text fill="#1A1A1A" style="white-space: pre" xml:space="preserve" font-family="Helvetica-Neue" font-size="17.4593" letter-spacing="0px"><tspan x="39" y="273.753">Select</tspan></text>
</g>
<text fill="#0060A7" style="white-space: pre" xml:space="preserve" font-family="Helvetica Neue" font-size="13.4008" letter-spacing="0px"><tspan x="76" y="364.414">View  Approve  Decline&#10;</tspan><tspan x="76" y="396.37">View  Approve  Decline&#10;</tspan><tspan x="76" y="428.325">View  Approve  Decline&#10;</tspan><tspan x="76" y="460.281">View  Approve  Decline&#10;</tspan><tspan x="76" y="492.237">View  Approve  Decline&#10;</tspan><tspan x="76" y="524.193">View  Approve  Decline&#10;</tspan><tspan x="76" y="556.148">View  Approve  Decline&#10;</tspan></text>
</g>
<rect x="24.5" y="245.5" width="1391" height="320" rx="4.5" stroke="#B3C2C9"/>
<rect width="1440" height="853" transform="translate(0 67)" fill="#282828" fill-opacity="0.4"/>
<g clip-path="url(#clip34_6206_44678)">
<g clip-path="url(#clip35_6206_44678)">
<rect width="1777.15" height="35.0482" transform="translate(45.8555 307.062)" fill="#E6EBED"/>
<rect x="45.8555" y="342.11" width="1369.14" height="1.03083" fill="#CCD6DB"/>
<g clip-path="url(#clip36_6206_44678)">
<rect x="45.8555" y="343.142" width="1777.15" height="30.9249" fill="white"/>
<rect x="45.8555" y="374.066" width="1777.15" height="1.03083" fill="#D9E0E4"/>
<rect x="45.8555" y="375.098" width="1777.15" height="30.9249" fill="#FAFBFB"/>
<rect x="45.8555" y="406.022" width="1777.15" height="1.03083" fill="#D9E0E4"/>
<rect x="45.8555" y="407.053" width="1777.15" height="30.9249" fill="white"/>
<rect x="45.8555" y="437.978" width="1777.15" height="1.03083" fill="#D9E0E4"/>
<rect x="45.8555" y="439.009" width="1777.15" height="30.9249" fill="#FAFBFB"/>
<rect x="45.8555" y="469.934" width="1777.15" height="1.03083" fill="#D9E0E4"/>
<rect x="45.8555" y="470.965" width="1777.15" height="30.9249" fill="white"/>
<rect x="45.8555" y="501.89" width="1777.15" height="1.03083" fill="#D9E0E4"/>
<rect x="45.8555" y="502.92" width="1777.15" height="30.9249" fill="#FAFBFB"/>
<rect x="45.8555" y="533.845" width="1777.15" height="1.03083" fill="#D9E0E4"/>
<rect x="45.8555" y="534.876" width="1777.15" height="30.9249" fill="white"/>
</g>
<text fill="#1A1A1A" style="white-space: pre" xml:space="preserve" font-family="Font Awesome 5 Pro" font-size="18.5549" font-weight="900" letter-spacing="0px"><tspan x="260.041" y="433.448">exclamation-circle</tspan></text>
<text fill="#1A1A1A" style="white-space: pre" xml:space="preserve" font-family="Font Awesome 5 Pro" font-size="18.5549" font-weight="900" letter-spacing="0px"><tspan x="260.041" y="367.675">exclamation-circle</tspan></text>
</g>
<text fill="black" style="white-space: pre" xml:space="preserve" font-family="Helvetica Neue" font-size="13.4008" letter-spacing="0px"><tspan x="267.396" y="363.992">&#10;</tspan><tspan x="267.396" y="395.948">-&#10;</tspan><tspan x="267.396" y="459.859">-&#10;</tspan><tspan x="267.396" y="491.815">-&#10;</tspan><tspan x="267.396" y="523.771">-&#10;</tspan><tspan x="267.396" y="555.727">-&#10;</tspan></text>
<text fill="black" style="white-space: pre" xml:space="preserve" font-family="Helvetica Neue" font-size="13.4008" letter-spacing="0px"><tspan x="270" y="427.904">&#10;</tspan></text>
<g clip-path="url(#clip37_6206_44678)">
<rect width="1392" height="97" transform="translate(213 246)" fill="#E6EBED"/>
<g clip-path="url(#clip38_6206_44678)">
<g clip-path="url(#clip39_6206_44678)">
<rect x="219" y="285.199" width="96.898" height="34.9186" rx="5.37209" fill="white"/>
</g>
<rect x="219.672" y="285.871" width="95.555" height="33.5756" rx="4.70058" stroke="#668494" stroke-width="1.34302"/>
</g>
<text fill="#1A1A1A" style="white-space: pre" xml:space="preserve" font-family="Helvetica-Neue" font-size="17.4593" letter-spacing="0px"><tspan x="220" y="273.753">Outlier</tspan></text>
</g>
</g>
<rect x="213.5" y="246.5" width="113" height="319" rx="4.5" stroke="#B3C2C9"/>
<rect x="24.5" y="631.5" width="1391" height="164" rx="4.5" stroke="#B3C2C9"/>
<rect x="24" y="763" width="1392" height="32" fill="white"/>
<rect x="24" y="731" width="1392" height="32" fill="#FAFBFB"/>
<rect x="24" y="631" width="1392" height="67" fill="#E6EBED"/>
<text fill="black" style="white-space: pre" xml:space="preserve" font-family="Helvetica Neue" font-size="13.4448" letter-spacing="0px"><tspan x="111" y="785.481">These combinations are unusual - Account, Department, Location, Amount</tspan></text>
<rect x="24" y="698" width="1392" height="1" fill="#CCD6DB"/>
<rect x="24" y="699" width="1392" height="31" fill="white"/>
<rect x="24" y="730" width="1392" height="1" fill="#D9E0E4"/>
<rect x="24" y="762" width="1392" height="1" fill="#D9E0E4"/>
<text fill="black" style="white-space: pre" xml:space="preserve" font-family="Helvetica Neue" font-size="13.4448" letter-spacing="0px"><tspan x="171.008" y="719.989">100.99--Bank of America 2&#10;</tspan><tspan x="171.008" y="752.05">4000--Sales</tspan></text>
<text fill="black" style="white-space: pre" xml:space="preserve" font-family="Helvetica Neue" font-size="13.4448" letter-spacing="0px"><tspan x="68" y="719.989">1&#10;</tspan><tspan x="68" y="752.05">2</tspan></text>
<text fill="#1A1A1A" style="white-space: pre" xml:space="preserve" font-family="Font Awesome 5 Pro" font-size="18.6159" font-weight="900" letter-spacing="0px"><tspan x="112.278" y="724.113">exclamation-circle</tspan></text>
<text fill="#1A1A1A" style="white-space: pre" xml:space="preserve" font-family="Font Awesome 5 Pro" font-size="18.6159" font-weight="900" letter-spacing="0px"><tspan x="112.278" y="755.875">exclamation-circle</tspan></text>
<text fill="#1A1A1A" style="white-space: pre" xml:space="preserve" font-family="Helvetica-Neue" font-size="17.5166" letter-spacing="0px"><tspan x="96" y="685.445">Outlier</tspan></text>
<text fill="#1A1A1A" style="white-space: pre" xml:space="preserve" font-family="Helvetica-Neue" font-size="17.5166" letter-spacing="0px"><tspan x="170" y="685.445">Account</tspan></text>
<text fill="black" style="white-space: pre" xml:space="preserve" font-family="Helvetica Neue" font-size="13.4448" letter-spacing="0px"><tspan x="367.004" y="719.989">11-Accounting&#10;</tspan><tspan x="367.004" y="752.05">11-Accounting</tspan></text>
<text fill="#1A1A1A" style="white-space: pre" xml:space="preserve" font-family="Helvetica-Neue" font-size="17.5166" letter-spacing="0px"><tspan x="366" y="685.445">Department</tspan></text>
<text fill="#1A1A1A" style="white-space: pre" xml:space="preserve" font-family="Helvetica-Neue" font-size="17.5166" letter-spacing="0px"><tspan x="28.1958" y="786.402">Total</tspan></text>
<path d="M89 631L89 763" stroke="#CCD6DB" stroke-width="1.00547" stroke-linejoin="round"/>
<path d="M159 631L159 763" stroke="#CCD6DB" stroke-width="1.00547" stroke-linejoin="round"/>
<path d="M350 631L350 763" stroke="#CCD6DB" stroke-width="1.00547" stroke-linejoin="round"/>
<text fill="black" style="white-space: pre" xml:space="preserve" font-family="Helvetica Neue" font-size="13.4448" letter-spacing="0px"><tspan x="554" y="720.481">1-USA&#10;</tspan><tspan x="554" y="752.542">1-USA</tspan></text>
<text fill="#1A1A1A" style="white-space: pre" xml:space="preserve" font-family="Helvetica-Neue" font-size="17.5166" letter-spacing="0px"><tspan x="553" y="685.445">Location</tspan></text>
<path d="M632 631L632 763" stroke="#CCD6DB" stroke-width="1.00547" stroke-linejoin="round"/>
<path d="M477 631L477 763" stroke="#CCD6DB" stroke-width="1.00547" stroke-linejoin="round"/>
<text fill="black" style="white-space: pre" xml:space="preserve" font-family="Helvetica Neue" font-size="13.4448" letter-spacing="0px"><tspan x="486.008" y="719.989">--&#10;</tspan><tspan x="486.008" y="752.05">--</tspan></text>
<text fill="#1A1A1A" style="white-space: pre" xml:space="preserve" font-family="Helvetica-Neue" font-size="17.5166" letter-spacing="0px"><tspan x="485" y="658.48">Shil&#10;</tspan><tspan x="485" y="684.754">Dim</tspan></text>
<path d="M535 631L535 763" stroke="#CCD6DB" stroke-width="1.00547" stroke-linejoin="round"/>
<path d="M728 631L728 763" stroke="#CCD6DB" stroke-width="1.00547" stroke-linejoin="round"/>
<text fill="#1A1A1A" style="white-space: pre" xml:space="preserve" font-family="Helvetica-Neue" font-size="17.5166" letter-spacing="0px"><tspan x="642.312" y="658.48">Txn &#10;</tspan><tspan x="642.312" y="684.754">currency</tspan></text>
<text fill="black" style="white-space: pre" xml:space="preserve" font-family="Helvetica Neue" font-size="13.4448" letter-spacing="0px"><tspan x="643.316" y="719.989">USD&#10;</tspan><tspan x="643.316" y="752.05">USD</tspan></text>
<path d="M851 631L851 763" stroke="#CCD6DB" stroke-width="1.00547" stroke-linejoin="round"/>
<text fill="black" style="white-space: pre" xml:space="preserve" font-family="Helvetica Neue" font-size="13.4448" letter-spacing="0px"><tspan x="807.275" y="719.989">1.00&#10;</tspan><tspan x="822.978" y="752.05">--</tspan></text>
<text fill="#1A1A1A" style="white-space: pre" xml:space="preserve" font-family="Helvetica-Neue" font-size="17.5166" letter-spacing="0px"><tspan x="739.804" y="659.527">Transaction </tspan><tspan x="792.371" y="685.802">debit</tspan></text>
<path d="M1094 631L1094 763" stroke="#CCD6DB" stroke-width="1.00547" stroke-linejoin="round"/>
<text fill="black" style="white-space: pre" xml:space="preserve" font-family="Helvetica Neue" font-size="13.4448" letter-spacing="0px"><tspan x="1045.28" y="719.989">1.00&#10;</tspan><tspan x="1060.98" y="752.05">--</tspan></text>
<text fill="#1A1A1A" style="white-space: pre" xml:space="preserve" font-family="Helvetica-Neue" font-size="17.5166" letter-spacing="0px"><tspan x="984.613" y="659.527">Base debit&#10;</tspan><tspan x="1025.19" y="685.802">(USD)</tspan></text>
<path d="M1210 631L1210 763" stroke="#CCD6DB" stroke-width="1.00547" stroke-linejoin="round"/>
<text fill="black" style="white-space: pre" xml:space="preserve" font-family="Helvetica Neue" font-size="13.4448" letter-spacing="0px"><tspan x="1184.98" y="719.989">--&#10;</tspan><tspan x="1169.28" y="752.05">1.00</tspan></text>
<text fill="#1A1A1A" style="white-space: pre" xml:space="preserve" font-family="Helvetica-Neue" font-size="17.5166" letter-spacing="0px"><tspan x="1103.74" y="659.527">Base credit&#10;</tspan><tspan x="1149.19" y="685.802">(USD)</tspan></text>
<path d="M1316.34 631L1316.34 763" stroke="#CCD6DB" stroke-width="1.00547" stroke-linejoin="round"/>
<text fill="black" style="white-space: pre" xml:space="preserve" font-family="Helvetica Neue" font-size="13.4448" letter-spacing="0px"><tspan x="1290.98" y="719.989">--&#10;</tspan><tspan x="1275.28" y="752.05">1.00</tspan></text>
<text fill="#1A1A1A" style="white-space: pre" xml:space="preserve" font-family="Helvetica-Neue" font-size="17.5166" letter-spacing="0px"><tspan x="1221.1" y="686.508">Allocation</tspan></text>
<text fill="black" style="white-space: pre" xml:space="preserve" font-family="Helvetica Neue" font-size="13.4448" letter-spacing="0px"><tspan x="1348.34" y="719.989">Entry 1&#10;</tspan><tspan x="1348.34" y="752.05">Entry 2</tspan></text>
<text fill="#1A1A1A" style="white-space: pre" xml:space="preserve" font-family="Helvetica-Neue" font-size="17.5166" letter-spacing="0px"><tspan x="1339.66" y="686.508">Memo</tspan></text>
<path d="M972 631L972 763" stroke="#CCD6DB" stroke-width="1.00547" stroke-linejoin="round"/>
<text fill="black" style="white-space: pre" xml:space="preserve" font-family="Helvetica Neue" font-size="13.4448" letter-spacing="0px"><tspan x="943.978" y="719.989">--&#10;</tspan><tspan x="928.275" y="752.05">1.00</tspan></text>
<text fill="#1A1A1A" style="white-space: pre" xml:space="preserve" font-family="Helvetica-Neue" font-size="17.5166" letter-spacing="0px"><tspan x="860.804" y="659.527">Transaction </tspan><tspan x="908.496" y="685.802">credit</tspan></text>
</g>
<defs>
<radialGradient id="paint0_radial_6206_44678" cx="0" cy="0" r="1" gradientTransform="matrix(10.5 9.5 -7.88115 9.9214 1295.5 28)" gradientUnits="userSpaceOnUse">
<stop offset="0.341666" stop-color="#9D60FF"/>
<stop offset="0.72" stop-color="#00D6DE"/>
<stop offset="0.896666" stop-color="#00D639"/>
</radialGradient>
<linearGradient id="paint1_linear_6206_44678" x1="1282.5" y1="53.9995" x2="1294.47" y2="25.5347" gradientUnits="userSpaceOnUse">
<stop stop-color="#00D639"/>
<stop offset="0.4" stop-color="#00D6DE"/>
<stop offset="0.9" stop-color="#9D60FF"/>
</linearGradient>
<clipPath id="clip0_6206_44678">
<rect width="1440" height="920" rx="20" fill="white"/>
</clipPath>
<clipPath id="clip1_6206_44678">
<rect width="1440" height="69.3333" fill="white"/>
</clipPath>
<clipPath id="clip2_6206_44678">
<rect width="333.333" height="53.3333" fill="white" transform="translate(130.667 66.833)"/>
</clipPath>
<clipPath id="clip3_6206_44678">
<rect x="1169" y="77" width="81" height="32" rx="4" fill="white"/>
</clipPath>
<clipPath id="clip4_6206_44678">
<rect x="1260" y="77" width="67" height="32" rx="4" fill="white"/>
</clipPath>
<clipPath id="clip5_6206_44678">
<rect x="1337" y="77" width="75" height="32" rx="4" fill="white"/>
</clipPath>
<clipPath id="clip6_6206_44678">
<rect x="979" y="77" width="83" height="32" rx="4" fill="white"/>
</clipPath>
<clipPath id="clip7_6206_44678">
<rect x="1072" y="77" width="87" height="32" rx="4" fill="white"/>
</clipPath>
<clipPath id="clip8_6206_44678">
<rect x="24" y="245" width="1392" height="321" rx="5" fill="white"/>
</clipPath>
<clipPath id="clip9_6206_44678">
<rect width="1392" height="223" fill="white" transform="translate(24 342)"/>
</clipPath>
<clipPath id="clip10_6206_44678">
<rect width="1369.14" height="221.858" fill="white" transform="translate(46.8555 343.142)"/>
</clipPath>
<clipPath id="clip11_6206_44678">
<rect width="60.819" height="356.667" fill="white" transform="matrix(-1 0 0 1 68.8203 305.918)"/>
</clipPath>
<clipPath id="clip12_6206_44678">
<rect width="60.819" height="319.557" fill="white" transform="matrix(-1 0 0 1 68.8203 343.028)"/>
</clipPath>
<clipPath id="clip13_6206_44678">
<rect width="60.819" height="1149.38" fill="white" transform="matrix(-1 0 0 1 68.8203 343.028)"/>
</clipPath>
<clipPath id="clip14_6206_44678">
<rect width="40.2024" height="1149.38" fill="white" transform="matrix(-1 0 0 1 56.4502 343.028)"/>
</clipPath>
<clipPath id="clip15_6206_44678">
<rect width="1392" height="97" fill="white" transform="translate(24 245)"/>
</clipPath>
<clipPath id="clip16_6206_44678">
<rect x="219.566" y="285.199" width="96.898" height="34.9186" rx="5.37209" fill="white"/>
</clipPath>
<clipPath id="clip17_6206_44678">
<rect x="219.566" y="285.199" width="96.898" height="34.9186" rx="5.37209" fill="white"/>
</clipPath>
<clipPath id="clip18_6206_44678">
<rect x="39" y="285.199" width="96.898" height="34.9186" rx="5.37209" fill="white"/>
</clipPath>
<clipPath id="clip19_6206_44678">
<rect x="39" y="285.199" width="96.898" height="34.9186" rx="5.37209" fill="white"/>
</clipPath>
<clipPath id="clip20_6206_44678">
<rect x="860.488" y="285.379" width="34" height="34.9186" rx="5.37209" fill="white"/>
</clipPath>
<clipPath id="clip21_6206_44678">
<rect x="860.488" y="285.379" width="34" height="34.9186" rx="5.37209" fill="white"/>
</clipPath>
<clipPath id="clip22_6206_44678">
<rect x="333.988" y="285.199" width="89" height="34.9186" rx="5.37209" fill="white"/>
</clipPath>
<clipPath id="clip23_6206_44678">
<rect x="333.988" y="285.199" width="89" height="34.9186" rx="5.37209" fill="white"/>
</clipPath>
<clipPath id="clip24_6206_44678">
<rect x="919.582" y="285.379" width="104" height="34.9186" rx="5.37209" fill="white"/>
</clipPath>
<clipPath id="clip25_6206_44678">
<rect x="919.582" y="285.379" width="104" height="34.9186" rx="5.37209" fill="white"/>
</clipPath>
<clipPath id="clip26_6206_44678">
<rect x="1252.49" y="285.199" width="144.316" height="34.9186" rx="5.37209" fill="white"/>
</clipPath>
<clipPath id="clip27_6206_44678">
<rect x="1252.49" y="285.199" width="144.316" height="34.9186" rx="5.37209" fill="white"/>
</clipPath>
<clipPath id="clip28_6206_44678">
<rect x="472" y="285.199" width="101" height="34.9186" rx="5.37209" fill="white"/>
</clipPath>
<clipPath id="clip29_6206_44678">
<rect x="472" y="285.199" width="101" height="34.9186" rx="5.37209" fill="white"/>
</clipPath>
<clipPath id="clip30_6206_44678">
<rect x="600" y="285.199" width="76" height="34.9186" rx="5.37209" fill="white"/>
</clipPath>
<clipPath id="clip31_6206_44678">
<rect x="600" y="285.199" width="76" height="34.9186" rx="5.37209" fill="white"/>
</clipPath>
<clipPath id="clip32_6206_44678">
<rect x="1043.77" y="285.379" width="182" height="34.9186" rx="5.37209" fill="white"/>
</clipPath>
<clipPath id="clip33_6206_44678">
<rect x="1043.77" y="285.379" width="182" height="34.9186" rx="5.37209" fill="white"/>
</clipPath>
<clipPath id="clip34_6206_44678">
<rect x="213" y="246" width="114" height="320" rx="5" fill="white"/>
</clipPath>
<clipPath id="clip35_6206_44678">
<rect width="1392" height="223" fill="white" transform="translate(23 342)"/>
</clipPath>
<clipPath id="clip36_6206_44678">
<rect width="1369.14" height="221.858" fill="white" transform="translate(45.8555 343.142)"/>
</clipPath>
<clipPath id="clip37_6206_44678">
<rect width="1392" height="97" fill="white" transform="translate(213 246)"/>
</clipPath>
<clipPath id="clip38_6206_44678">
<rect x="219" y="285.199" width="96.898" height="34.9186" rx="5.37209" fill="white"/>
</clipPath>
<clipPath id="clip39_6206_44678">
<rect x="219" y="285.199" width="96.898" height="34.9186" rx="5.37209" fill="white"/>
</clipPath>
</defs>
</svg>
