<svg width="1440" height="920" viewBox="0 0 1440 920" fill="none" xmlns="http://www.w3.org/2000/svg">
<g clip-path="url(#clip0_6206_50909)">
<rect width="1440" height="920" rx="20" fill="#D9E0E4"/>
<rect width="1440" height="800" transform="translate(0 120)" fill="#F2F5F6"/>
<rect width="1440" height="800" transform="translate(0 120)" fill="#F2F5F6"/>
<g clip-path="url(#clip1_6206_50909)">
<rect width="1440" height="69.3333" fill="black"/>
</g>
<line y1="68.6668" x2="1440" y2="68.6668" stroke="#D9E0E4" stroke-width="1.33333"/>
<path fill-rule="evenodd" clip-rule="evenodd" d="M38.407 21.8499C38.3184 17.282 34.3793 14 29.5459 14C24.7076 14 21 17.5486 21 22.0721C21 27.0835 24.5726 28.9027 28.8683 30.4138C32.7118 31.7452 34.5655 32.9422 34.5655 35.7808C34.5655 38.0869 32.7118 39.9941 29.9084 39.9941C27.24 39.9941 24.8888 38.1758 24.8888 35.3373C24.8888 34.4213 25.141 33.9003 25.3564 33.4554C25.5169 33.1236 25.6571 32.834 25.6571 32.4543C25.6571 31.4301 24.9341 30.6766 23.758 30.6766C22.4017 30.6766 21 32.6726 21 35.5111C21 40.079 25.0278 43.4499 29.9084 43.4479C34.8817 43.4479 38.4544 39.8548 38.4544 35.3758C38.4544 30.2311 34.7015 28.5007 30.5861 27.037C26.7396 25.6642 24.8888 24.4691 24.8868 21.762C24.8868 19.278 26.8806 17.4598 29.4986 17.4598C32.3029 17.4598 34.5182 19.3709 34.5635 21.9388C34.6088 23.1368 35.4678 23.8459 36.4626 23.8459C37.5008 23.8459 38.4524 23.1338 38.407 21.8499ZM40.3262 34.7121C40.3262 39.5911 44.3963 43.4499 49.28 43.4499C51.45 43.4499 53.1235 42.7397 53.1235 41.3649C53.1235 40.3447 52.2193 39.6355 51.3603 39.6355C51.0827 39.6355 50.8399 39.6866 50.5672 39.7439C50.2177 39.8174 49.8189 39.9012 49.2347 39.9012C46.4303 39.9012 44.2151 37.5062 44.2151 34.7121C44.2151 31.6968 46.4767 29.3462 49.3253 29.3462C52.5354 29.3462 54.5705 31.7412 54.5705 35.2444V41.5872C54.5705 42.6953 55.4747 43.4499 56.5602 43.4499C57.5984 43.4499 58.5046 42.6953 58.5046 41.5872V35.1111C58.5046 29.7896 54.7527 25.8864 49.4159 25.8864C44.4416 25.8864 40.3262 29.6563 40.3262 34.7121ZM69.6465 56.6667C64.5815 56.6667 60.3765 53.118 60.3765 48.5057C60.3765 46.9531 61.2828 46.2439 62.321 46.2439C63.3591 46.2439 64.22 46.9096 64.2654 48.1955C64.3107 51.0785 66.6619 53.2069 69.6022 53.2069C72.7237 53.2069 74.7567 51.2553 74.7567 48.7279C74.7567 45.8449 72.4961 44.6469 68.6526 43.4499C64.1757 42.0306 60.3776 40.079 60.3776 34.6676C60.3776 29.7007 64.2664 25.8864 69.3313 25.8864C74.4405 25.8864 78.6455 29.5229 78.6455 34.3131C78.6455 37.2405 77.4251 39.5022 75.7516 39.5022C74.6218 39.5022 73.8525 38.7042 73.8525 37.7244C73.8525 37.2875 74.0187 36.9564 74.2088 36.5777C74.4625 36.0722 74.7587 35.482 74.7587 34.4425C74.7587 31.3807 72.3179 29.3422 69.3786 29.3422C66.529 29.3422 64.2684 31.4706 64.2684 34.2647C64.2684 37.4143 66.5743 38.7447 70.3735 39.9862C74.7587 41.4054 78.6475 43.1793 78.6475 48.3684C78.6475 53.0262 74.8947 56.6647 69.6495 56.6647L69.6465 56.6667ZM80.5175 34.6677C80.5175 39.5467 84.6772 43.4499 89.7421 43.4499H89.7451C92.2776 43.4499 94.3126 42.7842 95.669 41.9418C97.0253 41.0993 97.5681 40.3892 97.5681 39.5911C97.5681 38.7487 96.9317 37.9941 95.7556 37.9941C95.2093 37.9941 94.7043 38.2973 94.088 38.6673C93.1228 39.2468 91.8847 39.9902 89.7874 39.9902C89.0767 39.991 88.3729 39.8535 87.7167 39.5858C87.0605 39.3181 86.4649 38.9253 85.9645 38.4303C85.464 37.9354 85.0686 37.3479 84.8012 36.7021C84.5337 36.0562 84.3995 35.3648 84.4063 34.6677C84.4063 31.7413 86.7575 29.3018 89.6515 29.3018C92.772 29.3018 94.4445 31.2998 94.4445 32.5837C94.4445 32.9383 94.1736 33.1161 93.8111 33.1161H89.9223C88.8791 33.1161 88.1098 33.8232 88.1098 34.7121C88.1098 35.6435 88.8832 36.3536 89.9223 36.3536H95.1232C97.1129 36.3536 98.3333 35.3334 98.3333 33.6484C98.3333 29.3018 94.5351 25.8865 89.5155 25.8865C88.3361 25.8809 87.1672 26.1038 86.0759 26.5426C84.9846 26.9814 83.9923 27.6273 83.1563 28.4432C82.3202 29.2592 81.6567 30.2291 81.2038 31.2973C80.751 32.3654 80.5177 33.5108 80.5175 34.6677Z" fill="#00D639"/>
<line x1="120.331" y1="14" x2="120.331" y2="56.6667" stroke="#5E5E5E" stroke-width="1.33333"/>
<text fill="white" fill-opacity="0.9" style="white-space: pre" xml:space="preserve" font-family="Sage UI" font-size="24" font-weight="500" letter-spacing="0px"><tspan x="139" y="42.8">Intacct</tspan></text>
<path d="M1305.38 34.1L1303.27 34.75C1302.52 34.98 1301.94 35.57 1301.71 36.31L1301.06 38.42C1300.68 39.67 1298.91 39.67 1298.53 38.42L1297.88 36.31C1297.65 35.56 1297.06 34.98 1296.32 34.75L1294.21 34.1C1292.96 33.72 1292.96 31.95 1294.21 31.57L1296.32 30.92C1297.07 30.69 1297.65 30.1 1297.88 29.36L1298.53 27.25C1298.91 26 1300.68 26 1301.06 27.25L1301.71 29.36C1301.94 30.11 1302.53 30.69 1303.27 30.92L1305.38 31.57C1306.63 31.95 1306.63 33.72 1305.38 34.1Z" fill="url(#paint0_radial_6206_50909)"/>
<path d="M1280.62 15.79C1286.81 15.79 1291.85 20.07 1291.96 26.03C1292.02 27.71 1290.8 28.63 1289.47 28.63C1288.14 28.63 1287.1 27.7 1287.04 26.14C1286.98 22.78 1284.15 20.29 1280.56 20.29C1277.2 20.29 1274.66 22.66 1274.66 25.9C1274.66 29.43 1277.03 30.99 1281.95 32.79C1287.22 34.7 1292.02 36.96 1292.02 43.67C1292.02 49.52 1287.45 54.2 1281.08 54.2C1274.71 54.2 1269.68 49.8 1269.68 43.84C1269.68 40.14 1271.47 37.53 1273.21 37.53C1274.72 37.53 1275.64 38.51 1275.64 39.84C1275.64 41 1274.66 41.52 1274.66 43.6C1274.66 47.3 1277.67 49.68 1281.08 49.68C1284.67 49.68 1287.04 47.19 1287.04 44.18C1287.04 40.48 1284.67 38.91 1279.75 37.18C1274.25 35.21 1269.68 32.84 1269.68 26.3C1269.68 20.4 1274.42 15.77 1280.62 15.77V15.79Z" fill="url(#paint1_linear_6206_50909)"/>
<text fill="white" fill-opacity="0.9" style="white-space: pre" xml:space="preserve" font-family="Sage UI" font-size="24" font-weight="500" letter-spacing="0px"><tspan x="1316" y="43.3">Copilot</tspan></text>
<rect width="1440" height="53" transform="translate(0 67)" fill="white"/>
<rect width="65.3333" height="53.3333" transform="translate(0 66.8335)" fill="white"/>
<text fill="black" style="white-space: pre" xml:space="preserve" font-family="Font Awesome 5 Pro" font-size="21.3333" font-weight="900" letter-spacing="0px"><tspan x="20" y="101.167">&#xf005;</tspan></text>
<path d="M64.6667 67.5002V119.532" stroke="#595959" stroke-width="1.33333" stroke-linecap="square"/>
<rect width="65.3333" height="53.3333" transform="translate(65.333 66.8335)" fill="white"/>
<text fill="black" style="white-space: pre" xml:space="preserve" font-family="Font Awesome 5 Pro" font-size="21.3333" font-weight="900" letter-spacing="0px"><tspan x="85.333" y="101.167">&#xf015;</tspan></text>
<path d="M130 67.5002V119.532" stroke="#595959" stroke-width="1.33333" stroke-linecap="square"/>
<g clip-path="url(#clip2_6206_50909)">
<rect width="333.333" height="53.3333" transform="translate(130.667 66.8335)" fill="white"/>
<text fill="#00141E" style="white-space: pre" xml:space="preserve" font-family="Sage UI" font-size="18" font-weight="500" letter-spacing="0px"><tspan x="157.334" y="100.466">Purchasing</tspan></text>
<text fill="black" style="white-space: pre" xml:space="preserve" font-family="Font Awesome 5 Pro" font-size="18.6667" letter-spacing="0px"><tspan x="424.168" y="100.333">&#xf107;</tspan></text>
<path d="M463.334 67.5002V119.532" stroke="#595959" stroke-width="1.33333" stroke-linecap="square"/>
</g>
<path d="M26.3466 171.5C27.0904 171.5 27.6933 170.963 27.6933 170.3C27.6933 169.637 27.0904 169.1 26.3466 169.1C25.6029 169.1 25 169.637 25 170.3C25 170.963 25.6029 171.5 26.3466 171.5ZM30.3865 161.5H42.0574C42.4165 161.5 42.6858 161.34 42.8653 161.1C43.0449 160.86 43.0449 160.54 42.8653 160.3C42.6858 160.06 42.4165 159.9 42.0574 159.9H30.3865C30.0274 159.9 29.7581 160.06 29.5786 160.3C29.399 160.54 29.399 160.86 29.5786 161.1C29.7581 161.34 30.0274 161.5 30.3865 161.5ZM26.3466 166.7C27.0904 166.7 27.6933 166.163 27.6933 165.5C27.6933 164.837 27.0904 164.3 26.3466 164.3C25.6029 164.3 25 164.837 25 165.5C25 166.163 25.6029 166.7 26.3466 166.7ZM42.0574 169.5H30.3865C30.0274 169.5 29.7581 169.66 29.5786 169.9C29.399 170.14 29.399 170.46 29.5786 170.7C29.7581 170.94 30.0274 171.1 30.3865 171.1H42.0574C42.4165 171.1 42.6858 170.94 42.8653 170.7C43.0449 170.46 43.0449 170.14 42.8653 169.9C42.6858 169.66 42.4165 169.5 42.0574 169.5ZM26.3466 161.9C27.0904 161.9 27.6933 161.363 27.6933 160.7C27.6933 160.037 27.0904 159.5 26.3466 159.5C25.6029 159.5 25 160.037 25 160.7C25 161.363 25.6029 161.9 26.3466 161.9ZM42.0574 164.7H30.3865C30.0274 164.7 29.7581 164.86 29.5786 165.1C29.399 165.34 29.399 165.66 29.5786 165.9C29.7581 166.14 30.0274 166.3 30.3865 166.3H42.0574C42.4165 166.3 42.6858 166.14 42.8653 165.9C43.0449 165.66 43.0449 165.34 42.8653 165.1C42.6858 164.86 42.4165 164.7 42.0574 164.7Z" fill="#008146"/>
<path d="M58.5 146V185.024" stroke="white" stroke-linecap="square"/>
<text fill="#00141E" style="white-space: pre" xml:space="preserve" font-family="Sage UI" font-size="34" font-weight="500" letter-spacing="0px"><tspan x="59" y="178.658">Vendor Invoice</tspan></text>
<rect x="1030" y="150" width="161" height="32" rx="4" fill="#008146"/>
<text fill="white" style="white-space: pre" xml:space="preserve" font-family="Sage UI" font-size="14" font-weight="500" letter-spacing="0px"><tspan x="1046.47" y="171.418">Create transactions</tspan></text>
<rect x="1201.5" y="150.5" width="64" height="31" rx="3.5" stroke="#007E45"/>
<text fill="#008146" style="white-space: pre" xml:space="preserve" font-family="Sage UI" font-size="14" font-weight="bold" letter-spacing="0px"><tspan x="1217.32" y="171.418">Save</tspan></text>
<rect x="1276.5" y="152.5" width="139" height="27" rx="3.5" stroke="#007E45"/>
<text fill="#008146" style="white-space: pre" xml:space="preserve" font-family="Sage UI" font-size="14" font-weight="bold" letter-spacing="0px"><tspan x="1292.06" y="171.418">More Actions</tspan></text>
<path d="M1398.68 162.494C1398.57 162.497 1398.46 162.545 1398.38 162.628L1393 168.006L1387.62 162.628C1387.58 162.586 1387.53 162.553 1387.48 162.53C1387.43 162.507 1387.37 162.495 1387.31 162.495C1387.22 162.496 1387.14 162.522 1387.06 162.57C1386.99 162.619 1386.94 162.688 1386.9 162.769C1386.87 162.849 1386.86 162.938 1386.88 163.023C1386.9 163.108 1386.94 163.186 1387 163.247L1392.69 168.934C1392.77 169.016 1392.88 169.062 1393 169.062C1393.12 169.062 1393.23 169.016 1393.31 168.934L1399 163.247C1399.06 163.186 1399.1 163.107 1399.12 163.021C1399.14 162.934 1399.13 162.845 1399.1 162.763C1399.06 162.682 1399.01 162.612 1398.93 162.564C1398.86 162.516 1398.77 162.492 1398.68 162.494Z" fill="#008A21"/>
<g clip-path="url(#clip3_6206_50909)">
<g clip-path="url(#clip4_6206_50909)">
<rect x="24" y="210" width="32" height="47" fill="#008A21"/>
<path d="M34 233L32 235L37 240L48 229L46 227L37 236L34 233Z" fill="white"/>
</g>
<rect width="1360" height="48" transform="translate(56 210)" fill="white"/>
<text fill="black" fill-opacity="0.9" style="white-space: pre" xml:space="preserve" font-family="Sage Text" font-size="16" font-weight="bold" letter-spacing="0px"><tspan x="80" y="240.192">Transaction are fully matched</tspan></text>
</g>
<rect x="24.5" y="210.5" width="1391" height="47" rx="7.5" stroke="#008A21"/>
<rect x="24.5" y="282.5" width="901" height="143" rx="3.5" fill="white" stroke="#B3C2C9"/>
<text fill="#1A1A1A" style="white-space: pre" xml:space="preserve" font-family="Helvetica-Neue" font-size="17.018" letter-spacing="0px"><tspan x="78" y="314.918">Target Entry</tspan></text>
<path d="M40 325H910" stroke="#CCD6DB"/>
<text fill="#1A1A1A" style="white-space: pre" xml:space="preserve" font-family="Font Awesome 5 Pro" font-size="20" letter-spacing="0px"><tspan x="53.25" y="317.105">angle-down</tspan></text>
<text fill="#1A1A1A" style="white-space: pre" xml:space="preserve" font-family="Sage UI" font-size="17" letter-spacing="0px"><tspan x="103.055" y="363.673">Vendor</tspan></text>
<text fill="#1A1A1A" style="white-space: pre" xml:space="preserve" font-family="Sage UI" font-size="17" font-weight="500" letter-spacing="0px"><tspan x="48.0547" y="394.673">ABC Office Suppliers</tspan></text>
<line x1="245.105" y1="345" x2="245.105" y2="401" stroke="#CCD6DB"/>
<text fill="#1A1A1A" style="white-space: pre" xml:space="preserve" font-family="Sage UI" font-size="17" letter-spacing="0px"><tspan x="278.156" y="363.673">Pruchase Order</tspan></text>
<text fill="#1A1A1A" style="white-space: pre" xml:space="preserve" font-family="Sage UI" font-size="17" font-weight="500" letter-spacing="0px"><tspan x="291.156" y="394.673">PO-003499</tspan></text>
<line x1="428.207" y1="345" x2="428.207" y2="401" stroke="#CCD6DB"/>
<text fill="#1A1A1A" style="white-space: pre" xml:space="preserve" font-family="Sage UI" font-size="17" letter-spacing="0px"><tspan x="465.258" y="363.673">Total amount</tspan></text>
<text fill="#1A1A1A" style="white-space: pre" xml:space="preserve" font-family="Sage UI" font-size="17" font-weight="500" letter-spacing="0px"><tspan x="461.258" y="394.673">USD 4,622.50</tspan></text>
<line x1="602.309" y1="345" x2="602.309" y2="401" stroke="#CCD6DB"/>
<text fill="#1A1A1A" style="white-space: pre" xml:space="preserve" font-family="Sage UI" font-size="17" letter-spacing="0px"><tspan x="649.359" y="363.673">Date due</tspan></text>
<text fill="#1A1A1A" style="white-space: pre" xml:space="preserve" font-family="Sage UI" font-size="17" font-weight="500" letter-spacing="0px"><tspan x="635.359" y="394.673">05/15/2023</tspan></text>
<line x1="765.41" y1="345" x2="765.41" y2="401" stroke="#CCD6DB"/>
<text fill="#1A1A1A" style="white-space: pre" xml:space="preserve" font-family="Sage UI" font-size="17" letter-spacing="0px"><tspan x="805.707" y="363.673">Attachment</tspan></text>
<text fill="#008146" style="white-space: pre" xml:space="preserve" font-family="Sage UI" font-size="17" font-weight="500" letter-spacing="0px" text-decoration="underline"><tspan x="798.461" y="394.673">TMP82778</tspan></text>
<path d="M896.604 381.641C895.631 381.641 894.659 382.01 893.92 382.749L886.987 389.682C886.937 389.729 886.898 389.786 886.87 389.849C886.843 389.912 886.829 389.98 886.828 390.048C886.827 390.117 886.84 390.185 886.866 390.249C886.892 390.312 886.931 390.37 886.979 390.418C887.028 390.467 887.085 390.505 887.149 390.531C887.212 390.557 887.28 390.57 887.349 390.569C887.417 390.568 887.485 390.554 887.548 390.527C887.611 390.5 887.668 390.46 887.715 390.411L894.649 383.477C895.733 382.393 897.475 382.393 898.559 383.477C899.643 384.561 899.643 386.303 898.559 387.387L892.015 393.931C891.453 394.493 890.557 394.493 889.995 393.931C889.433 393.369 889.433 392.473 889.995 391.911L895.275 386.631C895.324 386.584 895.364 386.527 895.391 386.464C895.418 386.401 895.433 386.333 895.433 386.264C895.434 386.196 895.421 386.128 895.395 386.064C895.369 386.001 895.331 385.943 895.282 385.895C895.234 385.846 895.176 385.808 895.113 385.782C895.049 385.756 894.981 385.743 894.913 385.744C894.844 385.744 894.776 385.759 894.713 385.786C894.65 385.813 894.594 385.853 894.546 385.902L889.266 391.182C888.31 392.138 888.31 393.704 889.266 394.66C890.222 395.616 891.788 395.616 892.744 394.66L899.287 388.116C900.765 386.638 900.765 384.227 899.287 382.749C898.548 382.01 897.576 381.641 896.604 381.641Z" fill="#008146"/>
<rect x="944.5" y="387.5" width="471" height="532" rx="3.5" fill="white" stroke="#B3C2C9"/>
<rect x="978" y="418.043" width="403.778" height="494.474" stroke="#F0F0F0" stroke-width="2"/>
<rect x="944.5" y="282.5" width="471" height="80" rx="3.5" fill="white" stroke="#B3C2C9"/>
<text fill="#1A1A1A" style="white-space: pre" xml:space="preserve" font-family="Sage UI" font-size="17" font-weight="500" letter-spacing="0px"><tspan x="960" y="313.673">TMP82778.pdf</tspan></text>
<text fill="#1A1A1A" style="white-space: pre" xml:space="preserve" font-family="Sage UI" font-size="17" letter-spacing="0px"><tspan x="960" y="344.673">Uploaded on 3-May-2023</tspan></text>
<g clip-path="url(#clip5_6206_50909)">
<rect x="24.5" y="450.5" width="901" height="496" rx="3.5" fill="white" stroke="#B3C2C9"/>
<rect x="40.5" y="504.5" width="143" height="31" rx="3.5" stroke="#007E45"/>
<text fill="#008146" style="white-space: pre" xml:space="preserve" font-family="Sage UI" font-size="14" font-weight="bold" letter-spacing="0px"><tspan x="56.1709" y="525.418">Add vendor lines</tspan></text>
<g clip-path="url(#clip6_6206_50909)">
<g clip-path="url(#clip7_6206_50909)">
<rect width="1777.15" height="35.0482" transform="translate(40 613.031)" fill="#E6EBED"/>
<rect x="40" y="648" width="870" height="1.03083" fill="#CCD6DB"/>
<g clip-path="url(#clip8_6206_50909)">
<rect x="40" y="649.031" width="1392" height="30.9249" fill="white"/>
<rect x="40" y="679.956" width="1392" height="1.03083" fill="#D9E0E4"/>
<rect x="40" y="680.986" width="1392" height="30.9249" fill="#FAFBFB"/>
<rect x="40" y="711.911" width="1392" height="1.03083" fill="#D9E0E4"/>
<rect x="40" y="712.942" width="1392" height="30.9249" fill="white"/>
<rect x="40" y="743.867" width="1392" height="1.03083" fill="#D9E0E4"/>
<rect x="40" y="744.898" width="1392" height="30.9249" fill="#FAFBFB"/>
<rect x="40" y="775.823" width="1392" height="1.03083" fill="#D9E0E4"/>
<rect x="40" y="776.854" width="1392" height="30.9249" fill="white"/>
<rect x="40" y="807.778" width="1392" height="1.03083" fill="#D9E0E4"/>
<rect x="40" y="808.81" width="1392" height="30.9249" fill="#FAFBFB"/>
<rect x="40" y="839.734" width="1392" height="1.03083" fill="#D9E0E4"/>
<rect x="40" y="840.765" width="1392" height="30.9249" fill="white"/>
<rect x="40" y="871.69" width="1392" height="1.03083" fill="#D9E0E4"/>
<rect x="40" y="872.721" width="1392" height="30.9249" fill="#FAFBFB"/>
<rect x="40" y="903.646" width="1392" height="1.03083" fill="#D9E0E4"/>
<rect x="40" y="904.677" width="1392" height="30.9249" fill="white"/>
</g>
<text fill="black" style="white-space: pre" xml:space="preserve" font-family="Helvetica Neue" font-size="13" letter-spacing="0px"><tspan x="212" y="670.803">CN001--G...&#x2028;</tspan><tspan x="212" y="702.803">CN002--E... </tspan><tspan x="212" y="734.803">CN003--C... &#x2028;</tspan><tspan x="212" y="766.803">CN004--M... </tspan><tspan x="212" y="798.803">CN005--W... </tspan><tspan x="212" y="830.803">CN006--T... </tspan><tspan x="212" y="862.803">CN007--O... </tspan><tspan x="212" y="894.803">CN008--F... </tspan><tspan x="212" y="926.803">CN009--S... </tspan><tspan x="212" y="958.803">CN010--F... </tspan><tspan x="212" y="990.803">CN012--F... </tspan><tspan x="212" y="1022.8">CN021--P... </tspan><tspan x="212" y="1054.8">CN023--H... </tspan><tspan x="212" y="1086.8">CN026--E... </tspan><tspan x="212" y="1118.8">CN028--S... </tspan><tspan x="212" y="1150.8">CN031--E... </tspan><tspan x="212" y="1182.8">CN033--U... </tspan></text>
<text fill="black" style="white-space: pre" xml:space="preserve" font-family="Helvetica Neue" font-size="13" letter-spacing="0px"><tspan x="334.16" y="667.803">Preconstruction and Ge...&#10;</tspan><tspan x="334.439" y="700.103">Existing Conditions and...&#10;</tspan><tspan x="429.781" y="732.403">Concrete&#10;</tspan><tspan x="432.676" y="764.703">Masonry&#10;</tspan><tspan x="332.256" y="797.003">Wood Plastics and Com...&#10;</tspan><tspan x="335.747" y="829.303">Thermal and Moisture P...&#10;</tspan><tspan x="427.141" y="861.604">Openings&#10;</tspan><tspan x="435.342" y="893.904">Finishes&#10;</tspan><tspan x="419.688" y="926.203">Specialties&#10;</tspan><tspan x="415.854" y="958.504">Furnishings&#10;</tspan><tspan x="385.233" y="990.803">Fire Suppression&#10;</tspan><tspan x="428.105" y="1023.1">Plumbing&#10;</tspan><tspan x="448.456" y="1055.4">HVAC&#10;</tspan><tspan x="426.43" y="1087.7">Electrical &#10;</tspan><tspan x="429.286" y="1120">Systems &#10;</tspan><tspan x="424.03" y="1152.3">Earthwork&#10;</tspan><tspan x="351.527" y="1184.6">Exterior Improvements</tspan></text>
<text fill="black" style="white-space: pre" xml:space="preserve" font-family="Helvetica Neue" font-size="13" letter-spacing="0px"><tspan x="491" y="667.803">170,000.00 </tspan><tspan x="491" y="699.803">1,900.00       &#10;</tspan><tspan x="491" y="732.834">255,000.00&#10;</tspan><tspan x="491" y="765.865">6,400.00 </tspan><tspan x="491" y="797.865">26,500.00 </tspan><tspan x="491" y="829.865">133,000.00</tspan><tspan x="491" y="861.865">118,000.0 </tspan><tspan x="491" y="893.865">36,500.00 </tspan><tspan x="491" y="925.865">7,850.00 </tspan><tspan x="491" y="957.865">17,000.00 </tspan><tspan x="491" y="989.865">42,300.00 </tspan><tspan x="491" y="1021.87">10,500.00 </tspan><tspan x="491" y="1053.87">9,650.00 </tspan><tspan x="491" y="1085.87">18,200.00 </tspan><tspan x="491" y="1117.87">5,000.00 </tspan><tspan x="491" y="1149.87">7,800.00 </tspan><tspan x="491" y="1181.87">378,000.00</tspan></text>
<text fill="black" style="white-space: pre" xml:space="preserve" font-family="Helvetica Neue" font-size="13" letter-spacing="0px"><tspan x="642.975" y="667.803">170,000.00 </tspan><tspan x="657.422" y="699.803">1,900.00&#10;</tspan><tspan x="642.975" y="732.834">255,000.00&#10;</tspan><tspan x="657.422" y="765.865">6,400.00 </tspan><tspan x="650.198" y="797.865">26,500.00 </tspan><tspan x="642.975" y="829.865">133,000.00</tspan><tspan x="650.198" y="861.865">118,000.0 </tspan><tspan x="650.198" y="893.865">36,500.00 </tspan><tspan x="650.198" y="925.865">33,850.00 </tspan><tspan x="650.198" y="957.865">17,000.00 </tspan><tspan x="650.198" y="989.865">42,300.00 </tspan><tspan x="650.198" y="1021.87">10,500.00 </tspan><tspan x="657.422" y="1053.87">9,650.00 </tspan><tspan x="650.198" y="1085.87">18,200.00 </tspan><tspan x="657.422" y="1117.87">5,000.00 </tspan><tspan x="657.422" y="1149.87">7,800.00 </tspan><tspan x="642.975" y="1181.87">378,000.00</tspan></text>
<text fill="black" style="white-space: pre" xml:space="preserve" font-family="Helvetica Neue" font-size="13" letter-spacing="0px"><tspan x="760.975" y="667.803">170,000.00 </tspan><tspan x="775.422" y="699.803">1,900.00&#10;</tspan><tspan x="760.975" y="732.834">255,000.00&#10;</tspan><tspan x="775.422" y="765.865">6,400.00 </tspan><tspan x="768.198" y="797.865">26,500.00 </tspan><tspan x="760.975" y="829.865">133,000.00</tspan><tspan x="768.198" y="861.865">118,000.0 </tspan><tspan x="768.198" y="893.865">36,500.00 </tspan><tspan x="768.198" y="925.865">33,850.00 </tspan><tspan x="768.198" y="957.865">17,000.00 </tspan><tspan x="768.198" y="989.865">42,300.00 </tspan><tspan x="768.198" y="1021.87">10,500.00 </tspan><tspan x="775.422" y="1053.87">9,650.00 </tspan><tspan x="768.198" y="1085.87">18,200.00 </tspan><tspan x="775.422" y="1117.87">5,000.00 </tspan><tspan x="775.422" y="1149.87">7,800.00 </tspan><tspan x="760.975" y="1181.87">378,000.00</tspan></text>
<text fill="black" style="white-space: pre" xml:space="preserve" font-family="Helvetica Neue" font-size="13" letter-spacing="0px"><tspan x="54" y="670.803">1 </tspan><tspan x="54" y="702.803">2 </tspan><tspan x="54" y="734.803">3 </tspan><tspan x="54" y="766.803">4 </tspan><tspan x="54" y="798.803">5 </tspan><tspan x="54" y="830.803">6 </tspan><tspan x="54" y="862.803">7 </tspan><tspan x="54" y="894.803">8 </tspan><tspan x="54" y="926.803">9 </tspan><tspan x="54" y="958.803">10 </tspan><tspan x="54" y="990.803">11</tspan><tspan x="54" y="1022.8">12 </tspan><tspan x="54" y="1054.8">13 </tspan><tspan x="54" y="1086.8">14 </tspan><tspan x="54" y="1118.8">15 </tspan><tspan x="54" y="1150.8">16 </tspan><tspan x="54" y="1182.8">17</tspan></text>
<rect x="82.5413" y="656.541" width="16.2385" height="16.2385" fill="white" stroke="#D1DADE" stroke-width="1.08257"/>
<path fill-rule="evenodd" clip-rule="evenodd" d="M87.2042 665.014C86.9318 664.786 86.4987 664.783 86.2269 664.999L85.4568 665.703C85.1811 665.922 85.1798 666.277 85.4452 666.502L88.0991 668.688C88.3689 668.917 88.8025 668.922 89.0773 668.706C89.0773 668.706 95.9048 662.98 95.9166 662.968C96.1286 662.757 96.1261 662.451 95.909 662.247C95.8952 662.234 95.1478 661.542 95.1478 661.542C94.8811 661.335 94.4372 661.34 94.1717 661.566L88.6481 666.29L87.2042 665.014Z" fill="#006362"/>
<rect x="82.5413" y="688.363" width="16.2385" height="16.2385" fill="white" stroke="#D1DADE" stroke-width="1.08257"/>
<path fill-rule="evenodd" clip-rule="evenodd" d="M87.2042 696.835C86.9318 696.607 86.4987 696.604 86.2269 696.821L85.4568 697.524C85.1811 697.743 85.1798 698.098 85.4452 698.323L88.0991 700.51C88.3689 700.739 88.8025 700.743 89.0773 700.527C89.0773 700.527 95.9048 694.801 95.9166 694.789C96.1286 694.578 96.1261 694.272 95.909 694.068C95.8952 694.055 95.1478 693.364 95.1478 693.364C94.8811 693.156 94.4372 693.162 94.1717 693.387L88.6481 698.111L87.2042 696.835Z" fill="#006362"/>
<rect x="82.5413" y="720.183" width="16.2385" height="16.2385" fill="white" stroke="#D1DADE" stroke-width="1.08257"/>
<path fill-rule="evenodd" clip-rule="evenodd" d="M87.2042 728.656C86.9318 728.428 86.4987 728.425 86.2269 728.641L85.4568 729.345C85.1811 729.564 85.1798 729.919 85.4452 730.144L88.0991 732.33C88.3689 732.56 88.8025 732.564 89.0773 732.348C89.0773 732.348 95.9048 726.622 95.9166 726.61C96.1286 726.399 96.1261 726.093 95.909 725.889C95.8952 725.876 95.1478 725.184 95.1478 725.184C94.8811 724.977 94.4372 724.982 94.1717 725.208L88.6481 729.932L87.2042 728.656Z" fill="#006362"/>
<rect x="82.5413" y="752.005" width="16.2385" height="16.2385" fill="white" stroke="#D1DADE" stroke-width="1.08257"/>
<path fill-rule="evenodd" clip-rule="evenodd" d="M87.2042 760.477C86.9318 760.249 86.4987 760.247 86.2269 760.463L85.4568 761.166C85.1811 761.386 85.1798 761.74 85.4452 761.966L88.0991 764.152C88.3689 764.381 88.8025 764.385 89.0773 764.169C89.0773 764.169 95.9048 758.443 95.9166 758.431C96.1286 758.22 96.1261 757.914 95.909 757.71C95.8952 757.697 95.1478 757.006 95.1478 757.006C94.8811 756.799 94.4372 756.804 94.1717 757.029L88.6481 761.753L87.2042 760.477Z" fill="#006362"/>
<rect x="82.5413" y="783.825" width="16.2385" height="16.2385" fill="white" stroke="#D1DADE" stroke-width="1.08257"/>
<path fill-rule="evenodd" clip-rule="evenodd" d="M87.2042 792.298C86.9318 792.07 86.4987 792.067 86.2269 792.284L85.4568 792.987C85.1811 793.206 85.1798 793.561 85.4452 793.786L88.0991 795.973C88.3689 796.202 88.8025 796.206 89.0773 795.99C89.0773 795.99 95.9048 790.264 95.9166 790.252C96.1286 790.041 96.1261 789.735 95.909 789.531C95.8952 789.518 95.1478 788.827 95.1478 788.827C94.8811 788.619 94.4372 788.624 94.1717 788.85L88.6481 793.574L87.2042 792.298Z" fill="#006362"/>
<rect x="82.5413" y="815.647" width="16.2385" height="16.2385" fill="white" stroke="#D1DADE" stroke-width="1.08257"/>
<path fill-rule="evenodd" clip-rule="evenodd" d="M87.2042 824.12C86.9318 823.891 86.4987 823.889 86.2269 824.105L85.4568 824.808C85.1811 825.028 85.1798 825.382 85.4452 825.608L88.0991 827.794C88.3689 828.023 88.8025 828.027 89.0773 827.811C89.0773 827.811 95.9048 822.085 95.9166 822.074C96.1286 821.862 96.1261 821.556 95.909 821.352C95.8952 821.339 95.1478 820.648 95.1478 820.648C94.8811 820.441 94.4372 820.446 94.1717 820.671L88.6481 825.395L87.2042 824.12Z" fill="#006362"/>
<rect x="82.5413" y="847.468" width="16.2385" height="16.2385" fill="white" stroke="#D1DADE" stroke-width="1.08257"/>
<path fill-rule="evenodd" clip-rule="evenodd" d="M87.2042 855.941C86.9318 855.713 86.4987 855.71 86.2269 855.926L85.4568 856.63C85.1811 856.849 85.1798 857.204 85.4452 857.429L88.0991 859.615C88.3689 859.844 88.8025 859.848 89.0773 859.633C89.0773 859.633 95.9048 853.907 95.9166 853.895C96.1286 853.684 96.1261 853.377 95.909 853.174C95.8952 853.161 95.1478 852.469 95.1478 852.469C94.8811 852.262 94.4372 852.267 94.1717 852.492L88.6481 857.217L87.2042 855.941Z" fill="#006362"/>
<rect x="82.5413" y="879.289" width="16.2385" height="16.2385" fill="white" stroke="#D1DADE" stroke-width="1.08257"/>
<path fill-rule="evenodd" clip-rule="evenodd" d="M87.2042 887.762C86.9318 887.534 86.4987 887.531 86.2269 887.747L85.4568 888.45C85.1811 888.67 85.1798 889.024 85.4452 889.25L88.0991 891.436C88.3689 891.665 88.8025 891.669 89.0773 891.454C89.0773 891.454 95.9048 885.727 95.9166 885.716C96.1286 885.504 96.1261 885.198 95.909 884.995C95.8952 884.982 95.1478 884.29 95.1478 884.29C94.8811 884.083 94.4372 884.088 94.1717 884.313L88.6481 889.037L87.2042 887.762Z" fill="#006362"/>
<rect x="82.5413" y="911.11" width="16.2385" height="16.2385" fill="white" stroke="#D1DADE" stroke-width="1.08257"/>
<path fill-rule="evenodd" clip-rule="evenodd" d="M87.2042 919.583C86.9318 919.355 86.4987 919.352 86.2269 919.568L85.4568 920.272C85.1811 920.491 85.1798 920.846 85.4452 921.071L88.0991 923.257C88.3689 923.486 88.8025 923.49 89.0773 923.275C89.0773 923.275 95.9048 917.549 95.9166 917.537C96.1286 917.326 96.1261 917.02 95.909 916.816C95.8952 916.803 95.1478 916.111 95.1478 916.111C94.8811 915.904 94.4372 915.909 94.1717 916.135L88.6481 920.859L87.2042 919.583Z" fill="#006362"/>
</g>
<g clip-path="url(#clip9_6206_50909)">
<rect width="870" height="97" transform="translate(40 551)" fill="#E6EBED"/>
<text fill="#1A1A1A" style="white-space: pre" xml:space="preserve" font-family="Sage UI" font-size="14" font-weight="500" letter-spacing="0px"><tspan x="70" y="584.418">State</tspan></text>
<rect x="70.6715" y="597.672" width="33.657" height="33.657" rx="4.70058" fill="white"/>
<rect x="70.6715" y="597.672" width="33.657" height="33.657" rx="4.70058" stroke="#668494" stroke-width="1.34302"/>
<text fill="#1A1A1A" style="white-space: pre" xml:space="preserve" font-family="Sage UI" font-size="14" font-weight="500" letter-spacing="0px"><tspan x="114" y="584.418">Match to line</tspan></text>
<rect x="114.672" y="597.672" width="81.657" height="33.657" rx="4.70058" fill="white"/>
<rect x="114.672" y="597.672" width="81.657" height="33.657" rx="4.70058" stroke="#668494" stroke-width="1.34302"/>
<text fill="#1A1A1A" style="white-space: pre" xml:space="preserve" font-family="Sage UI" font-size="14" font-weight="500" letter-spacing="0px"><tspan x="205" y="584.418">Item</tspan></text>
<rect x="205.672" y="597.672" width="165.657" height="33.657" rx="4.70058" fill="white"/>
<rect x="205.672" y="597.672" width="165.657" height="33.657" rx="4.70058" stroke="#668494" stroke-width="1.34302"/>
<text fill="#1A1A1A" style="white-space: pre" xml:space="preserve" font-family="Sage UI" font-size="14" font-weight="500" letter-spacing="0px"><tspan x="380" y="584.418">Quantity</tspan></text>
<rect x="380.672" y="597.672" width="94.657" height="33.657" rx="4.70058" fill="white"/>
<rect x="380.672" y="597.672" width="94.657" height="33.657" rx="4.70058" stroke="#668494" stroke-width="1.34302"/>
<text fill="#1A1A1A" style="white-space: pre" xml:space="preserve" font-family="Sage UI" font-size="14" font-weight="500" letter-spacing="0px"><tspan x="484" y="584.418">Unit</tspan></text>
<rect x="484.672" y="597.672" width="110.657" height="33.657" rx="4.70058" fill="white"/>
<rect x="484.672" y="597.672" width="110.657" height="33.657" rx="4.70058" stroke="#668494" stroke-width="1.34302"/>
<text fill="#1A1A1A" style="white-space: pre" xml:space="preserve" font-family="Sage UI" font-size="14" font-weight="500" letter-spacing="0px"><tspan x="604" y="584.418">Price</tspan></text>
<rect x="604.672" y="597.672" width="95.657" height="33.657" rx="4.70058" fill="white"/>
<rect x="604.672" y="597.672" width="95.657" height="33.657" rx="4.70058" stroke="#668494" stroke-width="1.34302"/>
<text fill="#1A1A1A" style="white-space: pre" xml:space="preserve" font-family="Sage UI" font-size="14" font-weight="500" letter-spacing="0px"><tspan x="709" y="584.418">Extended price</tspan></text>
<rect x="709.672" y="597.672" width="108.657" height="33.657" rx="4.70058" fill="white"/>
<rect x="709.672" y="597.672" width="108.657" height="33.657" rx="4.70058" stroke="#668494" stroke-width="1.34302"/>
</g>
</g>
<rect x="40.5" y="551.5" width="869" height="639" rx="4.5" stroke="#B3C2C9"/>
<text fill="#1A1A1A" style="white-space: pre" xml:space="preserve" font-family="Helvetica-Neue" font-size="17.018" letter-spacing="0px"><tspan x="78" y="482.918">Entries</tspan></text>
<path d="M40 493H910" stroke="#CCD6DB"/>
<text fill="#1A1A1A" style="white-space: pre" xml:space="preserve" font-family="Font Awesome 5 Pro" font-size="20" letter-spacing="0px"><tspan x="53.25" y="474.972">angle-down</tspan></text>
<path d="M855.606 657.962C855.469 657.965 855.339 658.021 855.244 658.119C855.149 658.217 855.097 658.349 855.099 658.485V663.983H849.601C849.533 663.982 849.465 663.995 849.401 664.02C849.338 664.046 849.28 664.083 849.232 664.131C849.183 664.179 849.144 664.236 849.118 664.299C849.092 664.363 849.078 664.43 849.078 664.498C849.078 664.567 849.092 664.634 849.118 664.697C849.144 664.76 849.183 664.818 849.232 664.865C849.28 664.913 849.338 664.951 849.401 664.977C849.465 665.002 849.533 665.015 849.601 665.014H855.099V670.512C855.098 670.58 855.11 670.648 855.136 670.711C855.161 670.774 855.199 670.832 855.247 670.881C855.295 670.929 855.352 670.968 855.415 670.994C855.478 671.021 855.546 671.034 855.614 671.034C855.682 671.034 855.75 671.021 855.813 670.994C855.876 670.968 855.933 670.929 855.981 670.881C856.029 670.832 856.067 670.774 856.092 670.711C856.118 670.648 856.13 670.58 856.129 670.512V665.014H861.627C861.696 665.015 861.763 665.002 861.827 664.977C861.89 664.951 861.948 664.913 861.996 664.865C862.045 664.818 862.084 664.76 862.11 664.697C862.136 664.634 862.15 664.567 862.15 664.498C862.15 664.43 862.136 664.363 862.11 664.299C862.084 664.236 862.045 664.179 861.996 664.131C861.948 664.083 861.89 664.046 861.827 664.02C861.763 663.995 861.696 663.982 861.627 663.983H856.129V658.485C856.13 658.416 856.118 658.348 856.092 658.284C856.066 658.22 856.027 658.162 855.978 658.113C855.929 658.064 855.871 658.026 855.807 658C855.743 657.974 855.675 657.961 855.606 657.962Z" fill="black"/>
<path d="M855.606 689.956C855.469 689.958 855.339 690.014 855.244 690.112C855.149 690.21 855.097 690.342 855.099 690.478V695.976H849.601C849.533 695.975 849.465 695.988 849.401 696.013C849.338 696.039 849.28 696.077 849.232 696.125C849.183 696.172 849.144 696.23 849.118 696.293C849.092 696.356 849.078 696.423 849.078 696.492C849.078 696.56 849.092 696.628 849.118 696.691C849.144 696.754 849.183 696.811 849.232 696.859C849.28 696.907 849.338 696.944 849.401 696.97C849.465 696.995 849.533 697.008 849.601 697.007H855.099V702.505C855.098 702.573 855.11 702.641 855.136 702.704C855.161 702.768 855.199 702.825 855.247 702.874C855.295 702.923 855.352 702.961 855.415 702.988C855.478 703.014 855.546 703.028 855.614 703.028C855.682 703.028 855.75 703.014 855.813 702.988C855.876 702.961 855.933 702.923 855.981 702.874C856.029 702.825 856.067 702.768 856.092 702.704C856.118 702.641 856.13 702.573 856.129 702.505V697.007H861.627C861.696 697.008 861.763 696.995 861.827 696.97C861.89 696.944 861.948 696.907 861.996 696.859C862.045 696.811 862.084 696.754 862.11 696.691C862.136 696.628 862.15 696.56 862.15 696.492C862.15 696.423 862.136 696.356 862.11 696.293C862.084 696.23 862.045 696.172 861.996 696.125C861.948 696.077 861.89 696.039 861.827 696.013C861.763 695.988 861.696 695.975 861.627 695.976H856.129V690.478C856.13 690.409 856.118 690.341 856.092 690.277C856.066 690.213 856.027 690.155 855.978 690.106C855.929 690.058 855.871 690.019 855.807 689.993C855.743 689.967 855.675 689.955 855.606 689.956Z" fill="black"/>
<path d="M855.606 721.949C855.469 721.951 855.339 722.007 855.244 722.105C855.149 722.203 855.097 722.335 855.099 722.472V727.969H849.601C849.533 727.968 849.465 727.981 849.401 728.006C849.338 728.032 849.28 728.07 849.232 728.118C849.183 728.166 849.144 728.223 849.118 728.286C849.092 728.349 849.078 728.416 849.078 728.485C849.078 728.553 849.092 728.621 849.118 728.684C849.144 728.747 849.183 728.804 849.232 728.852C849.28 728.9 849.338 728.938 849.401 728.963C849.465 728.989 849.533 729.001 849.601 729H855.099V734.498C855.098 734.566 855.11 734.634 855.136 734.697C855.161 734.761 855.199 734.818 855.247 734.867C855.295 734.916 855.352 734.954 855.415 734.981C855.478 735.007 855.546 735.021 855.614 735.021C855.682 735.021 855.75 735.007 855.813 734.981C855.876 734.954 855.933 734.916 855.981 734.867C856.029 734.818 856.067 734.761 856.092 734.697C856.118 734.634 856.13 734.566 856.129 734.498V729H861.627C861.696 729.001 861.763 728.989 861.827 728.963C861.89 728.938 861.948 728.9 861.996 728.852C862.045 728.804 862.084 728.747 862.11 728.684C862.136 728.621 862.15 728.553 862.15 728.485C862.15 728.416 862.136 728.349 862.11 728.286C862.084 728.223 862.045 728.166 861.996 728.118C861.948 728.07 861.89 728.032 861.827 728.006C861.763 727.981 861.696 727.968 861.627 727.969H856.129V722.472C856.13 722.403 856.118 722.334 856.092 722.27C856.066 722.206 856.027 722.148 855.978 722.099C855.929 722.051 855.871 722.012 855.807 721.986C855.743 721.96 855.675 721.948 855.606 721.949Z" fill="black"/>
<path d="M855.606 753.942C855.469 753.945 855.339 754.001 855.244 754.099C855.149 754.197 855.097 754.329 855.099 754.465V759.963H849.601C849.533 759.962 849.465 759.975 849.401 760C849.338 760.026 849.28 760.063 849.232 760.111C849.183 760.159 849.144 760.216 849.118 760.279C849.092 760.342 849.078 760.41 849.078 760.478C849.078 760.547 849.092 760.614 849.118 760.677C849.144 760.74 849.183 760.798 849.232 760.845C849.28 760.893 849.338 760.931 849.401 760.957C849.465 760.982 849.533 760.995 849.601 760.994H855.099V766.492C855.098 766.56 855.11 766.628 855.136 766.691C855.161 766.754 855.199 766.812 855.247 766.861C855.295 766.909 855.352 766.948 855.415 766.974C855.478 767.001 855.546 767.014 855.614 767.014C855.682 767.014 855.75 767.001 855.813 766.974C855.876 766.948 855.933 766.909 855.981 766.861C856.029 766.812 856.067 766.754 856.092 766.691C856.118 766.628 856.13 766.56 856.129 766.492V760.994H861.627C861.696 760.995 861.763 760.982 861.827 760.957C861.89 760.931 861.948 760.893 861.996 760.845C862.045 760.798 862.084 760.74 862.11 760.677C862.136 760.614 862.15 760.547 862.15 760.478C862.15 760.41 862.136 760.342 862.11 760.279C862.084 760.216 862.045 760.159 861.996 760.111C861.948 760.063 861.89 760.026 861.827 760C861.763 759.975 861.696 759.962 861.627 759.963H856.129V754.465C856.13 754.396 856.118 754.328 856.092 754.264C856.066 754.2 856.027 754.142 855.978 754.093C855.929 754.044 855.871 754.006 855.807 753.98C855.743 753.954 855.675 753.941 855.606 753.942Z" fill="black"/>
<path d="M855.606 785.936C855.469 785.938 855.339 785.994 855.244 786.092C855.149 786.19 855.097 786.322 855.099 786.458V791.956H849.601C849.533 791.955 849.465 791.968 849.401 791.993C849.338 792.019 849.28 792.057 849.232 792.105C849.183 792.152 849.144 792.21 849.118 792.273C849.092 792.336 849.078 792.403 849.078 792.472C849.078 792.54 849.092 792.608 849.118 792.671C849.144 792.734 849.183 792.791 849.232 792.839C849.28 792.887 849.338 792.924 849.401 792.95C849.465 792.975 849.533 792.988 849.601 792.987H855.099V798.485C855.098 798.553 855.11 798.621 855.136 798.684C855.161 798.748 855.199 798.805 855.247 798.854C855.295 798.903 855.352 798.941 855.415 798.968C855.478 798.994 855.546 799.008 855.614 799.008C855.682 799.008 855.75 798.994 855.813 798.968C855.876 798.941 855.933 798.903 855.981 798.854C856.029 798.805 856.067 798.748 856.092 798.684C856.118 798.621 856.13 798.553 856.129 798.485V792.987H861.627C861.696 792.988 861.763 792.975 861.827 792.95C861.89 792.924 861.948 792.887 861.996 792.839C862.045 792.791 862.084 792.734 862.11 792.671C862.136 792.608 862.15 792.54 862.15 792.472C862.15 792.403 862.136 792.336 862.11 792.273C862.084 792.21 862.045 792.152 861.996 792.105C861.948 792.057 861.89 792.019 861.827 791.993C861.763 791.968 861.696 791.955 861.627 791.956H856.129V786.458C856.13 786.389 856.118 786.321 856.092 786.257C856.066 786.193 856.027 786.135 855.978 786.086C855.929 786.038 855.871 785.999 855.807 785.973C855.743 785.947 855.675 785.935 855.606 785.936Z" fill="black"/>
<path d="M855.606 817.929C855.469 817.931 855.339 817.987 855.244 818.085C855.149 818.183 855.097 818.315 855.099 818.452V823.949H849.601C849.533 823.948 849.465 823.961 849.401 823.986C849.338 824.012 849.28 824.05 849.232 824.098C849.183 824.146 849.144 824.203 849.118 824.266C849.092 824.329 849.078 824.396 849.078 824.465C849.078 824.533 849.092 824.601 849.118 824.664C849.144 824.727 849.183 824.784 849.232 824.832C849.28 824.88 849.338 824.918 849.401 824.943C849.465 824.969 849.533 824.981 849.601 824.98H855.099V830.478C855.098 830.546 855.11 830.614 855.136 830.677C855.161 830.741 855.199 830.798 855.247 830.847C855.295 830.896 855.352 830.934 855.415 830.961C855.478 830.987 855.546 831.001 855.614 831.001C855.682 831.001 855.75 830.987 855.813 830.961C855.876 830.934 855.933 830.896 855.981 830.847C856.029 830.798 856.067 830.741 856.092 830.677C856.118 830.614 856.13 830.546 856.129 830.478V824.98H861.627C861.696 824.981 861.763 824.969 861.827 824.943C861.89 824.918 861.948 824.88 861.996 824.832C862.045 824.784 862.084 824.727 862.11 824.664C862.136 824.601 862.15 824.533 862.15 824.465C862.15 824.396 862.136 824.329 862.11 824.266C862.084 824.203 862.045 824.146 861.996 824.098C861.948 824.05 861.89 824.012 861.827 823.986C861.763 823.961 861.696 823.948 861.627 823.949H856.129V818.452C856.13 818.383 856.118 818.314 856.092 818.25C856.066 818.186 856.027 818.128 855.978 818.079C855.929 818.031 855.871 817.992 855.807 817.966C855.743 817.94 855.675 817.928 855.606 817.929Z" fill="black"/>
<path d="M855.606 849.922C855.469 849.924 855.339 849.98 855.244 850.078C855.149 850.176 855.097 850.308 855.099 850.445V855.942H849.601C849.533 855.942 849.465 855.954 849.401 855.98C849.338 856.005 849.28 856.043 849.232 856.091C849.183 856.139 849.144 856.196 849.118 856.259C849.092 856.322 849.078 856.39 849.078 856.458C849.078 856.526 849.092 856.594 849.118 856.657C849.144 856.72 849.183 856.777 849.232 856.825C849.28 856.873 849.338 856.911 849.401 856.936C849.465 856.962 849.533 856.974 849.601 856.973H855.099V862.471C855.098 862.539 855.11 862.607 855.136 862.671C855.161 862.734 855.199 862.792 855.247 862.84C855.295 862.889 855.352 862.928 855.415 862.954C855.478 862.98 855.546 862.994 855.614 862.994C855.682 862.994 855.75 862.98 855.813 862.954C855.876 862.928 855.933 862.889 855.981 862.84C856.029 862.792 856.067 862.734 856.092 862.671C856.118 862.607 856.13 862.539 856.129 862.471V856.973H861.627C861.696 856.974 861.763 856.962 861.827 856.936C861.89 856.911 861.948 856.873 861.996 856.825C862.045 856.777 862.084 856.72 862.11 856.657C862.136 856.594 862.15 856.526 862.15 856.458C862.15 856.39 862.136 856.322 862.11 856.259C862.084 856.196 862.045 856.139 861.996 856.091C861.948 856.043 861.89 856.005 861.827 855.98C861.763 855.954 861.696 855.942 861.627 855.942H856.129V850.445C856.13 850.376 856.118 850.307 856.092 850.243C856.066 850.179 856.027 850.121 855.978 850.073C855.929 850.024 855.871 849.985 855.807 849.96C855.743 849.934 855.675 849.921 855.606 849.922Z" fill="black"/>
<path d="M855.606 881.916C855.469 881.918 855.339 881.974 855.244 882.072C855.149 882.17 855.097 882.302 855.099 882.438V887.936H849.601C849.533 887.935 849.465 887.948 849.401 887.973C849.338 887.999 849.28 888.037 849.232 888.085C849.183 888.132 849.144 888.19 849.118 888.253C849.092 888.316 849.078 888.383 849.078 888.452C849.078 888.52 849.092 888.587 849.118 888.651C849.144 888.714 849.183 888.771 849.232 888.819C849.28 888.867 849.338 888.904 849.401 888.93C849.465 888.955 849.533 888.968 849.601 888.967H855.099V894.465C855.098 894.533 855.11 894.601 855.136 894.664C855.161 894.728 855.199 894.785 855.247 894.834C855.295 894.883 855.352 894.921 855.415 894.948C855.478 894.974 855.546 894.987 855.614 894.987C855.682 894.987 855.75 894.974 855.813 894.948C855.876 894.921 855.933 894.883 855.981 894.834C856.029 894.785 856.067 894.728 856.092 894.664C856.118 894.601 856.13 894.533 856.129 894.465V888.967H861.627C861.696 888.968 861.763 888.955 861.827 888.93C861.89 888.904 861.948 888.867 861.996 888.819C862.045 888.771 862.084 888.714 862.11 888.651C862.136 888.587 862.15 888.52 862.15 888.452C862.15 888.383 862.136 888.316 862.11 888.253C862.084 888.19 862.045 888.132 861.996 888.085C861.948 888.037 861.89 887.999 861.827 887.973C861.763 887.948 861.696 887.935 861.627 887.936H856.129V882.438C856.13 882.369 856.118 882.301 856.092 882.237C856.066 882.173 856.027 882.115 855.978 882.066C855.929 882.018 855.871 881.979 855.807 881.953C855.743 881.927 855.675 881.915 855.606 881.916Z" fill="black"/>
<path d="M855.606 913.909C855.469 913.911 855.339 913.967 855.244 914.065C855.149 914.163 855.097 914.295 855.099 914.432V919.929H849.601C849.533 919.928 849.465 919.941 849.401 919.966C849.338 919.992 849.28 920.03 849.232 920.078C849.183 920.126 849.144 920.183 849.118 920.246C849.092 920.309 849.078 920.376 849.078 920.445C849.078 920.513 849.092 920.581 849.118 920.644C849.144 920.707 849.183 920.764 849.232 920.812C849.28 920.86 849.338 920.898 849.401 920.923C849.465 920.948 849.533 920.961 849.601 920.96H855.099V926.458C855.098 926.526 855.11 926.594 855.136 926.657C855.161 926.721 855.199 926.778 855.247 926.827C855.295 926.876 855.352 926.914 855.415 926.941C855.478 926.967 855.546 926.981 855.614 926.981C855.682 926.981 855.75 926.967 855.813 926.941C855.876 926.914 855.933 926.876 855.981 926.827C856.029 926.778 856.067 926.721 856.092 926.657C856.118 926.594 856.13 926.526 856.129 926.458V920.96H861.627C861.696 920.961 861.763 920.948 861.827 920.923C861.89 920.898 861.948 920.86 861.996 920.812C862.045 920.764 862.084 920.707 862.11 920.644C862.136 920.581 862.15 920.513 862.15 920.445C862.15 920.376 862.136 920.309 862.11 920.246C862.084 920.183 862.045 920.126 861.996 920.078C861.948 920.03 861.89 919.992 861.827 919.966C861.763 919.941 861.696 919.928 861.627 919.929H856.129V914.432C856.13 914.363 856.118 914.294 856.092 914.23C856.066 914.166 856.027 914.108 855.978 914.059C855.929 914.011 855.871 913.972 855.807 913.946C855.743 913.92 855.675 913.908 855.606 913.909Z" fill="black"/>
<path d="M885.612 657.626C884.48 657.626 883.551 658.555 883.551 659.688H881.402C881.371 659.682 881.34 659.68 881.309 659.68C881.284 659.681 881.259 659.683 881.235 659.688H879.943C879.874 659.687 879.807 659.699 879.743 659.725C879.68 659.75 879.622 659.788 879.573 659.836C879.525 659.884 879.486 659.941 879.46 660.004C879.433 660.067 879.42 660.135 879.42 660.203C879.42 660.271 879.433 660.339 879.46 660.402C879.486 660.465 879.525 660.522 879.573 660.57C879.622 660.618 879.68 660.656 879.743 660.681C879.807 660.707 879.874 660.719 879.943 660.718H880.802V669.481C880.802 670.518 881.654 671.37 882.692 671.37H888.533C889.571 671.37 890.423 670.518 890.423 669.481V660.718H891.282C891.35 660.719 891.418 660.707 891.481 660.681C891.545 660.656 891.602 660.618 891.651 660.57C891.7 660.522 891.738 660.465 891.765 660.402C891.791 660.339 891.805 660.271 891.805 660.203C891.805 660.135 891.791 660.067 891.765 660.004C891.738 659.941 891.7 659.884 891.651 659.836C891.602 659.788 891.545 659.75 891.481 659.725C891.418 659.699 891.35 659.687 891.282 659.688H889.992C889.937 659.679 889.88 659.679 889.825 659.688H887.674C887.674 658.555 886.745 657.626 885.612 657.626ZM885.612 658.657C886.187 658.657 886.643 659.112 886.643 659.688H884.581C884.581 659.112 885.037 658.657 885.612 658.657ZM881.833 660.718H889.392V669.481C889.392 669.961 889.013 670.34 888.533 670.34H882.692C882.211 670.34 881.833 669.961 881.833 669.481V660.718ZM884.402 662.429C884.265 662.431 884.135 662.488 884.04 662.586C883.945 662.684 883.892 662.815 883.894 662.952V668.106C883.893 668.174 883.906 668.242 883.931 668.306C883.957 668.369 883.995 668.427 884.043 668.475C884.091 668.524 884.148 668.563 884.211 668.589C884.274 668.615 884.341 668.629 884.41 668.629C884.478 668.629 884.546 668.615 884.609 668.589C884.672 668.563 884.729 668.524 884.777 668.475C884.825 668.427 884.862 668.369 884.888 668.306C884.913 668.242 884.926 668.174 884.925 668.106V662.952C884.926 662.883 884.913 662.814 884.887 662.751C884.861 662.687 884.823 662.629 884.774 662.58C884.725 662.531 884.667 662.493 884.603 662.467C884.539 662.441 884.471 662.428 884.402 662.429ZM886.807 662.429C886.67 662.431 886.54 662.488 886.445 662.586C886.35 662.684 886.298 662.815 886.299 662.952V668.106C886.298 668.174 886.311 668.242 886.337 668.306C886.362 668.369 886.4 668.427 886.448 668.475C886.496 668.524 886.553 668.563 886.616 668.589C886.679 668.615 886.747 668.629 886.815 668.629C886.883 668.629 886.951 668.615 887.014 668.589C887.077 668.563 887.134 668.524 887.182 668.475C887.23 668.427 887.268 668.369 887.293 668.306C887.319 668.242 887.331 668.174 887.33 668.106V662.952C887.331 662.883 887.318 662.814 887.292 662.751C887.266 662.687 887.228 662.629 887.179 662.58C887.13 662.531 887.072 662.493 887.008 662.467C886.944 662.441 886.876 662.428 886.807 662.429Z" fill="black"/>
<path d="M885.612 689.619C884.48 689.619 883.551 690.548 883.551 691.681H881.402C881.371 691.676 881.34 691.673 881.309 691.673C881.284 691.674 881.259 691.677 881.235 691.681H879.943C879.874 691.68 879.807 691.692 879.743 691.718C879.68 691.743 879.622 691.781 879.573 691.829C879.525 691.877 879.486 691.934 879.46 691.997C879.433 692.06 879.42 692.128 879.42 692.196C879.42 692.265 879.433 692.332 879.46 692.395C879.486 692.458 879.525 692.515 879.573 692.563C879.622 692.611 879.68 692.649 879.743 692.675C879.807 692.7 879.874 692.713 879.943 692.712H880.802V701.474C880.802 702.511 881.654 703.364 882.692 703.364H888.533C889.571 703.364 890.423 702.511 890.423 701.474V692.712H891.282C891.35 692.713 891.418 692.7 891.481 692.675C891.545 692.649 891.602 692.611 891.651 692.563C891.7 692.515 891.738 692.458 891.765 692.395C891.791 692.332 891.805 692.265 891.805 692.196C891.805 692.128 891.791 692.06 891.765 691.997C891.738 691.934 891.7 691.877 891.651 691.829C891.602 691.781 891.545 691.743 891.481 691.718C891.418 691.692 891.35 691.68 891.282 691.681H889.992C889.937 691.672 889.88 691.672 889.825 691.681H887.674C887.674 690.548 886.745 689.619 885.612 689.619ZM885.612 690.65C886.187 690.65 886.643 691.106 886.643 691.681H884.581C884.581 691.106 885.037 690.65 885.612 690.65ZM881.833 692.712H889.392V701.474C889.392 701.954 889.013 702.333 888.533 702.333H882.692C882.211 702.333 881.833 701.954 881.833 701.474V692.712ZM884.402 694.422C884.265 694.424 884.135 694.481 884.04 694.579C883.945 694.677 883.892 694.809 883.894 694.945V700.099C883.893 700.168 883.906 700.235 883.931 700.299C883.957 700.362 883.995 700.42 884.043 700.468C884.091 700.517 884.148 700.556 884.211 700.582C884.274 700.608 884.341 700.622 884.41 700.622C884.478 700.622 884.546 700.608 884.609 700.582C884.672 700.556 884.729 700.517 884.777 700.468C884.825 700.42 884.862 700.362 884.888 700.299C884.913 700.235 884.926 700.168 884.925 700.099V694.945C884.926 694.876 884.913 694.808 884.887 694.744C884.861 694.68 884.823 694.622 884.774 694.573C884.725 694.524 884.667 694.486 884.603 694.46C884.539 694.434 884.471 694.421 884.402 694.422ZM886.807 694.422C886.67 694.424 886.54 694.481 886.445 694.579C886.35 694.677 886.298 694.809 886.299 694.945V700.099C886.298 700.168 886.311 700.235 886.337 700.299C886.362 700.362 886.4 700.42 886.448 700.468C886.496 700.517 886.553 700.556 886.616 700.582C886.679 700.608 886.747 700.622 886.815 700.622C886.883 700.622 886.951 700.608 887.014 700.582C887.077 700.556 887.134 700.517 887.182 700.468C887.23 700.42 887.268 700.362 887.293 700.299C887.319 700.235 887.331 700.168 887.33 700.099V694.945C887.331 694.876 887.318 694.808 887.292 694.744C887.266 694.68 887.228 694.622 887.179 694.573C887.13 694.524 887.072 694.486 887.008 694.46C886.944 694.434 886.876 694.421 886.807 694.422Z" fill="black"/>
<path d="M885.612 721.612C884.48 721.612 883.551 722.541 883.551 723.674H881.402C881.371 723.669 881.34 723.666 881.309 723.667C881.284 723.667 881.259 723.67 881.235 723.674H879.943C879.874 723.673 879.807 723.686 879.743 723.711C879.68 723.737 879.622 723.774 879.573 723.822C879.525 723.87 879.486 723.927 879.46 723.99C879.433 724.053 879.42 724.121 879.42 724.189C879.42 724.258 879.433 724.325 879.46 724.388C879.486 724.451 879.525 724.508 879.573 724.556C879.622 724.604 879.68 724.642 879.743 724.668C879.807 724.693 879.874 724.706 879.943 724.705H880.802V733.467C880.802 734.504 881.654 735.357 882.692 735.357H888.533C889.571 735.357 890.423 734.504 890.423 733.467V724.705H891.282C891.35 724.706 891.418 724.693 891.481 724.668C891.545 724.642 891.602 724.604 891.651 724.556C891.7 724.508 891.738 724.451 891.765 724.388C891.791 724.325 891.805 724.258 891.805 724.189C891.805 724.121 891.791 724.053 891.765 723.99C891.738 723.927 891.7 723.87 891.651 723.822C891.602 723.774 891.545 723.737 891.481 723.711C891.418 723.686 891.35 723.673 891.282 723.674H889.992C889.937 723.665 889.88 723.665 889.825 723.674H887.674C887.674 722.541 886.745 721.612 885.612 721.612ZM885.612 722.643C886.187 722.643 886.643 723.099 886.643 723.674H884.581C884.581 723.099 885.037 722.643 885.612 722.643ZM881.833 724.705H889.392V733.467C889.392 733.947 889.013 734.326 888.533 734.326H882.692C882.211 734.326 881.833 733.947 881.833 733.467V724.705ZM884.402 726.415C884.265 726.418 884.135 726.474 884.04 726.572C883.945 726.67 883.892 726.802 883.894 726.938V732.092C883.893 732.161 883.906 732.229 883.931 732.292C883.957 732.355 883.995 732.413 884.043 732.462C884.091 732.51 884.148 732.549 884.211 732.575C884.274 732.602 884.341 732.615 884.41 732.615C884.478 732.615 884.546 732.602 884.609 732.575C884.672 732.549 884.729 732.51 884.777 732.462C884.825 732.413 884.862 732.355 884.888 732.292C884.913 732.229 884.926 732.161 884.925 732.092V726.938C884.926 726.869 884.913 726.801 884.887 726.737C884.861 726.673 884.823 726.615 884.774 726.566C884.725 726.517 884.667 726.479 884.603 726.453C884.539 726.427 884.471 726.414 884.402 726.415ZM886.807 726.415C886.67 726.418 886.54 726.474 886.445 726.572C886.35 726.67 886.298 726.802 886.299 726.938V732.092C886.298 732.161 886.311 732.229 886.337 732.292C886.362 732.355 886.4 732.413 886.448 732.462C886.496 732.51 886.553 732.549 886.616 732.575C886.679 732.602 886.747 732.615 886.815 732.615C886.883 732.615 886.951 732.602 887.014 732.575C887.077 732.549 887.134 732.51 887.182 732.462C887.23 732.413 887.268 732.355 887.293 732.292C887.319 732.229 887.331 732.161 887.33 732.092V726.938C887.331 726.869 887.318 726.801 887.292 726.737C887.266 726.673 887.228 726.615 887.179 726.566C887.13 726.517 887.072 726.479 887.008 726.453C886.944 726.427 886.876 726.414 886.807 726.415Z" fill="black"/>
<path d="M885.612 753.606C884.48 753.606 883.551 754.535 883.551 755.668H881.402C881.371 755.662 881.34 755.66 881.309 755.66C881.284 755.661 881.259 755.663 881.235 755.668H879.943C879.874 755.667 879.807 755.679 879.743 755.705C879.68 755.73 879.622 755.768 879.573 755.816C879.525 755.864 879.486 755.921 879.46 755.984C879.433 756.047 879.42 756.115 879.42 756.183C879.42 756.251 879.433 756.319 879.46 756.382C879.486 756.445 879.525 756.502 879.573 756.55C879.622 756.598 879.68 756.636 879.743 756.661C879.807 756.687 879.874 756.699 879.943 756.698H880.802V765.461C880.802 766.498 881.654 767.35 882.692 767.35H888.533C889.571 767.35 890.423 766.498 890.423 765.461V756.698H891.282C891.35 756.699 891.418 756.687 891.481 756.661C891.545 756.636 891.602 756.598 891.651 756.55C891.7 756.502 891.738 756.445 891.765 756.382C891.791 756.319 891.805 756.251 891.805 756.183C891.805 756.115 891.791 756.047 891.765 755.984C891.738 755.921 891.7 755.864 891.651 755.816C891.602 755.768 891.545 755.73 891.481 755.705C891.418 755.679 891.35 755.667 891.282 755.668H889.992C889.937 755.659 889.88 755.659 889.825 755.668H887.674C887.674 754.535 886.745 753.606 885.612 753.606ZM885.612 754.637C886.187 754.637 886.643 755.092 886.643 755.668H884.581C884.581 755.092 885.037 754.637 885.612 754.637ZM881.833 756.698H889.392V765.461C889.392 765.941 889.013 766.32 888.533 766.32H882.692C882.211 766.32 881.833 765.941 881.833 765.461V756.698ZM884.402 758.409C884.265 758.411 884.135 758.468 884.04 758.566C883.945 758.664 883.892 758.795 883.894 758.932V764.086C883.893 764.154 883.906 764.222 883.931 764.286C883.957 764.349 883.995 764.407 884.043 764.455C884.091 764.504 884.148 764.543 884.211 764.569C884.274 764.595 884.341 764.609 884.41 764.609C884.478 764.609 884.546 764.595 884.609 764.569C884.672 764.543 884.729 764.504 884.777 764.455C884.825 764.407 884.862 764.349 884.888 764.286C884.913 764.222 884.926 764.154 884.925 764.086V758.932C884.926 758.863 884.913 758.794 884.887 758.731C884.861 758.667 884.823 758.609 884.774 758.56C884.725 758.511 884.667 758.473 884.603 758.447C884.539 758.421 884.471 758.408 884.402 758.409ZM886.807 758.409C886.67 758.411 886.54 758.468 886.445 758.566C886.35 758.664 886.298 758.795 886.299 758.932V764.086C886.298 764.154 886.311 764.222 886.337 764.286C886.362 764.349 886.4 764.407 886.448 764.455C886.496 764.504 886.553 764.543 886.616 764.569C886.679 764.595 886.747 764.609 886.815 764.609C886.883 764.609 886.951 764.595 887.014 764.569C887.077 764.543 887.134 764.504 887.182 764.455C887.23 764.407 887.268 764.349 887.293 764.286C887.319 764.222 887.331 764.154 887.33 764.086V758.932C887.331 758.863 887.318 758.794 887.292 758.731C887.266 758.667 887.228 758.609 887.179 758.56C887.13 758.511 887.072 758.473 887.008 758.447C886.944 758.421 886.876 758.408 886.807 758.409Z" fill="black"/>
<path d="M885.612 785.599C884.48 785.599 883.551 786.528 883.551 787.661H881.402C881.371 787.656 881.34 787.653 881.309 787.653C881.284 787.654 881.259 787.657 881.235 787.661H879.943C879.874 787.66 879.807 787.672 879.743 787.698C879.68 787.723 879.622 787.761 879.573 787.809C879.525 787.857 879.486 787.914 879.46 787.977C879.433 788.04 879.42 788.108 879.42 788.176C879.42 788.245 879.433 788.312 879.46 788.375C879.486 788.438 879.525 788.495 879.573 788.543C879.622 788.591 879.68 788.629 879.743 788.654C879.807 788.68 879.874 788.693 879.943 788.692H880.802V797.454C880.802 798.491 881.654 799.344 882.692 799.344H888.533C889.571 799.344 890.423 798.491 890.423 797.454V788.692H891.282C891.35 788.693 891.418 788.68 891.481 788.654C891.545 788.629 891.602 788.591 891.651 788.543C891.7 788.495 891.738 788.438 891.765 788.375C891.791 788.312 891.805 788.245 891.805 788.176C891.805 788.108 891.791 788.04 891.765 787.977C891.738 787.914 891.7 787.857 891.651 787.809C891.602 787.761 891.545 787.723 891.481 787.698C891.418 787.672 891.35 787.66 891.282 787.661H889.992C889.937 787.652 889.88 787.652 889.825 787.661H887.674C887.674 786.528 886.745 785.599 885.612 785.599ZM885.612 786.63C886.187 786.63 886.643 787.086 886.643 787.661H884.581C884.581 787.086 885.037 786.63 885.612 786.63ZM881.833 788.692H889.392V797.454C889.392 797.934 889.013 798.313 888.533 798.313H882.692C882.211 798.313 881.833 797.934 881.833 797.454V788.692ZM884.402 790.402C884.265 790.404 884.135 790.461 884.04 790.559C883.945 790.657 883.892 790.788 883.894 790.925V796.079C883.893 796.148 883.906 796.215 883.931 796.279C883.957 796.342 883.995 796.4 884.043 796.448C884.091 796.497 884.148 796.536 884.211 796.562C884.274 796.588 884.341 796.602 884.41 796.602C884.478 796.602 884.546 796.588 884.609 796.562C884.672 796.536 884.729 796.497 884.777 796.448C884.825 796.4 884.862 796.342 884.888 796.279C884.913 796.215 884.926 796.148 884.925 796.079V790.925C884.926 790.856 884.913 790.788 884.887 790.724C884.861 790.66 884.823 790.602 884.774 790.553C884.725 790.504 884.667 790.466 884.603 790.44C884.539 790.414 884.471 790.401 884.402 790.402ZM886.807 790.402C886.67 790.404 886.54 790.461 886.445 790.559C886.35 790.657 886.298 790.788 886.299 790.925V796.079C886.298 796.148 886.311 796.215 886.337 796.279C886.362 796.342 886.4 796.4 886.448 796.448C886.496 796.497 886.553 796.536 886.616 796.562C886.679 796.588 886.747 796.602 886.815 796.602C886.883 796.602 886.951 796.588 887.014 796.562C887.077 796.536 887.134 796.497 887.182 796.448C887.23 796.4 887.268 796.342 887.293 796.279C887.319 796.215 887.331 796.148 887.33 796.079V790.925C887.331 790.856 887.318 790.788 887.292 790.724C887.266 790.66 887.228 790.602 887.179 790.553C887.13 790.504 887.072 790.466 887.008 790.44C886.944 790.414 886.876 790.401 886.807 790.402Z" fill="black"/>
<path d="M885.612 817.592C884.48 817.592 883.551 818.521 883.551 819.654H881.402C881.371 819.649 881.34 819.646 881.309 819.647C881.284 819.647 881.259 819.65 881.235 819.654H879.943C879.874 819.653 879.807 819.666 879.743 819.691C879.68 819.717 879.622 819.754 879.573 819.802C879.525 819.85 879.486 819.907 879.46 819.97C879.433 820.033 879.42 820.101 879.42 820.169C879.42 820.238 879.433 820.305 879.46 820.368C879.486 820.431 879.525 820.488 879.573 820.536C879.622 820.584 879.68 820.622 879.743 820.648C879.807 820.673 879.874 820.686 879.943 820.685H880.802V829.447C880.802 830.484 881.654 831.337 882.692 831.337H888.533C889.571 831.337 890.423 830.484 890.423 829.447V820.685H891.282C891.35 820.686 891.418 820.673 891.481 820.648C891.545 820.622 891.602 820.584 891.651 820.536C891.7 820.488 891.738 820.431 891.765 820.368C891.791 820.305 891.805 820.238 891.805 820.169C891.805 820.101 891.791 820.033 891.765 819.97C891.738 819.907 891.7 819.85 891.651 819.802C891.602 819.754 891.545 819.717 891.481 819.691C891.418 819.666 891.35 819.653 891.282 819.654H889.992C889.937 819.645 889.88 819.645 889.825 819.654H887.674C887.674 818.521 886.745 817.592 885.612 817.592ZM885.612 818.623C886.187 818.623 886.643 819.079 886.643 819.654H884.581C884.581 819.079 885.037 818.623 885.612 818.623ZM881.833 820.685H889.392V829.447C889.392 829.927 889.013 830.306 888.533 830.306H882.692C882.211 830.306 881.833 829.927 881.833 829.447V820.685ZM884.402 822.395C884.265 822.398 884.135 822.454 884.04 822.552C883.945 822.65 883.892 822.782 883.894 822.918V828.072C883.893 828.141 883.906 828.208 883.931 828.272C883.957 828.335 883.995 828.393 884.043 828.442C884.091 828.49 884.148 828.529 884.211 828.555C884.274 828.582 884.341 828.595 884.41 828.595C884.478 828.595 884.546 828.582 884.609 828.555C884.672 828.529 884.729 828.49 884.777 828.442C884.825 828.393 884.862 828.335 884.888 828.272C884.913 828.208 884.926 828.141 884.925 828.072V822.918C884.926 822.849 884.913 822.781 884.887 822.717C884.861 822.653 884.823 822.595 884.774 822.546C884.725 822.497 884.667 822.459 884.603 822.433C884.539 822.407 884.471 822.394 884.402 822.395ZM886.807 822.395C886.67 822.398 886.54 822.454 886.445 822.552C886.35 822.65 886.298 822.782 886.299 822.918V828.072C886.298 828.141 886.311 828.208 886.337 828.272C886.362 828.335 886.4 828.393 886.448 828.442C886.496 828.49 886.553 828.529 886.616 828.555C886.679 828.582 886.747 828.595 886.815 828.595C886.883 828.595 886.951 828.582 887.014 828.555C887.077 828.529 887.134 828.49 887.182 828.442C887.23 828.393 887.268 828.335 887.293 828.272C887.319 828.208 887.331 828.141 887.33 828.072V822.918C887.331 822.849 887.318 822.781 887.292 822.717C887.266 822.653 887.228 822.595 887.179 822.546C887.13 822.497 887.072 822.459 887.008 822.433C886.944 822.407 886.876 822.394 886.807 822.395Z" fill="black"/>
<path d="M885.612 849.585C884.48 849.585 883.551 850.515 883.551 851.647H881.402C881.371 851.642 881.34 851.639 881.309 851.64C881.284 851.64 881.259 851.643 881.235 851.647H879.943C879.874 851.646 879.807 851.659 879.743 851.684C879.68 851.71 879.622 851.748 879.573 851.795C879.525 851.843 879.486 851.901 879.46 851.964C879.433 852.027 879.42 852.094 879.42 852.163C879.42 852.231 879.433 852.298 879.46 852.361C879.486 852.424 879.525 852.482 879.573 852.53C879.622 852.578 879.68 852.615 879.743 852.641C879.807 852.666 879.874 852.679 879.943 852.678H880.802V861.44C880.802 862.478 881.654 863.33 882.692 863.33H888.533C889.571 863.33 890.423 862.478 890.423 861.44V852.678H891.282C891.35 852.679 891.418 852.666 891.481 852.641C891.545 852.615 891.602 852.578 891.651 852.53C891.7 852.482 891.738 852.424 891.765 852.361C891.791 852.298 891.805 852.231 891.805 852.163C891.805 852.094 891.791 852.027 891.765 851.964C891.738 851.901 891.7 851.843 891.651 851.795C891.602 851.748 891.545 851.71 891.481 851.684C891.418 851.659 891.35 851.646 891.282 851.647H889.992C889.937 851.638 889.88 851.638 889.825 851.647H887.674C887.674 850.515 886.745 849.585 885.612 849.585ZM885.612 850.616C886.187 850.616 886.643 851.072 886.643 851.647H884.581C884.581 851.072 885.037 850.616 885.612 850.616ZM881.833 852.678H889.392V861.44C889.392 861.92 889.013 862.299 888.533 862.299H882.692C882.211 862.299 881.833 861.92 881.833 861.44V852.678ZM884.402 854.389C884.265 854.391 884.135 854.447 884.04 854.545C883.945 854.643 883.892 854.775 883.894 854.911V860.066C883.893 860.134 883.906 860.202 883.931 860.265C883.957 860.328 883.995 860.386 884.043 860.435C884.091 860.483 884.148 860.522 884.211 860.548C884.274 860.575 884.341 860.588 884.41 860.588C884.478 860.588 884.546 860.575 884.609 860.548C884.672 860.522 884.729 860.483 884.777 860.435C884.825 860.386 884.862 860.328 884.888 860.265C884.913 860.202 884.926 860.134 884.925 860.066V854.911C884.926 854.842 884.913 854.774 884.887 854.71C884.861 854.646 884.823 854.588 884.774 854.539C884.725 854.491 884.667 854.452 884.603 854.426C884.539 854.4 884.471 854.388 884.402 854.389ZM886.807 854.389C886.67 854.391 886.54 854.447 886.445 854.545C886.35 854.643 886.298 854.775 886.299 854.911V860.066C886.298 860.134 886.311 860.202 886.337 860.265C886.362 860.328 886.4 860.386 886.448 860.435C886.496 860.483 886.553 860.522 886.616 860.548C886.679 860.575 886.747 860.588 886.815 860.588C886.883 860.588 886.951 860.575 887.014 860.548C887.077 860.522 887.134 860.483 887.182 860.435C887.23 860.386 887.268 860.328 887.293 860.265C887.319 860.202 887.331 860.134 887.33 860.066V854.911C887.331 854.842 887.318 854.774 887.292 854.71C887.266 854.646 887.228 854.588 887.179 854.539C887.13 854.491 887.072 854.452 887.008 854.426C886.944 854.4 886.876 854.388 886.807 854.389Z" fill="black"/>
<path d="M885.612 881.579C884.48 881.579 883.551 882.508 883.551 883.641H881.402C881.371 883.636 881.34 883.633 881.309 883.633C881.284 883.634 881.259 883.636 881.235 883.641H879.943C879.874 883.64 879.807 883.652 879.743 883.678C879.68 883.703 879.622 883.741 879.573 883.789C879.525 883.837 879.486 883.894 879.46 883.957C879.433 884.02 879.42 884.088 879.42 884.156C879.42 884.224 879.433 884.292 879.46 884.355C879.486 884.418 879.525 884.475 879.573 884.523C879.622 884.571 879.68 884.609 879.743 884.634C879.807 884.66 879.874 884.673 879.943 884.672H880.802V893.434C880.802 894.471 881.654 895.324 882.692 895.324H888.533C889.571 895.324 890.423 894.471 890.423 893.434V884.672H891.282C891.35 884.673 891.418 884.66 891.481 884.634C891.545 884.609 891.602 884.571 891.651 884.523C891.7 884.475 891.738 884.418 891.765 884.355C891.791 884.292 891.805 884.224 891.805 884.156C891.805 884.088 891.791 884.02 891.765 883.957C891.738 883.894 891.7 883.837 891.651 883.789C891.602 883.741 891.545 883.703 891.481 883.678C891.418 883.652 891.35 883.64 891.282 883.641H889.992C889.937 883.632 889.88 883.632 889.825 883.641H887.674C887.674 882.508 886.745 881.579 885.612 881.579ZM885.612 882.61C886.187 882.61 886.643 883.066 886.643 883.641H884.581C884.581 883.066 885.037 882.61 885.612 882.61ZM881.833 884.672H889.392V893.434C889.392 893.914 889.013 894.293 888.533 894.293H882.692C882.211 894.293 881.833 893.914 881.833 893.434V884.672ZM884.402 886.382C884.265 886.384 884.135 886.441 884.04 886.539C883.945 886.637 883.892 886.768 883.894 886.905V892.059C883.893 892.128 883.906 892.195 883.931 892.259C883.957 892.322 883.995 892.38 884.043 892.428C884.091 892.477 884.148 892.516 884.211 892.542C884.274 892.568 884.341 892.582 884.41 892.582C884.478 892.582 884.546 892.568 884.609 892.542C884.672 892.516 884.729 892.477 884.777 892.428C884.825 892.38 884.862 892.322 884.888 892.259C884.913 892.195 884.926 892.128 884.925 892.059V886.905C884.926 886.836 884.913 886.768 884.887 886.704C884.861 886.64 884.823 886.582 884.774 886.533C884.725 886.484 884.667 886.446 884.603 886.42C884.539 886.394 884.471 886.381 884.402 886.382ZM886.807 886.382C886.67 886.384 886.54 886.441 886.445 886.539C886.35 886.637 886.298 886.768 886.299 886.905V892.059C886.298 892.128 886.311 892.195 886.337 892.259C886.362 892.322 886.4 892.38 886.448 892.428C886.496 892.477 886.553 892.516 886.616 892.542C886.679 892.568 886.747 892.582 886.815 892.582C886.883 892.582 886.951 892.568 887.014 892.542C887.077 892.516 887.134 892.477 887.182 892.428C887.23 892.38 887.268 892.322 887.293 892.259C887.319 892.195 887.331 892.128 887.33 892.059V886.905C887.331 886.836 887.318 886.768 887.292 886.704C887.266 886.64 887.228 886.582 887.179 886.533C887.13 886.484 887.072 886.446 887.008 886.42C886.944 886.394 886.876 886.381 886.807 886.382Z" fill="black"/>
<path d="M885.612 913.572C884.48 913.572 883.551 914.501 883.551 915.634H881.402C881.371 915.629 881.34 915.626 881.309 915.627C881.284 915.627 881.259 915.63 881.235 915.634H879.943C879.874 915.633 879.807 915.646 879.743 915.671C879.68 915.697 879.622 915.734 879.573 915.782C879.525 915.83 879.486 915.887 879.46 915.95C879.433 916.013 879.42 916.081 879.42 916.149C879.42 916.218 879.433 916.285 879.46 916.348C879.486 916.411 879.525 916.468 879.573 916.516C879.622 916.564 879.68 916.602 879.743 916.628C879.807 916.653 879.874 916.666 879.943 916.665H880.802V925.427C880.802 926.464 881.654 927.317 882.692 927.317H888.533C889.571 927.317 890.423 926.464 890.423 925.427V916.665H891.282C891.35 916.666 891.418 916.653 891.481 916.628C891.545 916.602 891.602 916.564 891.651 916.516C891.7 916.468 891.738 916.411 891.765 916.348C891.791 916.285 891.805 916.218 891.805 916.149C891.805 916.081 891.791 916.013 891.765 915.95C891.738 915.887 891.7 915.83 891.651 915.782C891.602 915.734 891.545 915.697 891.481 915.671C891.418 915.646 891.35 915.633 891.282 915.634H889.992C889.937 915.625 889.88 915.625 889.825 915.634H887.674C887.674 914.501 886.745 913.572 885.612 913.572ZM885.612 914.603C886.187 914.603 886.643 915.059 886.643 915.634H884.581C884.581 915.059 885.037 914.603 885.612 914.603ZM881.833 916.665H889.392V925.427C889.392 925.907 889.013 926.286 888.533 926.286H882.692C882.211 926.286 881.833 925.907 881.833 925.427V916.665ZM884.402 918.375C884.265 918.378 884.135 918.434 884.04 918.532C883.945 918.63 883.892 918.762 883.894 918.898V924.052C883.893 924.121 883.906 924.188 883.931 924.252C883.957 924.315 883.995 924.373 884.043 924.422C884.091 924.47 884.148 924.509 884.211 924.535C884.274 924.562 884.341 924.575 884.41 924.575C884.478 924.575 884.546 924.562 884.609 924.535C884.672 924.509 884.729 924.47 884.777 924.422C884.825 924.373 884.862 924.315 884.888 924.252C884.913 924.188 884.926 924.121 884.925 924.052V918.898C884.926 918.829 884.913 918.761 884.887 918.697C884.861 918.633 884.823 918.575 884.774 918.526C884.725 918.477 884.667 918.439 884.603 918.413C884.539 918.387 884.471 918.374 884.402 918.375ZM886.807 918.375C886.67 918.378 886.54 918.434 886.445 918.532C886.35 918.63 886.298 918.762 886.299 918.898V924.052C886.298 924.121 886.311 924.188 886.337 924.252C886.362 924.315 886.4 924.373 886.448 924.422C886.496 924.47 886.553 924.509 886.616 924.535C886.679 924.562 886.747 924.575 886.815 924.575C886.883 924.575 886.951 924.562 887.014 924.535C887.077 924.509 887.134 924.47 887.182 924.422C887.23 924.373 887.268 924.315 887.293 924.252C887.319 924.188 887.331 924.121 887.33 924.052V918.898C887.331 918.829 887.318 918.761 887.292 918.697C887.266 918.633 887.228 918.575 887.179 918.526C887.13 918.477 887.072 918.439 887.008 918.413C886.944 918.387 886.876 918.374 886.807 918.375Z" fill="black"/>
</g>
<text fill="black" style="white-space: pre" xml:space="preserve" font-family="Sage UI" font-size="23.6" font-weight="500" letter-spacing="0px"><tspan x="996" y="466.64">INVOICE</tspan></text>
<path d="M996 476.643H1369" stroke="#0060A7" stroke-width="2"/>
<text fill="black" style="white-space: pre" xml:space="preserve" font-family="Sage UI" font-size="16" font-weight="500" letter-spacing="0px"><tspan x="996" y="629.292">Insta-a-eat</tspan></text>
<text fill="black" style="white-space: pre" xml:space="preserve" font-family="Sage UI" font-size="7.74" letter-spacing="0px"><tspan x="996" y="643.095">finance@insta-eat.com</tspan></text>
<text fill="black" style="white-space: pre" xml:space="preserve" font-family="Sage Text" font-size="8.69021" letter-spacing="0px"><tspan x="996" y="657.963">(321) 333-4547&#x2028;</tspan><tspan x="996" y="671.963">101 Boardwalk Run, Irvine, CA 90005</tspan></text>
<rect width="77" height="18" transform="translate(1221 498)" fill="#F2F5F6"/>
<text fill="black" fill-opacity="0.65" style="white-space: pre" xml:space="preserve" font-family="Sage UI" font-size="8.73585" font-weight="500" letter-spacing="0px"><tspan x="1231" y="510.381">Invoice:</tspan></text>
<rect width="67" height="18" transform="translate(1301 498)" fill="#F2F5F6"/>
<text fill="black" style="white-space: pre" xml:space="preserve" font-family="Sage UI" font-size="8.73585" font-weight="500" letter-spacing="0px"><tspan x="1311" y="510.381">12123</tspan></text>
<text fill="black" fill-opacity="0.65" style="white-space: pre" xml:space="preserve" font-family="Sage UI" font-size="8.73585" font-weight="500" letter-spacing="0px"><tspan x="1231" y="531.381">Account:</tspan></text>
<text fill="black" style="white-space: pre" xml:space="preserve" font-family="Sage UI" font-size="8.73585" font-weight="500" letter-spacing="0px"><tspan x="1311" y="531.381">0011146900</tspan></text>
<rect width="77" height="18" transform="translate(1221 540)" fill="#F2F5F6"/>
<text fill="black" fill-opacity="0.65" style="white-space: pre" xml:space="preserve" font-family="Sage UI" font-size="8.73585" font-weight="500" letter-spacing="0px"><tspan x="1231" y="552.381">Purchase order:</tspan></text>
<rect width="67" height="18" transform="translate(1301 540)" fill="#F2F5F6"/>
<text fill="black" style="white-space: pre" xml:space="preserve" font-family="Sage UI" font-size="8.73585" font-weight="500" letter-spacing="0px"><tspan x="1311" y="552.381">PO-003499</tspan></text>
<text fill="black" fill-opacity="0.65" style="white-space: pre" xml:space="preserve" font-family="Sage UI" font-size="8.73585" font-weight="500" letter-spacing="0px"><tspan x="1231" y="573.381">Date:</tspan></text>
<text fill="black" style="white-space: pre" xml:space="preserve" font-family="Sage UI" font-size="8.73585" font-weight="500" letter-spacing="0px"><tspan x="1311" y="573.381">15 Apr</tspan></text>
<rect width="77" height="18" transform="translate(1221 582)" fill="#F2F5F6"/>
<text fill="black" fill-opacity="0.65" style="white-space: pre" xml:space="preserve" font-family="Sage UI" font-size="8.73585" font-weight="500" letter-spacing="0px"><tspan x="1231" y="594.381">Due date:</tspan></text>
<rect width="67" height="18" transform="translate(1301 582)" fill="#F2F5F6"/>
<text fill="black" style="white-space: pre" xml:space="preserve" font-family="Sage UI" font-size="8.73585" font-weight="500" letter-spacing="0px"><tspan x="1311" y="594.381">15 May</tspan></text>
<text fill="black" style="white-space: pre" xml:space="preserve" font-family="Sage Text" font-size="8.69021" letter-spacing="0px"><tspan x="996" y="522.926"> 50 New Salem Street&#x2028;</tspan><tspan x="996" y="536.926"> Worcester, MA, 58800</tspan></text>
<text fill="black" fill-opacity="0.65" style="white-space: pre" xml:space="preserve" font-family="Sage UI" font-size="8.73585" font-weight="500" letter-spacing="0px"><tspan x="996" y="596.381">INVOICE TO</tspan></text>
<text fill="black" style="white-space: pre" xml:space="preserve" font-family="Sage UI" font-size="8.73585" letter-spacing="0px"><tspan x="1009" y="558.381">(400) 444-2253&#x2028;</tspan><tspan x="1009" y="572.381">service@abcofficesupplies.com</tspan></text>
<line x1="996" y1="739.801" x2="1365.09" y2="739.801" stroke="#CCD6DB" stroke-width="0.545991"/>
<line x1="996" y1="767.801" x2="1365.09" y2="767.801" stroke="#CCD6DB" stroke-width="0.545991"/>
<line x1="996" y1="795.801" x2="1365.09" y2="795.801" stroke="#CCD6DB" stroke-width="0.545991"/>
<line x1="996" y1="823.801" x2="1365.09" y2="823.801" stroke="#CCD6DB" stroke-width="0.545991"/>
<line x1="996" y1="851.801" x2="1365.09" y2="851.801" stroke="#CCD6DB" stroke-width="0.545991"/>
<line x1="996" y1="879.801" x2="1365.09" y2="879.801" stroke="#CCD6DB" stroke-width="0.545991"/>
<line x1="996" y1="907.801" x2="1365.09" y2="907.801" stroke="#CCD6DB" stroke-width="0.545991"/>
<text fill="black" fill-opacity="0.9" style="white-space: pre" xml:space="preserve" font-family="Sage UI" font-size="8.73585" letter-spacing="0em"><tspan x="1137" y="729.891">1.00</tspan></text>
<text fill="black" fill-opacity="0.9" style="white-space: pre" xml:space="preserve" font-family="Sage UI" font-size="8.73585" letter-spacing="0em"><tspan x="1137" y="757.891">10.00</tspan></text>
<text fill="black" fill-opacity="0.9" style="white-space: pre" xml:space="preserve" font-family="Sage UI" font-size="8.73585" letter-spacing="0em"><tspan x="1137" y="785.891">1.00</tspan></text>
<text fill="black" fill-opacity="0.9" style="white-space: pre" xml:space="preserve" font-family="Sage UI" font-size="8.73585" letter-spacing="0em"><tspan x="1137" y="813.891">2.50</tspan></text>
<text fill="black" fill-opacity="0.9" style="white-space: pre" xml:space="preserve" font-family="Sage UI" font-size="8.73585" letter-spacing="0em"><tspan x="1137" y="841.891">1.00</tspan></text>
<text fill="black" fill-opacity="0.9" style="white-space: pre" xml:space="preserve" font-family="Sage UI" font-size="8.73585" letter-spacing="0em"><tspan x="1137" y="869.891">1.00</tspan></text>
<text fill="black" fill-opacity="0.9" style="white-space: pre" xml:space="preserve" font-family="Sage UI" font-size="8.73585" letter-spacing="0em"><tspan x="1137" y="897.891">1.00</tspan></text>
<text fill="black" fill-opacity="0.9" style="white-space: pre" xml:space="preserve" font-family="Sage UI" font-size="8.73585" letter-spacing="0em"><tspan x="1225" y="729.891">100</tspan></text>
<text fill="black" fill-opacity="0.9" style="white-space: pre" xml:space="preserve" font-family="Sage UI" font-size="8.73585" letter-spacing="0em"><tspan x="1225" y="757.891">25</tspan></text>
<text fill="black" fill-opacity="0.9" style="white-space: pre" xml:space="preserve" font-family="Sage UI" font-size="8.73585" letter-spacing="0em"><tspan x="1225" y="785.891">69</tspan></text>
<text fill="black" fill-opacity="0.9" style="white-space: pre" xml:space="preserve" font-family="Sage UI" font-size="8.73585" letter-spacing="0em"><tspan x="1225" y="813.891">25</tspan></text>
<text fill="black" fill-opacity="0.9" style="white-space: pre" xml:space="preserve" font-family="Sage UI" font-size="8.73585" letter-spacing="0em"><tspan x="1225" y="841.891">100</tspan></text>
<text fill="black" fill-opacity="0.9" style="white-space: pre" xml:space="preserve" font-family="Sage UI" font-size="8.73585" letter-spacing="0em"><tspan x="1225" y="869.891">100</tspan></text>
<text fill="black" fill-opacity="0.9" style="white-space: pre" xml:space="preserve" font-family="Sage UI" font-size="8.73585" letter-spacing="0em"><tspan x="1225" y="897.891">100</tspan></text>
<text fill="black" fill-opacity="0.9" style="white-space: pre" xml:space="preserve" font-family="Sage UI" font-size="8.73585" letter-spacing="0em"><tspan x="1307" y="729.891">100.00</tspan></text>
<text fill="black" fill-opacity="0.9" style="white-space: pre" xml:space="preserve" font-family="Sage UI" font-size="8.73585" letter-spacing="0em"><tspan x="1307" y="757.891">250.00</tspan></text>
<text fill="black" fill-opacity="0.9" style="white-space: pre" xml:space="preserve" font-family="Sage UI" font-size="8.73585" letter-spacing="0em"><tspan x="1307" y="785.891">69.00</tspan></text>
<text fill="black" fill-opacity="0.9" style="white-space: pre" xml:space="preserve" font-family="Sage UI" font-size="8.73585" letter-spacing="0em"><tspan x="1307" y="813.891">62.50</tspan></text>
<text fill="black" fill-opacity="0.9" style="white-space: pre" xml:space="preserve" font-family="Sage UI" font-size="8.73585" letter-spacing="0em"><tspan x="1307" y="841.891">2,000.00</tspan></text>
<text fill="black" fill-opacity="0.9" style="white-space: pre" xml:space="preserve" font-family="Sage UI" font-size="8.73585" letter-spacing="0em"><tspan x="1307" y="869.891">1,000.00</tspan></text>
<text fill="black" fill-opacity="0.9" style="white-space: pre" xml:space="preserve" font-family="Sage UI" font-size="8.73585" letter-spacing="0em"><tspan x="1307" y="897.891">1,000.00</tspan></text>
<text fill="black" fill-opacity="0.9" style="white-space: pre" xml:space="preserve" font-family="Sage UI" font-size="8.73585" letter-spacing="0em"><tspan x="1014.67" y="729.891">Whiteboard pens (5-pack)</tspan></text>
<text fill="black" fill-opacity="0.9" style="white-space: pre" xml:space="preserve" font-family="Sage UI" font-size="8.73585" letter-spacing="0em"><tspan x="1014.67" y="757.891">Flipchart papers</tspan></text>
<text fill="black" fill-opacity="0.9" style="white-space: pre" xml:space="preserve" font-family="Sage UI" font-size="8.73585" letter-spacing="0em"><tspan x="1014.67" y="785.891">Post-its &#x2013; multi (6-pack)</tspan></text>
<text fill="black" fill-opacity="0.9" style="white-space: pre" xml:space="preserve" font-family="Sage UI" font-size="8.73585" letter-spacing="0em"><tspan x="1014.67" y="813.891">Clips</tspan></text>
<text fill="black" fill-opacity="0.9" style="white-space: pre" xml:space="preserve" font-family="Sage UI" font-size="8.73585" letter-spacing="0em"><tspan x="1014.67" y="841.891">AA Batteries</tspan></text>
<text fill="black" fill-opacity="0.9" style="white-space: pre" xml:space="preserve" font-family="Sage UI" font-size="8.73585" letter-spacing="0em"><tspan x="1014.67" y="869.891">Card &#x2013; white 3x4</tspan></text>
<text fill="black" fill-opacity="0.9" style="white-space: pre" xml:space="preserve" font-family="Sage UI" font-size="8.73585" letter-spacing="0em"><tspan x="1014.67" y="897.891">Card &#x2013; red 5x4</tspan></text>
<path d="M996 714.959L996 687.66L1365.09 687.66L1365.09 714.959L996 714.959Z" fill="#F2F5F6"/>
<text fill="black" style="white-space: pre" xml:space="preserve" font-family="Sage UI" font-size="8.73585" letter-spacing="0px"><tspan x="1009.06" y="704.777">Item description</tspan></text>
<text fill="black" style="white-space: pre" xml:space="preserve" font-family="Sage UI" font-size="8.73585" letter-spacing="0px"><tspan x="1137" y="704.777">Unit price</tspan></text>
<text fill="black" style="white-space: pre" xml:space="preserve" font-family="Sage UI" font-size="8.73585" letter-spacing="0px"><tspan x="1225" y="704.777">Quantity</tspan></text>
<text fill="black" style="white-space: pre" xml:space="preserve" font-family="Sage UI" font-size="8.73585" letter-spacing="0px"><tspan x="1307" y="704.777">Total</tspan></text>
<text fill="#0060A7" style="white-space: pre" xml:space="preserve" font-family="Sage Text" font-size="10.69" font-weight="bold" letter-spacing="0px"><tspan x="996" y="496.637">ABC Office Supplies</tspan></text>
<text fill="black" style="white-space: pre" xml:space="preserve" font-family="Font Awesome 5 Pro" font-size="8.69021" letter-spacing="0px"><tspan x="996" y="558.259">phone</tspan></text>
<text fill="black" style="white-space: pre" xml:space="preserve" font-family="Font Awesome 5 Pro" font-size="8.69021" letter-spacing="0px"><tspan x="996" y="573.259">envelope</tspan></text>
</g>
<rect x="0.5" y="0.5" width="1439" height="919" rx="19.5" stroke="#E2E2E2"/>
<defs>
<radialGradient id="paint0_radial_6206_50909" cx="0" cy="0" r="1" gradientTransform="matrix(10.5 9.5 -7.88115 9.9214 1295.5 28)" gradientUnits="userSpaceOnUse">
<stop offset="0.341666" stop-color="#9D60FF"/>
<stop offset="0.72" stop-color="#00D6DE"/>
<stop offset="0.896666" stop-color="#00D639"/>
</radialGradient>
<linearGradient id="paint1_linear_6206_50909" x1="1282.5" y1="54" x2="1294.47" y2="25.5352" gradientUnits="userSpaceOnUse">
<stop stop-color="#00D639"/>
<stop offset="0.4" stop-color="#00D6DE"/>
<stop offset="0.9" stop-color="#9D60FF"/>
</linearGradient>
<clipPath id="clip0_6206_50909">
<rect width="1440" height="920" rx="20" fill="white"/>
</clipPath>
<clipPath id="clip1_6206_50909">
<rect width="1440" height="69.3333" fill="white"/>
</clipPath>
<clipPath id="clip2_6206_50909">
<rect width="333.333" height="53.3333" fill="white" transform="translate(130.667 66.8335)"/>
</clipPath>
<clipPath id="clip3_6206_50909">
<rect x="24" y="210" width="1392" height="48" rx="8" fill="white"/>
</clipPath>
<clipPath id="clip4_6206_50909">
<rect width="32" height="47" fill="white" transform="translate(24 210)"/>
</clipPath>
<clipPath id="clip5_6206_50909">
<rect width="902" height="469" fill="white" transform="translate(24 450)"/>
</clipPath>
<clipPath id="clip6_6206_50909">
<rect x="40" y="551" width="870" height="640" rx="5" fill="white"/>
</clipPath>
<clipPath id="clip7_6206_50909">
<rect width="1091" height="543" fill="white" transform="translate(40 648)"/>
</clipPath>
<clipPath id="clip8_6206_50909">
<rect width="870" height="543.247" fill="white" transform="translate(40 649.031)"/>
</clipPath>
<clipPath id="clip9_6206_50909">
<rect width="870" height="97" fill="white" transform="translate(40 551)"/>
</clipPath>
</defs>
</svg>
