<svg xmlns:xlink="http://www.w3.org/1999/xlink"  class=" responsive-svg" aria-hidden="true" width="952" height="638" viewBox="0 0 952 638" fill="none" xmlns="http://www.w3.org/2000/svg" id="svgembed-180090b60d0340ec9d718f8345a01ae6-0">
<g filter="url(#filter0_d_4040_29344)">
<rect x="107" y="410" width="740" height="114" rx="20" fill="white"></rect>
</g>
<rect x="67.5" y="51.5" width="819" height="472" rx="19.5" fill="white" stroke="#E2E2E2"></rect>
<rect x="235" y="112" width="632" height="392" fill="white"></rect>
<path opacity="0.7" d="M235 142L867 141.062" stroke="#D9D9D6" stroke-width="2" stroke-miterlimit="10"></path>
<text fill="black" xml:space="preserve" style="white-space: pre" font-family="Sage UI" font-size="12" letter-spacing="0px"><tspan x="253" y="131.644">Manufacturing</tspan></text>
<text fill="black" xml:space="preserve" style="white-space: pre" font-family="Sage UI" font-size="12" letter-spacing="0px"><tspan x="355" y="131.644">KPIs</tspan></text>
<path d="M67.5 71C67.5 60.2304 76.2304 51.5 87 51.5H209.5V523.5H87C76.2304 523.5 67.5 514.77 67.5 504V71Z" fill="white" stroke="#F0F0F0"></path>
<path d="M67 71C67 59.9543 75.9543 51 87 51H210V91H67V71Z" fill="#E2E2E2"></path>
<rect x="83" y="344" width="100" height="16" fill="black" fill-opacity="0.08"></rect>
<rect x="83" y="384" width="100" height="16" fill="black" fill-opacity="0.08"></rect>
<rect x="83" y="424" width="100" height="16" fill="black" fill-opacity="0.08"></rect>
<rect x="83" y="464" width="100" height="16" fill="black" fill-opacity="0.08"></rect>
<path opacity="0.7" d="M67 92H210" stroke="#D9D9D6" stroke-width="2" stroke-miterlimit="10"></path>
<path opacity="0.7" d="M67 132H210" stroke="#D9D9D6" stroke-width="2" stroke-miterlimit="10"></path>
<path opacity="0.7" d="M67 172H210" stroke="#D9D9D6" stroke-width="2" stroke-miterlimit="10"></path>
<path opacity="0.7" d="M67 212H210" stroke="#D9D9D6" stroke-width="2" stroke-miterlimit="10"></path>
<path opacity="0.7" d="M67 252H210" stroke="#D9D9D6" stroke-width="2" stroke-miterlimit="10"></path>
<path opacity="0.7" d="M67 292H210" stroke="#D9D9D6" stroke-width="2" stroke-miterlimit="10"></path>
<path opacity="0.7" d="M67 332H210" stroke="#D9D9D6" stroke-width="2" stroke-miterlimit="10"></path>
<path opacity="0.7" d="M67 372H210" stroke="#D9D9D6" stroke-width="2" stroke-miterlimit="10"></path>
<path opacity="0.7" d="M67 412H210" stroke="#D9D9D6" stroke-width="2" stroke-miterlimit="10"></path>
<path opacity="0.7" d="M67 452H210" stroke="#D9D9D6" stroke-width="2" stroke-miterlimit="10"></path>
<text fill="black" xml:space="preserve" style="white-space: pre" font-family="Sage UI" font-size="13" letter-spacing="0px"><tspan x="83" y="77.031">Manufacturing</tspan></text>
<text fill="black" xml:space="preserve" style="white-space: pre" font-family="Sage UI" font-size="13" letter-spacing="0px"><tspan x="83" y="117.031">Distribution</tspan></text>
<text fill="black" xml:space="preserve" style="white-space: pre" font-family="Sage UI" font-size="13" letter-spacing="0px"><tspan x="83" y="157.031">Financials</tspan></text>
<text fill="black" xml:space="preserve" style="white-space: pre" font-family="Sage UI" font-size="13" letter-spacing="0px"><tspan x="83" y="197.031">Regulatory</tspan></text>
<text fill="black" xml:space="preserve" style="white-space: pre" font-family="Sage UI" font-size="13" letter-spacing="0px"><tspan x="83" y="237.031">CRM</tspan></text>
<text fill="black" xml:space="preserve" style="white-space: pre" font-family="Sage UI" font-size="13" letter-spacing="0px"><tspan x="83" y="277.031">Development</tspan></text>
<text fill="black" xml:space="preserve" style="white-space: pre" font-family="Sage UI" font-size="13" letter-spacing="0px"><tspan x="83" y="317.031">Warehouse</tspan></text>
<text fill="black" xml:space="preserve" style="white-space: pre" font-family="Sage UI" font-size="22" font-weight="bold" letter-spacing="0px"><tspan x="235" y="95.514">Manufacturing</tspan></text>
<text fill="black" xml:space="preserve" style="white-space: pre" font-family="Sage UI" font-size="16" letter-spacing="0px"><tspan x="342.688" y="188.692"> PH</tspan></text>
<text fill="black" xml:space="preserve" style="white-space: pre" font-family="Sage UI" font-size="16" font-weight="bold" letter-spacing="0px"><tspan x="253" y="188.692">Quality KPI:</tspan></text>
<text fill="black" xml:space="preserve" style="white-space: pre" font-family="Sage UI" font-size="16" font-weight="bold" letter-spacing="0px"><tspan x="555" y="188.692">Sales</tspan></text>
<text fill="black" xml:space="preserve" style="white-space: pre" font-family="Sage UI" font-size="16" letter-spacing="0px"><tspan x="629.297" y="188.692"> Top Products</tspan></text>
<text fill="black" xml:space="preserve" style="white-space: pre" font-family="Sage UI" font-size="16" font-weight="bold" letter-spacing="0px"><tspan x="595.625" y="188.692"> KPI:</tspan></text>
<text fill="black" xml:space="preserve" style="white-space: pre" font-family="Sage UI" font-size="16" letter-spacing="0px"><tspan x="316" y="465.692">PH Analysis / QC Request</tspan></text>
<text fill="black" xml:space="preserve" style="white-space: pre" font-family="Sage UI" font-size="16" letter-spacing="0px"><tspan x="660" y="465.692">Ordered Qty</tspan></text>
<line x1="353" y1="141.5" x2="380" y2="141.5" stroke="#00A159" stroke-width="3"></line>
<rect x="256.5" y="204.5" width="294" height="235" stroke="#E2E2E2"></rect>
<rect x="555.5" y="204.5" width="294" height="235" stroke="#E2E2E2"></rect>
<rect x="585" y="398" width="36" height="42" fill="#2982A6"></rect>
<rect x="653" y="358" width="36" height="82" fill="#006388"></rect>
<rect x="721" y="315" width="36" height="125" fill="#00537A"></rect>
<rect x="789" y="258" width="36" height="182" fill="#004465"></rect>
<path d="M270.5 412C321.5 412 414.2 412 447 412C491.5 412 524.5 391 534 380.5" stroke="#00537A" stroke-width="4" stroke-linecap="round"></path>
<path d="M271 364C321.903 364 348.762 364 381.5 364C479.5 364 524.518 274 534 229" stroke="#00BB66" stroke-width="4" stroke-linecap="round"></path>
<path d="M271 389C305.53 389 376.15 389 420 389C495.097 389 534 336 534 298" stroke="#37B5B3" stroke-width="4" stroke-linecap="round"></path>
<defs>
<filter id="filter0_d_4040_29344" x="67" y="394" width="820" height="194" filterUnits="userSpaceOnUse" color-interpolation-filters="sRGB">
<feFlood flood-opacity="0" result="BackgroundImageFix"></feFlood>
<feColorMatrix in="SourceAlpha" type="matrix" values="0 0 0 0 0 0 0 0 0 0 0 0 0 0 0 0 0 0 127 0" result="hardAlpha"></feColorMatrix>
<feOffset dy="24"></feOffset>
<feGaussianBlur stdDeviation="20"></feGaussianBlur>
<feComposite in2="hardAlpha" operator="out"></feComposite>
<feColorMatrix type="matrix" values="0 0 0 0 0 0 0 0 0 0 0 0 0 0 0 0 0 0 0.1 0"></feColorMatrix>
<feBlend mode="normal" in2="BackgroundImageFix" result="effect1_dropShadow_4040_29344"></feBlend>
<feBlend mode="normal" in="SourceGraphic" in2="effect1_dropShadow_4040_29344" result="shape"></feBlend>
</filter>
</defs>
</svg>