<svg xmlns:xlink="http://www.w3.org/1999/xlink"  class=" responsive-svg" aria-hidden="true" width="708" height="544" viewBox="0 0 708 544" fill="none" xmlns="http://www.w3.org/2000/svg" id="svgembed-ebf44c49b4e54def9f29d09635e6196e-0">
<g clip-path="url(#clip0_1072_18875)">
<g filter="url(#filter0_d_1072_18875)">
<rect x="87.7578" y="389.631" width="554.18" height="94.7402" rx="20.3742" fill="white"></rect>
</g>
<rect x="47.0078" y="0.476562" width="635.676" height="483.888" rx="20.3742" fill="#F2F5F6"></rect>
<rect x="47.5172" y="31.5465" width="634.658" height="44.8233" fill="white" stroke="#E6EBED" stroke-width="1.01871"></rect>
<path d="M47.0078 20.8508C47.0078 9.59843 56.1297 0.476562 67.3821 0.476562H662.31C673.562 0.476562 682.684 9.59843 682.684 20.8508V31.0379H47.0078V20.8508Z" fill="#004D2A"></path>
<rect x="234.861" y="41.6321" width="61.3265" height="21.5967" fill="#F7F7F7"></rect>
<text fill="black" xml:space="preserve" style="white-space: pre" font-family="Sage UI" font-size="10.1871" font-weight="500" letter-spacing="0px"><tspan x="244.993" y="56.2605">Sales</tspan></text>
<g clip-path="url(#clip1_1072_18875)">
<path d="M278.263 51.6626L281.828 55.2281L285.394 51.6626" stroke="black" stroke-width="1.01871"></path>
</g>
<rect x="234.861" y="41.6321" width="61.3265" height="21.5967" stroke="#CCD6DB" stroke-width="0.81497"></rect>
<rect x="448.79" y="41.6321" width="80.682" height="21.5967" fill="#F7F7F7"></rect>
<text fill="black" fill-opacity="0.65" xml:space="preserve" style="white-space: pre" font-family="Sage Text" font-size="8.1497" letter-spacing="0px"><tspan x="458.569" y="55.4628">As of today</tspan></text>
<g clip-path="url(#clip2_1072_18875)">
<path d="M518.365 50.8956V56.7723H509.807V50.8956H518.365ZM519.686 49.6343H508.486V58.0336H519.686V49.6343Z" fill="black"></path>
<path d="M519.692 48.2019H508.486V50.2117H519.692V48.2019Z" fill="black"></path>
<path d="M512.578 47.0925H509.819V49.6383H512.578V47.0925Z" fill="white"></path>
<path d="M511.936 46.8276H510.476V49.0328H511.936V46.8276Z" fill="black"></path>
<path d="M518.354 47.0925H515.595V49.6383H518.354V47.0925Z" fill="white"></path>
<path d="M517.705 46.8276H516.245V49.0329H517.705V46.8276Z" fill="black"></path>
<path d="M512.722 51.7805H511.262V53.4665H512.722V51.7805Z" fill="black"></path>
<path d="M514.816 51.7825H513.356V53.4685H514.816V51.7825Z" fill="black"></path>
<path d="M514.817 54.1987H513.357V55.8848H514.817V54.1987Z" fill="black"></path>
<path d="M516.915 51.7825H515.455V53.4685H516.915V51.7825Z" fill="black"></path>
<path d="M512.722 54.1987H511.262V55.8848H512.722V54.1987Z" fill="black"></path>
<path d="M516.914 54.1987H515.454V55.8848H516.914V54.1987Z" fill="black"></path>
</g>
<rect x="448.79" y="41.6321" width="80.682" height="21.5967" stroke="#CCD6DB" stroke-width="0.81497"></rect>
<rect x="540.474" y="41.6321" width="86.7943" height="21.5967" fill="#F7F7F7"></rect>
<text fill="black" fill-opacity="0.65" xml:space="preserve" style="white-space: pre" font-family="Sage Text" font-size="8.1497" letter-spacing="0px"><tspan x="550.253" y="55.4628">All locations</tspan></text>
<path d="M608.32 52.9399L611.554 55.7119C611.745 55.8754 612.027 55.8754 612.217 55.7119L615.451 52.9399" stroke="black" stroke-width="1.22245" stroke-linecap="round"></path>
<rect x="540.474" y="41.6321" width="86.7943" height="21.5967" stroke="#CCD6DB" stroke-width="0.81497"></rect>
<rect x="638.27" y="41.6321" width="28.7277" height="21.5967" fill="#F7F7F7"></rect>
<path fill-rule="evenodd" clip-rule="evenodd" d="M653.207 48.9922C652.921 48.9922 652.95 48.9922 652.634 48.9922C652.315 48.9922 652.347 48.9922 652.061 48.9922V51.8573H649.196C649.196 52.1438 649.196 52.1139 649.196 52.4303C649.196 52.749 649.196 52.7169 649.196 53.0034L652.061 53.0034V55.8685C652.347 55.8685 652.318 55.8685 652.634 55.8685C652.953 55.8685 652.92 55.8685 653.207 55.8685L653.207 53.0034L656.072 53.0034C656.072 52.7169 656.072 52.7468 656.072 52.4303C656.072 52.1117 656.072 52.1438 656.072 51.8573L653.207 51.8573V48.9922Z" fill="black" fill-opacity="0.9"></path>
<rect x="638.27" y="41.6321" width="28.7277" height="21.5967" stroke="#CCD6DB" stroke-width="0.81497"></rect>
<text fill="black" xml:space="preserve" style="white-space: pre" font-family="Sage UI" font-size="18.3368" font-weight="bold" letter-spacing="0px"><tspan x="81.6406" y="59.5268">CFO Dashboard</tspan></text>
<circle cx="70.9483" cy="51.921" r="3.56549" fill="#00D639"></circle>
<rect x="62.2891" y="87.0684" width="605.115" height="91.6841" rx="3.05614" fill="white"></rect>
<path d="M220.703 87.0684L220.703 178.752M344.986 87.0684V178.752M512.055 87.0684V178.752" stroke="#E6EBED" stroke-width="1.01871"></path>
<text fill="black" xml:space="preserve" style="white-space: pre" font-family="Sage UI" font-size="12.2245" letter-spacing="0px"><tspan x="82.6641" y="116.612">Assets</tspan></text>
<text fill="black" xml:space="preserve" style="white-space: pre" font-family="Sage UI" font-size="18.3368" font-weight="bold" letter-spacing="0px"><tspan x="82.6641" y="144.889">$14,441K</tspan></text>
<rect width="17.3181" height="18.3368" transform="translate(181.479 128.83)" fill="white"></rect>
<line x1="190.102" y1="134.53" x2="190.102" y2="144.523" stroke="#00D639" stroke-width="2.98483" stroke-linecap="round"></line>
<path d="M195.741 136.478L190.655 131.569C190.367 131.291 189.91 131.291 189.622 131.569L184.535 136.478" stroke="#00D639" stroke-width="2.98831" stroke-linecap="round"></path>
<text fill="black" xml:space="preserve" style="white-space: pre" font-family="Sage UI" font-size="12.2245" letter-spacing="0px"><tspan x="251.773" y="116.612">Revenue</tspan></text>
<text fill="black" xml:space="preserve" style="white-space: pre" font-family="Sage UI" font-size="18.3368" font-weight="bold" letter-spacing="0px"><tspan x="251.773" y="144.889">$74,472</tspan></text>
<text fill="black" xml:space="preserve" style="white-space: pre" font-family="Sage UI" font-size="12.2245" letter-spacing="0px"><tspan x="376.055" y="116.612">Expenses</tspan></text>
<text fill="black" xml:space="preserve" style="white-space: pre" font-family="Sage UI" font-size="18.3368" font-weight="bold" letter-spacing="0px"><tspan x="376.055" y="144.889">$277,475</tspan></text>
<rect width="17.3181" height="18.3368" transform="translate(473.851 128.83)" fill="white"></rect>
<line x1="482.474" y1="134.53" x2="482.474" y2="144.523" stroke="#00D639" stroke-width="2.98483" stroke-linecap="round"></line>
<path d="M488.113 136.478L483.027 131.569C482.739 131.291 482.282 131.291 481.994 131.569L476.907 136.478" stroke="#00D639" stroke-width="2.98831" stroke-linecap="round"></path>
<text fill="black" xml:space="preserve" style="white-space: pre" font-family="Sage UI" font-size="12.2245" letter-spacing="0px"><tspan x="543.125" y="116.612">Net Income</tspan></text>
<text fill="black" xml:space="preserve" style="white-space: pre" font-family="Sage UI" font-size="18.3368" font-weight="bold" letter-spacing="0px"><tspan x="543.125" y="144.889">$435,118</tspan></text>
<rect width="17.3181" height="18.3368" transform="translate(658.239 147.167) rotate(-180)" fill="white"></rect>
<path d="M643.977 136.81L649.052 131.735C649.343 131.444 649.816 131.444 650.108 131.735L655.183 136.81" stroke="#00D639" stroke-width="2.98831" stroke-linecap="round"></path>
<line x1="649.581" y1="134.195" x2="649.581" y2="144.654" stroke="#00D639" stroke-width="2.98831" stroke-linecap="round"></line>
<rect x="436.156" y="194.031" width="231.248" height="264.865" rx="3.05614" fill="white"></rect>
<rect x="456.531" y="298.959" width="35.6549" height="190.499" transform="rotate(-90 456.531 298.959)" fill="#F7F7F7"></rect>
<text fill="black" xml:space="preserve" style="white-space: pre" font-family="Sage UI" font-size="14.262" font-weight="bold" letter-spacing="0px"><tspan x="456.531" y="223.334">Cash Flow Detail by Entity</tspan></text>
<line x1="456.531" y1="247.518" x2="647.03" y2="247.518" stroke="#CCD6DB" stroke-width="1.01871"></line>
<text fill="black" xml:space="preserve" style="white-space: pre" font-family="Sage UI" font-size="10.1871" letter-spacing="0px"><tspan x="610.15" y="277.319">Maine</tspan></text>
<text fill="black" xml:space="preserve" style="white-space: pre" font-family="Sage UI" font-size="8.1497" letter-spacing="0px"><tspan x="591.653" y="290.814">03/04/2020</tspan></text>
<text fill="black" xml:space="preserve" style="white-space: pre" font-family="Sage UI" font-size="10.1871" letter-spacing="0px"><tspan x="552.767" y="277.319">Texas</tspan></text>
<text fill="black" xml:space="preserve" style="white-space: pre" font-family="Sage UI" font-size="8.1497" letter-spacing="0px"><tspan x="532.567" y="290.814">03/04/2020</tspan></text>
<text fill="black" fill-opacity="0.9" xml:space="preserve" style="white-space: pre" font-family="Sage UI" font-size="8.1497" font-weight="bold" letter-spacing="0px"><tspan x="456.531" y="323.41">Operations</tspan></text>
<text fill="black" fill-opacity="0.65" xml:space="preserve" style="white-space: pre" font-family="Sage UI" font-size="8.1497" letter-spacing="0px"><tspan x="456.531" y="343.781">Net income</tspan></text>
<text fill="black" fill-opacity="0.65" xml:space="preserve" style="white-space: pre" font-family="Sage UI" font-size="8.1497" letter-spacing="0px"><tspan x="534.606" y="343.781">331,687.23</tspan></text>
<text fill="black" fill-opacity="0.65" xml:space="preserve" style="white-space: pre" font-family="Sage UI" font-size="8.1497" letter-spacing="0px"><tspan x="594.5" y="343.781">98,476.89</tspan></text>
<text fill="black" fill-opacity="0.9" xml:space="preserve" style="white-space: pre" font-family="Sage UI" font-size="8.1497" font-weight="bold" letter-spacing="0px"><tspan x="456.531" y="437.511">Changes in Cash from Operating Activities</tspan></text>
<text fill="black" fill-opacity="0.65" xml:space="preserve" style="white-space: pre" font-family="Sage UI" font-size="8.1497" letter-spacing="0px"><tspan x="456.531" y="457.882">Accounts </tspan></text>
<text fill="black" fill-opacity="0.65" xml:space="preserve" style="white-space: pre" font-family="Sage UI" font-size="8.1497" letter-spacing="0px"><tspan x="529.907" y="457.882">(386,000.00)</tspan></text>
<text fill="black" fill-opacity="0.65" xml:space="preserve" style="white-space: pre" font-family="Sage UI" font-size="8.1497" letter-spacing="0px"><tspan x="589.805" y="457.882">(97,607.00)</tspan></text>
<text fill="black" fill-opacity="0.65" xml:space="preserve" style="white-space: pre" font-family="Sage UI" font-size="8.1497" letter-spacing="0px"><tspan x="456.531" y="366.197">Items not </tspan><tspan x="456.531" y="376.197">requiring cash</tspan></text>
<text fill="black" fill-opacity="0.9" xml:space="preserve" style="white-space: pre" font-family="Sage UI" font-size="8.1497" font-weight="500" letter-spacing="0px"><tspan x="456.531" y="399.814">Total Operations </tspan><tspan x="456.531" y="409.814">for Cash Flow</tspan></text>
<text fill="black" fill-opacity="0.65" xml:space="preserve" style="white-space: pre" font-family="Sage UI" font-size="8.1497" letter-spacing="0px"><tspan x="561.066" y="371.291">0.00</tspan></text>
<text fill="black" fill-opacity="0.65" xml:space="preserve" style="white-space: pre" font-family="Sage UI" font-size="8.1497" letter-spacing="0px"><tspan x="616.082" y="371.291">0.00</tspan></text>
<text fill="black" fill-opacity="0.9" xml:space="preserve" style="white-space: pre" font-family="Sage UI" font-size="8.1497" font-weight="500" letter-spacing="0px"><tspan x="534.343" y="402.873">331,687.23</tspan></text>
<text fill="black" fill-opacity="0.9" xml:space="preserve" style="white-space: pre" font-family="Sage UI" font-size="8.1497" font-weight="500" letter-spacing="0px"><tspan x="594.238" y="402.873">98,476.89</tspan></text>
<line x1="456.531" y1="385.041" x2="646.012" y2="385.041" stroke="#E2E2E2" stroke-width="1.01871"></line>
<line x1="456.531" y1="353.465" x2="646.012" y2="353.465" stroke="#E2E2E2" stroke-width="1.01871"></line>
<g filter="url(#filter1_d_1072_18875)">
<rect x="40.8984" y="415.096" width="400.354" height="45.842" rx="20.3742" fill="white"></rect>
</g>
<rect x="16.9547" y="145.648" width="423.784" height="314.782" rx="14.7713" fill="white" stroke="#E6EBED" stroke-width="1.01871"></rect>
<text fill="black" xml:space="preserve" style="white-space: pre" font-family="Sage UI" font-size="14.262" font-weight="bold" letter-spacing="0px"><tspan x="47.0078" y="179.529">Net Income by Location</tspan></text>
<text fill="black" xml:space="preserve" style="white-space: pre" font-family="Sage UI" font-size="12.2245" letter-spacing="0px"><tspan x="67.9558" y="251.092">Texas</tspan></text>
<text fill="black" xml:space="preserve" style="white-space: pre" font-family="Sage UI" font-size="12.2245" letter-spacing="0px"><tspan x="65.9128" y="297.957">Maine</tspan></text>
<text fill="black" xml:space="preserve" style="white-space: pre" font-family="Sage UI" font-size="12.2245" letter-spacing="0px"><tspan x="45.8681" y="345.83">California</tspan></text>
<text fill="black" xml:space="preserve" style="white-space: pre" font-family="Sage UI" font-size="12.2245" letter-spacing="0px"><tspan x="60.3017" y="392.688">Florida</tspan></text>
<rect x="165.18" y="219.506" width="66.2163" height="199.668" fill="#F7F7F7"></rect>
<rect x="288.438" y="219.506" width="66.2163" height="199.668" fill="#F7F7F7"></rect>
<rect x="408.648" y="227.65" width="36.6737" height="298.483" transform="rotate(90 408.648 227.65)" fill="#CBD95D"></rect>
<rect x="192.688" y="275.537" width="35.6549" height="82.5157" transform="rotate(90 192.688 275.537)" fill="#5DB2B1"></rect>
<rect x="267.047" y="322.396" width="35.6549" height="156.882" transform="rotate(90 267.047 322.396)" fill="#FFB500"></rect>
<rect x="304.742" y="369.254" width="35.6549" height="194.574" transform="rotate(90 304.742 369.254)" fill="#ED7D43"></rect>
<line x1="109.658" y1="219.506" x2="109.658" y2="419.173" stroke="#D1DADE" stroke-width="1.01871"></line>
<text fill="black" fill-opacity="0.65" xml:space="preserve" style="white-space: pre" font-family="Sage Text" font-size="12.2245" letter-spacing="0px"><tspan x="108.125" y="440.016">0</tspan></text>
<text fill="black" fill-opacity="0.65" xml:space="preserve" style="white-space: pre" font-family="Sage Text" font-size="12.2245" letter-spacing="0px"><tspan x="170.266" y="440.016">80k</tspan></text>
<text fill="black" fill-opacity="0.65" xml:space="preserve" style="white-space: pre" font-family="Sage Text" font-size="12.2245" letter-spacing="0px"><tspan x="237.508" y="440.016">160k</tspan></text>
<text fill="black" fill-opacity="0.65" xml:space="preserve" style="white-space: pre" font-family="Sage Text" font-size="12.2245" letter-spacing="0px"><tspan x="305.758" y="440.016">240k</tspan></text>
<text fill="black" fill-opacity="0.65" xml:space="preserve" style="white-space: pre" font-family="Sage Text" font-size="12.2245" letter-spacing="0px"><tspan x="375.031" y="440.016">300k</tspan></text>
</g>
<defs>
<filter id="filter0_d_1072_18875" x="47.0093" y="373.331" width="635.677" height="176.237" filterUnits="userSpaceOnUse" color-interpolation-filters="sRGB">
<feFlood flood-opacity="0" result="BackgroundImageFix"></feFlood>
<feColorMatrix in="SourceAlpha" type="matrix" values="0 0 0 0 0 0 0 0 0 0 0 0 0 0 0 0 0 0 127 0" result="hardAlpha"></feColorMatrix>
<feOffset dy="24.4491"></feOffset>
<feGaussianBlur stdDeviation="20.3742"></feGaussianBlur>
<feComposite in2="hardAlpha" operator="out"></feComposite>
<feColorMatrix type="matrix" values="0 0 0 0 0 0 0 0 0 0 0 0 0 0 0 0 0 0 0.1 0"></feColorMatrix>
<feBlend mode="normal" in2="BackgroundImageFix" result="effect1_dropShadow_1072_18875"></feBlend>
<feBlend mode="normal" in="SourceGraphic" in2="effect1_dropShadow_1072_18875" result="shape"></feBlend>
</filter>
<filter id="filter1_d_1072_18875" x="16.4493" y="402.871" width="449.252" height="94.7402" filterUnits="userSpaceOnUse" color-interpolation-filters="sRGB">
<feFlood flood-opacity="0" result="BackgroundImageFix"></feFlood>
<feColorMatrix in="SourceAlpha" type="matrix" values="0 0 0 0 0 0 0 0 0 0 0 0 0 0 0 0 0 0 127 0" result="hardAlpha"></feColorMatrix>
<feOffset dy="12.2245"></feOffset>
<feGaussianBlur stdDeviation="12.2245"></feGaussianBlur>
<feComposite in2="hardAlpha" operator="out"></feComposite>
<feColorMatrix type="matrix" values="0 0 0 0 0 0 0 0 0 0 0 0 0 0 0 0 0 0 0.1 0"></feColorMatrix>
<feBlend mode="normal" in2="BackgroundImageFix" result="effect1_dropShadow_1072_18875"></feBlend>
<feBlend mode="normal" in="SourceGraphic" in2="effect1_dropShadow_1072_18875" result="shape"></feBlend>
</filter>
<clipPath id="clip0_1072_18875">
<rect width="708" height="543" fill="white" transform="translate(0 0.849609)"></rect>
</clipPath>
<clipPath id="clip1_1072_18875">
<rect width="9.16841" height="9.16841" fill="white" transform="translate(277.239 47.8462)"></rect>
</clipPath>
<clipPath id="clip2_1072_18875">
<rect width="11.2058" height="11.2058" fill="white" transform="translate(508.486 46.8276)"></rect>
</clipPath>
</defs>
</svg>