<svg width="314" height="558" viewBox="0 0 314 558" fill="none" xmlns="http://www.w3.org/2000/svg">
<g clip-path="url(#clip0_1093_29276)">
<rect x="1.77148" y="1.77148" width="310.01" height="553.991" rx="155.005" fill="#1B1B1B" stroke="#1B1B1B" stroke-width="3.54297"/>
<path d="M156.559 311.61C156.559 304.237 162.558 298.177 169.879 299.054C192.193 301.729 213.299 311.079 230.35 326.032C250.764 343.935 263.974 368.648 267.518 395.567C271.062 422.487 264.698 449.777 249.614 472.353C234.529 494.929 211.751 511.251 185.525 518.278C159.298 525.306 131.411 522.559 107.059 510.55C82.7074 498.541 63.5518 478.089 53.1612 453.004C42.7707 427.919 41.8538 399.912 50.5815 374.201C57.8715 352.725 71.475 334.075 89.462 320.602C95.3638 316.181 103.589 318.43 107.276 324.816C110.963 331.202 108.69 339.293 102.958 343.931C90.5076 354.005 81.0734 367.449 75.8676 382.784C69.2224 402.361 69.9204 423.685 77.8318 442.785C85.7432 461.885 100.328 477.457 118.87 486.601C137.411 495.744 158.644 497.836 178.613 492.485C198.582 487.134 215.925 474.707 227.411 457.517C238.896 440.328 243.741 419.549 241.043 399.053C238.344 378.556 228.287 359.74 212.744 346.109C200.567 335.43 185.675 328.505 169.856 326.006C162.572 324.855 156.559 318.984 156.559 311.61Z" fill="#00D639"/>
<path d="M117.102 319.853C114.151 313.096 117.222 305.141 124.282 303.015C126.144 302.454 128.019 301.942 129.907 301.479C137.069 299.723 143.756 305.014 144.647 312.334L144.764 313.292C145.59 320.083 140.716 326.169 134.117 327.971C127.518 329.772 120.227 327.007 117.489 320.738L117.102 319.853Z" fill="#303030"/>
<path d="M50.3076 152.134C50.2613 152.296 50.1918 152.435 50.0992 152.551C50.0066 152.643 49.8562 152.689 49.6478 152.689H46.4188C46.2336 152.689 46.1063 152.643 46.0369 152.551C45.9674 152.435 45.9558 152.308 46.0021 152.169L53.8491 128.836C53.8954 128.674 53.9648 128.558 54.0574 128.489C54.15 128.419 54.2773 128.385 54.4394 128.385H58.3628C58.5249 128.385 58.6522 128.419 58.7448 128.489C58.8374 128.558 58.9184 128.674 58.9878 128.836L66.8348 152.169C66.8811 152.308 66.8579 152.435 66.7654 152.551C66.6959 152.643 66.5802 152.689 66.4181 152.689H62.9113C62.703 152.689 62.5525 152.643 62.4599 152.551C62.3905 152.435 62.3326 152.296 62.2863 152.134L60.6544 146.96H51.9394L50.3076 152.134ZM52.9811 143.697H59.6128L56.3143 133.176L52.9811 143.697ZM80.0459 145.919V135.225C80.0459 135.086 80.0806 134.97 80.1501 134.878C80.2427 134.785 80.37 134.739 80.532 134.739H83.6569C83.8189 134.739 83.9347 134.785 84.0041 134.878C84.0967 134.97 84.143 135.086 84.143 135.225V152.203C84.143 152.342 84.0967 152.458 84.0041 152.551C83.9347 152.643 83.8189 152.689 83.6569 152.689H80.532C80.37 152.689 80.2427 152.643 80.1501 152.551C80.0806 152.458 80.0459 152.342 80.0459 152.203V150.085C79.5367 151.011 78.8422 151.729 77.9626 152.238C77.1062 152.724 76.1456 152.967 75.0808 152.967C73.391 152.967 71.9906 152.412 70.8795 151.301C69.7685 150.19 69.2129 148.627 69.2129 146.613V135.225C69.2129 135.086 69.2592 134.97 69.3518 134.878C69.4444 134.785 69.5717 134.739 69.7337 134.739H72.8239C73.0091 134.739 73.1364 134.785 73.2058 134.878C73.2753 134.97 73.31 135.086 73.31 135.225V145.919C73.31 147.169 73.6225 148.118 74.2475 148.766C74.8725 149.414 75.671 149.738 76.6432 149.738C77.6154 149.738 78.4256 149.414 79.0737 148.766C79.7218 148.118 80.0459 147.169 80.0459 145.919ZM96.5121 152.967C94.8918 152.967 93.6418 152.551 92.7622 151.717C91.8826 150.861 91.4428 149.738 91.4428 148.349V137.933H87.7624C87.6467 137.933 87.5541 137.898 87.4846 137.829C87.4152 137.759 87.3805 137.655 87.3805 137.516V135.121C87.3805 134.982 87.4152 134.889 87.4846 134.843C87.5541 134.773 87.6467 134.739 87.7624 134.739H91.4428V130.329C91.4428 130.19 91.4776 130.074 91.547 129.982C91.6164 129.889 91.7322 129.843 91.8942 129.843H95.0191C95.1811 129.843 95.2969 129.889 95.3663 129.982C95.4589 130.074 95.5052 130.19 95.5052 130.329V134.739H99.9148C100.031 134.739 100.123 134.773 100.193 134.843C100.285 134.889 100.331 134.982 100.331 135.121V137.516C100.331 137.655 100.285 137.759 100.193 137.829C100.123 137.898 100.031 137.933 99.9148 137.933H95.5052V147.516C95.5052 148.187 95.6904 148.708 96.0607 149.078C96.4542 149.449 96.9866 149.634 97.6579 149.634C98.0051 149.634 98.3408 149.599 98.6648 149.53C99.012 149.46 99.3824 149.368 99.7759 149.252C99.9148 149.206 100.019 149.217 100.088 149.287C100.181 149.333 100.227 149.403 100.227 149.495L100.331 151.891C100.331 151.983 100.32 152.064 100.297 152.134C100.274 152.203 100.216 152.261 100.123 152.308C99.7065 152.516 99.1741 152.678 98.5259 152.794C97.8778 152.909 97.2065 152.967 96.5121 152.967ZM102.452 143.697C102.452 142.979 102.499 142.296 102.591 141.648C102.707 140.977 102.869 140.363 103.077 139.808C103.286 139.229 103.529 138.697 103.807 138.211C104.107 137.725 104.443 137.285 104.813 136.891C105.184 136.475 105.589 136.116 106.029 135.815C106.468 135.514 106.931 135.259 107.418 135.051C107.927 134.843 108.459 134.692 109.015 134.6C109.57 134.484 110.149 134.426 110.751 134.426C111.353 134.426 111.931 134.484 112.487 134.6C113.042 134.692 113.563 134.843 114.049 135.051C114.558 135.259 115.033 135.514 115.473 135.815C115.913 136.116 116.318 136.475 116.688 136.891C117.058 137.285 117.382 137.725 117.66 138.211C117.961 138.697 118.216 139.229 118.424 139.808C118.632 140.363 118.783 140.977 118.875 141.648C118.991 142.296 119.049 142.979 119.049 143.697C119.049 144.437 118.991 145.132 118.875 145.78C118.783 146.428 118.632 147.041 118.424 147.62C118.216 148.199 117.961 148.731 117.66 149.217C117.382 149.703 117.058 150.143 116.688 150.537C116.318 150.93 115.913 151.277 115.473 151.578C115.033 151.879 114.558 152.134 114.049 152.342C113.563 152.551 113.042 152.701 112.487 152.794C111.931 152.909 111.353 152.967 110.751 152.967C110.149 152.967 109.57 152.909 109.015 152.794C108.459 152.701 107.927 152.551 107.418 152.342C106.931 152.134 106.468 151.879 106.029 151.578C105.589 151.277 105.184 150.93 104.813 150.537C104.443 150.143 104.107 149.703 103.807 149.217C103.529 148.731 103.286 148.199 103.077 147.62C102.869 147.041 102.707 146.428 102.591 145.78C102.499 145.132 102.452 144.437 102.452 143.697ZM114.987 143.697C114.987 141.706 114.582 140.213 113.771 139.218C112.961 138.199 111.954 137.69 110.751 137.69C109.524 137.69 108.505 138.199 107.695 139.218C106.908 140.213 106.515 141.706 106.515 143.697C106.515 145.711 106.908 147.227 107.695 148.245C108.505 149.24 109.524 149.738 110.751 149.738C111.954 149.738 112.961 149.24 113.771 148.245C114.582 147.227 114.987 145.711 114.987 143.697ZM123.579 152.689C123.393 152.689 123.266 152.643 123.197 152.551C123.127 152.458 123.092 152.342 123.092 152.203V135.19C123.092 135.074 123.127 134.97 123.197 134.878C123.266 134.785 123.393 134.739 123.579 134.739H126.669C126.831 134.739 126.958 134.785 127.051 134.878C127.143 134.97 127.19 135.074 127.19 135.19V137.412C127.676 136.463 128.335 135.734 129.169 135.225C130.002 134.715 130.916 134.461 131.912 134.461C133.092 134.461 134.134 134.75 135.037 135.329C135.939 135.908 136.611 136.741 137.05 137.829C137.513 136.741 138.208 135.908 139.134 135.329C140.083 134.75 141.124 134.461 142.259 134.461C143.925 134.461 145.291 135.016 146.356 136.127C147.42 137.239 147.953 138.801 147.953 140.815V152.203C147.953 152.342 147.906 152.458 147.814 152.551C147.744 152.643 147.629 152.689 147.467 152.689H144.377C144.191 152.689 144.052 152.643 143.96 152.551C143.89 152.458 143.856 152.342 143.856 152.203V141.44C143.856 140.19 143.555 139.252 142.953 138.627C142.374 137.979 141.622 137.655 140.696 137.655C139.816 137.655 139.076 137.979 138.474 138.627C137.872 139.252 137.571 140.19 137.571 141.44V152.203C137.571 152.342 137.525 152.458 137.432 152.551C137.363 152.643 137.247 152.689 137.085 152.689H133.925C133.763 152.689 133.648 152.643 133.578 152.551C133.509 152.458 133.474 152.342 133.474 152.203V141.44C133.474 140.19 133.173 139.252 132.571 138.627C131.993 137.979 131.24 137.655 130.314 137.655C129.412 137.655 128.659 137.979 128.058 138.627C127.479 139.252 127.19 140.19 127.19 141.44V152.203C127.19 152.342 127.143 152.458 127.051 152.551C126.958 152.643 126.831 152.689 126.669 152.689H123.579ZM157.478 152.967C155.788 152.967 154.434 152.504 153.415 151.578C152.42 150.652 151.922 149.495 151.922 148.106C151.922 146.463 152.524 145.178 153.728 144.252C154.932 143.303 156.598 142.748 158.728 142.586L162.964 142.273V141.093C162.964 139.958 162.651 139.09 162.026 138.489C161.424 137.887 160.626 137.586 159.63 137.586C158.797 137.586 158.033 137.771 157.339 138.141C156.668 138.489 156.043 139.148 155.464 140.12C155.371 140.213 155.267 140.271 155.151 140.294C155.036 140.294 154.897 140.259 154.735 140.19L152.582 139.183C152.443 139.114 152.362 139.021 152.339 138.905C152.316 138.766 152.339 138.627 152.408 138.489C153.057 137.354 154.006 136.405 155.256 135.641C156.506 134.854 158.091 134.461 160.012 134.461C162.096 134.461 163.774 135.051 165.047 136.232C166.343 137.412 166.991 139.056 166.991 141.162V152.203C166.991 152.365 166.945 152.493 166.852 152.585C166.783 152.655 166.667 152.689 166.505 152.689H163.38C163.241 152.689 163.137 152.655 163.068 152.585C162.998 152.493 162.964 152.365 162.964 152.203V150.085C162.431 150.988 161.679 151.694 160.707 152.203C159.758 152.713 158.681 152.967 157.478 152.967ZM155.846 147.724C155.846 148.558 156.135 149.171 156.714 149.565C157.293 149.935 157.999 150.12 158.832 150.12C159.897 150.12 160.846 149.784 161.679 149.113C162.535 148.442 162.964 147.516 162.964 146.335V144.842L159.63 145.155C158.38 145.248 157.431 145.502 156.783 145.919C156.158 146.335 155.846 146.937 155.846 147.724ZM178.737 152.967C177.117 152.967 175.867 152.551 174.987 151.717C174.108 150.861 173.668 149.738 173.668 148.349V137.933H169.988C169.872 137.933 169.779 137.898 169.71 137.829C169.64 137.759 169.606 137.655 169.606 137.516V135.121C169.606 134.982 169.64 134.889 169.71 134.843C169.779 134.773 169.872 134.739 169.988 134.739H173.668V130.329C173.668 130.19 173.703 130.074 173.772 129.982C173.842 129.889 173.957 129.843 174.119 129.843H177.244C177.406 129.843 177.522 129.889 177.592 129.982C177.684 130.074 177.73 130.19 177.73 130.329V134.739H182.14C182.256 134.739 182.348 134.773 182.418 134.843C182.51 134.889 182.557 134.982 182.557 135.121V137.516C182.557 137.655 182.51 137.759 182.418 137.829C182.348 137.898 182.256 137.933 182.14 137.933H177.73V147.516C177.73 148.187 177.916 148.708 178.286 149.078C178.68 149.449 179.212 149.634 179.883 149.634C180.23 149.634 180.566 149.599 180.89 149.53C181.237 149.46 181.608 149.368 182.001 149.252C182.14 149.206 182.244 149.217 182.314 149.287C182.406 149.333 182.453 149.403 182.453 149.495L182.557 151.891C182.557 151.983 182.545 152.064 182.522 152.134C182.499 152.203 182.441 152.261 182.348 152.308C181.932 152.516 181.399 152.678 180.751 152.794C180.103 152.909 179.432 152.967 178.737 152.967ZM200.163 144.634H188.636C188.752 146.44 189.215 147.771 190.025 148.627C190.858 149.46 191.9 149.877 193.15 149.877C194.006 149.877 194.747 149.68 195.372 149.287C196.02 148.87 196.564 148.268 197.004 147.481C197.073 147.366 197.154 147.296 197.247 147.273C197.339 147.227 197.467 147.227 197.629 147.273L200.024 147.828C200.21 147.875 200.325 147.944 200.372 148.037C200.441 148.129 200.453 148.245 200.406 148.384C200.267 148.731 200.094 149.067 199.886 149.391C199.677 149.715 199.446 150.028 199.191 150.328C198.96 150.629 198.682 150.919 198.358 151.196C198.057 151.451 197.721 151.694 197.351 151.926C196.981 152.134 196.575 152.319 196.136 152.481C195.696 152.643 195.221 152.759 194.712 152.828C194.226 152.921 193.694 152.967 193.115 152.967C192.513 152.967 191.923 152.909 191.344 152.794C190.789 152.701 190.256 152.551 189.747 152.342C189.238 152.134 188.752 151.879 188.289 151.578C187.849 151.277 187.444 150.93 187.073 150.537C186.703 150.143 186.367 149.703 186.067 149.217C185.766 148.731 185.511 148.199 185.303 147.62C185.094 147.041 184.932 146.428 184.817 145.78C184.724 145.132 184.678 144.437 184.678 143.697C184.678 142.979 184.724 142.296 184.817 141.648C184.932 140.977 185.094 140.363 185.303 139.808C185.511 139.229 185.754 138.697 186.032 138.211C186.333 137.725 186.657 137.285 187.004 136.891C187.374 136.498 187.779 136.151 188.219 135.85C188.659 135.549 189.122 135.294 189.608 135.086C190.094 134.878 190.603 134.727 191.136 134.634C191.668 134.519 192.224 134.461 192.802 134.461C193.381 134.461 193.937 134.519 194.469 134.634C195.001 134.727 195.511 134.878 195.997 135.086C196.483 135.294 196.934 135.549 197.351 135.85C197.768 136.151 198.149 136.498 198.497 136.891C198.867 137.285 199.191 137.725 199.469 138.211C199.747 138.697 199.978 139.229 200.163 139.808C200.348 140.363 200.487 140.965 200.58 141.613C200.696 142.262 200.754 142.944 200.754 143.662C200.754 143.963 200.707 144.206 200.615 144.391C200.545 144.553 200.395 144.634 200.163 144.634ZM192.733 137.482C191.738 137.482 190.87 137.84 190.129 138.558C189.388 139.252 188.914 140.398 188.705 141.995H196.83C196.645 140.398 196.17 139.252 195.406 138.558C194.666 137.84 193.775 137.482 192.733 137.482ZM222.694 145.919V135.225C222.694 135.086 222.729 134.97 222.798 134.878C222.891 134.785 223.018 134.739 223.18 134.739H226.305C226.467 134.739 226.583 134.785 226.652 134.878C226.745 134.97 226.791 135.086 226.791 135.225V152.203C226.791 152.342 226.745 152.458 226.652 152.551C226.583 152.643 226.467 152.689 226.305 152.689H223.18C223.018 152.689 222.891 152.643 222.798 152.551C222.729 152.458 222.694 152.342 222.694 152.203V150.085C222.185 151.011 221.49 151.729 220.611 152.238C219.754 152.724 218.794 152.967 217.729 152.967C216.039 152.967 214.639 152.412 213.528 151.301C212.417 150.19 211.861 148.627 211.861 146.613V135.225C211.861 135.086 211.907 134.97 212 134.878C212.093 134.785 212.22 134.739 212.382 134.739H215.472C215.657 134.739 215.785 134.785 215.854 134.878C215.923 134.97 215.958 135.086 215.958 135.225V145.919C215.958 147.169 216.271 148.118 216.896 148.766C217.521 149.414 218.319 149.738 219.291 149.738C220.264 149.738 221.074 149.414 221.722 148.766C222.37 148.118 222.694 147.169 222.694 145.919ZM232.285 159.703C232.1 159.703 231.973 159.657 231.904 159.564C231.834 159.472 231.799 159.367 231.799 159.252V135.225C231.799 135.086 231.834 134.97 231.904 134.878C231.973 134.785 232.1 134.739 232.285 134.739H235.376C235.538 134.739 235.665 134.785 235.758 134.878C235.85 134.97 235.896 135.086 235.896 135.225V137.759C236.406 136.695 237.112 135.884 238.014 135.329C238.917 134.75 239.982 134.461 241.209 134.461C241.811 134.461 242.378 134.53 242.91 134.669C243.442 134.808 243.952 135.005 244.438 135.259C244.924 135.514 245.364 135.838 245.757 136.232C246.174 136.625 246.544 137.077 246.868 137.586C247.192 138.095 247.47 138.662 247.702 139.287C247.933 139.912 248.107 140.595 248.222 141.336C248.338 142.076 248.396 142.863 248.396 143.697C248.396 144.553 248.338 145.352 248.222 146.092C248.107 146.833 247.933 147.516 247.702 148.141C247.47 148.766 247.192 149.333 246.868 149.842C246.544 150.352 246.174 150.803 245.757 151.196C245.364 151.59 244.924 151.914 244.438 152.169C243.952 152.423 243.442 152.62 242.91 152.759C242.378 152.898 241.811 152.967 241.209 152.967C239.982 152.967 238.917 152.678 238.014 152.099C237.112 151.521 236.406 150.699 235.896 149.634V159.252C235.896 159.367 235.85 159.472 235.758 159.564C235.665 159.657 235.538 159.703 235.376 159.703H232.285ZM240.063 149.669C241.313 149.669 242.331 149.171 243.118 148.176C243.929 147.18 244.334 145.687 244.334 143.697C244.334 141.683 243.929 140.19 243.118 139.218C242.331 138.222 241.313 137.725 240.063 137.725C238.859 137.725 237.864 138.222 237.077 139.218C236.29 140.19 235.896 141.683 235.896 143.697C235.896 145.687 236.29 147.18 237.077 148.176C237.864 149.171 238.859 149.669 240.063 149.669ZM55.6199 193.967C53.9996 193.967 52.7496 193.551 51.87 192.717C50.9904 191.861 50.5506 190.738 50.5506 189.349V178.933H46.8702C46.7544 178.933 46.6618 178.898 46.5924 178.829C46.523 178.759 46.4882 178.655 46.4882 178.516V176.121C46.4882 175.982 46.523 175.889 46.5924 175.843C46.6618 175.773 46.7544 175.739 46.8702 175.739H50.5506V171.329C50.5506 171.19 50.5853 171.074 50.6548 170.982C50.7242 170.889 50.8399 170.843 51.002 170.843H54.1269C54.2889 170.843 54.4046 170.889 54.4741 170.982C54.5667 171.074 54.613 171.19 54.613 171.329V175.739H59.0225C59.1383 175.739 59.2309 175.773 59.3003 175.843C59.3929 175.889 59.4392 175.982 59.4392 176.121V178.516C59.4392 178.655 59.3929 178.759 59.3003 178.829C59.2309 178.898 59.1383 178.933 59.0225 178.933H54.613V188.516C54.613 189.187 54.7981 189.708 55.1685 190.078C55.562 190.449 56.0944 190.634 56.7657 190.634C57.1129 190.634 57.4485 190.599 57.7726 190.53C58.1198 190.46 58.4902 190.368 58.8837 190.252C59.0225 190.206 59.1267 190.217 59.1962 190.287C59.2887 190.333 59.335 190.403 59.335 190.495L59.4392 192.891C59.4392 192.983 59.4276 193.064 59.4045 193.134C59.3813 193.203 59.3235 193.261 59.2309 193.308C58.8142 193.516 58.2818 193.678 57.6337 193.794C56.9856 193.909 56.3143 193.967 55.6199 193.967ZM61.5602 184.697C61.5602 183.979 61.6065 183.296 61.6991 182.648C61.8148 181.977 61.9768 181.363 62.1852 180.808C62.3935 180.229 62.6365 179.697 62.9143 179.211C63.2152 178.725 63.5508 178.285 63.9212 177.891C64.2916 177.475 64.6966 177.116 65.1364 176.815C65.5762 176.514 66.0392 176.259 66.5253 176.051C67.0345 175.843 67.5669 175.692 68.1225 175.6C68.678 175.484 69.2567 175.426 69.8585 175.426C70.4603 175.426 71.039 175.484 71.5946 175.6C72.1501 175.692 72.6709 175.843 73.157 176.051C73.6663 176.259 74.1408 176.514 74.5806 176.815C75.0204 177.116 75.4255 177.475 75.7958 177.891C76.1662 178.285 76.4902 178.725 76.768 179.211C77.0689 179.697 77.3236 180.229 77.5319 180.808C77.7402 181.363 77.8907 181.977 77.9833 182.648C78.099 183.296 78.1569 183.979 78.1569 184.697C78.1569 185.437 78.099 186.132 77.9833 186.78C77.8907 187.428 77.7402 188.041 77.5319 188.62C77.3236 189.199 77.0689 189.731 76.768 190.217C76.4902 190.703 76.1662 191.143 75.7958 191.537C75.4255 191.93 75.0204 192.277 74.5806 192.578C74.1408 192.879 73.6663 193.134 73.157 193.342C72.6709 193.551 72.1501 193.701 71.5946 193.794C71.039 193.909 70.4603 193.967 69.8585 193.967C69.2567 193.967 68.678 193.909 68.1225 193.794C67.5669 193.701 67.0345 193.551 66.5253 193.342C66.0392 193.134 65.5762 192.879 65.1364 192.578C64.6966 192.277 64.2916 191.93 63.9212 191.537C63.5508 191.143 63.2152 190.703 62.9143 190.217C62.6365 189.731 62.3935 189.199 62.1852 188.62C61.9768 188.041 61.8148 187.428 61.6991 186.78C61.6065 186.132 61.5602 185.437 61.5602 184.697ZM74.0945 184.697C74.0945 182.706 73.6894 181.213 72.8792 180.218C72.0691 179.199 71.0622 178.69 69.8585 178.69C68.6317 178.69 67.6132 179.199 66.8031 180.218C66.016 181.213 65.6225 182.706 65.6225 184.697C65.6225 186.711 66.016 188.227 66.8031 189.245C67.6132 190.24 68.6317 190.738 69.8585 190.738C71.0622 190.738 72.0691 190.24 72.8792 189.245C73.6894 188.227 74.0945 186.711 74.0945 184.697ZM164.503 184.697C164.503 183.979 164.549 183.296 164.642 182.648C164.757 181.977 164.919 181.363 165.128 180.808C165.336 180.229 165.579 179.697 165.857 179.211C166.158 178.725 166.493 178.285 166.864 177.891C167.234 177.475 167.639 177.116 168.079 176.815C168.519 176.514 168.982 176.259 169.468 176.051C169.977 175.843 170.51 175.692 171.065 175.6C171.621 175.484 172.199 175.426 172.801 175.426C173.403 175.426 173.982 175.484 174.537 175.6C175.093 175.692 175.614 175.843 176.1 176.051C176.609 176.259 177.083 176.514 177.523 176.815C177.963 177.116 178.368 177.475 178.738 177.891C179.109 178.285 179.433 178.725 179.711 179.211C180.012 179.697 180.266 180.229 180.475 180.808C180.683 181.363 180.833 181.977 180.926 182.648C181.042 183.296 181.099 183.979 181.099 184.697C181.099 185.437 181.042 186.132 180.926 186.78C180.833 187.428 180.683 188.041 180.475 188.62C180.266 189.199 180.012 189.731 179.711 190.217C179.433 190.703 179.109 191.143 178.738 191.537C178.368 191.93 177.963 192.277 177.523 192.578C177.083 192.879 176.609 193.134 176.1 193.342C175.614 193.551 175.093 193.701 174.537 193.794C173.982 193.909 173.403 193.967 172.801 193.967C172.199 193.967 171.621 193.909 171.065 193.794C170.51 193.701 169.977 193.551 169.468 193.342C168.982 193.134 168.519 192.879 168.079 192.578C167.639 192.277 167.234 191.93 166.864 191.537C166.493 191.143 166.158 190.703 165.857 190.217C165.579 189.731 165.336 189.199 165.128 188.62C164.919 188.041 164.757 187.428 164.642 186.78C164.549 186.132 164.503 185.437 164.503 184.697ZM177.037 184.697C177.037 182.706 176.632 181.213 175.822 180.218C175.012 179.199 174.005 178.69 172.801 178.69C171.574 178.69 170.556 179.199 169.746 180.218C168.959 181.213 168.565 182.706 168.565 184.697C168.565 186.711 168.959 188.227 169.746 189.245C170.556 190.24 171.574 190.738 172.801 190.738C174.005 190.738 175.012 190.24 175.822 189.245C176.632 188.227 177.037 186.711 177.037 184.697ZM187.614 193.689C187.452 193.689 187.324 193.643 187.232 193.551C187.139 193.458 187.093 193.342 187.093 193.203V178.933H183.447C183.355 178.933 183.262 178.898 183.169 178.829C183.1 178.759 183.065 178.655 183.065 178.516V176.121C183.065 175.982 183.1 175.889 183.169 175.843C183.262 175.773 183.355 175.739 183.447 175.739H187.093V173.76C187.093 172.093 187.602 170.762 188.621 169.767C189.639 168.748 191.074 168.239 192.926 168.239C193.505 168.239 194.083 168.308 194.662 168.447C195.264 168.586 195.854 168.806 196.433 169.107C196.526 169.153 196.583 169.223 196.607 169.315C196.653 169.408 196.653 169.524 196.607 169.662L195.808 171.815C195.785 171.908 195.739 171.977 195.669 172.023C195.6 172.047 195.519 172.035 195.426 171.989C195.056 171.827 194.674 171.699 194.28 171.607C193.91 171.491 193.574 171.433 193.273 171.433C192.579 171.433 192.058 171.642 191.711 172.058C191.364 172.452 191.19 173.019 191.19 173.76V175.739H195.565C195.704 175.739 195.808 175.773 195.877 175.843C195.97 175.889 196.016 175.982 196.016 176.121V178.516C196.016 178.655 195.97 178.759 195.877 178.829C195.808 178.898 195.704 178.933 195.565 178.933H191.19V193.203C191.19 193.342 191.144 193.458 191.051 193.551C190.982 193.643 190.866 193.689 190.704 193.689H187.614ZM48.7451 234.689C48.5599 234.689 48.4326 234.643 48.3632 234.551C48.2937 234.458 48.259 234.342 48.259 234.203V217.19C48.259 217.074 48.2937 216.97 48.3632 216.878C48.4326 216.785 48.5599 216.739 48.7451 216.739H51.8353C51.9973 216.739 52.1246 216.785 52.2172 216.878C52.3098 216.97 52.3561 217.074 52.3561 217.19V219.412C52.8422 218.463 53.5019 217.734 54.3352 217.225C55.1685 216.715 56.0828 216.461 57.0782 216.461C58.2587 216.461 59.3003 216.75 60.2031 217.329C61.1058 217.908 61.7771 218.741 62.2169 219.829C62.6798 218.741 63.3743 217.908 64.3002 217.329C65.2492 216.75 66.2908 216.461 67.4251 216.461C69.0917 216.461 70.4574 217.016 71.5221 218.127C72.5869 219.239 73.1193 220.801 73.1193 222.815V234.203C73.1193 234.342 73.073 234.458 72.9804 234.551C72.911 234.643 72.7953 234.689 72.6332 234.689H69.543C69.3579 234.689 69.219 234.643 69.1264 234.551C69.0569 234.458 69.0222 234.342 69.0222 234.203V223.44C69.0222 222.19 68.7213 221.252 68.1195 220.627C67.5408 219.979 66.7885 219.655 65.8626 219.655C64.983 219.655 64.2423 219.979 63.6405 220.627C63.0386 221.252 62.7377 222.19 62.7377 223.44V234.203C62.7377 234.342 62.6914 234.458 62.5988 234.551C62.5294 234.643 62.4136 234.689 62.2516 234.689H59.092C58.93 234.689 58.8142 234.643 58.7448 234.551C58.6753 234.458 58.6406 234.342 58.6406 234.203V223.44C58.6406 222.19 58.3397 221.252 57.7379 220.627C57.1592 219.979 56.4069 219.655 55.481 219.655C54.5782 219.655 53.826 219.979 53.2241 220.627C52.6454 221.252 52.3561 222.19 52.3561 223.44V234.203C52.3561 234.342 52.3098 234.458 52.2172 234.551C52.1246 234.643 51.9973 234.689 51.8353 234.689H48.7451ZM82.6443 234.967C80.9545 234.967 79.6004 234.504 78.5819 233.578C77.5866 232.652 77.0889 231.495 77.0889 230.106C77.0889 228.463 77.6907 227.178 78.8944 226.252C80.0981 225.303 81.7647 224.748 83.8942 224.586L88.1302 224.273V223.093C88.1302 221.958 87.8177 221.09 87.1928 220.489C86.5909 219.887 85.7923 219.586 84.797 219.586C83.9637 219.586 83.1998 219.771 82.5054 220.141C81.8341 220.489 81.2091 221.148 80.6305 222.12C80.5379 222.213 80.4337 222.271 80.318 222.294C80.2022 222.294 80.0634 222.259 79.9013 222.19L77.7486 221.183C77.6097 221.114 77.5287 221.021 77.5056 220.905C77.4824 220.766 77.5056 220.627 77.575 220.489C78.2231 219.354 79.1722 218.405 80.4221 217.641C81.6721 216.854 83.2577 216.461 85.1789 216.461C87.2622 216.461 88.9404 217.051 90.2135 218.232C91.5097 219.412 92.1579 221.056 92.1579 223.162V234.203C92.1579 234.365 92.1116 234.493 92.019 234.585C91.9495 234.655 91.8338 234.689 91.6718 234.689H88.5469C88.408 234.689 88.3038 234.655 88.2344 234.585C88.1649 234.493 88.1302 234.365 88.1302 234.203V232.085C87.5978 232.988 86.8455 233.694 85.8733 234.203C84.9243 234.713 83.848 234.967 82.6443 234.967ZM81.0124 229.724C81.0124 230.558 81.3017 231.171 81.8804 231.565C82.4591 231.935 83.1651 232.12 83.9984 232.12C85.0632 232.12 86.0122 231.784 86.8455 231.113C87.702 230.442 88.1302 229.516 88.1302 228.335V226.842L84.797 227.155C83.547 227.248 82.598 227.502 81.9499 227.919C81.3249 228.335 81.0124 228.937 81.0124 229.724ZM97.6395 234.689C97.4543 234.689 97.327 234.643 97.2575 234.551C97.1881 234.458 97.1534 234.342 97.1534 234.203V217.19C97.1534 217.074 97.1881 216.97 97.2575 216.878C97.327 216.785 97.4543 216.739 97.6395 216.739H100.73C100.892 216.739 101.019 216.785 101.112 216.878C101.204 216.97 101.25 217.074 101.25 217.19V219.308C101.76 218.382 102.443 217.676 103.299 217.19C104.179 216.704 105.139 216.461 106.181 216.461C107.894 216.461 109.294 217.016 110.382 218.127C111.493 219.239 112.049 220.801 112.049 222.815V234.203C112.049 234.342 112.002 234.458 111.91 234.551C111.84 234.643 111.725 234.689 111.563 234.689H108.403C108.241 234.689 108.125 234.643 108.056 234.551C107.986 234.458 107.952 234.342 107.952 234.203V223.475C107.952 222.225 107.639 221.276 107.014 220.627C106.389 219.979 105.579 219.655 104.584 219.655C103.635 219.655 102.836 219.979 102.188 220.627C101.563 221.276 101.25 222.225 101.25 223.475V234.203C101.25 234.342 101.204 234.458 101.112 234.551C101.019 234.643 100.892 234.689 100.73 234.689H97.6395ZM127.787 227.919V217.225C127.787 217.086 127.822 216.97 127.892 216.878C127.984 216.785 128.111 216.739 128.274 216.739H131.398C131.56 216.739 131.676 216.785 131.746 216.878C131.838 216.97 131.885 217.086 131.885 217.225V234.203C131.885 234.342 131.838 234.458 131.746 234.551C131.676 234.643 131.56 234.689 131.398 234.689H128.274C128.111 234.689 127.984 234.643 127.892 234.551C127.822 234.458 127.787 234.342 127.787 234.203V232.085C127.278 233.011 126.584 233.729 125.704 234.238C124.848 234.724 123.887 234.967 122.822 234.967C121.133 234.967 119.732 234.412 118.621 233.301C117.51 232.19 116.954 230.627 116.954 228.613V217.225C116.954 217.086 117.001 216.97 117.093 216.878C117.186 216.785 117.313 216.739 117.475 216.739H120.565C120.751 216.739 120.878 216.785 120.947 216.878C121.017 216.97 121.052 217.086 121.052 217.225V227.919C121.052 229.169 121.364 230.118 121.989 230.766C122.614 231.414 123.413 231.738 124.385 231.738C125.357 231.738 126.167 231.414 126.815 230.766C127.463 230.118 127.787 229.169 127.787 227.919ZM141.372 234.967C139.682 234.967 138.328 234.504 137.309 233.578C136.314 232.652 135.816 231.495 135.816 230.106C135.816 228.463 136.418 227.178 137.622 226.252C138.826 225.303 140.492 224.748 142.622 224.586L146.858 224.273V223.093C146.858 221.958 146.545 221.09 145.92 220.489C145.318 219.887 144.52 219.586 143.524 219.586C142.691 219.586 141.927 219.771 141.233 220.141C140.562 220.489 139.937 221.148 139.358 222.12C139.265 222.213 139.161 222.271 139.045 222.294C138.93 222.294 138.791 222.259 138.629 222.19L136.476 221.183C136.337 221.114 136.256 221.021 136.233 220.905C136.21 220.766 136.233 220.627 136.302 220.489C136.951 219.354 137.9 218.405 139.15 217.641C140.4 216.854 141.985 216.461 143.906 216.461C145.99 216.461 147.668 217.051 148.941 218.232C150.237 219.412 150.885 221.056 150.885 223.162V234.203C150.885 234.365 150.839 234.493 150.746 234.585C150.677 234.655 150.561 234.689 150.399 234.689H147.274C147.135 234.689 147.031 234.655 146.962 234.585C146.892 234.493 146.858 234.365 146.858 234.203V232.085C146.325 232.988 145.573 233.694 144.601 234.203C143.652 234.713 142.575 234.967 141.372 234.967ZM139.74 229.724C139.74 230.558 140.029 231.171 140.608 231.565C141.187 231.935 141.893 232.12 142.726 232.12C143.791 232.12 144.74 231.784 145.573 231.113C146.429 230.442 146.858 229.516 146.858 228.335V226.842L143.524 227.155C142.275 227.248 141.325 227.502 140.677 227.919C140.052 228.335 139.74 228.937 139.74 229.724ZM161.647 234.967C159.98 234.967 158.707 234.551 157.828 233.717C156.971 232.861 156.543 231.738 156.543 230.349V213.579H153.14C153.048 213.579 152.967 213.544 152.897 213.475C152.805 213.382 152.758 213.267 152.758 213.128V210.801C152.758 210.662 152.805 210.558 152.897 210.489C152.967 210.419 153.048 210.385 153.14 210.385H160.258C160.351 210.385 160.432 210.431 160.501 210.524C160.594 210.593 160.64 210.686 160.64 210.801V229.516C160.64 230.187 160.825 230.708 161.196 231.078C161.566 231.449 162.075 231.634 162.723 231.634C162.978 231.634 163.256 231.611 163.557 231.565C163.881 231.518 164.228 231.437 164.598 231.322C164.737 231.275 164.841 231.287 164.911 231.356C164.98 231.426 165.015 231.507 165.015 231.599L165.119 233.995C165.119 234.088 165.108 234.169 165.084 234.238C165.061 234.308 164.992 234.365 164.876 234.412C164.552 234.574 164.089 234.701 163.487 234.794C162.885 234.909 162.272 234.967 161.647 234.967ZM182.569 234.967C180.949 234.967 179.699 234.551 178.819 233.717C177.939 232.861 177.5 231.738 177.5 230.349V219.933H173.819C173.703 219.933 173.611 219.898 173.541 219.829C173.472 219.759 173.437 219.655 173.437 219.516V217.121C173.437 216.982 173.472 216.889 173.541 216.843C173.611 216.773 173.703 216.739 173.819 216.739H177.5V212.329C177.5 212.19 177.534 212.074 177.604 211.982C177.673 211.889 177.789 211.843 177.951 211.843H181.076C181.238 211.843 181.354 211.889 181.423 211.982C181.516 212.074 181.562 212.19 181.562 212.329V216.739H185.972C186.087 216.739 186.18 216.773 186.249 216.843C186.342 216.889 186.388 216.982 186.388 217.121V219.516C186.388 219.655 186.342 219.759 186.249 219.829C186.18 219.898 186.087 219.933 185.972 219.933H181.562V229.516C181.562 230.187 181.747 230.708 182.118 231.078C182.511 231.449 183.043 231.634 183.715 231.634C184.062 231.634 184.398 231.599 184.722 231.53C185.069 231.46 185.439 231.368 185.833 231.252C185.972 231.206 186.076 231.217 186.145 231.287C186.238 231.333 186.284 231.403 186.284 231.495L186.388 233.891C186.388 233.983 186.377 234.064 186.353 234.134C186.33 234.203 186.272 234.261 186.18 234.308C185.763 234.516 185.231 234.678 184.583 234.794C183.935 234.909 183.263 234.967 182.569 234.967ZM194.098 234.967C192.408 234.967 191.054 234.504 190.035 233.578C189.04 232.652 188.542 231.495 188.542 230.106C188.542 228.463 189.144 227.178 190.348 226.252C191.551 225.303 193.218 224.748 195.348 224.586L199.584 224.273V223.093C199.584 221.958 199.271 221.09 198.646 220.489C198.044 219.887 197.246 219.586 196.25 219.586C195.417 219.586 194.653 219.771 193.959 220.141C193.288 220.489 192.663 221.148 192.084 222.12C191.991 222.213 191.887 222.271 191.771 222.294C191.656 222.294 191.517 222.259 191.355 222.19L189.202 221.183C189.063 221.114 188.982 221.021 188.959 220.905C188.936 220.766 188.959 220.627 189.028 220.489C189.677 219.354 190.626 218.405 191.876 217.641C193.125 216.854 194.711 216.461 196.632 216.461C198.716 216.461 200.394 217.051 201.667 218.232C202.963 219.412 203.611 221.056 203.611 223.162V234.203C203.611 234.365 203.565 234.493 203.472 234.585C203.403 234.655 203.287 234.689 203.125 234.689H200C199.861 234.689 199.757 234.655 199.688 234.585C199.618 234.493 199.584 234.365 199.584 234.203V232.085C199.051 232.988 198.299 233.694 197.327 234.203C196.378 234.713 195.301 234.967 194.098 234.967ZM192.466 229.724C192.466 230.558 192.755 231.171 193.334 231.565C193.912 231.935 194.618 232.12 195.452 232.12C196.517 232.12 197.466 231.784 198.299 231.113C199.155 230.442 199.584 229.516 199.584 228.335V226.842L196.25 227.155C195 227.248 194.051 227.502 193.403 227.919C192.778 228.335 192.466 228.937 192.466 229.724ZM214.093 216.461C215.644 216.461 217.032 216.82 218.259 217.537C219.509 218.255 220.458 219.146 221.106 220.211C221.176 220.303 221.199 220.419 221.176 220.558C221.153 220.674 221.083 220.778 220.967 220.87L219.023 222.225C218.93 222.294 218.826 222.317 218.711 222.294C218.618 222.271 218.525 222.201 218.433 222.086C217.831 221.206 217.171 220.546 216.454 220.107C215.759 219.667 215.007 219.447 214.197 219.447C213.479 219.447 212.866 219.632 212.357 220.002C211.871 220.35 211.627 220.87 211.627 221.565C211.627 222.306 211.998 222.85 212.739 223.197C213.479 223.544 214.347 223.856 215.343 224.134C215.62 224.204 215.898 224.285 216.176 224.377C216.477 224.447 216.766 224.528 217.044 224.62C217.322 224.713 217.6 224.817 217.877 224.933C218.178 225.025 218.456 225.141 218.711 225.28C218.965 225.396 219.208 225.535 219.44 225.697C219.694 225.836 219.926 225.998 220.134 226.183C220.342 226.368 220.528 226.576 220.69 226.808C220.852 227.016 220.991 227.259 221.106 227.537C221.222 227.792 221.315 228.081 221.384 228.405C221.454 228.706 221.488 229.041 221.488 229.412C221.488 229.921 221.43 230.396 221.315 230.835C221.199 231.275 221.025 231.68 220.794 232.051C220.562 232.421 220.273 232.768 219.926 233.092C219.602 233.393 219.231 233.659 218.815 233.891C218.421 234.122 217.981 234.319 217.495 234.481C217.009 234.643 216.488 234.759 215.933 234.828C215.401 234.921 214.833 234.967 214.232 234.967C212.38 234.967 210.84 234.608 209.614 233.891C208.41 233.15 207.519 232.271 206.94 231.252C206.871 231.136 206.836 231.021 206.836 230.905C206.836 230.789 206.905 230.685 207.044 230.592L208.885 229.169C208.977 229.076 209.081 229.041 209.197 229.065C209.313 229.065 209.405 229.111 209.475 229.204C210.077 230.199 210.783 230.916 211.593 231.356C212.403 231.796 213.248 232.016 214.127 232.016C215.123 232.016 215.921 231.819 216.523 231.426C217.148 231.009 217.461 230.43 217.461 229.69C217.461 228.949 217.067 228.417 216.28 228.092C215.516 227.768 214.613 227.479 213.572 227.224C213.271 227.132 212.958 227.051 212.634 226.981C212.31 226.889 211.986 226.796 211.662 226.704C211.361 226.588 211.06 226.472 210.759 226.356C210.482 226.218 210.204 226.079 209.926 225.94C209.648 225.778 209.382 225.604 209.128 225.419C208.896 225.211 208.688 224.991 208.503 224.759C208.317 224.528 208.155 224.273 208.016 223.995C207.878 223.694 207.762 223.37 207.669 223.023C207.6 222.653 207.565 222.259 207.565 221.843C207.565 220.176 208.179 218.868 209.405 217.919C210.655 216.947 212.218 216.461 214.093 216.461ZM225.538 234.689C225.353 234.689 225.225 234.643 225.156 234.551C225.087 234.458 225.052 234.342 225.052 234.203V210.871C225.052 210.732 225.087 210.616 225.156 210.524C225.225 210.431 225.353 210.385 225.538 210.385H228.628C228.79 210.385 228.917 210.431 229.01 210.524C229.103 210.616 229.149 210.732 229.149 210.871V234.203C229.149 234.342 229.103 234.458 229.01 234.551C228.917 234.643 228.79 234.689 228.628 234.689H225.538ZM236.544 234.689C236.382 234.689 236.255 234.666 236.163 234.62C236.093 234.574 236.012 234.481 235.919 234.342L229.947 225.94C229.901 225.847 229.878 225.778 229.878 225.731C229.901 225.662 229.936 225.581 229.982 225.488L236.232 217.016C236.325 216.901 236.406 216.831 236.475 216.808C236.568 216.762 236.683 216.739 236.822 216.739H240.017C240.202 216.739 240.318 216.797 240.364 216.912C240.41 217.028 240.387 217.155 240.294 217.294L234.288 225.454L240.503 234.064C240.595 234.203 240.618 234.342 240.572 234.481C240.549 234.62 240.422 234.689 240.19 234.689H236.544ZM248.678 216.461C250.229 216.461 251.618 216.82 252.845 217.537C254.095 218.255 255.044 219.146 255.692 220.211C255.761 220.303 255.784 220.419 255.761 220.558C255.738 220.674 255.669 220.778 255.553 220.87L253.609 222.225C253.516 222.294 253.412 222.317 253.296 222.294C253.203 222.271 253.111 222.201 253.018 222.086C252.416 221.206 251.757 220.546 251.039 220.107C250.345 219.667 249.592 219.447 248.782 219.447C248.065 219.447 247.451 219.632 246.942 220.002C246.456 220.35 246.213 220.87 246.213 221.565C246.213 222.306 246.583 222.85 247.324 223.197C248.065 223.544 248.933 223.856 249.928 224.134C250.206 224.204 250.484 224.285 250.761 224.377C251.062 224.447 251.352 224.528 251.629 224.62C251.907 224.713 252.185 224.817 252.463 224.933C252.764 225.025 253.041 225.141 253.296 225.28C253.551 225.396 253.794 225.535 254.025 225.697C254.28 225.836 254.511 225.998 254.72 226.183C254.928 226.368 255.113 226.576 255.275 226.808C255.437 227.016 255.576 227.259 255.692 227.537C255.808 227.792 255.9 228.081 255.97 228.405C256.039 228.706 256.074 229.041 256.074 229.412C256.074 229.921 256.016 230.396 255.9 230.835C255.784 231.275 255.611 231.68 255.379 232.051C255.148 232.421 254.859 232.768 254.511 233.092C254.187 233.393 253.817 233.659 253.4 233.891C253.007 234.122 252.567 234.319 252.081 234.481C251.595 234.643 251.074 234.759 250.518 234.828C249.986 234.921 249.419 234.967 248.817 234.967C246.965 234.967 245.426 234.608 244.199 233.891C242.995 233.15 242.104 232.271 241.526 231.252C241.456 231.136 241.421 231.021 241.421 230.905C241.421 230.789 241.491 230.685 241.63 230.592L243.47 229.169C243.563 229.076 243.667 229.041 243.782 229.065C243.898 229.065 243.991 229.111 244.06 229.204C244.662 230.199 245.368 230.916 246.178 231.356C246.988 231.796 247.833 232.016 248.713 232.016C249.708 232.016 250.507 231.819 251.109 231.426C251.734 231.009 252.046 230.43 252.046 229.69C252.046 228.949 251.653 228.417 250.866 228.092C250.102 227.768 249.199 227.479 248.157 227.224C247.856 227.132 247.544 227.051 247.22 226.981C246.896 226.889 246.572 226.796 246.248 226.704C245.947 226.588 245.646 226.472 245.345 226.356C245.067 226.218 244.789 226.079 244.512 225.94C244.234 225.778 243.968 225.604 243.713 225.419C243.482 225.211 243.273 224.991 243.088 224.759C242.903 224.528 242.741 224.273 242.602 223.995C242.463 223.694 242.347 223.37 242.255 223.023C242.185 222.653 242.151 222.259 242.151 221.843C242.151 220.176 242.764 218.868 243.991 217.919C245.241 216.947 246.803 216.461 248.678 216.461Z" fill="white"/>
<path d="M92.2349 190.53C93.971 189.21 95.5913 187.903 97.0959 186.606C98.6236 185.31 99.6999 183.898 100.325 182.37C99.6999 182.995 98.9592 183.493 98.1028 183.863C97.2463 184.211 96.3204 184.384 95.3251 184.384C93.1955 184.384 91.4363 183.736 90.0475 182.44C88.6586 181.144 87.9642 179.419 87.9642 177.266C87.9642 176.641 88.0221 176.051 88.1378 175.496C88.2536 174.94 88.4272 174.419 88.6586 173.933C88.8901 173.424 89.1679 172.961 89.4919 172.544C89.816 172.105 90.1864 171.711 90.603 171.364C91.0197 170.993 91.471 170.681 91.9571 170.426C92.4432 170.149 92.964 169.917 93.5196 169.732C94.0751 169.524 94.6538 169.373 95.2556 169.281C95.8806 169.188 96.5172 169.142 97.1653 169.142C97.8597 169.142 98.531 169.2 99.1791 169.315C99.8273 169.408 100.441 169.57 101.019 169.801C101.598 170.01 102.13 170.276 102.617 170.6C103.126 170.901 103.589 171.248 104.005 171.642C104.422 172.035 104.792 172.486 105.116 172.996C105.44 173.482 105.718 174.014 105.95 174.593C106.181 175.172 106.355 175.797 106.471 176.468C106.586 177.116 106.644 177.799 106.644 178.516C106.644 179.28 106.575 180.021 106.436 180.738C106.32 181.456 106.123 182.174 105.846 182.891C105.591 183.586 105.278 184.268 104.908 184.94C104.538 185.611 104.11 186.271 103.623 186.919C103.16 187.567 102.64 188.215 102.061 188.863C101.505 189.488 100.892 190.102 100.221 190.703C99.5726 191.305 98.8782 191.896 98.1375 192.474C97.3968 193.053 96.6213 193.62 95.8112 194.176C95.7186 194.245 95.5913 194.268 95.4292 194.245C95.2904 194.245 95.1746 194.199 95.082 194.106L92.1307 191.433C92.0382 191.317 91.9803 191.178 91.9571 191.016C91.9571 190.831 92.0497 190.669 92.2349 190.53ZM100.603 177.058C100.603 176.063 100.279 175.229 99.6305 174.558C98.9824 173.887 98.1491 173.551 97.1306 173.551C96.0889 173.551 95.2441 173.887 94.5959 174.558C93.9478 175.229 93.6237 176.063 93.6237 177.058C93.6237 178.053 93.9478 178.887 94.5959 179.558C95.2441 180.206 96.0889 180.53 97.1306 180.53C98.1491 180.53 98.9824 180.206 99.6305 179.558C100.279 178.887 100.603 178.053 100.603 177.058ZM109.131 181.572C109.131 180.507 109.189 179.512 109.305 178.586C109.444 177.66 109.629 176.803 109.86 176.016C110.092 175.229 110.37 174.512 110.694 173.864C111.041 173.216 111.423 172.637 111.84 172.128C112.279 171.618 112.754 171.179 113.263 170.808C113.796 170.438 114.351 170.137 114.93 169.905C115.532 169.651 116.157 169.466 116.805 169.35C117.453 169.211 118.136 169.142 118.853 169.142C119.571 169.142 120.254 169.211 120.902 169.35C121.573 169.466 122.198 169.651 122.777 169.905C123.379 170.137 123.934 170.438 124.443 170.808C124.953 171.179 125.416 171.618 125.832 172.128C126.272 172.637 126.654 173.216 126.978 173.864C127.325 174.512 127.615 175.229 127.846 176.016C128.077 176.803 128.251 177.66 128.367 178.586C128.483 179.512 128.54 180.507 128.54 181.572C128.54 182.637 128.483 183.632 128.367 184.558C128.251 185.484 128.077 186.34 127.846 187.127C127.615 187.914 127.325 188.632 126.978 189.28C126.654 189.905 126.272 190.472 125.832 190.981C125.416 191.49 124.953 191.942 124.443 192.335C123.934 192.706 123.379 193.018 122.777 193.273C122.198 193.504 121.573 193.678 120.902 193.794C120.254 193.933 119.571 194.002 118.853 194.002C118.136 194.002 117.453 193.933 116.805 193.794C116.157 193.678 115.532 193.504 114.93 193.273C114.351 193.018 113.796 192.706 113.263 192.335C112.754 191.942 112.279 191.49 111.84 190.981C111.423 190.472 111.041 189.905 110.694 189.28C110.37 188.632 110.092 187.914 109.86 187.127C109.629 186.34 109.444 185.484 109.305 184.558C109.189 183.632 109.131 182.637 109.131 181.572ZM122.811 181.572C122.811 178.748 122.453 176.78 121.735 175.669C121.018 174.558 120.057 174.003 118.853 174.003C117.626 174.003 116.654 174.558 115.937 175.669C115.242 176.78 114.883 178.748 114.86 181.572C114.883 184.396 115.254 186.363 115.971 187.474C116.689 188.562 117.65 189.106 118.853 189.106C120.057 189.106 121.018 188.562 121.735 187.474C122.453 186.363 122.811 184.396 122.811 181.572ZM142.032 174.697C142.032 176.202 141.488 177.486 140.4 178.551C139.312 179.593 138.016 180.114 136.512 180.114C134.984 180.114 133.676 179.593 132.588 178.551C131.523 177.486 130.991 176.202 130.991 174.697C130.991 173.192 131.523 171.908 132.588 170.843C133.676 169.778 134.984 169.246 136.512 169.246C138.016 169.246 139.312 169.778 140.4 170.843C141.488 171.908 142.032 173.192 142.032 174.697ZM149.532 169.385H152.379C152.518 169.385 152.622 169.454 152.692 169.593C152.761 169.732 152.75 169.859 152.657 169.975L137.414 193.099C137.252 193.331 137.09 193.493 136.928 193.585C136.766 193.655 136.558 193.689 136.303 193.689H133.456C133.317 193.689 133.202 193.62 133.109 193.481C133.04 193.342 133.051 193.215 133.144 193.099L148.421 169.975C148.56 169.743 148.71 169.593 148.872 169.524C149.034 169.431 149.254 169.385 149.532 169.385ZM134.22 174.697C134.22 175.368 134.44 175.935 134.88 176.398C135.32 176.838 135.864 177.058 136.512 177.058C137.16 177.058 137.704 176.838 138.144 176.398C138.583 175.935 138.803 175.368 138.803 174.697C138.803 174.026 138.583 173.459 138.144 172.996C137.704 172.533 137.16 172.301 136.512 172.301C135.864 172.301 135.32 172.533 134.88 172.996C134.44 173.459 134.22 174.026 134.22 174.697ZM154.879 188.377C154.879 189.882 154.335 191.166 153.247 192.231C152.182 193.296 150.886 193.828 149.358 193.828C147.831 193.828 146.523 193.296 145.435 192.231C144.37 191.166 143.838 189.882 143.838 188.377C143.838 186.873 144.37 185.599 145.435 184.558C146.523 183.493 147.831 182.961 149.358 182.961C150.886 182.961 152.182 183.493 153.247 184.558C154.335 185.599 154.879 186.873 154.879 188.377ZM147.067 188.377C147.067 189.048 147.287 189.616 147.727 190.078C148.166 190.541 148.71 190.773 149.358 190.773C150.007 190.773 150.551 190.541 150.99 190.078C151.43 189.616 151.65 189.048 151.65 188.377C151.65 187.706 151.43 187.15 150.99 186.711C150.551 186.248 150.007 186.016 149.358 186.016C148.71 186.016 148.166 186.248 147.727 186.711C147.287 187.15 147.067 187.706 147.067 188.377Z" fill="#00D639"/>
</g>
<defs>
<clipPath id="clip0_1093_29276">
<rect width="313.553" height="557.534" rx="156.776" fill="white"/>
</clipPath>
</defs>
</svg>
