<svg width="60" height="60" viewBox="0 0 60 60" fill="none" xmlns="http://www.w3.org/2000/svg">
<path d="M57 35H50V53H57V35Z" fill="#777777"/>
<path d="M49.35 51L6 51V37L49.35 37C50.81 37 52 38.19 52 39.65V48.36C52 49.82 50.81 51.01 49.35 51.01V51Z" fill="black"/>
<path fill-rule="evenodd" clip-rule="evenodd" d="M1 35C1 33.8954 1.89543 33 3 33H57C58.1046 33 59 33.8954 59 35V53C59 54.1046 58.1046 55 57 55H3C1.89543 55 1 54.1046 1 53C1 51.8954 1.89543 51 3 51H55V37H3C1.89543 37 1 36.1046 1 35Z" fill="#777777"/>
<path d="M31.51 31.6C35.376 31.6 38.51 27.1228 38.51 21.6C38.51 16.0771 35.376 11.6 31.51 11.6C27.644 11.6 24.51 16.0771 24.51 21.6C24.51 27.1228 27.644 31.6 31.51 31.6Z" fill="black"/>
<path fill-rule="evenodd" clip-rule="evenodd" d="M28.1987 15.6758C27.1946 17.1103 26.51 19.1986 26.51 21.6C26.51 24.0014 27.1946 26.0896 28.1987 27.5241C29.2073 28.9649 30.4088 29.6 31.51 29.6C32.6113 29.6 33.8127 28.9649 34.8213 27.5241C35.8254 26.0896 36.51 24.0014 36.51 21.6C36.51 19.1986 35.8254 17.1103 34.8213 15.6758C33.8127 14.235 32.6113 13.6 31.51 13.6C30.4088 13.6 29.2073 14.235 28.1987 15.6758ZM24.9218 13.382C26.4467 11.2035 28.7453 9.59998 31.51 9.59998C34.2748 9.59998 36.5733 11.2035 38.0982 13.382C39.6276 15.5668 40.51 18.4785 40.51 21.6C40.51 24.7214 39.6276 27.6332 38.0982 29.818C36.5733 31.9965 34.2748 33.6 31.51 33.6C28.7453 33.6 26.4467 31.9965 24.9218 29.818C23.3924 27.6332 22.51 24.7214 22.51 21.6C22.51 18.4785 23.3924 15.5668 24.9218 13.382Z" fill="#00D639"/>
<path fill-rule="evenodd" clip-rule="evenodd" d="M45.2251 17.571C45.7934 18.5181 45.4862 19.7467 44.5391 20.315L39.5391 23.315C38.5919 23.8833 37.3634 23.5761 36.7951 22.629C36.2268 21.6818 36.5339 20.4533 37.4811 19.885L42.4811 16.885C43.4282 16.3167 44.6568 16.6238 45.2251 17.571Z" fill="#00D639"/>
<path fill-rule="evenodd" clip-rule="evenodd" d="M11.9451 14.5661C11.9455 14.5662 11.9459 14.5664 11.9463 14.5665L25.2351 19.7361C26.2646 20.1365 26.7744 21.2957 26.374 22.3251C25.9735 23.3545 24.8144 23.8644 23.785 23.4639L10.4938 18.2935C8.68164 17.5873 6.61315 18.2955 5.61504 19.959L5.61046 19.9666L5.21045 20.6266C4.63794 21.5712 3.40807 21.8729 2.46345 21.3004C1.51882 20.7279 1.21715 19.498 1.78965 18.5534L2.18752 17.8969C4.19013 14.5637 8.31909 13.1536 11.9451 14.5661Z" fill="#00D639"/>
<path fill-rule="evenodd" clip-rule="evenodd" d="M29.9553 1.61609C29.9556 1.61622 29.9559 1.61635 29.9563 1.61648L47.7047 8.51587C48.7342 8.91608 49.2444 10.0751 48.8442 11.1046C48.444 12.1341 47.2849 12.6443 46.2554 12.2441L28.5038 5.34347C26.6917 4.63725 24.6232 5.34545 23.625 7.00897L23.6205 7.01659L23.2205 7.67658C22.648 8.62121 21.4181 8.92287 20.4735 8.35037C19.5288 7.77787 19.2272 6.548 19.7997 5.60337L20.1975 4.94689C22.2001 1.61383 26.3293 0.203915 29.9553 1.61609C29.9555 1.61617 29.9551 1.61602 29.9553 1.61609Z" fill="#00D639"/>
<path d="M50 27.88C53.5843 27.88 56.49 23.7252 56.49 18.6C56.49 13.4748 53.5843 9.32001 50 9.32001C46.4157 9.32001 43.51 13.4748 43.51 18.6C43.51 23.7252 46.4157 27.88 50 27.88Z" fill="black"/>
<path fill-rule="evenodd" clip-rule="evenodd" d="M47.0498 13.1843C46.1377 14.4885 45.51 16.397 45.51 18.6C45.51 20.803 46.1377 22.7115 47.0498 24.0157C47.9665 25.3264 49.0404 25.88 50 25.88C50.9596 25.88 52.0335 25.3264 52.9502 24.0157C53.8623 22.7115 54.49 20.803 54.49 18.6C54.49 16.397 53.8623 14.4885 52.9502 13.1843C52.0335 11.8736 50.9596 11.32 50 11.32C49.0404 11.32 47.9665 11.8736 47.0498 13.1843ZM43.7719 10.8918C45.2042 8.84383 47.3753 7.32001 50 7.32001C52.6248 7.32001 54.7958 8.84383 56.2281 10.8918C57.6649 12.9463 58.49 15.6778 58.49 18.6C58.49 21.5222 57.6649 24.2537 56.2281 26.3082C54.7958 28.3562 52.6248 29.88 50 29.88C47.3753 29.88 45.2042 28.3562 43.7719 26.3082C42.3351 24.2537 41.51 21.5222 41.51 18.6C41.51 15.6778 42.3351 12.9463 43.7719 10.8918Z" fill="#00D639"/>
<path fill-rule="evenodd" clip-rule="evenodd" d="M1 57C1 55.8954 1.89543 55 3 55H57C58.1046 55 59 55.8954 59 57C59 58.1046 58.1046 59 57 59H3C1.89543 59 1 58.1046 1 57Z" fill="white"/>
<path fill-rule="evenodd" clip-rule="evenodd" d="M12 47C12 45.8954 12.8954 45 14 45H32C33.1046 45 34 45.8954 34 47C34 48.1046 33.1046 49 32 49H14C12.8954 49 12 48.1046 12 47Z" fill="#00D639"/>
<path fill-rule="evenodd" clip-rule="evenodd" d="M36 41C36 39.8954 36.8954 39 38 39H46C47.1046 39 48 39.8954 48 41C48 42.1046 47.1046 43 46 43H38C36.8954 43 36 42.1046 36 41Z" fill="#00D639"/>
</svg>
