<svg width="60" height="60" viewBox="0 0 60 60" fill="none" xmlns="http://www.w3.org/2000/svg">
<path d="M4.01992 59C2.34992 59 1.00992 57.69 1.01992 56.08L1.08992 47.04C1.08992 47.04 0.879915 22.92 1.08992 20.75C1.29992 18.58 1.91992 -2.06 37.9499 1.38C56.1799 3.12 53.1299 19.42 53.5899 20.75C53.9899 21.89 58.9999 26.73 58.9999 29.47C58.9999 31.54 57.3199 32.56 55.7799 33.06C54.4299 33.5 53.6199 34.84 53.8199 36.2C54.2599 39.12 54.5699 43.72 52.7299 46.39C50.0299 50.3 46.8899 50.85 45.0499 50.77C44.2199 50.73 43.5299 51.37 43.5699 52.17L43.7899 55.94C43.8899 57.6 42.5199 59.01 40.7899 59.01H4.01992V59Z" fill="#00D639"/>
<path d="M47.8002 20.76C47.8002 22.66 45.8702 24.13 45.0802 25.79C44.2902 27.45 44.4502 29.84 43.0202 31.12C41.7202 32.28 39.3002 31.96 37.5002 32.76C35.9102 33.46 34.6102 35.53 32.6702 35.88C30.9602 36.2 28.9702 34.78 27.0002 34.78C25.0302 34.78 23.0502 36.2 21.3302 35.88C19.3902 35.52 18.0902 33.46 16.5002 32.76C14.7002 31.96 12.2802 32.29 10.9802 31.12C9.54019 29.83 9.6802 27.41 8.9202 25.79C8.1602 24.17 6.2002 22.65 6.2002 20.76C6.2002 18.87 8.1302 17.39 8.9202 15.73C9.7102 14.07 9.5502 11.68 10.9802 10.4C12.2802 9.23998 14.7002 9.55998 16.5002 8.75998C18.0902 8.05998 19.3902 5.98998 21.3302 5.63998C23.0402 5.31998 25.0302 6.73998 27.0002 6.73998C28.9702 6.73998 30.9502 5.31998 32.6702 5.63998C34.6102 5.99998 35.9102 8.05998 37.5002 8.75998C39.3002 9.55998 41.7202 9.22998 43.0202 10.4C44.4602 11.69 44.3202 14.11 45.0802 15.73C45.8402 17.35 47.8002 18.87 47.8002 20.76Z" fill="black"/>
<path fill-rule="evenodd" clip-rule="evenodd" d="M31.7346 18.7594C32.5523 19.5019 32.6132 20.7668 31.8707 21.5845L27.0307 26.9145L27.0205 26.9256C25.7718 28.2802 23.7095 28.5466 22.1607 27.5141L22.154 27.5097L22.1541 27.5097L21.1492 26.834L18.7798 28.8069C17.931 29.5137 16.6699 29.3986 15.9631 28.5498C15.2563 27.7009 15.3715 26.4399 16.2203 25.7331L18.7297 23.6436C18.7299 23.6434 18.7301 23.6432 18.7303 23.6431C20.0197 22.569 21.8393 22.4929 23.2135 23.402L23.226 23.4103L24.2093 24.0715L28.9094 18.8955C29.652 18.0778 30.9168 18.0168 31.7346 18.7594Z" fill="#777777"/>
<path fill-rule="evenodd" clip-rule="evenodd" d="M28.8501 14.24C28.8501 13.1354 29.7455 12.24 30.8501 12.24H36.5001C37.6047 12.24 38.5001 13.1354 38.5001 14.24V19.9C38.5001 21.0046 37.6047 21.9 36.5001 21.9C35.3955 21.9 34.5001 21.0046 34.5001 19.9V16.24H30.8501C29.7455 16.24 28.8501 15.3446 28.8501 14.24Z" fill="white"/>
</svg>
