<svg width="314" height="558" viewBox="0 0 314 558" fill="none" xmlns="http://www.w3.org/2000/svg">
<rect x="1.77148" y="1.77148" width="310.01" height="553.991" rx="155.005" fill="#1B1B1B" stroke="#1B1B1B" stroke-width="3.54297"/>
<path d="M50.1333 489.559C48.105 486.877 47.0824 483.435 47.8261 480.237L55.1785 427.249C55.3334 423.97 57.2546 420.936 59.9364 418.908C62.6182 416.879 66.0607 415.857 69.258 416.6L122.247 423.953C129.312 424.933 134.129 431.302 132.895 438.032C131.915 445.097 125.545 449.915 118.815 448.681L95.8537 445.495L100.417 451.529C117.658 474.324 146.115 485.474 173.835 480.319C201.808 475.499 224.759 454.979 233.055 427.626C234.877 420.978 242.007 417.166 248.909 419.324C255.557 421.147 259.369 428.277 257.211 435.178C246.177 471.453 215.688 498.728 178.475 505.266C141.262 511.805 103.122 496.911 80.3037 466.741L75.7401 460.707L72.554 483.668C71.8188 488.967 68.3032 492.68 63.0128 494.046C58.3111 495.494 53.1757 493.582 50.1333 489.559ZM66.3677 387.695C63.8323 384.342 63.2267 380.058 64.3056 376.607C75.3399 340.332 105.829 313.057 143.042 306.519C180.255 299.98 218.395 314.874 241.213 345.044L245.776 351.079L248.962 328.117C249.943 321.052 256.566 316.57 263.042 317.468C270.107 318.449 274.671 324.483 273.69 331.548L266.338 384.536C265.848 388.069 264.262 390.849 261.58 392.878C258.898 394.906 255.456 395.929 252.258 395.185L199.27 387.833C192.205 386.852 187.388 380.483 188.622 373.753C189.602 366.688 195.971 361.871 202.701 363.105L225.663 366.291L221.099 360.256C203.859 337.461 175.401 326.311 147.681 331.466C119.708 336.286 96.7578 356.806 88.4617 384.159C87.2194 388.788 83.4502 392.165 78.5767 392.689C73.9568 393.549 69.1565 391.382 66.3677 387.695Z" fill="#00D639"/>
<path d="M47.8702 152.689C47.6388 152.689 47.4652 152.632 47.3494 152.516C47.2568 152.377 47.2105 152.227 47.2105 152.064V129.01C47.2105 128.848 47.2568 128.709 47.3494 128.593C47.4652 128.454 47.6388 128.385 47.8702 128.385H56.9672C59.7217 128.385 61.9439 129.102 63.6336 130.537C65.3234 131.949 66.1683 133.928 66.1683 136.475C66.1683 138.975 65.3234 140.919 63.6336 142.308C61.9439 143.697 59.7217 144.391 56.9672 144.391H53.0784V152.064C53.0784 152.227 53.0205 152.377 52.9048 152.516C52.8122 152.632 52.6502 152.689 52.4187 152.689H47.8702ZM56.6894 133.419H53.0784V139.738H56.6894C57.7079 139.738 58.5643 139.484 59.2588 138.975C59.9532 138.465 60.3004 137.678 60.3004 136.614C60.3004 135.549 59.9532 134.75 59.2588 134.218C58.5643 133.685 57.7079 133.419 56.6894 133.419ZM73.186 152.967C71.4499 152.967 70.0727 152.504 69.0542 151.578C68.0357 150.629 67.5265 149.426 67.5265 147.967C67.5265 146.37 68.1399 145.086 69.3667 144.113C70.5935 143.141 72.2832 142.574 74.4359 142.412L78.7066 142.134V140.988C78.7066 140.132 78.452 139.472 77.9428 139.009C77.4567 138.523 76.797 138.28 75.9637 138.28C75.1767 138.28 74.4707 138.454 73.8457 138.801C73.2439 139.125 72.642 139.704 72.0402 140.537C71.9476 140.63 71.8319 140.688 71.693 140.711C71.5541 140.734 71.3805 140.699 71.1722 140.607L68.1514 139.148C67.9894 139.079 67.8968 138.975 67.8737 138.836C67.8505 138.674 67.8852 138.523 67.9778 138.384C68.6954 137.204 69.7486 136.209 71.1374 135.398C72.5263 134.565 74.3086 134.148 76.4845 134.148C78.8224 134.148 80.6857 134.773 82.0746 136.023C83.4866 137.25 84.1926 138.951 84.1926 141.127V152.099C84.1926 152.284 84.1463 152.435 84.0537 152.551C83.9611 152.643 83.8106 152.689 83.6023 152.689H79.1927C79.0307 152.689 78.9034 152.643 78.8108 152.551C78.7414 152.435 78.7066 152.284 78.7066 152.099V150.155C78.1743 151.011 77.422 151.694 76.4498 152.203C75.4776 152.713 74.3897 152.967 73.186 152.967ZM72.8388 147.447C72.8388 148.095 73.0587 148.581 73.4985 148.905C73.9614 149.229 74.5517 149.391 75.2693 149.391C76.172 149.391 76.9706 149.113 77.665 148.558C78.3594 147.979 78.7066 147.192 78.7066 146.197V145.155L75.6859 145.398C74.7369 145.491 74.0193 145.699 73.5332 146.023C73.0703 146.347 72.8388 146.822 72.8388 147.447ZM90.7432 160.154C90.0719 160.154 89.3428 160.097 88.5558 159.981C87.7688 159.888 87.0975 159.692 86.5419 159.391C86.3799 159.344 86.2758 159.263 86.2295 159.148C86.1832 159.055 86.1716 158.939 86.1947 158.8L87.2364 155.294C87.2595 155.155 87.329 155.062 87.4447 155.016C87.5604 154.969 87.6762 154.958 87.7919 154.981C88.2086 155.143 88.6252 155.294 89.0419 155.432C89.4817 155.571 89.8867 155.641 90.2571 155.641C90.8358 155.641 91.3219 155.502 91.7154 155.224C92.132 154.946 92.5256 154.333 92.8959 153.384L85.9517 135.086C85.8822 134.924 85.8822 134.773 85.9517 134.634C86.0443 134.496 86.1947 134.426 86.4031 134.426H91.264C91.4029 134.426 91.5071 134.461 91.5765 134.53C91.6691 134.577 91.7385 134.658 91.7848 134.773L95.7778 146.683L99.9443 134.773C99.9674 134.658 100.037 134.577 100.153 134.53C100.268 134.461 100.373 134.426 100.465 134.426H104.979C105.187 134.426 105.326 134.496 105.396 134.634C105.465 134.773 105.477 134.912 105.43 135.051L98.243 154.217C97.3865 156.486 96.3333 158.037 95.0833 158.87C93.8565 159.726 92.4098 160.154 90.7432 160.154ZM108.185 152.689C107.953 152.689 107.791 152.632 107.699 152.516C107.629 152.4 107.595 152.261 107.595 152.099V128.975C107.595 128.813 107.629 128.674 107.699 128.558C107.791 128.443 107.953 128.385 108.185 128.385H112.594C112.78 128.385 112.919 128.443 113.011 128.558C113.127 128.674 113.185 128.813 113.185 128.975V137.239C113.694 136.243 114.377 135.479 115.233 134.947C116.09 134.391 117.108 134.114 118.289 134.114C120.441 134.114 122.212 134.935 123.601 136.579C125.013 138.222 125.719 140.537 125.719 143.523C125.719 146.532 125.013 148.859 123.601 150.502C122.212 152.145 120.441 152.967 118.289 152.967C117.108 152.967 116.09 152.701 115.233 152.169C114.377 151.613 113.694 150.838 113.185 149.842V152.099C113.185 152.261 113.127 152.4 113.011 152.516C112.919 152.632 112.78 152.689 112.594 152.689H108.185ZM116.657 148.523C117.652 148.523 118.485 148.106 119.157 147.273C119.851 146.44 120.198 145.19 120.198 143.523C120.198 141.833 119.851 140.583 119.157 139.773C118.485 138.94 117.652 138.523 116.657 138.523C115.661 138.523 114.828 138.94 114.157 139.773C113.509 140.583 113.185 141.833 113.185 143.523C113.185 145.19 113.509 146.44 114.157 147.273C114.828 148.106 115.661 148.523 116.657 148.523ZM133.711 152.967C131.975 152.967 130.597 152.504 129.579 151.578C128.56 150.629 128.051 149.426 128.051 147.967C128.051 146.37 128.664 145.086 129.891 144.113C131.118 143.141 132.808 142.574 134.961 142.412L139.231 142.134V140.988C139.231 140.132 138.977 139.472 138.467 139.009C137.981 138.523 137.322 138.28 136.488 138.28C135.701 138.28 134.995 138.454 134.37 138.801C133.768 139.125 133.167 139.704 132.565 140.537C132.472 140.63 132.356 140.688 132.218 140.711C132.079 140.734 131.905 140.699 131.697 140.607L128.676 139.148C128.514 139.079 128.421 138.975 128.398 138.836C128.375 138.674 128.41 138.523 128.502 138.384C129.22 137.204 130.273 136.209 131.662 135.398C133.051 134.565 134.833 134.148 137.009 134.148C139.347 134.148 141.21 134.773 142.599 136.023C144.011 137.25 144.717 138.951 144.717 141.127V152.099C144.717 152.284 144.671 152.435 144.578 152.551C144.486 152.643 144.335 152.689 144.127 152.689H139.717C139.555 152.689 139.428 152.643 139.335 152.551C139.266 152.435 139.231 152.284 139.231 152.099V150.155C138.699 151.011 137.947 151.694 136.974 152.203C136.002 152.713 134.914 152.967 133.711 152.967ZM133.363 147.447C133.363 148.095 133.583 148.581 134.023 148.905C134.486 149.229 135.076 149.391 135.794 149.391C136.697 149.391 137.495 149.113 138.19 148.558C138.884 147.979 139.231 147.192 139.231 146.197V145.155L136.21 145.398C135.261 145.491 134.544 145.699 134.058 146.023C133.595 146.347 133.363 146.822 133.363 147.447ZM153.547 143.558C153.547 145.224 153.848 146.486 154.45 147.342C155.052 148.199 155.839 148.627 156.811 148.627C157.575 148.627 158.211 148.372 158.721 147.863C159.253 147.354 159.658 146.625 159.936 145.676C159.982 145.56 160.063 145.467 160.179 145.398C160.295 145.329 160.434 145.305 160.596 145.329L164.588 145.884C164.727 145.907 164.832 145.977 164.901 146.092C164.994 146.208 165.028 146.347 165.005 146.509C164.936 146.926 164.82 147.342 164.658 147.759C164.519 148.153 164.345 148.546 164.137 148.94C163.929 149.31 163.686 149.669 163.408 150.016C163.13 150.363 162.818 150.687 162.47 150.988C162.123 151.289 161.741 151.567 161.325 151.821C160.931 152.053 160.491 152.261 160.005 152.446C159.542 152.608 159.033 152.736 158.478 152.828C157.945 152.921 157.378 152.967 156.776 152.967C156.151 152.967 155.538 152.909 154.936 152.794C154.357 152.701 153.802 152.551 153.269 152.342C152.737 152.134 152.239 151.879 151.776 151.578C151.313 151.254 150.885 150.896 150.492 150.502C150.098 150.109 149.739 149.669 149.415 149.183C149.114 148.673 148.848 148.129 148.617 147.551C148.408 146.972 148.246 146.347 148.131 145.676C148.015 145.005 147.957 144.299 147.957 143.558C147.957 142.817 148.015 142.111 148.131 141.44C148.246 140.769 148.408 140.144 148.617 139.565C148.848 138.986 149.114 138.454 149.415 137.968C149.739 137.458 150.098 137.007 150.492 136.614C150.885 136.197 151.313 135.838 151.776 135.537C152.239 135.213 152.737 134.947 153.269 134.739C153.802 134.53 154.357 134.38 154.936 134.287C155.538 134.172 156.151 134.114 156.776 134.114C157.378 134.114 157.945 134.16 158.478 134.253C159.033 134.345 159.542 134.484 160.005 134.669C160.491 134.831 160.931 135.04 161.325 135.294C161.741 135.526 162.123 135.792 162.47 136.093C162.818 136.394 163.13 136.718 163.408 137.065C163.686 137.412 163.929 137.783 164.137 138.176C164.345 138.546 164.519 138.94 164.658 139.357C164.82 139.75 164.936 140.155 165.005 140.572C165.028 140.734 165.005 140.873 164.936 140.988C164.866 141.104 164.751 141.174 164.588 141.197L160.596 141.752C160.434 141.775 160.295 141.752 160.179 141.683C160.063 141.613 159.982 141.521 159.936 141.405C159.635 140.433 159.23 139.692 158.721 139.183C158.211 138.674 157.575 138.419 156.811 138.419C155.839 138.419 155.052 138.847 154.45 139.704C153.848 140.56 153.547 141.845 153.547 143.558ZM168.506 152.689C168.275 152.689 168.112 152.632 168.02 152.516C167.95 152.4 167.916 152.261 167.916 152.099V128.975C167.916 128.813 167.95 128.674 168.02 128.558C168.112 128.443 168.275 128.385 168.506 128.385H172.916C173.101 128.385 173.24 128.443 173.332 128.558C173.448 128.674 173.506 128.813 173.506 128.975V152.099C173.506 152.261 173.448 152.4 173.332 152.516C173.24 152.632 173.101 152.689 172.916 152.689H168.506ZM179.929 152.689C179.767 152.689 179.64 152.678 179.547 152.655C179.478 152.608 179.397 152.516 179.304 152.377L173.992 143.731C173.969 143.685 173.969 143.639 173.992 143.593C174.015 143.523 174.038 143.465 174.061 143.419L179.825 134.669C179.918 134.553 180.01 134.484 180.103 134.461C180.195 134.438 180.311 134.426 180.45 134.426H184.999C185.207 134.426 185.334 134.496 185.38 134.634C185.427 134.75 185.404 134.889 185.311 135.051L179.825 143.28L185.45 151.96C185.566 152.122 185.6 152.284 185.554 152.446C185.531 152.608 185.392 152.689 185.137 152.689H179.929ZM55.7519 234.933C55.0112 234.933 54.3052 234.875 53.6339 234.759C52.9858 234.643 52.3608 234.47 51.759 234.238C51.1572 234.007 50.6016 233.729 50.0924 233.405C49.5831 233.081 49.1086 232.699 48.6688 232.259C48.229 231.819 47.8355 231.345 47.4883 230.835C47.1642 230.303 46.8865 229.736 46.655 229.134C46.4235 228.509 46.2499 227.849 46.1342 227.155C46.0184 226.461 45.9606 225.72 45.9606 224.933C45.9606 224.053 46.0184 223.197 46.1342 222.363C46.2731 221.507 46.4582 220.685 46.6897 219.898C46.9443 219.111 47.2453 218.359 47.5925 217.641C47.9628 216.901 48.3911 216.218 48.8772 215.593C49.3632 214.945 49.9072 214.354 50.509 213.822C51.134 213.267 51.8053 212.769 52.5229 212.329C53.2636 211.866 54.0506 211.473 54.8839 211.149C55.7404 210.824 56.6431 210.57 57.5921 210.385C58.5643 210.176 59.5944 210.049 60.6823 210.003C60.8444 210.003 60.9717 210.037 61.0643 210.107C61.18 210.153 61.2379 210.257 61.2379 210.419L62.0017 214.135C62.0249 214.32 62.0017 214.47 61.9323 214.586C61.8628 214.679 61.7471 214.736 61.5851 214.76C58.9 214.922 56.7241 215.616 55.0575 216.843C53.3909 218.07 52.3377 219.968 51.8979 222.537C52.546 221.681 53.3677 221.009 54.3631 220.523C55.3584 220.014 56.4464 219.759 57.6269 219.759C59.687 219.759 61.3767 220.408 62.6961 221.704C64.0387 223 64.71 224.713 64.71 226.842C64.71 227.444 64.6521 228.023 64.5364 228.579C64.4206 229.134 64.247 229.666 64.0156 230.176C63.8072 230.662 63.541 231.125 63.217 231.565C62.8929 231.981 62.5225 232.363 62.1059 232.71C61.7124 233.058 61.2726 233.37 60.7865 233.648C60.3235 233.926 59.8259 234.157 59.2935 234.342C58.7611 234.527 58.194 234.666 57.5921 234.759C56.9903 234.875 56.3769 234.933 55.7519 234.933ZM55.613 230.627C56.6315 230.627 57.4648 230.291 58.113 229.62C58.7611 228.949 59.0852 228.104 59.0852 227.086C59.0852 226.09 58.7611 225.268 58.113 224.62C57.4648 223.972 56.6315 223.648 55.613 223.648C54.5714 223.648 53.7265 223.972 53.0784 224.62C52.4534 225.268 52.1409 226.09 52.1409 227.086C52.1409 228.104 52.4534 228.949 53.0784 229.62C53.7265 230.291 54.5714 230.627 55.613 230.627ZM80.5957 234.064C80.5957 234.25 80.5378 234.4 80.4221 234.516C80.3295 234.632 80.2022 234.689 80.0402 234.689H75.9778C75.7695 234.689 75.619 234.632 75.5264 234.516C75.4338 234.4 75.3875 234.25 75.3875 234.064V211.079C75.3875 210.871 75.4454 210.709 75.5611 210.593C75.7 210.454 75.8736 210.385 76.0819 210.385H81.8804C82.1118 210.385 82.2855 210.431 82.4012 210.524C82.5401 210.616 82.6558 210.801 82.7484 211.079L87.0538 222.259L91.3245 211.079C91.4171 210.801 91.5328 210.616 91.6717 210.524C91.8106 210.431 91.9958 210.385 92.2273 210.385H98.0257C98.234 210.385 98.396 210.477 98.5118 210.662C98.6507 210.824 98.7201 211.056 98.7201 211.357V234.064C98.7201 234.25 98.6738 234.4 98.5812 234.516C98.5118 234.632 98.3613 234.689 98.1298 234.689H93.9286C93.6971 234.689 93.5351 234.632 93.4425 234.516C93.3499 234.4 93.3036 234.25 93.3036 234.064L93.4772 218.162L89.0329 229.516C88.9635 229.701 88.8825 229.828 88.7899 229.898C88.6973 229.967 88.5815 230.002 88.4427 230.002H85.4914C85.3525 230.002 85.2367 229.967 85.1442 229.898C85.0516 229.828 84.9705 229.713 84.9011 229.551L80.4568 218.162L80.5957 234.064ZM102.182 225.523C102.182 224.782 102.24 224.088 102.356 223.44C102.472 222.769 102.634 222.144 102.842 221.565C103.073 220.963 103.34 220.419 103.64 219.933C103.965 219.424 104.323 218.972 104.717 218.579C105.133 218.162 105.585 217.803 106.071 217.503C106.557 217.202 107.066 216.947 107.599 216.739C108.154 216.507 108.733 216.345 109.335 216.253C109.937 216.137 110.562 216.079 111.21 216.079C111.858 216.079 112.483 216.137 113.085 216.253C113.686 216.345 114.265 216.507 114.821 216.739C115.376 216.947 115.885 217.202 116.348 217.503C116.834 217.803 117.274 218.162 117.668 218.579C118.084 218.972 118.455 219.424 118.779 219.933C119.103 220.419 119.369 220.963 119.577 221.565C119.809 222.144 119.983 222.769 120.098 223.44C120.214 224.088 120.272 224.782 120.272 225.523C120.272 226.264 120.214 226.97 120.098 227.641C119.983 228.312 119.809 228.949 119.577 229.551C119.369 230.129 119.103 230.662 118.779 231.148C118.455 231.634 118.084 232.085 117.668 232.502C117.274 232.896 116.834 233.254 116.348 233.578C115.885 233.879 115.376 234.134 114.821 234.342C114.265 234.551 113.686 234.701 113.085 234.794C112.483 234.909 111.858 234.967 111.21 234.967C110.562 234.967 109.937 234.909 109.335 234.794C108.733 234.701 108.154 234.551 107.599 234.342C107.066 234.134 106.557 233.879 106.071 233.578C105.585 233.254 105.133 232.896 104.717 232.502C104.323 232.085 103.965 231.634 103.64 231.148C103.34 230.662 103.073 230.129 102.842 229.551C102.634 228.949 102.472 228.312 102.356 227.641C102.24 226.97 102.182 226.264 102.182 225.523ZM114.751 225.523C114.751 223.833 114.404 222.572 113.71 221.738C113.038 220.882 112.205 220.454 111.21 220.454C110.214 220.454 109.381 220.882 108.71 221.738C108.038 222.572 107.703 223.833 107.703 225.523C107.703 227.259 108.038 228.555 108.71 229.412C109.381 230.245 110.214 230.662 111.21 230.662C112.205 230.662 113.038 230.245 113.71 229.412C114.404 228.555 114.751 227.259 114.751 225.523ZM124.121 234.689C123.89 234.689 123.728 234.632 123.635 234.516C123.566 234.4 123.531 234.261 123.531 234.099V216.982C123.531 216.82 123.566 216.692 123.635 216.6C123.728 216.484 123.89 216.426 124.121 216.426H128.531C128.716 216.426 128.855 216.484 128.948 216.6C129.063 216.692 129.121 216.82 129.121 216.982V219.1C129.63 218.127 130.325 217.398 131.204 216.912C132.107 216.403 133.091 216.148 134.156 216.148C135.892 216.148 137.304 216.704 138.392 217.815C139.503 218.926 140.058 220.5 140.058 222.537V234.099C140.058 234.261 140 234.4 139.885 234.516C139.792 234.632 139.642 234.689 139.433 234.689H135.058C134.827 234.689 134.665 234.632 134.572 234.516C134.503 234.4 134.468 234.261 134.468 234.099V223.509C134.468 222.491 134.214 221.727 133.704 221.218C133.218 220.685 132.582 220.419 131.795 220.419C131.031 220.419 130.394 220.685 129.885 221.218C129.376 221.727 129.121 222.491 129.121 223.509V234.099C129.121 234.261 129.063 234.4 128.948 234.516C128.855 234.632 128.716 234.689 128.531 234.689H124.121ZM152.145 234.967C150.293 234.967 148.858 234.504 147.839 233.578C146.844 232.629 146.346 231.391 146.346 229.863V220.697H142.701C142.562 220.697 142.446 220.662 142.353 220.593C142.284 220.5 142.249 220.373 142.249 220.211V216.878C142.249 216.715 142.284 216.6 142.353 216.53C142.446 216.461 142.562 216.426 142.701 216.426H146.346V212.19C146.346 212.005 146.393 211.855 146.485 211.739C146.601 211.623 146.751 211.565 146.937 211.565H151.311C151.497 211.565 151.636 211.623 151.728 211.739C151.844 211.855 151.902 212.005 151.902 212.19V216.426H156.138C156.277 216.426 156.392 216.461 156.485 216.53C156.577 216.6 156.624 216.715 156.624 216.878V220.211C156.624 220.373 156.577 220.5 156.485 220.593C156.392 220.662 156.277 220.697 156.138 220.697H151.902V228.613C151.902 229.215 152.075 229.678 152.423 230.002C152.77 230.303 153.267 230.453 153.916 230.453C154.216 230.453 154.529 230.43 154.853 230.384C155.2 230.315 155.594 230.222 156.034 230.106C156.196 230.06 156.323 230.083 156.415 230.176C156.508 230.245 156.554 230.338 156.554 230.453L156.589 233.787C156.612 233.879 156.601 233.972 156.554 234.064C156.508 234.157 156.427 234.227 156.311 234.273C155.825 234.504 155.2 234.678 154.436 234.794C153.696 234.909 152.932 234.967 152.145 234.967ZM159.826 234.689C159.594 234.689 159.432 234.632 159.34 234.516C159.27 234.4 159.235 234.261 159.235 234.099V210.975C159.235 210.813 159.27 210.674 159.34 210.558C159.432 210.443 159.594 210.385 159.826 210.385H164.235C164.42 210.385 164.559 210.443 164.652 210.558C164.768 210.674 164.826 210.813 164.826 210.975V219.1C165.335 218.127 166.029 217.398 166.909 216.912C167.812 216.403 168.795 216.148 169.86 216.148C171.596 216.148 173.008 216.704 174.096 217.815C175.207 218.926 175.763 220.5 175.763 222.537V234.099C175.763 234.261 175.705 234.4 175.589 234.516C175.496 234.632 175.346 234.689 175.138 234.689H170.763C170.531 234.689 170.369 234.632 170.277 234.516C170.207 234.4 170.173 234.261 170.173 234.099V223.509C170.173 222.491 169.918 221.727 169.409 221.218C168.923 220.685 168.286 220.419 167.499 220.419C166.735 220.419 166.099 220.685 165.589 221.218C165.08 221.727 164.826 222.491 164.826 223.509V234.099C164.826 234.261 164.768 234.4 164.652 234.516C164.559 234.632 164.42 234.689 164.235 234.689H159.826ZM186.448 216.148C188.022 216.148 189.48 216.472 190.823 217.121C192.189 217.769 193.23 218.556 193.948 219.482C194.04 219.597 194.087 219.748 194.087 219.933C194.11 220.095 194.04 220.222 193.878 220.315L191.413 222.329C191.297 222.421 191.182 222.456 191.066 222.433C190.95 222.41 190.835 222.352 190.719 222.259C190.071 221.495 189.388 220.951 188.67 220.627C187.953 220.28 187.258 220.107 186.587 220.107C185.985 220.107 185.487 220.234 185.094 220.489C184.724 220.743 184.538 221.114 184.538 221.6C184.538 222.155 184.863 222.572 185.511 222.85C186.159 223.104 186.934 223.336 187.837 223.544C188.115 223.613 188.404 223.683 188.705 223.752C189.006 223.822 189.307 223.903 189.608 223.995C189.909 224.088 190.198 224.192 190.476 224.308C190.777 224.4 191.066 224.516 191.344 224.655C191.645 224.771 191.922 224.91 192.177 225.072C192.432 225.234 192.663 225.407 192.872 225.593C193.103 225.778 193.311 225.998 193.496 226.252C193.682 226.484 193.832 226.738 193.948 227.016C194.087 227.294 194.191 227.606 194.26 227.954C194.33 228.278 194.365 228.636 194.365 229.03C194.365 230.882 193.624 232.34 192.142 233.405C190.661 234.446 188.717 234.967 186.309 234.967C184.295 234.967 182.606 234.62 181.24 233.926C179.874 233.208 178.925 232.456 178.393 231.669C178.277 231.553 178.208 231.426 178.184 231.287C178.184 231.125 178.266 230.986 178.428 230.87L180.719 228.717C180.835 228.602 180.951 228.544 181.066 228.544C181.182 228.544 181.286 228.59 181.379 228.683C182.073 229.539 182.837 230.164 183.67 230.558C184.504 230.951 185.349 231.148 186.205 231.148C187.108 231.148 187.779 230.997 188.219 230.697C188.682 230.396 188.913 229.991 188.913 229.481C188.913 228.903 188.531 228.498 187.768 228.266C187.004 228.011 186.112 227.768 185.094 227.537C184.793 227.467 184.481 227.398 184.157 227.329C183.832 227.236 183.508 227.143 183.184 227.051C182.883 226.935 182.582 226.819 182.282 226.704C181.981 226.565 181.691 226.414 181.414 226.252C181.159 226.09 180.904 225.905 180.65 225.697C180.418 225.488 180.198 225.268 179.99 225.037C179.805 224.782 179.643 224.505 179.504 224.204C179.365 223.88 179.249 223.544 179.157 223.197C179.087 222.826 179.053 222.421 179.053 221.982C179.053 220.199 179.724 218.787 181.066 217.746C182.432 216.681 184.226 216.148 186.448 216.148Z" fill="#00D639"/>
<path d="M199.315 131.753C198.667 131.753 198.065 131.521 197.509 131.058C196.954 130.595 196.676 129.993 196.676 129.253C196.676 128.512 196.954 127.91 197.509 127.447C198.065 126.984 198.667 126.753 199.315 126.753C199.963 126.753 200.553 126.984 201.085 127.447C201.641 127.91 201.919 128.512 201.919 129.253C201.919 129.993 201.641 130.595 201.085 131.058C200.553 131.521 199.963 131.753 199.315 131.753ZM202.405 152.967C200.738 152.967 199.465 152.551 198.586 151.717C197.706 150.861 197.266 149.738 197.266 148.349V137.933H193.898C193.782 137.933 193.678 137.898 193.586 137.829C193.493 137.736 193.447 137.632 193.447 137.516V135.121C193.447 135.005 193.482 134.912 193.551 134.843C193.644 134.773 193.759 134.739 193.898 134.739H200.981C201.097 134.739 201.19 134.773 201.259 134.843C201.352 134.912 201.398 135.005 201.398 135.121V147.516C201.398 148.187 201.572 148.708 201.919 149.078C202.289 149.449 202.798 149.634 203.447 149.634C203.724 149.634 204.014 149.611 204.315 149.565C204.615 149.495 204.951 149.414 205.321 149.322C205.46 149.275 205.553 149.287 205.599 149.356C205.669 149.426 205.715 149.507 205.738 149.599L205.877 151.995C205.877 152.088 205.854 152.169 205.808 152.238C205.784 152.308 205.727 152.365 205.634 152.412C205.31 152.574 204.847 152.701 204.245 152.794C203.666 152.909 203.053 152.967 202.405 152.967ZM209.203 152.689C209.018 152.689 208.89 152.643 208.821 152.551C208.752 152.458 208.717 152.342 208.717 152.203V135.19C208.717 135.074 208.752 134.97 208.821 134.878C208.89 134.785 209.018 134.739 209.203 134.739H212.293C212.455 134.739 212.582 134.785 212.675 134.878C212.768 134.97 212.814 135.074 212.814 135.19V137.308C213.323 136.382 214.006 135.676 214.862 135.19C215.742 134.704 216.703 134.461 217.744 134.461C219.457 134.461 220.858 135.016 221.946 136.127C223.057 137.239 223.612 138.801 223.612 140.815V152.203C223.612 152.342 223.566 152.458 223.473 152.551C223.404 152.643 223.288 152.689 223.126 152.689H219.966C219.804 152.689 219.689 152.643 219.619 152.551C219.55 152.458 219.515 152.342 219.515 152.203V141.475C219.515 140.225 219.203 139.276 218.578 138.627C217.953 137.979 217.142 137.655 216.147 137.655C215.198 137.655 214.4 137.979 213.751 138.627C213.126 139.276 212.814 140.225 212.814 141.475V152.203C212.814 152.342 212.768 152.458 212.675 152.551C212.582 152.643 212.455 152.689 212.293 152.689H209.203ZM51.9326 193.967C50.2428 193.967 48.8887 193.504 47.8702 192.578C46.8749 191.652 46.3772 190.495 46.3772 189.106C46.3772 187.463 46.9791 186.178 48.1827 185.252C49.3864 184.303 51.053 183.748 53.1826 183.586L57.4185 183.273V182.093C57.4185 180.958 57.1061 180.09 56.4811 179.489C55.8792 178.887 55.0807 178.586 54.0853 178.586C53.252 178.586 52.4881 178.771 51.7937 179.141C51.1224 179.489 50.4975 180.148 49.9188 181.12C49.8262 181.213 49.722 181.271 49.6063 181.294C49.4906 181.294 49.3517 181.259 49.1896 181.19L47.0369 180.183C46.898 180.114 46.817 180.021 46.7939 179.905C46.7707 179.766 46.7939 179.627 46.8633 179.489C47.5115 178.354 48.4605 177.405 49.7105 176.641C50.9604 175.854 52.546 175.461 54.4672 175.461C56.5505 175.461 58.2287 176.051 59.5018 177.232C60.7981 178.412 61.4462 180.056 61.4462 182.162V193.203C61.4462 193.365 61.3999 193.493 61.3073 193.585C61.2379 193.655 61.1221 193.689 60.9601 193.689H57.8352C57.6963 193.689 57.5921 193.655 57.5227 193.585C57.4533 193.493 57.4185 193.365 57.4185 193.203V191.085C56.8862 191.988 56.1339 192.694 55.1617 193.203C54.2126 193.713 53.1363 193.967 51.9326 193.967ZM50.3007 188.724C50.3007 189.558 50.5901 190.171 51.1687 190.565C51.7474 190.935 52.4534 191.12 53.2867 191.12C54.3515 191.12 55.3006 190.784 56.1339 190.113C56.9903 189.442 57.4185 188.516 57.4185 187.335V185.842L54.0853 186.155C52.8354 186.248 51.8863 186.502 51.2382 186.919C50.6132 187.335 50.3007 187.937 50.3007 188.724ZM71.9276 175.461C73.4785 175.461 74.8673 175.82 76.0942 176.537C77.3441 177.255 78.2932 178.146 78.9413 179.211C79.0107 179.303 79.0339 179.419 79.0107 179.558C78.9876 179.674 78.9181 179.778 78.8024 179.87L76.858 181.225C76.7654 181.294 76.6613 181.317 76.5455 181.294C76.4529 181.271 76.3603 181.201 76.2678 181.086C75.6659 180.206 75.0062 179.546 74.2887 179.107C73.5942 178.667 72.8419 178.447 72.0318 178.447C71.3142 178.447 70.7008 178.632 70.1916 179.002C69.7055 179.35 69.4624 179.87 69.4624 180.565C69.4624 181.306 69.8328 181.85 70.5735 182.197C71.3142 182.544 72.1822 182.856 73.1776 183.134C73.4554 183.204 73.7331 183.285 74.0109 183.377C74.3118 183.447 74.6011 183.528 74.8789 183.62C75.1567 183.713 75.4345 183.817 75.7122 183.933C76.0131 184.025 76.2909 184.141 76.5455 184.28C76.8001 184.396 77.0432 184.535 77.2747 184.697C77.5293 184.836 77.7608 184.998 77.9691 185.183C78.1774 185.368 78.3626 185.576 78.5246 185.808C78.6867 186.016 78.8255 186.259 78.9413 186.537C79.057 186.792 79.1496 187.081 79.2191 187.405C79.2885 187.706 79.3232 188.041 79.3232 188.412C79.3232 188.921 79.2653 189.396 79.1496 189.835C79.0339 190.275 78.8603 190.68 78.6288 191.051C78.3973 191.421 78.108 191.768 77.7608 192.092C77.4367 192.393 77.0663 192.659 76.6497 192.891C76.2562 193.122 75.8164 193.319 75.3303 193.481C74.8442 193.643 74.3234 193.759 73.7678 193.828C73.2354 193.921 72.6683 193.967 72.0665 193.967C70.2147 193.967 68.6754 193.608 67.4486 192.891C66.2449 192.15 65.3538 191.271 64.7751 190.252C64.7056 190.136 64.6709 190.021 64.6709 189.905C64.6709 189.789 64.7404 189.685 64.8792 189.592L66.7195 188.169C66.812 188.076 66.9162 188.041 67.0319 188.065C67.1477 188.065 67.2403 188.111 67.3097 188.204C67.9115 189.199 68.6175 189.916 69.4277 190.356C70.2379 190.796 71.0827 191.016 71.9623 191.016C72.9577 191.016 73.7563 190.819 74.3581 190.426C74.9831 190.009 75.2956 189.43 75.2956 188.69C75.2956 187.949 74.9021 187.417 74.1151 187.092C73.3512 186.768 72.4484 186.479 71.4068 186.224C71.1059 186.132 70.7934 186.051 70.4693 185.981C70.1453 185.889 69.8212 185.796 69.4971 185.704C69.1962 185.588 68.8953 185.472 68.5944 185.356C68.3166 185.218 68.0389 185.079 67.7611 184.94C67.4833 184.778 67.2171 184.604 66.9625 184.419C66.731 184.211 66.5227 183.991 66.3375 183.759C66.1523 183.528 65.9903 183.273 65.8514 182.995C65.7125 182.694 65.5968 182.37 65.5042 182.023C65.4348 181.653 65.4001 181.259 65.4001 180.843C65.4001 179.176 66.0135 177.868 67.2403 176.919C68.4902 175.947 70.0527 175.461 71.9276 175.461ZM95.9769 193.967C94.3103 193.967 93.0371 193.551 92.1575 192.717C91.3011 191.861 90.8729 190.738 90.8729 189.349V172.579H87.4702C87.3776 172.579 87.2966 172.544 87.2271 172.475C87.1346 172.382 87.0883 172.267 87.0883 172.128V169.801C87.0883 169.662 87.1346 169.558 87.2271 169.489C87.2966 169.419 87.3776 169.385 87.4702 169.385H94.588C94.6806 169.385 94.7616 169.431 94.8311 169.524C94.9237 169.593 94.97 169.686 94.97 169.801V188.516C94.97 189.187 95.1551 189.708 95.5255 190.078C95.8959 190.449 96.4051 190.634 97.0532 190.634C97.3078 190.634 97.5856 190.611 97.8865 190.565C98.2106 190.518 98.5578 190.437 98.9282 190.322C99.067 190.275 99.1712 190.287 99.2407 190.356C99.3101 190.426 99.3448 190.507 99.3448 190.599L99.449 192.995C99.449 193.088 99.4374 193.169 99.4143 193.238C99.3911 193.308 99.3217 193.365 99.2059 193.412C98.8819 193.574 98.4189 193.701 97.8171 193.794C97.2153 193.909 96.6018 193.967 95.9769 193.967ZM104.781 172.753C104.133 172.753 103.531 172.521 102.976 172.058C102.42 171.595 102.142 170.993 102.142 170.253C102.142 169.512 102.42 168.91 102.976 168.447C103.531 167.984 104.133 167.753 104.781 167.753C105.429 167.753 106.019 167.984 106.552 168.447C107.107 168.91 107.385 169.512 107.385 170.253C107.385 170.993 107.107 171.595 106.552 172.058C106.019 172.521 105.429 172.753 104.781 172.753ZM107.871 193.967C106.205 193.967 104.932 193.551 104.052 192.717C103.172 191.861 102.733 190.738 102.733 189.349V178.933H99.3646C99.2489 178.933 99.1447 178.898 99.0521 178.829C98.9595 178.736 98.9132 178.632 98.9132 178.516V176.121C98.9132 176.005 98.948 175.912 99.0174 175.843C99.11 175.773 99.2257 175.739 99.3646 175.739H106.448C106.563 175.739 106.656 175.773 106.725 175.843C106.818 175.912 106.864 176.005 106.864 176.121V188.516C106.864 189.187 107.038 189.708 107.385 190.078C107.756 190.449 108.265 190.634 108.913 190.634C109.191 190.634 109.48 190.611 109.781 190.565C110.082 190.495 110.418 190.414 110.788 190.322C110.927 190.275 111.019 190.287 111.066 190.356C111.135 190.426 111.181 190.507 111.205 190.599L111.343 192.995C111.343 193.088 111.32 193.169 111.274 193.238C111.251 193.308 111.193 193.365 111.1 193.412C110.776 193.574 110.313 193.701 109.712 193.794C109.133 193.909 108.519 193.967 107.871 193.967ZM120.086 193.967C118.466 193.967 117.216 193.551 116.336 192.717C115.457 191.861 115.017 190.738 115.017 189.349V178.933H111.336C111.221 178.933 111.128 178.898 111.059 178.829C110.989 178.759 110.954 178.655 110.954 178.516V176.121C110.954 175.982 110.989 175.889 111.059 175.843C111.128 175.773 111.221 175.739 111.336 175.739H115.017V171.329C115.017 171.19 115.051 171.074 115.121 170.982C115.19 170.889 115.306 170.843 115.468 170.843H118.593C118.755 170.843 118.871 170.889 118.94 170.982C119.033 171.074 119.079 171.19 119.079 171.329V175.739H123.489C123.604 175.739 123.697 175.773 123.766 175.843C123.859 175.889 123.905 175.982 123.905 176.121V178.516C123.905 178.655 123.859 178.759 123.766 178.829C123.697 178.898 123.604 178.933 123.489 178.933H119.079V188.516C119.079 189.187 119.264 189.708 119.635 190.078C120.028 190.449 120.561 190.634 121.232 190.634C121.579 190.634 121.915 190.599 122.239 190.53C122.586 190.46 122.956 190.368 123.35 190.252C123.489 190.206 123.593 190.217 123.662 190.287C123.755 190.333 123.801 190.403 123.801 190.495L123.905 192.891C123.905 192.983 123.894 193.064 123.871 193.134C123.848 193.203 123.79 193.261 123.697 193.308C123.28 193.516 122.748 193.678 122.1 193.794C121.452 193.909 120.78 193.967 120.086 193.967ZM134.7 193.967C133.08 193.967 131.83 193.551 130.95 192.717C130.071 191.861 129.631 190.738 129.631 189.349V178.933H125.95C125.835 178.933 125.742 178.898 125.673 178.829C125.603 178.759 125.568 178.655 125.568 178.516V176.121C125.568 175.982 125.603 175.889 125.673 175.843C125.742 175.773 125.835 175.739 125.95 175.739H129.631V171.329C129.631 171.19 129.666 171.074 129.735 170.982C129.804 170.889 129.92 170.843 130.082 170.843H133.207C133.369 170.843 133.485 170.889 133.554 170.982C133.647 171.074 133.693 171.19 133.693 171.329V175.739H138.103C138.219 175.739 138.311 175.773 138.381 175.843C138.473 175.889 138.519 175.982 138.519 176.121V178.516C138.519 178.655 138.473 178.759 138.381 178.829C138.311 178.898 138.219 178.933 138.103 178.933H133.693V188.516C133.693 189.187 133.878 189.708 134.249 190.078C134.642 190.449 135.175 190.634 135.846 190.634C136.193 190.634 136.529 190.599 136.853 190.53C137.2 190.46 137.57 190.368 137.964 190.252C138.103 190.206 138.207 190.217 138.276 190.287C138.369 190.333 138.415 190.403 138.415 190.495L138.519 192.891C138.519 192.983 138.508 193.064 138.485 193.134C138.462 193.203 138.404 193.261 138.311 193.308C137.894 193.516 137.362 193.678 136.714 193.794C136.066 193.909 135.395 193.967 134.7 193.967ZM147.787 193.967C146.121 193.967 144.848 193.551 143.968 192.717C143.111 191.861 142.683 190.738 142.683 189.349V172.579H139.281C139.188 172.579 139.107 172.544 139.038 172.475C138.945 172.382 138.899 172.267 138.899 172.128V169.801C138.899 169.662 138.945 169.558 139.038 169.489C139.107 169.419 139.188 169.385 139.281 169.385H146.398C146.491 169.385 146.572 169.431 146.641 169.524C146.734 169.593 146.78 169.686 146.78 169.801V188.516C146.78 189.187 146.966 189.708 147.336 190.078C147.706 190.449 148.215 190.634 148.864 190.634C149.118 190.634 149.396 190.611 149.697 190.565C150.021 190.518 150.368 190.437 150.739 190.322C150.877 190.275 150.982 190.287 151.051 190.356C151.12 190.426 151.155 190.507 151.155 190.599L151.259 192.995C151.259 193.088 151.248 193.169 151.225 193.238C151.201 193.308 151.132 193.365 151.016 193.412C150.692 193.574 150.229 193.701 149.627 193.794C149.026 193.909 148.412 193.967 147.787 193.967ZM168.4 185.634H156.873C156.989 187.44 157.452 188.771 158.262 189.627C159.095 190.46 160.137 190.877 161.387 190.877C162.243 190.877 162.984 190.68 163.609 190.287C164.257 189.87 164.801 189.268 165.241 188.481C165.31 188.366 165.391 188.296 165.484 188.273C165.576 188.227 165.704 188.227 165.866 188.273L168.262 188.828C168.447 188.875 168.563 188.944 168.609 189.037C168.678 189.129 168.69 189.245 168.644 189.384C168.505 189.731 168.331 190.067 168.123 190.391C167.914 190.715 167.683 191.028 167.428 191.328C167.197 191.629 166.919 191.919 166.595 192.196C166.294 192.451 165.958 192.694 165.588 192.926C165.218 193.134 164.813 193.319 164.373 193.481C163.933 193.643 163.459 193.759 162.949 193.828C162.463 193.921 161.931 193.967 161.352 193.967C160.75 193.967 160.16 193.909 159.581 193.794C159.026 193.701 158.493 193.551 157.984 193.342C157.475 193.134 156.989 192.879 156.526 192.578C156.086 192.277 155.681 191.93 155.311 191.537C154.94 191.143 154.605 190.703 154.304 190.217C154.003 189.731 153.748 189.199 153.54 188.62C153.332 188.041 153.169 187.428 153.054 186.78C152.961 186.132 152.915 185.437 152.915 184.697C152.915 183.979 152.961 183.296 153.054 182.648C153.169 181.977 153.332 181.363 153.54 180.808C153.748 180.229 153.991 179.697 154.269 179.211C154.57 178.725 154.894 178.285 155.241 177.891C155.612 177.498 156.017 177.151 156.456 176.85C156.896 176.549 157.359 176.294 157.845 176.086C158.331 175.878 158.841 175.727 159.373 175.634C159.905 175.519 160.461 175.461 161.04 175.461C161.618 175.461 162.174 175.519 162.706 175.634C163.239 175.727 163.748 175.878 164.234 176.086C164.72 176.294 165.171 176.549 165.588 176.85C166.005 177.151 166.387 177.498 166.734 177.891C167.104 178.285 167.428 178.725 167.706 179.211C167.984 179.697 168.215 180.229 168.4 180.808C168.586 181.363 168.725 181.965 168.817 182.613C168.933 183.262 168.991 183.944 168.991 184.662C168.991 184.963 168.944 185.206 168.852 185.391C168.782 185.553 168.632 185.634 168.4 185.634ZM160.97 178.482C159.975 178.482 159.107 178.84 158.366 179.558C157.625 180.252 157.151 181.398 156.943 182.995H165.067C164.882 181.398 164.408 180.252 163.644 179.558C162.903 178.84 162.012 178.482 160.97 178.482ZM184.612 193.967C182.922 193.967 181.568 193.504 180.55 192.578C179.554 191.652 179.057 190.495 179.057 189.106C179.057 187.463 179.658 186.178 180.862 185.252C182.066 184.303 183.732 183.748 185.862 183.586L190.098 183.273V182.093C190.098 180.958 189.785 180.09 189.16 179.489C188.559 178.887 187.76 178.586 186.765 178.586C185.931 178.586 185.168 178.771 184.473 179.141C183.802 179.489 183.177 180.148 182.598 181.12C182.506 181.213 182.401 181.271 182.286 181.294C182.17 181.294 182.031 181.259 181.869 181.19L179.716 180.183C179.577 180.114 179.496 180.021 179.473 179.905C179.45 179.766 179.473 179.627 179.543 179.489C180.191 178.354 181.14 177.405 182.39 176.641C183.64 175.854 185.225 175.461 187.147 175.461C189.23 175.461 190.908 176.051 192.181 177.232C193.477 178.412 194.126 180.056 194.126 182.162V193.203C194.126 193.365 194.079 193.493 193.987 193.585C193.917 193.655 193.801 193.689 193.639 193.689H190.515C190.376 193.689 190.272 193.655 190.202 193.585C190.133 193.493 190.098 193.365 190.098 193.203V191.085C189.566 191.988 188.813 192.694 187.841 193.203C186.892 193.713 185.816 193.967 184.612 193.967ZM182.98 188.724C182.98 189.558 183.269 190.171 183.848 190.565C184.427 190.935 185.133 191.12 185.966 191.12C187.031 191.12 187.98 190.784 188.813 190.113C189.67 189.442 190.098 188.516 190.098 187.335V185.842L186.765 186.155C185.515 186.248 184.566 186.502 183.918 186.919C183.293 187.335 182.98 187.937 182.98 188.724ZM204.607 175.461C206.158 175.461 207.547 175.82 208.774 176.537C210.023 177.255 210.973 178.146 211.621 179.211C211.69 179.303 211.713 179.419 211.69 179.558C211.667 179.674 211.597 179.778 211.482 179.87L209.537 181.225C209.445 181.294 209.341 181.317 209.225 181.294C209.132 181.271 209.04 181.201 208.947 181.086C208.345 180.206 207.686 179.546 206.968 179.107C206.274 178.667 205.521 178.447 204.711 178.447C203.994 178.447 203.38 178.632 202.871 179.002C202.385 179.35 202.142 179.87 202.142 180.565C202.142 181.306 202.512 181.85 203.253 182.197C203.994 182.544 204.862 182.856 205.857 183.134C206.135 183.204 206.412 183.285 206.69 183.377C206.991 183.447 207.281 183.528 207.558 183.62C207.836 183.713 208.114 183.817 208.392 183.933C208.693 184.025 208.97 184.141 209.225 184.28C209.48 184.396 209.723 184.535 209.954 184.697C210.209 184.836 210.44 184.998 210.648 185.183C210.857 185.368 211.042 185.576 211.204 185.808C211.366 186.016 211.505 186.259 211.621 186.537C211.736 186.792 211.829 187.081 211.898 187.405C211.968 187.706 212.003 188.041 212.003 188.412C212.003 188.921 211.945 189.396 211.829 189.835C211.713 190.275 211.54 190.68 211.308 191.051C211.077 191.421 210.787 191.768 210.44 192.092C210.116 192.393 209.746 192.659 209.329 192.891C208.936 193.122 208.496 193.319 208.01 193.481C207.524 193.643 207.003 193.759 206.447 193.828C205.915 193.921 205.348 193.967 204.746 193.967C202.894 193.967 201.355 193.608 200.128 192.891C198.924 192.15 198.033 191.271 197.454 190.252C197.385 190.136 197.35 190.021 197.35 189.905C197.35 189.789 197.42 189.685 197.559 189.592L199.399 188.169C199.491 188.076 199.596 188.041 199.711 188.065C199.827 188.065 199.92 188.111 199.989 188.204C200.591 189.199 201.297 189.916 202.107 190.356C202.917 190.796 203.762 191.016 204.642 191.016C205.637 191.016 206.436 190.819 207.037 190.426C207.662 190.009 207.975 189.43 207.975 188.69C207.975 187.949 207.581 187.417 206.794 187.092C206.031 186.768 205.128 186.479 204.086 186.224C203.785 186.132 203.473 186.051 203.149 185.981C202.825 185.889 202.501 185.796 202.177 185.704C201.876 185.588 201.575 185.472 201.274 185.356C200.996 185.218 200.718 185.079 200.44 184.94C200.163 184.778 199.896 184.604 199.642 184.419C199.41 184.211 199.202 183.991 199.017 183.759C198.832 183.528 198.67 183.273 198.531 182.995C198.392 182.694 198.276 182.37 198.184 182.023C198.114 181.653 198.079 181.259 198.079 180.843C198.079 179.176 198.693 177.868 199.92 176.919C201.17 175.947 202.732 175.461 204.607 175.461Z" fill="white"/>
</svg>
