<svg width="284" height="258" viewBox="0 0 284 258" fill="none" xmlns="http://www.w3.org/2000/svg">
<rect width="48.4806" height="48.4806" rx="24.2403" fill="#00D639"/>
<rect y="69.7383" width="48.4806" height="48.4806" rx="24.2403" fill="#D9D9D9"/>
<rect y="139.477" width="48.4806" height="48.4806" rx="24.2403" fill="#D9D9D9"/>
<rect y="209.215" width="48.4806" height="48.4806" rx="24.2403" fill="#D9D9D9"/>
<rect x="58.7773" width="48.4806" height="48.4806" rx="24.2403" fill="#00D639"/>
<rect x="58.7773" y="69.7383" width="48.4806" height="48.4806" rx="24.2403" fill="#D9D9D9"/>
<rect x="58.7773" y="139.477" width="48.4806" height="48.4806" rx="24.2403" fill="#D9D9D9"/>
<rect x="58.7773" y="209.215" width="48.4806" height="48.4806" rx="24.2403" fill="#D9D9D9"/>
<rect x="117.555" width="48.4806" height="48.4806" rx="24.2403" fill="#00D639"/>
<rect x="117.555" y="69.7383" width="48.4806" height="48.4806" rx="24.2403" fill="#D9D9D9"/>
<rect x="117.555" y="139.477" width="48.4806" height="48.4806" rx="24.2403" fill="#D9D9D9"/>
<rect x="117.555" y="209.215" width="48.4806" height="48.4806" rx="24.2403" fill="#D9D9D9"/>
<rect x="176.332" width="48.4806" height="48.4806" rx="24.2403" fill="#D9D9D9"/>
<rect x="176.332" y="69.7383" width="48.4806" height="48.4806" rx="24.2403" fill="#D9D9D9"/>
<rect x="176.332" y="139.477" width="48.4806" height="48.4806" rx="24.2403" fill="#D9D9D9"/>
<rect x="176.332" y="209.215" width="48.4806" height="48.4806" rx="24.2403" fill="#D9D9D9"/>
<rect x="235.109" width="48.4806" height="48.4806" rx="24.2403" fill="#D9D9D9"/>
<rect x="235.109" y="69.7383" width="48.4806" height="48.4806" rx="24.2403" fill="#D9D9D9"/>
<rect x="235.109" y="139.477" width="48.4806" height="48.4806" rx="24.2403" fill="#D9D9D9"/>
<rect x="235.109" y="209.215" width="48.4806" height="48.4806" rx="24.2403" fill="#D9D9D9"/>
</svg>
