<svg width="284" height="258" viewBox="0 0 284 258" fill="none" xmlns="http://www.w3.org/2000/svg">
<g clip-path="url(#clip0_1298_34074)">
<path d="M30.6059 212.797C28.5776 210.115 27.5551 206.673 28.2988 203.476L35.6511 150.487C35.8061 147.208 37.7273 144.174 40.4091 142.146C43.0909 140.118 46.5333 139.095 49.7307 139.839L102.719 147.191C109.784 148.171 114.601 154.541 113.368 161.271C112.387 168.336 106.018 173.153 99.2881 171.919L76.3264 168.733L80.89 174.767C98.1303 197.562 126.588 208.712 154.308 203.557C182.281 198.737 205.231 178.218 213.527 150.864C215.35 144.216 222.48 140.405 229.382 142.562C236.03 144.385 239.841 151.515 237.684 158.417C226.649 194.692 196.16 221.966 158.947 228.505C121.734 235.043 83.5944 220.15 60.7764 189.979L56.2127 183.945L53.0267 206.907C52.2915 212.206 48.7758 215.918 43.4854 217.285C38.7838 218.733 33.6483 216.82 30.6059 212.797ZM46.8403 110.933C44.305 107.581 43.6993 103.296 44.7782 99.8451C55.8125 63.5701 86.3013 36.2955 123.514 29.7571C160.727 23.2187 198.867 38.1123 221.685 68.2827L226.249 74.3168L229.435 51.3551C230.415 44.29 237.038 39.8081 243.515 40.7067C250.58 41.687 255.143 47.7211 254.163 54.7862L246.811 107.775C246.32 111.307 244.734 114.088 242.053 116.116C239.371 118.144 235.928 119.167 232.731 118.423L179.743 111.071C172.677 110.09 167.86 103.721 169.094 96.9913C170.074 89.9261 176.444 85.109 183.174 86.3428L206.135 89.5289L201.572 83.4948C184.331 60.6993 155.874 49.5495 128.154 54.7048C100.181 59.5248 77.2305 80.0441 68.9344 107.398C67.6921 112.026 63.9229 115.404 59.0494 115.928C54.4294 116.787 49.6292 114.621 46.8403 110.933Z" fill="#00D639"/>
</g>
<defs>
<clipPath id="clip0_1298_34074">
<rect width="283.59" height="257.695" fill="white"/>
</clipPath>
</defs>
</svg>
