<svg width="284" height="258" viewBox="0 0 284 258" fill="none" xmlns="http://www.w3.org/2000/svg">
<path d="M141.359 29.7882C141.359 22.4143 147.358 16.3543 154.68 17.2319C176.993 19.9065 198.099 29.2563 215.151 44.2098C235.564 62.1123 248.774 86.8255 252.318 113.745C255.862 140.665 249.499 167.955 234.414 190.531C219.329 213.106 196.552 229.429 170.325 236.456C144.098 243.483 116.211 240.737 91.8596 228.728C67.5078 216.719 48.3522 196.267 37.9616 171.182C27.5711 146.097 26.6542 118.09 35.3819 92.3787C42.6719 70.9031 56.2754 52.2527 74.2624 38.7796C80.1642 34.3589 88.3896 36.6074 92.0765 42.9934V42.9934C95.7635 49.3794 93.4907 57.4706 87.7583 62.1089C75.308 72.1829 65.8738 85.6264 60.668 100.962C54.0228 120.538 54.7209 141.863 62.6322 160.963C70.5436 180.063 85.1287 195.635 103.67 204.778C122.212 213.922 143.445 216.013 163.414 210.663C183.383 205.312 200.726 192.884 212.211 175.695C223.697 158.506 228.542 137.727 225.843 117.23C223.145 96.7339 213.087 77.9173 197.544 64.2864C185.368 53.6081 170.476 46.6828 154.656 44.1836C147.373 43.0329 141.359 37.1621 141.359 29.7882V29.7882Z" fill="#00D639"/>
<path d="M101.903 38.0328C98.9509 31.2755 102.022 23.3211 109.083 21.1945C110.944 20.6339 112.82 20.1218 114.708 19.6589C121.869 17.9029 128.556 23.1934 129.447 30.5133L129.564 31.4719C130.391 38.2623 125.517 44.3492 118.918 46.1507V46.1507C112.319 47.9522 105.028 45.1863 102.289 38.9177L101.903 38.0328Z" fill="#303030"/>
</svg>
