<svg width="708" height="486" viewBox="0 0 708 486" fill="none" xmlns="http://www.w3.org/2000/svg">
<g clip-path="url(#clip0_1303_32054)">
<mask id="mask0_1303_32054" style="mask-type:luminance" maskUnits="userSpaceOnUse" x="0" y="0" width="708" height="486">
<path d="M708 0H0V486H708V0Z" fill="white"/>
</mask>
<g mask="url(#mask0_1303_32054)">
<g filter="url(#filter0_d_1303_32054)">
<path d="M594 312H60C48.9543 312 40 320.954 40 332V402C40 413.046 48.9543 422 60 422H594C605.046 422 614 413.046 614 402V332C614 320.954 605.046 312 594 312Z" fill="white"/>
</g>
<path d="M0 20C0 8.95431 8.95431 0 20 0H688C699.046 0 708 8.95431 708 20V402C708 413.046 699.046 422 688 422H20C8.95432 422 0 413.046 0 402V20Z" fill="#F2F5F6"/>
<text fill="black" style="white-space: pre" xml:space="preserve" font-family="Sage UI" font-size="18" font-weight="bold" letter-spacing="0em"><tspan x="15" y="63.932">Welcome, Paul</tspan></text>
<path d="M0 20C0 8.9543 8.95431 0 20 0H688C699.046 0 708 8.95431 708 20V30H0V20Z" fill="#333333"/>
<path d="M689.15 83.7002H538.576C537.086 83.7002 535.878 84.9081 535.878 86.3981V201.316C535.878 202.806 537.086 204.014 538.576 204.014H689.15C690.64 204.014 691.848 202.806 691.848 201.316V86.3981C691.848 84.9081 690.64 83.7002 689.15 83.7002Z" stroke="#CCD6DB" stroke-width="0.599525"/>
<g filter="url(#filter1_d_1303_32054)">
<path d="M536.178 86.3981C536.178 85.0737 537.252 84 538.576 84H689.15C690.475 84 691.548 85.0737 691.548 86.3981V115.185H536.178V86.3981Z" fill="white"/>
<mask id="mask1_1303_32054" style="mask-type:luminance" maskUnits="userSpaceOnUse" x="545" y="93" width="16" height="13">
<path d="M560.771 93.5923H545.771V105.592H560.771V93.5923Z" fill="white"/>
</mask>
<g mask="url(#mask1_1303_32054)">
<path d="M548.771 101.842H546.521C546.106 101.842 545.771 102.177 545.771 102.592V104.842C545.771 105.257 546.106 105.592 546.521 105.592H548.771C549.185 105.592 549.521 105.257 549.521 104.842V102.592C549.521 102.177 549.185 101.842 548.771 101.842ZM548.208 99.9673H552.708V101.092H553.833V99.9673H558.333V101.092H559.458V99.7423C559.458 99.2454 559.054 98.8423 558.557 98.8423H553.833V97.3423H554.771C555.185 97.3423 555.521 97.0071 555.521 96.5923V94.3423C555.521 93.9274 555.185 93.5923 554.771 93.5923H551.771C551.356 93.5923 551.021 93.9274 551.021 94.3423V96.5923C551.021 97.0071 551.356 97.3423 551.771 97.3423H552.708V98.8423H547.982C547.485 98.8423 547.083 99.2454 547.083 99.7423V101.092H548.208V99.9673ZM554.396 101.842H552.146C551.731 101.842 551.396 102.177 551.396 102.592V104.842C551.396 105.257 551.731 105.592 552.146 105.592H554.396C554.81 105.592 555.146 105.257 555.146 104.842V102.592C555.146 102.177 554.81 101.842 554.396 101.842ZM560.021 101.842H557.771C557.356 101.842 557.021 102.177 557.021 102.592V104.842C557.021 105.257 557.356 105.592 557.771 105.592H560.021C560.435 105.592 560.771 105.257 560.771 104.842V102.592C560.771 102.177 560.435 101.842 560.021 101.842Z" fill="#595959"/>
</g>
<text fill="black" style="white-space: pre" xml:space="preserve" font-family="Sage UI" font-size="10.4293" letter-spacing="0em"><tspan x="567.723" y="103.731">My employees</tspan></text>
</g>
<path d="M536.178 115.185H691.548V201.316C691.548 202.641 690.475 203.714 689.15 203.714H538.576C537.252 203.714 536.178 202.641 536.178 201.316V115.185Z" fill="white"/>
<path d="M545.771 122.138H644.982V157.612C644.982 158.627 644.158 159.45 643.144 159.45H547.608C546.593 159.45 545.771 158.627 545.771 157.612V122.138Z" fill="white"/>
<path d="M556.105 151.127C561.812 151.127 566.439 146.501 566.439 140.793C566.439 135.085 561.812 130.459 556.105 130.459C550.397 130.459 545.771 135.085 545.771 140.793C545.771 146.501 550.397 151.127 556.105 151.127Z" fill="#FFBCBC"/>
<text fill="black" style="white-space: pre" xml:space="preserve" font-family="Sage UI" font-size="6.43029" letter-spacing="0em"><tspan x="552.451" y="143.045">JB</tspan></text>
<mask id="mask2_1303_32054" style="mask-type:luminance" maskUnits="userSpaceOnUse" x="570" y="128" width="62" height="25">
<path d="M631.434 128.796H570.434V152.791H631.434V128.796Z" fill="white"/>
</mask>
<g mask="url(#mask2_1303_32054)">
<text fill="black" fill-opacity="0.9" style="white-space: pre" xml:space="preserve" font-family="Sage UI" font-size="7.99009" letter-spacing="0em"><tspan x="570.434" y="136.99">Jeffrey Brooks</tspan></text>
<text fill="black" fill-opacity="0.9" style="white-space: pre" xml:space="preserve" font-family="Sage UI" font-size="7.99009" letter-spacing="0em"><tspan x="570.434" y="150.985">Product Manager</tspan></text>
</g>
<path d="M644.982 159.449H545.771V196.761H644.982V159.449Z" fill="white"/>
<path d="M556.105 188.439C561.812 188.439 566.439 183.813 566.439 178.105C566.439 172.397 561.812 167.771 556.105 167.771C550.397 167.771 545.771 172.397 545.771 178.105C545.771 183.813 550.397 188.439 556.105 188.439Z" fill="#E1DDED"/>
<text fill="black" style="white-space: pre" xml:space="preserve" font-family="Sage UI" font-size="6.43029" letter-spacing="0em"><tspan x="552.319" y="180.357">CP</tspan></text>
<mask id="mask3_1303_32054" style="mask-type:luminance" maskUnits="userSpaceOnUse" x="570" y="166" width="60" height="25">
<path d="M629.434 166.108H570.434V190.103H629.434V166.108Z" fill="white"/>
</mask>
<g mask="url(#mask3_1303_32054)">
<text fill="black" fill-opacity="0.9" style="white-space: pre" xml:space="preserve" font-family="Sage UI" font-size="7.99009" letter-spacing="0em"><tspan x="570.434" y="174.302">Christine Prince</tspan></text>
<text fill="black" fill-opacity="0.9" style="white-space: pre" xml:space="preserve" font-family="Sage UI" font-size="7.99009" letter-spacing="0em"><tspan x="570.434" y="188.297">UX Manager</tspan></text>
</g>
<path d="M689.149 217.32H538.576C537.086 217.32 535.878 218.528 535.878 220.019V406.855C535.878 408.345 537.086 409.553 538.576 409.553H689.149C690.64 409.553 691.848 408.345 691.848 406.855V220.019C691.848 218.528 690.64 217.32 689.149 217.32Z" stroke="#CCD6DB" stroke-width="0.599525"/>
<g filter="url(#filter2_d_1303_32054)">
<path d="M536.178 220.018C536.178 218.694 537.252 217.62 538.576 217.62H688.98C690.305 217.62 691.378 218.694 691.378 220.018V250.711H536.178V220.018Z" fill="white"/>
<mask id="mask4_1303_32054" style="mask-type:luminance" maskUnits="userSpaceOnUse" x="545" y="227" width="15" height="15">
<path d="M559.676 227.213H545.771V241.119H559.676V227.213Z" fill="white"/>
</mask>
<g mask="url(#mask4_1303_32054)">
<path d="M555.904 227.213C555.831 227.213 555.76 227.242 555.707 227.295C555.654 227.348 555.624 227.42 555.623 227.495V229.883C555.624 229.958 555.654 230.03 555.707 230.083C555.76 230.136 555.831 230.166 555.904 230.166H557.153C557.227 230.166 557.297 230.136 557.349 230.083C557.401 230.03 557.43 229.958 557.43 229.883V227.495C557.431 227.458 557.424 227.421 557.41 227.387C557.397 227.352 557.376 227.321 557.35 227.294C557.324 227.268 557.294 227.247 557.26 227.233C557.226 227.219 557.19 227.212 557.153 227.213H555.904Z" fill="black" fill-opacity="0.9"/>
<path d="M548.289 230.166H549.542C549.615 230.166 549.686 230.136 549.738 230.083C549.79 230.03 549.819 229.958 549.819 229.883V227.495C549.819 227.42 549.79 227.348 549.738 227.295C549.686 227.242 549.615 227.213 549.542 227.213H548.289C548.216 227.213 548.145 227.242 548.093 227.295C548.041 227.348 548.012 227.42 548.012 227.495V229.883C548.013 229.958 548.042 230.029 548.094 230.082C548.146 230.135 548.216 230.165 548.289 230.166Z" fill="black" fill-opacity="0.9"/>
<path d="M558.69 228.687H557.989V229.883C557.987 230.108 557.898 230.322 557.742 230.48C557.585 230.639 557.374 230.727 557.153 230.727H555.905C555.683 230.727 555.471 230.638 555.315 230.479C555.158 230.32 555.068 230.104 555.068 229.879V228.687H550.378V229.883C550.376 230.108 550.286 230.322 550.13 230.48C549.973 230.639 549.763 230.727 549.542 230.727H548.289C548.072 230.722 547.866 230.631 547.713 230.474C547.561 230.316 547.475 230.104 547.473 229.883V228.687H546.753C546.493 228.688 546.243 228.794 546.059 228.982C545.875 229.169 545.771 229.423 545.771 229.688V231.652H559.672V229.688C559.672 229.423 559.569 229.168 559.385 228.98C559.201 228.793 558.951 228.687 558.69 228.687Z" fill="black" fill-opacity="0.9"/>
<path d="M545.771 240.118C545.771 240.384 545.873 240.638 546.057 240.826C546.241 241.014 546.492 241.119 546.753 241.119H558.69C558.951 241.119 559.201 241.014 559.385 240.826C559.569 240.638 559.672 240.384 559.672 240.118V232.218H545.771V240.118Z" fill="black" fill-opacity="0.9"/>
<path d="M550.116 234.166H548.378V235.904H550.116V234.166Z" fill="white"/>
<path d="M553.593 234.166H551.854V235.904H553.593V234.166Z" fill="white"/>
<path d="M557.069 234.166H555.331V235.904H557.069V234.166Z" fill="white"/>
<path d="M550.116 237.642H548.378V239.38H550.116V237.642Z" fill="white"/>
<path d="M553.593 237.642H551.854V239.38H553.593V237.642Z" fill="white"/>
<path d="M557.069 237.642H555.331V239.38H557.069V237.642Z" fill="white"/>
</g>
<text fill="black" style="white-space: pre" xml:space="preserve" font-family="Sage UI" font-size="10.4293" letter-spacing="0em"><tspan x="566.629" y="238.304">My balance</tspan></text>
</g>
<path d="M536.178 250.711H691.378V406.855C691.378 408.18 690.305 409.253 688.98 409.253H538.576C537.252 409.253 536.178 408.18 536.178 406.855V250.711Z" fill="white"/>
<text fill="#4B93CE" style="white-space: pre" xml:space="preserve" font-family="Sage UI" font-size="19.1204" font-weight="bold" letter-spacing="0em"><tspan x="545.771" y="283.778">22</tspan></text>
<text fill="black" fill-opacity="0.9" style="white-space: pre" xml:space="preserve" font-family="Sage UI" font-size="8.6911" letter-spacing="0em"><tspan x="545.771" y="300.931">Annual Leave</tspan></text>
<text fill="black" fill-opacity="0.9" style="white-space: pre" xml:space="preserve" font-family="Sage UI" font-size="8.6911" letter-spacing="0em"><tspan x="545.771" y="313.329">22 days left</tspan></text>
<text fill="black" fill-opacity="0.9" style="white-space: pre" xml:space="preserve" font-family="Sage UI" font-size="7.79382" letter-spacing="0em"><tspan x="594.169" y="313.032">&#xb7;</tspan></text>
<text fill="black" fill-opacity="0.9" style="white-space: pre" xml:space="preserve" font-family="Sage UI" font-size="8.6911" letter-spacing="0em"><tspan x="598.567" y="313.329">0 days used</tspan></text>
<path d="M545.771 329.982H681.786" stroke="#CCD6DB" stroke-width="0.599525"/>
<text fill="#C7384F" style="white-space: pre" xml:space="preserve" font-family="Sage UI" font-size="19.1204" font-weight="bold" letter-spacing="0em"><tspan x="545.771" y="363.349">0</tspan></text>
<text fill="black" fill-opacity="0.9" style="white-space: pre" xml:space="preserve" font-family="Sage UI" font-size="8.6911" letter-spacing="0em"><tspan x="545.771" y="380.502">Sick Leave</tspan></text>
<text fill="black" fill-opacity="0.9" style="white-space: pre" xml:space="preserve" font-family="Sage UI" font-size="8.6911" letter-spacing="0em"><tspan x="545.771" y="392.9">0 days used</tspan></text>
<path d="M17.2998 280.238C17.2998 278.615 18.6154 277.3 20.2381 277.3H514.762C516.385 277.3 517.7 278.615 517.7 280.238V408.762C517.7 410.385 516.385 411.7 514.762 411.7H20.2381C18.6154 411.7 17.2998 410.385 17.2998 408.762V280.238Z" fill="white" stroke="#CCD6DB" stroke-width="0.599686"/>
<mask id="mask5_1303_32054" style="mask-type:alpha" maskUnits="userSpaceOnUse" x="17" y="277" width="501" height="135">
<path d="M17.2998 280.238C17.2998 278.615 18.6154 277.3 20.2381 277.3H514.762C516.385 277.3 517.7 278.615 517.7 280.238V408.762C517.7 410.385 516.385 411.7 514.762 411.7H20.2381C18.6154 411.7 17.2998 410.385 17.2998 408.762V280.238Z" fill="white" stroke="#CCD6DB" stroke-width="0.599686"/>
</mask>
<g mask="url(#mask5_1303_32054)">
<path d="M16.8691 313.878H517.799" stroke="#D1DADE" stroke-width="1.00202"/>
<path d="M429.737 334.509L428.234 336.012L431.992 339.77L440.259 331.503L438.756 330L431.992 336.764L429.737 334.509Z" fill="#008C4E"/>
<path d="M468.266 331.731L464.723 335.273L468.266 338.816L466.849 340.233L463.306 336.69L459.763 340.233L458.346 338.816L461.889 335.273L458.346 331.731L459.763 330.313L463.306 333.856L466.849 330.313L468.266 331.731Z" fill="#CD384B"/>
<path d="M495.085 335.01C495.085 335.58 494.859 336.126 494.456 336.528C494.054 336.931 493.508 337.157 492.938 337.157C492.369 337.157 491.823 336.931 491.42 336.528C491.017 336.126 490.791 335.58 490.791 335.01C490.791 334.871 490.805 334.731 490.834 334.595C491.071 334.68 491.328 334.697 491.575 334.642C491.821 334.588 492.047 334.465 492.227 334.288C492.407 334.11 492.532 333.886 492.59 333.64C492.647 333.394 492.634 333.137 492.552 332.899C492.679 332.876 492.809 332.864 492.938 332.863C493.508 332.863 494.054 333.089 494.456 333.492C494.859 333.894 495.085 334.441 495.085 335.01ZM492.938 330C487.534 330 484.349 334.688 484.349 334.688C484.349 334.688 487.814 340.02 492.938 340.02C498.471 340.02 501.527 334.688 501.527 334.688C501.527 334.688 498.456 330 492.938 330ZM492.938 338.589C492.23 338.589 491.538 338.379 490.95 337.986C490.361 337.592 489.903 337.034 489.632 336.38C489.361 335.726 489.29 335.006 489.428 334.312C489.566 333.618 489.907 332.98 490.408 332.48C490.908 331.979 491.546 331.638 492.24 331.5C492.934 331.362 493.654 331.433 494.308 331.704C494.962 331.975 495.52 332.433 495.914 333.022C496.307 333.61 496.517 334.302 496.517 335.01C496.517 335.959 496.14 336.869 495.469 337.541C494.797 338.212 493.887 338.589 492.938 338.589Z" fill="black"/>
<path d="M37.7598 316.981H125V345.879C125 346.771 124.277 347.494 123.384 347.494H39.3754C38.4831 347.494 37.7598 346.771 37.7598 345.879V316.981Z" fill="white"/>
<path d="M46.8473 341.326C51.8662 341.326 55.9348 337.257 55.9348 332.238C55.9348 327.219 51.8662 323.151 46.8473 323.151C41.8284 323.151 37.7598 327.219 37.7598 332.238C37.7598 337.257 41.8284 341.326 46.8473 341.326Z" fill="#FFBCBC"/>
<text fill="black" style="white-space: pre" xml:space="preserve" font-family="Sage UI" font-size="5.65444" letter-spacing="0em"><tspan x="43.6348" y="334.201">JB</tspan></text>
<mask id="mask6_1303_32054" style="mask-type:luminance" maskUnits="userSpaceOnUse" x="59" y="321" width="237" height="22">
<path d="M295.448 321.981H59.4482V342.494H295.448V321.981Z" fill="white"/>
</mask>
<g mask="url(#mask6_1303_32054)">
<text fill="black" fill-opacity="0.9" style="white-space: pre" xml:space="preserve" font-family="Sage UI" font-size="7.02604" letter-spacing="0em"><tspan x="59.4482" y="328.394">Amber West</tspan></text>
<text fill="black" fill-opacity="0.9" style="white-space: pre" xml:space="preserve" font-family="Sage UI" font-size="7.04899" letter-spacing="0em"><tspan x="59.4482" y="340.307">Vacation - NL on 8th Jun, second part of the day, 2 hours (awaiting approval)</tspan></text>
</g>
<path d="M37.7598 347.494H125V376.392C125 377.284 124.277 378.007 123.384 378.007H39.3754C38.4831 378.007 37.7598 377.284 37.7598 376.392V347.494Z" fill="white"/>
<path d="M46.8473 371.839C51.8662 371.839 55.9348 367.77 55.9348 362.751C55.9348 357.732 51.8662 353.664 46.8473 353.664C41.8284 353.664 37.7598 357.732 37.7598 362.751C37.7598 367.77 41.8284 371.839 46.8473 371.839Z" fill="#E1DDED"/>
<text fill="black" style="white-space: pre" xml:space="preserve" font-family="Sage UI" font-size="5.65444" letter-spacing="0em"><tspan x="43.6348" y="364.714">JB</tspan></text>
<mask id="mask7_1303_32054" style="mask-type:luminance" maskUnits="userSpaceOnUse" x="59" y="352" width="221" height="22">
<path d="M279.448 352.494H59.4482V373.007H279.448V352.494Z" fill="white"/>
</mask>
<g mask="url(#mask7_1303_32054)">
<text fill="black" fill-opacity="0.9" style="white-space: pre" xml:space="preserve" font-family="Sage UI" font-size="7.02604" letter-spacing="0em"><tspan x="59.4482" y="358.906">Norberts Erts</tspan></text>
<text fill="black" fill-opacity="0.9" style="white-space: pre" xml:space="preserve" font-family="Sage UI" font-size="7.04899" letter-spacing="0em"><tspan x="59.4482" y="370.82">Sickday on 2nd Jun, second part of the day, 2 hours (awaiting approval)</tspan></text>
</g>
<path d="M37.7598 378.008H125V407.905C125 408.797 124.277 409.521 123.384 409.521H39.3754C38.4831 409.521 37.7598 408.797 37.7598 407.905V378.008Z" fill="white"/>
<path d="M46.8473 402.852C51.8662 402.852 55.9348 398.783 55.9348 393.764C55.9348 388.745 51.8662 384.677 46.8473 384.677C41.8284 384.677 37.7598 388.745 37.7598 393.764C37.7598 398.783 41.8284 402.852 46.8473 402.852Z" fill="#FFB500" fill-opacity="0.4"/>
<text fill="black" style="white-space: pre" xml:space="preserve" font-family="Sage UI" font-size="5.65444" letter-spacing="0em"><tspan x="43.4941" y="395.727">AB</tspan></text>
<mask id="mask8_1303_32054" style="mask-type:luminance" maskUnits="userSpaceOnUse" x="59" y="383" width="211" height="22">
<path d="M269.448 383.008H59.4482V404.521H269.448V383.008Z" fill="white"/>
</mask>
<g mask="url(#mask8_1303_32054)">
<text fill="black" fill-opacity="0.9" style="white-space: pre" xml:space="preserve" font-family="Sage UI" font-size="7.02604" letter-spacing="0em"><tspan x="59.4482" y="389.42">Ahsen van der Burgt</tspan></text>
<text fill="black" fill-opacity="0.9" style="white-space: pre" xml:space="preserve" font-family="Sage UI" font-size="7.05" letter-spacing="0em"><tspan x="59.4482" y="401.569">Sickday on 2nd Jun, first part of the day, 5 hours (awaiting approval)</tspan></text>
</g>
<path d="M430.745 365.509L429.242 367.012L433 370.77L441.267 362.503L439.764 361L433 367.764L430.745 365.509Z" fill="#008C4E"/>
<path d="M469.273 361.96L465.731 365.502L469.273 369.045L467.856 370.462L464.314 366.92L460.771 370.462L459.354 369.045L462.897 365.502L459.354 361.96L460.771 360.543L464.314 364.085L467.856 360.543L469.273 361.96Z" fill="#CD384B"/>
<path d="M495.085 365.01C495.085 365.58 494.859 366.126 494.456 366.528C494.054 366.931 493.508 367.157 492.938 367.157C492.369 367.157 491.823 366.931 491.42 366.528C491.017 366.126 490.791 365.58 490.791 365.01C490.791 364.871 490.805 364.731 490.834 364.595C491.071 364.68 491.328 364.697 491.575 364.642C491.821 364.588 492.047 364.465 492.227 364.288C492.407 364.11 492.532 363.886 492.59 363.64C492.647 363.394 492.634 363.137 492.552 362.899C492.679 362.876 492.809 362.864 492.938 362.863C493.508 362.863 494.054 363.089 494.456 363.492C494.859 363.894 495.085 364.441 495.085 365.01ZM492.938 360C487.534 360 484.349 364.688 484.349 364.688C484.349 364.688 487.814 370.02 492.938 370.02C498.471 370.02 501.527 364.688 501.527 364.688C501.527 364.688 498.456 360 492.938 360ZM492.938 368.589C492.23 368.589 491.538 368.379 490.95 367.986C490.361 367.592 489.903 367.034 489.632 366.38C489.361 365.726 489.29 365.006 489.428 364.312C489.566 363.618 489.907 362.98 490.408 362.48C490.908 361.979 491.546 361.638 492.24 361.5C492.934 361.362 493.654 361.433 494.308 361.704C494.962 361.975 495.52 362.433 495.914 363.022C496.307 363.61 496.517 364.302 496.517 365.01C496.517 365.959 496.14 366.869 495.469 367.541C494.797 368.212 493.887 368.589 492.938 368.589Z" fill="black"/>
<path d="M430.745 395.509L429.242 397.012L433 400.77L441.267 392.503L439.764 391L433 397.764L430.745 395.509Z" fill="#008C4E"/>
<path d="M469.273 391.96L465.731 395.502L469.273 399.045L467.856 400.462L464.314 396.92L460.771 400.462L459.354 399.045L462.897 395.502L459.354 391.96L460.771 390.543L464.314 394.085L467.856 390.543L469.273 391.96Z" fill="#CD384B"/>
<path d="M495.085 396.01C495.085 396.58 494.859 397.126 494.456 397.528C494.054 397.931 493.508 398.157 492.938 398.157C492.369 398.157 491.823 397.931 491.42 397.528C491.017 397.126 490.791 396.58 490.791 396.01C490.791 395.871 490.805 395.731 490.834 395.595C491.071 395.68 491.328 395.697 491.575 395.642C491.821 395.588 492.047 395.465 492.227 395.288C492.407 395.11 492.532 394.886 492.59 394.64C492.647 394.394 492.634 394.137 492.552 393.899C492.679 393.876 492.809 393.864 492.938 393.863C493.508 393.863 494.054 394.089 494.456 394.492C494.859 394.894 495.085 395.441 495.085 396.01ZM492.938 391C487.534 391 484.349 395.688 484.349 395.688C484.349 395.688 487.814 401.02 492.938 401.02C498.471 401.02 501.527 395.688 501.527 395.688C501.527 395.688 498.456 391 492.938 391ZM492.938 399.589C492.23 399.589 491.538 399.379 490.95 398.986C490.361 398.592 489.903 398.034 489.632 397.38C489.361 396.726 489.29 396.006 489.428 395.312C489.566 394.618 489.907 393.98 490.408 393.48C490.908 392.979 491.546 392.638 492.24 392.5C492.934 392.362 493.654 392.433 494.308 392.704C494.962 392.975 495.52 393.433 495.914 394.022C496.307 394.61 496.517 395.302 496.517 396.01C496.517 396.959 496.14 397.869 495.469 398.541C494.797 399.212 493.887 399.589 492.938 399.589Z" fill="black"/>
<text fill="black" style="white-space: pre" xml:space="preserve" font-family="Sage UI" font-size="12.0243" letter-spacing="0em"><tspan x="46.8477" y="297.972">My task</tspan></text>
<path d="M36.3898 286.689H28.5791C28.4701 286.689 28.3655 286.731 28.2884 286.805C28.2113 286.879 28.168 286.98 28.168 287.085V288.866C28.168 288.971 28.2113 289.072 28.2884 289.146C28.3655 289.221 28.4701 289.262 28.5791 289.262H29.5637V293.643C29.2497 293.703 28.967 293.866 28.7636 294.104C28.5601 294.342 28.4485 294.641 28.4476 294.949V295.992C28.4476 296.097 28.4909 296.198 28.568 296.272C28.6451 296.346 28.7496 296.388 28.8586 296.388H32.0733V302.326C32.0733 302.431 32.1167 302.531 32.1937 302.606C32.2708 302.68 32.3754 302.722 32.4844 302.722C32.5935 302.722 32.698 302.68 32.7751 302.606C32.8522 302.531 32.8955 302.431 32.8955 302.326V296.388H36.1102C36.2192 296.388 36.3238 296.346 36.4009 296.272C36.478 296.198 36.5213 296.097 36.5213 295.992V294.949C36.5204 294.641 36.4087 294.342 36.2053 294.104C36.0019 293.866 35.7192 293.703 35.4052 293.643V289.262H36.3898C36.4988 289.262 36.6033 289.221 36.6804 289.146C36.7575 289.072 36.8008 288.971 36.8008 288.866V287.085C36.8008 286.98 36.7575 286.879 36.6804 286.805C36.6033 286.731 36.4988 286.689 36.3898 286.689Z" fill="#595959"/>
</g>
<path d="M16.2998 87.2381C16.2998 85.6154 17.6154 84.2998 19.2381 84.2998H514.762C516.385 84.2998 517.7 85.6154 517.7 87.2381V257.762C517.7 259.385 516.385 260.7 514.762 260.7H19.2381C17.6154 260.7 16.2998 259.385 16.2998 257.762V87.2381Z" fill="white" stroke="#CCD6DB" stroke-width="0.599686"/>
<path opacity="0.5" d="M454.9 171.78H214.157V172.649H454.9V171.78Z" fill="#CCD6DB"/>
<path opacity="0.5" d="M454.9 197.854H214.157V198.723H454.9V197.854Z" fill="#CCD6DB"/>
<path fill-rule="evenodd" clip-rule="evenodd" d="M122.919 137.24C122.874 137.24 122.83 137.24 122.786 137.24C92.4769 137.24 67.9062 161.81 67.9062 192.12C67.9062 207.568 74.2889 221.525 84.5611 231.498L94.3939 221.8C86.5793 214.323 81.7125 203.79 81.7125 192.12C81.7125 169.435 100.101 151.046 122.786 151.046C122.879 151.046 122.971 151.046 123.064 151.047L122.919 137.24Z" fill="#B1DEC3"/>
<path fill-rule="evenodd" clip-rule="evenodd" d="M84.5605 231.498C94.4426 241.093 107.924 247 122.786 247C153.095 247 177.666 222.429 177.666 192.12C177.666 161.855 153.167 137.312 122.919 137.24L123.064 151.047C145.62 151.196 163.86 169.528 163.86 192.12C163.86 214.804 145.47 233.194 122.786 233.194C111.771 233.194 101.769 228.858 94.3933 221.8L84.5605 231.498Z" fill="#9DD5FF"/>
<text fill="black" style="white-space: pre" xml:space="preserve" font-family="Sage UI" font-size="12.4257" font-weight="bold" letter-spacing="0em"><tspan x="97.5898" y="203.276">$*,***.**</tspan></text>
<text fill="black" fill-opacity="0.65" style="white-space: pre" xml:space="preserve" font-family="Sage UI" font-size="6.90316" letter-spacing="0em"><tspan x="118.439" y="185.098">NET PAY</tspan></text>
<path d="M123.131 151.046V131.717" stroke="black" stroke-width="0.690316" stroke-dasharray="1.38 1.38"/>
<path d="M80.1426 234.927L94.327 221.796" stroke="black" stroke-width="0.690316" stroke-dasharray="1.38 1.38"/>
<path d="M514.602 83.7002H18.3981C16.9081 83.7002 15.7002 84.9081 15.7002 86.3981V116.012C15.7002 117.502 16.9081 118.71 18.3981 118.71H514.602C516.092 118.71 517.3 117.502 517.3 116.012V86.3981C517.3 84.9081 516.092 83.7002 514.602 83.7002Z" stroke="#CCD6DB" stroke-width="0.599525"/>
<g filter="url(#filter3_d_1303_32054)">
<path d="M16 86.3981C16 85.0737 17.0737 84 18.3981 84H514.602C515.926 84 517 85.0737 517 86.3981V118.41H16V86.3981Z" fill="white"/>
<mask id="mask9_1303_32054" style="mask-type:luminance" maskUnits="userSpaceOnUse" x="24" y="94" width="15" height="15">
<path d="M38.5972 94.2522H24.6914V108.158H38.5972V94.2522Z" fill="white"/>
</mask>
<g mask="url(#mask9_1303_32054)">
<path d="M34.8261 94.2522C34.7522 94.2522 34.6812 94.2819 34.6286 94.3348C34.576 94.3877 34.5459 94.4596 34.5449 94.5349V96.9226C34.5459 96.9979 34.576 97.0698 34.6286 97.1227C34.6812 97.1756 34.7522 97.2053 34.8261 97.2053H36.0746C36.1482 97.2053 36.2188 97.1755 36.2708 97.1225C36.3228 97.0695 36.3521 96.9976 36.3521 96.9226V94.5349C36.3526 94.4977 36.3457 94.4607 36.332 94.4261C36.3182 94.3916 36.2978 94.3602 36.2719 94.3339C36.2461 94.3075 36.2153 94.2867 36.1814 94.2727C36.1475 94.2587 36.1112 94.2517 36.0746 94.2522H34.8261Z" fill="black" fill-opacity="0.9"/>
<path d="M27.211 97.2053H28.4633C28.5368 97.2053 28.6074 97.1755 28.6594 97.1225C28.7115 97.0694 28.7407 96.9975 28.7407 96.9226V94.5349C28.7407 94.4599 28.7115 94.388 28.6594 94.335C28.6074 94.282 28.5368 94.2522 28.4633 94.2522H27.211C27.1374 94.2522 27.0669 94.282 27.0148 94.335C26.9628 94.388 26.9336 94.4599 26.9336 94.5349V96.9226C26.9346 96.9972 26.9641 97.0686 27.0159 97.1214C27.0677 97.1742 27.1377 97.2043 27.211 97.2053Z" fill="black" fill-opacity="0.9"/>
<path d="M37.6111 95.7266H36.91V96.9223C36.908 97.1469 36.819 97.3617 36.6625 97.5198C36.5059 97.6779 36.2944 97.7666 36.0739 97.7666H34.8254C34.6043 97.7666 34.3922 97.6774 34.2356 97.5184C34.0789 97.3595 33.9904 97.1438 33.9894 96.9185V95.7266H29.2991V96.9223C29.2971 97.1469 29.2082 97.3617 29.0516 97.5198C28.895 97.6779 28.6835 97.7666 28.463 97.7666H27.2108C26.9936 97.7616 26.7869 97.6707 26.6343 97.5131C26.4818 97.3556 26.3954 97.1437 26.3935 96.9223V95.7266H25.6737C25.4134 95.7276 25.1642 95.8333 24.9802 96.0208C24.7962 96.2083 24.6923 96.4623 24.6914 96.7275V98.6911H38.5934V96.7275C38.5934 96.462 38.4899 96.2074 38.3057 96.0197C38.1214 95.832 37.8716 95.7266 37.6111 95.7266Z" fill="black" fill-opacity="0.9"/>
<path d="M24.6914 107.158C24.6914 107.424 24.7949 107.678 24.9791 107.866C25.1633 108.054 25.4131 108.159 25.6737 108.159H37.6111C37.8716 108.159 38.1214 108.054 38.3057 107.866C38.4899 107.678 38.5934 107.424 38.5934 107.158V99.2578H24.6914V107.158Z" fill="black" fill-opacity="0.9"/>
<path d="M29.038 101.206H27.2998V102.944H29.038V101.206Z" fill="white"/>
<path d="M32.5146 101.206H30.7764V102.944H32.5146V101.206Z" fill="white"/>
<path d="M35.9911 101.206H34.2529V102.944H35.9911V101.206Z" fill="white"/>
<path d="M29.038 104.681H27.2998V106.419H29.038V104.681Z" fill="white"/>
<path d="M32.5146 104.681H30.7764V106.419H32.5146V104.681Z" fill="white"/>
<path d="M35.9911 104.681H34.2529V106.419H35.9911V104.681Z" fill="white"/>
</g>
<text fill="black" style="white-space: pre" xml:space="preserve" font-family="Sage UI" font-size="10.4293" letter-spacing="0em"><tspan x="45.5498" y="105.343">You got paid on Saturday, 10-14-2023!</tspan></text>
<path d="M375.908 89.2146H255.295C253.97 89.2146 252.896 90.2883 252.896 91.6127V110.798C252.896 112.122 253.97 113.196 255.295 113.196H375.908C377.233 113.196 378.306 112.122 378.306 110.798V91.6127C378.306 90.2883 377.233 89.2146 375.908 89.2146Z" fill="#007E45"/>
<mask id="mask10_1303_32054" style="mask-type:luminance" maskUnits="userSpaceOnUse" x="262" y="96" width="11" height="10">
<path d="M272.918 96.5698H262.488V105.84H272.918V96.5698Z" fill="white"/>
</mask>
<g mask="url(#mask10_1303_32054)">
<path d="M272.854 100.941C271.873 99.0249 269.928 97.7285 267.703 97.7285C265.478 97.7285 263.533 99.0249 262.552 100.941C262.51 101.023 262.489 101.113 262.489 101.205C262.489 101.297 262.51 101.387 262.552 101.469C263.533 103.385 265.478 104.681 267.703 104.681C269.928 104.681 271.873 103.385 272.854 101.469C272.896 101.387 272.917 101.297 272.917 101.205C272.917 101.113 272.896 101.023 272.854 100.941ZM267.703 103.812C267.187 103.812 266.683 103.659 266.254 103.373C265.826 103.086 265.491 102.679 265.294 102.203C265.097 101.726 265.045 101.202 265.146 100.696C265.246 100.191 265.495 99.7259 265.859 99.3613C266.224 98.9967 266.688 98.7483 267.194 98.6477C267.7 98.5471 268.224 98.5988 268.701 98.7961C269.177 98.9934 269.584 99.3276 269.871 99.7564C270.157 100.185 270.31 100.689 270.31 101.205C270.31 101.547 270.243 101.887 270.112 102.203C269.981 102.519 269.789 102.807 269.547 103.049C269.305 103.291 269.017 103.483 268.701 103.614C268.384 103.745 268.045 103.813 267.703 103.812ZM267.703 99.4667C267.548 99.469 267.394 99.4921 267.245 99.5355C267.366 99.7026 267.424 99.9074 267.407 100.113C267.391 100.319 267.302 100.512 267.156 100.658C267.01 100.804 266.817 100.893 266.611 100.909C266.405 100.926 266.201 100.868 266.033 100.747C265.938 101.097 265.956 101.468 266.082 101.808C266.209 102.148 266.44 102.44 266.741 102.642C267.043 102.844 267.4 102.947 267.762 102.935C268.125 102.924 268.475 102.799 268.763 102.578C269.051 102.357 269.262 102.051 269.368 101.704C269.473 101.357 269.466 100.985 269.349 100.642C269.232 100.298 269.011 100 268.715 99.7894C268.42 99.5786 268.066 99.4658 267.703 99.4667Z" fill="white"/>
</g>
<text fill="white" style="white-space: pre" xml:space="preserve" font-family="Sage UI" font-size="8.39335" letter-spacing="0em"><tspan x="278.05" y="104.304">View full pay statement</tspan></text>
<path d="M505.91 89.8141H390.297C389.303 89.8141 388.498 90.6193 388.498 91.6127V110.797C388.498 111.791 389.303 112.596 390.297 112.596H505.91C506.904 112.596 507.709 111.791 507.709 110.797V91.6127C507.709 90.6193 506.904 89.8141 505.91 89.8141Z" stroke="#007E45" stroke-width="1.19905"/>
<mask id="mask11_1303_32054" style="mask-type:luminance" maskUnits="userSpaceOnUse" x="397" y="95" width="11" height="12">
<path d="M407.921 95.9902H397.491V106.42H407.921V95.9902Z" fill="white"/>
</mask>
<g mask="url(#mask11_1303_32054)">
<path d="M405.093 95.9904C405.037 95.9903 404.984 96.0126 404.945 96.0523C404.905 96.092 404.883 96.1459 404.882 96.2024V97.9931C404.883 98.0496 404.905 98.1035 404.945 98.1432C404.984 98.1829 405.037 98.2052 405.093 98.2052H406.029C406.084 98.2052 406.137 98.1828 406.176 98.1431C406.215 98.1033 406.237 98.0494 406.237 97.9931V96.2024C406.238 96.1744 406.232 96.1467 406.222 96.1208C406.212 96.0949 406.196 96.0714 406.177 96.0516C406.158 96.0318 406.135 96.0162 406.109 96.0057C406.084 95.9952 406.057 95.99 406.029 95.9904H405.093Z" fill="#007E45"/>
<path d="M399.38 98.205H400.32C400.375 98.205 400.428 98.1827 400.467 98.1429C400.506 98.1032 400.528 98.0492 400.528 97.993V96.2023C400.528 96.146 400.506 96.0921 400.467 96.0523C400.428 96.0126 400.375 95.9902 400.32 95.9902H399.38C399.325 95.9902 399.272 96.0126 399.233 96.0523C399.194 96.0921 399.172 96.146 399.172 96.2023V97.993C399.173 98.049 399.195 98.1025 399.234 98.1421C399.273 98.1817 399.325 98.2043 399.38 98.205Z" fill="#007E45"/>
<path d="M407.181 97.0959H406.655V97.9928C406.653 98.1612 406.587 98.3223 406.469 98.4409C406.352 98.5594 406.193 98.626 406.028 98.626H405.092C404.926 98.626 404.767 98.559 404.649 98.4398C404.532 98.3206 404.465 98.1588 404.464 97.9899V97.0959H400.947V97.9928C400.945 98.1612 400.879 98.3223 400.761 98.4409C400.644 98.5594 400.485 98.626 400.32 98.626H399.381C399.218 98.6222 399.063 98.5541 398.948 98.4359C398.834 98.3177 398.769 98.1588 398.768 97.9928V97.0959H398.228C398.033 97.0967 397.846 97.176 397.708 97.3167C397.57 97.4573 397.492 97.6478 397.491 97.8466V99.3193H407.917V97.8466C407.917 97.6475 407.84 97.4566 407.702 97.3158C407.564 97.175 407.376 97.0959 407.181 97.0959Z" fill="#007E45"/>
<path d="M397.491 105.669C397.491 105.868 397.569 106.059 397.707 106.2C397.845 106.341 398.032 106.42 398.228 106.42H407.181C407.376 106.42 407.564 106.341 407.702 106.2C407.84 106.059 407.917 105.868 407.917 105.669V99.7441H397.491V105.669Z" fill="#007E45"/>
<path d="M400.752 101.205H399.447V102.51H400.752V101.205Z" fill="white"/>
<path d="M403.36 101.205H402.056V102.51H403.36V101.205Z" fill="white"/>
<path d="M405.968 101.205H404.663V102.51H405.968V101.205Z" fill="white"/>
<path d="M400.752 103.812H399.447V105.117H400.752V103.812Z" fill="white"/>
<path d="M403.36 103.812H402.056V105.117H403.36V103.812Z" fill="white"/>
<path d="M405.968 103.812H404.663V105.117H405.968V103.812Z" fill="white"/>
</g>
<text fill="#007E45" style="white-space: pre" xml:space="preserve" font-family="Sage UI" font-size="8.39335" letter-spacing="0em"><tspan x="413.094" y="104.304">Pay statement history</tspan></text>
</g>
<text fill="black" fill-opacity="0.9" style="white-space: pre" xml:space="preserve" font-family="Sage UI" font-size="7.99009" letter-spacing="0em"><tspan x="459.697" y="164.33">*,***.**</tspan></text>
<text fill="black" fill-opacity="0.9" style="white-space: pre" xml:space="preserve" font-family="Sage UI" font-size="7.99009" letter-spacing="0em"><tspan x="459.697" y="188.665">*,***.**</tspan></text>
<text fill="black" fill-opacity="0.9" style="white-space: pre" xml:space="preserve" font-family="Sage UI" font-size="7.99009" letter-spacing="0em"><tspan x="454.855" y="213.001">$*,***.**</tspan></text>
<path d="M252.848 165.702C255.008 165.702 256.759 163.951 256.759 161.791C256.759 159.631 255.008 157.88 252.848 157.88C250.688 157.88 248.937 159.631 248.937 161.791C248.937 163.951 250.688 165.702 252.848 165.702Z" fill="white" stroke="#C6C6C6" stroke-width="0.86911"/>
<text fill="black" fill-opacity="0.9" style="white-space: pre" xml:space="preserve" font-family="Sage UI" font-size="7.99009" letter-spacing="0em"><tspan x="260.67" y="164.33">GROSS PAY</tspan></text>
<path d="M252.848 190.036C255.008 190.036 256.759 188.285 256.759 186.125C256.759 183.965 255.008 182.214 252.848 182.214C250.688 182.214 248.937 183.965 248.937 186.125C248.937 188.285 250.688 190.036 252.848 190.036Z" fill="#9DD5FF" stroke="#C6C6C6" stroke-width="0.86911"/>
<text fill="black" fill-opacity="0.9" style="white-space: pre" xml:space="preserve" font-family="Sage UI" font-size="7.99009" letter-spacing="0em"><tspan x="260.67" y="188.665">TOTAL DECISIONS</tspan></text>
<path d="M252.848 214.372C255.008 214.372 256.759 212.621 256.759 210.461C256.759 208.301 255.008 206.55 252.848 206.55C250.688 206.55 248.937 208.301 248.937 210.461C248.937 212.621 250.688 214.372 252.848 214.372Z" fill="#B1DEC3" stroke="#C6C6C6" stroke-width="0.86911"/>
<text fill="black" fill-opacity="0.9" style="white-space: pre" xml:space="preserve" font-family="Sage UI" font-size="7.99009" letter-spacing="0em"><tspan x="260.67" y="213.001">NET PAY</tspan></text>
</g>
</g>
<defs>
<filter id="filter0_d_1303_32054" x="0" y="296" width="654" height="190" filterUnits="userSpaceOnUse" color-interpolation-filters="sRGB">
<feFlood flood-opacity="0" result="BackgroundImageFix"/>
<feColorMatrix in="SourceAlpha" type="matrix" values="0 0 0 0 0 0 0 0 0 0 0 0 0 0 0 0 0 0 127 0" result="hardAlpha"/>
<feOffset dy="24"/>
<feGaussianBlur stdDeviation="20"/>
<feComposite in2="hardAlpha" operator="out"/>
<feColorMatrix type="matrix" values="0 0 0 0 0 0 0 0 0 0 0 0 0 0 0 0 0 0 0.1 0"/>
<feBlend mode="normal" in2="BackgroundImageFix" result="effect1_dropShadow_1303_32054"/>
<feBlend mode="normal" in="SourceGraphic" in2="effect1_dropShadow_1303_32054" result="shape"/>
</filter>
<filter id="filter1_d_1303_32054" x="536.178" y="83.4005" width="155.37" height="31.7846" filterUnits="userSpaceOnUse" color-interpolation-filters="sRGB">
<feFlood flood-opacity="0" result="BackgroundImageFix"/>
<feColorMatrix in="SourceAlpha" type="matrix" values="0 0 0 0 0 0 0 0 0 0 0 0 0 0 0 0 0 0 127 0" result="hardAlpha"/>
<feOffset dy="-0.599525"/>
<feComposite in2="hardAlpha" operator="out"/>
<feColorMatrix type="matrix" values="0 0 0 0 0.8 0 0 0 0 0.839216 0 0 0 0 0.858824 0 0 0 1 0"/>
<feBlend mode="normal" in2="BackgroundImageFix" result="effect1_dropShadow_1303_32054"/>
<feBlend mode="normal" in="SourceGraphic" in2="effect1_dropShadow_1303_32054" result="shape"/>
</filter>
<filter id="filter2_d_1303_32054" x="536.178" y="217.02" width="155.2" height="33.6905" filterUnits="userSpaceOnUse" color-interpolation-filters="sRGB">
<feFlood flood-opacity="0" result="BackgroundImageFix"/>
<feColorMatrix in="SourceAlpha" type="matrix" values="0 0 0 0 0 0 0 0 0 0 0 0 0 0 0 0 0 0 127 0" result="hardAlpha"/>
<feOffset dy="-0.599525"/>
<feComposite in2="hardAlpha" operator="out"/>
<feColorMatrix type="matrix" values="0 0 0 0 0.8 0 0 0 0 0.839216 0 0 0 0 0.858824 0 0 0 1 0"/>
<feBlend mode="normal" in2="BackgroundImageFix" result="effect1_dropShadow_1303_32054"/>
<feBlend mode="normal" in="SourceGraphic" in2="effect1_dropShadow_1303_32054" result="shape"/>
</filter>
<filter id="filter3_d_1303_32054" x="16" y="83.4005" width="501" height="35.0096" filterUnits="userSpaceOnUse" color-interpolation-filters="sRGB">
<feFlood flood-opacity="0" result="BackgroundImageFix"/>
<feColorMatrix in="SourceAlpha" type="matrix" values="0 0 0 0 0 0 0 0 0 0 0 0 0 0 0 0 0 0 127 0" result="hardAlpha"/>
<feOffset dy="-0.599525"/>
<feComposite in2="hardAlpha" operator="out"/>
<feColorMatrix type="matrix" values="0 0 0 0 0.8 0 0 0 0 0.839216 0 0 0 0 0.858824 0 0 0 1 0"/>
<feBlend mode="normal" in2="BackgroundImageFix" result="effect1_dropShadow_1303_32054"/>
<feBlend mode="normal" in="SourceGraphic" in2="effect1_dropShadow_1303_32054" result="shape"/>
</filter>
<clipPath id="clip0_1303_32054">
<rect width="708" height="486" fill="white"/>
</clipPath>
</defs>
</svg>
