<svg width="1440" height="920" viewBox="0 0 1440 920" fill="none" xmlns="http://www.w3.org/2000/svg">
<g clip-path="url(#clip0_6206_47807)">
<rect width="1440" height="920" rx="20" fill="white"/>
<rect width="1440" height="800" transform="translate(0 120)" fill="#F2F5F6"/>
<rect width="1440" height="800" transform="translate(0 120)" fill="#D9E0E4"/>
<g clip-path="url(#clip1_6206_47807)">
<rect width="1440" height="69.3333" fill="black"/>
</g>
<line y1="68.6663" x2="1440" y2="68.6663" stroke="#D9E0E4" stroke-width="1.33333"/>
<path fill-rule="evenodd" clip-rule="evenodd" d="M38.407 21.8499C38.3184 17.282 34.3793 14 29.5459 14C24.7076 14 21 17.5486 21 22.0721C21 27.0835 24.5726 28.9027 28.8683 30.4138C32.7118 31.7452 34.5655 32.9422 34.5655 35.7808C34.5655 38.0869 32.7118 39.9941 29.9084 39.9941C27.24 39.9941 24.8888 38.1758 24.8888 35.3373C24.8888 34.4213 25.141 33.9003 25.3564 33.4554C25.5169 33.1236 25.6571 32.834 25.6571 32.4543C25.6571 31.4301 24.9341 30.6766 23.758 30.6766C22.4017 30.6766 21 32.6726 21 35.5111C21 40.079 25.0278 43.4499 29.9084 43.4479C34.8817 43.4479 38.4544 39.8548 38.4544 35.3758C38.4544 30.2311 34.7015 28.5007 30.5861 27.037C26.7396 25.6642 24.8888 24.4691 24.8868 21.762C24.8868 19.278 26.8806 17.4598 29.4986 17.4598C32.3029 17.4598 34.5182 19.3709 34.5635 21.9388C34.6088 23.1368 35.4678 23.8459 36.4626 23.8459C37.5008 23.8459 38.4524 23.1338 38.407 21.8499ZM40.3262 34.7121C40.3262 39.5911 44.3963 43.4499 49.28 43.4499C51.45 43.4499 53.1235 42.7397 53.1235 41.3649C53.1235 40.3447 52.2193 39.6355 51.3603 39.6355C51.0827 39.6355 50.8399 39.6866 50.5672 39.7439C50.2177 39.8174 49.8189 39.9012 49.2347 39.9012C46.4303 39.9012 44.2151 37.5062 44.2151 34.7121C44.2151 31.6968 46.4767 29.3462 49.3253 29.3462C52.5354 29.3462 54.5705 31.7412 54.5705 35.2444V41.5872C54.5705 42.6953 55.4747 43.4499 56.5602 43.4499C57.5984 43.4499 58.5046 42.6953 58.5046 41.5872V35.1111C58.5046 29.7896 54.7527 25.8864 49.4159 25.8864C44.4416 25.8864 40.3262 29.6563 40.3262 34.7121ZM69.6465 56.6667C64.5815 56.6667 60.3765 53.118 60.3765 48.5057C60.3765 46.9531 61.2828 46.2439 62.321 46.2439C63.3591 46.2439 64.22 46.9096 64.2654 48.1955C64.3107 51.0785 66.6619 53.2069 69.6022 53.2069C72.7237 53.2069 74.7567 51.2553 74.7567 48.7279C74.7567 45.8449 72.4961 44.6469 68.6526 43.4499C64.1757 42.0306 60.3776 40.079 60.3776 34.6676C60.3776 29.7007 64.2664 25.8864 69.3313 25.8864C74.4405 25.8864 78.6455 29.5229 78.6455 34.3131C78.6455 37.2405 77.4251 39.5022 75.7516 39.5022C74.6218 39.5022 73.8525 38.7042 73.8525 37.7244C73.8525 37.2875 74.0187 36.9564 74.2088 36.5777C74.4625 36.0722 74.7587 35.482 74.7587 34.4425C74.7587 31.3807 72.3179 29.3422 69.3786 29.3422C66.529 29.3422 64.2684 31.4706 64.2684 34.2647C64.2684 37.4143 66.5743 38.7447 70.3735 39.9862C74.7587 41.4054 78.6475 43.1793 78.6475 48.3684C78.6475 53.0262 74.8947 56.6647 69.6495 56.6647L69.6465 56.6667ZM80.5175 34.6677C80.5175 39.5467 84.6772 43.4499 89.7421 43.4499H89.7451C92.2776 43.4499 94.3126 42.7842 95.669 41.9418C97.0253 41.0993 97.5681 40.3892 97.5681 39.5911C97.5681 38.7487 96.9317 37.9941 95.7556 37.9941C95.2093 37.9941 94.7043 38.2973 94.088 38.6673C93.1228 39.2468 91.8847 39.9902 89.7874 39.9902C89.0767 39.991 88.3729 39.8535 87.7167 39.5858C87.0605 39.3181 86.4649 38.9253 85.9645 38.4303C85.464 37.9354 85.0686 37.3479 84.8012 36.7021C84.5337 36.0562 84.3995 35.3648 84.4063 34.6677C84.4063 31.7413 86.7575 29.3018 89.6515 29.3018C92.772 29.3018 94.4445 31.2998 94.4445 32.5837C94.4445 32.9383 94.1736 33.1161 93.8111 33.1161H89.9223C88.8791 33.1161 88.1098 33.8232 88.1098 34.7121C88.1098 35.6435 88.8832 36.3536 89.9223 36.3536H95.1232C97.1129 36.3536 98.3333 35.3334 98.3333 33.6484C98.3333 29.3018 94.5351 25.8865 89.5155 25.8865C88.3361 25.8809 87.1672 26.1038 86.0759 26.5426C84.9846 26.9814 83.9923 27.6273 83.1563 28.4432C82.3202 29.2592 81.6567 30.2291 81.2038 31.2973C80.751 32.3654 80.5177 33.5108 80.5175 34.6677Z" fill="#00D639"/>
<line x1="120.331" y1="14" x2="120.331" y2="56.6667" stroke="#5E5E5E" stroke-width="1.33333"/>
<text fill="white" fill-opacity="0.9" style="white-space: pre" xml:space="preserve" font-family="Sage UI" font-size="24" font-weight="500" letter-spacing="0px"><tspan x="139" y="42.8">Intacct</tspan></text>
<path d="M1305.38 34.1L1303.27 34.75C1302.52 34.98 1301.94 35.57 1301.71 36.31L1301.06 38.42C1300.68 39.67 1298.91 39.67 1298.53 38.42L1297.88 36.31C1297.65 35.56 1297.06 34.98 1296.32 34.75L1294.21 34.1C1292.96 33.72 1292.96 31.95 1294.21 31.57L1296.32 30.92C1297.07 30.69 1297.65 30.1 1297.88 29.36L1298.53 27.25C1298.91 26 1300.68 26 1301.06 27.25L1301.71 29.36C1301.94 30.11 1302.53 30.69 1303.27 30.92L1305.38 31.57C1306.63 31.95 1306.63 33.72 1305.38 34.1Z" fill="url(#paint0_radial_6206_47807)"/>
<path d="M1280.62 15.79C1286.81 15.79 1291.85 20.07 1291.96 26.03C1292.02 27.71 1290.8 28.63 1289.47 28.63C1288.14 28.63 1287.1 27.7 1287.04 26.14C1286.98 22.78 1284.15 20.29 1280.56 20.29C1277.2 20.29 1274.66 22.66 1274.66 25.9C1274.66 29.43 1277.03 30.99 1281.95 32.79C1287.22 34.7 1292.02 36.96 1292.02 43.67C1292.02 49.52 1287.45 54.2 1281.08 54.2C1274.71 54.2 1269.68 49.8 1269.68 43.84C1269.68 40.14 1271.47 37.53 1273.21 37.53C1274.72 37.53 1275.64 38.51 1275.64 39.84C1275.64 41 1274.66 41.52 1274.66 43.6C1274.66 47.3 1277.67 49.68 1281.08 49.68C1284.67 49.68 1287.04 47.19 1287.04 44.18C1287.04 40.48 1284.67 38.91 1279.75 37.18C1274.25 35.21 1269.68 32.84 1269.68 26.3C1269.68 20.4 1274.42 15.77 1280.62 15.77V15.79Z" fill="url(#paint1_linear_6206_47807)"/>
<text fill="white" fill-opacity="0.9" style="white-space: pre" xml:space="preserve" font-family="Sage UI" font-size="24" font-weight="500" letter-spacing="0px"><tspan x="1316" y="43.3">Copilot</tspan></text>
<rect width="1440" height="53" transform="translate(0 67)" fill="white"/>
<rect width="65.3333" height="53.3333" transform="translate(0 66.8335)" fill="white"/>
<text fill="black" style="white-space: pre" xml:space="preserve" font-family="Font Awesome 5 Pro" font-size="21.3333" font-weight="900" letter-spacing="0px"><tspan x="20" y="101.167">star</tspan></text>
<path d="M64.6667 67.5002V119.532" stroke="#595959" stroke-width="1.33333" stroke-linecap="square"/>
<rect width="65.3333" height="53.3333" transform="translate(65.3333 66.8335)" fill="white"/>
<text fill="black" style="white-space: pre" xml:space="preserve" font-family="Font Awesome 5 Pro" font-size="21.3333" font-weight="900" letter-spacing="0px"><tspan x="85.3333" y="101.167">home</tspan></text>
<path d="M130 67.5002V119.532" stroke="#595959" stroke-width="1.33333" stroke-linecap="square"/>
<g clip-path="url(#clip2_6206_47807)">
<rect width="333.333" height="53.3333" transform="translate(130.667 66.8335)" fill="white"/>
<text fill="#00141E" style="white-space: pre" xml:space="preserve" font-family="Helvetica-Neue" font-size="18.6667" letter-spacing="0px"><tspan x="157.333" y="100.323">SaaS Intelligence</tspan></text>
<text fill="black" style="white-space: pre" xml:space="preserve" font-family="Font Awesome 5 Pro" font-size="18.6667" letter-spacing="0px"><tspan x="424.167" y="100.333">&#xf107;</tspan></text>
<path d="M463.333 67.5002V119.532" stroke="#595959" stroke-width="1.33333" stroke-linecap="square"/>
</g>
<g id="s3-kpi-1" clip-path="url(#clip3_6206_47807)">
<g clip-path="url(#clip4_6206_47807)">
<rect width="298.666" height="35.7379" transform="translate(409.664 145)" fill="white"/>
<rect width="298.666" height="97.8537" transform="translate(409.664 180.738)" fill="white"/>
</g>
<rect x="410.09" y="145.425" width="297.816" height="132.741" rx="6.38176" stroke="#FAFBFB" stroke-width="0.850902"/>
<text fill="#1A1A1A" style="white-space: pre" xml:space="preserve" font-family="Helvetica-Neue" font-size="12" letter-spacing="0px"><tspan x="426.68" y="167.254">Total CARR</tspan></text>
<text fill="#737373" style="white-space: pre" xml:space="preserve" font-family="Helvetica Neue" font-size="12" letter-spacing="0px"><tspan x="426.68" y="245.222">this month</tspan></text>
<text fill="black" style="white-space: pre" xml:space="preserve" font-family="Helvetica-Neue" font-size="40.4432" letter-spacing="0px"><tspan x="426.68" y="225.051">$13,872K</tspan></text>
<text transform="translate(635.152 180.589)" fill="#00821F" style="white-space: pre" xml:space="preserve" font-family="Font Awesome 5 Pro" font-size="57.7822" font-weight="900" letter-spacing="0px"><tspan x="0.220306" y="50.5594">arrow-up</tspan></text>
<g clip-path="url(#clip5_6206_47807)">
<text fill="#0060A7" style="white-space: pre" xml:space="preserve" font-family="Helvetica Neue" font-size="11.9126" letter-spacing="0px"><tspan x="564.118" y="267.398">+$29,747 vs. prior month</tspan></text>
</g>
</g>
<g id="s3-kpi-2" clip-path="url(#clip6_6206_47807)">
<g clip-path="url(#clip7_6206_47807)">
<rect width="298.666" height="35.7379" transform="translate(732.332 145)" fill="white"/>
<rect width="298.666" height="97.8537" transform="translate(732.332 180.738)" fill="white"/>
</g>
<rect x="732.757" y="145.425" width="297.816" height="132.741" rx="6.38176" stroke="#FAFBFB" stroke-width="0.850902"/>
<text fill="#1A1A1A" style="white-space: pre" xml:space="preserve" font-family="Helvetica-Neue" font-size="12" letter-spacing="0px"><tspan x="749.352" y="167.254">Total Subscription Bookings</tspan></text>
<text fill="#737373" style="white-space: pre" xml:space="preserve" font-family="Helvetica Neue" font-size="12" letter-spacing="0px"><tspan x="749.352" y="245.222">this month</tspan></text>
<text fill="black" style="white-space: pre" xml:space="preserve" font-family="Helvetica-Neue" font-size="40.4432" letter-spacing="0px"><tspan x="749.352" y="225.051">$1,614,547</tspan></text>
<text transform="translate(963.152 180.589)" fill="#00821F" style="white-space: pre" xml:space="preserve" font-family="Font Awesome 5 Pro" font-size="57.7822" font-weight="900" letter-spacing="0px"><tspan x="0.220306" y="50.5594">arrow-up</tspan></text>
<g clip-path="url(#clip8_6206_47807)">
<text fill="#0060A7" style="white-space: pre" xml:space="preserve" font-family="Helvetica Neue" font-size="11.9126" letter-spacing="0px"><tspan x="887.512" y="267.398">+$85,704 vs. prior month</tspan></text>
</g>
</g>
<g id="s3-kpi-3" clip-path="url(#clip9_6206_47807)">
<g clip-path="url(#clip10_6206_47807)">
<rect width="298.666" height="35.7379" transform="translate(1055 145)" fill="white"/>
<rect width="298.666" height="97.8537" transform="translate(1055 180.738)" fill="white"/>
</g>
<rect x="1055.43" y="145.425" width="297.816" height="132.741" rx="6.38176" stroke="#FAFBFB" stroke-width="0.850902"/>
<text fill="#1A1A1A" style="white-space: pre" xml:space="preserve" font-family="Helvetica-Neue" font-size="12" letter-spacing="0px"><tspan x="1072.02" y="167.254">Average New Deal CARR</tspan></text>
<text fill="#737373" style="white-space: pre" xml:space="preserve" font-family="Helvetica Neue" font-size="12" letter-spacing="0px"><tspan x="1072.02" y="245.222">this month</tspan></text>
<text fill="#0060A7" style="white-space: pre" xml:space="preserve" font-family="Helvetica Neue" font-size="11.9126" letter-spacing="0px"><tspan x="1215.45" y="267.398">+$5,043 vs. prior month</tspan></text>
<text fill="black" style="white-space: pre" xml:space="preserve" font-family="Helvetica-Neue" font-size="40.4432" letter-spacing="0px"><tspan x="1072.02" y="225.051">$113,555</tspan></text>
<text transform="translate(1280.49 180.589)" fill="#00821F" style="white-space: pre" xml:space="preserve" font-family="Font Awesome 5 Pro" font-size="57.7822" font-weight="900" letter-spacing="0px"><tspan x="0.220306" y="50.5594">arrow-up</tspan></text>
</g>
<g clip-path="url(#clip11_6206_47807)">
<g clip-path="url(#clip12_6206_47807)">
<rect width="298.666" height="35.7379" transform="translate(87 298.592)" fill="white"/>
<rect width="298.666" height="97.8537" transform="translate(87 334.33)" fill="white"/>
</g>
<rect x="87.4255" y="299.017" width="297.816" height="132.741" rx="6.38176" stroke="#FAFBFB" stroke-width="0.850902"/>
<text fill="#1A1A1A" style="white-space: pre" xml:space="preserve" font-family="Helvetica-Neue" font-size="12" letter-spacing="0px"><tspan x="104.02" y="320.846">CARR Growth (Net New)</tspan></text>
<g clip-path="url(#clip13_6206_47807)">
<text fill="#737373" style="white-space: pre" xml:space="preserve" font-family="Helvetica Neue" font-size="12" letter-spacing="0px"><tspan x="104.02" y="400.814">this month</tspan></text>
</g>
<g clip-path="url(#clip14_6206_47807)">
<text fill="#0060A7" style="white-space: pre" xml:space="preserve" font-family="Helvetica Neue" font-size="11.9126" letter-spacing="0px"><tspan x="234.454" y="421.203">+$387,918 vs. prior month</tspan></text>
</g>
<text fill="black" style="white-space: pre" xml:space="preserve" font-family="Helvetica-Neue" font-size="40.4432" letter-spacing="0px"><tspan x="104.02" y="378.643">$1,279,507</tspan></text>
<text transform="translate(318.488 334.181)" fill="#00821F" style="white-space: pre" xml:space="preserve" font-family="Font Awesome 5 Pro" font-size="57.7822" font-weight="900" letter-spacing="0px"><tspan x="0.220306" y="50.5594">arrow-up</tspan></text>
</g>
<g clip-path="url(#clip15_6206_47807)">
<g clip-path="url(#clip16_6206_47807)">
<rect width="298.666" height="35.7379" transform="translate(732.332 298.592)" fill="white"/>
<rect width="298.666" height="97.8537" transform="translate(732.332 334.33)" fill="white"/>
</g>
<rect x="732.757" y="299.017" width="297.816" height="132.741" rx="6.38176" stroke="#FAFBFB" stroke-width="0.850902"/>
<text fill="#1A1A1A" style="white-space: pre" xml:space="preserve" font-family="Helvetica-Neue" font-size="12" letter-spacing="0px"><tspan x="749.352" y="320.846">SaaS Quick Ratio</tspan></text>
<text fill="#737373" style="white-space: pre" xml:space="preserve" font-family="Helvetica Neue" font-size="12" letter-spacing="0px"><tspan x="749.352" y="398.814">this month</tspan></text>
<text fill="black" style="white-space: pre" xml:space="preserve" font-family="Helvetica-Neue" font-size="40.4432" letter-spacing="0px"><tspan x="749.352" y="379.189">157.31</tspan></text>
<text transform="translate(963.152 334.181)" fill="#00821F" style="white-space: pre" xml:space="preserve" font-family="Font Awesome 5 Pro" font-size="57.7822" font-weight="900" letter-spacing="0px"><tspan x="0.220306" y="50.5594">arrow-up</tspan></text>
<g clip-path="url(#clip17_6206_47807)">
<text fill="#0060A7" style="white-space: pre" xml:space="preserve" font-family="Helvetica Neue" font-size="11.9126" letter-spacing="0px"><tspan x="910.512" y="420.99">+157 vs. prior month</tspan></text>
</g>
</g>
<g clip-path="url(#clip18_6206_47807)">
<g clip-path="url(#clip19_6206_47807)">
<rect width="298.666" height="35.7379" transform="translate(1055 298.592)" fill="white"/>
<rect width="298.666" height="97.8537" transform="translate(1055 334.33)" fill="white"/>
</g>
<rect x="1055.43" y="299.017" width="297.816" height="132.741" rx="6.38176" stroke="#FAFBFB" stroke-width="0.850902"/>
<text fill="#1A1A1A" style="white-space: pre" xml:space="preserve" font-family="Helvetica-Neue" font-size="12" letter-spacing="0px"><tspan x="1072.02" y="320.846">Rule of 40</tspan></text>
<text fill="#737373" style="white-space: pre" xml:space="preserve" font-family="Helvetica Neue" font-size="12" letter-spacing="0px"><tspan x="1072.02" y="398.814">trailing 1 year</tspan></text>
<text fill="black" style="white-space: pre" xml:space="preserve" font-family="Helvetica-Neue" font-size="40.4432" letter-spacing="0px"><tspan x="1072.02" y="379.189">174.95%</tspan></text>
</g>
<g clip-path="url(#clip20_6206_47807)">
<g clip-path="url(#clip21_6206_47807)">
<rect width="298.666" height="35.7379" transform="translate(87 452.184)" fill="white"/>
<rect width="298.666" height="97.8537" transform="translate(87 487.922)" fill="white"/>
</g>
<rect x="87.4255" y="452.609" width="297.816" height="132.741" rx="6.38176" stroke="#FAFBFB" stroke-width="0.850902"/>
<text fill="#1A1A1A" style="white-space: pre" xml:space="preserve" font-family="Helvetica-Neue" font-size="12" letter-spacing="0px"><tspan x="104.02" y="474.438">Total Customers</tspan></text>
<g clip-path="url(#clip22_6206_47807)">
<text fill="#737373" style="white-space: pre" xml:space="preserve" font-family="Helvetica Neue" font-size="12" letter-spacing="0px"><tspan x="104.02" y="554.406">this month</tspan></text>
</g>
<g clip-path="url(#clip23_6206_47807)">
<text fill="#0060A7" style="white-space: pre" xml:space="preserve" font-family="Helvetica Neue" font-size="11.9126" letter-spacing="0px"><tspan x="270.454" y="574.794">+11 vs. prior month</tspan></text>
</g>
<text fill="black" style="white-space: pre" xml:space="preserve" font-family="Helvetica-Neue" font-size="40.4432" letter-spacing="0px"><tspan x="104.02" y="532.781">174</tspan></text>
<circle cx="343.5" cy="516.5" r="20.5" fill="#00821F"/>
</g>
<g clip-path="url(#clip24_6206_47807)">
<g clip-path="url(#clip25_6206_47807)">
<rect width="298.666" height="35.7379" transform="translate(409.664 452.184)" fill="white"/>
<rect width="298.666" height="97.8537" transform="translate(409.664 487.922)" fill="white"/>
</g>
<rect x="410.09" y="452.609" width="297.816" height="132.741" rx="6.38176" stroke="#FAFBFB" stroke-width="0.850902"/>
<text fill="#1A1A1A" style="white-space: pre" xml:space="preserve" font-family="Helvetica-Neue" font-size="12" letter-spacing="0px"><tspan x="426.68" y="474.438">CARR per Customer</tspan></text>
<text fill="#737373" style="white-space: pre" xml:space="preserve" font-family="Helvetica Neue" font-size="12" letter-spacing="0px"><tspan x="426.68" y="552.406">this month</tspan></text>
<text fill="black" style="white-space: pre" xml:space="preserve" font-family="Helvetica-Neue" font-size="40.4432" letter-spacing="0px"><tspan x="426.68" y="532.235">$79,725</tspan></text>
<circle cx="660.5" cy="516.5" r="20.5" fill="#00821F"/>
<g clip-path="url(#clip26_6206_47807)">
<text fill="#0060A7" style="white-space: pre" xml:space="preserve" font-family="Helvetica Neue" font-size="11.9126" letter-spacing="0px"><tspan x="570.118" y="574.581">+$2,747 vs. prior month</tspan></text>
</g>
</g>
<g clip-path="url(#clip27_6206_47807)">
<g clip-path="url(#clip28_6206_47807)">
<rect width="298.666" height="35.7379" transform="translate(732.332 452.184)" fill="white"/>
<rect width="298.666" height="97.8537" transform="translate(732.332 487.922)" fill="white"/>
</g>
<rect x="732.757" y="452.609" width="297.816" height="132.741" rx="6.38176" stroke="#FAFBFB" stroke-width="0.850902"/>
<text fill="#1A1A1A" style="white-space: pre" xml:space="preserve" font-family="Helvetica-Neue" font-size="12" letter-spacing="0px"><tspan x="749.352" y="474.438">Billings</tspan></text>
<text fill="#737373" style="white-space: pre" xml:space="preserve" font-family="Helvetica Neue" font-size="12" letter-spacing="0px"><tspan x="749.352" y="552.406">this month</tspan></text>
<text fill="black" style="white-space: pre" xml:space="preserve" font-family="Helvetica-Neue" font-size="40.4432" letter-spacing="0px"><tspan x="749.352" y="532.235">$37,200</tspan></text>
<text transform="translate(963.152 487.772)" fill="#00821F" style="white-space: pre" xml:space="preserve" font-family="Font Awesome 5 Pro" font-size="57.7822" font-weight="900" letter-spacing="0px"><tspan x="0.220306" y="50.5594">arrow-up</tspan></text>
<g clip-path="url(#clip29_6206_47807)">
<text fill="#0060A7" style="white-space: pre" xml:space="preserve" font-family="Helvetica Neue" font-size="11.9126" letter-spacing="0px"><tspan x="887.512" y="574.581">+$37,200 vs. prior month</tspan></text>
</g>
</g>
<g clip-path="url(#clip30_6206_47807)">
<g clip-path="url(#clip31_6206_47807)">
<rect width="298.666" height="35.7379" transform="translate(1055 452.184)" fill="white"/>
<rect width="298.666" height="97.8537" transform="translate(1055 487.922)" fill="white"/>
</g>
<rect x="1055.43" y="452.609" width="297.816" height="132.741" rx="6.38176" stroke="#FAFBFB" stroke-width="0.850902"/>
<text fill="#1A1A1A" style="white-space: pre" xml:space="preserve" font-family="Helvetica-Neue" font-size="12" letter-spacing="0px"><tspan x="1072.02" y="474.438">Days Sales Outstanding (DSO)</tspan></text>
<text fill="#737373" style="white-space: pre" xml:space="preserve" font-family="Helvetica Neue" font-size="12" letter-spacing="0px"><tspan x="1072.02" y="552.406">this month</tspan></text>
<text fill="#0060A7" style="white-space: pre" xml:space="preserve" font-family="Helvetica Neue" font-size="11.9126" letter-spacing="0px"><tspan x="1222.45" y="574.581">+2,440 vs. prior month</tspan></text>
<text fill="black" style="white-space: pre" xml:space="preserve" font-family="Helvetica-Neue" font-size="40.4432" letter-spacing="0px"><tspan x="1072.02" y="532.781">2,440</tspan></text>
<text transform="translate(1280.82 487.772)" fill="#CB374A" style="white-space: pre" xml:space="preserve" font-family="Font Awesome 5 Pro" font-size="57.7822" font-weight="900" letter-spacing="0px"><tspan x="0.220306" y="50.5594">arrow-up</tspan></text>
</g>
<g clip-path="url(#clip32_6206_47807)">
<rect x="24" y="605.774" width="1392" height="289" rx="10" fill="white"/>
<rect x="24" y="663.774" width="1392" height="231" fill="#F2F5F6"/>
<rect x="58.4255" y="682.2" width="1323.15" height="186.149" fill="white" stroke="#E6EBED" stroke-width="0.850902"/>
<rect x="1381.16" y="724.774" width="30" height="1322.32" transform="rotate(90 1381.16 724.774)" fill="#F2F5F6"/>
<rect x="1381.16" y="797.774" width="32" height="1322.32" transform="rotate(90 1381.16 797.774)" fill="#F2F5F6"/>
<rect id="s3-wf-1" x="440" y="798.354" width="87.0154" height="77.1268" transform="rotate(-90 440 798.354)" fill="#C9D800"/>
<rect id="s3-wf-2" x="601" y="711.338" width="10.3385" height="77.1268" transform="rotate(-90 601 711.338)" fill="#C9D800"/>
<rect width="1.72308" height="77.1268" transform="matrix(-1.22286e-06 -1 1 -1.56248e-09 1084 707.031)" fill="#C9D800"/>
<rect id="s3-wf-3" x="118" y="869" width="70.6462" height="77.1268" transform="rotate(-90 118 869)" fill="#0060A7"/>
<rect id="s3-wf-4" x="1245" y="869" width="163.692" height="77.1268" transform="rotate(-90 1245 869)" fill="#0060A7"/>
<rect id="s3-wf-5" x="279" y="802.661" width="4.30769" height="77.1268" transform="rotate(-90 279 802.661)" fill="#A22C3B"/>
<rect id="s3-wf-6" x="762" y="705.308" width="4.30769" height="77.1268" transform="rotate(-90 762 705.308)" fill="#A22C3B"/>
<rect width="2.58462" height="77.1268" transform="matrix(-1.15838e-06 -1 1 -1.64944e-09 923 705.308)" fill="#A22C3B"/>
<path d="M118 798.354H355.5" stroke="#595959" stroke-dasharray="2 2"/>
<path d="M440 711.339H678" stroke="#595959" stroke-dasharray="2 2"/>
<path d="M601 701H839" stroke="#595959" stroke-dasharray="2 2"/>
<path d="M839 702.723H1000" stroke="#595959" stroke-dasharray="2 2"/>
<path d="M1000 705.308H1161" stroke="#595959" stroke-dasharray="2 2"/>
<text fill="#1A1A1A" style="white-space: pre" xml:space="preserve" font-family="Helvetica-Neue" font-size="14" letter-spacing="0px"><tspan x="39.543" y="632.831">CARR Waterfall (New)</tspan></text>
<text fill="#1A1A1A" style="white-space: pre" xml:space="preserve" font-family="Helvetica Neue" font-size="12" letter-spacing="0px"><tspan x="39.543" y="649.349">Date &#38; Time</tspan></text>
<rect x="1389" y="637.338" width="36.4605" height="4.37526" rx="2.18763" transform="rotate(-180 1389 637.338)" fill="#CCD6DB"/>
</g>
<rect width="1440" height="800" transform="translate(0 120)" fill="#282828" fill-opacity="0.4"/>
<g clip-path="url(#clip33_6206_47807)">
<g clip-path="url(#clip34_6206_47807)">
<rect width="298.666" height="35.7379" transform="translate(87 145)" fill="white"/>
<rect width="298.666" height="97.8537" transform="translate(87 180.738)" fill="white"/>
</g>
<rect x="87.4255" y="145.425" width="297.816" height="132.741" rx="6.38176" stroke="#FAFBFB" stroke-width="0.850902"/>
<text fill="#1A1A1A" style="white-space: pre" xml:space="preserve" font-family="Helvetica-Neue" font-size="12" letter-spacing="0px"><tspan x="104.02" y="167.254">Total CMRR</tspan></text>
<g clip-path="url(#clip35_6206_47807)">
<text fill="#737373" style="white-space: pre" xml:space="preserve" font-family="Helvetica Neue" font-size="12" letter-spacing="0px"><tspan x="104.02" y="247.222">this month</tspan></text>
</g>
<g clip-path="url(#clip36_6206_47807)">
<text fill="#0060A7" style="white-space: pre" xml:space="preserve" font-family="Helvetica Neue" font-size="11.9126" letter-spacing="0px"><tspan x="234.454" y="267.612">+$106,625 vs. prior month</tspan></text>
</g>
<text transform="translate(318.488 180.589)" fill="#00821F" style="white-space: pre" xml:space="preserve" font-family="Font Awesome 5 Pro" font-size="57.7822" font-weight="900" letter-spacing="0px"><tspan x="0.220306" y="50.5594">arrow-up</tspan></text>
<text fill="black" style="white-space: pre" xml:space="preserve" font-family="Helvetica-Neue" font-size="40.4432" letter-spacing="0px"><tspan x="104.016" y="225.051">$1,156,016</tspan></text>
</g>
<g clip-path="url(#clip37_6206_47807)">
<g clip-path="url(#clip38_6206_47807)">
<rect width="298.666" height="35.7379" transform="translate(409.664 298.592)" fill="white"/>
<rect width="298.666" height="97.8537" transform="translate(409.664 334.33)" fill="white"/>
</g>
<rect x="410.09" y="299.017" width="297.816" height="132.741" rx="6.38176" stroke="#FAFBFB" stroke-width="0.850902"/>
<text fill="#1A1A1A" style="white-space: pre" xml:space="preserve" font-family="Helvetica-Neue" font-size="12" letter-spacing="0px"><tspan x="426.68" y="320.846">Net Dollar Retention Rate</tspan></text>
<text fill="#737373" style="white-space: pre" xml:space="preserve" font-family="Helvetica Neue" font-size="12" letter-spacing="0px"><tspan x="426.68" y="398.814">this month</tspan></text>
<text fill="black" style="white-space: pre" xml:space="preserve" font-family="Helvetica-Neue" font-size="40.4432" letter-spacing="0px"><tspan x="426.68" y="379.189">100.24%</tspan></text>
<text transform="translate(685.816 392.181) rotate(-180)" fill="#CB374A" style="white-space: pre" xml:space="preserve" font-family="Font Awesome 5 Pro" font-size="57.7822" font-weight="900" letter-spacing="0px"><tspan x="0.220306" y="50.5594">arrow-up</tspan></text>
<g clip-path="url(#clip39_6206_47807)">
<text fill="#0060A7" style="white-space: pre" xml:space="preserve" font-family="Helvetica Neue" font-size="11.9126" letter-spacing="0px"><tspan x="586.118" y="420.99">-0.44 vs. prior month</tspan></text>
</g>
</g>
</g>
<defs>
<radialGradient id="paint0_radial_6206_47807" cx="0" cy="0" r="1" gradientTransform="matrix(10.5 9.5 -7.88115 9.9214 1295.5 28)" gradientUnits="userSpaceOnUse">
<stop offset="0.341666" stop-color="#9D60FF"/>
<stop offset="0.72" stop-color="#00D6DE"/>
<stop offset="0.896666" stop-color="#00D639"/>
</radialGradient>
<linearGradient id="paint1_linear_6206_47807" x1="1282.5" y1="54" x2="1294.47" y2="25.5352" gradientUnits="userSpaceOnUse">
<stop stop-color="#00D639"/>
<stop offset="0.4" stop-color="#00D6DE"/>
<stop offset="0.9" stop-color="#9D60FF"/>
</linearGradient>
<clipPath id="clip0_6206_47807">
<rect width="1440" height="920" rx="20" fill="white"/>
</clipPath>
<clipPath id="clip1_6206_47807">
<rect width="1440" height="69.3333" fill="white"/>
</clipPath>
<clipPath id="clip2_6206_47807">
<rect width="333.333" height="53.3333" fill="white" transform="translate(130.667 66.8335)"/>
</clipPath>
<clipPath id="clip3_6206_47807">
<rect x="409.664" y="145" width="298.666" height="133.592" rx="10" fill="white"/>
</clipPath>
<clipPath id="clip4_6206_47807">
<rect x="409.664" y="145" width="298.666" height="133.592" rx="6.80721" fill="white"/>
</clipPath>
<clipPath id="clip5_6206_47807">
<rect width="170.18" height="18" fill="white" transform="translate(527.938 254.062)"/>
</clipPath>
<clipPath id="clip6_6206_47807">
<rect x="732.332" y="145" width="298.666" height="133.592" rx="10" fill="white"/>
</clipPath>
<clipPath id="clip7_6206_47807">
<rect x="732.332" y="145" width="298.666" height="133.592" rx="6.80721" fill="white"/>
</clipPath>
<clipPath id="clip8_6206_47807">
<rect width="170.18" height="18" fill="white" transform="translate(851.332 254.062)"/>
</clipPath>
<clipPath id="clip9_6206_47807">
<rect x="1055" y="145" width="298.666" height="133.592" rx="10" fill="white"/>
</clipPath>
<clipPath id="clip10_6206_47807">
<rect x="1055" y="145" width="298.666" height="133.592" rx="6.80721" fill="white"/>
</clipPath>
<clipPath id="clip11_6206_47807">
<rect x="87" y="298.592" width="298.666" height="133.592" rx="10" fill="white"/>
</clipPath>
<clipPath id="clip12_6206_47807">
<rect x="87" y="298.592" width="298.666" height="133.592" rx="6.80721" fill="white"/>
</clipPath>
<clipPath id="clip13_6206_47807">
<rect width="170.18" height="18" fill="white" transform="translate(104.02 387.445)"/>
</clipPath>
<clipPath id="clip14_6206_47807">
<rect width="170.18" height="18" fill="white" transform="translate(205.273 407.867)"/>
</clipPath>
<clipPath id="clip15_6206_47807">
<rect x="732.332" y="298.592" width="298.666" height="133.592" rx="10" fill="white"/>
</clipPath>
<clipPath id="clip16_6206_47807">
<rect x="732.332" y="298.592" width="298.666" height="133.592" rx="6.80721" fill="white"/>
</clipPath>
<clipPath id="clip17_6206_47807">
<rect width="170.18" height="18" fill="white" transform="translate(851.332 407.653)"/>
</clipPath>
<clipPath id="clip18_6206_47807">
<rect x="1055" y="298.592" width="298.666" height="133.592" rx="10" fill="white"/>
</clipPath>
<clipPath id="clip19_6206_47807">
<rect x="1055" y="298.592" width="298.666" height="133.592" rx="6.80721" fill="white"/>
</clipPath>
<clipPath id="clip20_6206_47807">
<rect x="87" y="452.184" width="298.666" height="133.592" rx="10" fill="white"/>
</clipPath>
<clipPath id="clip21_6206_47807">
<rect x="87" y="452.184" width="298.666" height="133.592" rx="6.80721" fill="white"/>
</clipPath>
<clipPath id="clip22_6206_47807">
<rect width="170.18" height="18" fill="white" transform="translate(104.02 541.037)"/>
</clipPath>
<clipPath id="clip23_6206_47807">
<rect width="170.18" height="18" fill="white" transform="translate(205.273 561.458)"/>
</clipPath>
<clipPath id="clip24_6206_47807">
<rect x="409.664" y="452.184" width="298.666" height="133.592" rx="10" fill="white"/>
</clipPath>
<clipPath id="clip25_6206_47807">
<rect x="409.664" y="452.184" width="298.666" height="133.592" rx="6.80721" fill="white"/>
</clipPath>
<clipPath id="clip26_6206_47807">
<rect width="170.18" height="18" fill="white" transform="translate(527.938 561.245)"/>
</clipPath>
<clipPath id="clip27_6206_47807">
<rect x="732.332" y="452.184" width="298.666" height="133.592" rx="10" fill="white"/>
</clipPath>
<clipPath id="clip28_6206_47807">
<rect x="732.332" y="452.184" width="298.666" height="133.592" rx="6.80721" fill="white"/>
</clipPath>
<clipPath id="clip29_6206_47807">
<rect width="170.18" height="18" fill="white" transform="translate(851.332 561.245)"/>
</clipPath>
<clipPath id="clip30_6206_47807">
<rect x="1055" y="452.184" width="298.666" height="133.592" rx="10" fill="white"/>
</clipPath>
<clipPath id="clip31_6206_47807">
<rect x="1055" y="452.184" width="298.666" height="133.592" rx="6.80721" fill="white"/>
</clipPath>
<clipPath id="clip32_6206_47807">
<rect x="24" y="605.774" width="1392" height="289" rx="10" fill="white"/>
</clipPath>
<clipPath id="clip33_6206_47807">
<rect x="87" y="145" width="298.666" height="133.592" rx="10" fill="white"/>
</clipPath>
<clipPath id="clip34_6206_47807">
<rect x="87" y="145" width="298.666" height="133.592" rx="6.80721" fill="white"/>
</clipPath>
<clipPath id="clip35_6206_47807">
<rect width="170.18" height="18" fill="white" transform="translate(104.02 233.854)"/>
</clipPath>
<clipPath id="clip36_6206_47807">
<rect width="170.18" height="18" fill="white" transform="translate(205.273 254.275)"/>
</clipPath>
<clipPath id="clip37_6206_47807">
<rect x="409.664" y="298.592" width="298.666" height="133.592" rx="10" fill="white"/>
</clipPath>
<clipPath id="clip38_6206_47807">
<rect x="409.664" y="298.592" width="298.666" height="133.592" rx="6.80721" fill="white"/>
</clipPath>
<clipPath id="clip39_6206_47807">
<rect width="170.18" height="18" fill="white" transform="translate(527.938 407.653)"/>
</clipPath>
</defs>
</svg>
