<svg width="1440" height="920" viewBox="0 0 1440 920" fill="none" xmlns="http://www.w3.org/2000/svg">
<g clip-path="url(#clip0_6206_48219)">
<rect width="1440" height="920" rx="20" fill="white"/>
<rect width="1440" height="800" transform="translate(0 120)" fill="#F2F5F6"/>
<rect width="1440" height="800" transform="translate(0 120)" fill="#D9E0E4"/>
<g clip-path="url(#clip1_6206_48219)">
<rect width="1440" height="69.3333" fill="black"/>
</g>
<line y1="68.6663" x2="1440" y2="68.6663" stroke="#D9E0E4" stroke-width="1.33333"/>
<path fill-rule="evenodd" clip-rule="evenodd" d="M38.407 21.8499C38.3184 17.282 34.3793 14 29.5459 14C24.7076 14 21 17.5486 21 22.0721C21 27.0835 24.5726 28.9027 28.8683 30.4138C32.7118 31.7452 34.5655 32.9422 34.5655 35.7808C34.5655 38.0869 32.7118 39.9941 29.9084 39.9941C27.24 39.9941 24.8888 38.1758 24.8888 35.3373C24.8888 34.4213 25.141 33.9003 25.3564 33.4554C25.5169 33.1236 25.6571 32.834 25.6571 32.4543C25.6571 31.4301 24.9341 30.6766 23.758 30.6766C22.4017 30.6766 21 32.6726 21 35.5111C21 40.079 25.0278 43.4499 29.9084 43.4479C34.8817 43.4479 38.4544 39.8548 38.4544 35.3758C38.4544 30.2311 34.7015 28.5007 30.5861 27.037C26.7396 25.6642 24.8888 24.4691 24.8868 21.762C24.8868 19.278 26.8806 17.4598 29.4986 17.4598C32.3029 17.4598 34.5182 19.3709 34.5635 21.9388C34.6088 23.1368 35.4678 23.8459 36.4626 23.8459C37.5008 23.8459 38.4524 23.1338 38.407 21.8499ZM40.3262 34.7121C40.3262 39.5911 44.3963 43.4499 49.28 43.4499C51.45 43.4499 53.1235 42.7397 53.1235 41.3649C53.1235 40.3447 52.2193 39.6355 51.3603 39.6355C51.0827 39.6355 50.8399 39.6866 50.5672 39.7439C50.2177 39.8174 49.8189 39.9012 49.2347 39.9012C46.4303 39.9012 44.2151 37.5062 44.2151 34.7121C44.2151 31.6968 46.4767 29.3462 49.3253 29.3462C52.5354 29.3462 54.5705 31.7412 54.5705 35.2444V41.5872C54.5705 42.6953 55.4747 43.4499 56.5602 43.4499C57.5984 43.4499 58.5046 42.6953 58.5046 41.5872V35.1111C58.5046 29.7896 54.7527 25.8864 49.4159 25.8864C44.4416 25.8864 40.3262 29.6563 40.3262 34.7121ZM69.6465 56.6667C64.5815 56.6667 60.3765 53.118 60.3765 48.5057C60.3765 46.9531 61.2828 46.2439 62.321 46.2439C63.3591 46.2439 64.22 46.9096 64.2654 48.1955C64.3107 51.0785 66.6619 53.2069 69.6022 53.2069C72.7237 53.2069 74.7567 51.2553 74.7567 48.7279C74.7567 45.8449 72.4961 44.6469 68.6526 43.4499C64.1757 42.0306 60.3776 40.079 60.3776 34.6676C60.3776 29.7007 64.2664 25.8864 69.3313 25.8864C74.4405 25.8864 78.6455 29.5229 78.6455 34.3131C78.6455 37.2405 77.4251 39.5022 75.7516 39.5022C74.6218 39.5022 73.8525 38.7042 73.8525 37.7244C73.8525 37.2875 74.0187 36.9564 74.2088 36.5777C74.4625 36.0722 74.7587 35.482 74.7587 34.4425C74.7587 31.3807 72.3179 29.3422 69.3786 29.3422C66.529 29.3422 64.2684 31.4706 64.2684 34.2647C64.2684 37.4143 66.5743 38.7447 70.3735 39.9862C74.7587 41.4054 78.6475 43.1793 78.6475 48.3684C78.6475 53.0262 74.8947 56.6647 69.6495 56.6647L69.6465 56.6667ZM80.5175 34.6677C80.5175 39.5467 84.6772 43.4499 89.7421 43.4499H89.7451C92.2776 43.4499 94.3126 42.7842 95.669 41.9418C97.0253 41.0993 97.5681 40.3892 97.5681 39.5911C97.5681 38.7487 96.9317 37.9941 95.7556 37.9941C95.2093 37.9941 94.7043 38.2973 94.088 38.6673C93.1228 39.2468 91.8847 39.9902 89.7874 39.9902C89.0767 39.991 88.3729 39.8535 87.7167 39.5858C87.0605 39.3181 86.4649 38.9253 85.9645 38.4303C85.464 37.9354 85.0686 37.3479 84.8012 36.7021C84.5337 36.0562 84.3995 35.3648 84.4063 34.6677C84.4063 31.7413 86.7575 29.3018 89.6515 29.3018C92.772 29.3018 94.4445 31.2998 94.4445 32.5837C94.4445 32.9383 94.1736 33.1161 93.8111 33.1161H89.9223C88.8791 33.1161 88.1098 33.8232 88.1098 34.7121C88.1098 35.6435 88.8832 36.3536 89.9223 36.3536H95.1232C97.1129 36.3536 98.3333 35.3334 98.3333 33.6484C98.3333 29.3018 94.5351 25.8865 89.5155 25.8865C88.3361 25.8809 87.1672 26.1038 86.0759 26.5426C84.9846 26.9814 83.9923 27.6273 83.1563 28.4432C82.3202 29.2592 81.6567 30.2291 81.2038 31.2973C80.751 32.3654 80.5177 33.5108 80.5175 34.6677Z" fill="#00D639"/>
<line x1="120.331" y1="14" x2="120.331" y2="56.6667" stroke="#5E5E5E" stroke-width="1.33333"/>
<text fill="white" fill-opacity="0.9" style="white-space: pre" xml:space="preserve" font-family="Sage UI" font-size="24" font-weight="500" letter-spacing="0px"><tspan x="139" y="42.8">Intacct</tspan></text>
<path d="M1305.38 34.1L1303.27 34.75C1302.52 34.98 1301.94 35.57 1301.71 36.31L1301.06 38.42C1300.68 39.67 1298.91 39.67 1298.53 38.42L1297.88 36.31C1297.65 35.56 1297.06 34.98 1296.32 34.75L1294.21 34.1C1292.96 33.72 1292.96 31.95 1294.21 31.57L1296.32 30.92C1297.07 30.69 1297.65 30.1 1297.88 29.36L1298.53 27.25C1298.91 26 1300.68 26 1301.06 27.25L1301.71 29.36C1301.94 30.11 1302.53 30.69 1303.27 30.92L1305.38 31.57C1306.63 31.95 1306.63 33.72 1305.38 34.1Z" fill="url(#paint0_radial_6206_48219)"/>
<path d="M1280.62 15.7895C1286.81 15.7895 1291.85 20.0695 1291.96 26.0295C1292.02 27.7095 1290.8 28.6295 1289.47 28.6295C1288.14 28.6295 1287.1 27.6995 1287.04 26.1395C1286.98 22.7795 1284.15 20.2895 1280.56 20.2895C1277.2 20.2895 1274.66 22.6595 1274.66 25.8995C1274.66 29.4295 1277.03 30.9895 1281.95 32.7895C1287.22 34.6995 1292.02 36.9595 1292.02 43.6695C1292.02 49.5195 1287.45 54.1995 1281.08 54.1995C1274.71 54.1995 1269.68 49.7995 1269.68 43.8395C1269.68 40.1395 1271.47 37.5295 1273.21 37.5295C1274.72 37.5295 1275.64 38.5095 1275.64 39.8395C1275.64 40.9995 1274.66 41.5195 1274.66 43.5995C1274.66 47.2995 1277.67 49.6795 1281.08 49.6795C1284.67 49.6795 1287.04 47.1895 1287.04 44.1795C1287.04 40.4795 1284.67 38.9095 1279.75 37.1795C1274.25 35.2095 1269.68 32.8395 1269.68 26.2995C1269.68 20.3995 1274.42 15.7695 1280.62 15.7695V15.7895Z" fill="url(#paint1_linear_6206_48219)"/>
<text fill="white" fill-opacity="0.9" style="white-space: pre" xml:space="preserve" font-family="Sage UI" font-size="24" font-weight="500" letter-spacing="0px"><tspan x="1316" y="43.3">Copilot</tspan></text>
<rect width="1440" height="53" transform="translate(0 67)" fill="white"/>
<rect width="65.3333" height="53.3333" transform="translate(0 66.833)" fill="white"/>
<text fill="black" style="white-space: pre" xml:space="preserve" font-family="Font Awesome 5 Pro" font-size="21.3333" font-weight="900" letter-spacing="0px"><tspan x="20" y="101.167">star</tspan></text>
<path d="M64.6667 67.4997V119.532" stroke="#595959" stroke-width="1.33333" stroke-linecap="square"/>
<rect width="65.3333" height="53.3333" transform="translate(65.3333 66.833)" fill="white"/>
<text fill="black" style="white-space: pre" xml:space="preserve" font-family="Font Awesome 5 Pro" font-size="21.3333" font-weight="900" letter-spacing="0px"><tspan x="85.3333" y="101.167">home</tspan></text>
<path d="M130 67.4997V119.532" stroke="#595959" stroke-width="1.33333" stroke-linecap="square"/>
<g clip-path="url(#clip2_6206_48219)">
<rect width="333.333" height="53.3333" transform="translate(130.667 66.833)" fill="white"/>
<text fill="#00141E" style="white-space: pre" xml:space="preserve" font-family="Helvetica-Neue" font-size="18.6667" letter-spacing="0px"><tspan x="157.333" y="100.323">CFO - Daily View</tspan></text>
<text fill="black" style="white-space: pre" xml:space="preserve" font-family="Font Awesome 5 Pro" font-size="18.6667" letter-spacing="0px"><tspan x="424.167" y="100.333">&#xf107;</tspan></text>
<path d="M463.333 67.4997V119.532" stroke="#595959" stroke-width="1.33333" stroke-linecap="square"/>
</g>
<rect x="1182.77" y="77" width="121.846" height="34" rx="5.23077" fill="white"/>
<g clip-path="url(#clip3_6206_48219)">
<text fill="#B3C2C9" style="white-space: pre" xml:space="preserve" font-family="Helvetica-Neue" font-size="17" letter-spacing="0px"><tspan x="1198.92" y="100.214">All items</tspan></text>
<text fill="#B3C2C9" style="white-space: pre" xml:space="preserve" font-family="Font Awesome 5 Pro" font-size="18.3077" letter-spacing="0px"><tspan x="1277.2" y="100.519">angle-down</tspan></text>
</g>
<rect x="1183.42" y="77.6538" width="120.538" height="32.6923" rx="4.57692" stroke="#B3C2C9" stroke-width="1.30769"/>
<rect x="1010.16" y="77" width="161.846" height="34" rx="5.23077" fill="white"/>
<g clip-path="url(#clip4_6206_48219)">
<text fill="#B3C2C9" style="white-space: pre" xml:space="preserve" font-family="Helvetica-Neue" font-size="17" letter-spacing="0px"><tspan x="1026.32" y="100.214">All customers</tspan></text>
<text fill="#B3C2C9" style="white-space: pre" xml:space="preserve" font-family="Font Awesome 5 Pro" font-size="18.3077" letter-spacing="0px"><tspan x="1144.59" y="100.519">angle-down</tspan></text>
</g>
<rect x="1010.81" y="77.6538" width="160.538" height="32.6923" rx="4.57692" stroke="#B3C2C9" stroke-width="1.30769"/>
<rect x="848" y="77" width="149.846" height="34" rx="5.23077" fill="white"/>
<g clip-path="url(#clip5_6206_48219)">
<text fill="#00324C" style="white-space: pre" xml:space="preserve" font-family="Helvetica-Neue" font-size="17" letter-spacing="0px"><tspan x="863.813" y="100.214">All locations</tspan></text>
<text fill="#00324C" style="white-space: pre" xml:space="preserve" font-family="Font Awesome 5 Pro" font-size="18.3077" letter-spacing="0px"><tspan x="970.433" y="100.519">angle-down</tspan></text>
</g>
<rect x="848.654" y="77.6538" width="148.538" height="32.6923" rx="4.57692" stroke="#00324C" stroke-width="1.30769"/>
<rect x="1316.16" y="77" width="100.231" height="34" rx="5.23077" fill="white"/>
<g clip-path="url(#clip6_6206_48219)">
<text fill="#0060A7" style="white-space: pre" xml:space="preserve" font-family="Font Awesome 5 Pro" font-size="18.3077" letter-spacing="0px"><tspan x="1332.19" y="100.519">filter</tspan></text>
<text fill="#0060A7" style="white-space: pre" xml:space="preserve" font-family="Helvetica-Neue" font-size="17" letter-spacing="0px"><tspan x="1359.08" y="100.214">Clear</tspan></text>
</g>
<rect x="1316.81" y="77.6538" width="98.9231" height="32.6923" rx="4.57692" stroke="#0060A7" stroke-width="1.30769"/>
<rect x="683.309" y="77" width="147.615" height="34" rx="5.23077" fill="white"/>
<g clip-path="url(#clip7_6206_48219)">
<text fill="#B3C2C9" style="white-space: pre" xml:space="preserve" font-family="Helvetica-Neue" font-size="17" letter-spacing="0px"><tspan x="699.4" y="100.214">Date </tspan><tspan x="792.602" y="100.214"> </tspan></text>
<text fill="white" style="white-space: pre" xml:space="preserve" font-family="Helvetica-Neue" font-size="17" letter-spacing="0px"><tspan x="740.954" y="100.214">please</tspan></text>
</g>
<rect x="683.962" y="77.6538" width="146.308" height="32.6923" rx="4.57692" stroke="#B3C2C9" stroke-width="1.30769"/>
<text fill="#B3C2C9" style="white-space: pre" xml:space="preserve" font-family="Font Awesome 5 Pro" font-size="13.0769" letter-spacing="0px"><tspan x="809.357" y="97.9032">calendar-alt</tspan></text>
<g clip-path="url(#clip8_6206_48219)">
<g clip-path="url(#clip9_6206_48219)">
<rect width="298.666" height="35.7379" transform="translate(87 144)" fill="white"/>
<rect width="298.666" height="97.8537" transform="translate(87 179.738)" fill="white"/>
</g>
<rect x="87.4255" y="144.425" width="297.816" height="132.741" rx="6.38176" stroke="#FAFBFB" stroke-width="0.850902"/>
<text fill="#1A1A1A" style="white-space: pre" xml:space="preserve" font-family="Helvetica-Neue" font-size="12" letter-spacing="0px"><tspan x="104.02" y="166.254">Assets</tspan></text>
<g clip-path="url(#clip10_6206_48219)">
<text fill="#737373" style="white-space: pre" xml:space="preserve" font-family="Helvetica Neue" font-size="12" letter-spacing="0px"><tspan x="104.02" y="246.222">this month</tspan></text>
</g>
<g clip-path="url(#clip11_6206_48219)">
<text fill="#007E45" style="white-space: pre" xml:space="preserve" font-family="Helvetica Neue" font-size="11.9126" letter-spacing="0px"><tspan x="234.454" y="266.612">+$387,918 vs. prior month</tspan></text>
</g>
<text fill="black" style="white-space: pre" xml:space="preserve" font-family="Helvetica-Neue" font-size="40.4432" letter-spacing="0px"><tspan x="104.02" y="224.051">$17,791K</tspan></text>
<text transform="translate(312.488 179.589)" fill="#00821F" style="white-space: pre" xml:space="preserve" font-family="Font Awesome 5 Pro" font-size="57.7822" font-weight="900" letter-spacing="0px"><tspan x="0.220306" y="50.5594">arrow-up</tspan></text>
</g>
<g clip-path="url(#clip12_6206_48219)">
<g clip-path="url(#clip13_6206_48219)">
<rect width="298.666" height="35.7379" transform="translate(409.664 144)" fill="white"/>
<rect width="298.666" height="97.8537" transform="translate(409.664 179.738)" fill="white"/>
</g>
<rect x="410.09" y="144.425" width="297.816" height="132.741" rx="6.38176" stroke="#FAFBFB" stroke-width="0.850902"/>
<text fill="#1A1A1A" style="white-space: pre" xml:space="preserve" font-family="Helvetica-Neue" font-size="12" letter-spacing="0px"><tspan x="426.68" y="166.254">Revenue</tspan></text>
<text fill="#737373" style="white-space: pre" xml:space="preserve" font-family="Helvetica Neue" font-size="12" letter-spacing="0px"><tspan x="426.68" y="244.222">this month</tspan></text>
<text fill="black" style="white-space: pre" xml:space="preserve" font-family="Helvetica-Neue" font-size="40.4432" letter-spacing="0px"><tspan x="426.68" y="224.051">$503,118</tspan></text>
<text transform="translate(635.152 179.589)" fill="#00821F" style="white-space: pre" xml:space="preserve" font-family="Font Awesome 5 Pro" font-size="57.7822" font-weight="900" letter-spacing="0px"><tspan x="0.220306" y="50.5594">arrow-up</tspan></text>
<g clip-path="url(#clip14_6206_48219)">
<text fill="#007E45" style="white-space: pre" xml:space="preserve" font-family="Helvetica Neue" font-size="11.9126" letter-spacing="0px"><tspan x="564.118" y="266.398">+$90,747 vs. prior month</tspan></text>
</g>
</g>
<g clip-path="url(#clip15_6206_48219)">
<g clip-path="url(#clip16_6206_48219)">
<rect width="298.666" height="35.7379" transform="translate(732.332 144)" fill="white"/>
<rect width="298.666" height="97.8537" transform="translate(732.332 179.738)" fill="white"/>
</g>
<rect x="732.757" y="144.425" width="297.816" height="132.741" rx="6.38176" stroke="#FAFBFB" stroke-width="0.850902"/>
<text fill="#1A1A1A" style="white-space: pre" xml:space="preserve" font-family="Helvetica-Neue" font-size="12" letter-spacing="0px"><tspan x="749.352" y="166.254">Net Income</tspan></text>
<text fill="#737373" style="white-space: pre" xml:space="preserve" font-family="Helvetica Neue" font-size="12" letter-spacing="0px"><tspan x="749.352" y="244.222">this month</tspan></text>
<text fill="black" style="white-space: pre" xml:space="preserve" font-family="Helvetica-Neue" font-size="40.4432" letter-spacing="0px"><tspan x="749.352" y="224.051">$277,475</tspan></text>
<text transform="translate(958.152 179.589)" fill="#00821F" style="white-space: pre" xml:space="preserve" font-family="Font Awesome 5 Pro" font-size="57.7822" font-weight="900" letter-spacing="0px"><tspan x="0.220306" y="50.5594">arrow-up</tspan></text>
<g clip-path="url(#clip17_6206_48219)">
<text fill="#007E45" style="white-space: pre" xml:space="preserve" font-family="Helvetica Neue" font-size="11.9126" letter-spacing="0px"><tspan x="887.512" y="266.398">+$85,704 vs. prior month</tspan></text>
</g>
</g>
<g clip-path="url(#clip18_6206_48219)">
<g clip-path="url(#clip19_6206_48219)">
<rect width="298.666" height="35.7379" transform="translate(1055 144)" fill="white"/>
<rect width="298.666" height="97.8537" transform="translate(1055 179.738)" fill="white"/>
</g>
<rect x="1055.43" y="144.425" width="297.816" height="132.741" rx="6.38176" stroke="#FAFBFB" stroke-width="0.850902"/>
<text fill="#1A1A1A" style="white-space: pre" xml:space="preserve" font-family="Helvetica-Neue" font-size="12" letter-spacing="0px"><tspan x="1072.02" y="166.254">Expenses</tspan></text>
<text fill="#737373" style="white-space: pre" xml:space="preserve" font-family="Helvetica Neue" font-size="12" letter-spacing="0px"><tspan x="1072.02" y="244.222">this month</tspan></text>
<text fill="#007E45" style="white-space: pre" xml:space="preserve" font-family="Helvetica Neue" font-size="11.9126" letter-spacing="0px"><tspan x="1215.45" y="266.398">+$5,043 vs. prior month</tspan></text>
<text fill="black" style="white-space: pre" xml:space="preserve" font-family="Helvetica-Neue" font-size="40.4432" letter-spacing="0px"><tspan x="1072.02" y="224.051">$225,643</tspan></text>
<text transform="translate(1280.82 179.589)" fill="#CB374A" style="white-space: pre" xml:space="preserve" font-family="Font Awesome 5 Pro" font-size="57.7822" font-weight="900" letter-spacing="0px"><tspan x="0.220306" y="50.5594">arrow-up</tspan></text>
</g>
<rect x="24" y="302" width="684" height="443" rx="15.3458" fill="white"/>
<rect x="24" y="391" width="684" height="354" fill="#F2F5F6"/>
<circle cx="66.9522" cy="346.247" r="8.95224" fill="#B3C2C9"/>
<rect x="82.6187" y="342.89" width="67.1418" height="6.71418" rx="3.35709" fill="#B3C2C9"/>
<rect x="158.713" y="342.891" width="55.9515" height="6.71418" rx="3.35709" fill="#CCD6DB"/>
<rect x="683.953" y="350.437" width="55.9515" height="6.71418" rx="3.35709" transform="rotate(-180 683.953 350.437)" fill="#CCD6DB"/>
<path d="M489.835 568.647C489.835 591.349 483.612 613.616 471.843 633.029C460.074 652.442 443.209 668.258 423.081 678.757C402.953 689.257 380.332 694.038 357.677 692.582C335.022 691.125 313.2 683.487 294.582 670.497L323.007 629.757C334.177 637.551 347.271 642.134 360.864 643.008C374.457 643.882 388.029 641.013 400.106 634.713C412.183 628.413 422.302 618.924 429.363 607.276C436.425 595.628 440.158 582.268 440.158 568.647H489.835Z" fill="#00C1AE"/>
<path d="M273.332 485.565C290.166 466.863 312.283 453.715 336.756 447.862C361.228 442.01 386.901 443.73 410.374 452.794C433.848 461.857 454.014 477.837 468.203 498.618C482.392 519.398 489.933 543.998 489.829 569.161L440.153 568.955C440.216 553.858 435.691 539.098 427.178 526.63C418.664 514.162 406.564 504.573 392.48 499.135C378.396 493.697 362.993 492.665 348.309 496.177C333.626 499.688 320.355 507.577 310.255 518.798L273.332 485.565Z" fill="#C9D800"/>
<path d="M294.79 670.64C276.902 658.212 262.596 641.297 253.31 621.594C244.023 601.89 240.083 580.09 241.884 558.382L291.39 562.489C290.309 575.513 292.674 588.593 298.246 600.416C303.817 612.238 312.401 622.387 323.134 629.844L294.79 670.64Z" fill="#EF6700"/>
<path d="M241.864 558.6C244.074 531.367 255.204 505.623 273.528 485.356L310.376 518.672C299.381 530.832 292.704 546.279 291.378 562.619L241.864 558.6Z" fill="#FFB500"/>
<path d="M440.199 488.757H578.82" stroke="#99ADB7" stroke-width="1.00087"/>
<path d="M426.184 659.906H524.269" stroke="#99ADB7" stroke-width="1.00087"/>
<path d="M175.988 613.866H274.074" stroke="#99ADB7" stroke-width="1.00087"/>
<path d="M105.922 532.795L274.068 532.795" stroke="#99ADB7" stroke-width="1.00087"/>
<rect x="24" y="770" width="684" height="443" rx="15.3458" fill="white"/>
<rect x="24" y="859" width="684" height="354" fill="#F2F5F6"/>
<rect x="47.9453" y="813.354" width="67.0833" height="6.70833" rx="3.35417" fill="#B3C2C9"/>
<rect x="123.973" y="813.354" width="55.9028" height="6.70833" rx="3.35417" fill="#CCD6DB"/>
<rect x="87.4255" y="894.425" width="581.149" height="282.149" fill="white" stroke="#E6EBED" stroke-width="0.850902"/>
<rect x="669" y="919" width="105" height="582" transform="rotate(90 669 919)" fill="#F2F5F6"/>
<rect x="55.4141" y="902.852" width="14.433" height="6.99221" rx="3.49611" fill="#CCD6DB"/>
<rect x="594" y="815.035" width="52" height="5" rx="2.5" fill="#CCD6DB"/>
<rect x="663.417" y="814.739" width="20.125" height="5.59028" rx="2.79514" fill="#CCD6DB"/>
<g clip-path="url(#clip20_6206_48219)">
<rect x="732" y="302" width="684" height="443" rx="15.3458" fill="white"/>
<rect x="732" y="391" width="694" height="354" fill="#F2F5F6"/>
<circle cx="763.952" cy="346.952" r="8.95224" fill="#B3C2C9"/>
<rect x="779.619" y="343.595" width="67.1418" height="6.71418" rx="3.35709" fill="#B3C2C9"/>
<rect x="855.713" y="343.596" width="55.9515" height="6.71418" rx="3.35709" fill="#CCD6DB"/>
<rect x="842.426" y="412.426" width="545.148" height="283.148" fill="white" stroke="#E6EBED" stroke-width="0.8519"/>
<rect x="1168" y="412" width="108" height="283" fill="#F2F5F6"/>
<rect x="956" y="412" width="107" height="283" fill="#F2F5F6"/>
<rect x="842" y="422" width="419" height="56" fill="#C9D800"/>
<rect x="842" y="492" width="483" height="56" fill="#00C1AE"/>
<rect x="842" y="561" width="369" height="57" fill="#FFB500"/>
<rect x="842" y="630" width="260" height="57" fill="#EF6700"/>
<rect x="778" y="446" width="43" height="7" rx="3.5" fill="#B3C2C9"/>
<rect x="789" y="518" width="32" height="7" rx="3.5" fill="#B3C2C9"/>
<rect x="778" y="588" width="43" height="7" rx="3.5" fill="#B3C2C9"/>
<rect x="789" y="657" width="32" height="7" rx="3.5" fill="#B3C2C9"/>
<rect x="842" y="704" width="32" height="7" rx="3.5" fill="#B3C2C9"/>
<rect x="994" y="707" width="32" height="7" rx="3.5" fill="#B3C2C9"/>
<rect x="1202" y="704" width="32" height="7" rx="3.5" fill="#B3C2C9"/>
<rect x="1354" y="704" width="32" height="7" rx="3.5" fill="#B3C2C9"/>
<rect x="1391.95" y="350.437" width="55.9515" height="6.71418" rx="3.35709" transform="rotate(-180 1391.95 350.437)" fill="#CCD6DB"/>
</g>
<rect x="732" y="770" width="684" height="443" rx="15.3458" fill="white"/>
<rect x="732" y="859" width="684" height="354" fill="#F2F5F6"/>
<rect x="761.425" y="895.425" width="309.149" height="280.149" fill="white" stroke="#E6EBED" stroke-width="0.850902"/>
<rect x="773.324" y="910" width="198.104" height="7" rx="3.5" fill="#E6EBED"/>
<g clip-path="url(#clip21_6206_48219)">
<rect x="1104" y="895" width="283" height="1" fill="#CCD6DB"/>
<rect width="283" height="34" transform="translate(1104 896)" fill="#E6EBED"/>
<rect x="1386" y="896" width="1" height="34" fill="#CCD6DB"/>
</g>
<rect x="1122.22" y="910" width="76.8761" height="7" rx="3.5" fill="#B3C2C9"/>
<rect x="755.945" y="813.354" width="55.9028" height="6.70833" rx="3.35417" fill="#CCD6DB"/>
<rect x="1371.94" y="815.739" width="20.125" height="5.59028" rx="2.79514" fill="#CCD6DB"/>
<rect width="1440" height="800" transform="translate(0 120)" fill="#282828" fill-opacity="0.4"/>
<g filter="url(#filter0_d_6206_48219)">
<rect x="851" y="199" width="316" height="396" rx="10" fill="white"/>
</g>
<g clip-path="url(#clip22_6206_48219)">
<rect x="851" y="128" width="316" height="453.956" rx="10" fill="white"/>
<rect width="316" height="41" transform="translate(851 128)" fill="#F2F5F6"/>
<rect width="316" height="32" transform="translate(851 169)" fill="#E6EBED"/>
<text fill="#0060A7" style="white-space: pre" xml:space="preserve" font-family="Helvetica-Neue" font-size="13" letter-spacing="0px"><tspan x="996" y="153.054">View</tspan></text>
<text fill="#0060A7" style="white-space: pre" xml:space="preserve" font-family="Helvetica-Neue" font-size="13" letter-spacing="0px"><tspan x="862" y="153.054">Add</tspan></text>
<text fill="#0060A7" style="white-space: pre" xml:space="preserve" font-family="Helvetica-Neue" font-size="13" letter-spacing="0px"><tspan x="862" y="189.054">All locations</tspan></text>
<text fill="black" style="white-space: pre" xml:space="preserve" font-family="Helvetica-Neue" font-size="14" letter-spacing="0px"><tspan x="980.508" y="234.367">Active Locations--Group&#10;</tspan><tspan x="862" y="262.867">All--All Business Units--Group&#10;</tspan><tspan x="862" y="291.367">Inactive Locations--Inactive Locations--Group&#10;</tspan><tspan x="862" y="319.867">North--North Region--Group&#10;</tspan><tspan x="862" y="348.367">South--South Region--Group&#10;</tspan><tspan x="862" y="376.867">Texas--West Region--Group&#10;</tspan><tspan x="862" y="405.367">10--Texas&#10;</tspan><tspan x="862" y="433.867">20--Maine&#10;</tspan><tspan x="862" y="462.367">30--California&#10;</tspan><tspan x="862" y="490.867">40--Florida&#10;</tspan><tspan x="862" y="519.367">100--Dallas&#10;</tspan><tspan x="862" y="547.867">200--Austin&#10;</tspan><tspan x="862" y="576.367">300--San Jose&#10;</tspan><tspan x="862" y="604.867">&#10;</tspan></text>
<text fill="black" style="white-space: pre" xml:space="preserve" font-family="Helvetica-Neue" font-size="14" letter-spacing="0px"><tspan x="862" y="234.367">Active Locations--</tspan></text>
<text fill="#0060A7" style="white-space: pre" xml:space="preserve" font-family="Helvetica-Neue" font-size="13" letter-spacing="0px"><tspan x="1110" y="153.054">Find...</tspan></text>
</g>
</g>
<defs>
<filter id="filter0_d_6206_48219" x="809.448" y="182.379" width="399.103" height="479.103" filterUnits="userSpaceOnUse" color-interpolation-filters="sRGB">
<feFlood flood-opacity="0" result="BackgroundImageFix"/>
<feColorMatrix in="SourceAlpha" type="matrix" values="0 0 0 0 0 0 0 0 0 0 0 0 0 0 0 0 0 0 127 0" result="hardAlpha"/>
<feOffset dy="24.9309"/>
<feGaussianBlur stdDeviation="20.7758"/>
<feComposite in2="hardAlpha" operator="out"/>
<feColorMatrix type="matrix" values="0 0 0 0 0 0 0 0 0 0 0 0 0 0 0 0 0 0 0.1 0"/>
<feBlend mode="normal" in2="BackgroundImageFix" result="effect1_dropShadow_6206_48219"/>
<feBlend mode="normal" in="SourceGraphic" in2="effect1_dropShadow_6206_48219" result="shape"/>
</filter>
<radialGradient id="paint0_radial_6206_48219" cx="0" cy="0" r="1" gradientTransform="matrix(10.5 9.5 -7.88115 9.9214 1295.5 28)" gradientUnits="userSpaceOnUse">
<stop offset="0.341666" stop-color="#9D60FF"/>
<stop offset="0.72" stop-color="#00D6DE"/>
<stop offset="0.896666" stop-color="#00D639"/>
</radialGradient>
<linearGradient id="paint1_linear_6206_48219" x1="1282.5" y1="53.9995" x2="1294.47" y2="25.5347" gradientUnits="userSpaceOnUse">
<stop stop-color="#00D639"/>
<stop offset="0.4" stop-color="#00D6DE"/>
<stop offset="0.9" stop-color="#9D60FF"/>
</linearGradient>
<clipPath id="clip0_6206_48219">
<rect width="1440" height="920" rx="20" fill="white"/>
</clipPath>
<clipPath id="clip1_6206_48219">
<rect width="1440" height="69.3333" fill="white"/>
</clipPath>
<clipPath id="clip2_6206_48219">
<rect width="333.333" height="53.3333" fill="white" transform="translate(130.667 66.833)"/>
</clipPath>
<clipPath id="clip3_6206_48219">
<rect x="1182.77" y="77" width="121.846" height="34" rx="5.23077" fill="white"/>
</clipPath>
<clipPath id="clip4_6206_48219">
<rect x="1010.16" y="77" width="161.846" height="34" rx="5.23077" fill="white"/>
</clipPath>
<clipPath id="clip5_6206_48219">
<rect x="848" y="77" width="149.846" height="34" rx="5.23077" fill="white"/>
</clipPath>
<clipPath id="clip6_6206_48219">
<rect x="1316.16" y="77" width="100.231" height="34" rx="5.23077" fill="white"/>
</clipPath>
<clipPath id="clip7_6206_48219">
<rect x="683.309" y="77" width="147.615" height="34" rx="5.23077" fill="white"/>
</clipPath>
<clipPath id="clip8_6206_48219">
<rect x="87" y="144" width="298.666" height="133.592" rx="10" fill="white"/>
</clipPath>
<clipPath id="clip9_6206_48219">
<rect x="87" y="144" width="298.666" height="133.592" rx="6.80721" fill="white"/>
</clipPath>
<clipPath id="clip10_6206_48219">
<rect width="170.18" height="18" fill="white" transform="translate(104.02 232.854)"/>
</clipPath>
<clipPath id="clip11_6206_48219">
<rect width="170.18" height="18" fill="white" transform="translate(205.273 253.275)"/>
</clipPath>
<clipPath id="clip12_6206_48219">
<rect x="409.664" y="144" width="298.666" height="133.592" rx="10" fill="white"/>
</clipPath>
<clipPath id="clip13_6206_48219">
<rect x="409.664" y="144" width="298.666" height="133.592" rx="6.80721" fill="white"/>
</clipPath>
<clipPath id="clip14_6206_48219">
<rect width="170.18" height="18" fill="white" transform="translate(527.938 253.062)"/>
</clipPath>
<clipPath id="clip15_6206_48219">
<rect x="732.332" y="144" width="298.666" height="133.592" rx="10" fill="white"/>
</clipPath>
<clipPath id="clip16_6206_48219">
<rect x="732.332" y="144" width="298.666" height="133.592" rx="6.80721" fill="white"/>
</clipPath>
<clipPath id="clip17_6206_48219">
<rect width="170.18" height="18" fill="white" transform="translate(851.332 253.062)"/>
</clipPath>
<clipPath id="clip18_6206_48219">
<rect x="1055" y="144" width="298.666" height="133.592" rx="10" fill="white"/>
</clipPath>
<clipPath id="clip19_6206_48219">
<rect x="1055" y="144" width="298.666" height="133.592" rx="6.80721" fill="white"/>
</clipPath>
<clipPath id="clip20_6206_48219">
<rect x="732" y="302" width="684" height="443" rx="15.3458" fill="white"/>
</clipPath>
<clipPath id="clip21_6206_48219">
<rect width="283" height="281" fill="white" transform="translate(1104 895)"/>
</clipPath>
<clipPath id="clip22_6206_48219">
<rect x="851" y="128" width="316" height="453.956" rx="10" fill="white"/>
</clipPath>
</defs>
</svg>
