<svg width="1440" height="920" viewBox="0 0 1440 920" fill="none" xmlns="http://www.w3.org/2000/svg">
<g clip-path="url(#clip0_6206_49071)">
<rect width="1440" height="920" rx="20" fill="white"/>
<rect width="1440" height="800" transform="translate(0 120)" fill="#F2F5F6"/>
<rect width="1440" height="800" transform="translate(0 120)" fill="#D9E0E4"/>
<g clip-path="url(#clip1_6206_49071)">
<rect width="1440" height="69.3333" fill="black"/>
</g>
<line y1="68.6668" x2="1440" y2="68.6668" stroke="#D9E0E4" stroke-width="1.33333"/>
<path fill-rule="evenodd" clip-rule="evenodd" d="M38.407 21.8499C38.3184 17.282 34.3793 14 29.5459 14C24.7076 14 21 17.5486 21 22.0721C21 27.0835 24.5726 28.9027 28.8683 30.4138C32.7118 31.7452 34.5655 32.9422 34.5655 35.7808C34.5655 38.0869 32.7118 39.9941 29.9084 39.9941C27.24 39.9941 24.8888 38.1758 24.8888 35.3373C24.8888 34.4213 25.141 33.9003 25.3564 33.4554C25.5169 33.1236 25.6571 32.834 25.6571 32.4543C25.6571 31.4301 24.9341 30.6766 23.758 30.6766C22.4017 30.6766 21 32.6726 21 35.5111C21 40.079 25.0278 43.4499 29.9084 43.4479C34.8817 43.4479 38.4544 39.8548 38.4544 35.3758C38.4544 30.2311 34.7015 28.5007 30.5861 27.037C26.7396 25.6642 24.8888 24.4691 24.8868 21.762C24.8868 19.278 26.8806 17.4598 29.4986 17.4598C32.3029 17.4598 34.5182 19.3709 34.5635 21.9388C34.6088 23.1368 35.4678 23.8459 36.4626 23.8459C37.5008 23.8459 38.4524 23.1338 38.407 21.8499ZM40.3262 34.7121C40.3262 39.5911 44.3963 43.4499 49.28 43.4499C51.45 43.4499 53.1235 42.7397 53.1235 41.3649C53.1235 40.3447 52.2193 39.6355 51.3603 39.6355C51.0827 39.6355 50.8399 39.6866 50.5672 39.7439C50.2177 39.8174 49.8189 39.9012 49.2347 39.9012C46.4303 39.9012 44.2151 37.5062 44.2151 34.7121C44.2151 31.6968 46.4767 29.3462 49.3253 29.3462C52.5354 29.3462 54.5705 31.7412 54.5705 35.2444V41.5872C54.5705 42.6953 55.4747 43.4499 56.5602 43.4499C57.5984 43.4499 58.5046 42.6953 58.5046 41.5872V35.1111C58.5046 29.7896 54.7527 25.8864 49.4159 25.8864C44.4416 25.8864 40.3262 29.6563 40.3262 34.7121ZM69.6465 56.6667C64.5815 56.6667 60.3765 53.118 60.3765 48.5057C60.3765 46.9531 61.2828 46.2439 62.321 46.2439C63.3591 46.2439 64.22 46.9096 64.2654 48.1955C64.3107 51.0785 66.6619 53.2069 69.6022 53.2069C72.7237 53.2069 74.7567 51.2553 74.7567 48.7279C74.7567 45.8449 72.4961 44.6469 68.6526 43.4499C64.1757 42.0306 60.3776 40.079 60.3776 34.6676C60.3776 29.7007 64.2664 25.8864 69.3313 25.8864C74.4405 25.8864 78.6455 29.5229 78.6455 34.3131C78.6455 37.2405 77.4251 39.5022 75.7516 39.5022C74.6218 39.5022 73.8525 38.7042 73.8525 37.7244C73.8525 37.2875 74.0187 36.9564 74.2088 36.5777C74.4625 36.0722 74.7587 35.482 74.7587 34.4425C74.7587 31.3807 72.3179 29.3422 69.3786 29.3422C66.529 29.3422 64.2684 31.4706 64.2684 34.2647C64.2684 37.4143 66.5743 38.7447 70.3735 39.9862C74.7587 41.4054 78.6475 43.1793 78.6475 48.3684C78.6475 53.0262 74.8947 56.6647 69.6495 56.6647L69.6465 56.6667ZM80.5175 34.6677C80.5175 39.5467 84.6772 43.4499 89.7421 43.4499H89.7451C92.2776 43.4499 94.3126 42.7842 95.669 41.9418C97.0253 41.0993 97.5681 40.3892 97.5681 39.5911C97.5681 38.7487 96.9317 37.9941 95.7556 37.9941C95.2093 37.9941 94.7043 38.2973 94.088 38.6673C93.1228 39.2468 91.8847 39.9902 89.7874 39.9902C89.0767 39.991 88.3729 39.8535 87.7167 39.5858C87.0605 39.3181 86.4649 38.9253 85.9645 38.4303C85.464 37.9354 85.0686 37.3479 84.8012 36.7021C84.5337 36.0562 84.3995 35.3648 84.4063 34.6677C84.4063 31.7413 86.7575 29.3018 89.6515 29.3018C92.772 29.3018 94.4445 31.2998 94.4445 32.5837C94.4445 32.9383 94.1736 33.1161 93.8111 33.1161H89.9223C88.8791 33.1161 88.1098 33.8232 88.1098 34.7121C88.1098 35.6435 88.8832 36.3536 89.9223 36.3536H95.1232C97.1129 36.3536 98.3333 35.3334 98.3333 33.6484C98.3333 29.3018 94.5351 25.8865 89.5155 25.8865C88.3361 25.8809 87.1672 26.1038 86.0759 26.5426C84.9846 26.9814 83.9923 27.6273 83.1563 28.4432C82.3202 29.2592 81.6567 30.2291 81.2038 31.2973C80.751 32.3654 80.5177 33.5108 80.5175 34.6677Z" fill="#00D639"/>
<line x1="120.331" y1="14" x2="120.331" y2="56.6667" stroke="#5E5E5E" stroke-width="1.33333"/>
<text fill="white" fill-opacity="0.9" style="white-space: pre" xml:space="preserve" font-family="Sage UI" font-size="24" font-weight="500" letter-spacing="0px"><tspan x="139" y="42.8">Intacct</tspan></text>
<path d="M1305.38 34.1L1303.27 34.75C1302.52 34.98 1301.94 35.57 1301.71 36.31L1301.06 38.42C1300.68 39.67 1298.91 39.67 1298.53 38.42L1297.88 36.31C1297.65 35.56 1297.06 34.98 1296.32 34.75L1294.21 34.1C1292.96 33.72 1292.96 31.95 1294.21 31.57L1296.32 30.92C1297.07 30.69 1297.65 30.1 1297.88 29.36L1298.53 27.25C1298.91 26 1300.68 26 1301.06 27.25L1301.71 29.36C1301.94 30.11 1302.53 30.69 1303.27 30.92L1305.38 31.57C1306.63 31.95 1306.63 33.72 1305.38 34.1Z" fill="url(#paint0_radial_6206_49071)"/>
<path d="M1280.62 15.79C1286.81 15.79 1291.85 20.07 1291.96 26.03C1292.02 27.71 1290.8 28.63 1289.47 28.63C1288.14 28.63 1287.1 27.7 1287.04 26.14C1286.98 22.78 1284.15 20.29 1280.56 20.29C1277.2 20.29 1274.66 22.66 1274.66 25.9C1274.66 29.43 1277.03 30.99 1281.95 32.79C1287.22 34.7 1292.02 36.96 1292.02 43.67C1292.02 49.52 1287.45 54.2 1281.08 54.2C1274.71 54.2 1269.68 49.8 1269.68 43.84C1269.68 40.14 1271.47 37.53 1273.21 37.53C1274.72 37.53 1275.64 38.51 1275.64 39.84C1275.64 41 1274.66 41.52 1274.66 43.6C1274.66 47.3 1277.67 49.68 1281.08 49.68C1284.67 49.68 1287.04 47.19 1287.04 44.18C1287.04 40.48 1284.67 38.91 1279.75 37.18C1274.25 35.21 1269.68 32.84 1269.68 26.3C1269.68 20.4 1274.42 15.77 1280.62 15.77V15.79Z" fill="url(#paint1_linear_6206_49071)"/>
<text fill="white" fill-opacity="0.9" style="white-space: pre" xml:space="preserve" font-family="Sage UI" font-size="24" font-weight="500" letter-spacing="0px"><tspan x="1316" y="43.3">Copilot</tspan></text>
<rect width="1440" height="53" transform="translate(0 67)" fill="white"/>
<rect width="65.3333" height="53.3333" transform="translate(0 66.833)" fill="white"/>
<text fill="black" style="white-space: pre" xml:space="preserve" font-family="Font Awesome 5 Pro" font-size="21.3333" font-weight="900" letter-spacing="0px"><tspan x="20" y="101.166">star</tspan></text>
<path d="M64.6667 67.4997V119.532" stroke="#595959" stroke-width="1.33333" stroke-linecap="square"/>
<rect width="65.3333" height="53.3333" transform="translate(65.3333 66.833)" fill="white"/>
<text fill="black" style="white-space: pre" xml:space="preserve" font-family="Font Awesome 5 Pro" font-size="21.3333" font-weight="900" letter-spacing="0px"><tspan x="85.3333" y="101.166">home</tspan></text>
<path d="M130 67.4997V119.532" stroke="#595959" stroke-width="1.33333" stroke-linecap="square"/>
<g clip-path="url(#clip2_6206_49071)">
<rect width="333.333" height="53.3333" transform="translate(130.667 66.833)" fill="white"/>
<text fill="#00141E" style="white-space: pre" xml:space="preserve" font-family="Helvetica-Neue" font-size="18.6667" letter-spacing="0px"><tspan x="157.333" y="100.322">CFO - Daily View</tspan></text>
<text fill="black" style="white-space: pre" xml:space="preserve" font-family="Font Awesome 5 Pro" font-size="18.6667" letter-spacing="0px"><tspan x="424.167" y="100.333">&#xf107;</tspan></text>
<path d="M463.333 67.4997V119.532" stroke="#595959" stroke-width="1.33333" stroke-linecap="square"/>
</g>
<rect x="24" y="770" width="684" height="443" rx="15.3458" fill="white"/>
<rect x="24" y="859" width="684" height="354" fill="#F2F5F6"/>
<rect x="47.9453" y="813.354" width="67.0833" height="6.70833" rx="3.35417" fill="#B3C2C9"/>
<rect x="123.973" y="813.354" width="55.9028" height="6.70833" rx="3.35417" fill="#CCD6DB"/>
<rect x="87.4255" y="894.425" width="581.149" height="282.149" fill="white" stroke="#E6EBED" stroke-width="0.850902"/>
<rect x="669" y="919" width="105" height="582" transform="rotate(90 669 919)" fill="#F2F5F6"/>
<rect x="55.4141" y="902.852" width="14.433" height="6.99221" rx="3.49611" fill="#CCD6DB"/>
<rect x="594" y="815.035" width="52" height="5" rx="2.5" fill="#CCD6DB"/>
<rect x="663.417" y="814.74" width="20.125" height="5.59028" rx="2.79514" fill="#CCD6DB"/>
<rect x="732" y="770" width="684" height="443" rx="15.3458" fill="white"/>
<rect x="732" y="859" width="684" height="354" fill="#F2F5F6"/>
<rect x="761.425" y="895.425" width="309.149" height="280.149" fill="white" stroke="#E6EBED" stroke-width="0.850902"/>
<rect x="773.324" y="910" width="198.104" height="7" rx="3.5" fill="#E6EBED"/>
<g clip-path="url(#clip3_6206_49071)">
<rect x="1104" y="895" width="283" height="1" fill="#CCD6DB"/>
<rect width="283" height="34" transform="translate(1104 896)" fill="#E6EBED"/>
<rect x="1386" y="896" width="1" height="34" fill="#CCD6DB"/>
</g>
<rect x="1122.22" y="910" width="76.8761" height="7" rx="3.5" fill="#B3C2C9"/>
<rect x="755.945" y="813.354" width="55.9028" height="6.70833" rx="3.35417" fill="#CCD6DB"/>
<rect x="1371.94" y="815.74" width="20.125" height="5.59028" rx="2.79514" fill="#CCD6DB"/>
<rect x="732" y="302" width="684" height="443" rx="15.3458" fill="white"/>
<rect x="732" y="391" width="684" height="354" fill="#F2F5F6"/>
<rect x="1391.95" y="350.437" width="55.9515" height="6.71418" rx="3.35709" transform="rotate(-180 1391.95 350.437)" fill="#CCD6DB"/>
<path d="M1197.83 568.647C1197.83 591.349 1191.61 613.616 1179.84 633.029C1168.07 652.442 1151.21 668.258 1131.08 678.757C1110.95 689.257 1088.33 694.038 1065.68 692.582C1043.02 691.125 1021.2 683.487 1002.58 670.497L1031.01 629.757C1042.18 637.551 1055.27 642.134 1068.86 643.008C1082.46 643.882 1096.03 641.013 1108.11 634.713C1120.18 628.413 1130.3 618.924 1137.36 607.276C1144.42 595.628 1148.16 582.268 1148.16 568.647H1197.83Z" fill="#00C1AE"/>
<path d="M981.332 485.564C998.166 466.862 1020.28 453.714 1044.76 447.862C1069.23 442.009 1094.9 443.729 1118.37 452.793C1141.85 461.856 1162.01 477.836 1176.2 498.617C1190.39 519.397 1197.93 543.998 1197.83 569.16L1148.15 568.954C1148.22 553.857 1143.69 539.097 1135.18 526.629C1126.66 514.161 1114.56 504.572 1100.48 499.134C1086.4 493.696 1070.99 492.664 1056.31 496.176C1041.63 499.687 1028.36 507.576 1018.26 518.797L981.332 485.564Z" fill="#C9D800"/>
<path d="M1002.79 670.639C984.902 658.211 970.596 641.296 961.31 621.593C952.023 601.889 948.083 580.089 949.884 558.381L999.39 562.488C998.309 575.513 1000.67 588.592 1006.25 600.415C1011.82 612.237 1020.4 622.386 1031.13 629.843L1002.79 670.639Z" fill="#EF6700"/>
<path d="M949.864 558.6C952.074 531.367 963.204 505.623 981.528 485.356L1018.38 518.672C1007.38 530.832 1000.7 546.279 999.378 562.619L949.864 558.6Z" fill="#FFB500"/>
<path d="M1148.2 488.757H1286.82" stroke="#99ADB7" stroke-width="1.00087"/>
<path d="M1134.18 659.906H1232.27" stroke="#99ADB7" stroke-width="1.00087"/>
<path d="M883.988 613.866H982.074" stroke="#99ADB7" stroke-width="1.00087"/>
<path d="M813.922 532.795L982.068 532.795" stroke="#99ADB7" stroke-width="1.00087"/>
<text fill="black" style="white-space: pre" xml:space="preserve" font-family="Helvetica Neue" font-size="12" letter-spacing="0px"><tspan x="1295.67" y="493.434">Texas</tspan></text>
<text fill="black" style="white-space: pre" xml:space="preserve" font-family="Helvetica Neue" font-size="12" letter-spacing="0px"><tspan x="1242.66" y="664.434">Maine</tspan></text>
<text fill="black" style="white-space: pre" xml:space="preserve" font-family="Helvetica Neue" font-size="12" letter-spacing="0px"><tspan x="755.576" y="537.434">California</tspan></text>
<text fill="black" style="white-space: pre" xml:space="preserve" font-family="Helvetica Neue" font-size="12" letter-spacing="0px"><tspan x="839.172" y="618.434">Florida</tspan></text>
<text fill="#1A1A1A" style="white-space: pre" xml:space="preserve" font-family="Helvetica-Neue" font-size="17.018" letter-spacing="0px"><tspan x="755" y="345.856">Net Income by Location</tspan></text>
<g clip-path="url(#clip4_6206_49071)">
<rect x="24" y="302" width="684" height="443" rx="15.3458" fill="white"/>
<rect x="24" y="391" width="694" height="354" fill="#F2F5F6"/>
<text fill="#1A1A1A" style="white-space: pre" xml:space="preserve" font-family="Helvetica-Neue" font-size="17.018" letter-spacing="0px"><tspan x="47" y="345.856">Revenue per Retail Hour by Location</tspan></text>
<text fill="#1A1A1A" style="white-space: pre" xml:space="preserve" font-family="Helvetica Neue" font-size="12" letter-spacing="0px"><tspan x="47" y="364.36">Date &#38; Time</tspan></text>
<rect x="134.426" y="412.426" width="545.148" height="283.148" fill="white" stroke="#E6EBED" stroke-width="0.8519"/>
<rect x="460" y="412" width="108" height="283" fill="#F2F5F6"/>
<rect x="248" y="412" width="107" height="283" fill="#F2F5F6"/>
<rect x="134" y="422" width="419" height="56" fill="#C9D800"/>
<rect x="134" y="492" width="483" height="56" fill="#00C1AE"/>
<rect x="134" y="561" width="369" height="57" fill="#FFB500"/>
<rect x="134" y="630" width="260" height="57" fill="#EF6700"/>
<text fill="black" style="white-space: pre" xml:space="preserve" font-family="Helvetica Neue" font-size="12" letter-spacing="0px"><tspan x="81.6719" y="453.434">Texas</tspan></text>
<text fill="black" style="white-space: pre" xml:space="preserve" font-family="Helvetica Neue" font-size="12" letter-spacing="0px"><tspan x="79.6641" y="525.434">Maine</tspan></text>
<text fill="black" style="white-space: pre" xml:space="preserve" font-family="Helvetica Neue" font-size="12" letter-spacing="0px"><tspan x="59.5762" y="595.434">California</tspan></text>
<text fill="black" style="white-space: pre" xml:space="preserve" font-family="Helvetica Neue" font-size="12" letter-spacing="0px"><tspan x="75.1719" y="664.434">Florida</tspan></text>
<text fill="black" style="white-space: pre" xml:space="preserve" font-family="Helvetica Neue" font-size="12" letter-spacing="0px"><tspan x="131.656" y="711.68">$0</tspan></text>
<text fill="black" style="white-space: pre" xml:space="preserve" font-family="Helvetica Neue" font-size="12" letter-spacing="0px"><tspan x="288.164" y="714.434">$500</tspan></text>
<text fill="black" style="white-space: pre" xml:space="preserve" font-family="Helvetica Neue" font-size="12" letter-spacing="0px"><tspan x="493.33" y="711.434">$1000</tspan></text>
<text fill="black" style="white-space: pre" xml:space="preserve" font-family="Helvetica Neue" font-size="12" letter-spacing="0px"><tspan x="643.16" y="711.434">$1,500</tspan></text>
<rect x="683.953" y="350.437" width="55.9515" height="6.71418" rx="3.35709" transform="rotate(-180 683.953 350.437)" fill="#CCD6DB"/>
</g>
<path d="M1440 900C1440 911.046 1431.05 920 1420 920H20C8.95431 920 0 911.046 0 900V67H130V120H464V67H1440V900Z" fill="#282828" fill-opacity="0.4"/>
<g id="kpi-card-1" clip-path="url(#clip5_6206_49071)">
<g clip-path="url(#clip6_6206_49071)">
<rect width="298.666" height="35.7379" transform="translate(87 144)" fill="white"/>
<rect width="298.666" height="97.8537" transform="translate(87 179.738)" fill="white"/>
</g>
<rect x="87.4255" y="144.425" width="297.816" height="132.741" rx="6.38176" stroke="#FAFBFB" stroke-width="0.850902"/>
<text fill="#1A1A1A" style="white-space: pre" xml:space="preserve" font-family="Helvetica-Neue" font-size="12" letter-spacing="0px"><tspan x="104.02" y="166.255">Assets</tspan></text>
<g clip-path="url(#clip7_6206_49071)">
<text fill="#737373" style="white-space: pre" xml:space="preserve" font-family="Helvetica Neue" font-size="12" letter-spacing="0px"><tspan x="104.02" y="246.222">this month</tspan></text>
</g>
<g clip-path="url(#clip8_6206_49071)">
<text fill="#0060A7" style="white-space: pre" xml:space="preserve" font-family="Helvetica Neue" font-size="11.9126" letter-spacing="0px"><tspan x="234.454" y="266.612">+$387,918 vs. prior month</tspan></text>
</g>
<text fill="black" style="white-space: pre" xml:space="preserve" font-family="Helvetica-Neue" font-size="40.4432" letter-spacing="0px"><tspan x="104.02" y="224.051">$17,791K</tspan></text>
<text transform="translate(312.488 179.589)" fill="#00821F" style="white-space: pre" xml:space="preserve" font-family="Font Awesome 5 Pro" font-size="57.7822" font-weight="900" letter-spacing="0px"><tspan x="0.220306" y="50.5594">arrow-up</tspan></text>
</g>
<g id="kpi-card-2" clip-path="url(#clip9_6206_49071)">
<g clip-path="url(#clip10_6206_49071)">
<rect width="298.666" height="35.7379" transform="translate(409.664 144)" fill="white"/>
<rect width="298.666" height="97.8537" transform="translate(409.664 179.738)" fill="white"/>
</g>
<rect x="410.09" y="144.425" width="297.816" height="132.741" rx="6.38176" stroke="#FAFBFB" stroke-width="0.850902"/>
<text fill="#1A1A1A" style="white-space: pre" xml:space="preserve" font-family="Helvetica-Neue" font-size="12" letter-spacing="0px"><tspan x="426.68" y="166.255">Revenue</tspan></text>
<text fill="#737373" style="white-space: pre" xml:space="preserve" font-family="Helvetica Neue" font-size="12" letter-spacing="0px"><tspan x="426.68" y="244.222">this month</tspan></text>
<text fill="black" style="white-space: pre" xml:space="preserve" font-family="Helvetica-Neue" font-size="40.4432" letter-spacing="0px"><tspan x="426.68" y="224.051">$503,118</tspan></text>
<text transform="translate(635.152 179.589)" fill="#00821F" style="white-space: pre" xml:space="preserve" font-family="Font Awesome 5 Pro" font-size="57.7822" font-weight="900" letter-spacing="0px"><tspan x="0.220306" y="50.5594">arrow-up</tspan></text>
<g clip-path="url(#clip11_6206_49071)">
<text fill="#0060A7" style="white-space: pre" xml:space="preserve" font-family="Helvetica Neue" font-size="11.9126" letter-spacing="0px"><tspan x="564.118" y="266.398">+$90,747 vs. prior month</tspan></text>
</g>
</g>
<g id="kpi-card-3" clip-path="url(#clip12_6206_49071)">
<g clip-path="url(#clip13_6206_49071)">
<rect width="298.666" height="35.7379" transform="translate(732.332 144)" fill="white"/>
<rect width="298.666" height="97.8537" transform="translate(732.332 179.738)" fill="white"/>
</g>
<rect x="732.757" y="144.425" width="297.816" height="132.741" rx="6.38176" stroke="#FAFBFB" stroke-width="0.850902"/>
<text fill="#1A1A1A" style="white-space: pre" xml:space="preserve" font-family="Helvetica-Neue" font-size="12" letter-spacing="0px"><tspan x="749.352" y="166.255">Net Income</tspan></text>
<text fill="#737373" style="white-space: pre" xml:space="preserve" font-family="Helvetica Neue" font-size="12" letter-spacing="0px"><tspan x="749.352" y="244.222">this month</tspan></text>
<text fill="black" style="white-space: pre" xml:space="preserve" font-family="Helvetica-Neue" font-size="40.4432" letter-spacing="0px"><tspan x="749.352" y="224.051">$277,475</tspan></text>
<text transform="translate(958.152 179.589)" fill="#00821F" style="white-space: pre" xml:space="preserve" font-family="Font Awesome 5 Pro" font-size="57.7822" font-weight="900" letter-spacing="0px"><tspan x="0.220306" y="50.5594">arrow-up</tspan></text>
<g clip-path="url(#clip14_6206_49071)">
<text fill="#0060A7" style="white-space: pre" xml:space="preserve" font-family="Helvetica Neue" font-size="11.9126" letter-spacing="0px"><tspan x="887.512" y="266.398">+$85,704 vs. prior month</tspan></text>
</g>
</g>
<g id="kpi-card-4" clip-path="url(#clip15_6206_49071)">
<g clip-path="url(#clip16_6206_49071)">
<rect width="298.666" height="35.7379" transform="translate(1055 144)" fill="white"/>
<rect width="298.666" height="97.8537" transform="translate(1055 179.738)" fill="white"/>
</g>
<rect x="1055.43" y="144.425" width="297.816" height="132.741" rx="6.38176" stroke="#FAFBFB" stroke-width="0.850902"/>
<text fill="#1A1A1A" style="white-space: pre" xml:space="preserve" font-family="Helvetica-Neue" font-size="12" letter-spacing="0px"><tspan x="1072.02" y="166.255">Expenses</tspan></text>
<text fill="#737373" style="white-space: pre" xml:space="preserve" font-family="Helvetica Neue" font-size="12" letter-spacing="0px"><tspan x="1072.02" y="244.222">this month</tspan></text>
<text fill="#0060A7" style="white-space: pre" xml:space="preserve" font-family="Helvetica Neue" font-size="11.9126" letter-spacing="0px"><tspan x="1215.45" y="266.398">+$5,043 vs. prior month</tspan></text>
<text fill="black" style="white-space: pre" xml:space="preserve" font-family="Helvetica-Neue" font-size="40.4432" letter-spacing="0px"><tspan x="1072.02" y="224.051">$225,643</tspan></text>
<text transform="translate(1280.82 179.589)" fill="#CB374A" style="white-space: pre" xml:space="preserve" font-family="Font Awesome 5 Pro" font-size="57.7822" font-weight="900" letter-spacing="0px"><tspan x="0.220306" y="50.5594">arrow-up</tspan></text>
</g>
</g>
<defs>
<radialGradient id="paint0_radial_6206_49071" cx="0" cy="0" r="1" gradientTransform="matrix(10.5 9.5 -7.88115 9.9214 1295.5 28)" gradientUnits="userSpaceOnUse">
<stop offset="0.341666" stop-color="#9D60FF"/>
<stop offset="0.72" stop-color="#00D6DE"/>
<stop offset="0.896666" stop-color="#00D639"/>
</radialGradient>
<linearGradient id="paint1_linear_6206_49071" x1="1282.5" y1="54" x2="1294.47" y2="25.5352" gradientUnits="userSpaceOnUse">
<stop stop-color="#00D639"/>
<stop offset="0.4" stop-color="#00D6DE"/>
<stop offset="0.9" stop-color="#9D60FF"/>
</linearGradient>
<clipPath id="clip0_6206_49071">
<rect width="1440" height="920" rx="20" fill="white"/>
</clipPath>
<clipPath id="clip1_6206_49071">
<rect width="1440" height="69.3333" fill="white"/>
</clipPath>
<clipPath id="clip2_6206_49071">
<rect width="333.333" height="53.3333" fill="white" transform="translate(130.667 66.833)"/>
</clipPath>
<clipPath id="clip3_6206_49071">
<rect width="283" height="281" fill="white" transform="translate(1104 895)"/>
</clipPath>
<clipPath id="clip4_6206_49071">
<rect x="24" y="302" width="684" height="443" rx="15.3458" fill="white"/>
</clipPath>
<clipPath id="clip5_6206_49071">
<rect x="87" y="144" width="298.666" height="133.592" rx="10" fill="white"/>
</clipPath>
<clipPath id="clip6_6206_49071">
<rect x="87" y="144" width="298.666" height="133.592" rx="6.80721" fill="white"/>
</clipPath>
<clipPath id="clip7_6206_49071">
<rect width="170.18" height="18" fill="white" transform="translate(104.02 232.854)"/>
</clipPath>
<clipPath id="clip8_6206_49071">
<rect width="170.18" height="18" fill="white" transform="translate(205.273 253.275)"/>
</clipPath>
<clipPath id="clip9_6206_49071">
<rect x="409.664" y="144" width="298.666" height="133.592" rx="10" fill="white"/>
</clipPath>
<clipPath id="clip10_6206_49071">
<rect x="409.664" y="144" width="298.666" height="133.592" rx="6.80721" fill="white"/>
</clipPath>
<clipPath id="clip11_6206_49071">
<rect width="170.18" height="18" fill="white" transform="translate(527.938 253.062)"/>
</clipPath>
<clipPath id="clip12_6206_49071">
<rect x="732.332" y="144" width="298.666" height="133.592" rx="10" fill="white"/>
</clipPath>
<clipPath id="clip13_6206_49071">
<rect x="732.332" y="144" width="298.666" height="133.592" rx="6.80721" fill="white"/>
</clipPath>
<clipPath id="clip14_6206_49071">
<rect width="170.18" height="18" fill="white" transform="translate(851.332 253.062)"/>
</clipPath>
<clipPath id="clip15_6206_49071">
<rect x="1055" y="144" width="298.666" height="133.592" rx="10" fill="white"/>
</clipPath>
<clipPath id="clip16_6206_49071">
<rect x="1055" y="144" width="298.666" height="133.592" rx="6.80721" fill="white"/>
</clipPath>
</defs>
</svg>
