<?xml version="1.0" encoding="UTF-8"?> <svg xmlns="http://www.w3.org/2000/svg" width="295" height="76" viewBox="0 0 295 76" fill="none"><g clip-path="url(#clip0_16710_12797)"><path d="M30.4629 67.9897H41.6569L29.7936 21.9248H18.5996L30.4629 67.9897Z" fill="#00B8D1"></path><path d="M61.1733 67.9897H72.3781L60.5148 21.9248H49.3208L61.1733 67.9897Z" fill="#00B8D1"></path><path d="M31.4772 8.02162C31.4772 12.4541 27.8934 16.0432 23.4676 16.0432C19.0418 16.0432 15.458 12.4541 15.458 8.02162C15.458 3.58919 19.0526 0 23.4784 0C27.9042 0 31.488 3.58919 31.488 8.02162H31.4772Z" fill="#00B8D1"></path><path d="M62.1989 8.02162C62.1989 12.4541 58.6151 16.0432 54.1893 16.0432C49.7635 16.0432 46.1797 12.4541 46.1797 8.02162C46.1797 3.58919 49.7635 0 54.1893 0C58.6151 0 62.1989 3.58919 62.1989 8.02162Z" fill="#00B8D1"></path><path d="M94.8201 8.01086H83.6152L95.4785 54.0865H106.683L94.8201 8.01086Z" fill="#C4D82E"></path><path d="M124.516 67.9788C124.516 63.5572 128.1 59.9572 132.526 59.9572C136.952 59.9572 140.535 63.5572 140.535 67.9788C140.535 72.4004 136.952 76.0004 132.526 76.0004C128.1 76.0004 124.516 72.4112 124.516 67.9788Z" fill="#C4D82E"></path><path d="M93.7944 67.9788C93.7944 63.5572 97.3782 59.9572 101.804 59.9572C106.23 59.9572 109.814 63.5572 109.814 67.9788C109.814 72.4004 106.23 76.0004 101.804 76.0004C97.3782 76.0004 93.7944 72.4112 93.7944 67.9788Z" fill="#C4D82E"></path><path d="M125.542 8.01086H114.337L126.2 54.0865H137.394L125.542 8.01086Z" fill="#C4D82E"></path><path d="M177.755 71.3842H172.865L172.153 73.1788H168.871L173.772 62.2274H176.891L181.781 73.1788H178.468L177.744 71.3842H177.755ZM175.326 65.3085L173.923 68.7896H176.719L175.326 65.3085Z" fill="#00B6C3"></path><path d="M193.828 66.6598L191.032 69.9787H190.482L187.751 66.6814V73.1895H184.696V62.2382H187.923L190.795 65.9463L193.666 62.2382H196.883V73.1895H193.817V66.6706L193.828 66.6598Z" fill="#00B6C3"></path><path d="M224.474 73.1895H221.074L218.526 69.6436H217.447V73.1895H214.349V62.2382H219.692C222.488 62.2382 223.945 64.0328 223.945 66.0111C223.945 67.3517 223.47 68.4976 221.635 69.3084L224.474 72.9949V73.1787V73.1895ZM217.447 64.7138V67.3409H219.724C220.534 67.3409 220.901 66.7246 220.901 66.0652C220.901 65.4057 220.512 64.703 219.703 64.703H217.447V64.7138Z" fill="#00B6C3"></path><path d="M228.09 73.1895V62.2382H231.178V73.1895H228.09Z" fill="#00B6C3"></path><path d="M245.426 71.7621C244.196 72.9837 242.695 73.4702 241.033 73.4702C236.737 73.4702 235.064 70.7675 235.053 67.7945C235.053 64.9729 236.931 61.9891 241.033 61.9891C242.609 61.9891 244.034 62.5405 245.264 63.7405L243.365 65.6216C242.587 64.8648 241.767 64.6702 241.033 64.6702C238.917 64.6702 238.097 66.3891 238.108 67.8162C238.129 69.2432 238.874 70.854 241.033 70.854C241.767 70.854 242.825 70.5405 243.602 69.7405L245.416 71.7729L245.426 71.7621Z" fill="#00B6C3"></path><path d="M256.577 71.3842H251.687L250.975 73.1788H247.693L252.594 62.2274H255.725L260.615 73.1788H257.301L256.588 71.3842H256.577ZM254.138 65.3085L252.734 68.7896H255.53L254.138 65.3085Z" fill="#00B6C3"></path><path d="M210.171 73.1895H201.428V62.2382H209.955V64.8328H204.472V66.4003H208.444V68.9192H204.472V70.5841H210.171V73.2003V73.1895Z" fill="#00B6C3"></path><path d="M174.355 54.2486C168.493 54.2486 163.722 49.4702 163.722 43.5999C163.722 37.7297 168.493 32.9513 174.355 32.9513C180.216 32.9513 184.988 37.7297 184.988 43.5999C184.988 49.4702 180.216 54.2486 174.355 54.2486Z" fill="#00B6C3"></path><path d="M205.746 50.9949H202.388L199.809 44.0111L197.315 50.9949H193.99L188.561 36.4219H193.062L194.929 41.5463C195.286 42.649 195.491 43.8382 195.696 44.9192L198.384 36.4111H201.233L204.008 44.9192C204.213 43.8165 204.483 42.649 204.817 41.4382L206.566 36.4111H211.057L205.756 50.9841L205.746 50.9949Z" fill="#003952"></path><path d="M223.816 50.9841V45.4706H218.581V50.9841H214.468V36.4111H218.581V41.9463H223.816V36.4111H227.886V50.9841H223.816Z" fill="#003952"></path><path d="M245.189 50.9841H233.553V36.4111H244.898V39.8706H237.601V41.9571H242.89V45.3084H237.601V47.5138H245.189V50.9841Z" fill="#003952"></path><path d="M262.267 50.9841H250.63V36.4111H261.975V39.8706H254.678V41.9571H259.967V45.3084H254.678V47.5138H262.267V50.9841Z" fill="#003952"></path><path d="M271.831 36.4219V47.4922H278.793V50.9841H267.718V36.4111H271.831V36.4219Z" fill="#003952"></path><path d="M291.639 40.4543C290.646 39.6976 289.501 39.4489 288.228 39.4489C287.234 39.4489 286.252 39.7625 286.252 40.53C286.252 41.5246 287.234 41.676 288.659 41.8165C291.552 42.13 294.564 43.2976 294.564 46.6381C294.564 49.9787 291.444 51.3624 288.184 51.3841C285.561 51.4057 283.705 50.9408 281.686 48.8219L283.953 46.2165C285.389 47.6111 286.986 47.8597 288.217 47.8597C289.566 47.8597 290.505 47.3841 290.505 46.5733C290.505 45.8489 289.674 45.3841 288.076 45.2435C284.892 44.9516 282.15 44.1408 282.15 40.5192C282.15 37.4381 285.162 36.1084 288.238 36.1084C290.419 36.1084 292.124 36.6057 293.679 37.8381L291.639 40.4435V40.4543Z" fill="#003952"></path><path d="M182.354 16.4865L178.63 20.8973H177.907L174.269 16.5081V25.1676H170.188V10.5946H174.496L178.317 15.5243L182.138 10.5946H186.413V25.1676H182.343V16.4865H182.354Z" fill="#003952"></path><path d="M203.717 25.1676H192.08V10.5946H203.425V14.0541H196.128V16.1406H201.417V19.4919H196.128V21.6973H203.717V25.1784V25.1676Z" fill="#003952"></path><path d="M218.786 22.7783H212.277L211.327 25.1783H206.955L213.486 10.6053H217.631L224.14 25.1783H219.736L218.786 22.7783ZM215.548 14.681L213.68 19.3189H217.404L215.558 14.681H215.548Z" fill="#003952"></path><path d="M232.128 10.5946V21.6649H239.09V25.1676H228.015V10.5946H232.128Z" fill="#003952"></path><path d="M251.947 14.6378C250.954 13.881 249.81 13.6324 248.536 13.6324C247.543 13.6324 246.56 13.9459 246.56 14.7135C246.56 15.7189 247.543 15.8594 248.968 16.0108C251.86 16.3243 254.872 17.4919 254.872 20.8432C254.872 24.1946 251.753 25.5675 248.493 25.5892C245.869 25.6108 244.002 25.1567 241.983 23.027L244.25 20.4216C245.686 21.8162 247.284 22.0648 248.514 22.0648C249.863 22.0648 250.803 21.5892 250.803 20.7783C250.803 20.054 249.971 19.5892 248.374 19.4486C245.2 19.1567 242.448 18.3459 242.448 14.7243C242.448 11.6432 245.459 10.3135 248.536 10.3135C250.716 10.3135 252.422 10.8108 253.976 12.0432L251.947 14.6486V14.6378Z" fill="#003952"></path><path d="M173.686 43.6762C173.686 45.9789 171.862 46.9734 170.091 46.9734C168.321 46.9734 166.497 45.9789 166.497 43.6762C166.497 41.3734 168.267 40.368 170.091 40.368C171.915 40.368 173.686 41.3843 173.686 43.6762ZM171.397 43.6762C171.397 42.9518 170.922 42.2924 170.091 42.2924C169.26 42.2924 168.785 42.941 168.785 43.6762C168.785 44.4113 169.249 45.0383 170.091 45.0383C170.933 45.0383 171.397 44.4437 171.397 43.6762Z" fill="#003952"></path><path d="M179.655 46.8216V43.3297C179.655 42.5514 179.213 42.2811 178.77 42.2811C178.209 42.2811 177.68 42.6703 177.68 43.4919V46.8108H175.359V40.4973H177.431L177.539 41.1892C178.079 40.5622 178.867 40.3351 179.526 40.3459C180.853 40.3568 181.987 41.0595 181.987 43.3081V46.8108H179.634L179.655 46.8216Z" fill="#003952"></path><path d="M94.7554 8.10815H83.5938L95.4139 54.0325H106.586L94.7554 8.10815Z" fill="#AAD038"></path><path d="M124.354 67.8815C124.354 63.4707 127.928 59.8923 132.343 59.8923C136.758 59.8923 140.32 63.4707 140.32 67.8815C140.32 72.2923 136.747 75.8707 132.343 75.8707C127.938 75.8707 124.354 72.2923 124.354 67.8815Z" fill="#AAD038"></path><path d="M93.7407 67.8815C93.7407 63.4707 97.3138 59.8923 101.718 59.8923C106.122 59.8923 109.695 63.4707 109.695 67.8815C109.695 72.2923 106.122 75.8815 101.718 75.8815C97.3138 75.8815 93.7407 72.3031 93.7407 67.8815Z" fill="#AAD038"></path><path d="M125.38 8.10815H114.218L126.038 54.0325H137.2L125.38 8.10815Z" fill="#AAD038"></path><path d="M30.6136 67.8919H41.7752L29.9551 21.9784H18.7935L30.6136 67.8919Z" fill="#00B6C3"></path><path d="M61.2273 67.8919H72.3998L60.5797 21.9784H49.4072L61.2273 67.8919Z" fill="#00B6C3"></path><path d="M31.6391 8.11895C31.6391 12.5298 28.0661 16.1189 23.6511 16.1189C19.2361 16.1189 15.6738 12.5406 15.6738 8.11895C15.6738 3.69733 19.2469 0.129761 23.6511 0.129761C28.0553 0.129761 31.6391 3.70814 31.6391 8.11895Z" fill="#00B6C3"></path><path d="M62.2528 8.11895C62.2528 12.5298 58.6798 16.1189 54.2756 16.1189C49.8714 16.1189 46.2983 12.5406 46.2983 8.11895C46.2983 3.69733 49.8606 0.129761 54.2756 0.129761C58.6906 0.129761 62.2528 3.70814 62.2528 8.11895Z" fill="#00B6C3"></path><path d="M12.8888 67.8918C16.3215 67.8918 18.6423 65.9243 19.4951 62.627L29.9659 21.9675H17.0771C13.6444 21.9675 11.3236 23.9351 10.4708 27.2216L0 67.8918H12.8888Z" fill="#003952"></path><path d="M94.7659 8.1081H81.8771C78.4444 8.1081 76.1236 10.0757 75.2708 13.3622L61.2378 67.8811H74.1266C77.5593 67.8811 79.8801 65.9135 80.7329 62.6162L94.7659 8.09729V8.1081Z" fill="#003952"></path><path d="M43.5026 67.8918C46.9353 67.8918 49.2561 65.9243 50.1089 62.627L60.5797 21.9675H47.6909C44.2582 21.9675 41.9373 23.9351 41.0846 27.2216L30.6138 67.881H43.5026V67.8918Z" fill="#003952"></path><path d="M143.104 8.10815C139.672 8.10815 137.351 10.0757 136.498 13.3622L126.027 54.0217H138.916C142.349 54.0217 144.67 52.0541 145.522 48.7676L155.993 8.10815H143.104Z" fill="#003952"></path><path d="M112.491 8.10815C109.058 8.10815 106.737 10.0757 105.884 13.3622L95.4136 54.0217H108.302C111.735 54.0217 114.056 52.0541 114.909 48.7676L125.379 8.10815H112.491Z" fill="#003952"></path><path d="M151.157 47.5243C152.582 47.5243 153.812 48.6378 153.812 50.1513C153.812 51.6648 152.593 52.7892 151.157 52.7892C149.721 52.7892 148.491 51.6756 148.491 50.1513C148.491 48.627 149.711 47.5243 151.157 47.5243ZM151.157 47.9459C149.937 47.9459 148.998 48.8865 148.998 50.1405C148.998 51.3946 149.937 52.3567 151.157 52.3567C152.377 52.3567 153.305 51.427 153.305 50.1405C153.305 48.854 152.366 47.9459 151.157 47.9459ZM150.596 51.6648H150.132V48.627H151.287C152.01 48.627 152.366 48.8973 152.366 49.4919C152.366 50.0324 152.031 50.2702 151.578 50.3243L152.442 51.654H151.934L151.125 50.3351H150.606V51.654L150.596 51.6648ZM150.596 49.9675H151.146C151.708 49.9675 151.891 49.8054 151.891 49.4702C151.891 49.1783 151.751 49.0162 151.222 49.0162H150.596V49.9675Z" fill="#003A5D"></path></g><defs><clipPath id="clip0_16710_12797"><rect width="294.575" height="76" fill="white"></rect></clipPath></defs></svg> 