<svg width="163" height="46" viewBox="0 0 163 46" fill="none" xmlns="http://www.w3.org/2000/svg">
<path d="M161.009 22.3613C160.615 22.3613 160.265 22.2749 159.962 22.0998C159.659 21.9269 159.42 21.6853 159.252 21.3772C159.081 21.0691 158.997 20.7211 158.997 20.3331C158.997 19.9452 159.081 19.5884 159.252 19.2847C159.422 18.981 159.659 18.7394 159.962 18.5621C160.265 18.3847 160.615 18.2961 161.009 18.2961C161.403 18.2961 161.739 18.3847 162.04 18.5621C162.341 18.7394 162.575 18.981 162.746 19.2847C162.916 19.5884 163 19.9386 163 20.3331C163 20.7277 162.916 21.0691 162.746 21.3772C162.575 21.6853 162.341 21.9247 162.04 22.0998C161.739 22.2727 161.396 22.3613 161.009 22.3613ZM161.009 22C161.336 22 161.617 21.9291 161.854 21.785C162.091 21.6409 162.277 21.4437 162.41 21.1932C162.542 20.9427 162.611 20.6568 162.611 20.3354C162.611 20.0139 162.545 19.7191 162.41 19.4731C162.277 19.2248 162.091 19.0298 161.854 18.8857C161.617 18.7416 161.334 18.6707 161.009 18.6707C160.683 18.6707 160.396 18.7416 160.152 18.8857C159.909 19.0298 159.721 19.2248 159.586 19.4731C159.453 19.7214 159.384 20.0073 159.384 20.3354C159.384 20.6634 159.451 20.9427 159.586 21.1932C159.719 21.4437 159.907 21.6409 160.152 21.785C160.396 21.9291 160.681 22 161.009 22ZM160.208 21.3971V19.2403H161.159C161.387 19.2403 161.564 19.3002 161.695 19.4155C161.825 19.5329 161.889 19.6948 161.889 19.9031C161.889 20.1115 161.825 20.2622 161.695 20.3797C161.564 20.4972 161.385 20.5548 161.159 20.5548H160.679V21.3971H160.208ZM160.677 20.1735H161.117C161.203 20.1735 161.276 20.1536 161.332 20.1137C161.387 20.0738 161.416 20.0073 161.416 19.9142C161.416 19.8211 161.387 19.7546 161.332 19.7191C161.274 19.6837 161.203 19.6637 161.117 19.6637H160.677V20.1758V20.1735ZM161.409 21.3971L160.787 20.4041H161.299L161.969 21.3971H161.409Z" fill="white"/>
<path d="M11.9745 30.2968C6.79831 30.9839 0 32.7816 0 37.9375C0 43.8027 11.9745 45.3055 11.9745 45.3055V30.2968Z" fill="white"/>
<path d="M11.9746 0C11.9746 0 35.1955 3.1343 35.1955 15.1307C35.1955 27.127 17.1508 29.603 11.9746 30.2946V0Z" fill="white"/>
<path d="M43.3057 37.7864H48.3269V29.319H52.5693C57.2342 29.319 60.2218 26.5327 60.2218 22.2413C60.2218 17.9499 57.2342 15.1481 52.5693 15.1481H43.3057V37.7864ZM48.3269 24.9566V19.517H52.0935C54.0254 19.517 55.1806 20.55 55.1806 22.2435C55.1806 23.937 54.0542 24.9699 52.12 24.9699L48.3269 24.9589V24.9566Z" fill="white"/>
<path d="M72.0752 37.787H76.8066V30.6495C76.8066 27.2825 77.9618 25.4382 80.2234 25.4382C80.6063 25.4272 80.9891 25.4937 81.3454 25.6444C81.7017 25.7885 82.0226 26.0123 82.2837 26.2983C82.5493 26.5776 82.7507 26.9123 82.879 27.2802C83.0074 27.6438 83.0516 28.0339 83.0184 28.4196V37.7981H87.7122V27.2758C87.741 25.8239 87.2342 24.4097 86.2915 23.3036C85.3531 22.1975 84.0364 21.4771 82.6046 21.2821C81.5114 21.1136 80.3894 21.2488 79.367 21.6788C78.3446 22.1044 77.4572 22.8071 76.8066 23.7071V21.5015H72.0752V37.7892H72.0818L72.0752 37.787Z" fill="white"/>
<path d="M98.3192 38.055C99.1358 38.0949 99.9458 37.9486 100.696 37.6183C101.446 37.2947 102.106 36.7982 102.635 36.1709V37.7846H107.35V14.8736H102.635V23.0219C102.086 22.4079 101.406 21.9225 100.647 21.6033C99.886 21.2841 99.065 21.14 98.2418 21.1777C93.548 21.1777 90.7109 24.4849 90.7109 29.5942C90.7109 34.7035 93.548 38.0506 98.3192 38.0506V38.055ZM99.0982 34.0053C96.8387 34.0053 95.3317 32.263 95.3317 29.654C95.3317 27.0451 96.8763 25.2851 99.0982 25.2851C101.32 25.2851 102.865 27.0273 102.865 29.654C102.865 32.2807 101.397 34.0053 99.0871 34.0053H99.0982Z" fill="white"/>
<path d="M122.357 26.0522L122.647 21.4948C122.087 21.3153 121.503 21.2266 120.914 21.2332C119.914 21.2621 118.947 21.5635 118.108 22.1044C117.269 22.6452 116.596 23.4122 116.158 24.3166V21.5015H111.427V37.7936H116.158V31.9129C116.158 27.2824 118.181 25.6022 120.301 25.6022C121.011 25.6133 121.711 25.764 122.355 26.0544L122.357 26.0522Z" fill="white"/>
<path d="M132.171 38.0549C133.82 38.0217 135.42 37.4964 136.774 36.5521C138.128 35.6078 139.173 34.2778 139.779 32.7373C140.386 31.1967 140.525 29.5099 140.186 27.8895C139.841 26.2692 139.031 24.784 137.854 23.627C136.677 22.4654 135.183 21.683 133.565 21.3749C131.943 21.0668 130.27 21.2463 128.756 21.8891C127.234 22.5319 125.941 23.6159 125.03 24.9946C124.12 26.3733 123.635 28.0003 123.635 29.6539C123.613 30.7822 123.819 31.8994 124.242 32.9434C124.664 33.9874 125.297 34.9317 126.098 35.7186C126.897 36.5055 127.853 37.1195 128.898 37.523C129.936 37.9197 131.058 38.1037 132.175 38.0527L132.171 38.0549ZM132.171 34.0052C129.861 34.0052 128.316 32.2407 128.316 29.6539C128.316 27.0672 129.861 25.2872 132.171 25.2872C134.481 25.2872 135.937 27.0516 135.937 29.6539C135.937 32.2563 134.455 34.0052 132.171 34.0052Z" fill="white"/>
<path d="M143.296 43.6784H148V36.5231C148.549 37.0485 149.2 37.4608 149.91 37.7245C150.621 37.9861 151.382 38.0992 152.136 38.0548C156.768 38.0548 159.957 34.7476 159.957 29.6383C159.957 24.529 157.036 21.2329 152.53 21.2329C151.687 21.1819 150.835 21.3215 150.054 21.6518C149.271 21.9755 148.571 22.4786 148.005 23.1148V21.5011H143.273L143.296 43.6806V43.6784ZM151.55 34.0051C149.277 34.0051 147.724 32.2628 147.724 29.6361C147.724 27.0094 149.28 25.2671 151.55 25.2671C153.821 25.2671 155.317 27.0205 155.317 29.6361C155.317 32.2517 153.834 34.0051 151.55 34.0051Z" fill="white"/>
<path d="M62.6172 16.5712C62.6172 15.024 63.8011 13.7738 65.3989 13.7738C66.9967 13.7738 68.2824 15.0306 68.2824 16.5712C68.2824 18.1117 67.0321 19.404 65.3989 19.404C63.7657 19.404 62.6172 18.1538 62.6172 16.5712ZM63.0686 21.4987H67.7735V37.7909H63.0686V21.4987Z" fill="white"/>
</svg>
