<svg width="40" height="40" viewBox="0 0 40 40" fill="none" xmlns="http://www.w3.org/2000/svg">
<g clip-path="url(#clip0_1116_30919)">
<path d="M34.6667 40C31.7333 40 29.3333 37.6 29.3333 34.6667V28.5333C29.2667 25.9333 28 23.4667 25.8667 21.9333C25.2667 21.4667 25.1333 20.6667 25.6 20.0667C26.0667 19.4667 26.8667 19.3333 27.4667 19.8C30.0667 21.6667 31.7333 24.6667 32 27.8667C32 27.9333 32 28 32 28.1333V34.6667C32 36.1333 33.2 37.3333 34.6667 37.3333C36.1333 37.3333 37.3333 36.1333 37.3333 34.6667V5.33333C37.3333 3.86667 36.1333 2.66667 34.6667 2.66667H5.33333C3.86667 2.66667 2.66667 3.86667 2.66667 5.33333V34.6667C2.66667 36.1333 3.86667 37.3333 5.33333 37.3333H26.6667C27.4 37.3333 28 37.9333 28 38.6667C28 39.4 27.4 40 26.6667 40H5.33333C2.4 40 0 37.6 0 34.6667V5.33333C0 2.4 2.4 0 5.33333 0H34.6667C37.6 0 40 2.4 40 5.33333V34.6667C40 37.6 37.6 40 34.6667 40ZM9.33333 34.8C9 34.8 8.66667 34.6667 8.4 34.4C8.13333 34.1333 8 33.8 8 33.4667V28.1333C8 28.0667 8 28 8 27.8667C8.66667 21.8 13.8 17.2 19.9333 17.3333C20.4 17.2667 20.8 17.1333 21.2667 16.9333C21.8667 16.6667 22.4 16.2667 22.8667 15.8C24.2 14.2667 24.4667 12.0667 23.4667 10.3333C23.1333 9.73333 22.6667 9.26667 22.1333 8.86667C21.0667 8.06667 19.7333 7.8 18.4 8.06667C17.7333 8.2 17.1333 8.46667 16.6 8.86667C14.9333 10.0667 14.2667 12.2 14.8667 14.1333C15.0667 14.8667 14.7333 15.6 14 15.8C13.3333 16 12.5333 15.6667 12.3333 14.9333C11.3333 11.9333 12.4 8.6 15 6.73333C17.6 4.86667 21.0667 4.86667 23.6667 6.73333C26.2667 8.6 27.3333 11.9333 26.3333 14.9333C25.3333 17.9333 22.5333 20 19.3333 20C14.6667 20.2 10.9333 23.8667 10.6667 28.5333V33.4C10.6667 33.7333 10.5333 34.0667 10.2667 34.3333C10 34.6 9.66667 34.8 9.33333 34.8ZM20 34.6667C19.6667 34.6667 19.3333 34.5333 19.0667 34.2667L16.4 31.6C16 31.2 15.8667 30.6 16.1333 30.0667L18.4 25.6L16.8667 24.1333C16.3333 23.6 16.3333 22.8 16.8667 22.2667C17.4 21.7333 18.2 21.7333 18.7333 22.2667L20 23.5333L21.7333 21.8C22.2667 21.2667 23.0667 21.2667 23.6 21.8C24.1333 22.3333 24.1333 23.1333 23.6 23.6667L21.6 25.6667L23.8667 30.1333C24.1333 30.6667 24 31.2667 23.6 31.6667L20.9333 34.3333C20.6667 34.5333 20.3333 34.6667 20 34.6667ZM18.9333 30.4L20 31.4667L21.0667 30.4L20 28.3333L18.9333 30.4Z" fill="#F0F0F0"/>
</g>
<defs>
<clipPath id="clip0_1116_30919">
<rect width="40" height="40" fill="white"/>
</clipPath>
</defs>
</svg>
