<svg width="1440" height="920" viewBox="0 0 1440 920" fill="none" xmlns="http://www.w3.org/2000/svg">
<g clip-path="url(#clip0_6206_42147)">
<rect width="1440" height="920" rx="20" fill="white"/>
<rect width="1440" height="800" transform="translate(0 120)" fill="#F2F5F6"/>
<rect width="1440" height="800" transform="translate(0 120)" fill="#D9E0E4"/>
<g clip-path="url(#clip1_6206_42147)">
<rect width="1440" height="69.3333" fill="black"/>
</g>
<line y1="68.6668" x2="1440" y2="68.6668" stroke="#D9E0E4" stroke-width="1.33333"/>
<path fill-rule="evenodd" clip-rule="evenodd" d="M38.407 21.8499C38.3184 17.282 34.3793 14 29.5459 14C24.7076 14 21 17.5486 21 22.0721C21 27.0835 24.5726 28.9027 28.8683 30.4138C32.7118 31.7452 34.5655 32.9422 34.5655 35.7808C34.5655 38.0869 32.7118 39.9941 29.9084 39.9941C27.24 39.9941 24.8888 38.1758 24.8888 35.3373C24.8888 34.4213 25.141 33.9003 25.3564 33.4554C25.5169 33.1236 25.6571 32.834 25.6571 32.4543C25.6571 31.4301 24.9341 30.6766 23.758 30.6766C22.4017 30.6766 21 32.6726 21 35.5111C21 40.079 25.0278 43.4499 29.9084 43.4479C34.8817 43.4479 38.4544 39.8548 38.4544 35.3758C38.4544 30.2311 34.7015 28.5007 30.5861 27.037C26.7396 25.6642 24.8888 24.4691 24.8868 21.762C24.8868 19.278 26.8806 17.4598 29.4986 17.4598C32.3029 17.4598 34.5182 19.3709 34.5635 21.9388C34.6088 23.1368 35.4678 23.8459 36.4626 23.8459C37.5008 23.8459 38.4524 23.1338 38.407 21.8499ZM40.3262 34.7121C40.3262 39.5911 44.3963 43.4499 49.28 43.4499C51.45 43.4499 53.1235 42.7397 53.1235 41.3649C53.1235 40.3447 52.2193 39.6355 51.3603 39.6355C51.0827 39.6355 50.8399 39.6866 50.5672 39.7439C50.2177 39.8174 49.8189 39.9012 49.2347 39.9012C46.4303 39.9012 44.2151 37.5062 44.2151 34.7121C44.2151 31.6968 46.4767 29.3462 49.3253 29.3462C52.5354 29.3462 54.5705 31.7412 54.5705 35.2444V41.5872C54.5705 42.6953 55.4747 43.4499 56.5602 43.4499C57.5984 43.4499 58.5046 42.6953 58.5046 41.5872V35.1111C58.5046 29.7896 54.7527 25.8864 49.4159 25.8864C44.4416 25.8864 40.3262 29.6563 40.3262 34.7121ZM69.6465 56.6667C64.5815 56.6667 60.3765 53.118 60.3765 48.5057C60.3765 46.9531 61.2828 46.2439 62.321 46.2439C63.3591 46.2439 64.22 46.9096 64.2654 48.1955C64.3107 51.0785 66.6619 53.2069 69.6022 53.2069C72.7237 53.2069 74.7567 51.2553 74.7567 48.7279C74.7567 45.8449 72.4961 44.6469 68.6526 43.4499C64.1757 42.0306 60.3776 40.079 60.3776 34.6676C60.3776 29.7007 64.2664 25.8864 69.3313 25.8864C74.4405 25.8864 78.6455 29.5229 78.6455 34.3131C78.6455 37.2405 77.4251 39.5022 75.7516 39.5022C74.6218 39.5022 73.8525 38.7042 73.8525 37.7244C73.8525 37.2875 74.0187 36.9564 74.2088 36.5777C74.4625 36.0722 74.7587 35.482 74.7587 34.4425C74.7587 31.3807 72.3179 29.3422 69.3786 29.3422C66.529 29.3422 64.2684 31.4706 64.2684 34.2647C64.2684 37.4143 66.5743 38.7447 70.3735 39.9862C74.7587 41.4054 78.6475 43.1793 78.6475 48.3684C78.6475 53.0262 74.8947 56.6647 69.6495 56.6647L69.6465 56.6667ZM80.5175 34.6677C80.5175 39.5467 84.6772 43.4499 89.7421 43.4499H89.7451C92.2776 43.4499 94.3126 42.7842 95.669 41.9418C97.0253 41.0993 97.5681 40.3892 97.5681 39.5911C97.5681 38.7487 96.9317 37.9941 95.7556 37.9941C95.2093 37.9941 94.7043 38.2973 94.088 38.6673C93.1228 39.2468 91.8847 39.9902 89.7874 39.9902C89.0767 39.991 88.3729 39.8535 87.7167 39.5858C87.0605 39.3181 86.4649 38.9253 85.9645 38.4303C85.464 37.9354 85.0686 37.3479 84.8012 36.7021C84.5337 36.0562 84.3995 35.3648 84.4063 34.6677C84.4063 31.7413 86.7575 29.3018 89.6515 29.3018C92.772 29.3018 94.4445 31.2998 94.4445 32.5837C94.4445 32.9383 94.1736 33.1161 93.8111 33.1161H89.9223C88.8791 33.1161 88.1098 33.8232 88.1098 34.7121C88.1098 35.6435 88.8832 36.3536 89.9223 36.3536H95.1232C97.1129 36.3536 98.3333 35.3334 98.3333 33.6484C98.3333 29.3018 94.5351 25.8865 89.5155 25.8865C88.3361 25.8809 87.1672 26.1038 86.0759 26.5426C84.9846 26.9814 83.9923 27.6273 83.1563 28.4432C82.3202 29.2592 81.6567 30.2291 81.2038 31.2973C80.751 32.3654 80.5177 33.5108 80.5175 34.6677Z" fill="#00D639"/>
<line x1="120.331" y1="14" x2="120.331" y2="56.6667" stroke="#5E5E5E" stroke-width="1.33333"/>
<text fill="white" fill-opacity="0.9" style="white-space: pre" xml:space="preserve" font-family="Sage UI" font-size="24" font-weight="500" letter-spacing="0px"><tspan x="139" y="42.8">Intacct</tspan></text>
<path d="M1305.38 34.1L1303.27 34.75C1302.52 34.98 1301.94 35.57 1301.71 36.31L1301.06 38.42C1300.68 39.67 1298.91 39.67 1298.53 38.42L1297.88 36.31C1297.65 35.56 1297.06 34.98 1296.32 34.75L1294.21 34.1C1292.96 33.72 1292.96 31.95 1294.21 31.57L1296.32 30.92C1297.07 30.69 1297.65 30.1 1297.88 29.36L1298.53 27.25C1298.91 26 1300.68 26 1301.06 27.25L1301.71 29.36C1301.94 30.11 1302.53 30.69 1303.27 30.92L1305.38 31.57C1306.63 31.95 1306.63 33.72 1305.38 34.1Z" fill="url(#paint0_radial_6206_42147)"/>
<path d="M1280.62 15.79C1286.81 15.79 1291.85 20.07 1291.96 26.03C1292.02 27.71 1290.8 28.63 1289.47 28.63C1288.14 28.63 1287.1 27.7 1287.04 26.14C1286.98 22.78 1284.15 20.29 1280.56 20.29C1277.2 20.29 1274.66 22.66 1274.66 25.9C1274.66 29.43 1277.03 30.99 1281.95 32.79C1287.22 34.7 1292.02 36.96 1292.02 43.67C1292.02 49.52 1287.45 54.2 1281.08 54.2C1274.71 54.2 1269.68 49.8 1269.68 43.84C1269.68 40.14 1271.47 37.53 1273.21 37.53C1274.72 37.53 1275.64 38.51 1275.64 39.84C1275.64 41 1274.66 41.52 1274.66 43.6C1274.66 47.3 1277.67 49.68 1281.08 49.68C1284.67 49.68 1287.04 47.19 1287.04 44.18C1287.04 40.48 1284.67 38.91 1279.75 37.18C1274.25 35.21 1269.68 32.84 1269.68 26.3C1269.68 20.4 1274.42 15.77 1280.62 15.77V15.79Z" fill="url(#paint1_linear_6206_42147)"/>
<text fill="white" fill-opacity="0.9" style="white-space: pre" xml:space="preserve" font-family="Sage UI" font-size="24" font-weight="500" letter-spacing="0px"><tspan x="1316" y="43.3">Copilot</tspan></text>
<rect width="1440" height="53" transform="translate(0 67)" fill="white"/>
<rect width="65.3333" height="53.3333" transform="translate(0 66.8335)" fill="white"/>
<text fill="black" style="white-space: pre" xml:space="preserve" font-family="Font Awesome 5 Pro" font-size="21.3333" font-weight="900" letter-spacing="0px"><tspan x="20" y="101.167">star</tspan></text>
<path d="M64.6667 67.5002V119.532" stroke="#595959" stroke-width="1.33333" stroke-linecap="square"/>
<rect width="65.3333" height="53.3333" transform="translate(65.333 66.8335)" fill="white"/>
<text fill="black" style="white-space: pre" xml:space="preserve" font-family="Font Awesome 5 Pro" font-size="21.3333" font-weight="900" letter-spacing="0px"><tspan x="85.333" y="101.167">home</tspan></text>
<path d="M130 67.5002V119.532" stroke="#595959" stroke-width="1.33333" stroke-linecap="square"/>
<g clip-path="url(#clip2_6206_42147)">
<rect width="333.333" height="53.3333" transform="translate(130.667 66.8335)" fill="white"/>
<text fill="#00141E" style="white-space: pre" xml:space="preserve" font-family="Helvetica-Neue" font-size="18.6667" letter-spacing="0px"><tspan x="157.334" y="100.323">Reports IVE Expenses</tspan></text>
<text fill="black" style="white-space: pre" xml:space="preserve" font-family="Font Awesome 5 Pro" font-size="18.6667" letter-spacing="0px"><tspan x="424.168" y="100.333">&#xf107;</tspan></text>
<path d="M463.334 67.5002V119.532" stroke="#595959" stroke-width="1.33333" stroke-linecap="square"/>
</g>
<rect x="275" y="144" width="431" height="366" rx="15.3458" fill="white"/>
<rect x="275" y="208" width="431" height="302" fill="#F2F5F6"/>
<text fill="#1A1A1A" style="white-space: pre" xml:space="preserve" font-family="Helvetica-Neue" font-size="17.018" letter-spacing="0px"><tspan x="289" y="184.856">Expenses by Year, Location, Department</tspan></text>
<rect x="681.953" y="182.643" width="55.9515" height="6.71418" rx="3.35709" transform="rotate(-180 681.953 182.643)" fill="#CCD6DB"/>
<mask id="path-22-inside-1_6206_42147" fill="white">
<path d="M351.038 294.707C360.543 281.081 373.149 269.906 387.816 262.103L403.085 290.804C392.962 296.19 384.261 303.903 377.7 313.307L351.038 294.707Z"/>
</mask>
<path d="M351.038 294.707C360.543 281.081 373.149 269.906 387.816 262.103L403.085 290.804C392.962 296.19 384.261 303.903 377.7 313.307L351.038 294.707Z" fill="#6B266B" stroke="white" stroke-width="0.836162" mask="url(#path-22-inside-1_6206_42147)"/>
<mask id="path-23-inside-2_6206_42147" fill="white">
<path d="M350.348 414.046C339.473 398.038 333.24 379.333 332.337 360.002L364.795 358.486C365.418 371.829 369.721 384.738 377.226 395.787L350.348 414.046Z"/>
</mask>
<path d="M350.348 414.046C339.473 398.038 333.24 379.333 332.337 360.002L364.795 358.486C365.418 371.829 369.721 384.738 377.226 395.787L350.348 414.046Z" fill="#FF4800" stroke="white" stroke-width="0.836162" mask="url(#path-23-inside-2_6206_42147)"/>
<mask id="path-24-inside-3_6206_42147" fill="white">
<path d="M332.341 360.112C331.237 336.996 337.808 314.164 351.033 295.172L377.699 313.74C368.571 326.848 364.035 342.607 364.798 358.562L332.341 360.112Z"/>
</mask>
<path d="M332.341 360.112C331.237 336.996 337.808 314.164 351.033 295.172L377.699 313.74C368.571 326.848 364.035 342.607 364.798 358.562L332.341 360.112Z" fill="#FF4800" stroke="white" stroke-width="0.836162" mask="url(#path-24-inside-3_6206_42147)"/>
<mask id="path-25-inside-4_6206_42147" fill="white">
<path d="M364.949 358.753C364.256 345.029 367.492 331.392 374.276 319.443C381.06 307.493 391.111 297.726 403.25 291.287L418.626 320.274C412 323.788 406.514 329.12 402.811 335.642C399.108 342.165 397.342 349.608 397.72 357.098L364.949 358.753Z"/>
</mask>
<path d="M364.949 358.753C364.256 345.029 367.492 331.392 374.276 319.443C381.06 307.493 391.111 297.726 403.25 291.287L418.626 320.274C412 323.788 406.514 329.12 402.811 335.642C399.108 342.165 397.342 349.608 397.72 357.098L364.949 358.753Z" fill="#D9D9D9" stroke="white" stroke-width="0.836162" mask="url(#path-25-inside-4_6206_42147)"/>
<mask id="path-26-inside-5_6206_42147" fill="white">
<path d="M377.406 395.806C369.965 384.89 365.659 372.141 364.957 358.948L397.724 357.206C398.106 364.407 400.457 371.365 404.519 377.324L377.406 395.806Z"/>
</mask>
<path d="M377.406 395.806C369.965 384.89 365.659 372.141 364.957 358.948L397.724 357.206C398.106 364.407 400.457 371.365 404.519 377.324L377.406 395.806Z" fill="#FF4800" stroke="white" stroke-width="0.836162" mask="url(#path-26-inside-5_6206_42147)"/>
<mask id="path-27-inside-6_6206_42147" fill="white">
<path d="M397.803 356.222C397.647 351.035 398.514 345.869 400.355 341.018C402.196 336.167 404.974 331.726 408.531 327.948C412.088 324.171 416.355 321.131 421.087 319.003C425.818 316.874 430.923 315.698 436.11 315.542L437.047 346.765C435.961 346.797 434.892 347.043 433.901 347.489C432.91 347.935 432.017 348.572 431.272 349.363C430.527 350.154 429.945 351.084 429.559 352.1C429.174 353.116 428.992 354.198 429.025 355.284L397.803 356.222Z"/>
</mask>
<path d="M397.803 356.222C397.647 351.035 398.514 345.869 400.355 341.018C402.196 336.167 404.974 331.726 408.531 327.948C412.088 324.171 416.355 321.131 421.087 319.003C425.818 316.874 430.923 315.698 436.11 315.542L437.047 346.765C435.961 346.797 434.892 347.043 433.901 347.489C432.91 347.935 432.017 348.572 431.272 349.363C430.527 350.154 429.945 351.084 429.559 352.1C429.174 353.116 428.992 354.198 429.025 355.284L397.803 356.222Z" fill="#FF4800" stroke="white" stroke-width="0.836162" mask="url(#path-27-inside-6_6206_42147)"/>
<mask id="path-28-inside-7_6206_42147" fill="white">
<path d="M436.101 315.544C443.912 315.307 451.617 317.392 458.243 321.535C464.869 325.678 470.118 331.693 473.326 338.818C476.533 345.944 477.556 353.861 476.264 361.568C474.972 369.275 471.424 376.426 466.068 382.116C460.712 387.807 453.789 391.781 446.175 393.537C438.56 395.293 430.596 394.751 423.289 391.981C415.982 389.21 409.661 384.335 405.124 377.972C400.588 371.609 398.041 364.044 397.804 356.233L429.026 355.287C429.076 356.923 429.609 358.507 430.559 359.84C431.509 361.173 432.833 362.193 434.363 362.774C435.893 363.354 437.561 363.467 439.156 363.1C440.751 362.732 442.201 361.9 443.322 360.708C444.444 359.516 445.187 358.019 445.458 356.404C445.728 354.79 445.514 353.132 444.842 351.64C444.17 350.148 443.071 348.888 441.684 348.021C440.296 347.153 438.682 346.716 437.046 346.766L436.101 315.544Z"/>
</mask>
<path d="M436.101 315.544C443.912 315.307 451.617 317.392 458.243 321.535C464.869 325.678 470.118 331.693 473.326 338.818C476.533 345.944 477.556 353.861 476.264 361.568C474.972 369.275 471.424 376.426 466.068 382.116C460.712 387.807 453.789 391.781 446.175 393.537C438.56 395.293 430.596 394.751 423.289 391.981C415.982 389.21 409.661 384.335 405.124 377.972C400.588 371.609 398.041 364.044 397.804 356.233L429.026 355.287C429.076 356.923 429.609 358.507 430.559 359.84C431.509 361.173 432.833 362.193 434.363 362.774C435.893 363.354 437.561 363.467 439.156 363.1C440.751 362.732 442.201 361.9 443.322 360.708C444.444 359.516 445.187 358.019 445.458 356.404C445.728 354.79 445.514 353.132 444.842 351.64C444.17 350.148 443.071 348.888 441.684 348.021C440.296 347.153 438.682 346.716 437.046 346.766L436.101 315.544Z" fill="#FF4800" stroke="white" stroke-width="0.836162" mask="url(#path-28-inside-7_6206_42147)"/>
<mask id="path-29-inside-8_6206_42147" fill="white">
<path d="M402.747 291.556C412.728 286.16 423.84 283.19 435.183 282.888L436.056 315.689C429.865 315.854 423.8 317.475 418.352 320.42L402.747 291.556Z"/>
</mask>
<path d="M402.747 291.556C412.728 286.16 423.84 283.19 435.183 282.888L436.056 315.689C429.865 315.854 423.8 317.475 418.352 320.42L402.747 291.556Z" fill="#FF4800" stroke="white" stroke-width="0.836162" mask="url(#path-29-inside-8_6206_42147)"/>
<mask id="path-30-inside-9_6206_42147" fill="white">
<path d="M434.268 282.921C449.19 282.334 463.926 286.386 476.451 294.519C488.975 302.652 498.671 314.466 504.206 328.336C509.74 342.206 510.841 357.45 507.356 371.971C503.871 386.492 495.972 399.576 484.746 409.424L463.108 384.756C469.235 379.381 473.547 372.239 475.449 364.314C477.351 356.388 476.75 348.067 473.73 340.497C470.709 332.926 465.416 326.478 458.58 322.039C451.744 317.6 443.701 315.388 435.556 315.708L434.268 282.921Z"/>
</mask>
<path d="M434.268 282.921C449.19 282.334 463.926 286.386 476.451 294.519C488.975 302.652 498.671 314.466 504.206 328.336C509.74 342.206 510.841 357.45 507.356 371.971C503.871 386.492 495.972 399.576 484.746 409.424L463.108 384.756C469.235 379.381 473.547 372.239 475.449 364.314C477.351 356.388 476.75 348.067 473.73 340.497C470.709 332.926 465.416 326.478 458.58 322.039C451.744 317.6 443.701 315.388 435.556 315.708L434.268 282.921Z" fill="#D9D9D9" stroke="white" stroke-width="0.836162" mask="url(#path-30-inside-9_6206_42147)"/>
<mask id="path-31-inside-10_6206_42147" fill="white">
<path d="M484.843 409.338C477.133 416.126 468.065 421.191 458.243 424.196C448.421 427.202 438.071 428.078 427.883 426.767C417.695 425.456 407.904 421.988 399.163 416.594C390.422 411.199 382.932 404.003 377.192 395.485L404.402 377.148C407.536 381.798 411.624 385.726 416.395 388.67C421.166 391.614 426.51 393.507 432.071 394.223C437.632 394.938 443.281 394.46 448.642 392.82C454.003 391.179 458.953 388.414 463.161 384.71L484.843 409.338Z"/>
</mask>
<path d="M484.843 409.338C477.133 416.126 468.065 421.191 458.243 424.196C448.421 427.202 438.071 428.078 427.883 426.767C417.695 425.456 407.904 421.988 399.163 416.594C390.422 411.199 382.932 404.003 377.192 395.485L404.402 377.148C407.536 381.798 411.624 385.726 416.395 388.67C421.166 391.614 426.51 393.507 432.071 394.223C437.632 394.938 443.281 394.46 448.642 392.82C454.003 391.179 458.953 388.414 463.161 384.71L484.843 409.338Z" fill="#D9D9D9" stroke="white" stroke-width="0.836162" mask="url(#path-31-inside-10_6206_42147)"/>
<mask id="path-32-inside-11_6206_42147" fill="white">
<path d="M372.199 437.497C363.775 430.86 356.42 422.971 350.388 414.104L377.254 395.827C381.417 401.947 386.494 407.392 392.308 411.973L372.199 437.497Z"/>
</mask>
<path d="M372.199 437.497C363.775 430.86 356.42 422.971 350.388 414.104L377.254 395.827C381.417 401.947 386.494 407.392 392.308 411.973L372.199 437.497Z" fill="#D8006F" stroke="white" stroke-width="0.836162" mask="url(#path-32-inside-11_6206_42147)"/>
<mask id="path-33-inside-12_6206_42147" fill="white">
<path d="M387.893 262.487C402.557 254.695 418.862 250.496 435.465 250.235L435.975 282.725C424.515 282.905 413.261 285.803 403.14 291.181L387.893 262.487Z"/>
</mask>
<path d="M387.893 262.487C402.557 254.695 418.862 250.496 435.465 250.235L435.975 282.725C424.515 282.905 413.261 285.803 403.14 291.181L387.893 262.487Z" fill="#FF4800" stroke="white" stroke-width="0.836162" mask="url(#path-33-inside-12_6206_42147)"/>
<mask id="path-34-inside-13_6206_42147" fill="white">
<path d="M525.014 297.892C537.097 316.457 542.993 338.37 541.856 360.491L509.405 358.824C510.19 343.556 506.121 328.431 497.781 315.618L525.014 297.892Z"/>
</mask>
<path d="M525.014 297.892C537.097 316.457 542.993 338.37 541.856 360.491L509.405 358.824C510.19 343.556 506.121 328.431 497.781 315.618L525.014 297.892Z" fill="#6B266B" stroke="white" stroke-width="0.836162" mask="url(#path-34-inside-13_6206_42147)"/>
<mask id="path-35-inside-14_6206_42147" fill="white">
<path d="M541.864 360.359C541.197 373.681 537.994 386.753 532.428 398.875L502.899 385.317C506.74 376.95 508.95 367.928 509.411 358.733L541.864 360.359Z"/>
</mask>
<path d="M541.864 360.359C541.197 373.681 537.994 386.753 532.428 398.875L502.899 385.317C506.74 376.95 508.95 367.928 509.411 358.733L541.864 360.359Z" fill="#D8006F" stroke="white" stroke-width="0.836162" mask="url(#path-35-inside-14_6206_42147)"/>
<mask id="path-36-inside-15_6206_42147" fill="white">
<path d="M532.456 398.812C526.464 411.886 517.847 423.587 507.141 433.19L485.445 409.001C492.834 402.373 498.781 394.297 502.917 385.273L532.456 398.812Z"/>
</mask>
<path d="M532.456 398.812C526.464 411.886 517.847 423.587 507.141 433.19L485.445 409.001C492.834 402.373 498.781 394.297 502.917 385.273L532.456 398.812Z" fill="#00C1AE" stroke="white" stroke-width="0.836162" mask="url(#path-36-inside-15_6206_42147)"/>
<mask id="path-37-inside-16_6206_42147" fill="white">
<path d="M435.37 250.235C453.126 249.94 470.666 254.159 486.347 262.496C502.027 270.833 515.333 283.014 525.019 297.899L497.784 315.622C491.099 305.348 481.915 296.941 471.092 291.187C460.27 285.433 448.164 282.521 435.908 282.724L435.37 250.235Z"/>
</mask>
<path d="M435.37 250.235C453.126 249.94 470.666 254.159 486.347 262.496C502.027 270.833 515.333 283.014 525.019 297.899L497.784 315.622C491.099 305.348 481.915 296.941 471.092 291.187C460.27 285.433 448.164 282.521 435.908 282.724L435.37 250.235Z" fill="#FF4800" stroke="white" stroke-width="0.836162" mask="url(#path-37-inside-16_6206_42147)"/>
<mask id="path-38-inside-17_6206_42147" fill="white">
<path d="M507.174 433.156C488.798 449.652 465.192 459.135 440.511 459.937C415.83 460.738 391.658 452.805 372.252 437.536L392.344 411.999C405.739 422.538 422.422 428.013 439.457 427.46C456.491 426.907 472.785 420.361 485.467 408.976L507.174 433.156Z"/>
</mask>
<path d="M507.174 433.156C488.798 449.652 465.192 459.135 440.511 459.937C415.83 460.738 391.658 452.805 372.252 437.536L392.344 411.999C405.739 422.538 422.422 428.013 439.457 427.46C456.491 426.907 472.785 420.361 485.467 408.976L507.174 433.156Z" fill="#FF4800" stroke="white" stroke-width="0.836162" mask="url(#path-38-inside-17_6206_42147)"/>
<rect x="578.129" y="398.729" width="10.8701" height="10.8701" fill="#00C1AE"/>
<rect x="578.129" y="366.152" width="10.8701" height="10.8701" fill="#D8006F"/>
<rect x="578.129" y="333.576" width="10.8701" height="10.8701" fill="#6B266B"/>
<rect x="578.129" y="301" width="10.8701" height="10.8701" fill="#F49C00"/>
<text fill="#00141E" style="white-space: pre" xml:space="preserve" font-family="Helvetica Neue" font-size="12" letter-spacing="0px"><tspan x="604" y="311.338">Sales</tspan></text>
<text fill="#00141E" style="white-space: pre" xml:space="preserve" font-family="Helvetica Neue" font-size="12" letter-spacing="0px"><tspan x="604" y="343.338">Marketing</tspan></text>
<text fill="#00141E" style="white-space: pre" xml:space="preserve" font-family="Helvetica Neue" font-size="12" letter-spacing="0px"><tspan x="604" y="375.338">Services</tspan></text>
<text fill="#00141E" style="white-space: pre" xml:space="preserve" font-family="Helvetica Neue" font-size="12" letter-spacing="0px"><tspan x="604" y="407.338">Product</tspan></text>
<g clip-path="url(#clip3_6206_42147)">
<rect x="275" y="530" width="433" height="366" rx="15.3458" fill="white"/>
<rect x="24" y="594" width="684" height="302" fill="#F2F5F6"/>
<text fill="#1A1A1A" style="white-space: pre" xml:space="preserve" font-family="Helvetica-Neue" font-size="17.018" letter-spacing="0px"><tspan x="287" y="568.856">Expenses by Location, Category</tspan></text>
<rect x="592" y="560.035" width="52" height="5" rx="2.5" fill="#CCD6DB"/>
<rect x="661.417" y="559.74" width="20.125" height="5.59028" rx="2.79514" fill="#CCD6DB"/>
<path d="M307 638L307 834" stroke="#B3B3B3" stroke-width="1.45326"/>
<path d="M359 638L359 834" stroke="#D9E0E4" stroke-width="1.45326"/>
<path d="M414 638L414 834" stroke="#D9E0E4" stroke-width="1.45326"/>
<path d="M469 638L469 834" stroke="#D9E0E4" stroke-width="1.45326"/>
<path d="M523 638L523 834" stroke="#D9E0E4" stroke-width="1.45326"/>
<rect x="485" y="648" width="38" height="19" fill="#FFB500"/>
<rect x="359" y="680" width="80" height="19" fill="#FFB500"/>
<rect x="340" y="712" width="57" height="19" fill="#FFB500"/>
<rect x="320" y="744" width="23" height="19" fill="#FFB500"/>
<rect x="320" y="776" width="7" height="19" fill="#FFB500"/>
<rect x="307" y="808" width="5" height="19" fill="#FFB500"/>
<rect x="454" y="648" width="31" height="19" fill="#007C99"/>
<rect x="346" y="680" width="13" height="19" fill="#007C99"/>
<rect x="333" y="712" width="7" height="19" fill="#007C99"/>
<rect x="318" y="744" width="2" height="19" fill="#007C99"/>
<rect x="318" y="776" width="2" height="19" fill="#007C99"/>
<rect x="436" y="648" width="18" height="19" fill="#6B266B"/>
<rect x="339" y="680" width="7" height="19" fill="#6B266B"/>
<rect x="330" y="712" width="3" height="19" fill="#6B266B"/>
<rect x="315" y="744" width="3" height="19" fill="#6B266B"/>
<rect x="315" y="776" width="3" height="19" fill="#6B266B"/>
<rect x="418" y="648" width="18" height="19" fill="#4275FF"/>
<rect x="331" y="680" width="8" height="19" fill="#4275FF"/>
<rect x="325" y="712" width="5" height="19" fill="#4275FF"/>
<rect x="405" y="648" width="13" height="19" fill="#D8006F"/>
<rect x="328" y="680" width="3" height="19" fill="#D8006F"/>
<rect x="320" y="712" width="5" height="19" fill="#D8006F"/>
<rect x="314" y="744" width="1" height="19" fill="#D8006F"/>
<rect x="314" y="776" width="1" height="19" fill="#D8006F"/>
<rect x="394" y="648" width="11" height="19" fill="#00A06B"/>
<rect x="322" y="680" width="6" height="19" fill="#00A06B"/>
<rect x="315" y="712" width="5" height="19" fill="#00A06B"/>
<rect x="312" y="744" width="2" height="19" fill="#00A06B"/>
<rect x="312" y="776" width="2" height="19" fill="#00A06B"/>
<rect x="368" y="648" width="26" height="19" fill="#00C1AE"/>
<rect x="312" y="680" width="10" height="19" fill="#00C1AE"/>
<rect x="312" y="712" width="3" height="19" fill="#00C1AE"/>
<rect x="309" y="744" width="3" height="19" fill="#00C1AE"/>
<rect x="309" y="776" width="3" height="19" fill="#00C1AE"/>
<rect x="361" y="648" width="7" height="19" fill="#FF4800"/>
<rect x="311" y="680" width="1" height="19" fill="#FF4800"/>
<rect x="309" y="712" width="3" height="19" fill="#FF4800"/>
<rect x="307" y="744" width="2" height="19" fill="#FF4800"/>
<rect x="307" y="776" width="2" height="19" fill="#FF4800"/>
<rect x="353" y="648" width="8" height="19" fill="#6B266B"/>
<rect x="307" y="680" width="4" height="19" fill="#6B266B"/>
<rect x="307" y="712" width="2" height="19" fill="#6B266B"/>
<rect x="345" y="648" width="8" height="19" fill="#007C99"/>
<rect x="340" y="648" width="5" height="19" fill="#FF4800"/>
<rect x="331" y="648" width="9" height="19" fill="#007C99"/>
<rect x="328" y="648" width="3" height="19" fill="#00A06B"/>
<rect x="321" y="648" width="7" height="19" fill="#FF4800"/>
<rect x="315" y="648" width="6" height="19" fill="#FF4800"/>
<rect x="307" y="648" width="8" height="19" fill="#D8006F"/>
<rect x="549" y="723" width="10.1728" height="10.1728" fill="#00C1AE"/>
<rect x="549" y="748" width="10.1728" height="10.1728" fill="#E8178A"/>
<rect x="549" y="772" width="10.1728" height="10.1728" fill="#00821F"/>
<rect x="549" y="795" width="10.1728" height="10.1728" fill="#00C1AE"/>
<rect x="549" y="820" width="10.1728" height="10.1728" fill="#FFB500"/>
<rect x="549" y="700" width="10.1728" height="10.1728" fill="#6B266B"/>
<rect x="549" y="675.346" width="10.1728" height="10.1728" fill="#007E45"/>
<rect x="549" y="651" width="10.1728" height="10.1728" fill="#F49C00"/>
<text fill="#00141E" style="white-space: pre" xml:space="preserve" font-family="Helvetica Neue" font-size="12" letter-spacing="0px"><tspan x="566.172" y="660.678">Salary and Wage Exp</tspan></text>
<text fill="#00141E" style="white-space: pre" xml:space="preserve" font-family="Helvetica Neue" font-size="12" letter-spacing="0px"><tspan x="566.172" y="756.678">Benefit Expense</tspan></text>
<text fill="#00141E" style="white-space: pre" xml:space="preserve" font-family="Helvetica Neue" font-size="12" letter-spacing="0px"><tspan x="566.172" y="684.678">Cost of Services Rev</tspan></text>
<text fill="#00141E" style="white-space: pre" xml:space="preserve" font-family="Helvetica Neue" font-size="12" letter-spacing="0px"><tspan x="566.172" y="780.678">Payroll Taxes</tspan></text>
<text fill="#00141E" style="white-space: pre" xml:space="preserve" font-family="Helvetica Neue" font-size="12" letter-spacing="0px"><tspan x="566.172" y="708.678">Cost of Subscriptions</tspan></text>
<text fill="#00141E" style="white-space: pre" xml:space="preserve" font-family="Helvetica Neue" font-size="12" letter-spacing="0px"><tspan x="566.172" y="804.678">Travel Expense</tspan></text>
<text fill="#00141E" style="white-space: pre" xml:space="preserve" font-family="Helvetica Neue" font-size="12" letter-spacing="0px"><tspan x="566.172" y="732.678">Bonus Expense</tspan></text>
<text fill="#00141E" style="white-space: pre" xml:space="preserve" font-family="Helvetica Neue" font-size="12" letter-spacing="0px"><tspan x="566.172" y="828.678">Advertising and Pro</tspan></text>
</g>
<rect x="732" y="144" width="684" height="366" rx="15.3458" fill="white"/>
<rect x="732" y="208" width="684" height="302" fill="#F2F5F6"/>
<text fill="#1A1A1A" style="white-space: pre" xml:space="preserve" font-family="Helvetica-Neue" font-size="17.018" letter-spacing="0px"><tspan x="755" y="184.856">Revenue by Billing Method - By Customer Industry</tspan></text>
<rect x="1367.47" y="172.74" width="20.125" height="5.59028" rx="2.79514" fill="#CCD6DB"/>
<path d="M1383.93 262.438H1282.6L790.734 419.439V423.607H821.438L1383.93 262.438Z" fill="#ACACAC" fill-opacity="0.5"/>
<path d="M789.578 293.592H1394M789.578 325.328H1394M789.578 360.515H1394M789.578 392.252H1394" stroke="#B3B3B3" stroke-width="1.37351"/>
<path d="M898 262L898 422.7" stroke="#B3B3B3" stroke-width="1.37351"/>
<path d="M1004 262L1004 422.7" stroke="#B3B3B3" stroke-width="1.37351"/>
<path d="M1109 262L1109 422.7" stroke="#B3B3B3" stroke-width="1.37351"/>
<path d="M1206 262L1206 423.169" stroke="#B3B3B3" stroke-width="1.37351"/>
<path d="M1326 262L1326 423.169" stroke="#B3B3B3" stroke-width="1.37351"/>
<path d="M789.617 263.557V423.607H1390.64" stroke="#B3B3B3" stroke-width="1.37351"/>
<path d="M790.734 422.487L1334.68 263.557" stroke="#B3B3B3" stroke-width="1.37351" stroke-dasharray="2.75 2.75"/>
<circle opacity="0.25" cx="983.527" cy="337.295" r="7.55429" fill="#6B266B"/>
<circle opacity="0.25" cx="980.785" cy="360.642" r="7.55429" fill="#6B266B"/>
<circle opacity="0.25" cx="982.156" cy="374.379" r="7.55429" fill="#6B266B"/>
<circle opacity="0.25" cx="1008.25" cy="366.136" r="7.55429" fill="#6B266B"/>
<circle opacity="0.25" cx="1001.39" cy="366.136" r="7.55429" fill="#6B266B"/>
<circle opacity="0.25" cx="1002.76" cy="349.656" r="7.55429" fill="#6B266B"/>
<circle opacity="0.25" cx="1030.23" cy="346.906" r="7.55429" fill="#6B266B"/>
<circle opacity="0.25" cx="1032.98" cy="388.113" r="7.55429" fill="#6B266B"/>
<circle opacity="0.25" cx="1054.95" cy="319.437" r="7.55429" fill="#6B266B"/>
<circle opacity="0.25" cx="1181.32" cy="307.076" r="7.55429" fill="#6B266B"/>
<circle opacity="0.25" cx="1243.12" cy="276.857" r="7.55429" fill="#6B266B"/>
<circle opacity="0.25" cx="1251.36" cy="290.593" r="7.55429" fill="#6B266B"/>
<circle opacity="0.25" cx="1289.82" cy="283.724" r="7.55429" fill="#6B266B"/>
<circle opacity="0.25" cx="1314.54" cy="278.232" r="7.55429" fill="#6B266B"/>
<circle opacity="0.25" cx="1309.05" cy="294.714" r="7.55429" fill="#6B266B"/>
<circle opacity="0.25" cx="1356.78" cy="300.207" r="7.55429" fill="#6B266B"/>
<circle opacity="0.25" cx="949.191" cy="389.486" r="7.55429" fill="#6B266B"/>
<circle opacity="0.25" cx="967.05" cy="419.703" r="7.55429" fill="#6B266B"/>
<circle opacity="0.25" cx="954.691" cy="419.703" r="7.55429" fill="#6B266B"/>
<circle opacity="0.25" cx="942.324" cy="419.703" r="7.55429" fill="#6B266B"/>
<circle opacity="0.25" cx="923.093" cy="419.703" r="7.55429" fill="#6B266B"/>
<circle opacity="0.25" cx="844.808" cy="415.584" r="7.55429" fill="#6B266B"/>
<circle opacity="0.25" cx="873.652" cy="415.584" r="7.55429" fill="#6B266B"/>
<circle opacity="0.25" cx="864.035" cy="411.461" r="7.55429" fill="#6B266B"/>
<circle opacity="0.25" cx="858.539" cy="404.593" r="7.55429" fill="#6B266B"/>
<circle opacity="0.25" cx="858.539" cy="397.728" r="7.55429" fill="#6B266B"/>
<circle opacity="0.25" cx="873.652" cy="393.607" r="7.55429" fill="#6B266B"/>
<circle opacity="0.25" cx="868.16" cy="400.474" r="7.55429" fill="#6B266B"/>
<circle opacity="0.25" cx="789.863" cy="423.824" r="7.55429" fill="#6B266B"/>
<circle opacity="0.25" cx="1303.55" cy="291.966" r="7.55429" fill="#6B266B"/>
<circle opacity="0.25" cx="1004.14" cy="377.125" r="7.55429" fill="#6B266B"/>
<text transform="translate(763.977 414.291)" fill="#00141E" style="white-space: pre" xml:space="preserve" font-family="Helvetica Neue" font-size="11.1074" letter-spacing="0px"><tspan x="0" y="11.4748">0</tspan></text>
<text transform="translate(754.141 380.559)" fill="#00141E" style="white-space: pre" xml:space="preserve" font-family="Helvetica Neue" font-size="11.1074" letter-spacing="0px"><tspan x="0" y="11.4748">4M</tspan></text>
<text transform="translate(754.141 349.635)" fill="#00141E" style="white-space: pre" xml:space="preserve" font-family="Helvetica Neue" font-size="11.1074" letter-spacing="0px"><tspan x="0" y="11.4748">8M</tspan></text>
<text transform="translate(746 314.496)" fill="#00141E" style="white-space: pre" xml:space="preserve" font-family="Helvetica Neue" font-size="11.1074" letter-spacing="0px"><tspan x="0.980511" y="11.4748">12M</tspan></text>
<text transform="translate(746 282.168)" fill="#00141E" style="white-space: pre" xml:space="preserve" font-family="Helvetica Neue" font-size="11.1074" letter-spacing="0px"><tspan x="0.980511" y="11.4748">16M</tspan></text>
<text transform="translate(832.16 438.986)" fill="#00141E" style="white-space: pre" xml:space="preserve" font-family="Helvetica Neue" font-size="11.1074" letter-spacing="0px"><tspan x="0" y="11.4748">3M</tspan></text>
<text transform="translate(955.848 438.986)" fill="#00141E" style="white-space: pre" xml:space="preserve" font-family="Helvetica Neue" font-size="11.1074" letter-spacing="0px"><tspan x="0" y="11.4748">6M</tspan></text>
<text transform="translate(1071.02 438.986)" fill="#00141E" style="white-space: pre" xml:space="preserve" font-family="Helvetica Neue" font-size="11.1074" letter-spacing="0px"><tspan x="0" y="11.4748">9M</tspan></text>
<text transform="translate(1168.64 438.986)" fill="#00141E" style="white-space: pre" xml:space="preserve" font-family="Helvetica Neue" font-size="11.1074" letter-spacing="0px"><tspan x="0" y="11.4748">12M</tspan></text>
<text transform="translate(1263.14 438.986)" fill="#00141E" style="white-space: pre" xml:space="preserve" font-family="Helvetica Neue" font-size="11.1074" letter-spacing="0px"><tspan x="0" y="11.4748">15M</tspan></text>
<rect x="732" y="530" width="684" height="366" rx="15.3458" fill="white"/>
<rect x="732" y="594" width="684" height="302" fill="#F2F5F6"/>
<text fill="#1A1A1A" style="white-space: pre" xml:space="preserve" font-family="Helvetica-Neue" font-size="17.018" letter-spacing="0px"><tspan x="755" y="570.856">Expenses by Department, Location</tspan></text>
<rect x="1367.47" y="558.74" width="20.125" height="5.59028" rx="2.79514" fill="#CCD6DB"/>
<mask id="path-180-inside-18_6206_42147" fill="white">
<path d="M1305.74 698.625C1318.91 698.625 1331.62 703.374 1341.57 711.998C1351.51 720.623 1358 732.545 1359.86 745.575C1361.71 758.604 1358.81 771.866 1351.67 782.923C1344.53 793.981 1333.65 802.093 1321.01 805.768C1308.37 809.443 1294.83 808.436 1282.88 802.93C1270.92 797.424 1261.36 787.79 1255.94 775.798C1250.52 763.805 1249.61 750.259 1253.37 737.649C1257.13 725.038 1265.32 714.209 1276.43 707.15L1294.95 736.299C1290.86 738.898 1287.85 742.884 1286.46 747.527C1285.08 752.17 1285.41 757.157 1287.41 761.573C1289.4 765.988 1292.93 769.535 1297.33 771.562C1301.73 773.589 1306.71 773.96 1311.36 772.607C1316.02 771.254 1320.03 768.267 1322.65 764.196C1325.28 760.125 1326.35 755.243 1325.67 750.446C1324.98 745.649 1322.59 741.259 1318.93 738.084C1315.27 734.908 1310.59 733.16 1305.74 733.16V698.625Z"/>
</mask>
<path d="M1305.74 698.625C1318.91 698.625 1331.62 703.374 1341.57 711.998C1351.51 720.623 1358 732.545 1359.86 745.575C1361.71 758.604 1358.81 771.866 1351.67 782.923C1344.53 793.981 1333.65 802.093 1321.01 805.768C1308.37 809.443 1294.83 808.436 1282.88 802.93C1270.92 797.424 1261.36 787.79 1255.94 775.798C1250.52 763.805 1249.61 750.259 1253.37 737.649C1257.13 725.038 1265.32 714.209 1276.43 707.15L1294.95 736.299C1290.86 738.898 1287.85 742.884 1286.46 747.527C1285.08 752.17 1285.41 757.157 1287.41 761.573C1289.4 765.988 1292.93 769.535 1297.33 771.562C1301.73 773.589 1306.71 773.96 1311.36 772.607C1316.02 771.254 1320.03 768.267 1322.65 764.196C1325.28 760.125 1326.35 755.243 1325.67 750.446C1324.98 745.649 1322.59 741.259 1318.93 738.084C1315.27 734.908 1310.59 733.16 1305.74 733.16V698.625Z" fill="#FF4800" stroke="white" stroke-width="1.47727" mask="url(#path-180-inside-18_6206_42147)"/>
<mask id="path-181-inside-19_6206_42147" fill="white">
<path d="M1293.73 699.964C1297.76 699.055 1301.88 698.607 1306.01 698.627L1305.84 733.162C1304.32 733.155 1302.8 733.32 1301.32 733.654L1293.73 699.964Z"/>
</mask>
<path d="M1293.73 699.964C1297.76 699.055 1301.88 698.607 1306.01 698.627L1305.84 733.162C1304.32 733.155 1302.8 733.32 1301.32 733.654L1293.73 699.964Z" fill="#D8006F" stroke="white" stroke-width="1.47727" mask="url(#path-181-inside-19_6206_42147)"/>
<mask id="path-182-inside-20_6206_42147" fill="white">
<path d="M1276.5 707.108C1281.84 703.72 1287.74 701.288 1293.92 699.918L1301.39 733.636C1299.12 734.14 1296.95 735.036 1294.98 736.283L1276.5 707.108Z"/>
</mask>
<path d="M1276.5 707.108C1281.84 703.72 1287.74 701.288 1293.92 699.918L1301.39 733.636C1299.12 734.14 1296.95 735.036 1294.98 736.283L1276.5 707.108Z" fill="#6B266B" stroke="white" stroke-width="1.47727" mask="url(#path-182-inside-20_6206_42147)"/>
<mask id="path-183-inside-21_6206_42147" fill="white">
<path d="M1163.78 806.495C1151.87 809.291 1139.36 808.011 1128.26 802.859L1142.81 771.535C1146.89 773.432 1151.5 773.904 1155.88 772.874L1163.78 806.495Z"/>
</mask>
<path d="M1163.78 806.495C1151.87 809.291 1139.36 808.011 1128.26 802.859L1142.81 771.535C1146.89 773.432 1151.5 773.904 1155.88 772.874L1163.78 806.495Z" fill="#00C1AE" stroke="white" stroke-width="1.47727" mask="url(#path-183-inside-21_6206_42147)"/>
<mask id="path-184-inside-22_6206_42147" fill="white">
<path d="M1128.23 802.843C1119.59 798.822 1112.14 792.609 1106.64 784.821C1101.14 777.033 1097.77 767.941 1096.87 758.448C1095.97 748.956 1097.57 739.392 1101.5 730.708C1105.44 722.024 1111.58 714.521 1119.32 708.945L1139.52 736.959C1136.67 739.012 1134.41 741.774 1132.96 744.972C1131.51 748.169 1130.92 751.69 1131.25 755.185C1131.58 758.68 1132.82 762.027 1134.85 764.894C1136.87 767.762 1139.61 770.049 1142.8 771.53L1128.23 802.843Z"/>
</mask>
<path d="M1128.23 802.843C1119.59 798.822 1112.14 792.609 1106.64 784.821C1101.14 777.033 1097.77 767.941 1096.87 758.448C1095.97 748.956 1097.57 739.392 1101.5 730.708C1105.44 722.024 1111.58 714.521 1119.32 708.945L1139.52 736.959C1136.67 739.012 1134.41 741.774 1132.96 744.972C1131.51 748.169 1130.92 751.69 1131.25 755.185C1131.58 758.68 1132.82 762.027 1134.85 764.894C1136.87 767.762 1139.61 770.049 1142.8 771.53L1128.23 802.843Z" fill="#FF4800" stroke="white" stroke-width="1.47727" mask="url(#path-184-inside-22_6206_42147)"/>
<mask id="path-185-inside-23_6206_42147" fill="white">
<path d="M1119.54 708.79C1128.49 702.398 1139.17 698.859 1150.17 698.636L1150.88 733.164C1146.82 733.246 1142.89 734.549 1139.6 736.902L1119.54 708.79Z"/>
</mask>
<path d="M1119.54 708.79C1128.49 702.398 1139.17 698.859 1150.17 698.636L1150.88 733.164C1146.82 733.246 1142.89 734.549 1139.6 736.902L1119.54 708.79Z" fill="#D8006F" stroke="white" stroke-width="1.47727" mask="url(#path-185-inside-23_6206_42147)"/>
<mask id="path-186-inside-24_6206_42147" fill="white">
<path d="M1150 698.639C1158.71 698.436 1167.33 700.314 1175.16 704.118L1160.07 735.182C1157.19 733.782 1154.02 733.09 1150.81 733.165L1150 698.639Z"/>
</mask>
<path d="M1150 698.639C1158.71 698.436 1167.33 700.314 1175.16 704.118L1160.07 735.182C1157.19 733.782 1154.02 733.09 1150.81 733.165L1150 698.639Z" fill="#007C99" stroke="white" stroke-width="1.47727" mask="url(#path-186-inside-24_6206_42147)"/>
<mask id="path-187-inside-25_6206_42147" fill="white">
<path d="M1174.95 704.012C1180.3 706.58 1185.19 710.002 1189.44 714.143L1165.33 738.872C1163.77 737.347 1161.96 736.088 1160 735.142L1174.95 704.012Z"/>
</mask>
<path d="M1174.95 704.012C1180.3 706.58 1185.19 710.002 1189.44 714.143L1165.33 738.872C1163.77 737.347 1161.96 736.088 1160 735.142L1174.95 704.012Z" fill="#00A06B" stroke="white" stroke-width="1.47727" mask="url(#path-187-inside-25_6206_42147)"/>
<mask id="path-188-inside-26_6206_42147" fill="white">
<path d="M1189.09 713.807C1192.48 717.057 1195.44 720.731 1197.89 724.739L1168.44 742.773C1167.54 741.297 1166.45 739.945 1165.2 738.748L1189.09 713.807Z"/>
</mask>
<path d="M1189.09 713.807C1192.48 717.057 1195.44 720.731 1197.89 724.739L1168.44 742.773C1167.54 741.297 1166.45 739.945 1165.2 738.748L1189.09 713.807Z" fill="#FFB500" stroke="white" stroke-width="1.47727" mask="url(#path-188-inside-26_6206_42147)"/>
<mask id="path-189-inside-27_6206_42147" fill="white">
<path d="M1197.98 724.873C1202.88 732.94 1205.62 742.142 1205.91 751.58L1171.4 752.656C1171.29 749.181 1170.28 745.794 1168.47 742.823L1197.98 724.873Z"/>
</mask>
<path d="M1197.98 724.873C1202.88 732.94 1205.62 742.142 1205.91 751.58L1171.4 752.656C1171.29 749.181 1170.28 745.794 1168.47 742.823L1197.98 724.873Z" fill="#FF4800" stroke="white" stroke-width="1.47727" mask="url(#path-189-inside-27_6206_42147)"/>
<mask id="path-190-inside-28_6206_42147" fill="white">
<path d="M1205.91 751.467C1206.33 764.124 1202.35 776.535 1194.63 786.579C1186.92 796.623 1175.96 803.677 1163.62 806.535L1155.82 772.891C1160.37 771.838 1164.4 769.242 1167.24 765.544C1170.08 761.846 1171.55 757.276 1171.4 752.616L1205.91 751.467Z"/>
</mask>
<path d="M1205.91 751.467C1206.33 764.124 1202.35 776.535 1194.63 786.579C1186.92 796.623 1175.96 803.677 1163.62 806.535L1155.82 772.891C1160.37 771.838 1164.4 769.242 1167.24 765.544C1170.08 761.846 1171.55 757.276 1171.4 752.616L1205.91 751.467Z" fill="#6B266B" stroke="white" stroke-width="1.47727" mask="url(#path-190-inside-28_6206_42147)"/>
<mask id="path-191-inside-29_6206_42147" fill="white">
<path d="M852.307 698.625C864.131 698.625 875.635 702.458 885.095 709.551C894.555 716.643 901.46 726.612 904.775 737.961C908.089 749.31 907.634 761.428 903.478 772.497C899.322 783.566 891.688 792.989 881.723 799.352C871.758 805.715 859.998 808.675 848.208 807.788C836.418 806.902 825.233 802.216 816.332 794.434C807.431 786.652 801.293 776.194 798.839 764.628C796.385 753.062 797.747 741.012 802.722 730.286L834.051 744.817C832.22 748.765 831.718 753.202 832.622 757.46C833.525 761.718 835.785 765.569 839.062 768.434C842.34 771.299 846.457 773.024 850.798 773.35C855.139 773.677 859.468 772.587 863.137 770.244C866.806 767.902 869.616 764.432 871.147 760.357C872.677 756.282 872.844 751.821 871.624 747.642C870.404 743.464 867.862 739.794 864.379 737.182C860.896 734.571 856.66 733.16 852.307 733.16V698.625Z"/>
</mask>
<path d="M852.307 698.625C864.131 698.625 875.635 702.458 885.095 709.551C894.555 716.643 901.46 726.612 904.775 737.961C908.089 749.31 907.634 761.428 903.478 772.497C899.322 783.566 891.688 792.989 881.723 799.352C871.758 805.715 859.998 808.675 848.208 807.788C836.418 806.902 825.233 802.216 816.332 794.434C807.431 786.652 801.293 776.194 798.839 764.628C796.385 753.062 797.747 741.012 802.722 730.286L834.051 744.817C832.22 748.765 831.718 753.202 832.622 757.46C833.525 761.718 835.785 765.569 839.062 768.434C842.34 771.299 846.457 773.024 850.798 773.35C855.139 773.677 859.468 772.587 863.137 770.244C866.806 767.902 869.616 764.432 871.147 760.357C872.677 756.282 872.844 751.821 871.624 747.642C870.404 743.464 867.862 739.794 864.379 737.182C860.896 734.571 856.66 733.16 852.307 733.16V698.625Z" fill="#FF4800" stroke="white" stroke-width="1.47727" mask="url(#path-191-inside-29_6206_42147)"/>
<mask id="path-192-inside-30_6206_42147" fill="white">
<path d="M802.485 730.799C806.81 721.215 813.808 713.082 822.639 707.375C831.47 701.668 841.76 698.63 852.275 698.624L852.294 733.16C848.422 733.162 844.634 734.28 841.383 736.381C838.131 738.482 835.555 741.477 833.962 745.005L802.485 730.799Z"/>
</mask>
<path d="M802.485 730.799C806.81 721.215 813.808 713.082 822.639 707.375C831.47 701.668 841.76 698.63 852.275 698.624L852.294 733.16C848.422 733.162 844.634 734.28 841.383 736.381C838.131 738.482 835.555 741.477 833.962 745.005L802.485 730.799Z" fill="#D8006F" stroke="white" stroke-width="1.47727" mask="url(#path-192-inside-30_6206_42147)"/>
<mask id="path-193-inside-31_6206_42147" fill="white">
<path d="M999.307 698.646C1011.13 698.646 1022.64 702.48 1032.1 709.572C1041.56 716.665 1048.46 726.633 1051.77 737.983C1055.09 749.332 1054.63 761.45 1050.48 772.519C1046.32 783.587 1038.69 793.01 1028.72 799.373C1018.76 805.736 1007 808.696 995.208 807.81C983.418 806.923 972.233 802.237 963.332 794.455C954.431 786.674 948.293 776.215 945.839 764.649C943.385 753.083 944.747 741.034 949.722 730.308L981.051 744.838C979.22 748.787 978.718 753.223 979.622 757.482C980.525 761.74 982.785 765.59 986.062 768.455C989.34 771.32 993.457 773.045 997.798 773.372C1002.14 773.698 1006.47 772.608 1010.14 770.266C1013.81 767.923 1016.62 764.454 1018.15 760.379C1019.68 756.304 1019.84 751.842 1018.62 747.664C1017.4 743.485 1014.86 739.815 1011.38 737.204C1007.9 734.593 1003.66 733.181 999.307 733.181V698.646Z"/>
</mask>
<path d="M999.307 698.646C1011.13 698.646 1022.64 702.48 1032.1 709.572C1041.56 716.665 1048.46 726.633 1051.77 737.983C1055.09 749.332 1054.63 761.45 1050.48 772.519C1046.32 783.587 1038.69 793.01 1028.72 799.373C1018.76 805.736 1007 808.696 995.208 807.81C983.418 806.923 972.233 802.237 963.332 794.455C954.431 786.674 948.293 776.215 945.839 764.649C943.385 753.083 944.747 741.034 949.722 730.308L981.051 744.838C979.22 748.787 978.718 753.223 979.622 757.482C980.525 761.74 982.785 765.59 986.062 768.455C989.34 771.32 993.457 773.045 997.798 773.372C1002.14 773.698 1006.47 772.608 1010.14 770.266C1013.81 767.923 1016.62 764.454 1018.15 760.379C1019.68 756.304 1019.84 751.842 1018.62 747.664C1017.4 743.485 1014.86 739.815 1011.38 737.204C1007.9 734.593 1003.66 733.181 999.307 733.181V698.646Z" fill="#FF4800" stroke="white" stroke-width="1.47727" mask="url(#path-193-inside-31_6206_42147)"/>
<mask id="path-194-inside-32_6206_42147" fill="white">
<path d="M949.485 730.82C953.81 721.236 960.808 713.103 969.639 707.397C978.47 701.69 988.76 698.652 999.275 698.646L999.294 733.181C995.422 733.183 991.634 734.302 988.383 736.403C985.131 738.504 982.555 741.498 980.962 745.027L949.485 730.82Z"/>
</mask>
<path d="M949.485 730.82C953.81 721.236 960.808 713.103 969.639 707.397C978.47 701.69 988.76 698.652 999.275 698.646L999.294 733.181C995.422 733.183 991.634 734.302 988.383 736.403C985.131 738.504 982.555 741.498 980.962 745.027L949.485 730.82Z" fill="#D8006F" stroke="white" stroke-width="1.47727" mask="url(#path-194-inside-32_6206_42147)"/>
<path d="M793 666L1368 666" stroke="#CCD6DB"/>
<path d="M925 618L925 852" stroke="#CCD6DB"/>
<path d="M1078 618L1078 852" stroke="#CCD6DB"/>
<path d="M1233 618L1233 852" stroke="#CCD6DB"/>
<text fill="#00141E" style="white-space: pre" xml:space="preserve" font-family="Helvetica Neue" font-size="12" letter-spacing="0px"><tspan x="793" y="651.218">Boston</tspan></text>
<text fill="#00141E" style="white-space: pre" xml:space="preserve" font-family="Helvetica-Neue" font-size="12" letter-spacing="0px"><tspan x="840" y="758.823">49M</tspan></text>
<text fill="#00141E" style="white-space: pre" xml:space="preserve" font-family="Helvetica-Neue" font-size="12" letter-spacing="0px"><tspan x="987" y="758.823">19M</tspan></text>
<text fill="#00141E" style="white-space: pre" xml:space="preserve" font-family="Helvetica-Neue" font-size="12" letter-spacing="0px"><tspan x="1290" y="758.823">121M</tspan></text>
<text fill="#00141E" style="white-space: pre" xml:space="preserve" font-family="Helvetica-Neue" font-size="12" letter-spacing="0px"><tspan x="1137" y="758.823">266K</tspan></text>
<text fill="#00141E" style="white-space: pre" xml:space="preserve" font-family="Helvetica Neue" font-size="12" letter-spacing="0px"><tspan x="934" y="651.218">Canada</tspan></text>
<text fill="#00141E" style="white-space: pre" xml:space="preserve" font-family="Helvetica Neue" font-size="12" letter-spacing="0px"><tspan x="1086.8" y="651.218">San Fransisco</tspan></text>
<text fill="#00141E" style="white-space: pre" xml:space="preserve" font-family="Helvetica Neue" font-size="12" letter-spacing="0px"><tspan x="1242" y="651.218">USA</tspan></text>
<rect width="1440" height="853" transform="translate(0 67)" fill="#282828" fill-opacity="0.4"/>
<rect x="24" y="144" width="228" height="752" rx="15.35" fill="white"/>
<rect x="32.5" y="151.5" width="211" height="54" rx="9.5" stroke="#B3C2C9"/>
<text fill="#1A1A1A" style="white-space: pre" xml:space="preserve" font-family="Helvetica-Neue" font-size="17.018" letter-spacing="0px"><tspan x="75" y="184.918">Sunburst</tspan></text>
<text fill="#1A1A1A" style="white-space: pre" xml:space="preserve" font-family="Font Awesome 5 Pro" font-size="17.4473" letter-spacing="0px"><tspan x="220.048" y="187.266">angle-down</tspan></text>
<mask id="path-213-inside-33_6206_42147" fill="white">
<path d="M56.2252 179C57.7577 179 59.0445 180.278 58.5236 181.72C58.3049 182.324 58.0129 182.904 57.6518 183.445C56.7727 184.76 55.5233 185.786 54.0615 186.391C52.5997 186.997 50.9911 187.155 49.4393 186.846C47.8874 186.538 46.462 185.776 45.3431 184.657C44.2243 183.538 43.4624 182.113 43.1537 180.561C42.845 179.009 43.0035 177.4 43.609 175.939C44.2145 174.477 45.2398 173.227 46.5554 172.348C47.096 171.987 47.6755 171.695 48.2805 171.476C49.7217 170.955 51 172.242 51 173.775V175.106C51 175.903 50.3014 176.52 49.6386 176.963C49.2356 177.232 48.9216 177.614 48.7361 178.062C48.5506 178.51 48.5021 179.003 48.5966 179.478C48.6912 179.953 48.9246 180.39 49.2673 180.733C49.61 181.075 50.0466 181.309 50.5219 181.403C50.9973 181.498 51.49 181.449 51.9377 181.264C52.3855 181.078 52.7682 180.764 53.0375 180.361C53.4804 179.699 54.0967 179 54.8939 179H56.2252Z"/>
</mask>
<path d="M56.2252 179C57.7577 179 59.0445 180.278 58.5236 181.72C58.3049 182.324 58.0129 182.904 57.6518 183.445C56.7727 184.76 55.5233 185.786 54.0615 186.391C52.5997 186.997 50.9911 187.155 49.4393 186.846C47.8874 186.538 46.462 185.776 45.3431 184.657C44.2243 183.538 43.4624 182.113 43.1537 180.561C42.845 179.009 43.0035 177.4 43.609 175.939C44.2145 174.477 45.2398 173.227 46.5554 172.348C47.096 171.987 47.6755 171.695 48.2805 171.476C49.7217 170.955 51 172.242 51 173.775V175.106C51 175.903 50.3014 176.52 49.6386 176.963C49.2356 177.232 48.9216 177.614 48.7361 178.062C48.5506 178.51 48.5021 179.003 48.5966 179.478C48.6912 179.953 48.9246 180.39 49.2673 180.733C49.61 181.075 50.0466 181.309 50.5219 181.403C50.9973 181.498 51.49 181.449 51.9377 181.264C52.3855 181.078 52.7682 180.764 53.0375 180.361C53.4804 179.699 54.0967 179 54.8939 179H56.2252Z" stroke="#595959" stroke-width="3.36842" mask="url(#path-213-inside-33_6206_42147)"/>
<mask id="path-214-inside-34_6206_42147" fill="white">
<path d="M45.7748 179C44.2423 179 42.9555 177.722 43.4764 176.28C43.6951 175.675 43.9871 175.096 44.3482 174.555C45.2273 173.24 46.4767 172.214 47.9385 171.609C49.4003 171.003 51.0089 170.845 52.5607 171.154C54.1126 171.462 55.538 172.224 56.6569 173.343C57.7757 174.462 58.5376 175.887 58.8463 177.439C59.155 178.991 58.9965 180.6 58.391 182.061C57.7855 183.523 56.7602 184.773 55.4446 185.652C54.904 186.013 54.3245 186.305 53.7195 186.524C52.2783 187.045 51 185.758 51 184.225L51 182.894C51 182.097 51.6986 181.48 52.3614 181.037C52.7644 180.768 53.0784 180.386 53.2639 179.938C53.4494 179.49 53.4979 178.997 53.4034 178.522C53.3088 178.047 53.0754 177.61 52.7327 177.267C52.39 176.925 51.9534 176.691 51.4781 176.597C51.0027 176.502 50.51 176.551 50.0623 176.736C49.6145 176.922 49.2318 177.236 48.9625 177.639C48.5196 178.301 47.9033 179 47.1061 179L45.7748 179Z"/>
</mask>
<path d="M45.7748 179C44.2423 179 42.9555 177.722 43.4764 176.28C43.6951 175.675 43.9871 175.096 44.3482 174.555C45.2273 173.24 46.4767 172.214 47.9385 171.609C49.4003 171.003 51.0089 170.845 52.5607 171.154C54.1126 171.462 55.538 172.224 56.6569 173.343C57.7757 174.462 58.5376 175.887 58.8463 177.439C59.155 178.991 58.9965 180.6 58.391 182.061C57.7855 183.523 56.7602 184.773 55.4446 185.652C54.904 186.013 54.3245 186.305 53.7195 186.524C52.2783 187.045 51 185.758 51 184.225L51 182.894C51 182.097 51.6986 181.48 52.3614 181.037C52.7644 180.768 53.0784 180.386 53.2639 179.938C53.4494 179.49 53.4979 178.997 53.4034 178.522C53.3088 178.047 53.0754 177.61 52.7327 177.267C52.39 176.925 51.9534 176.691 51.4781 176.597C51.0027 176.502 50.51 176.551 50.0623 176.736C49.6145 176.922 49.2318 177.236 48.9625 177.639C48.5196 178.301 47.9033 179 47.1061 179L45.7748 179Z" stroke="#595959" stroke-width="3.36842" mask="url(#path-214-inside-34_6206_42147)"/>
<rect x="32.5" y="643.5" width="211" height="98" rx="9.5" fill="#E6EBED" stroke="#B3C2C9"/>
<rect x="43.5" y="694.5" width="113" height="25" rx="9.5" fill="white" stroke="#B3C2C9"/>
<path d="M58.9885 708.02C58.4686 708.02 58.1053 707.506 58.2792 707.016L58.9847 705.028C58.987 705.021 58.9931 705.017 58.9999 705.017C59.0068 705.017 59.013 705.022 59.0152 705.028L59.7004 707.023C59.8683 707.511 59.5052 708.02 58.9885 708.02ZM59.0154 703C58.4612 703 57.9649 703.343 57.7689 703.861L55.4301 710.046C55.2223 710.596 55.6284 711.183 56.216 711.183C56.5724 711.183 56.8901 710.958 57.0085 710.622L57.1318 710.272C57.3241 709.726 57.8399 709.361 58.4188 709.361H59.5506C60.1259 709.361 60.6373 709.727 60.8224 710.272L60.9323 710.596C61.0516 710.947 61.3812 711.183 61.752 711.183C62.3561 711.183 62.7745 710.58 62.5629 710.014L60.2636 703.866C60.0689 703.345 59.5713 703 59.0154 703Z" fill="#007E45"/>
<text fill="#1A1A1A" style="white-space: pre" xml:space="preserve" font-family="Helvetica-Neue" font-size="13.2608" letter-spacing="0px"><tspan x="73" y="711.563">Department</tspan></text>
<path d="M54.8345 666.339C54.652 666.85 54.5115 667.289 54.768 667.802C55.059 668.384 56.6059 667.935 57.1622 667.935C59.2014 667.935 58.416 670.57 57.6203 671.571C55.9341 673.691 52.7471 675.757 50.0092 676.019C45.9879 676.404 42.1652 674.41 42.0064 670.041C41.8833 666.657 43.5526 663.071 45.9302 660.693C46.8878 659.736 47.8264 658.724 49.0633 658.122C51.974 656.705 55.2375 656.748 58.2854 657.597C59.0308 657.805 60.8441 658.786 61.0047 659.629C61.4773 662.11 58.3811 663.315 56.7632 664.418C56.0468 664.906 55.1389 665.487 54.8345 666.339Z" fill="#737373"/>
<circle cx="53.5" cy="659.5" r="1.5" fill="white"/>
<circle cx="48.5" cy="662.5" r="1.5" fill="white"/>
<circle cx="46.5" cy="672.5" r="1.5" fill="white"/>
<circle cx="45.5" cy="667.5" r="1.5" fill="white"/>
<circle cx="51.5" cy="672.5" r="1.5" fill="white"/>
<text fill="#1A1A1A" style="white-space: pre" xml:space="preserve" font-family="Helvetica-Neue" font-size="17.018" letter-spacing="0px"><tspan x="75" y="671.856">Color</tspan></text>
<rect x="32.5" y="370.5" width="211" height="101" rx="9.5" fill="#E6EBED" stroke="#B3C2C9"/>
<rect x="43.5" y="417.5" width="104" height="25" rx="9.5" fill="white" stroke="#B3C2C9"/>
<rect x="43" y="401" width="16" height="16" rx="8" transform="rotate(-90 43 401)" fill="#737373"/>
<rect x="46" y="392" width="2" height="10" rx="1" transform="rotate(-90 46 392)" fill="white"/>
<rect x="54" y="429" width="2" height="10" rx="1" transform="rotate(-90 54 429)" fill="#FF4800"/>
<rect x="46" y="396" width="2" height="10" rx="1" transform="rotate(-90 46 396)" fill="white"/>
<rect x="54" y="433" width="2" height="10" rx="1" transform="rotate(-90 54 433)" fill="#FF4800"/>
<rect x="52" y="388" width="2" height="10" rx="1" fill="white"/>
<rect x="60" y="425" width="2" height="10" rx="1" fill="#FF4800"/>
<rect x="48" y="388" width="2" height="10" rx="1" fill="white"/>
<rect x="56" y="425" width="2" height="10" rx="1" fill="#FF4800"/>
<text fill="#1A1A1A" style="white-space: pre" xml:space="preserve" font-family="Helvetica-Neue" font-size="17.018" letter-spacing="0px"><tspan x="75" y="398.856">Values (Slice Size)</tspan></text>
<text fill="#1A1A1A" style="white-space: pre" xml:space="preserve" font-family="Helvetica-Neue" font-size="13.2608" letter-spacing="0px"><tspan x="73" y="434.563">Expenses</tspan></text>
<rect x="32.5" y="762.5" width="211" height="127" rx="9.5" fill="#E6EBED" stroke="#B3C2C9"/>
<text fill="#737373" style="white-space: pre" xml:space="preserve" font-family="Font Awesome 5 Pro" font-size="16" font-weight="900" letter-spacing="0px"><tspan x="43" y="791">filter</tspan></text>
<rect x="43.5" y="809.5" width="91" height="25" rx="9.5" fill="white" stroke="#B3C2C9"/>
<rect x="43.5" y="844.5" width="108" height="25" rx="9.5" fill="white" stroke="#B3C2C9"/>
<rect x="54" y="856" width="2" height="10" rx="1" transform="rotate(-90 54 856)" fill="#FF4800"/>
<rect x="54" y="860" width="2" height="10" rx="1" transform="rotate(-90 54 860)" fill="#FF4800"/>
<rect x="60" y="852" width="2" height="10" rx="1" fill="#FF4800"/>
<rect x="56" y="852" width="2" height="10" rx="1" fill="#FF4800"/>
<path d="M58.9885 823.02C58.4686 823.02 58.1053 822.506 58.2792 822.016L58.9847 820.028C58.987 820.021 58.9931 820.017 58.9999 820.017C59.0068 820.017 59.013 820.022 59.0152 820.028L59.7004 822.023C59.8683 822.511 59.5052 823.02 58.9885 823.02ZM59.0154 818C58.4612 818 57.9649 818.343 57.7689 818.861L55.4301 825.046C55.2223 825.596 55.6284 826.183 56.216 826.183C56.5724 826.183 56.8901 825.958 57.0085 825.622L57.1318 825.272C57.3241 824.726 57.8399 824.361 58.4188 824.361H59.5506C60.1259 824.361 60.6373 824.727 60.8224 825.272L60.9323 825.596C61.0516 825.947 61.3812 826.183 61.752 826.183C62.3561 826.183 62.7745 825.58 62.5629 825.014L60.2636 818.866C60.0689 818.345 59.5713 818 59.0154 818Z" fill="#007E45"/>
<text fill="#1A1A1A" style="white-space: pre" xml:space="preserve" font-family="Helvetica-Neue" font-size="17.018" letter-spacing="0px"><tspan x="75" y="790.856">Filters</tspan></text>
<text fill="#1A1A1A" style="white-space: pre" xml:space="preserve" font-family="Helvetica-Neue" font-size="13.2608" letter-spacing="0px"><tspan x="73" y="826.563">Journal</tspan></text>
<text fill="#1A1A1A" style="white-space: pre" xml:space="preserve" font-family="Helvetica-Neue" font-size="13.2608" letter-spacing="0px"><tspan x="73" y="861.563">Expenses</tspan></text>
<rect x="32.5" y="224.5" width="211" height="52" rx="9.5" stroke="#B3C2C9" stroke-dasharray="2 2"/>
<text fill="#1A1A1A" style="white-space: pre" xml:space="preserve" font-family="Helvetica-Neue" font-size="17.018" letter-spacing="0px"><tspan x="75" y="256.856">Trellis Columns</tspan></text>
<rect x="43" y="248" width="4" height="12" rx="2" fill="#737373"/>
<rect x="43" y="242" width="4" height="4" rx="2" fill="#737373"/>
<rect x="49" y="248" width="4" height="12" rx="2" fill="#737373"/>
<rect x="49" y="242" width="4" height="4" rx="2" fill="#737373"/>
<rect x="55" y="248" width="4" height="12" rx="2" fill="#737373"/>
<rect x="55" y="242" width="4" height="4" rx="2" fill="#737373"/>
<rect x="32.5" y="297.5" width="211" height="52" rx="9.5" stroke="#B3C2C9" stroke-dasharray="2 2"/>
<text fill="#1A1A1A" style="white-space: pre" xml:space="preserve" font-family="Helvetica-Neue" font-size="17.018" letter-spacing="0px"><tspan x="75" y="330.856">Trellis Rows</tspan></text>
<rect x="49" y="333" width="4" height="10" rx="2" transform="rotate(-90 49 333)" fill="#737373"/>
<rect x="43" y="333" width="4" height="4" rx="2" transform="rotate(-90 43 333)" fill="#737373"/>
<rect x="49" y="327" width="4" height="10" rx="2" transform="rotate(-90 49 327)" fill="#737373"/>
<rect x="43" y="327" width="4" height="4" rx="2" transform="rotate(-90 43 327)" fill="#737373"/>
<rect x="49" y="321" width="4" height="10" rx="2" transform="rotate(-90 49 321)" fill="#737373"/>
<rect x="43" y="321" width="4" height="4" rx="2" transform="rotate(-90 43 321)" fill="#737373"/>
<rect x="32.5" y="492.5" width="211" height="130" rx="9.5" fill="#E6EBED" stroke="#B3C2C9"/>
<rect x="43.5" y="539.5" width="75" height="25" rx="9.5" fill="white" stroke="#B3C2C9"/>
<rect x="43.5" y="574.5" width="99" height="25" rx="9.5" fill="white" stroke="#B3C2C9"/>
<path d="M58.9885 553.02C58.4686 553.02 58.1053 552.506 58.2792 552.016L58.9847 550.028C58.987 550.021 58.9931 550.017 58.9999 550.017C59.0068 550.017 59.013 550.022 59.0152 550.028L59.7004 552.023C59.8683 552.511 59.5052 553.02 58.9885 553.02ZM59.0154 548C58.4612 548 57.9649 548.343 57.7689 548.861L55.4301 555.046C55.2223 555.596 55.6284 556.183 56.216 556.183C56.5724 556.183 56.8901 555.958 57.0085 555.622L57.1318 555.272C57.3241 554.726 57.8399 554.361 58.4188 554.361H59.5506C60.1259 554.361 60.6373 554.727 60.8224 555.272L60.9323 555.596C61.0516 555.947 61.3812 556.183 61.752 556.183C62.3561 556.183 62.7745 555.58 62.5629 555.014L60.2636 548.866C60.0689 548.345 59.5713 548 59.0154 548Z" fill="#007E45"/>
<path d="M58.9885 588.02C58.4686 588.02 58.1053 587.506 58.2792 587.016L58.9847 585.028C58.987 585.021 58.9931 585.017 58.9999 585.017C59.0068 585.017 59.013 585.022 59.0152 585.028L59.7004 587.023C59.8683 587.511 59.5052 588.02 58.9885 588.02ZM59.0154 583C58.4612 583 57.9649 583.343 57.7689 583.861L55.4301 590.046C55.2223 590.596 55.6284 591.183 56.216 591.183C56.5724 591.183 56.8901 590.958 57.0085 590.622L57.1318 590.272C57.3241 589.726 57.8399 589.361 58.4188 589.361H59.5506C60.1259 589.361 60.6373 589.727 60.8224 590.272L60.9323 590.596C61.0516 590.947 61.3812 591.183 61.752 591.183C62.3561 591.183 62.7745 590.58 62.5629 590.014L60.2636 583.866C60.0689 583.345 59.5713 583 59.0154 583Z" fill="#007E45"/>
<rect x="43" y="523" width="16" height="16" rx="8" transform="rotate(-90 43 523)" fill="#737373"/>
<text fill="#1A1A1A" style="white-space: pre" xml:space="preserve" font-family="Helvetica-Neue" font-size="17.018" letter-spacing="0px"><tspan x="75" y="520.856">Category (Slices)</tspan></text>
<text fill="#1A1A1A" style="white-space: pre" xml:space="preserve" font-family="Helvetica-Neue" font-size="13.2608" letter-spacing="0px"><tspan x="73" y="556.563">Year</tspan></text>
<text fill="#1A1A1A" style="white-space: pre" xml:space="preserve" font-family="Helvetica-Neue" font-size="13.2608" letter-spacing="0px"><tspan x="73" y="591.563">Location</tspan></text>
<path d="M50.9885 515.95C50.4686 515.95 50.1053 515.435 50.2792 514.945L50.9847 512.958C50.987 512.951 50.9931 512.947 50.9999 512.947C51.0068 512.947 51.013 512.951 51.0152 512.958L51.7004 514.953C51.8683 515.441 51.5052 515.95 50.9885 515.95ZM51.0154 510.93C50.4612 510.93 49.9649 511.273 49.7689 511.791L47.4301 517.976C47.2223 518.525 47.6284 519.113 48.216 519.113C48.5724 519.113 48.8901 518.888 49.0085 518.552L49.1318 518.202C49.3241 517.656 49.8399 517.291 50.4188 517.291H51.5506C52.1259 517.291 52.6373 517.657 52.8224 518.202L52.9323 518.526C53.0516 518.877 53.3812 519.113 53.752 519.113C54.3561 519.113 54.7745 518.51 54.5629 517.944L52.2636 511.796C52.0689 511.275 51.5713 510.93 51.0154 510.93Z" fill="white"/>
</g>
<defs>
<radialGradient id="paint0_radial_6206_42147" cx="0" cy="0" r="1" gradientTransform="matrix(10.5 9.5 -7.88115 9.9214 1295.5 28)" gradientUnits="userSpaceOnUse">
<stop offset="0.341666" stop-color="#9D60FF"/>
<stop offset="0.72" stop-color="#00D6DE"/>
<stop offset="0.896666" stop-color="#00D639"/>
</radialGradient>
<linearGradient id="paint1_linear_6206_42147" x1="1282.5" y1="54" x2="1294.47" y2="25.5352" gradientUnits="userSpaceOnUse">
<stop stop-color="#00D639"/>
<stop offset="0.4" stop-color="#00D6DE"/>
<stop offset="0.9" stop-color="#9D60FF"/>
</linearGradient>
<clipPath id="clip0_6206_42147">
<rect width="1440" height="920" rx="20" fill="white"/>
</clipPath>
<clipPath id="clip1_6206_42147">
<rect width="1440" height="69.3333" fill="white"/>
</clipPath>
<clipPath id="clip2_6206_42147">
<rect width="333.333" height="53.3333" fill="white" transform="translate(130.667 66.8335)"/>
</clipPath>
<clipPath id="clip3_6206_42147">
<rect x="275" y="530" width="433" height="366" rx="15.3458" fill="white"/>
</clipPath>
</defs>
</svg>
