<svg width="1440" height="920" viewBox="0 0 1440 920" fill="none" xmlns="http://www.w3.org/2000/svg">
<g clip-path="url(#clip0_6206_43323)">
<rect width="1440" height="920" rx="20" fill="white"/>
<rect width="1440" height="800" transform="translate(0 120)" fill="#F2F5F6"/>
<rect width="1440" height="800" transform="translate(0 120)" fill="#D9E0E4"/>
<g clip-path="url(#clip1_6206_43323)">
<rect width="1440" height="69.3333" fill="black"/>
</g>
<line y1="68.6668" x2="1440" y2="68.6668" stroke="#D9E0E4" stroke-width="1.33333"/>
<path fill-rule="evenodd" clip-rule="evenodd" d="M38.407 21.8499C38.3184 17.282 34.3793 14 29.5459 14C24.7076 14 21 17.5486 21 22.0721C21 27.0835 24.5726 28.9027 28.8683 30.4138C32.7118 31.7452 34.5655 32.9422 34.5655 35.7808C34.5655 38.0869 32.7118 39.9941 29.9084 39.9941C27.24 39.9941 24.8888 38.1758 24.8888 35.3373C24.8888 34.4213 25.141 33.9003 25.3564 33.4554C25.5169 33.1236 25.6571 32.834 25.6571 32.4543C25.6571 31.4301 24.9341 30.6766 23.758 30.6766C22.4017 30.6766 21 32.6726 21 35.5111C21 40.079 25.0278 43.4499 29.9084 43.4479C34.8817 43.4479 38.4544 39.8548 38.4544 35.3758C38.4544 30.2311 34.7015 28.5007 30.5861 27.037C26.7396 25.6642 24.8888 24.4691 24.8868 21.762C24.8868 19.278 26.8806 17.4598 29.4986 17.4598C32.3029 17.4598 34.5182 19.3709 34.5635 21.9388C34.6088 23.1368 35.4678 23.8459 36.4626 23.8459C37.5008 23.8459 38.4524 23.1338 38.407 21.8499ZM40.3262 34.7121C40.3262 39.5911 44.3963 43.4499 49.28 43.4499C51.45 43.4499 53.1235 42.7397 53.1235 41.3649C53.1235 40.3447 52.2193 39.6355 51.3603 39.6355C51.0827 39.6355 50.8399 39.6866 50.5672 39.7439C50.2177 39.8174 49.8189 39.9012 49.2347 39.9012C46.4303 39.9012 44.2151 37.5062 44.2151 34.7121C44.2151 31.6968 46.4767 29.3462 49.3253 29.3462C52.5354 29.3462 54.5705 31.7412 54.5705 35.2444V41.5872C54.5705 42.6953 55.4747 43.4499 56.5602 43.4499C57.5984 43.4499 58.5046 42.6953 58.5046 41.5872V35.1111C58.5046 29.7896 54.7527 25.8864 49.4159 25.8864C44.4416 25.8864 40.3262 29.6563 40.3262 34.7121ZM69.6465 56.6667C64.5815 56.6667 60.3765 53.118 60.3765 48.5057C60.3765 46.9531 61.2828 46.2439 62.321 46.2439C63.3591 46.2439 64.22 46.9096 64.2654 48.1955C64.3107 51.0785 66.6619 53.2069 69.6022 53.2069C72.7237 53.2069 74.7567 51.2553 74.7567 48.7279C74.7567 45.8449 72.4961 44.6469 68.6526 43.4499C64.1757 42.0306 60.3776 40.079 60.3776 34.6676C60.3776 29.7007 64.2664 25.8864 69.3313 25.8864C74.4405 25.8864 78.6455 29.5229 78.6455 34.3131C78.6455 37.2405 77.4251 39.5022 75.7516 39.5022C74.6218 39.5022 73.8525 38.7042 73.8525 37.7244C73.8525 37.2875 74.0187 36.9564 74.2088 36.5777C74.4625 36.0722 74.7587 35.482 74.7587 34.4425C74.7587 31.3807 72.3179 29.3422 69.3786 29.3422C66.529 29.3422 64.2684 31.4706 64.2684 34.2647C64.2684 37.4143 66.5743 38.7447 70.3735 39.9862C74.7587 41.4054 78.6475 43.1793 78.6475 48.3684C78.6475 53.0262 74.8947 56.6647 69.6495 56.6647L69.6465 56.6667ZM80.5175 34.6677C80.5175 39.5467 84.6772 43.4499 89.7421 43.4499H89.7451C92.2776 43.4499 94.3126 42.7842 95.669 41.9418C97.0253 41.0993 97.5681 40.3892 97.5681 39.5911C97.5681 38.7487 96.9317 37.9941 95.7556 37.9941C95.2093 37.9941 94.7043 38.2973 94.088 38.6673C93.1228 39.2468 91.8847 39.9902 89.7874 39.9902C89.0767 39.991 88.3729 39.8535 87.7167 39.5858C87.0605 39.3181 86.4649 38.9253 85.9645 38.4303C85.464 37.9354 85.0686 37.3479 84.8012 36.7021C84.5337 36.0562 84.3995 35.3648 84.4063 34.6677C84.4063 31.7413 86.7575 29.3018 89.6515 29.3018C92.772 29.3018 94.4445 31.2998 94.4445 32.5837C94.4445 32.9383 94.1736 33.1161 93.8111 33.1161H89.9223C88.8791 33.1161 88.1098 33.8232 88.1098 34.7121C88.1098 35.6435 88.8832 36.3536 89.9223 36.3536H95.1232C97.1129 36.3536 98.3333 35.3334 98.3333 33.6484C98.3333 29.3018 94.5351 25.8865 89.5155 25.8865C88.3361 25.8809 87.1672 26.1038 86.0759 26.5426C84.9846 26.9814 83.9923 27.6273 83.1563 28.4432C82.3202 29.2592 81.6567 30.2291 81.2038 31.2973C80.751 32.3654 80.5177 33.5108 80.5175 34.6677Z" fill="#00D639"/>
<line x1="120.331" y1="14" x2="120.331" y2="56.6667" stroke="#5E5E5E" stroke-width="1.33333"/>
<text fill="white" fill-opacity="0.9" style="white-space: pre" xml:space="preserve" font-family="Sage UI" font-size="24" font-weight="500" letter-spacing="0px"><tspan x="139" y="42.8">Intacct</tspan></text>
<path d="M1305.38 34.1L1303.27 34.75C1302.52 34.98 1301.94 35.57 1301.71 36.31L1301.06 38.42C1300.68 39.67 1298.91 39.67 1298.53 38.42L1297.88 36.31C1297.65 35.56 1297.06 34.98 1296.32 34.75L1294.21 34.1C1292.96 33.72 1292.96 31.95 1294.21 31.57L1296.32 30.92C1297.07 30.69 1297.65 30.1 1297.88 29.36L1298.53 27.25C1298.91 26 1300.68 26 1301.06 27.25L1301.71 29.36C1301.94 30.11 1302.53 30.69 1303.27 30.92L1305.38 31.57C1306.63 31.95 1306.63 33.72 1305.38 34.1Z" fill="url(#paint0_radial_6206_43323)"/>
<path d="M1280.62 15.79C1286.81 15.79 1291.85 20.07 1291.96 26.03C1292.02 27.71 1290.8 28.63 1289.47 28.63C1288.14 28.63 1287.1 27.7 1287.04 26.14C1286.98 22.78 1284.15 20.29 1280.56 20.29C1277.2 20.29 1274.66 22.66 1274.66 25.9C1274.66 29.43 1277.03 30.99 1281.95 32.79C1287.22 34.7 1292.02 36.96 1292.02 43.67C1292.02 49.52 1287.45 54.2 1281.08 54.2C1274.71 54.2 1269.68 49.8 1269.68 43.84C1269.68 40.14 1271.47 37.53 1273.21 37.53C1274.72 37.53 1275.64 38.51 1275.64 39.84C1275.64 41 1274.66 41.52 1274.66 43.6C1274.66 47.3 1277.67 49.68 1281.08 49.68C1284.67 49.68 1287.04 47.19 1287.04 44.18C1287.04 40.48 1284.67 38.91 1279.75 37.18C1274.25 35.21 1269.68 32.84 1269.68 26.3C1269.68 20.4 1274.42 15.77 1280.62 15.77V15.79Z" fill="url(#paint1_linear_6206_43323)"/>
<text fill="white" fill-opacity="0.9" style="white-space: pre" xml:space="preserve" font-family="Sage UI" font-size="24" font-weight="500" letter-spacing="0px"><tspan x="1316" y="43.3">Copilot</tspan></text>
<rect width="1440" height="53" transform="translate(0 67)" fill="white"/>
<rect width="65.3333" height="53.3333" transform="translate(0 66.833)" fill="white"/>
<text fill="black" style="white-space: pre" xml:space="preserve" font-family="Font Awesome 5 Pro" font-size="21.3333" font-weight="900" letter-spacing="0px"><tspan x="20" y="101.166">star</tspan></text>
<path d="M64.6667 67.4997V119.532" stroke="#595959" stroke-width="1.33333" stroke-linecap="square"/>
<rect width="65.3333" height="53.3333" transform="translate(65.333 66.833)" fill="white"/>
<text fill="black" style="white-space: pre" xml:space="preserve" font-family="Font Awesome 5 Pro" font-size="21.3333" font-weight="900" letter-spacing="0px"><tspan x="85.333" y="101.166">home</tspan></text>
<path d="M130 67.4997V119.532" stroke="#595959" stroke-width="1.33333" stroke-linecap="square"/>
<g clip-path="url(#clip2_6206_43323)">
<rect width="333.333" height="53.3333" transform="translate(130.667 66.833)" fill="white"/>
<text fill="#00141E" style="white-space: pre" xml:space="preserve" font-family="Helvetica-Neue" font-size="18.6667" letter-spacing="0px"><tspan x="157.334" y="100.322">Dashboards IVE:CFO-IVE</tspan></text>
<text fill="black" style="white-space: pre" xml:space="preserve" font-family="Font Awesome 5 Pro" font-size="18.6667" letter-spacing="0px"><tspan x="424.168" y="100.333">&#xf107;</tspan></text>
<path d="M463.334 67.4997V119.532" stroke="#595959" stroke-width="1.33333" stroke-linecap="square"/>
</g>
<rect x="24" y="144" width="684" height="366" rx="15.3458" fill="white"/>
<rect x="24" y="208" width="684" height="302" fill="#F2F5F6"/>
<text fill="#1A1A1A" style="white-space: pre" xml:space="preserve" font-family="Helvetica-Neue" font-size="17.018" letter-spacing="0px"><tspan x="47" y="184.856">Revenue by Billing Method</tspan></text>
<rect x="683.953" y="182.643" width="55.9515" height="6.71418" rx="3.35709" transform="rotate(-180 683.953 182.643)" fill="#CCD6DB"/>
<path d="M211.85 300.063C200.651 313.393 193.482 329.638 191.184 346.896C188.886 364.154 191.553 381.709 198.873 397.505C206.193 413.302 217.862 426.685 232.515 436.088C247.167 445.491 264.196 450.523 281.606 450.596C299.016 450.669 316.086 445.779 330.817 436.5C345.548 427.22 357.329 413.935 364.781 398.201C372.233 382.466 375.048 364.934 372.894 347.658C370.74 330.381 363.708 314.077 352.622 300.653L281.99 358.989L211.85 300.063Z" fill="#D8006F"/>
<path d="M274.085 267.722C262.099 268.76 250.436 272.147 239.76 277.692C229.084 283.237 219.605 290.831 211.863 300.039L281.984 358.988L274.085 267.722Z" fill="#007C99"/>
<path d="M313.663 273.031C300.92 268.336 287.293 266.532 273.768 267.751L281.99 358.989L313.663 273.031Z" fill="#00A06B"/>
<path d="M352.871 300.957C346.681 293.397 339.322 286.875 331.071 281.64L281.989 358.99L352.871 300.957Z" fill="#FF4800"/>
<path d="M324.052 277.61C320.688 275.872 317.219 274.343 313.667 273.034L281.986 358.989L324.052 277.61Z" fill="#4275FF"/>
<path d="M331.523 281.929C329.098 280.37 326.601 278.926 324.039 277.603L281.989 358.989L331.523 281.929Z" fill="#FF4800"/>
<rect x="428.336" y="432.248" width="10.0545" height="10.0545" fill="#FF4800"/>
<rect x="428.336" y="401.023" width="10.0545" height="10.0545" fill="#4275FF"/>
<rect x="428.336" y="369.797" width="10.0545" height="10.0545" fill="#F49C00"/>
<rect x="428.336" y="338.57" width="10.0545" height="10.0545" fill="#00A06B"/>
<rect x="428.336" y="307.344" width="10.0545" height="10.0545" fill="#007C99"/>
<rect x="428.336" y="276.117" width="10.0545" height="10.0545" fill="#D8006F"/>
<text fill="#00141E" style="white-space: pre" xml:space="preserve" font-family="Helvetica Neue" font-size="13.406" letter-spacing="0px"><tspan x="447.907" y="285.812">50-30-20</tspan></text>
<text fill="#00141E" style="white-space: pre" xml:space="preserve" font-family="Helvetica Neue" font-size="13.406" letter-spacing="0px"><tspan x="448.518" y="317.038">Annual 3 Years</tspan></text>
<text fill="#00141E" style="white-space: pre" xml:space="preserve" font-family="Helvetica Neue" font-size="13.406" letter-spacing="0px"><tspan x="448.476" y="348.265">Midterm - 3 Months</tspan></text>
<text fill="#00141E" style="white-space: pre" xml:space="preserve" font-family="Helvetica Neue" font-size="13.406" letter-spacing="0px"><tspan x="448.476" y="379.491">Midterm - 6 Months</tspan></text>
<text fill="#00141E" style="white-space: pre" xml:space="preserve" font-family="Helvetica Neue" font-size="13.406" letter-spacing="0px"><tspan x="448.476" y="410.718">Midterm - 9 Months</tspan></text>
<text fill="#00141E" style="white-space: pre" xml:space="preserve" font-family="Helvetica Neue" font-size="13.406" letter-spacing="0px"><tspan x="448.767" y="441.943">One time</tspan></text>
<rect x="24" y="530" width="684" height="366" rx="15.3458" fill="white"/>
<rect x="24" y="594" width="684" height="302" fill="#F2F5F6"/>
<text fill="#1A1A1A" style="white-space: pre" xml:space="preserve" font-family="Helvetica-Neue" font-size="17.018" letter-spacing="0px"><tspan x="47" y="568.856">Revenue by Customer Rep</tspan></text>
<rect x="592" y="560.035" width="52" height="5" rx="2.5" fill="#CCD6DB"/>
<rect x="661.417" y="559.74" width="20.125" height="5.59028" rx="2.79514" fill="#CCD6DB"/>
<path d="M404.904 728.384C408.026 745.632 406.148 763.412 399.493 779.627C392.838 795.843 381.683 809.816 367.345 819.898L327.493 763.222C331.018 760.743 333.761 757.308 335.397 753.321C337.033 749.335 337.495 744.963 336.728 740.722L404.904 728.384Z" fill="#00821F"/>
<path d="M367.359 819.889C355.185 828.452 341.114 833.929 326.355 835.85C311.596 837.77 296.591 836.076 282.632 830.913C268.673 825.75 256.177 817.273 246.219 806.211C236.262 795.149 229.141 781.834 225.469 767.41L292.612 750.318C293.514 753.864 295.265 757.138 297.713 759.858C300.162 762.577 303.234 764.661 306.666 765.931C310.098 767.2 313.787 767.617 317.416 767.145C321.044 766.672 324.504 765.326 327.497 763.221L367.359 819.889Z" fill="#FFB500"/>
<path d="M225.636 768.058C222.06 754.427 221.668 740.156 224.49 726.349C227.312 712.543 233.272 699.57 241.909 688.436C250.546 677.301 261.629 668.302 274.301 662.136C286.972 655.97 300.892 652.801 314.984 652.875L314.62 722.158C311.155 722.14 307.733 722.919 304.618 724.435C301.502 725.951 298.777 728.163 296.654 730.901C294.53 733.639 293.065 736.828 292.371 740.223C291.677 743.617 291.774 747.126 292.653 750.477L225.636 768.058Z" fill="#EF6700"/>
<path d="M314.927 652.878C336.379 652.978 357.119 660.582 373.552 674.372C389.985 688.161 401.075 707.267 404.898 728.376L336.723 740.723C335.783 735.533 333.057 730.836 329.016 727.446C324.976 724.056 319.877 722.186 314.603 722.161L314.927 652.878Z" fill="#007C99"/>
<rect x="460" y="789.27" width="9" height="9" fill="#E96400"/>
<rect x="460" y="760.27" width="9" height="9" fill="#FFB500"/>
<rect x="460" y="731.27" width="9" height="9" fill="#00B000"/>
<rect x="460" y="702.27" width="9" height="9" fill="#007C99"/>
<text fill="#00141E" style="white-space: pre" xml:space="preserve" font-family="Helvetica Neue" font-size="12" letter-spacing="0px"><tspan x="475.742" y="710.678">1006</tspan></text>
<text fill="#00141E" style="white-space: pre" xml:space="preserve" font-family="Helvetica Neue" font-size="12" letter-spacing="0px"><tspan x="475.742" y="739.678">1007</tspan></text>
<text fill="#00141E" style="white-space: pre" xml:space="preserve" font-family="Helvetica Neue" font-size="12" letter-spacing="0px"><tspan x="475.742" y="768.678">1008</tspan></text>
<text fill="#00141E" style="white-space: pre" xml:space="preserve" font-family="Helvetica Neue" font-size="12" letter-spacing="0px"><tspan x="475.742" y="797.678">1012</tspan></text>
<rect x="732" y="144" width="684" height="366" rx="15.3458" fill="white"/>
<rect x="732" y="208" width="684" height="302" fill="#F2F5F6"/>
<text fill="#1A1A1A" style="white-space: pre" xml:space="preserve" font-family="Helvetica-Neue" font-size="17.018" letter-spacing="0px"><tspan x="755" y="184.856">Revenue by Billing Method - By Customer Industry</tspan></text>
<rect x="1367.47" y="172.74" width="20.125" height="5.59028" rx="2.79514" fill="#CCD6DB"/>
<circle cx="1133.93" cy="358.949" r="87.8099" fill="#00821F"/>
<path d="M1011.76 358.949C1011.76 370.48 1009.49 381.898 1005.08 392.552C1000.66 403.206 994.195 412.886 986.041 421.04L939.216 374.214C941.221 372.21 942.811 369.83 943.896 367.21C944.981 364.591 945.54 361.784 945.54 358.949H1011.76Z" fill="#00821F"/>
<path d="M986.162 420.919C969.727 437.419 947.411 446.714 924.122 446.76C900.834 446.806 878.481 437.599 861.981 421.164C845.481 404.729 836.185 382.412 836.139 359.124C836.094 335.835 845.301 313.482 861.736 296.982L908.653 343.715C904.613 347.772 902.349 353.267 902.36 358.993C902.371 364.719 904.657 370.206 908.714 374.246C912.77 378.287 918.266 380.551 923.992 380.54C929.718 380.528 935.204 378.243 939.245 374.186L986.162 420.919Z" fill="#FFB500"/>
<path d="M861.412 297.309C874.333 284.2 891.047 275.483 909.192 272.39L920.321 337.668C915.86 338.429 911.751 340.572 908.574 343.795L861.412 297.309Z" fill="#EF6700"/>
<path d="M909.201 272.39C921.799 270.243 934.715 270.871 947.045 274.232C959.376 277.593 970.824 283.605 980.59 291.848C990.357 300.091 998.206 310.367 1003.59 321.958C1008.97 333.548 1011.76 346.175 1011.76 358.955L945.543 358.952C945.543 355.81 944.857 352.706 943.533 349.856C942.21 347.007 940.28 344.48 937.879 342.453C935.477 340.427 932.663 338.949 929.631 338.122C926.599 337.296 923.424 337.142 920.327 337.669L909.201 272.39Z" fill="#007C99"/>
<rect x="1255.77" y="409.508" width="11.4535" height="11.4535" fill="#E96400"/>
<rect x="1255.77" y="375.33" width="11.4535" height="11.4535" fill="#FFB500"/>
<rect x="1255.77" y="341.15" width="11.4535" height="11.4535" fill="#00B000"/>
<rect x="1255.77" y="306.971" width="11.4535" height="11.4535" fill="#007C99"/>
<text fill="#00141E" style="white-space: pre" xml:space="preserve" font-family="Helvetica Neue" font-size="12" letter-spacing="0px"><tspan x="1275.81" y="317.107">Finance</tspan></text>
<text fill="#00141E" style="white-space: pre" xml:space="preserve" font-family="Helvetica Neue" font-size="12" letter-spacing="0px"><tspan x="1275.81" y="351.107">Healthcare</tspan></text>
<text fill="#00141E" style="white-space: pre" xml:space="preserve" font-family="Helvetica Neue" font-size="12" letter-spacing="0px"><tspan x="1275.81" y="385.107">Insurance</tspan></text>
<text fill="#00141E" style="white-space: pre" xml:space="preserve" font-family="Helvetica Neue" font-size="12" letter-spacing="0px"><tspan x="1275.81" y="419.107">Manufacturing</tspan></text>
<rect x="732" y="530" width="684" height="366" rx="15.3458" fill="white"/>
<g clip-path="url(#clip3_6206_43323)">
<rect x="732" y="594" width="684" height="302" fill="#F2F5F6"/>
<g clip-path="url(#clip4_6206_43323)">
<path d="M1164.42 815.962L1164.39 815.898L1160.46 808.498L1160.41 808.398L1160.3 808.361L1158.68 807.783L1158.51 807.722L1157.02 809.207V811.915L1154.81 816.112L1154.15 816.196L1153.54 815.793L1153.48 815.751L1153.4 815.745L1151.9 815.63L1151.81 815.623L1151.74 815.665L1151.07 816.037L1146.04 778.093L1147.54 700.639L1147.54 700.55L1147.5 700.476L1146.25 698.566L1198.38 694.004L1213.23 746.733L1213.24 746.757L1213.25 746.779L1216.6 753.832L1216.62 753.874L1216.65 753.907L1218.66 756.021V759.771L1218.8 759.854L1220.65 760.943L1220.84 761.98L1218.35 766.283L1218.32 766.34L1218.31 766.404L1217.96 770.663L1217.39 773.658L1217.37 773.744L1217.41 773.825L1220.15 780.349L1219.47 787.561L1219.46 787.625L1219.48 787.686L1220.06 789.305L1220.08 789.365L1220.13 789.412L1221.81 791.098L1222.49 793.234L1166.42 799.096L1166.2 799.118L1166.16 799.334L1165.58 802.688L1165.56 802.824L1165.65 802.929L1168.54 806.166L1168.59 806.216L1168.65 806.241L1170.54 807.021L1171.47 808.26L1171.02 816.436L1169.92 817.04L1164.3 818.872L1161.47 819.195L1164.3 817.315L1164.42 817.229V815.962Z" fill="#D0D0D0" stroke="white" stroke-width="0.578159"/>
<path d="M1103.95 665.797V668.124L1102.08 669.772L1102.04 669.806L1102.02 669.851L1098.78 675.748L1098.53 676.213L1099.06 676.175L1111.75 675.269L1111.82 675.703L1111.84 675.821L1111.93 675.891L1113.34 676.895L1113.09 677.332H1111.24V678.319L1111.32 678.403L1112.29 679.373L1112.36 679.919L1111.02 680.11L1110.89 680.129L1110.82 680.243L1110.31 681.051L1108.6 681.266L1108.5 681.278L1108.43 681.349L1107.39 682.389L1107.22 682.557L1107.35 682.754L1108.05 683.794L1108.14 683.938L1108.31 683.922L1109.4 683.823L1109.77 684.487L1108.1 685.838L1107.96 685.956L1108.01 686.137L1108.34 687.37L1106.52 686.826L1106.2 686.729L1106.15 687.062L1106.04 687.871L1106.02 687.943L1106.05 688.012L1106.48 689.205L1106.24 690.342L1105.08 689.632L1104.89 689.513L1103.37 691.035L1103.98 691.091L1105.01 691.184L1105.1 692.583L1104.45 693.661L1104.33 693.875L1104.52 694.033L1105.66 694.964L1105.34 696.528L1105.31 696.692L1105.44 696.803L1106.17 697.44L1105.64 698.193L1104.47 697.705L1104.2 697.594L1104.09 697.863L1103.09 700.299L1101.35 701.061L1101.14 701.15L1101.18 701.372L1101.72 704.713L1099.87 705.33L1099.78 705.36L1099.72 705.44L1096.14 710.644L1096.08 710.726L1096.09 710.824L1096.43 716.688L1094.89 717.919H1092.62L1092.54 718.071L1089.18 724.315L1089.09 724.482L1089.21 724.631L1090.42 726.171V726.812L1086.66 728.585L1086.53 728.644L1086.5 728.778L1084.53 736.988L1084.49 737.154L1084.62 737.27L1085.71 738.271L1084.21 739.116L1084.04 739.214L1084.07 739.409L1084.18 740.219L1084.2 740.35L1084.31 740.421L1086.14 741.606V742.232L1085.21 742.956L1085.07 743.069L1085.11 743.248L1085.69 745.792L1085.7 745.843L1085.73 745.887L1087.4 748.45L1086.85 751.734L1085.6 753.306L1025.55 754.798L1025.32 741.329L1025.32 741.107L1025.1 741.054L1021.4 740.129L1021.3 740.104L1021.21 740.147L1018.14 741.57L1015.38 739.124L1016.19 694.162V694.135L1016.18 694.108L1011.5 666.225L1056.37 665.422H1056.38L1102.24 663.117L1103.95 665.797Z" fill="#D0D0D0" stroke="white" stroke-width="0.578159"/>
<path d="M786.445 540.538L786.456 540.539L829.817 544.471H829.823L867.811 547.225L866.211 572.492L860.68 649.68L841.887 648.541H841.886L782.117 642.991L721.59 635.512L734.812 533.983L786.445 540.538Z" fill="#D0D0D0" stroke="white" stroke-width="0.578159"/>
<mask id="path-79-inside-1_6206_43323" fill="white">
<path d="M1297 790.825L1292.37 790.015L1290.41 788.975L1287.86 790.593V793.484L1289.48 795.913L1288.9 800.885L1286.48 801.578L1285.32 800.307L1284.63 796.606L1226.69 800.422L1222.88 793.484L1166.45 799.381L1165.87 802.735L1168.76 805.973L1170.73 806.782L1171.77 808.17L1171.31 816.611L1170.03 817.304L1170.61 817.767L1171.77 817.42L1172.58 816.495L1184.72 813.373L1195.36 812.795L1204.72 814.992L1214.55 820.773L1217.33 821.698L1219.87 824.011L1219.76 827.133H1222.53L1224.73 825.977L1227.62 826.092L1229.93 825.167L1233.28 822.855L1236.87 819.501L1238.14 819.039L1238.83 819.617H1240.45L1241.03 818.692L1240.45 817.304L1239.76 816.611L1239.99 815.686L1242.3 814.414L1248.09 813.951L1249.01 815.107L1250.17 815.223L1252.83 816.379L1256.3 818.461L1257.68 820.426L1258.95 821.814L1262.19 823.433V826.208L1265.43 828.405L1266.59 828.521L1268.44 830.14L1269.25 831.99L1270.4 832.221L1271.33 834.649L1272.14 835.343L1273.29 834.071L1276.65 834.187L1277.22 835.806L1278.5 836.846V838.349L1281.85 840.893L1282.08 851.994L1280 858.701L1281.16 860.088L1280.92 864.02L1280 865.639L1280.81 867.026L1283.47 869.686L1283.82 871.42L1284.74 872.576L1284.28 870.379L1285.78 869.686L1286.71 865.523L1283.24 864.135L1283.35 863.442L1286.36 862.979L1287.4 865.985L1288.67 866.679L1288.79 864.367L1290.06 864.713L1290.75 865.639L1290.64 866.448L1287.28 871.305L1287.05 872.576L1285.09 874.773V876.045L1289.37 880.439L1295.49 889.574L1297.58 892.003V894.084L1300.81 899.403L1303.47 900.097L1304.28 898.709L1301.85 899.056L1298.39 893.853L1298.62 892.234L1300.35 891.309V889.574L1299.66 888.071L1300.7 887.03L1301.16 888.071L1301.97 888.649V893.275L1300.58 892.581L1299.66 893.621L1301.28 895.472L1302.43 898.478L1303.82 897.784L1306.48 899.172L1308.91 901.716L1310.76 907.613L1314.34 913.163L1315.27 911.66L1318.51 911.082L1322.21 912.585L1322.55 914.551L1326.37 918.945L1326.48 920.217L1329.03 923.339L1328.22 923.917V927.039L1331.34 928.658H1333.07L1336.2 926.577L1337.93 926.923L1339.2 927.386L1341.86 925.42L1342.09 924.611L1343.48 924.958L1346.26 922.992L1347.76 920.332L1346.95 916.632L1346.72 915.129L1347.99 910.504L1348.69 910.272L1349.38 912.123L1350.3 910.041L1349.38 901.716L1348.92 889.574L1347.76 881.711L1346.95 879.746L1339.32 866.91L1333.31 856.388L1330.76 852.572L1329.26 848.409L1329.03 844.478L1330.07 844.131V843.09L1328.8 840.546L1324.17 835.921L1315.38 824.705L1308.79 812.679L1303.82 800.307L1303.13 796.028L1301.74 794.872L1301.16 790.478L1297 790.825ZM1307.64 946.35L1309.6 946.234L1308.79 945.078L1307.64 946.35ZM1316.08 945.078V944.268L1317.93 944.037L1322.21 940.221L1323.94 939.527L1326.72 938.487L1327.06 939.99L1329.03 940.915L1326.02 942.302H1323.25L1318.74 945.193L1316.08 945.078ZM1335.97 936.29L1332.5 937.908L1331.34 939.412L1332.61 939.527L1335.97 936.29ZM1340.36 932.936L1339.09 933.283L1337.47 935.596L1338.74 935.365L1340.48 933.514L1340.36 932.936ZM1349.96 914.782L1347.99 921.258L1347.07 922.414L1345.91 925.42L1344.52 927.27L1343.71 929.236L1341.52 931.78V932.821L1344.64 929.583L1347.41 925.536L1348.11 923.223L1350.54 917.557L1349.96 914.782Z"/>
</mask>
<path d="M1297 790.825L1292.37 790.015L1290.41 788.975L1287.86 790.593V793.484L1289.48 795.913L1288.9 800.885L1286.48 801.578L1285.32 800.307L1284.63 796.606L1226.69 800.422L1222.88 793.484L1166.45 799.381L1165.87 802.735L1168.76 805.973L1170.73 806.782L1171.77 808.17L1171.31 816.611L1170.03 817.304L1170.61 817.767L1171.77 817.42L1172.58 816.495L1184.72 813.373L1195.36 812.795L1204.72 814.992L1214.55 820.773L1217.33 821.698L1219.87 824.011L1219.76 827.133H1222.53L1224.73 825.977L1227.62 826.092L1229.93 825.167L1233.28 822.855L1236.87 819.501L1238.14 819.039L1238.83 819.617H1240.45L1241.03 818.692L1240.45 817.304L1239.76 816.611L1239.99 815.686L1242.3 814.414L1248.09 813.951L1249.01 815.107L1250.17 815.223L1252.83 816.379L1256.3 818.461L1257.68 820.426L1258.95 821.814L1262.19 823.433V826.208L1265.43 828.405L1266.59 828.521L1268.44 830.14L1269.25 831.99L1270.4 832.221L1271.33 834.649L1272.14 835.343L1273.29 834.071L1276.65 834.187L1277.22 835.806L1278.5 836.846V838.349L1281.85 840.893L1282.08 851.994L1280 858.701L1281.16 860.088L1280.92 864.02L1280 865.639L1280.81 867.026L1283.47 869.686L1283.82 871.42L1284.74 872.576L1284.28 870.379L1285.78 869.686L1286.71 865.523L1283.24 864.135L1283.35 863.442L1286.36 862.979L1287.4 865.985L1288.67 866.679L1288.79 864.367L1290.06 864.713L1290.75 865.639L1290.64 866.448L1287.28 871.305L1287.05 872.576L1285.09 874.773V876.045L1289.37 880.439L1295.49 889.574L1297.58 892.003V894.084L1300.81 899.403L1303.47 900.097L1304.28 898.709L1301.85 899.056L1298.39 893.853L1298.62 892.234L1300.35 891.309V889.574L1299.66 888.071L1300.7 887.03L1301.16 888.071L1301.97 888.649V893.275L1300.58 892.581L1299.66 893.621L1301.28 895.472L1302.43 898.478L1303.82 897.784L1306.48 899.172L1308.91 901.716L1310.76 907.613L1314.34 913.163L1315.27 911.66L1318.51 911.082L1322.21 912.585L1322.55 914.551L1326.37 918.945L1326.48 920.217L1329.03 923.339L1328.22 923.917V927.039L1331.34 928.658H1333.07L1336.2 926.577L1337.93 926.923L1339.2 927.386L1341.86 925.42L1342.09 924.611L1343.48 924.958L1346.26 922.992L1347.76 920.332L1346.95 916.632L1346.72 915.129L1347.99 910.504L1348.69 910.272L1349.38 912.123L1350.3 910.041L1349.38 901.716L1348.92 889.574L1347.76 881.711L1346.95 879.746L1339.32 866.91L1333.31 856.388L1330.76 852.572L1329.26 848.409L1329.03 844.478L1330.07 844.131V843.09L1328.8 840.546L1324.17 835.921L1315.38 824.705L1308.79 812.679L1303.82 800.307L1303.13 796.028L1301.74 794.872L1301.16 790.478L1297 790.825ZM1307.64 946.35L1309.6 946.234L1308.79 945.078L1307.64 946.35ZM1316.08 945.078V944.268L1317.93 944.037L1322.21 940.221L1323.94 939.527L1326.72 938.487L1327.06 939.99L1329.03 940.915L1326.02 942.302H1323.25L1318.74 945.193L1316.08 945.078ZM1335.97 936.29L1332.5 937.908L1331.34 939.412L1332.61 939.527L1335.97 936.29ZM1340.36 932.936L1339.09 933.283L1337.47 935.596L1338.74 935.365L1340.48 933.514L1340.36 932.936ZM1349.96 914.782L1347.99 921.258L1347.07 922.414L1345.91 925.42L1344.52 927.27L1343.71 929.236L1341.52 931.78V932.821L1344.64 929.583L1347.41 925.536L1348.11 923.223L1350.54 917.557L1349.96 914.782Z" fill="#D0D0D0" stroke="white" stroke-width="1.15632" mask="url(#path-79-inside-1_6206_43323)"/>
<path d="M1219.24 755.788L1219.16 755.704L1217.11 753.542L1213.78 746.547L1198.97 693.938L1225.11 690.627L1225.12 690.626L1249.52 687.205L1249.43 688.889L1247.38 689.969L1247.29 690.016L1247.25 690.108L1245.63 693.809L1245.59 693.886L1245.61 693.969L1245.84 695.472L1245.86 695.603L1245.97 695.673L1253.02 700.067L1253.11 700.12L1253.21 700.109L1256.05 699.78L1259.5 704.228L1259.95 706.132L1259.96 706.197L1260.01 706.25L1264.86 712.146L1264.89 712.181L1264.93 712.205L1267.93 714.171L1267.99 714.206L1268.05 714.215L1269.6 714.436L1272.03 716.203L1273.3 718.74L1273.35 718.78L1275.66 720.63L1275.71 720.667L1275.76 720.683L1277.77 721.24L1280.76 724.231L1280.87 725.744L1280.88 725.846L1280.95 725.92L1283.95 729.158L1283.99 729.2L1284.04 729.224L1289.74 731.842L1293.83 739.456L1294.17 742.521L1294.19 742.673L1294.32 742.744L1298.75 745.131L1301.58 750.573L1302.5 754.125L1302.55 754.321L1302.75 754.341L1307.56 754.799L1308.39 755.166V756.506L1303.65 763.501L1302.39 763.712L1302.34 764.271L1303.88 764.783V766.784L1302.91 767.978L1302.85 768.045L1302.84 768.132L1302.15 775.032L1299.5 782.167L1299.47 782.251L1299.5 782.338L1300.07 784.636L1300.83 790.214L1297.01 790.532L1292.47 789.737L1290.54 788.719L1290.4 788.64L1290.25 788.73L1287.71 790.349L1287.58 790.435V793.571L1287.62 793.644L1289.18 795.983L1288.64 800.659L1286.57 801.25L1285.59 800.172L1284.91 796.553L1284.86 796.301L1284.61 796.317L1226.86 800.12L1223.15 793.37L1222.35 790.853L1222.33 790.785L1220.59 789.046L1220.05 787.55L1220.74 780.329L1220.75 780.257L1220.72 780.189L1217.98 773.679L1218.54 770.759L1218.54 770.743L1218.54 770.728L1218.88 766.513L1221.4 762.177L1221.45 762.085L1221.43 761.98L1221.2 760.708L1221.18 760.578L1221.06 760.511L1219.24 759.438V755.788Z" fill="#D0D0D0" stroke="white" stroke-width="0.578159"/>
<path d="M1099.32 602.288L1099.17 602.206L1095.93 600.472L1095.9 600.453L1095.86 600.444L1092.39 599.636L1092.31 599.616L1092.23 599.645L1088.53 600.951L1087.21 598.612L1087.86 596.535L1087.89 596.451L1087.87 596.367L1087.06 593.592L1087.03 593.519L1086.98 593.466L1077.04 583.753L1077.02 583.735L1077 583.721L1074.52 582.034L1071.68 575.317L1070.31 569.18L1071.88 565.04L1072.64 564.275L1072.72 564.196L1072.73 564.084L1072.84 561.424L1072.85 561.317L1072.78 561.234L1072.1 560.357L1073.09 558.879L1075.08 558.217L1076.12 557.87L1076.19 557.844L1076.25 557.78L1077.4 556.394L1077.47 556.312V553.524L1079.37 550.842L1079.93 550.284L1080.01 550.203L1080.01 550.088L1080.13 546.041L1080.13 545.951L1080.08 545.876L1079.04 544.257L1078.99 544.167L1078.88 544.137L1077.82 543.818L1076.68 542.16L1077.77 537.827L1081.04 536.955H1083.83L1083.89 536.932L1088.74 534.851L1088.81 534.821L1088.86 534.762L1090.82 532.218L1090.88 532.145L1090.88 532.053L1090.99 529.376L1092.2 527.949L1092.23 527.914L1092.25 527.871L1093.75 524.171L1093.78 524.113L1093.77 524.051L1093.66 521.045L1093.65 520.949L1093.59 520.875L1090.36 516.828L1090.27 516.72H1088.88L1088 515.649L1088.22 513.923L1088.24 513.782L1088.14 513.683L1086.14 511.686L1086.1 511.664L1083.53 510.326L1083.8 510.005L1136.45 506.792L1136.56 511.812L1136.56 511.903L1136.61 511.978L1140.51 517.254L1141.89 521.946L1141.9 521.972L1143.73 525.644L1148.46 583.596L1147.32 589.571L1147.31 589.598V592.028L1147.36 592.102L1150.09 596.074V596.747L1149.75 597.744L1149.72 597.854L1149.77 597.959L1150.77 600.08L1150.45 602.683L1148.66 604.697L1148.62 604.744L1148.6 604.804L1147.11 609.616L1142.74 615.706L1142.69 615.779L1142.69 615.87L1142.57 623.68H1141.25L1141.44 624.092L1142.46 626.23V627.104L1139.98 630.146L1139.9 630.237L1139.91 630.354L1140.03 631.626L1140.04 631.701L1140.08 631.763L1141.75 634.218L1141.67 634.935L1137.61 635.593L1137.46 635.617L1137.4 635.749L1136.83 636.878L1135.58 636.249L1135.45 636.313L1134.15 636.961L1134.13 637.115L1133.67 640.932L1133.65 641.066L1133.75 641.165L1135.61 643.141L1135.21 645.578L1133.76 645.867L1125.86 642.436L1125.69 642.36L1125.55 642.488L1120.92 646.767L1120.81 646.873L1120.84 647.026L1121.13 648.771H1118.36L1116.85 647.163L1114.82 642.868V640.878L1115.63 640.272L1115.73 640.194L1115.74 640.063L1115.86 638.561L1115.87 638.438L1115.79 638.345L1113.86 636.19L1112.84 633.353L1112.82 633.32L1112.81 633.291L1109.68 628.55L1109.62 628.459L1109.52 628.431L1104.04 626.945L1095.6 618.853L1095.17 616.247L1098.38 607.533L1098.41 607.455L1098.39 607.373L1097.96 605.337L1099.23 604.177L1099.32 604.091V602.288Z" fill="#D0D0D0" stroke="white" stroke-width="0.578159"/>
<path d="M1150.67 595.893L1150.61 595.818L1147.89 591.845V589.646L1149.04 583.664L1149.05 583.626L1149.04 583.586L1144.34 525.96L1149.37 527.458L1149.47 527.489L1149.57 527.445L1155.47 524.785L1155.51 524.766L1155.55 524.732L1157.44 522.948L1194.51 519.058L1194.61 520.38L1194.61 520.393L1202.23 586.444L1201.11 588.562L1201.03 588.721L1201.13 588.865L1202.83 591.247L1203.24 592.963L1195.79 597.965L1193.39 596.875L1193.1 596.74L1193 597.052L1191.61 601.445L1191.6 601.496L1191.6 601.55L1191.71 603.38L1186.48 608.377L1186.46 608.398L1186.44 608.425L1183.55 612.703L1183.51 612.772L1183.5 612.856L1183.39 616.626L1182.2 617.321L1178.89 617.541L1176.89 616.274L1176.68 614.902L1176.61 614.475L1176.24 614.698L1171.85 617.358L1171.73 617.432L1171.71 617.573L1171.37 620.616L1169.78 622.703L1166.55 619.146L1166.38 618.967L1166.18 619.095L1162.13 621.639L1162.08 621.674L1162.04 621.728L1160.11 624.726L1156.42 622.447L1156.4 622.431L1156.37 622.421L1154.4 621.727L1154.32 621.698L1154.24 621.718L1152.39 622.152L1150.99 621.291L1150.69 621.106L1150.57 621.436L1150.22 622.36L1150.18 622.474L1150.23 622.583L1150.87 623.967L1150.55 624.681L1149.7 624.526L1149.5 623.34L1149.46 623.07L1149.19 623.1L1143.87 623.678L1143.49 623.72L1143.63 624.075L1144.39 625.906L1143.93 626.667L1142.97 625.972L1142.16 624.254H1143.14L1143.15 623.97L1143.26 615.966L1147.6 609.911L1147.63 609.873L1147.65 609.828L1149.13 605.03L1150.94 602.997L1151 602.93L1151.01 602.841L1151.36 600.065L1151.37 599.981L1151.33 599.905L1150.34 597.812L1150.65 596.883L1150.67 596.839V595.893Z" fill="#D0D0D0" stroke="white" stroke-width="0.578159"/>
<path d="M908.111 575.113H908.119L958.65 576.501H996L999.269 579.882L999.321 579.937L999.394 579.958L1001.71 580.651L1001.88 580.704L1002 580.568L1002.8 579.679L1004.27 581.728L1004.17 582.901L1001.13 585.832L1001.06 585.894L1001.04 585.979L1000.47 588.639L1000.43 588.793L1003.4 591.765L1006.39 597.166L1006.46 597.28L1006.58 597.308L1010.06 598.067L1010.63 653.164L939.243 653.05H939.244L861.258 649.709L866.768 572.816L908.111 575.113Z" fill="#D0D0D0" stroke="white" stroke-width="0.578159"/>
<mask id="path-84-inside-2_6206_43323" fill="white">
<path d="M1228.08 649.06L1204.37 650.678L1198.36 651.603L1178.24 652.76L1175.23 653.685L1149.1 655.997L1148.29 655.304H1144.01L1145.4 659.004L1144.71 660.045L1117.77 661.779L1118.92 658.657L1120.54 659.698L1121.35 659.235L1122.74 654.494L1121.58 653.338L1122.74 651.025L1122.97 649.985L1121.47 649.06L1121.12 646.978L1125.74 642.7L1133.72 646.169L1135.46 645.822L1135.92 643.047L1133.95 640.965L1134.42 637.15L1135.57 636.571L1136.96 637.265L1137.65 635.878L1141.93 635.184L1142.05 634.143L1140.31 631.599L1140.2 630.327L1142.74 627.205V626.164L1144.01 627.09L1144.71 625.933L1143.9 623.967L1149.22 623.389L1149.45 624.777L1150.72 625.008L1151.18 623.967L1150.49 622.464L1150.84 621.539L1152.34 622.464L1154.3 622.002L1156.27 622.696L1160.2 625.124L1162.28 621.886L1166.33 619.342L1169.8 623.158L1171.65 620.73L1172 617.608L1176.39 614.948L1176.62 616.451L1178.82 617.839L1182.29 617.608L1183.68 616.798L1183.79 612.867L1186.68 608.588L1192 603.501L1191.89 601.535L1193.27 597.141L1195.82 598.297L1203.56 593.094L1203.1 591.128L1201.37 588.7L1202.52 586.503L1204.03 587.081L1206.57 587.197L1208.77 586.271L1212.12 587.659L1214.66 591.591V592.747L1219.41 593.556L1222.07 593.325L1224.26 595.753L1226.81 595.985V594.828L1229 593.903L1232.47 594.828L1233.86 595.753L1235.36 594.944H1236.4L1237.1 592.978L1241.03 590.897L1241.61 591.822L1242.53 595.175L1246.58 596.794L1247.97 599.222L1247.85 600.494L1248.54 601.651L1247.85 605.813L1250.05 607.663L1250.97 608.935L1252.13 609.629L1252.01 610.67L1257.1 617.145H1258.72L1260.45 619.227L1261.84 619.573L1263.46 619.458L1257.8 627.09L1254.44 628.246L1250.97 631.715L1250.51 634.259L1248.08 635.762L1247.97 637.728L1246.35 639.347L1244.27 639.925L1243.69 642.122L1242.53 642.584L1234.55 647.441L1228.08 649.06ZM1114.76 662.126L1113.95 661.317L1114.18 660.16H1115.45L1116.26 660.97L1115.91 662.126H1114.76Z"/>
</mask>
<path d="M1228.08 649.06L1204.37 650.678L1198.36 651.603L1178.24 652.76L1175.23 653.685L1149.1 655.997L1148.29 655.304H1144.01L1145.4 659.004L1144.71 660.045L1117.77 661.779L1118.92 658.657L1120.54 659.698L1121.35 659.235L1122.74 654.494L1121.58 653.338L1122.74 651.025L1122.97 649.985L1121.47 649.06L1121.12 646.978L1125.74 642.7L1133.72 646.169L1135.46 645.822L1135.92 643.047L1133.95 640.965L1134.42 637.15L1135.57 636.571L1136.96 637.265L1137.65 635.878L1141.93 635.184L1142.05 634.143L1140.31 631.599L1140.2 630.327L1142.74 627.205V626.164L1144.01 627.09L1144.71 625.933L1143.9 623.967L1149.22 623.389L1149.45 624.777L1150.72 625.008L1151.18 623.967L1150.49 622.464L1150.84 621.539L1152.34 622.464L1154.3 622.002L1156.27 622.696L1160.2 625.124L1162.28 621.886L1166.33 619.342L1169.8 623.158L1171.65 620.73L1172 617.608L1176.39 614.948L1176.62 616.451L1178.82 617.839L1182.29 617.608L1183.68 616.798L1183.79 612.867L1186.68 608.588L1192 603.501L1191.89 601.535L1193.27 597.141L1195.82 598.297L1203.56 593.094L1203.1 591.128L1201.37 588.7L1202.52 586.503L1204.03 587.081L1206.57 587.197L1208.77 586.271L1212.12 587.659L1214.66 591.591V592.747L1219.41 593.556L1222.07 593.325L1224.26 595.753L1226.81 595.985V594.828L1229 593.903L1232.47 594.828L1233.86 595.753L1235.36 594.944H1236.4L1237.1 592.978L1241.03 590.897L1241.61 591.822L1242.53 595.175L1246.58 596.794L1247.97 599.222L1247.85 600.494L1248.54 601.651L1247.85 605.813L1250.05 607.663L1250.97 608.935L1252.13 609.629L1252.01 610.67L1257.1 617.145H1258.72L1260.45 619.227L1261.84 619.573L1263.46 619.458L1257.8 627.09L1254.44 628.246L1250.97 631.715L1250.51 634.259L1248.08 635.762L1247.97 637.728L1246.35 639.347L1244.27 639.925L1243.69 642.122L1242.53 642.584L1234.55 647.441L1228.08 649.06ZM1114.76 662.126L1113.95 661.317L1114.18 660.16H1115.45L1116.26 660.97L1115.91 662.126H1114.76Z" fill="#D0D0D0" stroke="white" stroke-width="1.15632" mask="url(#path-84-inside-2_6206_43323)"/>
<mask id="path-85-inside-3_6206_43323" fill="white">
<path d="M1124.47 822.855L1123.09 820.774L1123.43 819.271L1117.88 811.408L1118.92 806.089L1120.08 804.47L1120.2 802.851L1078.57 805.164L1080.53 791.403L1083.31 785.853L1090.25 776.14L1088.17 773.249H1090.48V769.433L1087.7 766.543L1088.28 764.577L1086.89 763.421L1085.04 755.211L1085.74 753.592L1025.26 755.095L1025.84 778.106L1026.65 782.037L1029.66 785.275L1030.47 791.519L1034.86 796.838L1035.78 801.81H1036.94L1036.82 810.251L1033.01 817.652L1034.51 820.311L1033.01 822.046L1033.82 825.515L1033.7 830.487L1031.16 834.534L1031.04 835.459L1029.08 836.847L1030.23 838.928L1031.62 840.2L1033.47 838.697L1039.6 837.656L1046.65 837.541L1057.75 841.935L1067 843.091L1068.74 841.472L1070.82 841.241L1076.37 843.785L1078.22 843.322L1079.49 841.588L1074.64 839.506L1072.09 840.663L1070.82 840.431L1069.2 838.119L1073.02 835.575L1074.87 835.459V837.425L1076.6 837.309L1080.53 836.962L1081 839.622L1082.27 840.084L1082.96 842.281L1088.51 843.438L1090.48 845.288V846.097H1089.09L1087.36 848.063L1089.32 849.451L1095.57 850.607L1098.69 853.845L1103.78 852.688L1099.5 852.92L1099.38 852.226L1102.62 851.416L1102.85 849.335L1104.24 848.988V847.369L1105.51 847.485V849.335L1108.4 849.451L1109.33 847.254L1110.37 847.601L1110.6 850.491L1111.99 850.723L1109.9 853.035L1112.91 851.995L1115.22 850.723L1118.58 846.907H1117.77L1116.26 848.294L1115.8 848.179L1115.22 847.254L1116.26 845.866V843.207L1117.54 842.281L1118.35 843.091L1119.5 842.166L1120.66 842.05L1121.35 843.553L1120.66 845.75H1123.43L1129.33 847.716L1129.91 849.219L1131.76 850.838L1135 850.954L1136.5 851.763L1138.58 850.607L1139.62 848.641V846.675H1138L1136.62 845.057L1135.34 843.785L1131.64 842.744L1128.64 842.975L1123.78 840.2V837.541L1125.28 836.384L1128.06 837.078L1124.47 835.228L1124.71 834.303H1128.87L1131.87 830.256L1128.87 828.174L1129.79 826.44L1128.41 825.515H1127.48L1125.17 827.943V830.371L1124.47 831.181L1123.2 831.065L1121.35 829.446H1119.85V827.712L1120.54 826.902L1121.47 827.712L1123.43 825.862L1124.24 824.012L1125.17 823.665L1124.47 822.855ZM1112.56 819.733L1114.76 820.89L1115.69 822.162L1118.58 822.277L1120.31 823.202L1120.54 824.821L1120.08 825.515L1119.04 823.78L1117.42 825.168L1116.38 826.787L1113.14 827.712L1111.29 827.827L1107.01 826.671L1107.13 824.705L1109.44 822.393L1110.71 819.618L1112.56 819.733ZM1107.13 821.121V822.393L1105.05 824.705H1103.66V822.162L1105.51 820.427L1107.13 821.121Z"/>
</mask>
<path d="M1124.47 822.855L1123.09 820.774L1123.43 819.271L1117.88 811.408L1118.92 806.089L1120.08 804.47L1120.2 802.851L1078.57 805.164L1080.53 791.403L1083.31 785.853L1090.25 776.14L1088.17 773.249H1090.48V769.433L1087.7 766.543L1088.28 764.577L1086.89 763.421L1085.04 755.211L1085.74 753.592L1025.26 755.095L1025.84 778.106L1026.65 782.037L1029.66 785.275L1030.47 791.519L1034.86 796.838L1035.78 801.81H1036.94L1036.82 810.251L1033.01 817.652L1034.51 820.311L1033.01 822.046L1033.82 825.515L1033.7 830.487L1031.16 834.534L1031.04 835.459L1029.08 836.847L1030.23 838.928L1031.62 840.2L1033.47 838.697L1039.6 837.656L1046.65 837.541L1057.75 841.935L1067 843.091L1068.74 841.472L1070.82 841.241L1076.37 843.785L1078.22 843.322L1079.49 841.588L1074.64 839.506L1072.09 840.663L1070.82 840.431L1069.2 838.119L1073.02 835.575L1074.87 835.459V837.425L1076.6 837.309L1080.53 836.962L1081 839.622L1082.27 840.084L1082.96 842.281L1088.51 843.438L1090.48 845.288V846.097H1089.09L1087.36 848.063L1089.32 849.451L1095.57 850.607L1098.69 853.845L1103.78 852.688L1099.5 852.92L1099.38 852.226L1102.62 851.416L1102.85 849.335L1104.24 848.988V847.369L1105.51 847.485V849.335L1108.4 849.451L1109.33 847.254L1110.37 847.601L1110.6 850.491L1111.99 850.723L1109.9 853.035L1112.91 851.995L1115.22 850.723L1118.58 846.907H1117.77L1116.26 848.294L1115.8 848.179L1115.22 847.254L1116.26 845.866V843.207L1117.54 842.281L1118.35 843.091L1119.5 842.166L1120.66 842.05L1121.35 843.553L1120.66 845.75H1123.43L1129.33 847.716L1129.91 849.219L1131.76 850.838L1135 850.954L1136.5 851.763L1138.58 850.607L1139.62 848.641V846.675H1138L1136.62 845.057L1135.34 843.785L1131.64 842.744L1128.64 842.975L1123.78 840.2V837.541L1125.28 836.384L1128.06 837.078L1124.47 835.228L1124.71 834.303H1128.87L1131.87 830.256L1128.87 828.174L1129.79 826.44L1128.41 825.515H1127.48L1125.17 827.943V830.371L1124.47 831.181L1123.2 831.065L1121.35 829.446H1119.85V827.712L1120.54 826.902L1121.47 827.712L1123.43 825.862L1124.24 824.012L1125.17 823.665L1124.47 822.855ZM1112.56 819.733L1114.76 820.89L1115.69 822.162L1118.58 822.277L1120.31 823.202L1120.54 824.821L1120.08 825.515L1119.04 823.78L1117.42 825.168L1116.38 826.787L1113.14 827.712L1111.29 827.827L1107.01 826.671L1107.13 824.705L1109.44 822.393L1110.71 819.618L1112.56 819.733ZM1107.13 821.121V822.393L1105.05 824.705H1103.66V822.162L1105.51 820.427L1107.13 821.121Z" fill="#D0D0D0" stroke="white" stroke-width="1.15632" mask="url(#path-85-inside-3_6206_43323)"/>
<path d="M1091 725.97L1090.94 725.892L1089.78 724.421L1092.97 718.496H1095.09L1095.17 718.433L1096.91 717.045L1097.02 716.952L1097.01 716.803L1096.67 710.889L1100.15 705.846L1102.13 705.184L1102.37 705.105L1102.33 704.863L1101.8 701.592L1145.6 698.617L1146.96 700.713L1145.46 778.099L1145.46 778.121L1145.47 778.143L1150.53 816.377L1149 817.71L1143.4 817.822L1140.7 816.134L1140.59 816.062L1140.46 816.103L1131.47 818.947L1130.55 818.231L1130.42 818.13L1130.27 818.191L1129.69 818.423L1129.52 818.49L1129.51 818.673L1129.4 820.293L1128.94 820.372L1128.84 820.388L1128.78 820.456L1125.87 823.472L1125.32 823.392L1124.71 822.683L1123.4 820.716L1123.72 819.334L1123.75 819.208L1123.67 819.103L1118.19 811.34L1119.2 806.203L1120.32 804.637L1120.36 804.57L1120.37 804.489L1120.49 802.87L1120.51 802.543L1120.18 802.561L1078.91 804.854L1080.82 791.489L1083.56 786.005L1090.48 776.307L1090.6 776.138L1090.48 775.97L1088.73 773.537H1090.77V769.315L1090.69 769.231L1088.03 766.461L1088.56 764.657L1088.61 764.475L1088.47 764.354L1087.16 763.26L1085.35 755.236L1085.99 753.739L1087.35 752.036L1087.4 751.978L1087.41 751.903L1088.01 748.323L1087.95 748.229L1086.24 745.613L1085.71 743.299L1086.61 742.603L1086.72 742.516V741.292L1086.59 741.206L1084.73 740.006L1084.67 739.522L1086.34 738.579L1086.69 738.384L1086.4 738.114L1085.13 736.956L1087.03 729.047L1090.83 727.257L1091 727.179V725.97Z" fill="#D0D0D0" stroke="white" stroke-width="0.578159"/>
<path d="M1104.53 665.627L1104.48 665.556L1102.63 662.665L1102.54 662.523L1102.38 662.532L1056.36 664.844L1011.44 665.647L1011.22 653.449L1010.64 597.832L1010.63 597.603L1010.41 597.553L1006.84 596.771L1003.89 591.451L1003.88 591.416L1001.07 588.607L1001.59 586.188L1004.65 583.243L1004.73 583.167L1004.74 583.059L1004.85 581.671L1004.86 581.565L1004.8 581.479L1003.07 579.051L1002.86 578.758L1002.62 579.025L1001.7 580.045L999.634 579.426L996.354 576.034L991.861 568.775L989.493 564.602L989.817 563.091L989.85 562.938L989.739 562.826L988.731 561.818L1017.98 561.932H1017.99L1049.44 560.544H1049.45L1065.88 559.625L1067.69 561.012L1068.36 562.785L1068.38 562.844L1069.72 564.19L1069.76 564.21L1071.27 565.016L1069.74 569.057L1069.71 569.138L1069.73 569.222L1071.12 575.466L1071.12 575.491L1071.14 575.516L1074.03 582.338L1074.06 582.416L1074.13 582.464L1076.65 584.184L1086.52 593.825L1087.29 596.444L1086.62 598.558L1086.58 598.678L1086.64 598.787L1088.15 601.446L1088.27 601.658L1088.5 601.577L1092.35 600.217L1095.7 600.999L1098.75 602.634V603.836L1097.46 605.022L1097.33 605.134L1097.37 605.296L1097.81 607.411L1094.6 616.121L1094.58 616.193L1094.59 616.269L1095.05 619.044L1095.07 619.139L1095.14 619.205L1103.69 627.415L1103.75 627.466L1103.82 627.485L1109.26 628.959L1112.31 633.582L1113.34 636.438L1113.35 636.492L1113.39 636.533L1115.28 638.639L1115.18 639.888L1114.36 640.504L1114.24 640.591V642.997L1114.27 643.056L1116.35 647.449L1116.37 647.49L1116.4 647.523L1118.02 649.258L1118.11 649.35H1121.39L1122.65 650.123L1122.47 650.927L1121.33 653.21L1121.23 653.396L1122.42 654.577L1121.11 659.043L1120.55 659.359L1119.08 658.415L1118.78 658.22L1118.66 658.558L1117.51 661.637L1116.81 662.52L1116.25 662.031L1116.54 661.054L1116.59 660.888L1116.47 660.766L1115.66 659.957L1115.58 659.872H1113.95L1113.9 660.104L1113.67 661.261L1113.64 661.412L1114.47 662.246V663.71L1115.16 664.853L1115.07 665.732L1113.63 666.249L1113.21 666.396L1113.51 666.718L1114.93 668.233L1114.32 668.762L1112.49 668.546L1111.9 668.478L1112.2 668.982L1112.9 670.139L1112.92 670.175L1112.95 670.203L1114.24 671.389V671.878L1113.03 672.383L1112.93 672.424L1112.89 672.521L1111.8 674.685L1099.55 675.561L1102.5 670.173L1104.43 668.472L1104.53 668.386V665.627Z" fill="#D0D0D0" stroke="white" stroke-width="0.578159"/>
<path d="M782.056 643.566L782.064 643.567L841.567 649.092L840.905 660.798H839.986L839.966 661.064L830.853 775.597L794.377 772.615H794.378L754.601 768.453L754.312 768.423L754.283 768.712L753.936 772.181L753.923 772.309L754.01 772.403L755.79 774.362L720.96 769.726L720.674 769.688L720.635 769.973L719.056 781.479L701.475 779.017L721.515 636.085L782.056 643.566Z" fill="#D0D0D0" stroke="white" stroke-width="0.578159"/>
<mask id="path-89-inside-4_6206_43323" fill="white">
<path d="M1386.38 623.158L1352.73 630.211L1307.17 638.652L1273.18 642.7V648.712L1271.44 648.597L1269.82 649.984L1267.05 655.997L1264.04 654.725L1260 657.616L1259.19 660.044L1257.45 661.432L1256.53 660.507L1256.41 658.772L1255.49 658.541L1250.86 662.357L1250.17 666.289L1244.73 669.064L1244.15 670.451L1240.45 673.458L1236.29 674.036L1230.97 677.505L1230.05 682.246L1228.54 683.286L1226.81 683.171L1225.19 684.674L1225.07 690.34L1249.82 686.871L1254.91 684.674L1256.41 684.558L1264.85 679.586L1291.68 677.042L1292.14 677.62L1291.91 679.239L1292.72 679.586L1294.11 677.852L1297.92 681.321L1298.04 684.327L1320.82 681.089L1349.15 700.862L1353.77 698.319L1357.24 697.509H1359.21L1360.48 698.781L1361.4 696.468L1362.1 690.687L1364.06 686.177L1370.31 679.124L1375.05 675.077L1381.29 672.417L1384.18 671.954L1385.69 672.417L1386.5 673.689L1390.31 666.057L1394.13 659.929L1393.32 659.582L1388.23 667.445L1387.65 666.52L1389.97 663.976L1389.5 662.241L1387.19 661.663L1388.35 663.166L1386.96 663.282L1385.57 661.201L1384.18 663.513L1382.33 663.745L1383.49 660.623L1384.3 658.657L1384.07 655.303L1381.52 655.188L1382.56 654.147L1383.84 654.494L1386.96 654.61L1387.88 654.032H1390.54L1392.86 651.835L1393.09 648.134L1394.59 646.515L1395.98 646.284L1397.48 645.128L1396.9 640.849L1394.36 636.455L1391.24 636.224L1390.2 638.074L1389.62 636.918L1386.5 637.149L1385.11 637.612L1382.91 638.999L1382.56 638.537H1381.52L1379.44 639.924L1376.44 640.503V638.999L1377.36 637.843L1378.52 638.652H1379.67L1381.64 636.224L1385.92 634.259L1388.23 631.715H1391.01L1391.93 633.218L1393.9 634.143L1393.32 632.408L1392.97 630.558L1389.73 626.974L1389.39 625.355L1388.92 626.511L1387.88 625.008L1386.38 623.158ZM1394.47 659.004L1397.6 656.113L1402.92 652.297V648.019L1402.45 644.434L1400.49 639.578L1402.22 641.196L1403.38 644.897L1403.84 653.685L1401.88 654.147L1398.29 656.922L1394.59 660.623L1394.47 659.004ZM1396.67 636.687L1395.63 636.455V637.612L1398.52 640.156L1398.29 638.537L1396.67 636.687ZM1400.03 639.115L1398.41 635.877L1395.86 631.946L1393.09 628.477L1390.54 623.505L1389.62 622.695L1392.16 627.667L1392.51 629.171L1396.44 635.53L1398.52 637.959L1400.03 639.115Z"/>
</mask>
<path d="M1386.38 623.158L1352.73 630.211L1307.17 638.652L1273.18 642.7V648.712L1271.44 648.597L1269.82 649.984L1267.05 655.997L1264.04 654.725L1260 657.616L1259.19 660.044L1257.45 661.432L1256.53 660.507L1256.41 658.772L1255.49 658.541L1250.86 662.357L1250.17 666.289L1244.73 669.064L1244.15 670.451L1240.45 673.458L1236.29 674.036L1230.97 677.505L1230.05 682.246L1228.54 683.286L1226.81 683.171L1225.19 684.674L1225.07 690.34L1249.82 686.871L1254.91 684.674L1256.41 684.558L1264.85 679.586L1291.68 677.042L1292.14 677.62L1291.91 679.239L1292.72 679.586L1294.11 677.852L1297.92 681.321L1298.04 684.327L1320.82 681.089L1349.15 700.862L1353.77 698.319L1357.24 697.509H1359.21L1360.48 698.781L1361.4 696.468L1362.1 690.687L1364.06 686.177L1370.31 679.124L1375.05 675.077L1381.29 672.417L1384.18 671.954L1385.69 672.417L1386.5 673.689L1390.31 666.057L1394.13 659.929L1393.32 659.582L1388.23 667.445L1387.65 666.52L1389.97 663.976L1389.5 662.241L1387.19 661.663L1388.35 663.166L1386.96 663.282L1385.57 661.201L1384.18 663.513L1382.33 663.745L1383.49 660.623L1384.3 658.657L1384.07 655.303L1381.52 655.188L1382.56 654.147L1383.84 654.494L1386.96 654.61L1387.88 654.032H1390.54L1392.86 651.835L1393.09 648.134L1394.59 646.515L1395.98 646.284L1397.48 645.128L1396.9 640.849L1394.36 636.455L1391.24 636.224L1390.2 638.074L1389.62 636.918L1386.5 637.149L1385.11 637.612L1382.91 638.999L1382.56 638.537H1381.52L1379.44 639.924L1376.44 640.503V638.999L1377.36 637.843L1378.52 638.652H1379.67L1381.64 636.224L1385.92 634.259L1388.23 631.715H1391.01L1391.93 633.218L1393.9 634.143L1393.32 632.408L1392.97 630.558L1389.73 626.974L1389.39 625.355L1388.92 626.511L1387.88 625.008L1386.38 623.158ZM1394.47 659.004L1397.6 656.113L1402.92 652.297V648.019L1402.45 644.434L1400.49 639.578L1402.22 641.196L1403.38 644.897L1403.84 653.685L1401.88 654.147L1398.29 656.922L1394.59 660.623L1394.47 659.004ZM1396.67 636.687L1395.63 636.455V637.612L1398.52 640.156L1398.29 638.537L1396.67 636.687ZM1400.03 639.115L1398.41 635.877L1395.86 631.946L1393.09 628.477L1390.54 623.505L1389.62 622.695L1392.16 627.667L1392.51 629.171L1396.44 635.53L1398.52 637.959L1400.03 639.115Z" fill="#D0D0D0" stroke="white" stroke-width="1.15632" mask="url(#path-89-inside-4_6206_43323)"/>
<path d="M1214.96 591.504L1214.91 591.433L1212.37 587.501L1212.32 587.426L1212.23 587.391L1208.88 586.004L1208.77 585.957L1208.66 586.004L1206.52 586.903L1204.09 586.793L1202.79 586.295L1195.21 520.601L1219.52 516.625L1220.46 517.769L1220.57 517.904L1220.74 517.868L1222.85 517.424L1226.23 518.892L1226.25 518.898L1226.27 518.904L1228.6 519.571L1229.36 520.538L1229.44 520.649H1230.9L1230.98 520.521L1231.98 519.018L1233.25 519.797L1233.32 519.84H1234.82L1234.75 520.457L1231.39 521L1231.34 521.008L1231.29 521.032L1228.98 522.304L1228.46 522.592L1229.01 522.824L1231.21 523.749L1231.38 523.822L1231.52 523.693L1233.3 522.019L1235.88 521.589L1238.33 523.259L1238.41 523.315L1238.51 523.309L1240.24 523.192L1240.32 523.188L1240.38 523.144L1243.26 521.185L1247.36 518.794L1253.31 518.452L1253.43 518.445L1253.51 518.349L1259.16 511.55L1263.51 507.996L1273.88 502.309L1279.45 536.277L1277.09 537.567L1276.81 537.719L1276.98 537.981L1278.55 540.33L1278.44 542.78L1278.44 542.829L1278.45 542.876L1279.12 545.102L1277.87 548.948L1277.86 548.989L1277.86 549.032L1277.75 555.236L1276.6 559.366L1276.57 559.468L1276.61 559.563L1277.15 560.753L1276.74 563.06L1275.6 563.575L1275.52 563.612L1275.47 563.688L1273.17 567.481L1271.2 569.678H1270.52L1270.43 569.757L1268.55 571.536L1267.25 570.332L1267.02 570.126L1266.83 570.359L1265.09 572.441L1265.05 572.492L1265.03 572.556L1264.74 573.725H1263.3L1263.22 573.866L1261.71 576.41L1261.67 576.485L1261.67 576.571L1261.78 578.812L1260.79 579.306L1260.38 579.51L1260.74 579.791L1262.25 580.977V582.795L1261.33 582.98L1261.23 583L1261.17 583.074L1260.39 583.956L1259.6 584.353L1259 582.26L1258.96 582.109L1258.81 582.063L1256.96 581.485L1256.71 581.407L1256.61 581.646L1255.45 584.306L1255.44 584.342L1255.43 584.382L1255.09 586.841L1253.88 588.281L1253.77 588.408L1253.83 588.565L1255.24 592.492L1253.73 593.301L1253.6 593.372L1253.58 593.522L1253.15 597.313H1251.61L1251.55 597.338L1248.09 598.853L1246.83 596.649L1246.78 596.562L1246.69 596.524L1242.77 594.959L1241.89 591.744L1241.88 591.703L1241.85 591.668L1241.28 590.743L1241.13 590.515L1240.9 590.641L1236.96 592.722L1236.87 592.774L1236.83 592.881L1236.2 594.654H1235.29L1235.23 594.688L1233.88 595.415L1232.63 594.587L1232.6 594.561L1232.55 594.548L1229.08 593.623L1228.99 593.598L1228.89 593.636L1226.7 594.561L1226.52 594.636V595.667L1224.4 595.475L1222.28 593.13L1222.19 593.023L1222.04 593.036L1219.42 593.264L1214.96 592.502V591.504Z" fill="#D0D0D0" stroke="white" stroke-width="0.578159"/>
<path d="M860.936 650.275H860.94L939.223 653.628V653.629H939.235L1010.64 653.743L1010.87 665.949L1010.87 665.971L1010.87 665.991L1015.61 694.18L1014.81 738.869L1007.83 736.797L1002.55 732.44L1002.52 732.412L1002.48 732.396L999.937 731.354L999.645 731.235L999.551 731.536L999.032 733.195L993.542 733.519L992.926 731.978L992.81 731.686L992.528 731.826L986.867 734.656L985.142 733.901L985.075 733.872L985.002 733.878L980.724 734.226L980.537 734.24L980.475 734.417L979.833 736.235L975.972 737.201L974.584 735.92L974.49 735.834L974.363 735.844L973.1 735.949L970.881 733.951L970.756 733.839L970.596 733.893L968.247 734.675L966.102 734.138L964.08 731.892L963.817 731.6L963.617 731.938L960.758 736.738L959.687 737.452L958.73 735.729L959.063 733.516L959.093 733.321L958.923 733.223L957.535 732.413L957.335 732.296L957.177 732.468L954.689 735.171L953.043 734.009L952.938 732.413L952.911 732.021L952.545 732.162L951.179 732.687L948.298 730.803L948.115 730.683L947.95 730.826L944.623 733.708L942.365 732.627L943.095 730.442L943.228 730.044L942.808 730.062L940.315 730.17L938.208 726.843L938.151 726.753L938.05 726.722L934.003 725.449L933.822 725.393L933.698 725.535L931.584 727.966L929.145 725.632L929.024 725.518L928.865 725.562L927.277 726.016L925.078 726.125L921.104 723.968L921.033 723.93L920.953 723.934L918.378 724.045L917.18 723.346L916.625 720.126L916.605 720.012L916.513 719.942L913.853 717.977L913.619 717.805L913.448 718.038L912.345 719.542L910.958 718.552L910.923 718.527L910.882 718.513L909.494 718.051L909.333 717.997L909.208 718.111L908.045 719.168L906.552 718.87L903.728 715.48L903.688 715.432L903.631 715.405L900.678 713.982L902.291 664.797L902.3 664.516L902.02 664.499L841.484 660.815L842.146 649.135L860.936 650.275Z" fill="#D0D0D0" stroke="white" stroke-width="0.578159"/>
<path d="M1291.83 677.703L1291.62 679.199L1291.59 679.418L1291.79 679.506L1292.6 679.853L1292.81 679.939L1292.94 679.768L1294.14 678.272L1297.64 681.453L1297.75 684.339L1297.76 684.659L1298.08 684.614L1320.74 681.392L1348.58 700.821L1346.47 701.877L1346.44 701.895L1346.41 701.922L1343.63 704.466L1343.6 704.496L1343.58 704.534L1339.41 711.703L1339.4 711.727L1339.39 711.753L1338.47 714.413L1338.45 714.467L1338.45 714.523L1338.79 720.63L1336.23 722.967L1336.18 723.012L1336.16 723.072L1335.54 724.625H1334.1L1334.01 724.725L1333.43 725.389L1333.18 725.081L1333.1 724.973H1331.89L1331.8 725.091L1330.53 726.825L1330.37 727.037L1330.57 727.212L1331.54 728.071L1331.6 728.396L1326.17 733.374L1326.09 733.443L1325.97 734.291L1324.2 736.944L1319.88 738.991L1319.83 739.018L1319.79 739.064L1317.76 741.43L1316.45 741.833L1315.63 741.423L1315.45 741.336L1315.31 741.464L1314.38 742.273L1314.11 742.508L1314.4 742.722L1315.65 743.661L1315.34 746.137L1311.75 748.493L1311.66 748.555L1311.63 748.665L1311.08 750.886L1309.15 752.493H1308.39L1308.3 752.646L1307.47 754.21L1303.01 753.784L1302.13 750.397L1302.12 750.365L1302.11 750.336L1299.22 744.785L1299.18 744.706L1299.1 744.664L1294.72 742.308L1294.39 739.337L1294.39 739.281L1294.36 739.231L1290.2 731.484L1290.15 731.399L1290.06 731.358L1284.33 728.724L1281.43 725.602L1281.33 724.085L1281.32 723.977L1278.07 720.725L1277.99 720.704L1275.97 720.141L1273.75 718.368L1272.51 715.882L1272.48 715.818L1272.42 715.777L1269.88 713.927L1269.82 713.885L1269.75 713.875L1268.19 713.652L1265.27 711.744L1260.49 705.935L1260.04 704.034L1260.03 703.974L1259.99 703.924L1256.41 699.299L1256.31 699.17L1256.14 699.188L1253.24 699.523L1246.38 695.252L1246.18 693.963L1247.73 690.433L1249.84 689.324L1249.98 689.248L1249.99 689.084L1250.1 687.065L1254.98 684.959L1256.43 684.848L1256.5 684.842L1256.56 684.809L1264.94 679.868L1291.55 677.346L1291.83 677.703Z" fill="#D0D0D0" stroke="white" stroke-width="0.578159"/>
<path d="M1114.82 671.134L1114.73 671.048L1113.37 669.805L1113 669.188L1114.39 669.352L1114.51 669.366L1114.61 669.281L1115.54 668.473L1115.76 668.275L1115.56 668.058L1114.24 666.644L1115.44 666.214L1115.61 666.152L1115.63 665.971L1115.75 664.814L1115.76 664.719L1115.71 664.637L1115.06 663.549V662.415H1115.81L1116.66 663.153L1116.88 663.353L1117.07 663.116L1117.92 662.059L1144.73 660.333L1144.88 660.324L1144.96 660.205L1145.65 659.164L1145.73 659.041L1145.68 658.902L1144.44 655.593H1148.19L1148.92 656.217L1149.01 656.297L1149.13 656.286L1175.27 653.973L1175.3 653.971L1175.33 653.961L1178.3 653.047L1198.38 651.893L1198.4 651.892L1198.41 651.89L1204.42 650.965L1228.11 649.349L1228.13 649.347L1228.16 649.34L1234.61 647.726L1268.01 643.912L1268.22 643.889L1268.26 643.682L1268.45 642.732L1273.07 642.23L1272.92 642.586L1272.89 642.641V648.403L1271.47 648.309L1271.35 648.301L1271.26 648.378L1269.64 649.766L1269.59 649.807L1269.57 649.863L1266.91 655.622L1264.16 654.46L1264.01 654.396L1263.88 654.49L1259.83 657.381L1259.76 657.436L1259.73 657.525L1258.94 659.872L1257.48 661.045L1256.81 660.379L1256.7 658.754L1256.69 658.544L1256.49 658.492L1255.56 658.261L1255.42 658.226L1255.31 658.318L1250.68 662.135L1250.6 662.202L1250.58 662.308L1249.91 666.097L1244.61 668.807L1244.51 668.854L1244.47 668.953L1243.92 670.273L1240.34 673.183L1236.26 673.75L1236.19 673.759L1236.14 673.794L1230.82 677.263L1230.72 677.33L1230.69 677.45L1229.79 682.075L1228.47 682.991L1226.83 682.883L1226.71 682.874L1226.62 682.959L1225 684.463L1224.91 684.546L1224.91 684.669L1224.79 690.085L1198.57 693.405L1145.74 698.03L1103.11 700.924L1103.43 700.781L1103.54 700.733L1103.59 700.625L1104.52 698.351L1105.64 698.817L1105.85 698.906L1105.98 698.716L1106.79 697.56L1106.94 697.348L1106.75 697.177L1105.95 696.477L1106.26 694.906L1106.3 694.736L1106.16 694.626L1105.08 693.743L1105.65 692.802L1105.69 692.725L1105.69 692.634L1105.57 690.899L1105.56 690.653L1105.31 690.631L1104.65 690.57L1104.98 690.243L1106.29 691.049L1106.64 691.264L1106.72 690.863L1107.07 689.245L1107.09 689.163L1107.06 689.085L1106.62 687.881L1106.68 687.476L1108.67 688.073L1109.17 688.222L1109.03 687.722L1108.62 686.168L1110.32 684.783L1110.51 684.63L1110.39 684.418L1109.82 683.378L1109.72 683.213L1109.54 683.23L1108.44 683.33L1107.97 682.63L1108.77 681.826L1110.52 681.608L1110.66 681.591L1110.73 681.475L1111.24 680.663L1112.73 680.451L1113.01 680.411L1112.97 680.129L1112.86 679.204L1112.84 679.105L1111.82 678.079V677.91H1113.43L1113.51 677.765L1113.98 676.955L1114.11 676.729L1113.89 676.576L1112.37 675.488L1112.29 675.007L1113.36 672.874L1114.65 672.337L1114.82 672.264V671.134Z" fill="#D0D0D0" stroke="white" stroke-width="0.578159"/>
<mask id="path-94-inside-5_6206_43323" fill="white">
<path d="M754.223 772.208L754.57 768.739L794.347 772.902L831.118 775.908L840.253 661.086H841.178L902 664.786L900.381 714.161L903.503 715.664L906.394 719.133L908.129 719.48L909.401 718.324L910.788 718.786L912.407 719.943L913.679 718.208L916.339 720.174L916.917 723.527L918.304 724.337L920.964 724.221L925.011 726.418L927.324 726.302L928.942 725.84L931.602 728.384L933.915 725.724L937.962 726.996L940.159 730.465L942.818 730.349L942.009 732.778L944.668 734.05L948.137 731.043L951.144 733.009L952.647 732.431L952.763 734.165L954.728 735.553L957.388 732.662L958.775 733.472L958.429 735.784L959.585 737.866L960.972 736.94L963.863 732.084L965.945 734.397L968.257 734.975L970.686 734.165L972.998 736.247L974.386 736.131L975.889 737.519L980.052 736.478L980.746 734.512L985.024 734.165L986.874 734.975L992.656 732.084L993.349 733.818L999.247 733.472L999.825 731.621L1002.37 732.662L1007.69 737.056L1015.09 739.253L1018.09 741.913L1021.33 740.409L1025.03 741.334L1025.26 755.095L1025.84 778.105L1026.65 782.037L1029.66 785.275L1030.47 791.519L1034.86 796.838L1035.79 801.81H1036.94L1036.83 810.251L1033.01 817.651L1034.51 820.311L1033.01 822.046L1033.82 825.514L1033.7 830.487L1031.16 834.534L1031.05 835.459L1029.08 836.846L1030.24 838.928L1031.62 840.2L1027.58 840.547L1017.86 845.056L1013.82 846.675L1011.73 848.757L1010.93 848.178L1013.35 845.519L1015.44 844.709L1016.01 843.669L1012.66 843.553L1011.85 842.628L1012.78 840.315L1011.73 838.234H1011.04L1008.27 839.737L1006.07 842.744L1006.42 844.709L1010.23 848.641L1011.73 848.988V849.913L1009.08 851.763L1003.41 856.388L998.784 860.898L995.084 862.517L989.302 865.986L985.024 868.298L979.82 870.495L975.08 873.386L978.78 869.917V868.645L979.474 867.72L979.242 865.639L977.508 865.523L976.236 867.258L973.229 868.761L971.148 867.373L970.801 865.407H969.067L969.992 867.951L971.611 868.761L972.998 869.802L975.08 871.652L974.27 872.577L969.761 874.542L967.795 874.658L966.407 873.27L965.829 875.699L966.407 876.971L963.285 879.283L961.551 879.515L960.626 880.324L960.163 882.29L958.082 886.106L956.232 886.915L954.381 886.221L952.3 887.493L952.647 889.112L954.15 890.037L955.307 890.962L953.225 895.009L952.878 898.247L951.722 900.213L950.103 901.369L946.75 901.831L948.831 902.525L951.028 901.831L950.566 905.532L949.294 905.416L949.525 906.804L949.872 908.423L948.369 909.463V913.048L950.219 914.667L950.912 918.251L950.45 920.795L949.294 921.258L949.756 922.992L951.028 923.455L951.953 925.42V928.427L953.225 930.855L955.769 933.862L955.653 934.671L953.109 934.44L951.259 936.059L951.491 937.677L950.45 937.33L948.831 937.099L944.9 932.821L942.24 932.127H934.03L930.793 931.202L926.63 927.733L924.664 926.577L922.236 926.692L918.536 923.686L912.291 921.836V920.333L910.673 918.251L909.632 912.817L908.36 910.851L906.394 909.232V907.382L904.775 906.688L905.469 903.682L905.122 901.138L903.619 899.519L904.428 896.05L903.503 892.35L901.538 890.731H900.266L895.64 886.684L895.756 884.487L894.831 882.521L893.906 882.29L892.865 879.515L890.553 877.664L887.199 874.774L886.968 872.345L885.812 871.536L886.043 869.686L886.621 868.876L885.002 867.142L885.118 866.333L882.805 863.789L882.921 861.36L879.799 855.694L879.683 853.729L877.602 850.144L871.705 844.594V843.322L867.889 841.356L867.773 839.275L866.386 838.812V838.003L865.461 837.771L863.032 834.534H862.107L861.298 833.84L859.795 835.112H857.251L854.244 833.84H848.925L844.069 831.412L842.565 833.609L840.022 832.915L836.206 834.303L834.24 837.54L831.927 841.24L830.655 846.328L829.036 847.716L827.765 847.831L826.724 849.682L825.221 850.375L825.105 852.457L821.752 852.572L819.67 850.838H818.514L816.201 847.485L812.039 846.906L810.073 844.247L808.57 844.016L806.141 843.09L802.21 839.159L802.441 838.234L800.591 836.846L799.435 836.731L795.503 833.146L795.388 830.834L792.728 826.208L792.959 824.358L792.15 822.855L793.075 821.12L792.959 818.345L789.953 813.604L789.259 808.748L787.409 806.898V805.741L786.021 805.51L785.212 804.238L782.437 802.272L781.396 802.157L779.199 800.307V799.035L775.846 796.953L775.152 794.525L772.146 791.866L768.445 786.778L764.976 785.275L762.548 783.193L762.779 781.806L761.276 780.187L759.31 775.908L756.535 774.752L754.223 772.208ZM956.463 932.127L957.388 932.243L956.694 926.692L952.647 912.47L952.416 903.103L958.082 890.962L965.135 881.48L973.461 875.583V874.774H972.536L969.529 875.93L965.366 878.59L964.557 880.324L955.075 893.737L951.838 902.872V913.048L956 926.924L956.463 932.127Z"/>
</mask>
<path d="M754.223 772.208L754.57 768.739L794.347 772.902L831.118 775.908L840.253 661.086H841.178L902 664.786L900.381 714.161L903.503 715.664L906.394 719.133L908.129 719.48L909.401 718.324L910.788 718.786L912.407 719.943L913.679 718.208L916.339 720.174L916.917 723.527L918.304 724.337L920.964 724.221L925.011 726.418L927.324 726.302L928.942 725.84L931.602 728.384L933.915 725.724L937.962 726.996L940.159 730.465L942.818 730.349L942.009 732.778L944.668 734.05L948.137 731.043L951.144 733.009L952.647 732.431L952.763 734.165L954.728 735.553L957.388 732.662L958.775 733.472L958.429 735.784L959.585 737.866L960.972 736.94L963.863 732.084L965.945 734.397L968.257 734.975L970.686 734.165L972.998 736.247L974.386 736.131L975.889 737.519L980.052 736.478L980.746 734.512L985.024 734.165L986.874 734.975L992.656 732.084L993.349 733.818L999.247 733.472L999.825 731.621L1002.37 732.662L1007.69 737.056L1015.09 739.253L1018.09 741.913L1021.33 740.409L1025.03 741.334L1025.26 755.095L1025.84 778.105L1026.65 782.037L1029.66 785.275L1030.47 791.519L1034.86 796.838L1035.79 801.81H1036.94L1036.83 810.251L1033.01 817.651L1034.51 820.311L1033.01 822.046L1033.82 825.514L1033.7 830.487L1031.16 834.534L1031.05 835.459L1029.08 836.846L1030.24 838.928L1031.62 840.2L1027.58 840.547L1017.86 845.056L1013.82 846.675L1011.73 848.757L1010.93 848.178L1013.35 845.519L1015.44 844.709L1016.01 843.669L1012.66 843.553L1011.85 842.628L1012.78 840.315L1011.73 838.234H1011.04L1008.27 839.737L1006.07 842.744L1006.42 844.709L1010.23 848.641L1011.73 848.988V849.913L1009.08 851.763L1003.41 856.388L998.784 860.898L995.084 862.517L989.302 865.986L985.024 868.298L979.82 870.495L975.08 873.386L978.78 869.917V868.645L979.474 867.72L979.242 865.639L977.508 865.523L976.236 867.258L973.229 868.761L971.148 867.373L970.801 865.407H969.067L969.992 867.951L971.611 868.761L972.998 869.802L975.08 871.652L974.27 872.577L969.761 874.542L967.795 874.658L966.407 873.27L965.829 875.699L966.407 876.971L963.285 879.283L961.551 879.515L960.626 880.324L960.163 882.29L958.082 886.106L956.232 886.915L954.381 886.221L952.3 887.493L952.647 889.112L954.15 890.037L955.307 890.962L953.225 895.009L952.878 898.247L951.722 900.213L950.103 901.369L946.75 901.831L948.831 902.525L951.028 901.831L950.566 905.532L949.294 905.416L949.525 906.804L949.872 908.423L948.369 909.463V913.048L950.219 914.667L950.912 918.251L950.45 920.795L949.294 921.258L949.756 922.992L951.028 923.455L951.953 925.42V928.427L953.225 930.855L955.769 933.862L955.653 934.671L953.109 934.44L951.259 936.059L951.491 937.677L950.45 937.33L948.831 937.099L944.9 932.821L942.24 932.127H934.03L930.793 931.202L926.63 927.733L924.664 926.577L922.236 926.692L918.536 923.686L912.291 921.836V920.333L910.673 918.251L909.632 912.817L908.36 910.851L906.394 909.232V907.382L904.775 906.688L905.469 903.682L905.122 901.138L903.619 899.519L904.428 896.05L903.503 892.35L901.538 890.731H900.266L895.64 886.684L895.756 884.487L894.831 882.521L893.906 882.29L892.865 879.515L890.553 877.664L887.199 874.774L886.968 872.345L885.812 871.536L886.043 869.686L886.621 868.876L885.002 867.142L885.118 866.333L882.805 863.789L882.921 861.36L879.799 855.694L879.683 853.729L877.602 850.144L871.705 844.594V843.322L867.889 841.356L867.773 839.275L866.386 838.812V838.003L865.461 837.771L863.032 834.534H862.107L861.298 833.84L859.795 835.112H857.251L854.244 833.84H848.925L844.069 831.412L842.565 833.609L840.022 832.915L836.206 834.303L834.24 837.54L831.927 841.24L830.655 846.328L829.036 847.716L827.765 847.831L826.724 849.682L825.221 850.375L825.105 852.457L821.752 852.572L819.67 850.838H818.514L816.201 847.485L812.039 846.906L810.073 844.247L808.57 844.016L806.141 843.09L802.21 839.159L802.441 838.234L800.591 836.846L799.435 836.731L795.503 833.146L795.388 830.834L792.728 826.208L792.959 824.358L792.15 822.855L793.075 821.12L792.959 818.345L789.953 813.604L789.259 808.748L787.409 806.898V805.741L786.021 805.51L785.212 804.238L782.437 802.272L781.396 802.157L779.199 800.307V799.035L775.846 796.953L775.152 794.525L772.146 791.866L768.445 786.778L764.976 785.275L762.548 783.193L762.779 781.806L761.276 780.187L759.31 775.908L756.535 774.752L754.223 772.208ZM956.463 932.127L957.388 932.243L956.694 926.692L952.647 912.47L952.416 903.103L958.082 890.962L965.135 881.48L973.461 875.583V874.774H972.536L969.529 875.93L965.366 878.59L964.557 880.324L955.075 893.737L951.838 902.872V913.048L956 926.924L956.463 932.127Z" fill="#D0D0D0" stroke="white" stroke-width="1.15632" mask="url(#path-94-inside-5_6206_43323)"/>
<path d="M700.936 503.023L697.162 528.066L697.119 528.353L697.405 528.396L734.242 533.904L721.019 635.434L675.058 628.539L621.933 619.109L646.106 493.637L700.936 503.023Z" fill="#D0D0D0" stroke="white" stroke-width="0.578159"/>
<mask id="path-96-inside-6_6206_43323" fill="white">
<path d="M1392.97 583.035L1391.7 586.273L1392.28 587.545L1392.74 586.273L1393.67 582.689L1392.97 583.035ZM1352.97 574.941L1352.16 573.785L1353.31 573.669L1354.47 572.629L1354.93 570.547L1354.7 569.969L1354.82 569.391L1354.47 568.581L1353.78 568.003L1353.31 567.888L1352.73 567.425L1352.04 566.731H1350.88L1350.19 566.616L1349.73 566.153L1349.84 565.575L1347.88 564.881L1346.95 565.228L1345.57 565.112L1344.76 564.303L1344.18 564.072L1343.95 563.262L1344.64 562.337V561.297L1343.25 561.065L1342.1 560.025L1341.06 560.14L1339.21 559.793L1338.74 560.603L1338.28 562.453L1337.7 565.112L1326.14 559.1L1325.91 560.14L1326.95 561.99L1326.02 564.65L1326.14 568.003L1324.75 568.928L1324.17 571.357L1323.13 572.282L1321.51 574.363L1320.47 575.288L1319.32 578.179L1316.54 576.907L1313.88 586.736L1312.38 588.586L1309.14 588.008L1307.64 585.811L1304.98 585.001L1304.86 590.436L1303.24 592.402L1303.71 594.136L1301.28 596.68L1301.74 598.877L1297.46 606.162L1296.31 609.978L1298.04 611.365L1296.31 613.562L1296.42 615.181L1293.76 617.494L1292.95 616.222L1287.98 619.806L1286.25 618.65L1285.55 620.269L1286.48 620.847L1285.9 621.888L1279.54 624.663L1276.07 622.582L1275.15 624.547L1272.95 626.629L1270.29 626.744L1265.2 624.085L1265.09 622.35L1263.35 621.541L1264.28 620.153L1263.47 619.459L1257.8 627.091L1254.45 628.247L1250.98 631.716L1250.52 634.26L1248.09 635.764L1247.97 637.729L1246.35 639.348L1244.27 639.926L1243.69 642.123L1242.54 642.586L1234.56 647.442L1267.98 643.626L1268.21 642.47L1273.53 641.892L1273.18 642.701L1307.18 638.654L1352.73 630.213L1386.38 623.16L1385.69 621.772L1386.15 621.656L1387.19 622.697L1387.08 621.078L1386.73 618.881L1388.58 620.269L1389.62 622.697V621.194L1385.69 614.834V613.447L1384.88 612.522L1383.38 613.331L1383.96 614.95H1383.03L1382.57 613.793L1381.87 614.834L1380.83 613.562L1378.4 613.447L1378.17 614.256L1379.91 616.684L1378.29 615.875L1377.71 614.719L1377.25 615.644L1376.32 615.759L1374.59 617.725L1374.94 615.875V614.256L1373.2 613.447L1371.12 612.868L1370.89 610.903L1370.19 609.399L1369.5 610.671L1367.54 609.515L1365.22 609.862L1365.45 608.821L1367.19 608.59L1368.23 609.168L1370.19 608.243L1371.24 608.706L1371.81 609.862V610.671L1374.01 611.134L1374.36 612.175L1375.4 612.637L1376.44 614.025L1378.06 612.175H1378.75L1378.64 609.746L1377.13 610.903L1376.44 609.862L1378.17 609.631L1376.79 608.59L1375.4 609.284L1375.28 607.318L1373.32 607.549L1370.77 606.277L1368.69 603.733L1372.85 606.277L1373.9 606.624L1375.86 605.699L1373.9 604.659L1374.59 603.965L1373.43 603.387L1374.36 603.155L1374.01 602.115L1375.28 603.155L1375.75 602.23L1376.21 603.733L1377.6 604.659L1378.29 604.08L1377.71 603.387L1377.6 600.496L1376.32 600.38L1374.47 599.455L1375.51 598.183L1373.2 598.068L1372.74 597.489L1371.12 598.183L1369.5 597.258L1368.92 595.871L1366.49 594.483L1364.07 592.402L1361.52 590.205L1364.99 591.708L1366.03 593.095L1368.46 593.905L1371.12 596.796L1371.35 594.83L1372.04 596.333L1374.7 596.911V592.286L1373.78 591.014L1375.05 591.477L1375.17 589.626L1371.58 588.008L1369.73 587.776L1368.23 587.545L1368.58 586.157L1366.84 585.811L1366.73 585.117H1364.64L1364.41 586.042L1363.6 584.886H1360.48L1359.33 584.423L1359.09 583.267L1357.71 582.573L1357.24 580.838L1356.55 580.376L1355.74 581.648L1354.7 581.879L1353.66 582.689H1351.92L1350.88 581.185L1351.35 577.601L1351.92 574.826L1352.62 575.404L1352.97 574.941ZM1378.29 588.354L1379.33 588.239V587.545L1378.4 587.661L1378.29 588.354ZM1386.96 604.774L1385.81 607.896L1387.19 606.393L1386.96 604.774ZM1384.88 587.083L1385.69 587.429L1385.46 589.626L1384.88 589.048L1383.38 590.205L1384.53 590.667L1382.45 595.755L1382.57 605.121L1384.76 608.706L1385.34 606.971L1385.81 603.849L1385.46 601.19L1386.27 600.149L1386.04 598.53L1387.42 597.836L1386.73 597.258L1387.31 596.449L1388.23 597.721L1388 598.993L1387.54 603.502L1388.81 600.958L1389.27 597.374L1389.39 593.905L1389.04 591.592L1389.74 588.933L1391.01 586.851L1391.12 584.307L1391.47 583.267L1386.15 585.117L1385.34 586.042L1384.88 587.083Z"/>
</mask>
<path d="M1392.97 583.035L1391.7 586.273L1392.28 587.545L1392.74 586.273L1393.67 582.689L1392.97 583.035ZM1352.97 574.941L1352.16 573.785L1353.31 573.669L1354.47 572.629L1354.93 570.547L1354.7 569.969L1354.82 569.391L1354.47 568.581L1353.78 568.003L1353.31 567.888L1352.73 567.425L1352.04 566.731H1350.88L1350.19 566.616L1349.73 566.153L1349.84 565.575L1347.88 564.881L1346.95 565.228L1345.57 565.112L1344.76 564.303L1344.18 564.072L1343.95 563.262L1344.64 562.337V561.297L1343.25 561.065L1342.1 560.025L1341.06 560.14L1339.21 559.793L1338.74 560.603L1338.28 562.453L1337.7 565.112L1326.14 559.1L1325.91 560.14L1326.95 561.99L1326.02 564.65L1326.14 568.003L1324.75 568.928L1324.17 571.357L1323.13 572.282L1321.51 574.363L1320.47 575.288L1319.32 578.179L1316.54 576.907L1313.88 586.736L1312.38 588.586L1309.14 588.008L1307.64 585.811L1304.98 585.001L1304.86 590.436L1303.24 592.402L1303.71 594.136L1301.28 596.68L1301.74 598.877L1297.46 606.162L1296.31 609.978L1298.04 611.365L1296.31 613.562L1296.42 615.181L1293.76 617.494L1292.95 616.222L1287.98 619.806L1286.25 618.65L1285.55 620.269L1286.48 620.847L1285.9 621.888L1279.54 624.663L1276.07 622.582L1275.15 624.547L1272.95 626.629L1270.29 626.744L1265.2 624.085L1265.09 622.35L1263.35 621.541L1264.28 620.153L1263.47 619.459L1257.8 627.091L1254.45 628.247L1250.98 631.716L1250.52 634.26L1248.09 635.764L1247.97 637.729L1246.35 639.348L1244.27 639.926L1243.69 642.123L1242.54 642.586L1234.56 647.442L1267.98 643.626L1268.21 642.47L1273.53 641.892L1273.18 642.701L1307.18 638.654L1352.73 630.213L1386.38 623.16L1385.69 621.772L1386.15 621.656L1387.19 622.697L1387.08 621.078L1386.73 618.881L1388.58 620.269L1389.62 622.697V621.194L1385.69 614.834V613.447L1384.88 612.522L1383.38 613.331L1383.96 614.95H1383.03L1382.57 613.793L1381.87 614.834L1380.83 613.562L1378.4 613.447L1378.17 614.256L1379.91 616.684L1378.29 615.875L1377.71 614.719L1377.25 615.644L1376.32 615.759L1374.59 617.725L1374.94 615.875V614.256L1373.2 613.447L1371.12 612.868L1370.89 610.903L1370.19 609.399L1369.5 610.671L1367.54 609.515L1365.22 609.862L1365.45 608.821L1367.19 608.59L1368.23 609.168L1370.19 608.243L1371.24 608.706L1371.81 609.862V610.671L1374.01 611.134L1374.36 612.175L1375.4 612.637L1376.44 614.025L1378.06 612.175H1378.75L1378.64 609.746L1377.13 610.903L1376.44 609.862L1378.17 609.631L1376.79 608.59L1375.4 609.284L1375.28 607.318L1373.32 607.549L1370.77 606.277L1368.69 603.733L1372.85 606.277L1373.9 606.624L1375.86 605.699L1373.9 604.659L1374.59 603.965L1373.43 603.387L1374.36 603.155L1374.01 602.115L1375.28 603.155L1375.75 602.23L1376.21 603.733L1377.6 604.659L1378.29 604.08L1377.71 603.387L1377.6 600.496L1376.32 600.38L1374.47 599.455L1375.51 598.183L1373.2 598.068L1372.74 597.489L1371.12 598.183L1369.5 597.258L1368.92 595.871L1366.49 594.483L1364.07 592.402L1361.52 590.205L1364.99 591.708L1366.03 593.095L1368.46 593.905L1371.12 596.796L1371.35 594.83L1372.04 596.333L1374.7 596.911V592.286L1373.78 591.014L1375.05 591.477L1375.17 589.626L1371.58 588.008L1369.73 587.776L1368.23 587.545L1368.58 586.157L1366.84 585.811L1366.73 585.117H1364.64L1364.41 586.042L1363.6 584.886H1360.48L1359.33 584.423L1359.09 583.267L1357.71 582.573L1357.24 580.838L1356.55 580.376L1355.74 581.648L1354.7 581.879L1353.66 582.689H1351.92L1350.88 581.185L1351.35 577.601L1351.92 574.826L1352.62 575.404L1352.97 574.941ZM1378.29 588.354L1379.33 588.239V587.545L1378.4 587.661L1378.29 588.354ZM1386.96 604.774L1385.81 607.896L1387.19 606.393L1386.96 604.774ZM1384.88 587.083L1385.69 587.429L1385.46 589.626L1384.88 589.048L1383.38 590.205L1384.53 590.667L1382.45 595.755L1382.57 605.121L1384.76 608.706L1385.34 606.971L1385.81 603.849L1385.46 601.19L1386.27 600.149L1386.04 598.53L1387.42 597.836L1386.73 597.258L1387.31 596.449L1388.23 597.721L1388 598.993L1387.54 603.502L1388.81 600.958L1389.27 597.374L1389.39 593.905L1389.04 591.592L1389.74 588.933L1391.01 586.851L1391.12 584.307L1391.47 583.267L1386.15 585.117L1385.34 586.042L1384.88 587.083Z" fill="#D0D0D0" stroke="white" stroke-width="1.15632" mask="url(#path-96-inside-6_6206_43323)"/>
<mask id="path-97-inside-7_6206_43323" fill="white">
<path d="M1264.28 620.153L1263.35 621.541L1265.08 622.35L1265.2 624.084L1270.29 626.744L1272.95 626.628L1275.14 624.547L1276.07 622.581L1279.54 624.663L1285.9 621.887L1286.48 620.847L1285.55 620.269L1286.25 618.65L1287.98 619.806L1292.95 616.222L1293.76 617.493L1296.42 615.181L1296.31 613.562L1298.04 611.365L1296.31 609.977L1297.46 606.162L1301.74 598.877L1301.28 596.68L1303.71 594.136L1303.24 592.401L1304.86 590.436L1304.98 585.001L1307.64 585.81L1309.14 588.007L1312.38 588.586L1313.88 586.735L1316.54 576.907L1319.32 578.179L1320.47 575.288L1321.51 574.363L1323.13 572.281L1324.17 571.356L1324.75 568.928L1326.14 568.003L1326.02 564.65L1326.95 561.99L1325.91 560.14L1326.14 559.099L1337.7 565.112L1338.28 562.453L1338.74 560.603L1339.2 559.793L1338.16 559.331L1338.4 557.481L1337.24 556.902L1337.01 556.093H1336.2L1335.27 554.705L1335.5 553.549L1332.5 554.012L1329.95 552.161L1328.34 552.508L1327.29 554.127H1325.79L1323.83 557.481L1320.01 557.943L1317.81 556.787L1314.81 561.181L1312.26 560.834L1308.68 565.344L1307.64 567.194L1305.56 569.044L1303.59 555.862L1283.47 559.215L1279.77 536.436L1277.23 537.823L1278.84 540.251L1278.73 542.795L1279.42 545.108L1278.15 549.039L1278.04 555.284L1276.88 559.446L1277.46 560.718L1276.99 563.262L1275.72 563.84L1273.41 567.656L1271.33 569.969H1270.63L1268.55 571.935L1267.05 570.547L1265.32 572.628L1264.97 574.016H1263.47L1261.96 576.56L1262.08 578.988L1260.92 579.566L1262.54 580.838V583.035L1261.38 583.266L1260.57 584.191L1259.42 584.77L1258.72 582.341L1256.87 581.763L1255.72 584.423L1255.37 586.967L1254.1 588.47L1255.6 592.633L1253.87 593.558L1253.41 597.605H1251.67L1247.97 599.224L1247.86 600.496L1248.55 601.652L1247.86 605.815L1250.05 607.665L1250.98 608.937L1252.13 609.631L1252.02 610.671L1257.11 617.147H1258.72L1260.46 619.228L1261.85 619.575L1263.47 619.459L1264.28 620.153Z"/>
</mask>
<path d="M1264.28 620.153L1263.35 621.541L1265.08 622.35L1265.2 624.084L1270.29 626.744L1272.95 626.628L1275.14 624.547L1276.07 622.581L1279.54 624.663L1285.9 621.887L1286.48 620.847L1285.55 620.269L1286.25 618.65L1287.98 619.806L1292.95 616.222L1293.76 617.493L1296.42 615.181L1296.31 613.562L1298.04 611.365L1296.31 609.977L1297.46 606.162L1301.74 598.877L1301.28 596.68L1303.71 594.136L1303.24 592.401L1304.86 590.436L1304.98 585.001L1307.64 585.81L1309.14 588.007L1312.38 588.586L1313.88 586.735L1316.54 576.907L1319.32 578.179L1320.47 575.288L1321.51 574.363L1323.13 572.281L1324.17 571.356L1324.75 568.928L1326.14 568.003L1326.02 564.65L1326.95 561.99L1325.91 560.14L1326.14 559.099L1337.7 565.112L1338.28 562.453L1338.74 560.603L1339.2 559.793L1338.16 559.331L1338.4 557.481L1337.24 556.902L1337.01 556.093H1336.2L1335.27 554.705L1335.5 553.549L1332.5 554.012L1329.95 552.161L1328.34 552.508L1327.29 554.127H1325.79L1323.83 557.481L1320.01 557.943L1317.81 556.787L1314.81 561.181L1312.26 560.834L1308.68 565.344L1307.64 567.194L1305.56 569.044L1303.59 555.862L1283.47 559.215L1279.77 536.436L1277.23 537.823L1278.84 540.251L1278.73 542.795L1279.42 545.108L1278.15 549.039L1278.04 555.284L1276.88 559.446L1277.46 560.718L1276.99 563.262L1275.72 563.84L1273.41 567.656L1271.33 569.969H1270.63L1268.55 571.935L1267.05 570.547L1265.32 572.628L1264.97 574.016H1263.47L1261.96 576.56L1262.08 578.988L1260.92 579.566L1262.54 580.838V583.035L1261.38 583.266L1260.57 584.191L1259.42 584.77L1258.72 582.341L1256.87 581.763L1255.72 584.423L1255.37 586.967L1254.1 588.47L1255.6 592.633L1253.87 593.558L1253.41 597.605H1251.67L1247.97 599.224L1247.86 600.496L1248.55 601.652L1247.86 605.815L1250.05 607.665L1250.98 608.937L1252.13 609.631L1252.02 610.671L1257.11 617.147H1258.72L1260.46 619.228L1261.85 619.575L1263.47 619.459L1264.28 620.153Z" fill="#D0D0D0" stroke="white" stroke-width="1.15632" mask="url(#path-97-inside-7_6206_43323)"/>
<g opacity="0.25" filter="url(#filter0_f_6206_43323)">
<circle cx="888.235" cy="739.343" r="19.8134" fill="#FF4800"/>
</g>
<g opacity="0.25" filter="url(#filter1_f_6206_43323)">
<circle cx="875.024" cy="707.265" r="19.8134" fill="#FF4800"/>
</g>
<g opacity="0.25" filter="url(#filter2_f_6206_43323)">
<circle cx="918.431" cy="699.718" r="19.8134" fill="#FF4800"/>
</g>
<g opacity="0.25" filter="url(#filter3_f_6206_43323)">
<circle cx="906.161" cy="684.622" r="19.8134" fill="#FF4800"/>
</g>
<g opacity="0.25" filter="url(#filter4_f_6206_43323)">
<circle cx="942.016" cy="836.524" r="19.8134" fill="#FF4800"/>
</g>
<g opacity="0.25" filter="url(#filter5_f_6206_43323)">
<circle cx="950.505" cy="876.149" r="19.8134" fill="#FF4800"/>
</g>
<g opacity="0.25" filter="url(#filter6_f_6206_43323)">
<circle cx="963.712" cy="763.874" r="19.8134" fill="#FF4800"/>
</g>
<g opacity="0.25" filter="url(#filter7_f_6206_43323)">
<circle cx="997.681" cy="757.268" r="19.8134" fill="#FF4800"/>
</g>
<g opacity="0.25" filter="url(#filter8_f_6206_43323)">
<circle cx="974.095" cy="689.339" r="19.8134" fill="#FF4800"/>
</g>
<g opacity="0.25" filter="url(#filter9_f_6206_43323)">
<circle cx="936.352" cy="639.333" r="19.8134" fill="#FF4800"/>
</g>
<g opacity="0.25" filter="url(#filter10_f_6206_43323)">
<circle cx="1026.93" cy="669.526" r="19.8134" fill="#FF4800"/>
</g>
<g opacity="0.25" filter="url(#filter11_f_6206_43323)">
<circle cx="1094.86" cy="704.434" r="19.8134" fill="#FF4800"/>
</g>
<g opacity="0.25" filter="url(#filter12_f_6206_43323)">
<circle cx="1109.01" cy="828.975" r="19.8134" fill="#FF4800"/>
</g>
<g opacity="0.25" filter="url(#filter13_f_6206_43323)">
<circle cx="1163.74" cy="811.048" r="19.8134" fill="#FF4800"/>
</g>
<g opacity="0.25" filter="url(#filter14_f_6206_43323)">
<circle cx="1192.98" cy="799.727" r="19.8134" fill="#FF4800"/>
</g>
<g opacity="0.25" filter="url(#filter15_f_6206_43323)">
<circle cx="1182.61" cy="731.796" r="19.8134" fill="#FF4800"/>
</g>
<g opacity="0.25" filter="url(#filter16_f_6206_43323)">
<circle cx="1202.42" cy="743.118" r="19.8134" fill="#FF4800"/>
</g>
<g opacity="0.25" filter="url(#filter17_f_6206_43323)">
<circle cx="1226" cy="748.778" r="19.8134" fill="#FF4800"/>
</g>
<g opacity="0.25" filter="url(#filter18_f_6206_43323)">
<circle cx="1265.63" cy="762.931" r="19.8134" fill="#FF4800"/>
</g>
<g opacity="0.25" filter="url(#filter19_f_6206_43323)">
<circle cx="1214.68" cy="716.7" r="19.8134" fill="#FF4800"/>
</g>
<g opacity="0.25" filter="url(#filter20_f_6206_43323)">
<circle cx="1206.19" cy="698.774" r="19.8134" fill="#FF4800"/>
</g>
<g opacity="0.25" filter="url(#filter21_f_6206_43323)">
<circle cx="1244.88" cy="694.057" r="19.8134" fill="#FF4800"/>
</g>
<g opacity="0.25" filter="url(#filter22_f_6206_43323)">
<circle cx="1244.88" cy="680.847" r="19.8134" fill="#FF4800"/>
</g>
<g opacity="0.25" filter="url(#filter23_f_6206_43323)">
<circle cx="1235.44" cy="674.243" r="19.8134" fill="#FF4800"/>
</g>
<g opacity="0.25" filter="url(#filter24_f_6206_43323)">
<circle cx="1227.89" cy="662.921" r="19.8134" fill="#FF4800"/>
</g>
<g opacity="0.25" filter="url(#filter25_f_6206_43323)">
<circle cx="1281.67" cy="644.995" r="19.8134" fill="#FF4800"/>
</g>
<g opacity="0.25" filter="url(#filter26_f_6206_43323)">
<circle cx="1247.7" cy="644.995" r="19.8134" fill="#FF4800"/>
</g>
<g opacity="0.25" filter="url(#filter27_f_6206_43323)">
<circle cx="1314.69" cy="669.526" r="19.8134" fill="#FF4800"/>
</g>
<g opacity="0.25" filter="url(#filter28_f_6206_43323)">
<circle cx="1374.13" cy="669.526" r="19.8134" fill="#FF4800"/>
</g>
<g opacity="0.25" filter="url(#filter29_f_6206_43323)">
<circle cx="1370.36" cy="641.22" r="19.8134" fill="#FF4800"/>
</g>
</g>
</g>
<text fill="#1A1A1A" style="white-space: pre" xml:space="preserve" font-family="Helvetica-Neue" font-size="17.018" letter-spacing="0px"><tspan x="755" y="570.856">Bill to [Contract], Amount [Contract revenue schedule entry]</tspan></text>
<rect x="1391.95" y="568.643" width="55.9515" height="6.71418" rx="3.35709" transform="rotate(-180 1391.95 568.643)" fill="#CCD6DB"/>
</g>
<defs>
<filter id="filter0_f_6206_43323" x="864.648" y="715.755" width="47.1749" height="47.1749" filterUnits="userSpaceOnUse" color-interpolation-filters="sRGB">
<feFlood flood-opacity="0" result="BackgroundImageFix"/>
<feBlend mode="normal" in="SourceGraphic" in2="BackgroundImageFix" result="shape"/>
<feGaussianBlur stdDeviation="1.88699" result="effect1_foregroundBlur_6206_43323"/>
</filter>
<filter id="filter1_f_6206_43323" x="851.437" y="683.677" width="47.1749" height="47.1749" filterUnits="userSpaceOnUse" color-interpolation-filters="sRGB">
<feFlood flood-opacity="0" result="BackgroundImageFix"/>
<feBlend mode="normal" in="SourceGraphic" in2="BackgroundImageFix" result="shape"/>
<feGaussianBlur stdDeviation="1.88699" result="effect1_foregroundBlur_6206_43323"/>
</filter>
<filter id="filter2_f_6206_43323" x="894.843" y="676.13" width="47.1749" height="47.1749" filterUnits="userSpaceOnUse" color-interpolation-filters="sRGB">
<feFlood flood-opacity="0" result="BackgroundImageFix"/>
<feBlend mode="normal" in="SourceGraphic" in2="BackgroundImageFix" result="shape"/>
<feGaussianBlur stdDeviation="1.88699" result="effect1_foregroundBlur_6206_43323"/>
</filter>
<filter id="filter3_f_6206_43323" x="882.574" y="661.035" width="47.1749" height="47.1749" filterUnits="userSpaceOnUse" color-interpolation-filters="sRGB">
<feFlood flood-opacity="0" result="BackgroundImageFix"/>
<feBlend mode="normal" in="SourceGraphic" in2="BackgroundImageFix" result="shape"/>
<feGaussianBlur stdDeviation="1.88699" result="effect1_foregroundBlur_6206_43323"/>
</filter>
<filter id="filter4_f_6206_43323" x="918.429" y="812.937" width="47.1749" height="47.1749" filterUnits="userSpaceOnUse" color-interpolation-filters="sRGB">
<feFlood flood-opacity="0" result="BackgroundImageFix"/>
<feBlend mode="normal" in="SourceGraphic" in2="BackgroundImageFix" result="shape"/>
<feGaussianBlur stdDeviation="1.88699" result="effect1_foregroundBlur_6206_43323"/>
</filter>
<filter id="filter5_f_6206_43323" x="926.917" y="852.562" width="47.1749" height="47.1749" filterUnits="userSpaceOnUse" color-interpolation-filters="sRGB">
<feFlood flood-opacity="0" result="BackgroundImageFix"/>
<feBlend mode="normal" in="SourceGraphic" in2="BackgroundImageFix" result="shape"/>
<feGaussianBlur stdDeviation="1.88699" result="effect1_foregroundBlur_6206_43323"/>
</filter>
<filter id="filter6_f_6206_43323" x="940.124" y="740.287" width="47.1749" height="47.1749" filterUnits="userSpaceOnUse" color-interpolation-filters="sRGB">
<feFlood flood-opacity="0" result="BackgroundImageFix"/>
<feBlend mode="normal" in="SourceGraphic" in2="BackgroundImageFix" result="shape"/>
<feGaussianBlur stdDeviation="1.88699" result="effect1_foregroundBlur_6206_43323"/>
</filter>
<filter id="filter7_f_6206_43323" x="974.093" y="733.681" width="47.1749" height="47.1749" filterUnits="userSpaceOnUse" color-interpolation-filters="sRGB">
<feFlood flood-opacity="0" result="BackgroundImageFix"/>
<feBlend mode="normal" in="SourceGraphic" in2="BackgroundImageFix" result="shape"/>
<feGaussianBlur stdDeviation="1.88699" result="effect1_foregroundBlur_6206_43323"/>
</filter>
<filter id="filter8_f_6206_43323" x="950.507" y="665.751" width="47.1749" height="47.1749" filterUnits="userSpaceOnUse" color-interpolation-filters="sRGB">
<feFlood flood-opacity="0" result="BackgroundImageFix"/>
<feBlend mode="normal" in="SourceGraphic" in2="BackgroundImageFix" result="shape"/>
<feGaussianBlur stdDeviation="1.88699" result="effect1_foregroundBlur_6206_43323"/>
</filter>
<filter id="filter9_f_6206_43323" x="912.765" y="615.746" width="47.1749" height="47.1749" filterUnits="userSpaceOnUse" color-interpolation-filters="sRGB">
<feFlood flood-opacity="0" result="BackgroundImageFix"/>
<feBlend mode="normal" in="SourceGraphic" in2="BackgroundImageFix" result="shape"/>
<feGaussianBlur stdDeviation="1.88699" result="effect1_foregroundBlur_6206_43323"/>
</filter>
<filter id="filter10_f_6206_43323" x="1003.34" y="645.939" width="47.1749" height="47.1749" filterUnits="userSpaceOnUse" color-interpolation-filters="sRGB">
<feFlood flood-opacity="0" result="BackgroundImageFix"/>
<feBlend mode="normal" in="SourceGraphic" in2="BackgroundImageFix" result="shape"/>
<feGaussianBlur stdDeviation="1.88699" result="effect1_foregroundBlur_6206_43323"/>
</filter>
<filter id="filter11_f_6206_43323" x="1071.27" y="680.847" width="47.1749" height="47.1749" filterUnits="userSpaceOnUse" color-interpolation-filters="sRGB">
<feFlood flood-opacity="0" result="BackgroundImageFix"/>
<feBlend mode="normal" in="SourceGraphic" in2="BackgroundImageFix" result="shape"/>
<feGaussianBlur stdDeviation="1.88699" result="effect1_foregroundBlur_6206_43323"/>
</filter>
<filter id="filter12_f_6206_43323" x="1085.43" y="805.388" width="47.1749" height="47.1749" filterUnits="userSpaceOnUse" color-interpolation-filters="sRGB">
<feFlood flood-opacity="0" result="BackgroundImageFix"/>
<feBlend mode="normal" in="SourceGraphic" in2="BackgroundImageFix" result="shape"/>
<feGaussianBlur stdDeviation="1.88699" result="effect1_foregroundBlur_6206_43323"/>
</filter>
<filter id="filter13_f_6206_43323" x="1140.15" y="787.46" width="47.1749" height="47.1749" filterUnits="userSpaceOnUse" color-interpolation-filters="sRGB">
<feFlood flood-opacity="0" result="BackgroundImageFix"/>
<feBlend mode="normal" in="SourceGraphic" in2="BackgroundImageFix" result="shape"/>
<feGaussianBlur stdDeviation="1.88699" result="effect1_foregroundBlur_6206_43323"/>
</filter>
<filter id="filter14_f_6206_43323" x="1169.39" y="776.14" width="47.1749" height="47.1749" filterUnits="userSpaceOnUse" color-interpolation-filters="sRGB">
<feFlood flood-opacity="0" result="BackgroundImageFix"/>
<feBlend mode="normal" in="SourceGraphic" in2="BackgroundImageFix" result="shape"/>
<feGaussianBlur stdDeviation="1.88699" result="effect1_foregroundBlur_6206_43323"/>
</filter>
<filter id="filter15_f_6206_43323" x="1159.02" y="708.208" width="47.1749" height="47.1749" filterUnits="userSpaceOnUse" color-interpolation-filters="sRGB">
<feFlood flood-opacity="0" result="BackgroundImageFix"/>
<feBlend mode="normal" in="SourceGraphic" in2="BackgroundImageFix" result="shape"/>
<feGaussianBlur stdDeviation="1.88699" result="effect1_foregroundBlur_6206_43323"/>
</filter>
<filter id="filter16_f_6206_43323" x="1178.83" y="719.531" width="47.1749" height="47.1749" filterUnits="userSpaceOnUse" color-interpolation-filters="sRGB">
<feFlood flood-opacity="0" result="BackgroundImageFix"/>
<feBlend mode="normal" in="SourceGraphic" in2="BackgroundImageFix" result="shape"/>
<feGaussianBlur stdDeviation="1.88699" result="effect1_foregroundBlur_6206_43323"/>
</filter>
<filter id="filter17_f_6206_43323" x="1202.42" y="725.191" width="47.1749" height="47.1749" filterUnits="userSpaceOnUse" color-interpolation-filters="sRGB">
<feFlood flood-opacity="0" result="BackgroundImageFix"/>
<feBlend mode="normal" in="SourceGraphic" in2="BackgroundImageFix" result="shape"/>
<feGaussianBlur stdDeviation="1.88699" result="effect1_foregroundBlur_6206_43323"/>
</filter>
<filter id="filter18_f_6206_43323" x="1242.05" y="739.343" width="47.1749" height="47.1749" filterUnits="userSpaceOnUse" color-interpolation-filters="sRGB">
<feFlood flood-opacity="0" result="BackgroundImageFix"/>
<feBlend mode="normal" in="SourceGraphic" in2="BackgroundImageFix" result="shape"/>
<feGaussianBlur stdDeviation="1.88699" result="effect1_foregroundBlur_6206_43323"/>
</filter>
<filter id="filter19_f_6206_43323" x="1191.09" y="693.113" width="47.1749" height="47.1749" filterUnits="userSpaceOnUse" color-interpolation-filters="sRGB">
<feFlood flood-opacity="0" result="BackgroundImageFix"/>
<feBlend mode="normal" in="SourceGraphic" in2="BackgroundImageFix" result="shape"/>
<feGaussianBlur stdDeviation="1.88699" result="effect1_foregroundBlur_6206_43323"/>
</filter>
<filter id="filter20_f_6206_43323" x="1182.6" y="675.187" width="47.1749" height="47.1749" filterUnits="userSpaceOnUse" color-interpolation-filters="sRGB">
<feFlood flood-opacity="0" result="BackgroundImageFix"/>
<feBlend mode="normal" in="SourceGraphic" in2="BackgroundImageFix" result="shape"/>
<feGaussianBlur stdDeviation="1.88699" result="effect1_foregroundBlur_6206_43323"/>
</filter>
<filter id="filter21_f_6206_43323" x="1221.29" y="670.47" width="47.1749" height="47.1749" filterUnits="userSpaceOnUse" color-interpolation-filters="sRGB">
<feFlood flood-opacity="0" result="BackgroundImageFix"/>
<feBlend mode="normal" in="SourceGraphic" in2="BackgroundImageFix" result="shape"/>
<feGaussianBlur stdDeviation="1.88699" result="effect1_foregroundBlur_6206_43323"/>
</filter>
<filter id="filter22_f_6206_43323" x="1221.29" y="657.259" width="47.1749" height="47.1749" filterUnits="userSpaceOnUse" color-interpolation-filters="sRGB">
<feFlood flood-opacity="0" result="BackgroundImageFix"/>
<feBlend mode="normal" in="SourceGraphic" in2="BackgroundImageFix" result="shape"/>
<feGaussianBlur stdDeviation="1.88699" result="effect1_foregroundBlur_6206_43323"/>
</filter>
<filter id="filter23_f_6206_43323" x="1211.85" y="650.656" width="47.1749" height="47.1749" filterUnits="userSpaceOnUse" color-interpolation-filters="sRGB">
<feFlood flood-opacity="0" result="BackgroundImageFix"/>
<feBlend mode="normal" in="SourceGraphic" in2="BackgroundImageFix" result="shape"/>
<feGaussianBlur stdDeviation="1.88699" result="effect1_foregroundBlur_6206_43323"/>
</filter>
<filter id="filter24_f_6206_43323" x="1204.3" y="639.333" width="47.1749" height="47.1749" filterUnits="userSpaceOnUse" color-interpolation-filters="sRGB">
<feFlood flood-opacity="0" result="BackgroundImageFix"/>
<feBlend mode="normal" in="SourceGraphic" in2="BackgroundImageFix" result="shape"/>
<feGaussianBlur stdDeviation="1.88699" result="effect1_foregroundBlur_6206_43323"/>
</filter>
<filter id="filter25_f_6206_43323" x="1258.09" y="621.408" width="47.1749" height="47.1749" filterUnits="userSpaceOnUse" color-interpolation-filters="sRGB">
<feFlood flood-opacity="0" result="BackgroundImageFix"/>
<feBlend mode="normal" in="SourceGraphic" in2="BackgroundImageFix" result="shape"/>
<feGaussianBlur stdDeviation="1.88699" result="effect1_foregroundBlur_6206_43323"/>
</filter>
<filter id="filter26_f_6206_43323" x="1224.12" y="621.408" width="47.1749" height="47.1749" filterUnits="userSpaceOnUse" color-interpolation-filters="sRGB">
<feFlood flood-opacity="0" result="BackgroundImageFix"/>
<feBlend mode="normal" in="SourceGraphic" in2="BackgroundImageFix" result="shape"/>
<feGaussianBlur stdDeviation="1.88699" result="effect1_foregroundBlur_6206_43323"/>
</filter>
<filter id="filter27_f_6206_43323" x="1291.1" y="645.939" width="47.1749" height="47.1749" filterUnits="userSpaceOnUse" color-interpolation-filters="sRGB">
<feFlood flood-opacity="0" result="BackgroundImageFix"/>
<feBlend mode="normal" in="SourceGraphic" in2="BackgroundImageFix" result="shape"/>
<feGaussianBlur stdDeviation="1.88699" result="effect1_foregroundBlur_6206_43323"/>
</filter>
<filter id="filter28_f_6206_43323" x="1350.55" y="645.939" width="47.1749" height="47.1749" filterUnits="userSpaceOnUse" color-interpolation-filters="sRGB">
<feFlood flood-opacity="0" result="BackgroundImageFix"/>
<feBlend mode="normal" in="SourceGraphic" in2="BackgroundImageFix" result="shape"/>
<feGaussianBlur stdDeviation="1.88699" result="effect1_foregroundBlur_6206_43323"/>
</filter>
<filter id="filter29_f_6206_43323" x="1346.77" y="617.632" width="47.1749" height="47.1749" filterUnits="userSpaceOnUse" color-interpolation-filters="sRGB">
<feFlood flood-opacity="0" result="BackgroundImageFix"/>
<feBlend mode="normal" in="SourceGraphic" in2="BackgroundImageFix" result="shape"/>
<feGaussianBlur stdDeviation="1.88699" result="effect1_foregroundBlur_6206_43323"/>
</filter>
<radialGradient id="paint0_radial_6206_43323" cx="0" cy="0" r="1" gradientTransform="matrix(10.5 9.5 -7.88115 9.9214 1295.5 28)" gradientUnits="userSpaceOnUse">
<stop offset="0.341666" stop-color="#9D60FF"/>
<stop offset="0.72" stop-color="#00D6DE"/>
<stop offset="0.896666" stop-color="#00D639"/>
</radialGradient>
<linearGradient id="paint1_linear_6206_43323" x1="1282.5" y1="54" x2="1294.47" y2="25.5352" gradientUnits="userSpaceOnUse">
<stop stop-color="#00D639"/>
<stop offset="0.4" stop-color="#00D6DE"/>
<stop offset="0.9" stop-color="#9D60FF"/>
</linearGradient>
<clipPath id="clip0_6206_43323">
<rect width="1440" height="920" rx="20" fill="white"/>
</clipPath>
<clipPath id="clip1_6206_43323">
<rect width="1440" height="69.3333" fill="white"/>
</clipPath>
<clipPath id="clip2_6206_43323">
<rect width="333.333" height="53.3333" fill="white" transform="translate(130.667 66.833)"/>
</clipPath>
<clipPath id="clip3_6206_43323">
<rect width="684" height="302" fill="white" transform="translate(732 594)"/>
</clipPath>
<clipPath id="clip4_6206_43323">
<rect width="1108.91" height="685.697" fill="white" transform="translate(427.793 276.146)"/>
</clipPath>
</defs>
</svg>
