<svg width="708" height="550" viewBox="0 0 708 550" fill="none" xmlns="http://www.w3.org/2000/svg">
<g clip-path="url(#clip0_1116_24487)">
<path d="M535.935 379.815H124.568C116.683 379.815 110.27 373.406 110.27 365.525V141.86C110.27 133.978 116.683 127.569 124.568 127.569H301.101C374.991 127.569 407.929 108.2 429.727 95.3816C441.449 88.4885 450.71 83.042 461.711 83.042C475.037 83.042 478.768 95.5088 481.768 105.528C485.859 119.195 489.047 127.569 502.373 127.569H535.931C543.817 127.569 550.23 133.978 550.23 141.86V365.525C550.23 373.406 543.817 379.815 535.931 379.815H535.935ZM124.568 139.319C123.168 139.319 122.026 140.46 122.026 141.86V365.525C122.026 366.924 123.168 368.066 124.568 368.066H535.935C537.336 368.066 538.478 366.924 538.478 365.525V141.86C538.478 140.46 537.336 139.319 535.935 139.319H502.377C492.349 139.319 484.501 135.671 479.056 128.477C474.613 122.61 472.431 115.323 470.509 108.896C467.287 98.143 465.653 94.792 461.715 94.792C453.914 94.792 446.271 99.2883 435.694 105.507C412.797 118.971 378.2 139.319 301.106 139.319H124.568Z" fill="#00D539"/>
<path d="M230.389 359.223C229.124 359.223 227.927 358.608 227.193 357.569L196.313 314.009L160.637 346.697C159.041 348.156 156.563 348.05 155.099 346.455C153.634 344.86 153.745 342.383 155.341 340.919L194.293 305.233C195.12 304.473 196.237 304.109 197.357 304.223C198.478 304.342 199.488 304.936 200.141 305.852L230.045 348.037L273.144 273.016C273.78 271.904 274.922 271.179 276.2 271.064C277.473 270.95 278.725 271.472 279.548 272.452L301.651 298.827L335.303 217.888C335.901 216.45 337.298 215.5 338.855 215.475C340.421 215.466 341.843 216.349 342.488 217.765L369.311 276.587L458.764 96.902C459.727 94.9635 462.082 94.1745 464.018 95.1417C465.957 96.1046 466.747 98.4545 465.779 100.393L372.664 287.442C372.002 288.774 370.639 289.614 369.154 289.614C369.133 289.614 369.107 289.614 369.086 289.614C367.575 289.589 366.213 288.698 365.584 287.324L339.08 229.206L306.405 307.799C305.879 309.063 304.733 309.962 303.379 310.166C302.029 310.374 300.663 309.861 299.784 308.809L277.138 281.792L233.784 357.259C233.118 358.417 231.908 359.16 230.571 359.223C230.508 359.223 230.448 359.227 230.385 359.227L230.389 359.223Z" fill="white"/>
<path d="M465.373 136.232C463.369 136.232 461.663 134.705 461.477 132.673L459.002 105.856L434.132 123.892C432.379 125.165 429.93 124.775 428.657 123.023C427.388 121.271 427.774 118.823 429.527 117.551L459.97 95.4762C461.112 94.649 462.605 94.4963 463.891 95.0774C465.173 95.6586 466.047 96.8845 466.175 98.2843L469.281 131.952C469.481 134.107 467.894 136.011 465.738 136.211C465.615 136.224 465.491 136.228 465.373 136.228V136.232Z" fill="white"/>
<path d="M573.326 468.038C572.656 468.038 572.023 467.64 571.756 466.986C571.4 466.121 571.816 465.129 572.681 464.772L578.173 462.524C579.039 462.168 580.032 462.583 580.389 463.453C580.745 464.318 580.329 465.311 579.463 465.667L573.972 467.915C573.759 468 573.543 468.043 573.331 468.043L573.326 468.038Z" fill="#474747"/>
<path d="M578.573 465.782C575.156 465.782 572.334 463.076 572.215 459.64L568.098 339.939C567.98 336.426 570.73 333.482 574.244 333.359C577.749 333.236 580.703 335.989 580.826 339.502L584.943 459.203C585.062 462.715 582.312 465.659 578.798 465.782C578.721 465.782 578.649 465.782 578.573 465.782Z" fill="#474747"/>
<path d="M549.271 462.696C548.44 462.696 547.714 462.085 547.595 461.241C547.459 460.312 548.104 459.451 549.034 459.319L556.338 458.263C557.267 458.132 558.129 458.772 558.26 459.701C558.396 460.63 557.751 461.491 556.822 461.623L549.517 462.679C549.437 462.692 549.352 462.696 549.271 462.696Z" fill="#474747"/>
<path d="M556.558 461.609C556.341 461.609 556.121 461.597 555.9 461.575C552.403 461.215 549.856 458.093 550.217 454.598L562.415 335.864C562.775 332.368 565.899 329.827 569.396 330.184C572.893 330.544 575.44 333.666 575.079 337.162L562.882 455.896C562.546 459.17 559.779 461.609 556.558 461.609Z" fill="#474747"/>
<path d="M546.986 280.858C546.328 280.858 545.666 280.667 545.081 280.272L514.93 259.822C513.377 258.77 512.974 256.658 514.027 255.109C515.079 253.557 517.193 253.154 518.742 254.206L548.892 274.656C550.445 275.708 550.848 277.82 549.796 279.369C549.138 280.336 548.068 280.858 546.982 280.858H546.986Z" fill="#B26E3D"/>
<path d="M588.176 380.967C587.828 380.967 587.475 380.912 587.127 380.802C585.341 380.229 584.364 378.299 584.937 376.518C584.959 376.454 584.984 376.373 585.022 376.272C585.485 374.986 586.707 370.151 588.07 353.052C588.218 351.185 589.856 349.785 591.724 349.938C593.595 350.087 594.987 351.724 594.839 353.59C593.791 366.757 592.636 375.165 591.41 378.566L591.388 378.622C590.926 380.055 589.602 380.963 588.171 380.963L588.176 380.967Z" fill="#B26E3D"/>
<path d="M590.969 355.763C590.905 355.763 590.846 355.763 590.782 355.763C587.191 355.661 584.365 352.67 584.467 349.082C585.362 317.607 583.809 313.48 580.982 308.89C579.102 305.832 580.057 301.832 583.113 299.953C586.173 298.073 590.175 299.028 592.055 302.082C596.736 309.692 598.417 315.749 597.458 349.447C597.356 352.972 594.466 355.758 590.964 355.758L590.969 355.763Z" fill="white"/>
<path d="M570.045 299.197C568.849 299.197 567.639 298.866 566.557 298.179C564.07 296.592 544.237 283.438 543.392 282.878C540.4 280.893 539.586 276.863 541.572 273.873C543.558 270.882 547.59 270.068 550.582 272.053C557.691 276.766 571.633 286.005 573.547 287.222C576.573 289.152 577.464 293.169 575.533 296.194C574.294 298.136 572.193 299.197 570.045 299.197V299.197Z" fill="white"/>
<path d="M586.53 311.98C584.349 311.98 582.214 310.881 580.987 308.888C580.24 307.679 578.972 306.385 574.957 303.687C570.432 300.65 569.04 299.755 566.562 298.177C563.536 296.247 562.644 292.234 564.576 289.205C566.507 286.181 570.521 285.29 573.552 287.216C576.052 288.807 577.571 289.782 582.21 292.896C587.434 296.404 590.108 298.894 592.065 302.075C593.945 305.134 592.99 309.134 589.934 311.013C588.873 311.666 587.697 311.976 586.534 311.976L586.53 311.98Z" fill="white"/>
<path d="M571.518 294.004L564.295 329.725C563.395 334.162 566.57 338.395 571.081 338.781C574.956 339.112 578.453 336.461 579.179 332.643L584.777 303.188L571.518 294.008V294.004Z" fill="white"/>
<path d="M583.916 289.727C585.82 289.727 587.363 288.185 587.363 286.282C587.363 284.38 585.82 282.838 583.916 282.838C582.013 282.838 580.47 284.38 580.47 286.282C580.47 288.185 582.013 289.727 583.916 289.727Z" fill="#B26E3D"/>
<path d="M587.115 285.011C586.784 284.18 586.164 283.556 585.421 283.191C585.319 283.565 585.264 283.955 585.264 284.358C585.264 285.775 585.922 287.039 586.953 287.904C587.416 287.039 587.505 285.987 587.115 285.007V285.011Z" fill="#454545"/>
</g>
<defs>
<clipPath id="clip0_1116_24487">
<rect width="708" height="550" fill="white"/>
</clipPath>
</defs>
</svg>
