<svg width="60" height="60" viewBox="0 0 60 60" fill="none" xmlns="http://www.w3.org/2000/svg">
<path d="M30 55C49.15 55 50.39 35.41 50.1 27.89C50.04 26.27 48.73 25 47.14 25H12.86C11.26 25 9.96003 26.28 9.90003 27.89C9.62003 35.41 10.85 55 30 55Z" fill="black"/>
<path fill-rule="evenodd" clip-rule="evenodd" d="M27.8 5.01001C26.9746 5.01001 26.3 5.68458 26.3 6.51001C26.3 7.33544 26.9746 8.01001 27.8 8.01001H32.8C35.6146 8.01001 37.9001 10.2954 37.9001 13.11C37.9001 15.9246 35.6146 18.21 32.8 18.21C32.3546 18.21 32 18.5646 32 19.01V21.01C32 22.1146 31.1046 23.01 30 23.01C28.8955 23.01 28 22.1146 28 21.01V19.01C28 16.3554 30.1455 14.21 32.8 14.21C33.4055 14.21 33.9001 13.7154 33.9001 13.11C33.9001 12.5046 33.4055 12.01 32.8 12.01H27.8C24.7655 12.01 22.3 9.54458 22.3 6.51001C22.3 3.47544 24.7655 1.01001 27.8 1.01001H31.8C32.9046 1.01001 33.8 1.90544 33.8 3.01001C33.8 4.11458 32.9046 5.01001 31.8 5.01001H27.8Z" fill="#00D639"/>
<path fill-rule="evenodd" clip-rule="evenodd" d="M1 57C1 55.8954 1.89543 55 3 55H57C58.1046 55 59 55.8954 59 57C59 58.1046 58.1046 59 57 59H3C1.89543 59 1 58.1046 1 57Z" fill="#C6C6C6"/>
<path fill-rule="evenodd" clip-rule="evenodd" d="M48 32.23L47.9712 30.2302C46.8667 30.2462 45.9843 31.1545 46.0003 32.2589C46.0162 33.3615 46.9214 34.2428 48.0233 34.2299L48.0293 34.2299C48.0375 34.2298 48.0537 34.2299 48.0773 34.2302C48.1246 34.2307 48.2012 34.2323 48.3029 34.2366C48.5068 34.2451 48.8081 34.2644 49.1734 34.3072C49.9148 34.3941 50.8664 34.572 51.7887 34.923C52.7163 35.276 53.5155 35.7662 54.0731 36.4189C54.5987 37.0342 55 37.8951 55 39.21C55 40.2701 54.5695 40.9705 53.8008 41.543C52.9471 42.1788 51.6833 42.631 50.2106 42.9116C48.7681 43.1865 47.2955 43.2658 46.163 43.2724C45.602 43.2757 45.1364 43.2611 44.8151 43.246C44.6547 43.2385 44.5309 43.2309 44.4499 43.2254C44.4094 43.2226 44.3797 43.2204 44.3615 43.219L44.343 43.2175L44.3424 43.2175C44.3421 43.2174 44.3418 43.2174 44.3415 43.2174M44.17 45.21C43.9977 47.2026 43.9982 47.2026 43.9989 47.2027L44.0004 47.2028L44.0043 47.2031L44.0157 47.2041L44.0522 47.207C44.0825 47.2094 44.1249 47.2125 44.1784 47.2161C44.2853 47.2234 44.4372 47.2327 44.6276 47.2416C45.0079 47.2595 45.5446 47.2761 46.1864 47.2723C47.4596 47.2649 49.1945 47.1773 50.9594 46.8409C52.6943 46.5103 54.638 45.9069 56.1899 44.7511C57.8268 43.532 59 41.7049 59 39.21C59 36.9699 58.2763 35.1808 57.1144 33.8208C55.9846 32.4982 54.5338 31.6878 53.2114 31.1845C51.8837 30.6793 50.5853 30.4453 49.6391 30.3344C49.1607 30.2783 48.7589 30.2522 48.4707 30.2401C48.3262 30.234 48.2095 30.2314 48.1249 30.2304C48.0826 30.2299 48.0482 30.2298 48.0225 30.2299L47.9902 30.23L47.979 30.2301L47.9747 30.2302L47.9728 30.2302C47.972 30.2302 47.9712 30.2302 48 32.23M44.3415 43.2174C44.3414 43.2174 44.3413 43.2174 44.3412 43.2174L44.3415 43.2174ZM44.3412 43.2174C44.3411 43.2173 44.341 43.2173 44.3409 43.2173L44.3412 43.2174ZM44.3409 43.2173C44.3408 43.2173 44.3407 43.2173 44.3406 43.2173L44.3409 43.2173ZM44.3406 43.2173C43.2409 43.1231 42.2726 43.9378 42.1775 45.0376L44.3406 43.2173ZM42.1775 45.0376C42.0823 46.1381 42.8972 47.1074 43.9977 47.2026L42.1775 45.0376ZM43.9977 47.2026L44.17 45.21L43.9977 47.2026Z" fill="black"/>
<path fill-rule="evenodd" clip-rule="evenodd" d="M16.0373 34.6152C17.117 34.3817 18.1814 35.0677 18.4148 36.1473C18.4147 36.1469 18.4167 36.1561 18.4212 36.1751C18.4255 36.1935 18.4317 36.2197 18.44 36.2533C18.4566 36.3204 18.4812 36.416 18.5147 36.5365C18.5816 36.7778 18.6833 37.117 18.8263 37.5271C19.1132 38.3504 19.56 39.4417 20.2132 40.5929C21.531 42.9153 23.5939 45.3222 26.7344 46.4471C27.7743 46.8196 28.3153 47.9645 27.9429 49.0044C27.5704 50.0443 26.4255 50.5853 25.3856 50.2129C21.0162 48.6478 18.319 45.3597 16.7343 42.5671C15.1479 39.7715 14.5698 37.2913 14.5052 36.9927C14.2718 35.913 14.9577 34.8486 16.0373 34.6152Z" fill="white"/>
</svg>
