<svg width="60" height="60" viewBox="0 0 60 60" fill="none" xmlns="http://www.w3.org/2000/svg">
<path fill-rule="evenodd" clip-rule="evenodd" d="M30 5C20.0646 5 12 13.0646 12 23V30C12 31.1046 11.1046 32 10 32C8.89543 32 8 31.1046 8 30V23C8 10.8554 17.8554 1 30 1C42.1446 1 52 10.8554 52 23V30C52 31.1046 51.1046 32 50 32C48.8954 32 48 31.1046 48 30V23C48 13.0646 39.9354 5 30 5Z" fill="#777777"/>
<path d="M30 57C32.7614 57 35 54.7614 35 52C35 49.2386 32.7614 47 30 47C27.2386 47 25 49.2386 25 52C25 54.7614 27.2386 57 30 57Z" fill="black"/>
<path fill-rule="evenodd" clip-rule="evenodd" d="M30 49C28.3431 49 27 50.3431 27 52C27 53.6569 28.3431 55 30 55C31.6569 55 33 53.6569 33 52C33 50.3431 31.6569 49 30 49ZM23 52C23 48.134 26.134 45 30 45C33.866 45 37 48.134 37 52C37 55.866 33.866 59 30 59C26.134 59 23 55.866 23 52Z" fill="white"/>
<path d="M12 50C5.92 50 1 44.63 1 38C1 31.37 5.93 26 12 26V50Z" fill="#00D639"/>
<path d="M48 26C54.07 26 59 31.37 59 38C59 44.63 54.08 50 48 50V26Z" fill="#00D639"/>
<path fill-rule="evenodd" clip-rule="evenodd" d="M50 44C51.1046 44 52 44.8954 52 46C52 51.5146 47.5146 56 42 56C40.8954 56 40 55.1046 40 54C40 52.8954 40.8954 52 42 52C45.3054 52 48 49.3054 48 46C48 44.8954 48.8954 44 50 44Z" fill="#00D639"/>
</svg>
