<?xml version="1.0" encoding="UTF-8"?>
<!-- Generator: Adobe Illustrator 28.3.0, SVG Export Plug-In . SVG Version: 6.00 Build 0)  -->
<svg fill="#ffffff" xmlns="http://www.w3.org/2000/svg" xmlns:xlink="http://www.w3.org/1999/xlink" version="1.1" id="Layer_1" x="0px" y="0px" viewBox="0 0 704.4 386.7" style="enable-background:new 0 0 704.4 386.7;" xml:space="preserve">
<style type="text/css">
	.st0{clip-path:url(#SVGID_00000137128305164718397350000015216826139432064899_);fill:#ffffff;}
</style>
<g>
	<defs>
		<rect id="SVGID_1_" x="21.4" y="11.8" width="661.6" height="363.2"></rect>
	</defs>
	<clipPath id="SVGID_00000043446572832220967390000003193922604794253707_">
		<use xlink:href="#SVGID_1_" style="overflow:visible;"></use>
	</clipPath>
	<path style="clip-path:url(#SVGID_00000043446572832220967390000003193922604794253707_);fill:#ffffff;" d="M278.4,83.8   c-0.2-0.3-0.5-0.3-1.6-0.3c-14.4,0-28.7,0-43.1,0c-0.8,0-2.1,0-2.4-0.4c-0.4-0.7,0.4-1.7,0.9-2.4c8.2-12.7,15.6-25.7,19.5-40.4   c1.7-6.4,2.8-12.9,0.8-19.4c-1.5-5-5.9-8.7-10.4-9c-5.3-0.3-10.4,0.3-15.5,2.3c-7.6,3-14.8,6.7-21.5,11.4   c-21.2,15-39.1,33.3-54.3,54.2c-2.1,2.8-4.4,4-7.9,3.9c-7.6,0-15.2-0.1-22.8-0.1c-2.3,0-4.1,0.7-5.4,2.8   c-21.5,33.1-41.7,66.8-58.7,102.5c-12.8,27.1-24.3,54.7-30.7,84.2c-3.6,16.8-5.5,33.8-2.8,50.9c3.8,24,17.2,40.1,40.7,47   c17.3,5.1,34.8,4.6,52.4,2.5c16.5-2,32.6-5.7,48.6-10.2c3.4-1,3.6-1.4,1.8-4.4c-22-35.6-29.7-74.1-22.7-115.3   c6.3-36.5,23.6-67.3,50.9-92.2c7.3-6.7,15.7-12.3,23.1-18.9c18.3-16.4,37.3-31.6,57.5-45.5C278.6,84.5,278.6,84.2,278.4,83.8    M216.4,72.7c-9.1,20.8-23,38.1-38.9,53.9c-9.4,9.3-19.6,17.6-31.5,23.4c-3.9,1.9-8.2,3.2-12.5,4c-8.4,1.5-13.2-2.9-13.3-11.4   c0-0.4,0-0.9,0-1.3c0.1-7.4,2.3-14.3,5.5-20.9c14.4-29.3,34.9-53.2,62-71.5c6.1-4.1,12.6-7.1,19.9-8.5c8.2-1.5,13.6,2.8,13.9,11   C221.8,59,219.4,66,216.4,72.7"></path>
	<path style="clip-path:url(#SVGID_00000043446572832220967390000003193922604794253707_);fill:#ffffff;" d="M268.6,148.2v106.3   h19.9v-71.7c1,1.2,1.5,1.8,2.1,2.5c17.6,22.5,54.2,69.3,54.2,69.3l12.5,0V148.2h-20.1v66c-5.2-6.5-9.9-12.4-14.5-18.3   c-12.1-15.3-37.8-47.7-37.8-47.7S273.7,148.2,268.6,148.2"></path>
	<path style="clip-path:url(#SVGID_00000043446572832220967390000003193922604794253707_);fill:#ffffff;" d="M679.6,165.6   c-3.8-7.6-9.5-12.9-16.9-16.3c-9.6-4.4-19.8-5.3-30.2-4.6c-9.1,0.7-17.6,3.2-25.2,8.6c-15.7,11-15.1,38.3,3.5,47.3   c2.5,1.2,5,2.5,7.7,3.1c8.3,1.8,16.6,3.2,24.9,4.7c5.2,1,10.4,2.1,14.7,5.3c4,3,5.6,7,4.8,12.1c-1,6.3-5.4,9.7-10.9,11.6   c-6.7,2.3-13.6,2.7-20.5,1.6c-10-1.7-18.4-5.9-23-15.6c-0.1-0.2-0.4-0.3-0.7-0.5c-5.4,2.8-10.8,5.6-16.2,8.4   c4.7,11.4,12.6,19,24,22.8c9.8,3.3,19.8,3.7,30,2.9c7.6-0.6,15-2.5,21.7-6.3c12-6.9,16.7-17.5,15.6-30.9   c-1-12.4-7.9-20.4-19.3-24.9c-8.4-3.3-17.2-4.2-26-5.7c-5.3-0.9-10.7-2.1-15.6-4.2c-6.9-3-8.2-11.3-2.8-16.6   c2.2-2.2,5.3-4.1,8.3-4.9c14-3.6,26.5-1.1,36.6,10.2C669,171,674.2,168.3,679.6,165.6"></path>
	<path style="clip-path:url(#SVGID_00000043446572832220967390000003193922604794253707_);fill:#ffffff;" d="M577.5,148.5h-19.8v3.3   c0,13.1,0,26.3,0,39.4c0,7.9,0,15.7-0.4,23.6c-0.7,11.7-7.6,20.5-18,23c-3.8,0.9-7.9,1.1-11.8,0.7c-10.5-1-18.3-6.2-21.7-16.5   c-1.3-4-1.9-8.5-2-12.7c-0.2-19.3-0.1-38.6-0.1-57.9v-2.9h-20v3.2c0,18.6-0.1,37.2,0,55.8c0,4.2,0.2,8.5,1,12.6   c2.8,15.8,11.3,27.3,26.5,33.2c12.7,4.9,25.7,5,38.6,0.6c11.7-4,19.8-12,24.2-23.6c2.3-6,3.4-12.3,3.5-18.7c0.1-17.3,0-34.6,0-51.9   C577.5,155.9,577.5,152.3,577.5,148.5"></path>
	
		<rect x="227.9" y="148.4" style="clip-path:url(#SVGID_00000043446572832220967390000003193922604794253707_);fill:#ffffff;" width="19.6" height="106.2"></rect>
	<path style="clip-path:url(#SVGID_00000043446572832220967390000003193922604794253707_);fill:#ffffff;" d="M469.6,193.6   c-3.3-27.6-23.1-45.1-50.9-45.4c-13.9-0.1-43.3-0.1-44.1,0c0,35.4,0,70.8,0,106.1c0.4,0.2,0.5,0.3,0.7,0.3   c16.7-0.2,33.4,0.2,50-0.7c12-0.6,22.6-5.8,30.8-14.8C468.1,226.2,471.7,210.6,469.6,193.6 M448.2,214.6   c-4.7,13.1-14.4,19.8-28,20.7c-8.3,0.5-16.7,0.1-25.3,0.1c0-22.7,0-68.3,0-68.3s18-0.2,26.4,0.4c15.5,1.1,26.8,12.5,28.6,28   C450.7,202,450.4,208.4,448.2,214.6"></path>
	<path style="clip-path:url(#SVGID_00000043446572832220967390000003193922604794253707_);fill:#ffffff;" d="M270.3,326.4   c-0.6-0.5-1.1-0.8-1.5-1.1c-10.1-6.7-20.8-7.3-31.4-2c-8.4,4.2-12,11.7-11.6,21c0.5,9.2,5.3,15.5,14.1,18.6   c5.6,2,11.5,2.3,17.4,1.4c4.9-0.7,9.3-2.7,13-6c0.6-0.5,1.4-1.4,1.4-2.1c0.1-5.6,0.1-11.2,0.1-16.9h-21v7H263c0,1.8,0,7.1,0,7.1   s-0.6,1-2.4,1.8c-4,1.9-8.1,2.3-12.4,1.7c-7.3-0.9-12.7-5.6-13.3-12c-0.8-7.9,3.2-14.3,10.6-16.7c6.8-2.2,13.1-0.8,19,3.2   C266.3,329.9,268.3,328.2,270.3,326.4"></path>
	<path style="clip-path:url(#SVGID_00000043446572832220967390000003193922604794253707_);fill:#ffffff;" d="M373.2,321.2   c0,0-0.2,17.2,0.1,25.3c0.2,7.8,4.1,13.4,11.5,16.3c6.4,2.5,13,2.6,19.5,0.4c7.7-2.6,12.1-8.6,12.2-16.8c0.1-6.3,0-12.6,0-18.9   v-6.2h-9.3v3c0,7.4,0,14.7,0,22.1c0,4.1-1.7,7.4-5.4,9.4c-9.4,5.1-19.4-0.8-19.5-11.4c0-6.8,0-13.7,0-20.5c0-0.9-0.1-1.8-0.1-2.7   C379.2,321.2,373.2,321.2,373.2,321.2"></path>
	<path style="clip-path:url(#SVGID_00000043446572832220967390000003193922604794253707_);fill:#ffffff;" d="M305,348.8   c1.2-0.4,2.7-0.8,4-1.3c4.5-1.9,7.4-5.1,8-10c0.7-5.2-0.9-9.5-5.3-12.7c-3.5-2.6-7.5-3.5-11.7-3.6c-7.4-0.1-24-0.1-24-0.1   s0,28.4,0,42.4h9.3v-13.9c2.1,0,9.1,0,9.1,0l14.2,14.1h11.1C314.8,358.6,309.6,353.8,305,348.8 M285.4,341.9v-13   c5.5,0,10.9-0.2,16.3,0.1c3.4,0.2,5.8,3,5.9,6.1c0.1,3.5-1.8,6.4-5.5,6.7C296.7,342.2,291.2,341.9,285.4,341.9"></path>
	<path style="clip-path:url(#SVGID_00000043446572832220967390000003193922604794253707_);fill:#ffffff;" d="M360.9,325.5   c-7.5-5.7-16.2-6.3-25-4.2c-8.8,2.1-14.8,7.6-16.8,16.5c-1.9,8.4,0.3,15.8,7,21.4c5.1,4.3,11.2,5.5,17.7,5.7   c2.2-0.2,4.5-0.3,6.7-0.8c9.2-1.8,15.7-6.8,18-16.1C370.9,339.1,368.4,331.2,360.9,325.5 M343.8,357.4c-9.8-0.1-16-6-16-15.1   c0-8.7,6.6-14.7,16.2-14.7c9.8,0,16.1,5.9,16.1,15C360.1,351.7,353.7,357.5,343.8,357.4"></path>
	<path style="clip-path:url(#SVGID_00000043446572832220967390000003193922604794253707_);fill:#ffffff;" d="M460.7,326.8   c-3.5-3.9-8.1-5.5-13.2-5.6c-7.7-0.1-24.5,0-24.5,0s0,28.4,0,42.4h9.2v-12.3c3.7,0,7.1,0.1,10.5,0c3-0.1,6.1,0,9-0.6   C463.5,348.3,468.3,335.4,460.7,326.8 M448.8,343.4c-5.4,0.5-10.8,0.1-16.4,0.1v-14.7c5.2,0,10.3-0.1,15.3,0c4,0.1,7.1,3.1,7.4,6.7   C455.4,339.5,453.1,343,448.8,343.4"></path>
	<polygon style="clip-path:url(#SVGID_00000043446572832220967390000003193922604794253707_);fill:#ffffff;" points="261.5,292.1    261.5,309.1 270.6,309.1 270.6,266.8 261.3,266.8 261.3,284.5 237,284.5 237,266.8 227.9,266.8 227.9,309.1 237.2,309.1    237.2,292.1  "></polygon>
	<path style="clip-path:url(#SVGID_00000043446572832220967390000003193922604794253707_);fill:#ffffff;" d="M327.6,299.8   c1.5,3.6,3.8,6.1,7.1,7.6c9.5,4.2,19.1,4.2,28.5-0.2c4.6-2.1,6.8-6,6.6-11.1c-0.2-5.1-3-8.7-7.7-10.3c-3.9-1.3-8-1.8-12.1-2.7   c-2.9-0.6-6-1-8.7-2.1c-3.1-1.2-3.3-4.6-0.7-6.7c0.9-0.7,2.1-1.3,3.2-1.6c6.3-1.4,12.2-0.8,17.2,4c2.3-1,4.7-2.1,7.1-3.2   c-1.5-2.9-3.7-4.8-6.5-6c-8.4-3.5-16.8-3.6-25.1,0.1c-4.3,1.9-7,5.2-6.8,10.3c0.2,5.1,2.9,8.3,7.5,9.8c3.8,1.2,7.9,1.7,11.8,2.6   c2.9,0.7,6,1,8.7,2.2c3.7,1.7,3.8,6,0.4,8.3c-0.9,0.6-2,1.2-3,1.4c-7.6,1.5-14.8,1.3-20.1-5.9C332.5,297.6,330.1,298.7,327.6,299.8   "></path>
	<path style="clip-path:url(#SVGID_00000043446572832220967390000003193922604794253707_);fill:#ffffff;" d="M658.9,309.1l0-17.8   c0,0,15.7-19.9,19.5-24.7c-3.4,0-10.9,0-10.9,0s-9.4,12.3-13.4,17.6c-3.9-5.4-13.1-17.5-13.1-17.5l-10.9,0l19.1,24.6l0.2,17.8   H658.9z"></path>
	<polygon style="clip-path:url(#SVGID_00000043446572832220967390000003193922604794253707_);fill:#ffffff;" points="586.7,274    602.3,274 602.3,309 611.7,309 611.7,273.8 627.1,273.8 627.1,266.7 586.7,266.7  "></polygon>
	<polygon style="clip-path:url(#SVGID_00000043446572832220967390000003193922604794253707_);fill:#ffffff;" points="435.9,273.9    451.6,273.9 451.6,309 460.9,309 460.9,273.8 476.4,273.8 476.4,266.8 435.9,266.8  "></polygon>
	<polygon style="clip-path:url(#SVGID_00000043446572832220967390000003193922604794253707_);fill:#ffffff;" points="565.9,301.8    540.6,301.8 540.6,266.8 531.4,266.8 531.4,309 565.9,309  "></polygon>
	
		<rect x="421.1" y="266.7" style="clip-path:url(#SVGID_00000043446572832220967390000003193922604794253707_);fill:#ffffff;" width="8.9" height="42.3"></rect>
	
		<rect x="570.4" y="266.7" style="clip-path:url(#SVGID_00000043446572832220967390000003193922604794253707_);fill:#ffffff;" width="9" height="42.3"></rect>
	<path style="clip-path:url(#SVGID_00000043446572832220967390000003193922604794253707_);fill:#ffffff;" d="M315.5,269.4   c-9.6-5.2-19.7-5.3-29.3,0c-12.1,6.7-14.5,23.5-5.1,33.4c5.3,5.6,12.1,7.2,20.6,7.4c1.2-0.1,3.4-0.3,5.6-0.6   c9.3-1.4,16.8-8.4,18.4-17C327.5,282.9,323.8,273.9,315.5,269.4 M316.4,292.5c-2.1,7.6-9.7,11.4-19.1,10   c-12.9-1.8-15.7-16.5-9.2-24.2c3.4-4.1,8.1-5.3,13.9-5.3C312.6,273.4,319.4,282.1,316.4,292.5"></path>
	<path style="clip-path:url(#SVGID_00000043446572832220967390000003193922604794253707_);fill:#ffffff;" d="M504.1,266.8l-10.7,0   c0,0-21.4,41.3-21.8,42.3c1.1,0,9.9,0,9.9,0l4-7.8l26.2,0l4,7.8c0,0,6.6,0,9.9,0C525.1,308,504.1,266.8,504.1,266.8 M489.5,293.5   c3-6,5.9-11.7,9-17.9c3.1,6.1,6,11.9,9.1,17.9H489.5z"></path>
	<path style="clip-path:url(#SVGID_00000043446572832220967390000003193922604794253707_);fill:#ffffff;" d="M413.5,273.7   c-3.4-5-8.5-7-14.3-7.1c-7.7-0.2-24.5,0-24.5,0s0,28.4,0,42.4h9.2v-12.3c1.1,0,2.1,0,3,0c5.3-0.2,10.8,0.2,16-0.6   C414.1,294.3,419.5,282.6,413.5,273.7 M400.5,288.9c-5.4,0.4-10.8,0.1-16.5,0.1v-14.6c5.5,0,10.8-0.2,16.1,0.1   c3.8,0.2,6.6,3.7,6.6,7.2C406.8,285.1,404.3,288.5,400.5,288.9"></path>
</g>
</svg>
