<?xml version="1.0" encoding="utf-8"?>
<!-- Generator: Adobe Illustrator 28.0.0, SVG Export Plug-In . SVG Version: 6.00 Build 0)  -->
<svg fill="#ffffff" version="1.1" id="Layer_1" xmlns="http://www.w3.org/2000/svg" xmlns:xlink="http://www.w3.org/1999/xlink" x="0px" y="0px"
	 viewBox="0 0 298.3 166.5" style="enable-background:new 0 0 298.3 166.5;" xml:space="preserve">
<path d="M267.8,56.8h14.1l15.4,52.8h-11.4l-2.7-10.5h-16.3l-2.8,10.5h-11.4L267.8,56.8z M280.9,90.1L275,66.2h-0.3L269,90.1H280.9z"
	/>
<path d="M223.1,88v21.6h-11.5V56.8h17.2c8.6,0,19.6,1.2,19.6,15.3c0,6.7-2.7,11.8-10.2,14l11.6,23.4h-12.7L227,88L223.1,88L223.1,88
	z M223.1,65v14.6c6.6,0,7.6,0,9.3-0.6c3.7-1.3,4-4.2,4-7.1c0-3.7-1.2-5.5-3.5-6.3C231.1,65,229.6,65,223.1,65"/>
<polygon points="167.7,109.6 167.7,56.8 203.4,56.8 203.4,66.4 179.3,66.4 179.3,77.6 195.9,77.6 195.9,87.3 179.4,87.3 179.4,99.7 
	205.1,99.7 205.1,109.6 "/>
<path d="M125.9,109.6V56.8h17.6c7.8,0,12,1.7,14.9,4.2c3.3,2.9,4.9,7.2,4.9,12.4c0,8.2-4.6,12.1-7,13.5c-3.9,2.3-8.1,2.5-12.2,2.7
	l-6.4,0.2v19.7C137.6,109.6,125.9,109.6,125.9,109.6z M137.6,65.5V81c5.6,0,7.7,0,9.1-0.6c0.9-0.4,4.3-1.9,4.3-7.3
	c0-5.1-2-6.2-3.6-6.8C145.5,65.5,144.7,65.5,137.6,65.5"/>
<path d="M82,89.6V75.4c0-5.4,0.9-10.6,4.6-14.6c3.3-3.7,8.3-5,13.3-5c5.4,0,10.4,1.3,14,5.1c3,3.2,4.6,7.8,4.6,16.3V90
	c0,7.4-1.2,12.2-4.6,15.8c-4.4,4.8-10.8,5.2-14.2,5.2c-5.2,0-13.8-1.9-16.5-10.8C82.2,96.5,82,91.9,82,89.6 M93.9,73.6V92
	c0,5.5,1.1,9.5,6.3,9.5c6.3,0,6.3-5.8,6.3-9.5V73.6c0-3.7,0-8.1-6.2-8.1C93.9,65.5,93.9,71.5,93.9,73.6"/>
<path d="M79.8,132.3c-2.5,1.3-5.1,2.5-7.8,3.5c0.7,3.1,1.5,6.2,2.4,9.3c2.9-1.5,5.7-3.2,8.4-4.9C81.7,137.6,80.7,135,79.8,132.3
	 M77.1,117.8c-2.1,0.8-4.4,1.4-6.9,1.9c0,2.5,0.1,5,0.4,7.7c2.6-0.7,5-1.6,7.3-2.6C77.4,122.5,77.2,120.1,77.1,117.8 M78.2,155.5
	c1.6,3.8,3.4,7.5,5.4,11c3.2-2.5,6.3-5.3,9.2-8.2c-2.1-3-4-6.2-5.7-9.4C84.3,151.3,81.3,153.5,78.2,155.5 M94.4,142.6
	c1.8,2.6,3.8,5.2,5.9,7.7c2.1-2.5,4.1-5.1,5.9-7.7c-2.1-2-4.1-4.1-5.9-6.2C98.4,138.5,96.5,140.6,94.4,142.6 M29.2,130.6
	c4,0.4,8.2,0.7,12.4,0.7c0.7-3.6,1.6-7.1,2.6-10.6c-3.6-0.4-7.3-0.9-10.9-1.6C31.7,122.8,30.4,126.7,29.2,130.6 M107.7,158.4
	c2.9,2.9,6.1,5.7,9.2,8.2c2-3.5,3.8-7.2,5.4-11c-3.1-2-6.1-4.2-8.9-6.5C111.6,152.2,109.7,155.3,107.7,158.4 M49.5,92.4l7.9-26.8
	c0.1-0.1,0.1-0.4,0.4-0.4s0.3,0.2,0.4,0.3l8.4,26.9H49.5z M80.1,109.6l-18-52.8h-8.3l-17.2,52.8h7.8l3.3-11h21l3.6,11
	C72.3,109.6,80.1,109.6,80.1,109.6z M53.9,121.2c-0.6,3.1-1,6.3-1.3,9.5c3.3-0.3,6.5-0.7,9.6-1.3c-0.1-2.9,0.1-5.8,0.3-8.5
	C59.8,121.1,56.9,121.2,53.9,121.2 M52.1,141.7c0,4.1,0.2,8.2,0.7,12.2c3.9-1.1,7.8-2.5,11.7-4.1c-0.7-3.6-1.3-7.2-1.6-10.8
	C59.3,140.1,55.7,140.9,52.1,141.7 M32.1,102.9H7.5V56.8H0.1v52.8h31.9V102.9z M136,149.8c3.8,1.6,7.8,2.9,11.7,4.1
	c0.4-4,0.7-8.1,0.7-12.2c-3.6-0.7-7.2-1.6-10.7-2.6C137.3,142.6,136.7,146.2,136,149.8 M156.2,120.6c1,3.5,1.9,7,2.6,10.6
	c4.2,0,8.3-0.2,12.4-0.7c-1.1-3.9-2.5-7.8-4.1-11.6C163.5,119.7,159.9,120.3,156.2,120.6 M147.8,36.4c-3.3,0.3-6.5,0.7-9.6,1.3
	c0,2.9-0.1,5.8-0.3,8.5c2.8-0.2,5.6-0.3,8.6-0.3C147.1,42.8,147.5,39.6,147.8,36.4 M171.2,36.5c-4-0.5-8.2-0.7-12.4-0.7
	c-0.7,3.6-1.6,7.2-2.6,10.6c3.6,0.4,7.3,0.9,10.9,1.6C168.7,44.3,170.1,40.4,171.2,36.5 M122.5,124.9c2.3,1,4.7,1.8,7.3,2.6
	c0.3-2.6,0.4-5.2,0.4-7.7c-2.5-0.5-4.8-1.1-6.9-1.9C123.3,120.1,123,122.5,122.5,124.9 M117.6,140.3c2.7,1.7,5.5,3.4,8.4,4.9
	c1-3.1,1.8-6.2,2.5-9.3c-2.7-1.1-5.4-2.3-7.8-3.6C119.8,135,118.8,137.6,117.6,140.3 M122.5,42.2c0.5,2.5,0.8,4.8,0.8,7.1
	c2.1-0.8,4.4-1.4,6.9-2c0-2.5-0.1-5-0.4-7.7C127.3,40.4,124.8,41.2,122.5,42.2 M148,25.4c0-4.1-0.2-8.2-0.7-12.2
	c-3.9,1.1-7.8,2.5-11.7,4.1c0.7,3.6,1.3,7.2,1.6,10.8C140.8,27,144.4,26.1,148,25.4 M147.9,130.7c-0.3-3.2-0.8-6.4-1.3-9.5
	c-2.9,0-5.8-0.1-8.6-0.3c0.2,2.8,0.3,5.6,0.3,8.5C141.3,130,144.6,130.4,147.9,130.7 M117,52.1c0-0.4,0-0.9,0-1.3
	c-0.1-1.7-0.4-3.5-0.8-5.3c-1.6,1-3.1,2.1-4.4,3.2c-0.2,0.2-0.3,0.3-0.5,0.4C113.4,49.9,115.3,50.9,117,52.1 M116.9,116.3
	c0-0.6,0-1.1,0-1.7c-1.6,1.2-3.6,2.2-5.9,3.1c0.2,0.2,0.5,0.5,0.8,0.7c1.3,1.1,2.7,2.2,4.4,3.2C116.6,119.8,116.9,118,116.9,116.3
	 M106.1,24.5c-1.8-2.6-3.8-5.2-5.9-7.7c-2.1,2.5-4.1,5.1-5.9,7.7c2.1,2,4.1,4.1,5.9,6.2C102,28.6,104,26.5,106.1,24.5 M97.5,120.2
	c0.7,1.6,1.7,3.1,2.8,4.6c1.1-1.5,2-3.1,2.8-4.6c0.1-0.3,0.2-0.5,0.3-0.8c-1.1,0.1-2.3,0.2-3.5,0.2c-0.9,0-1.8-0.1-2.7-0.1
	C97.2,119.7,97.3,119.9,97.5,120.2 M103.2,47.3c-0.1-0.1-0.1-0.3-0.2-0.4c-0.7-1.5-1.7-3.1-2.8-4.7c-1.1,1.5-2,3.1-2.8,4.7
	c-0.1,0.1-0.1,0.3-0.2,0.4c0.9-0.1,1.8-0.1,2.8-0.1C101.1,47.2,102.2,47.2,103.2,47.3 M122.3,11.6c-1.6-3.8-3.4-7.5-5.4-11
	c-3.2,2.5-6.3,5.3-9.2,8.2c2.1,3,4,6.2,5.7,9.3C116.2,15.8,119.2,13.6,122.3,11.6 M110.6,135.3c1.3-2.3,2.4-4.6,3.3-6.9
	c-2.1-1.4-3.9-2.9-5.6-4.4c-0.9,2-2.1,4.1-3.5,6.2C106.6,132,108.5,133.7,110.6,135.3 M120.6,34.7c2.5-1.3,5.1-2.5,7.8-3.5
	c-0.7-3.1-1.5-6.2-2.5-9.3c-2.9,1.5-5.7,3.2-8.4,4.9C118.8,29.4,119.8,32.1,120.6,34.7 M83.5,114.6c0,0.6,0,1.1,0,1.7
	c0.1,1.7,0.4,3.5,0.8,5.3c1.6-1,3.1-2.1,4.4-3.2c0.3-0.2,0.5-0.5,0.8-0.7C87.3,116.9,85.3,115.9,83.5,114.6
	C83.5,114.6,83.5,114.6,83.5,114.6 M104.9,36.9c1.4,2.1,2.6,4.2,3.5,6.2c1.6-1.5,3.5-3,5.6-4.4c-0.9-2.3-2.1-4.6-3.3-6.9
	C108.5,33.4,106.6,35.1,104.9,36.9 M89.8,31.7c-1.3,2.3-2.4,4.7-3.3,6.9c2.1,1.4,4,2.9,5.6,4.4c0.9-2,2.1-4.1,3.5-6.2
	C93.9,35.1,91.9,33.4,89.8,31.7 M64.5,17.2c-3.8-1.6-7.8-2.9-11.7-4.1c-0.5,4-0.7,8.1-0.7,12.3c3.6,0.7,7.2,1.6,10.7,2.6
	C63.2,24.5,63.7,20.8,64.5,17.2 M53.9,45.9c2.9,0,5.8,0,8.6,0.3c-0.2-2.8-0.3-5.6-0.3-8.5c-3.1-0.6-6.3-1-9.6-1.3
	C52.9,39.6,53.4,42.8,53.9,45.9 M77.9,42.2c-2.3-1-4.7-1.8-7.3-2.5c-0.3,2.6-0.4,5.2-0.4,7.7c2.5,0.5,4.8,1.2,6.9,2
	C77.2,47,77.4,44.6,77.9,42.2 M92.8,8.7c-3-2.9-6.1-5.7-9.2-8.2c-2,3.5-3.8,7.2-5.4,11.1c3.1,2,6.1,4.2,8.9,6.5
	C88.8,14.9,90.7,11.8,92.8,8.7 M95.6,130.2c-1.4-2.1-2.6-4.2-3.5-6.2c-1.6,1.5-3.5,3-5.6,4.4c0.9,2.3,2,4.6,3.3,6.9
	C91.9,133.7,93.9,132,95.6,130.2 M44.2,46.5c-1-3.5-1.9-7-2.6-10.6c-4.2,0-8.3,0.2-12.4,0.7c1.1,3.9,2.5,7.8,4.1,11.6
	C36.9,47.4,40.6,46.8,44.2,46.5 M82.8,26.8c-2.7-1.7-5.5-3.3-8.4-4.9c-1,3.1-1.8,6.2-2.4,9.3c2.7,1.1,5.4,2.3,7.8,3.5
	C80.7,32.1,81.7,29.4,82.8,26.8 M84.3,45.4c-0.4,1.8-0.7,3.6-0.8,5.3c0,0.5,0,1,0,1.4c1.7-1.2,3.6-2.3,5.7-3.1
	c-0.2-0.2-0.3-0.3-0.5-0.5C87.4,47.5,85.9,46.4,84.3,45.4"/>
</svg>
